<?xml version="1.0" encoding="utf-8" standalone="no"?>
<!DOCTYPE svg PUBLIC "-//W3C//DTD SVG 1.1//EN"
  "http://www.w3.org/Graphics/SVG/1.1/DTD/svg11.dtd">
<svg xmlns:xlink="http://www.w3.org/1999/xlink" width="635.657989pt" height="597.6pt" viewBox="0 0 635.657989 597.6" xmlns="http://www.w3.org/2000/svg" version="1.1">
 <metadata>
  <rdf:RDF xmlns:dc="http://purl.org/dc/elements/1.1/" xmlns:cc="http://creativecommons.org/ns#" xmlns:rdf="http://www.w3.org/1999/02/22-rdf-syntax-ns#">
   <cc:Work>
    <dc:type rdf:resource="http://purl.org/dc/dcmitype/StillImage"/>
    <dc:date/>
    <dc:format>image/svg+xml</dc:format>
    <dc:creator>
     <cc:Agent>
      <dc:title>Matplotlib v3.6.2, https://matplotlib.org/</dc:title>
     </cc:Agent>
    </dc:creator>
   </cc:Work>
  </rdf:RDF>
 </metadata>
 <defs>
  <style type="text/css">*{stroke-linejoin: round; stroke-linecap: butt}</style>
 </defs>
 <g id="figure_1">
  <g id="patch_1">
   <path d="M 0 597.6 
L 635.657989 597.6 
L 635.657989 0 
L 0 0 
z
" style="fill: #ffffff"/>
  </g>
  <g id="patch_2">
   <path d="M 21.6 576 
L 576 576 
L 576 21.6 
L 21.6 21.6 
z
" style="fill: #ffffff"/>
  </g>
  <g id="pane3d_1">
   <g id="patch_3">
    <path d="M 41.312472 360.463759 
L 168.231956 259.540656 
L 164.248407 108.857576 
L 33.198586 203.642949 
" style="fill: #f2f2f2; opacity: 0.5; stroke: #f2f2f2; stroke-linejoin: miter"/>
   </g>
  </g>
  <g id="pane3d_2">
   <g id="patch_4">
    <path d="M 168.231956 259.540656 
L 573.729769 377.157828 
L 581.997262 219.353145 
L 164.248407 108.857576 
" style="fill: #e6e6e6; opacity: 0.5; stroke: #e6e6e6; stroke-linejoin: miter"/>
   </g>
  </g>
  <g id="pane3d_3">
   <g id="patch_5">
    <path d="M 41.312472 360.463759 
L 463.330816 493.019825 
L 573.729769 377.157828 
L 168.231956 259.540656 
" style="fill: #ececec; opacity: 0.5; stroke: #ececec; stroke-linejoin: miter"/>
   </g>
  </g>
  <g id="axis3d_1">
   <g id="line2d_1">
    <path d="M 41.312472 360.463759 
L 463.330816 493.019825 
" style="fill: none; stroke: #000000; stroke-width: 0.8; stroke-linecap: square"/>
   </g>
   <g id="text_1">
    <!-- Python version -->
    <g transform="translate(187.76057 443.267396) rotate(-342.562483) scale(0.12 -0.12)">
     <defs>
      <path id="DejaVuSans-50" d="M 1259 4147 
L 1259 2394 
L 2053 2394 
Q 2494 2394 2734 2622 
Q 2975 2850 2975 3272 
Q 2975 3691 2734 3919 
Q 2494 4147 2053 4147 
L 1259 4147 
z
M 628 4666 
L 2053 4666 
Q 2838 4666 3239 4311 
Q 3641 3956 3641 3272 
Q 3641 2581 3239 2228 
Q 2838 1875 2053 1875 
L 1259 1875 
L 1259 0 
L 628 0 
L 628 4666 
z
" transform="scale(0.015625)"/>
      <path id="DejaVuSans-79" d="M 2059 -325 
Q 1816 -950 1584 -1140 
Q 1353 -1331 966 -1331 
L 506 -1331 
L 506 -850 
L 844 -850 
Q 1081 -850 1212 -737 
Q 1344 -625 1503 -206 
L 1606 56 
L 191 3500 
L 800 3500 
L 1894 763 
L 2988 3500 
L 3597 3500 
L 2059 -325 
z
" transform="scale(0.015625)"/>
      <path id="DejaVuSans-74" d="M 1172 4494 
L 1172 3500 
L 2356 3500 
L 2356 3053 
L 1172 3053 
L 1172 1153 
Q 1172 725 1289 603 
Q 1406 481 1766 481 
L 2356 481 
L 2356 0 
L 1766 0 
Q 1100 0 847 248 
Q 594 497 594 1153 
L 594 3053 
L 172 3053 
L 172 3500 
L 594 3500 
L 594 4494 
L 1172 4494 
z
" transform="scale(0.015625)"/>
      <path id="DejaVuSans-68" d="M 3513 2113 
L 3513 0 
L 2938 0 
L 2938 2094 
Q 2938 2591 2744 2837 
Q 2550 3084 2163 3084 
Q 1697 3084 1428 2787 
Q 1159 2491 1159 1978 
L 1159 0 
L 581 0 
L 581 4863 
L 1159 4863 
L 1159 2956 
Q 1366 3272 1645 3428 
Q 1925 3584 2291 3584 
Q 2894 3584 3203 3211 
Q 3513 2838 3513 2113 
z
" transform="scale(0.015625)"/>
      <path id="DejaVuSans-6f" d="M 1959 3097 
Q 1497 3097 1228 2736 
Q 959 2375 959 1747 
Q 959 1119 1226 758 
Q 1494 397 1959 397 
Q 2419 397 2687 759 
Q 2956 1122 2956 1747 
Q 2956 2369 2687 2733 
Q 2419 3097 1959 3097 
z
M 1959 3584 
Q 2709 3584 3137 3096 
Q 3566 2609 3566 1747 
Q 3566 888 3137 398 
Q 2709 -91 1959 -91 
Q 1206 -91 779 398 
Q 353 888 353 1747 
Q 353 2609 779 3096 
Q 1206 3584 1959 3584 
z
" transform="scale(0.015625)"/>
      <path id="DejaVuSans-6e" d="M 3513 2113 
L 3513 0 
L 2938 0 
L 2938 2094 
Q 2938 2591 2744 2837 
Q 2550 3084 2163 3084 
Q 1697 3084 1428 2787 
Q 1159 2491 1159 1978 
L 1159 0 
L 581 0 
L 581 3500 
L 1159 3500 
L 1159 2956 
Q 1366 3272 1645 3428 
Q 1925 3584 2291 3584 
Q 2894 3584 3203 3211 
Q 3513 2838 3513 2113 
z
" transform="scale(0.015625)"/>
      <path id="DejaVuSans-20" transform="scale(0.015625)"/>
      <path id="DejaVuSans-76" d="M 191 3500 
L 800 3500 
L 1894 563 
L 2988 3500 
L 3597 3500 
L 2284 0 
L 1503 0 
L 191 3500 
z
" transform="scale(0.015625)"/>
      <path id="DejaVuSans-65" d="M 3597 1894 
L 3597 1613 
L 953 1613 
Q 991 1019 1311 708 
Q 1631 397 2203 397 
Q 2534 397 2845 478 
Q 3156 559 3463 722 
L 3463 178 
Q 3153 47 2828 -22 
Q 2503 -91 2169 -91 
Q 1331 -91 842 396 
Q 353 884 353 1716 
Q 353 2575 817 3079 
Q 1281 3584 2069 3584 
Q 2775 3584 3186 3129 
Q 3597 2675 3597 1894 
z
M 3022 2063 
Q 3016 2534 2758 2815 
Q 2500 3097 2075 3097 
Q 1594 3097 1305 2825 
Q 1016 2553 972 2059 
L 3022 2063 
z
" transform="scale(0.015625)"/>
      <path id="DejaVuSans-72" d="M 2631 2963 
Q 2534 3019 2420 3045 
Q 2306 3072 2169 3072 
Q 1681 3072 1420 2755 
Q 1159 2438 1159 1844 
L 1159 0 
L 581 0 
L 581 3500 
L 1159 3500 
L 1159 2956 
Q 1341 3275 1631 3429 
Q 1922 3584 2338 3584 
Q 2397 3584 2469 3576 
Q 2541 3569 2628 3553 
L 2631 2963 
z
" transform="scale(0.015625)"/>
      <path id="DejaVuSans-73" d="M 2834 3397 
L 2834 2853 
Q 2591 2978 2328 3040 
Q 2066 3103 1784 3103 
Q 1356 3103 1142 2972 
Q 928 2841 928 2578 
Q 928 2378 1081 2264 
Q 1234 2150 1697 2047 
L 1894 2003 
Q 2506 1872 2764 1633 
Q 3022 1394 3022 966 
Q 3022 478 2636 193 
Q 2250 -91 1575 -91 
Q 1294 -91 989 -36 
Q 684 19 347 128 
L 347 722 
Q 666 556 975 473 
Q 1284 391 1588 391 
Q 1994 391 2212 530 
Q 2431 669 2431 922 
Q 2431 1156 2273 1281 
Q 2116 1406 1581 1522 
L 1381 1569 
Q 847 1681 609 1914 
Q 372 2147 372 2553 
Q 372 3047 722 3315 
Q 1072 3584 1716 3584 
Q 2034 3584 2315 3537 
Q 2597 3491 2834 3397 
z
" transform="scale(0.015625)"/>
      <path id="DejaVuSans-69" d="M 603 3500 
L 1178 3500 
L 1178 0 
L 603 0 
L 603 3500 
z
M 603 4863 
L 1178 4863 
L 1178 4134 
L 603 4134 
L 603 4863 
z
" transform="scale(0.015625)"/>
     </defs>
     <use xlink:href="#DejaVuSans-50"/>
     <use xlink:href="#DejaVuSans-79" x="60.302734"/>
     <use xlink:href="#DejaVuSans-74" x="119.482422"/>
     <use xlink:href="#DejaVuSans-68" x="158.691406"/>
     <use xlink:href="#DejaVuSans-6f" x="222.070312"/>
     <use xlink:href="#DejaVuSans-6e" x="283.251953"/>
     <use xlink:href="#DejaVuSans-20" x="346.630859"/>
     <use xlink:href="#DejaVuSans-76" x="378.417969"/>
     <use xlink:href="#DejaVuSans-65" x="437.597656"/>
     <use xlink:href="#DejaVuSans-72" x="499.121094"/>
     <use xlink:href="#DejaVuSans-73" x="540.234375"/>
     <use xlink:href="#DejaVuSans-69" x="592.333984"/>
     <use xlink:href="#DejaVuSans-6f" x="620.117188"/>
     <use xlink:href="#DejaVuSans-6e" x="681.298828"/>
    </g>
   </g>
   <g id="Line3DCollection_1">
    <path d="M 66.435183 368.354809 
L 192.464986 266.569598 
L 189.166665 115.448515 
" style="fill: none; stroke: #b0b0b0; stroke-width: 0.8"/>
    <path d="M 84.706233 374.09375 
L 210.08151 271.67938 
L 207.285061 120.240874 
" style="fill: none; stroke: #b0b0b0; stroke-width: 0.8"/>
    <path d="M 103.093693 379.869256 
L 227.803915 276.819875 
L 225.515529 125.062876 
" style="fill: none; stroke: #b0b0b0; stroke-width: 0.8"/>
    <path d="M 121.598681 385.681677 
L 245.633159 281.991358 
L 243.859114 129.914798 
" style="fill: none; stroke: #b0b0b0; stroke-width: 0.8"/>
    <path d="M 140.222327 391.531369 
L 263.570211 287.194112 
L 262.31687 134.796919 
" style="fill: none; stroke: #b0b0b0; stroke-width: 0.8"/>
    <path d="M 158.965775 397.418691 
L 281.616052 292.428421 
L 280.889868 139.709521 
" style="fill: none; stroke: #b0b0b0; stroke-width: 0.8"/>
    <path d="M 177.830185 403.344007 
L 299.771673 297.694572 
L 299.57919 144.652891 
" style="fill: none; stroke: #b0b0b0; stroke-width: 0.8"/>
    <path d="M 196.816732 409.307686 
L 318.038081 302.992858 
L 318.385931 149.627319 
" style="fill: none; stroke: #b0b0b0; stroke-width: 0.8"/>
    <path d="M 215.926607 415.310102 
L 336.416293 308.323573 
L 337.311203 154.633099 
" style="fill: none; stroke: #b0b0b0; stroke-width: 0.8"/>
    <path d="M 235.161014 421.351634 
L 354.907337 313.687016 
L 356.356128 159.670527 
" style="fill: none; stroke: #b0b0b0; stroke-width: 0.8"/>
    <path d="M 254.521174 427.432665 
L 373.512257 319.083489 
L 375.521847 164.739905 
" style="fill: none; stroke: #b0b0b0; stroke-width: 0.8"/>
    <path d="M 274.008326 433.553584 
L 392.232106 324.513298 
L 394.809511 169.841538 
" style="fill: none; stroke: #b0b0b0; stroke-width: 0.8"/>
    <path d="M 293.623723 439.714785 
L 411.067955 329.976754 
L 414.220288 174.975735 
" style="fill: none; stroke: #b0b0b0; stroke-width: 0.8"/>
    <path d="M 313.368635 445.916667 
L 430.020884 335.474169 
L 433.75536 180.142808 
" style="fill: none; stroke: #b0b0b0; stroke-width: 0.8"/>
    <path d="M 333.244348 452.159634 
L 449.091988 341.005862 
L 453.415926 185.343075 
" style="fill: none; stroke: #b0b0b0; stroke-width: 0.8"/>
    <path d="M 353.252167 458.444095 
L 468.282376 346.572154 
L 473.203197 190.576855 
" style="fill: none; stroke: #b0b0b0; stroke-width: 0.8"/>
    <path d="M 373.393414 464.770465 
L 487.59317 352.17337 
L 493.118405 195.844475 
" style="fill: none; stroke: #b0b0b0; stroke-width: 0.8"/>
    <path d="M 393.669428 471.139166 
L 507.025508 357.809841 
L 513.162792 201.146264 
" style="fill: none; stroke: #b0b0b0; stroke-width: 0.8"/>
    <path d="M 414.081565 477.550623 
L 526.58054 363.4819 
L 533.33762 206.482554 
" style="fill: none; stroke: #b0b0b0; stroke-width: 0.8"/>
    <path d="M 434.631201 484.005269 
L 546.259433 369.189886 
L 553.644166 211.853684 
" style="fill: none; stroke: #b0b0b0; stroke-width: 0.8"/>
   </g>
   <g id="xtick_1">
    <g id="line2d_2">
     <path d="M 67.503086 367.492341 
L 64.296315 370.082219 
" style="fill: none; stroke: #000000; stroke-width: 0.8; stroke-linecap: square"/>
    </g>
    <g id="text_2">
     <!-- 2.0 -->
     <g transform="translate(53.443759 386.338624) scale(0.1 -0.1)">
      <defs>
       <path id="DejaVuSans-32" d="M 1228 531 
L 3431 531 
L 3431 0 
L 469 0 
L 469 531 
Q 828 903 1448 1529 
Q 2069 2156 2228 2338 
Q 2531 2678 2651 2914 
Q 2772 3150 2772 3378 
Q 2772 3750 2511 3984 
Q 2250 4219 1831 4219 
Q 1534 4219 1204 4116 
Q 875 4013 500 3803 
L 500 4441 
Q 881 4594 1212 4672 
Q 1544 4750 1819 4750 
Q 2544 4750 2975 4387 
Q 3406 4025 3406 3419 
Q 3406 3131 3298 2873 
Q 3191 2616 2906 2266 
Q 2828 2175 2409 1742 
Q 1991 1309 1228 531 
z
" transform="scale(0.015625)"/>
       <path id="DejaVuSans-2e" d="M 684 794 
L 1344 794 
L 1344 0 
L 684 0 
L 684 794 
z
" transform="scale(0.015625)"/>
       <path id="DejaVuSans-30" d="M 2034 4250 
Q 1547 4250 1301 3770 
Q 1056 3291 1056 2328 
Q 1056 1369 1301 889 
Q 1547 409 2034 409 
Q 2525 409 2770 889 
Q 3016 1369 3016 2328 
Q 3016 3291 2770 3770 
Q 2525 4250 2034 4250 
z
M 2034 4750 
Q 2819 4750 3233 4129 
Q 3647 3509 3647 2328 
Q 3647 1150 3233 529 
Q 2819 -91 2034 -91 
Q 1250 -91 836 529 
Q 422 1150 422 2328 
Q 422 3509 836 4129 
Q 1250 4750 2034 4750 
z
" transform="scale(0.015625)"/>
      </defs>
      <use xlink:href="#DejaVuSans-32"/>
      <use xlink:href="#DejaVuSans-2e" x="63.623047"/>
      <use xlink:href="#DejaVuSans-30" x="95.410156"/>
     </g>
    </g>
   </g>
   <g id="xtick_2">
    <g id="line2d_3">
     <path d="M 85.768778 373.225797 
L 82.578086 375.832154 
" style="fill: none; stroke: #000000; stroke-width: 0.8; stroke-linecap: square"/>
    </g>
    <g id="text_3">
     <!-- 2.1 -->
     <g transform="translate(71.720595 392.117434) scale(0.1 -0.1)">
      <defs>
       <path id="DejaVuSans-31" d="M 794 531 
L 1825 531 
L 1825 4091 
L 703 3866 
L 703 4441 
L 1819 4666 
L 2450 4666 
L 2450 531 
L 3481 531 
L 3481 0 
L 794 0 
L 794 531 
z
" transform="scale(0.015625)"/>
      </defs>
      <use xlink:href="#DejaVuSans-32"/>
      <use xlink:href="#DejaVuSans-2e" x="63.623047"/>
      <use xlink:href="#DejaVuSans-31" x="95.410156"/>
     </g>
    </g>
   </g>
   <g id="xtick_3">
    <g id="line2d_4">
     <path d="M 104.150791 378.995765 
L 100.976448 381.618759 
" style="fill: none; stroke: #000000; stroke-width: 0.8; stroke-linecap: square"/>
    </g>
    <g id="text_4">
     <!-- 2.2 -->
     <g transform="translate(90.114018 397.933107) scale(0.1 -0.1)">
      <use xlink:href="#DejaVuSans-32"/>
      <use xlink:href="#DejaVuSans-2e" x="63.623047"/>
      <use xlink:href="#DejaVuSans-32" x="95.410156"/>
     </g>
    </g>
   </g>
   <g id="xtick_4">
    <g id="line2d_5">
     <path d="M 122.65024 384.802596 
L 119.49252 387.442386 
" style="fill: none; stroke: #000000; stroke-width: 0.8; stroke-linecap: square"/>
    </g>
    <g id="text_5">
     <!-- 2.3 -->
     <g transform="translate(108.625148 403.785997) scale(0.1 -0.1)">
      <defs>
       <path id="DejaVuSans-33" d="M 2597 2516 
Q 3050 2419 3304 2112 
Q 3559 1806 3559 1356 
Q 3559 666 3084 287 
Q 2609 -91 1734 -91 
Q 1441 -91 1130 -33 
Q 819 25 488 141 
L 488 750 
Q 750 597 1062 519 
Q 1375 441 1716 441 
Q 2309 441 2620 675 
Q 2931 909 2931 1356 
Q 2931 1769 2642 2001 
Q 2353 2234 1838 2234 
L 1294 2234 
L 1294 2753 
L 1863 2753 
Q 2328 2753 2575 2939 
Q 2822 3125 2822 3475 
Q 2822 3834 2567 4026 
Q 2313 4219 1838 4219 
Q 1578 4219 1281 4162 
Q 984 4106 628 3988 
L 628 4550 
Q 988 4650 1302 4700 
Q 1616 4750 1894 4750 
Q 2613 4750 3031 4423 
Q 3450 4097 3450 3541 
Q 3450 3153 3228 2886 
Q 3006 2619 2597 2516 
z
" transform="scale(0.015625)"/>
      </defs>
      <use xlink:href="#DejaVuSans-32"/>
      <use xlink:href="#DejaVuSans-2e" x="63.623047"/>
      <use xlink:href="#DejaVuSans-33" x="95.410156"/>
     </g>
    </g>
   </g>
   <g id="xtick_5">
    <g id="line2d_6">
     <path d="M 141.268253 390.646643 
L 138.127436 393.303391 
" style="fill: none; stroke: #000000; stroke-width: 0.8; stroke-linecap: square"/>
    </g>
    <g id="text_6">
     <!-- 2.4 -->
     <g transform="translate(127.255118 409.676462) scale(0.1 -0.1)">
      <defs>
       <path id="DejaVuSans-34" d="M 2419 4116 
L 825 1625 
L 2419 1625 
L 2419 4116 
z
M 2253 4666 
L 3047 4666 
L 3047 1625 
L 3713 1625 
L 3713 1100 
L 3047 1100 
L 3047 0 
L 2419 0 
L 2419 1100 
L 313 1100 
L 313 1709 
L 2253 4666 
z
" transform="scale(0.015625)"/>
      </defs>
      <use xlink:href="#DejaVuSans-32"/>
      <use xlink:href="#DejaVuSans-2e" x="63.623047"/>
      <use xlink:href="#DejaVuSans-34" x="95.410156"/>
     </g>
    </g>
   </g>
   <g id="xtick_6">
    <g id="line2d_7">
     <path d="M 160.005975 396.528265 
L 156.882344 399.202135 
" style="fill: none; stroke: #000000; stroke-width: 0.8; stroke-linecap: square"/>
    </g>
    <g id="text_7">
     <!-- 2.5 -->
     <g transform="translate(146.005076 415.604865) scale(0.1 -0.1)">
      <defs>
       <path id="DejaVuSans-35" d="M 691 4666 
L 3169 4666 
L 3169 4134 
L 1269 4134 
L 1269 2991 
Q 1406 3038 1543 3061 
Q 1681 3084 1819 3084 
Q 2600 3084 3056 2656 
Q 3513 2228 3513 1497 
Q 3513 744 3044 326 
Q 2575 -91 1722 -91 
Q 1428 -91 1123 -41 
Q 819 9 494 109 
L 494 744 
Q 775 591 1075 516 
Q 1375 441 1709 441 
Q 2250 441 2565 725 
Q 2881 1009 2881 1497 
Q 2881 1984 2565 2268 
Q 2250 2553 1709 2553 
Q 1456 2553 1204 2497 
Q 953 2441 691 2322 
L 691 4666 
z
" transform="scale(0.015625)"/>
      </defs>
      <use xlink:href="#DejaVuSans-32"/>
      <use xlink:href="#DejaVuSans-2e" x="63.623047"/>
      <use xlink:href="#DejaVuSans-35" x="95.410156"/>
     </g>
    </g>
   </g>
   <g id="xtick_7">
    <g id="line2d_8">
     <path d="M 178.864563 402.447827 
L 175.758405 405.138985 
" style="fill: none; stroke: #000000; stroke-width: 0.8; stroke-linecap: square"/>
    </g>
    <g id="text_8">
     <!-- 2.6 -->
     <g transform="translate(164.876185 421.571574) scale(0.1 -0.1)">
      <defs>
       <path id="DejaVuSans-36" d="M 2113 2584 
Q 1688 2584 1439 2293 
Q 1191 2003 1191 1497 
Q 1191 994 1439 701 
Q 1688 409 2113 409 
Q 2538 409 2786 701 
Q 3034 994 3034 1497 
Q 3034 2003 2786 2293 
Q 2538 2584 2113 2584 
z
M 3366 4563 
L 3366 3988 
Q 3128 4100 2886 4159 
Q 2644 4219 2406 4219 
Q 1781 4219 1451 3797 
Q 1122 3375 1075 2522 
Q 1259 2794 1537 2939 
Q 1816 3084 2150 3084 
Q 2853 3084 3261 2657 
Q 3669 2231 3669 1497 
Q 3669 778 3244 343 
Q 2819 -91 2113 -91 
Q 1303 -91 875 529 
Q 447 1150 447 2328 
Q 447 3434 972 4092 
Q 1497 4750 2381 4750 
Q 2619 4750 2861 4703 
Q 3103 4656 3366 4563 
z
" transform="scale(0.015625)"/>
      </defs>
      <use xlink:href="#DejaVuSans-32"/>
      <use xlink:href="#DejaVuSans-2e" x="63.623047"/>
      <use xlink:href="#DejaVuSans-36" x="95.410156"/>
     </g>
    </g>
   </g>
   <g id="xtick_8">
    <g id="line2d_9">
     <path d="M 197.845191 408.405696 
L 194.756799 411.11431 
" style="fill: none; stroke: #000000; stroke-width: 0.8; stroke-linecap: square"/>
    </g>
    <g id="text_9">
     <!-- 2.7 -->
     <g transform="translate(183.869624 427.576961) scale(0.1 -0.1)">
      <defs>
       <path id="DejaVuSans-37" d="M 525 4666 
L 3525 4666 
L 3525 4397 
L 1831 0 
L 1172 0 
L 2766 4134 
L 525 4134 
L 525 4666 
z
" transform="scale(0.015625)"/>
      </defs>
      <use xlink:href="#DejaVuSans-32"/>
      <use xlink:href="#DejaVuSans-2e" x="63.623047"/>
      <use xlink:href="#DejaVuSans-37" x="95.410156"/>
     </g>
    </g>
   </g>
   <g id="xtick_9">
    <g id="line2d_10">
     <path d="M 216.949047 414.402245 
L 213.878717 417.128486 
" style="fill: none; stroke: #000000; stroke-width: 0.8; stroke-linecap: square"/>
    </g>
    <g id="text_10">
     <!-- 3.0 -->
     <g transform="translate(202.986584 433.621404) scale(0.1 -0.1)">
      <use xlink:href="#DejaVuSans-33"/>
      <use xlink:href="#DejaVuSans-2e" x="63.623047"/>
      <use xlink:href="#DejaVuSans-30" x="95.410156"/>
     </g>
    </g>
   </g>
   <g id="xtick_10">
    <g id="line2d_11">
     <path d="M 236.177336 420.437853 
L 233.12537 423.181893 
" style="fill: none; stroke: #000000; stroke-width: 0.8; stroke-linecap: square"/>
    </g>
    <g id="text_11">
     <!-- 3.1 -->
     <g transform="translate(222.228276 439.705285) scale(0.1 -0.1)">
      <use xlink:href="#DejaVuSans-33"/>
      <use xlink:href="#DejaVuSans-2e" x="63.623047"/>
      <use xlink:href="#DejaVuSans-31" x="95.410156"/>
     </g>
    </g>
   </g>
   <g id="xtick_11">
    <g id="line2d_12">
     <path d="M 255.531276 426.512902 
L 252.49798 429.274916 
" style="fill: none; stroke: #000000; stroke-width: 0.8; stroke-linecap: square"/>
    </g>
    <g id="text_12">
     <!-- 3.2 -->
     <g transform="translate(241.595924 445.828991) scale(0.1 -0.1)">
      <use xlink:href="#DejaVuSans-33"/>
      <use xlink:href="#DejaVuSans-2e" x="63.623047"/>
      <use xlink:href="#DejaVuSans-32" x="95.410156"/>
     </g>
    </g>
   </g>
   <g id="xtick_12">
    <g id="line2d_13">
     <path d="M 275.012104 432.627779 
L 271.997789 435.407945 
" style="fill: none; stroke: #000000; stroke-width: 0.8; stroke-linecap: square"/>
    </g>
    <g id="text_13">
     <!-- 3.3 -->
     <g transform="translate(261.090769 451.992914) scale(0.1 -0.1)">
      <use xlink:href="#DejaVuSans-33"/>
      <use xlink:href="#DejaVuSans-2e" x="63.623047"/>
      <use xlink:href="#DejaVuSans-33" x="95.410156"/>
     </g>
    </g>
   </g>
   <g id="xtick_13">
    <g id="line2d_14">
     <path d="M 294.621071 438.782879 
L 291.626054 441.581376 
" style="fill: none; stroke: #000000; stroke-width: 0.8; stroke-linecap: square"/>
    </g>
    <g id="text_14">
     <!-- 3.4 -->
     <g transform="translate(280.714068 458.197452) scale(0.1 -0.1)">
      <use xlink:href="#DejaVuSans-33"/>
      <use xlink:href="#DejaVuSans-2e" x="63.623047"/>
      <use xlink:href="#DejaVuSans-34" x="95.410156"/>
     </g>
    </g>
   </g>
   <g id="xtick_14">
    <g id="line2d_15">
     <path d="M 314.359447 444.978599 
L 311.384047 447.795609 
" style="fill: none; stroke: #000000; stroke-width: 0.8; stroke-linecap: square"/>
    </g>
    <g id="text_15">
     <!-- 3.5 -->
     <g transform="translate(300.467095 464.443007) scale(0.1 -0.1)">
      <use xlink:href="#DejaVuSans-33"/>
      <use xlink:href="#DejaVuSans-2e" x="63.623047"/>
      <use xlink:href="#DejaVuSans-35" x="95.410156"/>
     </g>
    </g>
   </g>
   <g id="xtick_15">
    <g id="line2d_16">
     <path d="M 334.228515 451.215342 
L 331.273061 454.051049 
" style="fill: none; stroke: #000000; stroke-width: 0.8; stroke-linecap: square"/>
    </g>
    <g id="text_16">
     <!-- 3.6 -->
     <g transform="translate(320.351141 470.729989) scale(0.1 -0.1)">
      <use xlink:href="#DejaVuSans-33"/>
      <use xlink:href="#DejaVuSans-2e" x="63.623047"/>
      <use xlink:href="#DejaVuSans-36" x="95.410156"/>
     </g>
    </g>
   </g>
   <g id="xtick_16">
    <g id="line2d_17">
     <path d="M 354.22958 457.493518 
L 351.294401 460.348109 
" style="fill: none; stroke: #000000; stroke-width: 0.8; stroke-linecap: square"/>
    </g>
    <g id="text_17">
     <!-- 3.7 -->
     <g transform="translate(340.367513 477.058809) scale(0.1 -0.1)">
      <use xlink:href="#DejaVuSans-33"/>
      <use xlink:href="#DejaVuSans-2e" x="63.623047"/>
      <use xlink:href="#DejaVuSans-37" x="95.410156"/>
     </g>
    </g>
   </g>
   <g id="xtick_17">
    <g id="line2d_18">
     <path d="M 374.363959 463.813541 
L 371.449393 466.687204 
" style="fill: none; stroke: #000000; stroke-width: 0.8; stroke-linecap: square"/>
    </g>
    <g id="text_18">
     <!-- 3.8 -->
     <g transform="translate(360.517536 483.429888) scale(0.1 -0.1)">
      <defs>
       <path id="DejaVuSans-38" d="M 2034 2216 
Q 1584 2216 1326 1975 
Q 1069 1734 1069 1313 
Q 1069 891 1326 650 
Q 1584 409 2034 409 
Q 2484 409 2743 651 
Q 3003 894 3003 1313 
Q 3003 1734 2745 1975 
Q 2488 2216 2034 2216 
z
M 1403 2484 
Q 997 2584 770 2862 
Q 544 3141 544 3541 
Q 544 4100 942 4425 
Q 1341 4750 2034 4750 
Q 2731 4750 3128 4425 
Q 3525 4100 3525 3541 
Q 3525 3141 3298 2862 
Q 3072 2584 2669 2484 
Q 3125 2378 3379 2068 
Q 3634 1759 3634 1313 
Q 3634 634 3220 271 
Q 2806 -91 2034 -91 
Q 1263 -91 848 271 
Q 434 634 434 1313 
Q 434 1759 690 2068 
Q 947 2378 1403 2484 
z
M 1172 3481 
Q 1172 3119 1398 2916 
Q 1625 2713 2034 2713 
Q 2441 2713 2670 2916 
Q 2900 3119 2900 3481 
Q 2900 3844 2670 4047 
Q 2441 4250 2034 4250 
Q 1625 4250 1398 4047 
Q 1172 3844 1172 3481 
z
" transform="scale(0.015625)"/>
      </defs>
      <use xlink:href="#DejaVuSans-33"/>
      <use xlink:href="#DejaVuSans-2e" x="63.623047"/>
      <use xlink:href="#DejaVuSans-38" x="95.410156"/>
     </g>
    </g>
   </g>
   <g id="xtick_18">
    <g id="line2d_19">
     <path d="M 394.632991 470.17583 
L 391.73938 473.068758 
" style="fill: none; stroke: #000000; stroke-width: 0.8; stroke-linecap: square"/>
    </g>
    <g id="text_19">
     <!-- 3.9 -->
     <g transform="translate(380.802555 489.84365) scale(0.1 -0.1)">
      <defs>
       <path id="DejaVuSans-39" d="M 703 97 
L 703 672 
Q 941 559 1184 500 
Q 1428 441 1663 441 
Q 2288 441 2617 861 
Q 2947 1281 2994 2138 
Q 2813 1869 2534 1725 
Q 2256 1581 1919 1581 
Q 1219 1581 811 2004 
Q 403 2428 403 3163 
Q 403 3881 828 4315 
Q 1253 4750 1959 4750 
Q 2769 4750 3195 4129 
Q 3622 3509 3622 2328 
Q 3622 1225 3098 567 
Q 2575 -91 1691 -91 
Q 1453 -91 1209 -44 
Q 966 3 703 97 
z
M 1959 2075 
Q 2384 2075 2632 2365 
Q 2881 2656 2881 3163 
Q 2881 3666 2632 3958 
Q 2384 4250 1959 4250 
Q 1534 4250 1286 3958 
Q 1038 3666 1038 3163 
Q 1038 2656 1286 2365 
Q 1534 2075 1959 2075 
z
" transform="scale(0.015625)"/>
      </defs>
      <use xlink:href="#DejaVuSans-33"/>
      <use xlink:href="#DejaVuSans-2e" x="63.623047"/>
      <use xlink:href="#DejaVuSans-39" x="95.410156"/>
     </g>
    </g>
   </g>
   <g id="xtick_19">
    <g id="line2d_20">
     <path d="M 415.038032 476.58081 
L 412.165722 479.493198 
" style="fill: none; stroke: #000000; stroke-width: 0.8; stroke-linecap: square"/>
    </g>
    <g id="text_20">
     <!-- 3.10 -->
     <g transform="translate(398.042679 496.300526) scale(0.1 -0.1)">
      <use xlink:href="#DejaVuSans-33"/>
      <use xlink:href="#DejaVuSans-2e" x="63.623047"/>
      <use xlink:href="#DejaVuSans-31" x="95.410156"/>
      <use xlink:href="#DejaVuSans-30" x="159.033203"/>
     </g>
    </g>
   </g>
   <g id="xtick_20">
    <g id="line2d_21">
     <path d="M 435.580454 483.028914 
L 432.7298 485.960958 
" style="fill: none; stroke: #000000; stroke-width: 0.8; stroke-linecap: square"/>
    </g>
    <g id="text_21">
     <!-- 3.11 -->
     <g transform="translate(418.60179 502.80095) scale(0.1 -0.1)">
      <use xlink:href="#DejaVuSans-33"/>
      <use xlink:href="#DejaVuSans-2e" x="63.623047"/>
      <use xlink:href="#DejaVuSans-31" x="95.410156"/>
      <use xlink:href="#DejaVuSans-31" x="159.033203"/>
     </g>
    </g>
   </g>
  </g>
  <g id="axis3d_2">
   <g id="line2d_22">
    <path d="M 573.729769 377.157828 
L 463.330816 493.019825 
" style="fill: none; stroke: #000000; stroke-width: 0.8; stroke-linecap: square"/>
   </g>
   <g id="text_22">
    <!-- Release date -->
    <g transform="translate(533.742058 488.90359) rotate(-46.383131) scale(0.12 -0.12)">
     <defs>
      <path id="DejaVuSans-52" d="M 2841 2188 
Q 3044 2119 3236 1894 
Q 3428 1669 3622 1275 
L 4263 0 
L 3584 0 
L 2988 1197 
Q 2756 1666 2539 1819 
Q 2322 1972 1947 1972 
L 1259 1972 
L 1259 0 
L 628 0 
L 628 4666 
L 2053 4666 
Q 2853 4666 3247 4331 
Q 3641 3997 3641 3322 
Q 3641 2881 3436 2590 
Q 3231 2300 2841 2188 
z
M 1259 4147 
L 1259 2491 
L 2053 2491 
Q 2509 2491 2742 2702 
Q 2975 2913 2975 3322 
Q 2975 3731 2742 3939 
Q 2509 4147 2053 4147 
L 1259 4147 
z
" transform="scale(0.015625)"/>
      <path id="DejaVuSans-6c" d="M 603 4863 
L 1178 4863 
L 1178 0 
L 603 0 
L 603 4863 
z
" transform="scale(0.015625)"/>
      <path id="DejaVuSans-61" d="M 2194 1759 
Q 1497 1759 1228 1600 
Q 959 1441 959 1056 
Q 959 750 1161 570 
Q 1363 391 1709 391 
Q 2188 391 2477 730 
Q 2766 1069 2766 1631 
L 2766 1759 
L 2194 1759 
z
M 3341 1997 
L 3341 0 
L 2766 0 
L 2766 531 
Q 2569 213 2275 61 
Q 1981 -91 1556 -91 
Q 1019 -91 701 211 
Q 384 513 384 1019 
Q 384 1609 779 1909 
Q 1175 2209 1959 2209 
L 2766 2209 
L 2766 2266 
Q 2766 2663 2505 2880 
Q 2244 3097 1772 3097 
Q 1472 3097 1187 3025 
Q 903 2953 641 2809 
L 641 3341 
Q 956 3463 1253 3523 
Q 1550 3584 1831 3584 
Q 2591 3584 2966 3190 
Q 3341 2797 3341 1997 
z
" transform="scale(0.015625)"/>
      <path id="DejaVuSans-64" d="M 2906 2969 
L 2906 4863 
L 3481 4863 
L 3481 0 
L 2906 0 
L 2906 525 
Q 2725 213 2448 61 
Q 2172 -91 1784 -91 
Q 1150 -91 751 415 
Q 353 922 353 1747 
Q 353 2572 751 3078 
Q 1150 3584 1784 3584 
Q 2172 3584 2448 3432 
Q 2725 3281 2906 2969 
z
M 947 1747 
Q 947 1113 1208 752 
Q 1469 391 1925 391 
Q 2381 391 2643 752 
Q 2906 1113 2906 1747 
Q 2906 2381 2643 2742 
Q 2381 3103 1925 3103 
Q 1469 3103 1208 2742 
Q 947 2381 947 1747 
z
" transform="scale(0.015625)"/>
     </defs>
     <use xlink:href="#DejaVuSans-52"/>
     <use xlink:href="#DejaVuSans-65" x="64.982422"/>
     <use xlink:href="#DejaVuSans-6c" x="126.505859"/>
     <use xlink:href="#DejaVuSans-65" x="154.289062"/>
     <use xlink:href="#DejaVuSans-61" x="215.8125"/>
     <use xlink:href="#DejaVuSans-73" x="277.091797"/>
     <use xlink:href="#DejaVuSans-65" x="329.191406"/>
     <use xlink:href="#DejaVuSans-20" x="390.714844"/>
     <use xlink:href="#DejaVuSans-64" x="422.501953"/>
     <use xlink:href="#DejaVuSans-61" x="485.978516"/>
     <use xlink:href="#DejaVuSans-74" x="547.257812"/>
     <use xlink:href="#DejaVuSans-65" x="586.466797"/>
    </g>
   </g>
   <g id="Line3DCollection_2">
    <path d="M 61.126778 183.443119 
L 68.323937 338.984938 
L 486.902678 468.28152 
" style="fill: none; stroke: #b0b0b0; stroke-width: 0.8"/>
    <path d="M 86.113053 165.371111 
L 92.506794 319.755353 
L 507.971007 446.170634 
" style="fill: none; stroke: #b0b0b0; stroke-width: 0.8"/>
    <path d="M 110.548784 147.697299 
L 116.172116 300.937299 
L 528.556417 424.566564 
" style="fill: none; stroke: #b0b0b0; stroke-width: 0.8"/>
    <path d="M 134.430397 130.424269 
L 139.315431 282.534331 
L 548.657174 403.47113 
" style="fill: none; stroke: #b0b0b0; stroke-width: 0.8"/>
    <path d="M 157.818719 113.508024 
L 161.994745 264.500325 
L 568.325661 382.829357 
" style="fill: none; stroke: #b0b0b0; stroke-width: 0.8"/>
   </g>
   <g id="xtick_21">
    <g id="line2d_23">
     <path d="M 483.312604 467.172567 
L 494.095373 470.503303 
" style="fill: none; stroke: #000000; stroke-width: 0.8; stroke-linecap: square"/>
    </g>
    <g id="text_23">
     <!-- 2011 -->
     <g transform="translate(491.863262 487.711378) scale(0.1 -0.1)">
      <use xlink:href="#DejaVuSans-32"/>
      <use xlink:href="#DejaVuSans-30" x="63.623047"/>
      <use xlink:href="#DejaVuSans-31" x="127.246094"/>
      <use xlink:href="#DejaVuSans-31" x="190.869141"/>
     </g>
    </g>
   </g>
   <g id="xtick_22">
    <g id="line2d_24">
     <path d="M 504.410423 445.087237 
L 515.104476 448.341168 
" style="fill: none; stroke: #000000; stroke-width: 0.8; stroke-linecap: square"/>
    </g>
    <g id="text_24">
     <!-- 2014 -->
     <g transform="translate(512.760471 465.427149) scale(0.1 -0.1)">
      <use xlink:href="#DejaVuSans-32"/>
      <use xlink:href="#DejaVuSans-30" x="63.623047"/>
      <use xlink:href="#DejaVuSans-31" x="127.246094"/>
      <use xlink:href="#DejaVuSans-34" x="190.869141"/>
     </g>
    </g>
   </g>
   <g id="xtick_23">
    <g id="line2d_25">
     <path d="M 525.024921 423.507852 
L 535.631469 426.687603 
" style="fill: none; stroke: #000000; stroke-width: 0.8; stroke-linecap: square"/>
    </g>
    <g id="text_25">
     <!-- 2017 -->
     <g transform="translate(533.177913 443.654532) scale(0.1 -0.1)">
      <use xlink:href="#DejaVuSans-32"/>
      <use xlink:href="#DejaVuSans-30" x="63.623047"/>
      <use xlink:href="#DejaVuSans-31" x="127.246094"/>
      <use xlink:href="#DejaVuSans-37" x="190.869141"/>
     </g>
    </g>
   </g>
   <g id="xtick_24">
    <g id="line2d_26">
     <path d="M 545.154343 402.436246 
L 555.674661 405.544391 
" style="fill: none; stroke: #000000; stroke-width: 0.8; stroke-linecap: square"/>
    </g>
    <g id="text_26">
     <!-- 2020 -->
     <g transform="translate(553.113923 422.395302) scale(0.1 -0.1)">
      <use xlink:href="#DejaVuSans-32"/>
      <use xlink:href="#DejaVuSans-30" x="63.623047"/>
      <use xlink:href="#DejaVuSans-32" x="127.246094"/>
      <use xlink:href="#DejaVuSans-30" x="190.869141"/>
     </g>
    </g>
   </g>
   <g id="xtick_25">
    <g id="line2d_27">
     <path d="M 564.85113 381.817527 
L 575.286321 384.856395 
" style="fill: none; stroke: #000000; stroke-width: 0.8; stroke-linecap: square"/>
    </g>
    <g id="text_27">
     <!-- 2023 -->
     <g transform="translate(572.620503 401.594004) scale(0.1 -0.1)">
      <use xlink:href="#DejaVuSans-32"/>
      <use xlink:href="#DejaVuSans-30" x="63.623047"/>
      <use xlink:href="#DejaVuSans-32" x="127.246094"/>
      <use xlink:href="#DejaVuSans-33" x="190.869141"/>
     </g>
    </g>
   </g>
  </g>
  <g id="axis3d_3">
   <g id="line2d_28">
    <path d="M 573.729769 377.157828 
L 581.997262 219.353145 
" style="fill: none; stroke: #000000; stroke-width: 0.8; stroke-linecap: square"/>
   </g>
   <g id="text_28">
    <!-- Amount of version-specific features -->
    <g transform="translate(622.800538 407.579611) rotate(-87.000978) scale(0.12 -0.12)">
     <defs>
      <path id="DejaVuSans-41" d="M 2188 4044 
L 1331 1722 
L 3047 1722 
L 2188 4044 
z
M 1831 4666 
L 2547 4666 
L 4325 0 
L 3669 0 
L 3244 1197 
L 1141 1197 
L 716 0 
L 50 0 
L 1831 4666 
z
" transform="scale(0.015625)"/>
      <path id="DejaVuSans-6d" d="M 3328 2828 
Q 3544 3216 3844 3400 
Q 4144 3584 4550 3584 
Q 5097 3584 5394 3201 
Q 5691 2819 5691 2113 
L 5691 0 
L 5113 0 
L 5113 2094 
Q 5113 2597 4934 2840 
Q 4756 3084 4391 3084 
Q 3944 3084 3684 2787 
Q 3425 2491 3425 1978 
L 3425 0 
L 2847 0 
L 2847 2094 
Q 2847 2600 2669 2842 
Q 2491 3084 2119 3084 
Q 1678 3084 1418 2786 
Q 1159 2488 1159 1978 
L 1159 0 
L 581 0 
L 581 3500 
L 1159 3500 
L 1159 2956 
Q 1356 3278 1631 3431 
Q 1906 3584 2284 3584 
Q 2666 3584 2933 3390 
Q 3200 3197 3328 2828 
z
" transform="scale(0.015625)"/>
      <path id="DejaVuSans-75" d="M 544 1381 
L 544 3500 
L 1119 3500 
L 1119 1403 
Q 1119 906 1312 657 
Q 1506 409 1894 409 
Q 2359 409 2629 706 
Q 2900 1003 2900 1516 
L 2900 3500 
L 3475 3500 
L 3475 0 
L 2900 0 
L 2900 538 
Q 2691 219 2414 64 
Q 2138 -91 1772 -91 
Q 1169 -91 856 284 
Q 544 659 544 1381 
z
M 1991 3584 
L 1991 3584 
z
" transform="scale(0.015625)"/>
      <path id="DejaVuSans-66" d="M 2375 4863 
L 2375 4384 
L 1825 4384 
Q 1516 4384 1395 4259 
Q 1275 4134 1275 3809 
L 1275 3500 
L 2222 3500 
L 2222 3053 
L 1275 3053 
L 1275 0 
L 697 0 
L 697 3053 
L 147 3053 
L 147 3500 
L 697 3500 
L 697 3744 
Q 697 4328 969 4595 
Q 1241 4863 1831 4863 
L 2375 4863 
z
" transform="scale(0.015625)"/>
      <path id="DejaVuSans-2d" d="M 313 2009 
L 1997 2009 
L 1997 1497 
L 313 1497 
L 313 2009 
z
" transform="scale(0.015625)"/>
      <path id="DejaVuSans-70" d="M 1159 525 
L 1159 -1331 
L 581 -1331 
L 581 3500 
L 1159 3500 
L 1159 2969 
Q 1341 3281 1617 3432 
Q 1894 3584 2278 3584 
Q 2916 3584 3314 3078 
Q 3713 2572 3713 1747 
Q 3713 922 3314 415 
Q 2916 -91 2278 -91 
Q 1894 -91 1617 61 
Q 1341 213 1159 525 
z
M 3116 1747 
Q 3116 2381 2855 2742 
Q 2594 3103 2138 3103 
Q 1681 3103 1420 2742 
Q 1159 2381 1159 1747 
Q 1159 1113 1420 752 
Q 1681 391 2138 391 
Q 2594 391 2855 752 
Q 3116 1113 3116 1747 
z
" transform="scale(0.015625)"/>
      <path id="DejaVuSans-63" d="M 3122 3366 
L 3122 2828 
Q 2878 2963 2633 3030 
Q 2388 3097 2138 3097 
Q 1578 3097 1268 2742 
Q 959 2388 959 1747 
Q 959 1106 1268 751 
Q 1578 397 2138 397 
Q 2388 397 2633 464 
Q 2878 531 3122 666 
L 3122 134 
Q 2881 22 2623 -34 
Q 2366 -91 2075 -91 
Q 1284 -91 818 406 
Q 353 903 353 1747 
Q 353 2603 823 3093 
Q 1294 3584 2113 3584 
Q 2378 3584 2631 3529 
Q 2884 3475 3122 3366 
z
" transform="scale(0.015625)"/>
     </defs>
     <use xlink:href="#DejaVuSans-41"/>
     <use xlink:href="#DejaVuSans-6d" x="68.408203"/>
     <use xlink:href="#DejaVuSans-6f" x="165.820312"/>
     <use xlink:href="#DejaVuSans-75" x="227.001953"/>
     <use xlink:href="#DejaVuSans-6e" x="290.380859"/>
     <use xlink:href="#DejaVuSans-74" x="353.759766"/>
     <use xlink:href="#DejaVuSans-20" x="392.96875"/>
     <use xlink:href="#DejaVuSans-6f" x="424.755859"/>
     <use xlink:href="#DejaVuSans-66" x="485.9375"/>
     <use xlink:href="#DejaVuSans-20" x="521.142578"/>
     <use xlink:href="#DejaVuSans-76" x="552.929688"/>
     <use xlink:href="#DejaVuSans-65" x="612.109375"/>
     <use xlink:href="#DejaVuSans-72" x="673.632812"/>
     <use xlink:href="#DejaVuSans-73" x="714.746094"/>
     <use xlink:href="#DejaVuSans-69" x="766.845703"/>
     <use xlink:href="#DejaVuSans-6f" x="794.628906"/>
     <use xlink:href="#DejaVuSans-6e" x="855.810547"/>
     <use xlink:href="#DejaVuSans-2d" x="919.189453"/>
     <use xlink:href="#DejaVuSans-73" x="955.273438"/>
     <use xlink:href="#DejaVuSans-70" x="1007.373047"/>
     <use xlink:href="#DejaVuSans-65" x="1070.849609"/>
     <use xlink:href="#DejaVuSans-63" x="1132.373047"/>
     <use xlink:href="#DejaVuSans-69" x="1187.353516"/>
     <use xlink:href="#DejaVuSans-66" x="1215.136719"/>
     <use xlink:href="#DejaVuSans-69" x="1250.341797"/>
     <use xlink:href="#DejaVuSans-63" x="1278.125"/>
     <use xlink:href="#DejaVuSans-20" x="1333.105469"/>
     <use xlink:href="#DejaVuSans-66" x="1364.892578"/>
     <use xlink:href="#DejaVuSans-65" x="1400.097656"/>
     <use xlink:href="#DejaVuSans-61" x="1461.621094"/>
     <use xlink:href="#DejaVuSans-74" x="1522.900391"/>
     <use xlink:href="#DejaVuSans-75" x="1562.109375"/>
     <use xlink:href="#DejaVuSans-72" x="1625.488281"/>
     <use xlink:href="#DejaVuSans-65" x="1664.351562"/>
     <use xlink:href="#DejaVuSans-73" x="1725.875"/>
    </g>
   </g>
   <g id="Line3DCollection_3">
    <path d="M 573.890257 374.094538 
L 168.154476 256.609867 
L 41.154922 357.41872 
" style="fill: none; stroke: #b0b0b0; stroke-width: 0.8"/>
    <path d="M 574.874603 355.305969 
L 167.679386 238.638972 
L 40.188634 338.742824 
" style="fill: none; stroke: #b0b0b0; stroke-width: 0.8"/>
    <path d="M 575.866217 336.378663 
L 167.201018 220.544038 
L 39.215276 319.930303 
" style="fill: none; stroke: #b0b0b0; stroke-width: 0.8"/>
    <path d="M 576.86518 317.31108 
L 166.719336 202.323775 
L 38.234772 300.97965 
" style="fill: none; stroke: #b0b0b0; stroke-width: 0.8"/>
    <path d="M 577.871575 298.101653 
L 166.234306 183.976878 
L 37.247043 281.88934 
" style="fill: none; stroke: #b0b0b0; stroke-width: 0.8"/>
    <path d="M 578.885484 278.748794 
L 165.745894 165.502021 
L 36.252007 262.657823 
" style="fill: none; stroke: #b0b0b0; stroke-width: 0.8"/>
    <path d="M 579.906992 259.250891 
L 165.254063 146.897861 
L 35.249583 243.283526 
" style="fill: none; stroke: #b0b0b0; stroke-width: 0.8"/>
    <path d="M 580.936185 239.606306 
L 164.758778 128.163036 
L 34.23969 223.764853 
" style="fill: none; stroke: #b0b0b0; stroke-width: 0.8"/>
   </g>
   <g id="xtick_26">
    <g id="line2d_29">
     <path d="M 570.421377 373.090091 
L 580.839567 376.106778 
" style="fill: none; stroke: #000000; stroke-width: 0.8; stroke-linecap: square"/>
    </g>
    <g id="text_29">
     <!-- 0.00 -->
     <g transform="translate(584.179499 382.363535) scale(0.1 -0.1)">
      <use xlink:href="#DejaVuSans-30"/>
      <use xlink:href="#DejaVuSans-2e" x="63.623047"/>
      <use xlink:href="#DejaVuSans-30" x="95.410156"/>
      <use xlink:href="#DejaVuSans-30" x="159.033203"/>
     </g>
    </g>
   </g>
   <g id="xtick_27">
    <g id="line2d_30">
     <path d="M 571.392422 354.308276 
L 581.850601 357.304688 
" style="fill: none; stroke: #000000; stroke-width: 0.8; stroke-linecap: square"/>
    </g>
    <g id="text_30">
     <!-- 0.05 -->
     <g transform="translate(585.243039 363.570458) scale(0.1 -0.1)">
      <use xlink:href="#DejaVuSans-30"/>
      <use xlink:href="#DejaVuSans-2e" x="63.623047"/>
      <use xlink:href="#DejaVuSans-30" x="95.410156"/>
      <use xlink:href="#DejaVuSans-35" x="159.033203"/>
     </g>
    </g>
   </g>
   <g id="xtick_28">
    <g id="line2d_31">
     <path d="M 572.370634 335.387853 
L 582.869108 338.363607 
" style="fill: none; stroke: #000000; stroke-width: 0.8; stroke-linecap: square"/>
    </g>
    <g id="text_31">
     <!-- 0.10 -->
     <g transform="translate(586.314435 344.63856) scale(0.1 -0.1)">
      <use xlink:href="#DejaVuSans-30"/>
      <use xlink:href="#DejaVuSans-2e" x="63.623047"/>
      <use xlink:href="#DejaVuSans-31" x="95.410156"/>
      <use xlink:href="#DejaVuSans-30" x="159.033203"/>
     </g>
    </g>
   </g>
   <g id="xtick_29">
    <g id="line2d_32">
     <path d="M 573.356091 316.327282 
L 583.895173 319.281988 
" style="fill: none; stroke: #000000; stroke-width: 0.8; stroke-linecap: square"/>
    </g>
    <g id="text_32">
     <!-- 0.15 -->
     <g transform="translate(587.393775 325.566298) scale(0.1 -0.1)">
      <use xlink:href="#DejaVuSans-30"/>
      <use xlink:href="#DejaVuSans-2e" x="63.623047"/>
      <use xlink:href="#DejaVuSans-31" x="95.410156"/>
      <use xlink:href="#DejaVuSans-35" x="159.033203"/>
     </g>
    </g>
   </g>
   <g id="xtick_30">
    <g id="line2d_33">
     <path d="M 574.348875 297.124999 
L 584.928878 300.058262 
" style="fill: none; stroke: #000000; stroke-width: 0.8; stroke-linecap: square"/>
    </g>
    <g id="text_33">
     <!-- 0.20 -->
     <g transform="translate(588.481148 306.352104) scale(0.1 -0.1)">
      <use xlink:href="#DejaVuSans-30"/>
      <use xlink:href="#DejaVuSans-2e" x="63.623047"/>
      <use xlink:href="#DejaVuSans-32" x="95.410156"/>
      <use xlink:href="#DejaVuSans-30" x="159.033203"/>
     </g>
    </g>
   </g>
   <g id="xtick_31">
    <g id="line2d_34">
     <path d="M 575.349068 277.779418 
L 585.970311 280.690835 
" style="fill: none; stroke: #000000; stroke-width: 0.8; stroke-linecap: square"/>
    </g>
    <g id="text_34">
     <!-- 0.25 -->
     <g transform="translate(589.576642 286.994388) scale(0.1 -0.1)">
      <use xlink:href="#DejaVuSans-30"/>
      <use xlink:href="#DejaVuSans-2e" x="63.623047"/>
      <use xlink:href="#DejaVuSans-32" x="95.410156"/>
      <use xlink:href="#DejaVuSans-35" x="159.033203"/>
     </g>
    </g>
   </g>
   <g id="xtick_32">
    <g id="line2d_35">
     <path d="M 576.356753 258.288929 
L 587.019558 261.178089 
" style="fill: none; stroke: #000000; stroke-width: 0.8; stroke-linecap: square"/>
    </g>
    <g id="text_35">
     <!-- 0.30 -->
     <g transform="translate(590.68035 267.491537) scale(0.1 -0.1)">
      <use xlink:href="#DejaVuSans-30"/>
      <use xlink:href="#DejaVuSans-2e" x="63.623047"/>
      <use xlink:href="#DejaVuSans-33" x="95.410156"/>
      <use xlink:href="#DejaVuSans-30" x="159.033203"/>
     </g>
    </g>
   </g>
   <g id="xtick_33">
    <g id="line2d_36">
     <path d="M 577.372014 238.651899 
L 588.076708 241.518383 
" style="fill: none; stroke: #000000; stroke-width: 0.8; stroke-linecap: square"/>
    </g>
    <g id="text_36">
     <!-- 0.35 -->
     <g transform="translate(591.792364 247.841912) scale(0.1 -0.1)">
      <use xlink:href="#DejaVuSans-30"/>
      <use xlink:href="#DejaVuSans-2e" x="63.623047"/>
      <use xlink:href="#DejaVuSans-33" x="95.410156"/>
      <use xlink:href="#DejaVuSans-35" x="159.033203"/>
     </g>
    </g>
   </g>
  </g>
  <g id="axes_1">
   <g id="line2d_37">
    <path d="M 185.957522 393.155417 
L 218.705457 386.986935 
L 225.340066 403.812427 
L 248.931418 405.841586 
L 280.917784 400.291177 
L 312.383581 395.076694 
L 342.581941 390.908021 
L 372.901121 386.514591 
L 401.535589 383.616855 
L 431.688993 379.16537 
L 460.247182 376.16119 
L 486.543786 375.330245 
L 512.944204 374.370604 
L 539.694397 373.024131 
" clip-path="url(#pb8954674d6)" style="fill: none; stroke: #ff0000; stroke-width: 1.5; stroke-linecap: square"/>
   </g>
   <g id="Poly3DCollection_1">
    <path d="M 184.716255 269.278468 
L 182.203726 270.740191 
L 199.865818 274.798 
z
" clip-path="url(#pb8954674d6)" style="fill: #f5f9fe"/>
    <path d="M 199.865818 274.798 
L 202.374732 273.879791 
L 184.716255 269.278468 
z
" clip-path="url(#pb8954674d6)" style="fill: #f5f9fe"/>
    <path d="M 192.659769 279.363616 
L 199.865818 274.798 
L 182.203726 270.740191 
z
" clip-path="url(#pb8954674d6)" style="fill: #f2f8fd"/>
    <path d="M 182.203726 270.740191 
L 174.958055 275.33744 
L 192.659769 279.363616 
z
" clip-path="url(#pb8954674d6)" style="fill: #f2f8fd"/>
    <path d="M 219.955357 267.146807 
L 202.374732 273.879791 
L 199.865818 274.798 
z
" clip-path="url(#pb8954674d6)" style="fill: #ebf3fb"/>
    <path d="M 191.848483 282.187772 
L 174.958055 275.33744 
L 174.051842 274.309129 
z
" clip-path="url(#pb8954674d6)" style="fill: #f2f7fd"/>
    <path d="M 217.64215 278.882056 
L 199.865818 274.798 
L 192.659769 279.363616 
z
" clip-path="url(#pb8954674d6)" style="fill: #f1f7fd"/>
    <path d="M 199.865818 274.798 
L 217.64215 278.882056 
L 219.955357 267.146807 
z
" clip-path="url(#pb8954674d6)" style="fill: #eaf2fb"/>
    <path d="M 191.848483 282.187772 
L 192.659769 279.363616 
L 174.958055 275.33744 
z
" clip-path="url(#pb8954674d6)" style="fill: #f2f8fd"/>
    <path d="M 174.051842 274.309129 
L 161.6501 284.485003 
L 191.848483 282.187772 
z
" clip-path="url(#pb8954674d6)" style="fill: #f1f7fd"/>
    <path d="M 192.659769 279.363616 
L 210.498205 284.576409 
L 217.64215 278.882056 
z
" clip-path="url(#pb8954674d6)" style="fill: #f0f6fd"/>
    <path d="M 210.498205 284.576409 
L 192.659769 279.363616 
L 191.848483 282.187772 
z
" clip-path="url(#pb8954674d6)" style="fill: #f2f7fd"/>
    <path d="M 219.955357 267.146807 
L 217.64215 278.882056 
L 235.496426 280.244166 
z
" clip-path="url(#pb8954674d6)" style="fill: #e6f0f9"/>
    <path d="M 235.496426 280.244166 
L 237.952427 277.752031 
L 219.955357 267.146807 
z
" clip-path="url(#pb8954674d6)" style="fill: #e3eef8"/>
    <path d="M 217.64215 278.882056 
L 210.498205 284.576409 
L 235.496426 280.244166 
z
" clip-path="url(#pb8954674d6)" style="fill: #edf4fc"/>
    <path d="M 161.6501 284.485003 
L 179.310987 283.931721 
L 191.848483 282.187772 
z
" clip-path="url(#pb8954674d6)" style="fill: #ecf4fb"/>
    <path d="M 210.498205 284.576409 
L 228.375427 285.166832 
L 235.496426 280.244166 
z
" clip-path="url(#pb8954674d6)" style="fill: #eaf2fb"/>
    <path d="M 161.480674 285.350767 
L 161.397701 285.398928 
L 179.153423 285.350234 
z
" clip-path="url(#pb8954674d6)" style="fill: #edf4fc"/>
    <path d="M 161.580649 283.489453 
L 161.480674 285.350767 
L 179.153423 285.350234 
z
" clip-path="url(#pb8954674d6)" style="fill: #ebf3fb"/>
    <path d="M 178.968429 285.538991 
L 161.397701 285.398928 
L 161.281898 285.068634 
z
" clip-path="url(#pb8954674d6)" style="fill: #ecf4fb"/>
    <path d="M 179.267154 283.834634 
L 161.6501 284.485003 
L 161.580649 283.489453 
z
" clip-path="url(#pb8954674d6)" style="fill: #eaf2fb"/>
    <path d="M 178.968429 285.538991 
L 161.281898 285.068634 
L 161.005936 284.377184 
z
" clip-path="url(#pb8954674d6)" style="fill: #ebf3fb"/>
    <path d="M 191.848483 282.187772 
L 208.618936 230.120003 
L 210.498205 284.576409 
z
" clip-path="url(#pb8954674d6)" style="fill: #caddf0"/>
    <path d="M 255.635163 248.513336 
L 237.952427 277.752031 
L 235.496426 280.244166 
z
" clip-path="url(#pb8954674d6)" style="fill: #cee0f2"/>
    <path d="M 179.153423 285.350234 
L 161.397701 285.398928 
L 179.070112 285.368134 
z
" clip-path="url(#pb8954674d6)" style="fill: #e9f2fa"/>
    <path d="M 179.070112 285.368134 
L 161.397701 285.398928 
L 178.968429 285.538991 
z
" clip-path="url(#pb8954674d6)" style="fill: #e9f2fa"/>
    <path d="M 179.267154 283.834634 
L 179.310987 283.931721 
L 161.6501 284.485003 
z
" clip-path="url(#pb8954674d6)" style="fill: #e6f0f9"/>
    <path d="M 179.153423 285.350234 
L 179.267154 283.834634 
L 161.580649 283.489453 
z
" clip-path="url(#pb8954674d6)" style="fill: #e7f0fa"/>
    <path d="M 161.005936 284.377184 
L 178.740535 286.638298 
L 178.968429 285.538991 
z
" clip-path="url(#pb8954674d6)" style="fill: #e8f1fa"/>
    <path d="M 210.498205 284.576409 
L 208.618936 230.120003 
L 228.375427 285.166832 
z
" clip-path="url(#pb8954674d6)" style="fill: #c3daee"/>
    <path d="M 191.848483 282.187772 
L 179.310987 283.931721 
L 196.503928 254.058758 
z
" clip-path="url(#pb8954674d6)" style="fill: #cfe1f2"/>
    <path d="M 228.375427 285.166832 
L 208.618936 230.120003 
L 227.464608 281.824587 
z
" clip-path="url(#pb8954674d6)" style="fill: #b9d6ea"/>
    <path d="M 235.496426 280.244166 
L 253.12487 246.052248 
L 255.635163 248.513336 
z
" clip-path="url(#pb8954674d6)" style="fill: #a5cde3"/>
    <path d="M 196.503928 254.058758 
L 208.618936 230.120003 
L 191.848483 282.187772 
z
" clip-path="url(#pb8954674d6)" style="fill: #9ac8e0"/>
    <path d="M 179.267154 283.834634 
L 179.153423 285.350234 
L 196.450439 253.48382 
z
" clip-path="url(#pb8954674d6)" style="fill: #c9ddf0"/>
    <path d="M 179.310987 283.931721 
L 179.267154 283.834634 
L 196.450439 253.48382 
z
" clip-path="url(#pb8954674d6)" style="fill: #c8dcf0"/>
    <path d="M 235.496426 280.244166 
L 228.375427 285.166832 
L 245.685103 224.25213 
z
" clip-path="url(#pb8954674d6)" style="fill: #add0e6"/>
    <path d="M 179.070112 285.368134 
L 196.099144 247.927867 
L 179.153423 285.350234 
z
" clip-path="url(#pb8954674d6)" style="fill: #c6dbef"/>
    <path d="M 179.070112 285.368134 
L 178.968429 285.538991 
L 196.099144 247.927867 
z
" clip-path="url(#pb8954674d6)" style="fill: #c6dbef"/>
    <path d="M 208.618936 230.120003 
L 215.367841 299.348316 
L 227.464608 281.824587 
z
" clip-path="url(#pb8954674d6)" style="fill: #bdd7ec"/>
    <path d="M 271.597658 280.783045 
L 274.034014 278.404251 
L 253.12487 246.052248 
z
" clip-path="url(#pb8954674d6)" style="fill: #b7d4ea"/>
    <path d="M 253.12487 246.052248 
L 274.034014 278.404251 
L 255.635163 248.513336 
z
" clip-path="url(#pb8954674d6)" style="fill: #97c6df"/>
    <path d="M 178.740535 286.638298 
L 195.420116 232.864356 
L 178.968429 285.538991 
z
" clip-path="url(#pb8954674d6)" style="fill: #b5d4e9"/>
    <path d="M 271.597658 280.783045 
L 253.12487 246.052248 
L 264.603163 292.222894 
z
" clip-path="url(#pb8954674d6)" style="fill: #bdd7ec"/>
    <path d="M 289.820928 266.54507 
L 274.034014 278.404251 
L 271.597658 280.783045 
z
" clip-path="url(#pb8954674d6)" style="fill: #c2d9ee"/>
    <path d="M 245.685103 224.25213 
L 253.12487 246.052248 
L 235.496426 280.244166 
z
" clip-path="url(#pb8954674d6)" style="fill: #77b5d9"/>
    <path d="M 196.503928 254.058758 
L 179.310987 283.931721 
L 196.450439 253.48382 
z
" clip-path="url(#pb8954674d6)" style="fill: #a0cbe2"/>
    <path d="M 227.464608 281.824587 
L 244.570033 202.76176 
L 228.375427 285.166832 
z
" clip-path="url(#pb8954674d6)" style="fill: #89bedc"/>
    <path d="M 196.450439 253.48382 
L 215.326525 299.316579 
L 215.367841 299.348316 
z
" clip-path="url(#pb8954674d6)" style="fill: #d0e1f2"/>
    <path d="M 196.450439 253.48382 
L 179.153423 285.350234 
L 196.187791 248.159752 
z
" clip-path="url(#pb8954674d6)" style="fill: #9ac8e0"/>
    <path d="M 215.326525 299.316579 
L 196.450439 253.48382 
L 215.100015 294.865715 
z
" clip-path="url(#pb8954674d6)" style="fill: #ccdff1"/>
    <path d="M 196.503928 254.058758 
L 215.367841 299.348316 
L 208.618936 230.120003 
z
" clip-path="url(#pb8954674d6)" style="fill: #94c4df"/>
    <path d="M 196.099144 247.927867 
L 196.187791 248.159752 
L 179.153423 285.350234 
z
" clip-path="url(#pb8954674d6)" style="fill: #92c4de"/>
    <path d="M 292.265594 268.8392 
L 274.034014 278.404251 
L 289.820928 266.54507 
z
" clip-path="url(#pb8954674d6)" style="fill: #b0d2e7"/>
    <path d="M 196.099144 247.927867 
L 178.968429 285.538991 
L 195.954823 246.104452 
z
" clip-path="url(#pb8954674d6)" style="fill: #8fc2de"/>
    <path d="M 196.099144 247.927867 
L 215.017805 294.878068 
L 215.100015 294.865715 
z
" clip-path="url(#pb8954674d6)" style="fill: #c3daee"/>
    <path d="M 195.954823 246.104452 
L 214.935341 296.111726 
L 215.017805 294.878068 
z
" clip-path="url(#pb8954674d6)" style="fill: #c3daee"/>
    <path d="M 196.450439 253.48382 
L 215.367841 299.348316 
L 196.503928 254.058758 
z
" clip-path="url(#pb8954674d6)" style="fill: #a6cee4"/>
    <path d="M 178.968429 285.538991 
L 195.420116 232.864356 
L 195.954823 246.104452 
z
" clip-path="url(#pb8954674d6)" style="fill: #77b5d9"/>
    <path d="M 271.597658 280.783045 
L 264.603163 292.222894 
L 282.766881 265.673718 
z
" clip-path="url(#pb8954674d6)" style="fill: #c1d9ed"/>
    <path d="M 215.367841 299.348316 
L 244.570033 202.76176 
L 227.464608 281.824587 
z
" clip-path="url(#pb8954674d6)" style="fill: #8dc1dd"/>
    <path d="M 215.100015 294.865715 
L 196.450439 253.48382 
L 196.187791 248.159752 
z
" clip-path="url(#pb8954674d6)" style="fill: #99c7e0"/>
    <path d="M 214.935341 296.111726 
L 195.420116 232.864356 
L 214.597942 291.210022 
z
" clip-path="url(#pb8954674d6)" style="fill: #aed1e7"/>
    <path d="M 264.603163 292.222894 
L 253.12487 246.052248 
L 245.685103 224.25213 
z
" clip-path="url(#pb8954674d6)" style="fill: #71b1d7"/>
    <path d="M 215.100015 294.865715 
L 196.187791 248.159752 
L 196.099144 247.927867 
z
" clip-path="url(#pb8954674d6)" style="fill: #91c3de"/>
    <path d="M 215.017805 294.878068 
L 196.099144 247.927867 
L 195.954823 246.104452 
z
" clip-path="url(#pb8954674d6)" style="fill: #8dc1dd"/>
    <path d="M 289.820928 266.54507 
L 310.694438 282.920169 
L 292.265594 268.8392 
z
" clip-path="url(#pb8954674d6)" style="fill: #a9cfe5"/>
    <path d="M 282.766881 265.673718 
L 289.820928 266.54507 
L 271.597658 280.783045 
z
" clip-path="url(#pb8954674d6)" style="fill: #a4cce3"/>
    <path d="M 195.954823 246.104452 
L 195.420116 232.864356 
L 214.935341 296.111726 
z
" clip-path="url(#pb8954674d6)" style="fill: #77b5d9"/>
    <path d="M 215.367841 299.348316 
L 215.326525 299.316579 
L 232.479202 234.794387 
z
" clip-path="url(#pb8954674d6)" style="fill: #b4d3e9"/>
    <path d="M 215.326525 299.316579 
L 215.100015 294.865715 
L 232.377087 238.121027 
z
" clip-path="url(#pb8954674d6)" style="fill: #b2d2e8"/>
    <path d="M 289.820928 266.54507 
L 308.283654 281.889372 
L 310.694438 282.920169 
z
" clip-path="url(#pb8954674d6)" style="fill: #b0d2e7"/>
    <path d="M 215.017805 294.878068 
L 214.935341 296.111726 
L 232.224828 240.599591 
z
" clip-path="url(#pb8954674d6)" style="fill: #b0d2e7"/>
    <path d="M 282.766881 265.673718 
L 264.603163 292.222894 
L 263.567533 269.106591 
z
" clip-path="url(#pb8954674d6)" style="fill: #abd0e6"/>
    <path d="M 232.377087 238.121027 
L 215.100015 294.865715 
L 215.017805 294.878068 
z
" clip-path="url(#pb8954674d6)" style="fill: #add0e6"/>
    <path d="M 228.375427 285.166832 
L 244.570033 202.76176 
L 245.685103 224.25213 
z
" clip-path="url(#pb8954674d6)" style="fill: #3a8ac2"/>
    <path d="M 214.597942 291.210022 
L 231.923631 237.104626 
L 214.935341 296.111726 
z
" clip-path="url(#pb8954674d6)" style="fill: #a8cee4"/>
    <path d="M 264.603163 292.222894 
L 244.570033 202.76176 
L 263.567533 269.106591 
z
" clip-path="url(#pb8954674d6)" style="fill: #63a8d3"/>
    <path d="M 308.283654 281.889372 
L 289.820928 266.54507 
L 282.766881 265.673718 
z
" clip-path="url(#pb8954674d6)" style="fill: #97c6df"/>
    <path d="M 245.685103 224.25213 
L 244.570033 202.76176 
L 264.603163 292.222894 
z
" clip-path="url(#pb8954674d6)" style="fill: #3787c0"/>
    <path d="M 363.989654 322.572694 
L 347.683766 313.940881 
L 345.315757 315.465711 
z
" clip-path="url(#pb8954674d6)" style="fill: #f1f7fd"/>
    <path d="M 363.989654 322.572694 
L 366.346013 320.462946 
L 347.683766 313.940881 
z
" clip-path="url(#pb8954674d6)" style="fill: #f2f7fd"/>
    <path d="M 310.694438 282.920169 
L 308.283654 281.889372 
L 329.464103 231.400664 
z
" clip-path="url(#pb8954674d6)" style="fill: #74b3d8"/>
    <path d="M 232.53385 235.767598 
L 244.570033 202.76176 
L 215.367841 299.348316 
z
" clip-path="url(#pb8954674d6)" style="fill: #3e8ec4"/>
    <path d="M 282.766881 265.673718 
L 301.293632 263.814095 
L 308.283654 281.889372 
z
" clip-path="url(#pb8954674d6)" style="fill: #82bbdb"/>
    <path d="M 263.567533 269.106591 
L 281.808222 241.098298 
L 282.766881 265.673718 
z
" clip-path="url(#pb8954674d6)" style="fill: #5da5d1"/>
    <path d="M 232.377087 238.121027 
L 232.479202 234.794387 
L 215.326525 299.316579 
z
" clip-path="url(#pb8954674d6)" style="fill: #5aa2cf"/>
    <path d="M 232.224828 240.599591 
L 232.289366 237.766497 
L 215.017805 294.878068 
z
" clip-path="url(#pb8954674d6)" style="fill: #5ba3d0"/>
    <path d="M 232.53385 235.767598 
L 215.367841 299.348316 
L 232.479202 234.794387 
z
" clip-path="url(#pb8954674d6)" style="fill: #57a0ce"/>
    <path d="M 214.935341 296.111726 
L 231.923631 237.104626 
L 232.224828 240.599591 
z
" clip-path="url(#pb8954674d6)" style="fill: #5ba3d0"/>
    <path d="M 232.377087 238.121027 
L 215.017805 294.878068 
L 232.289366 237.766497 
z
" clip-path="url(#pb8954674d6)" style="fill: #58a1cf"/>
    <path d="M 345.315757 315.465711 
L 347.683766 313.940881 
L 329.464103 231.400664 
z
" clip-path="url(#pb8954674d6)" style="fill: #b0d2e7"/>
    <path d="M 357.210795 326.266284 
L 363.989654 322.572694 
L 345.315757 315.465711 
z
" clip-path="url(#pb8954674d6)" style="fill: #eff6fc"/>
    <path d="M 366.346013 320.462946 
L 363.989654 322.572694 
L 382.792273 328.045935 
z
" clip-path="url(#pb8954674d6)" style="fill: #f2f8fd"/>
    <path d="M 345.315757 315.465711 
L 338.493025 317.25942 
L 357.210795 326.266284 
z
" clip-path="url(#pb8954674d6)" style="fill: #ebf3fb"/>
    <path d="M 385.124515 326.472879 
L 366.346013 320.462946 
L 382.792273 328.045935 
z
" clip-path="url(#pb8954674d6)" style="fill: #f3f8fe"/>
    <path d="M 357.210795 326.266284 
L 382.792273 328.045935 
L 363.989654 322.572694 
z
" clip-path="url(#pb8954674d6)" style="fill: #f1f7fd"/>
    <path d="M 300.452332 260.29232 
L 301.293632 263.814095 
L 282.766881 265.673718 
z
" clip-path="url(#pb8954674d6)" style="fill: #5ca4d0"/>
    <path d="M 357.210795 326.266284 
L 338.493025 317.25942 
L 337.673517 318.013381 
z
" clip-path="url(#pb8954674d6)" style="fill: #e8f1fa"/>
    <path d="M 282.766881 265.673718 
L 281.808222 241.098298 
L 300.452332 260.29232 
z
" clip-path="url(#pb8954674d6)" style="fill: #4695c8"/>
    <path d="M 244.570033 202.76176 
L 250.894471 228.972208 
L 263.567533 269.106591 
z
" clip-path="url(#pb8954674d6)" style="fill: #1865ac"/>
    <path d="M 319.03839 309.837255 
L 325.879292 330.909263 
L 337.673517 318.013381 
z
" clip-path="url(#pb8954674d6)" style="fill: #e5eff9"/>
    <path d="M 382.792273 328.045935 
L 403.994989 333.620476 
L 385.124515 326.472879 
z
" clip-path="url(#pb8954674d6)" style="fill: #f5f9fe"/>
    <path d="M 263.567533 269.106591 
L 250.894471 228.972208 
L 281.808222 241.098298 
z
" clip-path="url(#pb8954674d6)" style="fill: #3080bd"/>
    <path d="M 337.673517 318.013381 
L 356.418114 324.857844 
L 357.210795 326.266284 
z
" clip-path="url(#pb8954674d6)" style="fill: #e9f2fa"/>
    <path d="M 307.171317 325.403121 
L 325.879292 330.909263 
L 319.03839 309.837255 
z
" clip-path="url(#pb8954674d6)" style="fill: #e7f0fa"/>
    <path d="M 308.283654 281.889372 
L 327.056899 229.476732 
L 329.464103 231.400664 
z
" clip-path="url(#pb8954674d6)" style="fill: #2f7fbc"/>
    <path d="M 401.670674 335.788652 
L 403.994989 333.620476 
L 382.792273 328.045935 
z
" clip-path="url(#pb8954674d6)" style="fill: #f5fafe"/>
    <path d="M 376.019512 335.31691 
L 382.792273 328.045935 
L 357.210795 326.266284 
z
" clip-path="url(#pb8954674d6)" style="fill: #f2f7fd"/>
    <path d="M 337.673517 318.013381 
L 325.879292 330.909263 
L 356.418114 324.857844 
z
" clip-path="url(#pb8954674d6)" style="fill: #e8f1fa"/>
    <path d="M 288.413412 271.560547 
L 307.171317 325.403121 
L 319.03839 309.837255 
z
" clip-path="url(#pb8954674d6)" style="fill: #c3daee"/>
    <path d="M 329.464103 231.400664 
L 327.056899 229.476732 
L 345.315757 315.465711 
z
" clip-path="url(#pb8954674d6)" style="fill: #4695c8"/>
    <path d="M 319.03839 309.837255 
L 300.452332 260.29232 
L 288.413412 271.560547 
z
" clip-path="url(#pb8954674d6)" style="fill: #84bcdb"/>
    <path d="M 306.990477 325.054516 
L 306.911654 325.087094 
L 325.611168 333.811758 
z
" clip-path="url(#pb8954674d6)" style="fill: #ecf4fb"/>
    <path d="M 307.171317 325.403121 
L 307.132318 325.358553 
L 325.840826 330.864749 
z
" clip-path="url(#pb8954674d6)" style="fill: #eaf3fb"/>
    <path d="M 306.990477 325.054516 
L 325.840826 330.864749 
L 307.132318 325.358553 
z
" clip-path="url(#pb8954674d6)" style="fill: #eaf2fb"/>
    <path d="M 325.611168 333.811758 
L 306.911654 325.087094 
L 306.812093 324.332017 
z
" clip-path="url(#pb8954674d6)" style="fill: #ebf3fb"/>
    <path d="M 356.418114 324.857844 
L 375.288153 330.364727 
L 357.210795 326.266284 
z
" clip-path="url(#pb8954674d6)" style="fill: #eaf2fb"/>
    <path d="M 306.812093 324.332017 
L 306.572257 322.724846 
L 325.278877 332.782092 
z
" clip-path="url(#pb8954674d6)" style="fill: #e8f1fa"/>
    <path d="M 250.58047 234.71277 
L 231.923631 237.104626 
L 250.690439 268.467008 
z
" clip-path="url(#pb8954674d6)" style="fill: #2676b8"/>
    <path d="M 401.670674 335.788652 
L 382.792273 328.045935 
L 394.960615 342.047954 
z
" clip-path="url(#pb8954674d6)" style="fill: #f5fafe"/>
    <path d="M 357.210795 326.266284 
L 375.288153 330.364727 
L 376.019512 335.31691 
z
" clip-path="url(#pb8954674d6)" style="fill: #eef5fc"/>
    <path d="M 325.611168 333.811758 
L 325.689382 333.760155 
L 306.990477 325.054516 
z
" clip-path="url(#pb8954674d6)" style="fill: #eef5fc"/>
    <path d="M 288.169801 277.583589 
L 306.911654 325.087094 
L 306.990477 325.054516 
z
" clip-path="url(#pb8954674d6)" style="fill: #cbdef1"/>
    <path d="M 394.960615 342.047954 
L 382.792273 328.045935 
L 376.019512 335.31691 
z
" clip-path="url(#pb8954674d6)" style="fill: #f5f9fe"/>
    <path d="M 232.53385 235.767598 
L 250.894471 228.972208 
L 244.570033 202.76176 
z
" clip-path="url(#pb8954674d6)" style="fill: #084285"/>
    <path d="M 306.812093 324.332017 
L 306.911654 325.087094 
L 288.169801 277.583589 
z
" clip-path="url(#pb8954674d6)" style="fill: #cbdef1"/>
    <path d="M 423.134009 333.629591 
L 403.994989 333.620476 
L 401.670674 335.788652 
z
" clip-path="url(#pb8954674d6)" style="fill: #f3f8fe"/>
    <path d="M 306.990477 325.054516 
L 325.689382 333.760155 
L 325.840826 330.864749 
z
" clip-path="url(#pb8954674d6)" style="fill: #ecf4fb"/>
    <path d="M 232.224828 240.599591 
L 231.923631 237.104626 
L 250.58047 234.71277 
z
" clip-path="url(#pb8954674d6)" style="fill: #1561a9"/>
    <path d="M 325.513783 333.478578 
L 325.611168 333.811758 
L 306.812093 324.332017 
z
" clip-path="url(#pb8954674d6)" style="fill: #edf4fc"/>
    <path d="M 306.990477 325.054516 
L 307.132318 325.358553 
L 288.378199 272.876876 
z
" clip-path="url(#pb8954674d6)" style="fill: #c9ddf0"/>
    <path d="M 307.132318 325.358553 
L 307.171317 325.403121 
L 288.413412 271.560547 
z
" clip-path="url(#pb8954674d6)" style="fill: #c8dcf0"/>
    <path d="M 325.840826 330.864749 
L 325.879292 330.909263 
L 307.171317 325.403121 
z
" clip-path="url(#pb8954674d6)" style="fill: #eaf3fb"/>
    <path d="M 306.812093 324.332017 
L 325.278877 332.782092 
L 325.513783 333.478578 
z
" clip-path="url(#pb8954674d6)" style="fill: #ecf4fb"/>
    <path d="M 288.413412 271.560547 
L 300.452332 260.29232 
L 281.808222 241.098298 
z
" clip-path="url(#pb8954674d6)" style="fill: #3b8bc2"/>
    <path d="M 250.863204 229.866165 
L 232.479202 234.794387 
L 232.377087 238.121027 
z
" clip-path="url(#pb8954674d6)" style="fill: #0e59a2"/>
    <path d="M 250.586394 225.47264 
L 232.289366 237.766497 
L 232.224828 240.599591 
z
" clip-path="url(#pb8954674d6)" style="fill: #0f5aa3"/>
    <path d="M 232.479202 234.794387 
L 250.894471 228.972208 
L 232.53385 235.767598 
z
" clip-path="url(#pb8954674d6)" style="fill: #0c56a0"/>
    <path d="M 232.289366 237.766497 
L 250.586394 225.47264 
L 232.377087 238.121027 
z
" clip-path="url(#pb8954674d6)" style="fill: #0d57a1"/>
    <path d="M 356.418114 324.857844 
L 325.879292 330.909263 
L 344.69706 337.43371 
z
" clip-path="url(#pb8954674d6)" style="fill: #eaf3fb"/>
    <path d="M 287.769719 262.198433 
L 306.572257 322.724846 
L 306.812093 324.332017 
z
" clip-path="url(#pb8954674d6)" style="fill: #b9d6ea"/>
    <path d="M 375.288153 330.364727 
L 356.418114 324.857844 
L 344.69706 337.43371 
z
" clip-path="url(#pb8954674d6)" style="fill: #eaf2fb"/>
    <path d="M 376.019512 335.31691 
L 375.288153 330.364727 
L 394.960615 342.047954 
z
" clip-path="url(#pb8954674d6)" style="fill: #f2f7fd"/>
    <path d="M 288.250744 277.797281 
L 288.169801 277.583589 
L 306.990477 325.054516 
z
" clip-path="url(#pb8954674d6)" style="fill: #9fcae1"/>
    <path d="M 320.224048 171.652641 
L 338.493025 317.25942 
L 345.315757 315.465711 
z
" clip-path="url(#pb8954674d6)" style="fill: #529dcc"/>
    <path d="M 401.670674 335.788652 
L 420.812626 336.29244 
L 423.134009 333.629591 
z
" clip-path="url(#pb8954674d6)" style="fill: #f0f6fd"/>
    <path d="M 306.990477 325.054516 
L 288.378199 272.876876 
L 288.250744 277.797281 
z
" clip-path="url(#pb8954674d6)" style="fill: #97c6df"/>
    <path d="M 269.253069 246.164677 
L 250.58047 234.71277 
L 250.690439 268.467008 
z
" clip-path="url(#pb8954674d6)" style="fill: #2575b7"/>
    <path d="M 308.283654 281.889372 
L 301.293632 263.814095 
L 320.224048 171.652641 
z
" clip-path="url(#pb8954674d6)" style="fill: #1460a8"/>
    <path d="M 288.169801 277.583589 
L 288.059168 274.942985 
L 306.812093 324.332017 
z
" clip-path="url(#pb8954674d6)" style="fill: #99c7e0"/>
    <path d="M 344.521632 337.170341 
L 325.689382 333.760155 
L 325.611168 333.811758 
z
" clip-path="url(#pb8954674d6)" style="fill: #eff6fc"/>
    <path d="M 394.960615 342.047954 
L 420.812626 336.29244 
L 401.670674 335.788652 
z
" clip-path="url(#pb8954674d6)" style="fill: #f4f9fe"/>
    <path d="M 344.444048 337.209881 
L 325.611168 333.811758 
L 325.513783 333.478578 
z
" clip-path="url(#pb8954674d6)" style="fill: #eef5fc"/>
    <path d="M 250.690439 268.467008 
L 269.059835 253.791359 
L 269.253069 246.164677 
z
" clip-path="url(#pb8954674d6)" style="fill: #3282be"/>
    <path d="M 325.840826 330.864749 
L 325.689382 333.760155 
L 344.521632 337.170341 
z
" clip-path="url(#pb8954674d6)" style="fill: #edf4fc"/>
    <path d="M 232.224828 240.599591 
L 250.58047 234.71277 
L 250.586394 225.47264 
z
" clip-path="url(#pb8954674d6)" style="fill: #09529d"/>
    <path d="M 288.413412 271.560547 
L 288.378199 272.876876 
L 307.132318 325.358553 
z
" clip-path="url(#pb8954674d6)" style="fill: #8fc2de"/>
    <path d="M 325.879292 330.909263 
L 325.840826 330.864749 
L 344.659042 337.402515 
z
" clip-path="url(#pb8954674d6)" style="fill: #ebf3fb"/>
    <path d="M 281.808222 241.098298 
L 250.894471 228.972208 
L 269.645605 249.264271 
z
" clip-path="url(#pb8954674d6)" style="fill: #125ea6"/>
    <path d="M 325.513783 333.478578 
L 325.278877 332.782092 
L 344.350899 336.593888 
z
" clip-path="url(#pb8954674d6)" style="fill: #edf4fc"/>
    <path d="M 281.808222 241.098298 
L 269.645605 249.264271 
L 288.413412 271.560547 
z
" clip-path="url(#pb8954674d6)" style="fill: #2d7dbb"/>
    <path d="M 232.479202 234.794387 
L 250.863204 229.866165 
L 250.894471 228.972208 
z
" clip-path="url(#pb8954674d6)" style="fill: #084c95"/>
    <path d="M 232.377087 238.121027 
L 250.650417 223.746111 
L 250.863204 229.866165 
z
" clip-path="url(#pb8954674d6)" style="fill: #084a91"/>
    <path d="M 320.224048 171.652641 
L 319.03839 309.837255 
L 337.673517 318.013381 
z
" clip-path="url(#pb8954674d6)" style="fill: #4a98c9"/>
    <path d="M 394.960615 342.047954 
L 375.288153 330.364727 
L 394.205677 340.042317 
z
" clip-path="url(#pb8954674d6)" style="fill: #f1f7fd"/>
    <path d="M 250.586394 225.47264 
L 250.650417 223.746111 
L 232.377087 238.121027 
z
" clip-path="url(#pb8954674d6)" style="fill: #08468b"/>
    <path d="M 306.812093 324.332017 
L 288.059168 274.942985 
L 287.769719 262.198433 
z
" clip-path="url(#pb8954674d6)" style="fill: #82bbdb"/>
    <path d="M 325.611168 333.811758 
L 344.444048 337.209881 
L 344.521632 337.170341 
z
" clip-path="url(#pb8954674d6)" style="fill: #eef5fc"/>
    <path d="M 344.69706 337.43371 
L 325.879292 330.909263 
L 344.659042 337.402515 
z
" clip-path="url(#pb8954674d6)" style="fill: #ecf4fb"/>
    <path d="M 344.521632 337.170341 
L 344.659042 337.402515 
L 325.840826 330.864749 
z
" clip-path="url(#pb8954674d6)" style="fill: #ebf3fb"/>
    <path d="M 325.513783 333.478578 
L 344.350899 336.593888 
L 344.444048 337.209881 
z
" clip-path="url(#pb8954674d6)" style="fill: #ecf4fb"/>
    <path d="M 337.673517 318.013381 
L 338.493025 317.25942 
L 320.224048 171.652641 
z
" clip-path="url(#pb8954674d6)" style="fill: #4d99ca"/>
    <path d="M 344.350899 336.593888 
L 325.278877 332.782092 
L 344.114055 336.808458 
z
" clip-path="url(#pb8954674d6)" style="fill: #ebf3fb"/>
    <path d="M 269.477495 251.885971 
L 288.169801 277.583589 
L 288.250744 277.797281 
z
" clip-path="url(#pb8954674d6)" style="fill: #4a98c9"/>
    <path d="M 300.452332 260.29232 
L 319.03839 309.837255 
L 320.224048 171.652641 
z
" clip-path="url(#pb8954674d6)" style="fill: #1c6bb0"/>
    <path d="M 288.250744 277.797281 
L 288.378199 272.876876 
L 269.477495 251.885971 
z
" clip-path="url(#pb8954674d6)" style="fill: #4594c7"/>
    <path d="M 269.393879 251.549996 
L 288.059168 274.942985 
L 288.169801 277.583589 
z
" clip-path="url(#pb8954674d6)" style="fill: #4695c8"/>
    <path d="M 269.477495 251.885971 
L 269.393879 251.549996 
L 288.169801 277.583589 
z
" clip-path="url(#pb8954674d6)" style="fill: #3585bf"/>
    <path d="M 320.224048 171.652641 
L 327.056899 229.476732 
L 308.283654 281.889372 
z
" clip-path="url(#pb8954674d6)" style="fill: #084184"/>
    <path d="M 269.613038 250.357235 
L 250.863204 229.866165 
L 269.477495 251.885971 
z
" clip-path="url(#pb8954674d6)" style="fill: #1561a9"/>
    <path d="M 288.378199 272.876876 
L 269.613038 250.357235 
L 269.477495 251.885971 
z
" clip-path="url(#pb8954674d6)" style="fill: #2f7fbc"/>
    <path d="M 269.393879 251.549996 
L 250.586394 225.47264 
L 250.58047 234.71277 
z
" clip-path="url(#pb8954674d6)" style="fill: #09529d"/>
    <path d="M 344.69706 337.43371 
L 363.603778 345.966426 
L 375.288153 330.364727 
z
" clip-path="url(#pb8954674d6)" style="fill: #eef5fc"/>
    <path d="M 269.645605 249.264271 
L 250.894471 228.972208 
L 250.863204 229.866165 
z
" clip-path="url(#pb8954674d6)" style="fill: #08509b"/>
    <path d="M 269.613038 250.357235 
L 288.378199 272.876876 
L 288.413412 271.560547 
z
" clip-path="url(#pb8954674d6)" style="fill: #3d8dc4"/>
    <path d="M 250.863204 229.866165 
L 269.613038 250.357235 
L 269.645605 249.264271 
z
" clip-path="url(#pb8954674d6)" style="fill: #125ea6"/>
    <path d="M 250.58047 234.71277 
L 269.253069 246.164677 
L 269.393879 251.549996 
z
" clip-path="url(#pb8954674d6)" style="fill: #1460a8"/>
    <path d="M 288.413412 271.560547 
L 269.645605 249.264271 
L 269.613038 250.357235 
z
" clip-path="url(#pb8954674d6)" style="fill: #2c7cba"/>
    <path d="M 250.586394 225.47264 
L 269.393879 251.549996 
L 269.477495 251.885971 
z
" clip-path="url(#pb8954674d6)" style="fill: #125da6"/>
    <path d="M 269.393879 251.549996 
L 269.253069 246.164677 
L 288.059168 274.942985 
z
" clip-path="url(#pb8954674d6)" style="fill: #2d7dbb"/>
    <path d="M 250.863204 229.866165 
L 250.650417 223.746111 
L 269.477495 251.885971 
z
" clip-path="url(#pb8954674d6)" style="fill: #084d96"/>
    <path d="M 345.315757 315.465711 
L 327.056899 229.476732 
L 320.224048 171.652641 
z
" clip-path="url(#pb8954674d6)" style="fill: #0d57a1"/>
    <path d="M 394.205677 340.042317 
L 413.240122 348.386428 
L 394.960615 342.047954 
z
" clip-path="url(#pb8954674d6)" style="fill: #f5fafe"/>
    <path d="M 269.477495 251.885971 
L 250.650417 223.746111 
L 250.586394 225.47264 
z
" clip-path="url(#pb8954674d6)" style="fill: #084990"/>
    <path d="M 394.960615 342.047954 
L 414.235899 338.137686 
L 420.812626 336.29244 
z
" clip-path="url(#pb8954674d6)" style="fill: #edf4fc"/>
    <path d="M 320.224048 171.652641 
L 301.293632 263.814095 
L 300.452332 260.29232 
z
" clip-path="url(#pb8954674d6)" style="fill: #08468b"/>
    <path d="M 344.69706 337.43371 
L 344.659042 337.402515 
L 363.565836 345.975129 
z
" clip-path="url(#pb8954674d6)" style="fill: #eef5fc"/>
    <path d="M 344.521632 337.170341 
L 363.565836 345.975129 
L 344.659042 337.402515 
z
" clip-path="url(#pb8954674d6)" style="fill: #eef5fc"/>
    <path d="M 344.444048 337.209881 
L 363.339284 347.093702 
L 344.521632 337.170341 
z
" clip-path="url(#pb8954674d6)" style="fill: #eff6fc"/>
    <path d="M 363.339284 347.093702 
L 344.444048 337.209881 
L 344.350899 336.593888 
z
" clip-path="url(#pb8954674d6)" style="fill: #eef5fc"/>
    <path d="M 287.769719 262.198433 
L 288.059168 274.942985 
L 269.253069 246.164677 
z
" clip-path="url(#pb8954674d6)" style="fill: #3181bd"/>
    <path d="M 375.288153 330.364727 
L 382.666375 350.598331 
L 394.205677 340.042317 
z
" clip-path="url(#pb8954674d6)" style="fill: #eef5fc"/>
    <path d="M 269.253069 246.164677 
L 269.059835 253.791359 
L 287.769719 262.198433 
z
" clip-path="url(#pb8954674d6)" style="fill: #2272b6"/>
    <path d="M 363.011493 346.954569 
L 344.350899 336.593888 
L 344.114055 336.808458 
z
" clip-path="url(#pb8954674d6)" style="fill: #eef5fc"/>
    <path d="M 363.565836 345.975129 
L 363.603778 345.966426 
L 344.69706 337.43371 
z
" clip-path="url(#pb8954674d6)" style="fill: #f1f7fd"/>
    <path d="M 413.240122 348.386428 
L 414.235899 338.137686 
L 394.960615 342.047954 
z
" clip-path="url(#pb8954674d6)" style="fill: #f1f7fd"/>
    <path d="M 344.521632 337.170341 
L 363.339284 347.093702 
L 363.416456 347.028821 
z
" clip-path="url(#pb8954674d6)" style="fill: #f2f8fd"/>
    <path d="M 363.416456 347.028821 
L 363.565836 345.975129 
L 344.521632 337.170341 
z
" clip-path="url(#pb8954674d6)" style="fill: #f2f7fd"/>
    <path d="M 363.339284 347.093702 
L 344.350899 336.593888 
L 363.243208 347.042487 
z
" clip-path="url(#pb8954674d6)" style="fill: #f2f7fd"/>
    <path d="M 363.243208 347.042487 
L 344.350899 336.593888 
L 363.011493 346.954569 
z
" clip-path="url(#pb8954674d6)" style="fill: #f1f7fd"/>
    <path d="M 363.603778 345.966426 
L 382.666375 350.598331 
L 375.288153 330.364727 
z
" clip-path="url(#pb8954674d6)" style="fill: #eef5fc"/>
    <path d="M 382.666375 350.598331 
L 413.240122 348.386428 
L 394.205677 340.042317 
z
" clip-path="url(#pb8954674d6)" style="fill: #f3f8fe"/>
    <path d="M 420.812626 336.29244 
L 414.235899 338.137686 
L 433.291463 350.878813 
z
" clip-path="url(#pb8954674d6)" style="fill: #ebf3fb"/>
    <path d="M 363.416456 347.028821 
L 363.339284 347.093702 
L 382.478092 351.578585 
z
" clip-path="url(#pb8954674d6)" style="fill: #f5f9fe"/>
    <path d="M 382.478092 351.578585 
L 363.565836 345.975129 
L 363.416456 347.028821 
z
" clip-path="url(#pb8954674d6)" style="fill: #f4f9fe"/>
    <path d="M 363.565836 345.975129 
L 382.666375 350.598331 
L 363.603778 345.966426 
z
" clip-path="url(#pb8954674d6)" style="fill: #f2f8fd"/>
    <path d="M 363.243208 347.042487 
L 382.308722 351.445202 
L 363.339284 347.093702 
z
" clip-path="url(#pb8954674d6)" style="fill: #f4f9fe"/>
    <path d="M 363.243208 347.042487 
L 363.011493 346.954569 
L 382.106716 349.527067 
z
" clip-path="url(#pb8954674d6)" style="fill: #f2f8fd"/>
    <path d="M 433.291463 350.878813 
L 414.235899 338.137686 
L 413.240122 348.386428 
z
" clip-path="url(#pb8954674d6)" style="fill: #eef5fc"/>
    <path d="M 433.291463 350.878813 
L 413.240122 348.386428 
L 432.441772 354.011949 
z
" clip-path="url(#pb8954674d6)" style="fill: #f5fafe"/>
    <path d="M 382.478092 351.578585 
L 363.339284 347.093702 
L 382.401537 351.637656 
z
" clip-path="url(#pb8954674d6)" style="fill: #f4f9fe"/>
    <path d="M 382.628979 350.593913 
L 363.565836 345.975129 
L 382.478092 351.578585 
z
" clip-path="url(#pb8954674d6)" style="fill: #f2f8fd"/>
    <path d="M 382.308722 351.445202 
L 382.401537 351.637656 
L 363.339284 347.093702 
z
" clip-path="url(#pb8954674d6)" style="fill: #f3f8fe"/>
    <path d="M 363.565836 345.975129 
L 382.628979 350.593913 
L 382.666375 350.598331 
z
" clip-path="url(#pb8954674d6)" style="fill: #f2f7fd"/>
    <path d="M 382.106716 349.527067 
L 382.308722 351.445202 
L 363.243208 347.042487 
z
" clip-path="url(#pb8954674d6)" style="fill: #f2f7fd"/>
    <path d="M 461.394301 350.323172 
L 459.118931 352.53243 
L 478.510008 358.184122 
z
" clip-path="url(#pb8954674d6)" style="fill: #f7fbff"/>
    <path d="M 401.783061 359.215568 
L 413.240122 348.386428 
L 382.666375 350.598331 
z
" clip-path="url(#pb8954674d6)" style="fill: #f5fafe"/>
    <path d="M 480.768558 355.960912 
L 461.394301 350.323172 
L 478.510008 358.184122 
z
" clip-path="url(#pb8954674d6)" style="fill: #f7fbff"/>
    <path d="M 452.549879 358.910613 
L 433.291463 350.878813 
L 432.441772 354.011949 
z
" clip-path="url(#pb8954674d6)" style="fill: #f5fafe"/>
    <path d="M 421.065143 364.909575 
L 432.441772 354.011949 
L 413.240122 348.386428 
z
" clip-path="url(#pb8954674d6)" style="fill: #f7fbff"/>
    <path d="M 382.628979 350.593913 
L 382.478092 351.578585 
L 401.745354 359.251208 
z
" clip-path="url(#pb8954674d6)" style="fill: #f4f9fe"/>
    <path d="M 382.401537 351.637656 
L 401.532019 359.452852 
L 382.478092 351.578585 
z
" clip-path="url(#pb8954674d6)" style="fill: #f5f9fe"/>
    <path d="M 382.666375 350.598331 
L 382.628979 350.593913 
L 401.745354 359.251208 
z
" clip-path="url(#pb8954674d6)" style="fill: #f3f8fe"/>
    <path d="M 401.532019 359.452852 
L 382.401537 351.637656 
L 382.308722 351.445202 
z
" clip-path="url(#pb8954674d6)" style="fill: #f4f9fe"/>
    <path d="M 452.549879 358.910613 
L 478.510008 358.184122 
L 459.118931 352.53243 
z
" clip-path="url(#pb8954674d6)" style="fill: #f7fbff"/>
    <path d="M 382.106716 349.527067 
L 401.435715 359.543877 
L 382.308722 351.445202 
z
" clip-path="url(#pb8954674d6)" style="fill: #f2f8fd"/>
    <path d="M 413.240122 348.386428 
L 401.783061 359.215568 
L 421.065143 364.909575 
z
" clip-path="url(#pb8954674d6)" style="fill: #f7fbff"/>
    <path d="M 432.441772 354.011949 
L 451.764681 359.672996 
L 452.549879 358.910613 
z
" clip-path="url(#pb8954674d6)" style="fill: #f7fbff"/>
    <path d="M 401.783061 359.215568 
L 382.666375 350.598331 
L 401.745354 359.251208 
z
" clip-path="url(#pb8954674d6)" style="fill: #f5fafe"/>
    <path d="M 401.745354 359.251208 
L 382.478092 351.578585 
L 401.608202 359.380844 
z
" clip-path="url(#pb8954674d6)" style="fill: #f6faff"/>
    <path d="M 382.478092 351.578585 
L 401.532019 359.452852 
L 401.608202 359.380844 
z
" clip-path="url(#pb8954674d6)" style="fill: #f6faff"/>
    <path d="M 382.308722 351.445202 
L 401.435715 359.543877 
L 401.532019 359.452852 
z
" clip-path="url(#pb8954674d6)" style="fill: #f5fafe"/>
    <path d="M 401.203865 359.76302 
L 401.435715 359.543877 
L 382.106716 349.527067 
z
" clip-path="url(#pb8954674d6)" style="fill: #f4f9fe"/>
    <path d="M 478.510008 358.184122 
L 500.265297 361.634292 
L 480.768558 355.960912 
z
" clip-path="url(#pb8954674d6)" style="fill: #f7fbff"/>
    <path d="M 423.134009 333.629591 
L 420.812626 336.29244 
L 443.337298 212.817488 
z
" clip-path="url(#pb8954674d6)" style="fill: #66abd4"/>
    <path d="M 451.764681 359.672996 
L 432.441772 354.011949 
L 421.065143 364.909575 
z
" clip-path="url(#pb8954674d6)" style="fill: #f7fbff"/>
    <path d="M 471.989416 364.602686 
L 478.510008 358.184122 
L 452.549879 358.910613 
z
" clip-path="url(#pb8954674d6)" style="fill: #f7fbff"/>
    <path d="M 421.065143 364.909575 
L 401.783061 359.215568 
L 401.745354 359.251208 
z
" clip-path="url(#pb8954674d6)" style="fill: #f7fbff"/>
    <path d="M 478.510008 358.184122 
L 498.023826 363.871588 
L 500.265297 361.634292 
z
" clip-path="url(#pb8954674d6)" style="fill: #f7fbff"/>
    <path d="M 420.891508 365.0759 
L 401.745354 359.251208 
L 401.608202 359.380844 
z
" clip-path="url(#pb8954674d6)" style="fill: #f7fbff"/>
    <path d="M 401.608202 359.380844 
L 401.532019 359.452852 
L 420.891508 365.0759 
z
" clip-path="url(#pb8954674d6)" style="fill: #f7fbff"/>
    <path d="M 401.532019 359.452852 
L 401.435715 359.543877 
L 420.720229 365.239967 
z
" clip-path="url(#pb8954674d6)" style="fill: #f7fbff"/>
    <path d="M 451.764681 359.672996 
L 471.254736 363.982061 
L 452.549879 358.910613 
z
" clip-path="url(#pb8954674d6)" style="fill: #f6faff"/>
    <path d="M 401.203865 359.76302 
L 420.490002 365.460501 
L 401.435715 359.543877 
z
" clip-path="url(#pb8954674d6)" style="fill: #f7fbff"/>
    <path d="M 401.745354 359.251208 
L 421.0277 364.945442 
L 421.065143 364.909575 
z
" clip-path="url(#pb8954674d6)" style="fill: #f7fbff"/>
    <path d="M 421.0277 364.945442 
L 401.745354 359.251208 
L 420.891508 365.0759 
z
" clip-path="url(#pb8954674d6)" style="fill: #f7fbff"/>
    <path d="M 452.549879 358.910613 
L 471.254736 363.982061 
L 471.989416 364.602686 
z
" clip-path="url(#pb8954674d6)" style="fill: #f6faff"/>
    <path d="M 420.891508 365.0759 
L 401.532019 359.452852 
L 420.815858 365.148365 
z
" clip-path="url(#pb8954674d6)" style="fill: #f7fbff"/>
    <path d="M 420.720229 365.239967 
L 420.815858 365.148365 
L 401.532019 359.452852 
z
" clip-path="url(#pb8954674d6)" style="fill: #f7fbff"/>
    <path d="M 401.435715 359.543877 
L 420.490002 365.460501 
L 420.720229 365.239967 
z
" clip-path="url(#pb8954674d6)" style="fill: #f7fbff"/>
    <path d="M 443.337298 212.817488 
L 420.812626 336.29244 
L 433.291463 350.878813 
z
" clip-path="url(#pb8954674d6)" style="fill: #6aaed6"/>
    <path d="M 498.023826 363.871588 
L 478.510008 358.184122 
L 491.552443 370.330918 
z
" clip-path="url(#pb8954674d6)" style="fill: #f7fbff"/>
    <path d="M 491.552443 370.330918 
L 478.510008 358.184122 
L 471.989416 364.602686 
z
" clip-path="url(#pb8954674d6)" style="fill: #f7fbff"/>
    <path d="M 500.265297 361.634292 
L 498.023826 363.871588 
L 517.661553 369.595169 
z
" clip-path="url(#pb8954674d6)" style="fill: #f7fbff"/>
    <path d="M 421.065143 364.909575 
L 440.495778 369.647701 
L 451.764681 359.672996 
z
" clip-path="url(#pb8954674d6)" style="fill: #f7fbff"/>
    <path d="M 471.254736 363.982061 
L 451.764681 359.672996 
L 440.495778 369.647701 
z
" clip-path="url(#pb8954674d6)" style="fill: #f5fafe"/>
    <path d="M 459.118931 352.53243 
L 461.394301 350.323172 
L 445.897798 202.672314 
z
" clip-path="url(#pb8954674d6)" style="fill: #6aaed6"/>
    <path d="M 517.661553 369.595169 
L 519.885684 367.343653 
L 500.265297 361.634292 
z
" clip-path="url(#pb8954674d6)" style="fill: #f7fbff"/>
    <path d="M 471.989416 364.602686 
L 471.254736 363.982061 
L 491.552443 370.330918 
z
" clip-path="url(#pb8954674d6)" style="fill: #f6faff"/>
    <path d="M 421.065143 364.909575 
L 421.0277 364.945442 
L 440.458946 369.670446 
z
" clip-path="url(#pb8954674d6)" style="fill: #f7fbff"/>
    <path d="M 420.891508 365.0759 
L 440.458946 369.670446 
L 421.0277 364.945442 
z
" clip-path="url(#pb8954674d6)" style="fill: #f7fbff"/>
    <path d="M 420.815858 365.148365 
L 440.250645 369.79588 
L 420.891508 365.0759 
z
" clip-path="url(#pb8954674d6)" style="fill: #f6faff"/>
    <path d="M 440.250645 369.79588 
L 420.815858 365.148365 
L 420.720229 365.239967 
z
" clip-path="url(#pb8954674d6)" style="fill: #f6faff"/>
    <path d="M 420.490002 365.460501 
L 440.159406 369.745803 
L 420.720229 365.239967 
z
" clip-path="url(#pb8954674d6)" style="fill: #f6faff"/>
    <path d="M 491.552443 370.330918 
L 517.661553 369.595169 
L 498.023826 363.871588 
z
" clip-path="url(#pb8954674d6)" style="fill: #f7fbff"/>
    <path d="M 452.549879 358.910613 
L 459.118931 352.53243 
L 443.337298 212.817488 
z
" clip-path="url(#pb8954674d6)" style="fill: #75b4d8"/>
    <path d="M 443.337298 212.817488 
L 433.291463 350.878813 
L 452.549879 358.910613 
z
" clip-path="url(#pb8954674d6)" style="fill: #71b1d7"/>
    <path d="M 440.458946 369.670446 
L 440.495778 369.647701 
L 421.065143 364.909575 
z
" clip-path="url(#pb8954674d6)" style="fill: #f6faff"/>
    <path d="M 491.552443 370.330918 
L 471.254736 363.982061 
L 490.7789 371.10302 
z
" clip-path="url(#pb8954674d6)" style="fill: #f6faff"/>
    <path d="M 440.325604 369.729233 
L 440.458946 369.670446 
L 420.891508 365.0759 
z
" clip-path="url(#pb8954674d6)" style="fill: #f6faff"/>
    <path d="M 420.891508 365.0759 
L 440.250645 369.79588 
L 440.325604 369.729233 
z
" clip-path="url(#pb8954674d6)" style="fill: #f6faff"/>
    <path d="M 420.720229 365.239967 
L 440.159406 369.745803 
L 440.250645 369.79588 
z
" clip-path="url(#pb8954674d6)" style="fill: #f5fafe"/>
    <path d="M 439.938795 369.660914 
L 440.159406 369.745803 
L 420.490002 365.460501 
z
" clip-path="url(#pb8954674d6)" style="fill: #f5fafe"/>
    <path d="M 539.630898 373.089337 
L 519.885684 367.343653 
L 517.661553 369.595169 
z
" clip-path="url(#pb8954674d6)" style="fill: #f7fbff"/>
    <path d="M 471.254736 363.982061 
L 440.495778 369.647701 
L 459.998006 376.406467 
z
" clip-path="url(#pb8954674d6)" style="fill: #f5fafe"/>
    <path d="M 491.552443 370.330918 
L 511.240138 376.095653 
L 517.661553 369.595169 
z
" clip-path="url(#pb8954674d6)" style="fill: #f7fbff"/>
    <path d="M 517.661553 369.595169 
L 537.424375 375.35521 
L 539.630898 373.089337 
z
" clip-path="url(#pb8954674d6)" style="fill: #f7fbff"/>
    <path d="M 490.7789 371.10302 
L 510.472558 376.872685 
L 491.552443 370.330918 
z
" clip-path="url(#pb8954674d6)" style="fill: #f7fbff"/>
    <path d="M 459.998006 376.406467 
L 440.495778 369.647701 
L 440.458946 369.670446 
z
" clip-path="url(#pb8954674d6)" style="fill: #f6faff"/>
    <path d="M 440.325604 369.729233 
L 459.826877 376.574919 
L 440.458946 369.670446 
z
" clip-path="url(#pb8954674d6)" style="fill: #f6faff"/>
    <path d="M 440.325604 369.729233 
L 440.250645 369.79588 
L 459.826877 376.574919 
z
" clip-path="url(#pb8954674d6)" style="fill: #f6faff"/>
    <path d="M 479.651145 382.210048 
L 490.7789 371.10302 
L 471.254736 363.982061 
z
" clip-path="url(#pb8954674d6)" style="fill: #f6faff"/>
    <path d="M 440.159406 369.745803 
L 459.65807 376.741085 
L 440.250645 369.79588 
z
" clip-path="url(#pb8954674d6)" style="fill: #f5fafe"/>
    <path d="M 459.65807 376.741085 
L 440.159406 369.745803 
L 439.938795 369.660914 
z
" clip-path="url(#pb8954674d6)" style="fill: #f5fafe"/>
    <path d="M 537.424375 375.35521 
L 517.661553 369.595169 
L 511.240138 376.095653 
z
" clip-path="url(#pb8954674d6)" style="fill: #f7fbff"/>
    <path d="M 510.472558 376.872685 
L 511.240138 376.095653 
L 491.552443 370.330918 
z
" clip-path="url(#pb8954674d6)" style="fill: #f7fbff"/>
    <path d="M 440.458946 369.670446 
L 459.961104 376.442792 
L 459.998006 376.406467 
z
" clip-path="url(#pb8954674d6)" style="fill: #f7fbff"/>
    <path d="M 440.458946 369.670446 
L 459.826877 376.574919 
L 459.961104 376.442792 
z
" clip-path="url(#pb8954674d6)" style="fill: #f7fbff"/>
    <path d="M 459.998006 376.406467 
L 479.651145 382.210048 
L 471.254736 363.982061 
z
" clip-path="url(#pb8954674d6)" style="fill: #f6faff"/>
    <path d="M 459.826877 376.574919 
L 440.250645 369.79588 
L 459.752319 376.64831 
z
" clip-path="url(#pb8954674d6)" style="fill: #f6faff"/>
    <path d="M 440.250645 369.79588 
L 459.65807 376.741085 
L 459.752319 376.64831 
z
" clip-path="url(#pb8954674d6)" style="fill: #f6faff"/>
    <path d="M 439.938795 369.660914 
L 459.431165 376.964439 
L 459.65807 376.741085 
z
" clip-path="url(#pb8954674d6)" style="fill: #f6faff"/>
    <path d="M 423.134009 333.629591 
L 443.337298 212.817488 
L 445.897798 202.672314 
z
" clip-path="url(#pb8954674d6)" style="fill: #08306b"/>
    <path d="M 510.472558 376.872685 
L 490.7789 371.10302 
L 479.651145 382.210048 
z
" clip-path="url(#pb8954674d6)" style="fill: #f7fbff"/>
    <path d="M 511.240138 376.095653 
L 531.053697 381.897244 
L 537.424375 375.35521 
z
" clip-path="url(#pb8954674d6)" style="fill: #f7fbff"/>
    <path d="M 459.961104 376.442792 
L 479.651145 382.210048 
L 459.998006 376.406467 
z
" clip-path="url(#pb8954674d6)" style="fill: #f7fbff"/>
    <path d="M 459.961104 376.442792 
L 459.826877 376.574919 
L 479.481298 382.379578 
z
" clip-path="url(#pb8954674d6)" style="fill: #f7fbff"/>
    <path d="M 479.481298 382.379578 
L 459.826877 376.574919 
L 459.752319 376.64831 
z
" clip-path="url(#pb8954674d6)" style="fill: #f7fbff"/>
    <path d="M 511.240138 376.095653 
L 510.472558 376.872685 
L 530.292173 382.679251 
z
" clip-path="url(#pb8954674d6)" style="fill: #f7fbff"/>
    <path d="M 459.752319 376.64831 
L 459.65807 376.741085 
L 479.407299 382.45344 
z
" clip-path="url(#pb8954674d6)" style="fill: #f7fbff"/>
    <path d="M 459.65807 376.741085 
L 459.431165 376.964439 
L 479.088551 382.771594 
z
" clip-path="url(#pb8954674d6)" style="fill: #f7fbff"/>
    <path d="M 445.897798 202.672314 
L 443.337298 212.817488 
L 459.118931 352.53243 
z
" clip-path="url(#pb8954674d6)" style="fill: #083573"/>
    <path d="M 530.292173 382.679251 
L 531.053697 381.897244 
L 511.240138 376.095653 
z
" clip-path="url(#pb8954674d6)" style="fill: #f7fbff"/>
    <path d="M 459.961104 376.442792 
L 479.614519 382.246605 
L 479.651145 382.210048 
z
" clip-path="url(#pb8954674d6)" style="fill: #f7fbff"/>
    <path d="M 479.614519 382.246605 
L 459.961104 376.442792 
L 479.481298 382.379578 
z
" clip-path="url(#pb8954674d6)" style="fill: #f7fbff"/>
    <path d="M 459.752319 376.64831 
L 479.407299 382.45344 
L 479.481298 382.379578 
z
" clip-path="url(#pb8954674d6)" style="fill: #f7fbff"/>
    <path d="M 479.407299 382.45344 
L 459.65807 376.741085 
L 479.313756 382.546808 
z
" clip-path="url(#pb8954674d6)" style="fill: #f7fbff"/>
    <path d="M 459.65807 376.741085 
L 479.088551 382.771594 
L 479.313756 382.546808 
z
" clip-path="url(#pb8954674d6)" style="fill: #f7fbff"/>
    <path d="M 479.651145 382.210048 
L 499.430352 388.050856 
L 510.472558 376.872685 
z
" clip-path="url(#pb8954674d6)" style="fill: #f7fbff"/>
    <path d="M 479.651145 382.210048 
L 479.614519 382.246605 
L 499.394006 388.087649 
z
" clip-path="url(#pb8954674d6)" style="fill: #f7fbff"/>
    <path d="M 479.481298 382.379578 
L 499.394006 388.087649 
L 479.614519 382.246605 
z
" clip-path="url(#pb8954674d6)" style="fill: #f7fbff"/>
    <path d="M 479.481298 382.379578 
L 479.407299 382.45344 
L 499.188375 388.295812 
z
" clip-path="url(#pb8954674d6)" style="fill: #f7fbff"/>
    <path d="M 479.313756 382.546808 
L 499.09555 388.389781 
L 479.407299 382.45344 
z
" clip-path="url(#pb8954674d6)" style="fill: #f7fbff"/>
    <path d="M 510.472558 376.872685 
L 519.336844 393.929252 
L 530.292173 382.679251 
z
" clip-path="url(#pb8954674d6)" style="fill: #f7fbff"/>
    <path d="M 479.313756 382.546808 
L 479.088551 382.771594 
L 498.872072 388.616011 
z
" clip-path="url(#pb8954674d6)" style="fill: #f7fbff"/>
    <path d="M 499.394006 388.087649 
L 499.430352 388.050856 
L 479.651145 382.210048 
z
" clip-path="url(#pb8954674d6)" style="fill: #f7fbff"/>
    <path d="M 499.261807 388.221476 
L 499.394006 388.087649 
L 479.481298 382.379578 
z
" clip-path="url(#pb8954674d6)" style="fill: #f7fbff"/>
    <path d="M 510.472558 376.872685 
L 499.430352 388.050856 
L 519.336844 393.929252 
z
" clip-path="url(#pb8954674d6)" style="fill: #f7fbff"/>
    <path d="M 499.188375 388.295812 
L 499.261807 388.221476 
L 479.481298 382.379578 
z
" clip-path="url(#pb8954674d6)" style="fill: #f7fbff"/>
    <path d="M 499.09555 388.389781 
L 499.188375 388.295812 
L 479.407299 382.45344 
z
" clip-path="url(#pb8954674d6)" style="fill: #f7fbff"/>
    <path d="M 498.872072 388.616011 
L 499.09555 388.389781 
L 479.313756 382.546808 
z
" clip-path="url(#pb8954674d6)" style="fill: #f7fbff"/>
    <path d="M 519.336844 393.929252 
L 499.430352 388.050856 
L 499.394006 388.087649 
z
" clip-path="url(#pb8954674d6)" style="fill: #f7fbff"/>
    <path d="M 499.394006 388.087649 
L 499.261807 388.221476 
L 519.169622 394.100971 
z
" clip-path="url(#pb8954674d6)" style="fill: #f7fbff"/>
    <path d="M 499.261807 388.221476 
L 499.188375 388.295812 
L 519.096766 394.175787 
z
" clip-path="url(#pb8954674d6)" style="fill: #f7fbff"/>
    <path d="M 499.188375 388.295812 
L 499.09555 388.389781 
L 519.004669 394.270362 
z
" clip-path="url(#pb8954674d6)" style="fill: #f7fbff"/>
    <path d="M 519.004669 394.270362 
L 499.09555 388.389781 
L 498.872072 388.616011 
z
" clip-path="url(#pb8954674d6)" style="fill: #f7fbff"/>
    <path d="M 499.394006 388.087649 
L 519.300784 393.966282 
L 519.336844 393.929252 
z
" clip-path="url(#pb8954674d6)" style="fill: #f7fbff"/>
    <path d="M 519.169622 394.100971 
L 519.300784 393.966282 
L 499.394006 388.087649 
z
" clip-path="url(#pb8954674d6)" style="fill: #f7fbff"/>
    <path d="M 519.096766 394.175787 
L 519.169622 394.100971 
L 499.261807 388.221476 
z
" clip-path="url(#pb8954674d6)" style="fill: #f7fbff"/>
    <path d="M 499.188375 388.295812 
L 519.004669 394.270362 
L 519.096766 394.175787 
z
" clip-path="url(#pb8954674d6)" style="fill: #f7fbff"/>
    <path d="M 518.782945 394.49805 
L 519.004669 394.270362 
L 498.872072 388.616011 
z
" clip-path="url(#pb8954674d6)" style="fill: #f7fbff"/>
   </g>
  </g>
 </g>
 <defs>
  <clipPath id="pb8954674d6">
   <rect x="21.6" y="21.6" width="554.4" height="554.4"/>
  </clipPath>
 </defs>
</svg>
