<?xml version="1.0" encoding="utf-8" standalone="no"?>
<!DOCTYPE svg PUBLIC "-//W3C//DTD SVG 1.1//EN"
  "http://www.w3.org/Graphics/SVG/1.1/DTD/svg11.dtd">
<svg xmlns:xlink="http://www.w3.org/1999/xlink" width="632.033064pt" height="597.6pt" viewBox="0 0 632.033064 597.6" xmlns="http://www.w3.org/2000/svg" version="1.1">
 <metadata>
  <rdf:RDF xmlns:dc="http://purl.org/dc/elements/1.1/" xmlns:cc="http://creativecommons.org/ns#" xmlns:rdf="http://www.w3.org/1999/02/22-rdf-syntax-ns#">
   <cc:Work>
    <dc:type rdf:resource="http://purl.org/dc/dcmitype/StillImage"/>
    <dc:date/>
    <dc:format>image/svg+xml</dc:format>
    <dc:creator>
     <cc:Agent>
      <dc:title>Matplotlib v3.6.2, https://matplotlib.org/</dc:title>
     </cc:Agent>
    </dc:creator>
   </cc:Work>
  </rdf:RDF>
 </metadata>
 <defs>
  <style type="text/css">*{stroke-linejoin: round; stroke-linecap: butt}</style>
 </defs>
 <g id="figure_1">
  <g id="patch_1">
   <path d="M 0 597.6 
L 632.033064 597.6 
L 632.033064 0 
L 0 0 
z
" style="fill: #ffffff"/>
  </g>
  <g id="patch_2">
   <path d="M 21.6 576 
L 576 576 
L 576 21.6 
L 21.6 21.6 
z
" style="fill: #ffffff"/>
  </g>
  <g id="pane3d_1">
   <g id="patch_3">
    <path d="M 41.312472 360.463759 
L 168.231956 259.540656 
L 164.248407 108.857576 
L 33.198586 203.642949 
" style="fill: #f2f2f2; opacity: 0.5; stroke: #f2f2f2; stroke-linejoin: miter"/>
   </g>
  </g>
  <g id="pane3d_2">
   <g id="patch_4">
    <path d="M 168.231956 259.540656 
L 573.729769 377.157828 
L 581.997262 219.353145 
L 164.248407 108.857576 
" style="fill: #e6e6e6; opacity: 0.5; stroke: #e6e6e6; stroke-linejoin: miter"/>
   </g>
  </g>
  <g id="pane3d_3">
   <g id="patch_5">
    <path d="M 41.312472 360.463759 
L 463.330816 493.019825 
L 573.729769 377.157828 
L 168.231956 259.540656 
" style="fill: #ececec; opacity: 0.5; stroke: #ececec; stroke-linejoin: miter"/>
   </g>
  </g>
  <g id="axis3d_1">
   <g id="line2d_1">
    <path d="M 41.312472 360.463759 
L 463.330816 493.019825 
" style="fill: none; stroke: #000000; stroke-width: 0.8; stroke-linecap: square"/>
   </g>
   <g id="text_1">
    <!-- Python version -->
    <g transform="translate(187.76057 443.267396) rotate(-342.562483) scale(0.12 -0.12)">
     <defs>
      <path id="DejaVuSans-50" d="M 1259 4147 
L 1259 2394 
L 2053 2394 
Q 2494 2394 2734 2622 
Q 2975 2850 2975 3272 
Q 2975 3691 2734 3919 
Q 2494 4147 2053 4147 
L 1259 4147 
z
M 628 4666 
L 2053 4666 
Q 2838 4666 3239 4311 
Q 3641 3956 3641 3272 
Q 3641 2581 3239 2228 
Q 2838 1875 2053 1875 
L 1259 1875 
L 1259 0 
L 628 0 
L 628 4666 
z
" transform="scale(0.015625)"/>
      <path id="DejaVuSans-79" d="M 2059 -325 
Q 1816 -950 1584 -1140 
Q 1353 -1331 966 -1331 
L 506 -1331 
L 506 -850 
L 844 -850 
Q 1081 -850 1212 -737 
Q 1344 -625 1503 -206 
L 1606 56 
L 191 3500 
L 800 3500 
L 1894 763 
L 2988 3500 
L 3597 3500 
L 2059 -325 
z
" transform="scale(0.015625)"/>
      <path id="DejaVuSans-74" d="M 1172 4494 
L 1172 3500 
L 2356 3500 
L 2356 3053 
L 1172 3053 
L 1172 1153 
Q 1172 725 1289 603 
Q 1406 481 1766 481 
L 2356 481 
L 2356 0 
L 1766 0 
Q 1100 0 847 248 
Q 594 497 594 1153 
L 594 3053 
L 172 3053 
L 172 3500 
L 594 3500 
L 594 4494 
L 1172 4494 
z
" transform="scale(0.015625)"/>
      <path id="DejaVuSans-68" d="M 3513 2113 
L 3513 0 
L 2938 0 
L 2938 2094 
Q 2938 2591 2744 2837 
Q 2550 3084 2163 3084 
Q 1697 3084 1428 2787 
Q 1159 2491 1159 1978 
L 1159 0 
L 581 0 
L 581 4863 
L 1159 4863 
L 1159 2956 
Q 1366 3272 1645 3428 
Q 1925 3584 2291 3584 
Q 2894 3584 3203 3211 
Q 3513 2838 3513 2113 
z
" transform="scale(0.015625)"/>
      <path id="DejaVuSans-6f" d="M 1959 3097 
Q 1497 3097 1228 2736 
Q 959 2375 959 1747 
Q 959 1119 1226 758 
Q 1494 397 1959 397 
Q 2419 397 2687 759 
Q 2956 1122 2956 1747 
Q 2956 2369 2687 2733 
Q 2419 3097 1959 3097 
z
M 1959 3584 
Q 2709 3584 3137 3096 
Q 3566 2609 3566 1747 
Q 3566 888 3137 398 
Q 2709 -91 1959 -91 
Q 1206 -91 779 398 
Q 353 888 353 1747 
Q 353 2609 779 3096 
Q 1206 3584 1959 3584 
z
" transform="scale(0.015625)"/>
      <path id="DejaVuSans-6e" d="M 3513 2113 
L 3513 0 
L 2938 0 
L 2938 2094 
Q 2938 2591 2744 2837 
Q 2550 3084 2163 3084 
Q 1697 3084 1428 2787 
Q 1159 2491 1159 1978 
L 1159 0 
L 581 0 
L 581 3500 
L 1159 3500 
L 1159 2956 
Q 1366 3272 1645 3428 
Q 1925 3584 2291 3584 
Q 2894 3584 3203 3211 
Q 3513 2838 3513 2113 
z
" transform="scale(0.015625)"/>
      <path id="DejaVuSans-20" transform="scale(0.015625)"/>
      <path id="DejaVuSans-76" d="M 191 3500 
L 800 3500 
L 1894 563 
L 2988 3500 
L 3597 3500 
L 2284 0 
L 1503 0 
L 191 3500 
z
" transform="scale(0.015625)"/>
      <path id="DejaVuSans-65" d="M 3597 1894 
L 3597 1613 
L 953 1613 
Q 991 1019 1311 708 
Q 1631 397 2203 397 
Q 2534 397 2845 478 
Q 3156 559 3463 722 
L 3463 178 
Q 3153 47 2828 -22 
Q 2503 -91 2169 -91 
Q 1331 -91 842 396 
Q 353 884 353 1716 
Q 353 2575 817 3079 
Q 1281 3584 2069 3584 
Q 2775 3584 3186 3129 
Q 3597 2675 3597 1894 
z
M 3022 2063 
Q 3016 2534 2758 2815 
Q 2500 3097 2075 3097 
Q 1594 3097 1305 2825 
Q 1016 2553 972 2059 
L 3022 2063 
z
" transform="scale(0.015625)"/>
      <path id="DejaVuSans-72" d="M 2631 2963 
Q 2534 3019 2420 3045 
Q 2306 3072 2169 3072 
Q 1681 3072 1420 2755 
Q 1159 2438 1159 1844 
L 1159 0 
L 581 0 
L 581 3500 
L 1159 3500 
L 1159 2956 
Q 1341 3275 1631 3429 
Q 1922 3584 2338 3584 
Q 2397 3584 2469 3576 
Q 2541 3569 2628 3553 
L 2631 2963 
z
" transform="scale(0.015625)"/>
      <path id="DejaVuSans-73" d="M 2834 3397 
L 2834 2853 
Q 2591 2978 2328 3040 
Q 2066 3103 1784 3103 
Q 1356 3103 1142 2972 
Q 928 2841 928 2578 
Q 928 2378 1081 2264 
Q 1234 2150 1697 2047 
L 1894 2003 
Q 2506 1872 2764 1633 
Q 3022 1394 3022 966 
Q 3022 478 2636 193 
Q 2250 -91 1575 -91 
Q 1294 -91 989 -36 
Q 684 19 347 128 
L 347 722 
Q 666 556 975 473 
Q 1284 391 1588 391 
Q 1994 391 2212 530 
Q 2431 669 2431 922 
Q 2431 1156 2273 1281 
Q 2116 1406 1581 1522 
L 1381 1569 
Q 847 1681 609 1914 
Q 372 2147 372 2553 
Q 372 3047 722 3315 
Q 1072 3584 1716 3584 
Q 2034 3584 2315 3537 
Q 2597 3491 2834 3397 
z
" transform="scale(0.015625)"/>
      <path id="DejaVuSans-69" d="M 603 3500 
L 1178 3500 
L 1178 0 
L 603 0 
L 603 3500 
z
M 603 4863 
L 1178 4863 
L 1178 4134 
L 603 4134 
L 603 4863 
z
" transform="scale(0.015625)"/>
     </defs>
     <use xlink:href="#DejaVuSans-50"/>
     <use xlink:href="#DejaVuSans-79" x="60.302734"/>
     <use xlink:href="#DejaVuSans-74" x="119.482422"/>
     <use xlink:href="#DejaVuSans-68" x="158.691406"/>
     <use xlink:href="#DejaVuSans-6f" x="222.070312"/>
     <use xlink:href="#DejaVuSans-6e" x="283.251953"/>
     <use xlink:href="#DejaVuSans-20" x="346.630859"/>
     <use xlink:href="#DejaVuSans-76" x="378.417969"/>
     <use xlink:href="#DejaVuSans-65" x="437.597656"/>
     <use xlink:href="#DejaVuSans-72" x="499.121094"/>
     <use xlink:href="#DejaVuSans-73" x="540.234375"/>
     <use xlink:href="#DejaVuSans-69" x="592.333984"/>
     <use xlink:href="#DejaVuSans-6f" x="620.117188"/>
     <use xlink:href="#DejaVuSans-6e" x="681.298828"/>
    </g>
   </g>
   <g id="Line3DCollection_1">
    <path d="M 66.435183 368.354809 
L 192.464986 266.569598 
L 189.166665 115.448515 
" style="fill: none; stroke: #b0b0b0; stroke-width: 0.8"/>
    <path d="M 84.706233 374.09375 
L 210.08151 271.67938 
L 207.285061 120.240874 
" style="fill: none; stroke: #b0b0b0; stroke-width: 0.8"/>
    <path d="M 103.093693 379.869256 
L 227.803915 276.819875 
L 225.515529 125.062876 
" style="fill: none; stroke: #b0b0b0; stroke-width: 0.8"/>
    <path d="M 121.598681 385.681677 
L 245.633159 281.991358 
L 243.859114 129.914798 
" style="fill: none; stroke: #b0b0b0; stroke-width: 0.8"/>
    <path d="M 140.222327 391.531369 
L 263.570211 287.194112 
L 262.31687 134.796919 
" style="fill: none; stroke: #b0b0b0; stroke-width: 0.8"/>
    <path d="M 158.965775 397.418691 
L 281.616052 292.428421 
L 280.889868 139.709521 
" style="fill: none; stroke: #b0b0b0; stroke-width: 0.8"/>
    <path d="M 177.830185 403.344007 
L 299.771673 297.694572 
L 299.57919 144.652891 
" style="fill: none; stroke: #b0b0b0; stroke-width: 0.8"/>
    <path d="M 196.816732 409.307686 
L 318.038081 302.992858 
L 318.385931 149.627319 
" style="fill: none; stroke: #b0b0b0; stroke-width: 0.8"/>
    <path d="M 215.926607 415.310102 
L 336.416293 308.323573 
L 337.311203 154.633099 
" style="fill: none; stroke: #b0b0b0; stroke-width: 0.8"/>
    <path d="M 235.161014 421.351634 
L 354.907337 313.687016 
L 356.356128 159.670527 
" style="fill: none; stroke: #b0b0b0; stroke-width: 0.8"/>
    <path d="M 254.521174 427.432665 
L 373.512257 319.083489 
L 375.521847 164.739905 
" style="fill: none; stroke: #b0b0b0; stroke-width: 0.8"/>
    <path d="M 274.008326 433.553584 
L 392.232106 324.513298 
L 394.809511 169.841538 
" style="fill: none; stroke: #b0b0b0; stroke-width: 0.8"/>
    <path d="M 293.623723 439.714785 
L 411.067955 329.976754 
L 414.220288 174.975735 
" style="fill: none; stroke: #b0b0b0; stroke-width: 0.8"/>
    <path d="M 313.368635 445.916667 
L 430.020884 335.474169 
L 433.75536 180.142808 
" style="fill: none; stroke: #b0b0b0; stroke-width: 0.8"/>
    <path d="M 333.244348 452.159634 
L 449.091988 341.005862 
L 453.415926 185.343075 
" style="fill: none; stroke: #b0b0b0; stroke-width: 0.8"/>
    <path d="M 353.252167 458.444095 
L 468.282376 346.572154 
L 473.203197 190.576855 
" style="fill: none; stroke: #b0b0b0; stroke-width: 0.8"/>
    <path d="M 373.393414 464.770465 
L 487.59317 352.17337 
L 493.118405 195.844475 
" style="fill: none; stroke: #b0b0b0; stroke-width: 0.8"/>
    <path d="M 393.669428 471.139166 
L 507.025508 357.809841 
L 513.162792 201.146264 
" style="fill: none; stroke: #b0b0b0; stroke-width: 0.8"/>
    <path d="M 414.081565 477.550623 
L 526.58054 363.4819 
L 533.33762 206.482554 
" style="fill: none; stroke: #b0b0b0; stroke-width: 0.8"/>
    <path d="M 434.631201 484.005269 
L 546.259433 369.189886 
L 553.644166 211.853684 
" style="fill: none; stroke: #b0b0b0; stroke-width: 0.8"/>
   </g>
   <g id="xtick_1">
    <g id="line2d_2">
     <path d="M 67.503086 367.492341 
L 64.296315 370.082219 
" style="fill: none; stroke: #000000; stroke-width: 0.8; stroke-linecap: square"/>
    </g>
    <g id="text_2">
     <!-- 2.0 -->
     <g transform="translate(53.443759 386.338624) scale(0.1 -0.1)">
      <defs>
       <path id="DejaVuSans-32" d="M 1228 531 
L 3431 531 
L 3431 0 
L 469 0 
L 469 531 
Q 828 903 1448 1529 
Q 2069 2156 2228 2338 
Q 2531 2678 2651 2914 
Q 2772 3150 2772 3378 
Q 2772 3750 2511 3984 
Q 2250 4219 1831 4219 
Q 1534 4219 1204 4116 
Q 875 4013 500 3803 
L 500 4441 
Q 881 4594 1212 4672 
Q 1544 4750 1819 4750 
Q 2544 4750 2975 4387 
Q 3406 4025 3406 3419 
Q 3406 3131 3298 2873 
Q 3191 2616 2906 2266 
Q 2828 2175 2409 1742 
Q 1991 1309 1228 531 
z
" transform="scale(0.015625)"/>
       <path id="DejaVuSans-2e" d="M 684 794 
L 1344 794 
L 1344 0 
L 684 0 
L 684 794 
z
" transform="scale(0.015625)"/>
       <path id="DejaVuSans-30" d="M 2034 4250 
Q 1547 4250 1301 3770 
Q 1056 3291 1056 2328 
Q 1056 1369 1301 889 
Q 1547 409 2034 409 
Q 2525 409 2770 889 
Q 3016 1369 3016 2328 
Q 3016 3291 2770 3770 
Q 2525 4250 2034 4250 
z
M 2034 4750 
Q 2819 4750 3233 4129 
Q 3647 3509 3647 2328 
Q 3647 1150 3233 529 
Q 2819 -91 2034 -91 
Q 1250 -91 836 529 
Q 422 1150 422 2328 
Q 422 3509 836 4129 
Q 1250 4750 2034 4750 
z
" transform="scale(0.015625)"/>
      </defs>
      <use xlink:href="#DejaVuSans-32"/>
      <use xlink:href="#DejaVuSans-2e" x="63.623047"/>
      <use xlink:href="#DejaVuSans-30" x="95.410156"/>
     </g>
    </g>
   </g>
   <g id="xtick_2">
    <g id="line2d_3">
     <path d="M 85.768778 373.225797 
L 82.578086 375.832154 
" style="fill: none; stroke: #000000; stroke-width: 0.8; stroke-linecap: square"/>
    </g>
    <g id="text_3">
     <!-- 2.1 -->
     <g transform="translate(71.720595 392.117434) scale(0.1 -0.1)">
      <defs>
       <path id="DejaVuSans-31" d="M 794 531 
L 1825 531 
L 1825 4091 
L 703 3866 
L 703 4441 
L 1819 4666 
L 2450 4666 
L 2450 531 
L 3481 531 
L 3481 0 
L 794 0 
L 794 531 
z
" transform="scale(0.015625)"/>
      </defs>
      <use xlink:href="#DejaVuSans-32"/>
      <use xlink:href="#DejaVuSans-2e" x="63.623047"/>
      <use xlink:href="#DejaVuSans-31" x="95.410156"/>
     </g>
    </g>
   </g>
   <g id="xtick_3">
    <g id="line2d_4">
     <path d="M 104.150791 378.995765 
L 100.976448 381.618759 
" style="fill: none; stroke: #000000; stroke-width: 0.8; stroke-linecap: square"/>
    </g>
    <g id="text_4">
     <!-- 2.2 -->
     <g transform="translate(90.114018 397.933107) scale(0.1 -0.1)">
      <use xlink:href="#DejaVuSans-32"/>
      <use xlink:href="#DejaVuSans-2e" x="63.623047"/>
      <use xlink:href="#DejaVuSans-32" x="95.410156"/>
     </g>
    </g>
   </g>
   <g id="xtick_4">
    <g id="line2d_5">
     <path d="M 122.65024 384.802596 
L 119.49252 387.442386 
" style="fill: none; stroke: #000000; stroke-width: 0.8; stroke-linecap: square"/>
    </g>
    <g id="text_5">
     <!-- 2.3 -->
     <g transform="translate(108.625148 403.785997) scale(0.1 -0.1)">
      <defs>
       <path id="DejaVuSans-33" d="M 2597 2516 
Q 3050 2419 3304 2112 
Q 3559 1806 3559 1356 
Q 3559 666 3084 287 
Q 2609 -91 1734 -91 
Q 1441 -91 1130 -33 
Q 819 25 488 141 
L 488 750 
Q 750 597 1062 519 
Q 1375 441 1716 441 
Q 2309 441 2620 675 
Q 2931 909 2931 1356 
Q 2931 1769 2642 2001 
Q 2353 2234 1838 2234 
L 1294 2234 
L 1294 2753 
L 1863 2753 
Q 2328 2753 2575 2939 
Q 2822 3125 2822 3475 
Q 2822 3834 2567 4026 
Q 2313 4219 1838 4219 
Q 1578 4219 1281 4162 
Q 984 4106 628 3988 
L 628 4550 
Q 988 4650 1302 4700 
Q 1616 4750 1894 4750 
Q 2613 4750 3031 4423 
Q 3450 4097 3450 3541 
Q 3450 3153 3228 2886 
Q 3006 2619 2597 2516 
z
" transform="scale(0.015625)"/>
      </defs>
      <use xlink:href="#DejaVuSans-32"/>
      <use xlink:href="#DejaVuSans-2e" x="63.623047"/>
      <use xlink:href="#DejaVuSans-33" x="95.410156"/>
     </g>
    </g>
   </g>
   <g id="xtick_5">
    <g id="line2d_6">
     <path d="M 141.268253 390.646643 
L 138.127436 393.303391 
" style="fill: none; stroke: #000000; stroke-width: 0.8; stroke-linecap: square"/>
    </g>
    <g id="text_6">
     <!-- 2.4 -->
     <g transform="translate(127.255118 409.676462) scale(0.1 -0.1)">
      <defs>
       <path id="DejaVuSans-34" d="M 2419 4116 
L 825 1625 
L 2419 1625 
L 2419 4116 
z
M 2253 4666 
L 3047 4666 
L 3047 1625 
L 3713 1625 
L 3713 1100 
L 3047 1100 
L 3047 0 
L 2419 0 
L 2419 1100 
L 313 1100 
L 313 1709 
L 2253 4666 
z
" transform="scale(0.015625)"/>
      </defs>
      <use xlink:href="#DejaVuSans-32"/>
      <use xlink:href="#DejaVuSans-2e" x="63.623047"/>
      <use xlink:href="#DejaVuSans-34" x="95.410156"/>
     </g>
    </g>
   </g>
   <g id="xtick_6">
    <g id="line2d_7">
     <path d="M 160.005975 396.528265 
L 156.882344 399.202135 
" style="fill: none; stroke: #000000; stroke-width: 0.8; stroke-linecap: square"/>
    </g>
    <g id="text_7">
     <!-- 2.5 -->
     <g transform="translate(146.005076 415.604865) scale(0.1 -0.1)">
      <defs>
       <path id="DejaVuSans-35" d="M 691 4666 
L 3169 4666 
L 3169 4134 
L 1269 4134 
L 1269 2991 
Q 1406 3038 1543 3061 
Q 1681 3084 1819 3084 
Q 2600 3084 3056 2656 
Q 3513 2228 3513 1497 
Q 3513 744 3044 326 
Q 2575 -91 1722 -91 
Q 1428 -91 1123 -41 
Q 819 9 494 109 
L 494 744 
Q 775 591 1075 516 
Q 1375 441 1709 441 
Q 2250 441 2565 725 
Q 2881 1009 2881 1497 
Q 2881 1984 2565 2268 
Q 2250 2553 1709 2553 
Q 1456 2553 1204 2497 
Q 953 2441 691 2322 
L 691 4666 
z
" transform="scale(0.015625)"/>
      </defs>
      <use xlink:href="#DejaVuSans-32"/>
      <use xlink:href="#DejaVuSans-2e" x="63.623047"/>
      <use xlink:href="#DejaVuSans-35" x="95.410156"/>
     </g>
    </g>
   </g>
   <g id="xtick_7">
    <g id="line2d_8">
     <path d="M 178.864563 402.447827 
L 175.758405 405.138985 
" style="fill: none; stroke: #000000; stroke-width: 0.8; stroke-linecap: square"/>
    </g>
    <g id="text_8">
     <!-- 2.6 -->
     <g transform="translate(164.876185 421.571574) scale(0.1 -0.1)">
      <defs>
       <path id="DejaVuSans-36" d="M 2113 2584 
Q 1688 2584 1439 2293 
Q 1191 2003 1191 1497 
Q 1191 994 1439 701 
Q 1688 409 2113 409 
Q 2538 409 2786 701 
Q 3034 994 3034 1497 
Q 3034 2003 2786 2293 
Q 2538 2584 2113 2584 
z
M 3366 4563 
L 3366 3988 
Q 3128 4100 2886 4159 
Q 2644 4219 2406 4219 
Q 1781 4219 1451 3797 
Q 1122 3375 1075 2522 
Q 1259 2794 1537 2939 
Q 1816 3084 2150 3084 
Q 2853 3084 3261 2657 
Q 3669 2231 3669 1497 
Q 3669 778 3244 343 
Q 2819 -91 2113 -91 
Q 1303 -91 875 529 
Q 447 1150 447 2328 
Q 447 3434 972 4092 
Q 1497 4750 2381 4750 
Q 2619 4750 2861 4703 
Q 3103 4656 3366 4563 
z
" transform="scale(0.015625)"/>
      </defs>
      <use xlink:href="#DejaVuSans-32"/>
      <use xlink:href="#DejaVuSans-2e" x="63.623047"/>
      <use xlink:href="#DejaVuSans-36" x="95.410156"/>
     </g>
    </g>
   </g>
   <g id="xtick_8">
    <g id="line2d_9">
     <path d="M 197.845191 408.405696 
L 194.756799 411.11431 
" style="fill: none; stroke: #000000; stroke-width: 0.8; stroke-linecap: square"/>
    </g>
    <g id="text_9">
     <!-- 2.7 -->
     <g transform="translate(183.869624 427.576961) scale(0.1 -0.1)">
      <defs>
       <path id="DejaVuSans-37" d="M 525 4666 
L 3525 4666 
L 3525 4397 
L 1831 0 
L 1172 0 
L 2766 4134 
L 525 4134 
L 525 4666 
z
" transform="scale(0.015625)"/>
      </defs>
      <use xlink:href="#DejaVuSans-32"/>
      <use xlink:href="#DejaVuSans-2e" x="63.623047"/>
      <use xlink:href="#DejaVuSans-37" x="95.410156"/>
     </g>
    </g>
   </g>
   <g id="xtick_9">
    <g id="line2d_10">
     <path d="M 216.949047 414.402245 
L 213.878717 417.128486 
" style="fill: none; stroke: #000000; stroke-width: 0.8; stroke-linecap: square"/>
    </g>
    <g id="text_10">
     <!-- 3.0 -->
     <g transform="translate(202.986584 433.621404) scale(0.1 -0.1)">
      <use xlink:href="#DejaVuSans-33"/>
      <use xlink:href="#DejaVuSans-2e" x="63.623047"/>
      <use xlink:href="#DejaVuSans-30" x="95.410156"/>
     </g>
    </g>
   </g>
   <g id="xtick_10">
    <g id="line2d_11">
     <path d="M 236.177336 420.437853 
L 233.12537 423.181893 
" style="fill: none; stroke: #000000; stroke-width: 0.8; stroke-linecap: square"/>
    </g>
    <g id="text_11">
     <!-- 3.1 -->
     <g transform="translate(222.228276 439.705285) scale(0.1 -0.1)">
      <use xlink:href="#DejaVuSans-33"/>
      <use xlink:href="#DejaVuSans-2e" x="63.623047"/>
      <use xlink:href="#DejaVuSans-31" x="95.410156"/>
     </g>
    </g>
   </g>
   <g id="xtick_11">
    <g id="line2d_12">
     <path d="M 255.531276 426.512902 
L 252.49798 429.274916 
" style="fill: none; stroke: #000000; stroke-width: 0.8; stroke-linecap: square"/>
    </g>
    <g id="text_12">
     <!-- 3.2 -->
     <g transform="translate(241.595924 445.828991) scale(0.1 -0.1)">
      <use xlink:href="#DejaVuSans-33"/>
      <use xlink:href="#DejaVuSans-2e" x="63.623047"/>
      <use xlink:href="#DejaVuSans-32" x="95.410156"/>
     </g>
    </g>
   </g>
   <g id="xtick_12">
    <g id="line2d_13">
     <path d="M 275.012104 432.627779 
L 271.997789 435.407945 
" style="fill: none; stroke: #000000; stroke-width: 0.8; stroke-linecap: square"/>
    </g>
    <g id="text_13">
     <!-- 3.3 -->
     <g transform="translate(261.090769 451.992914) scale(0.1 -0.1)">
      <use xlink:href="#DejaVuSans-33"/>
      <use xlink:href="#DejaVuSans-2e" x="63.623047"/>
      <use xlink:href="#DejaVuSans-33" x="95.410156"/>
     </g>
    </g>
   </g>
   <g id="xtick_13">
    <g id="line2d_14">
     <path d="M 294.621071 438.782879 
L 291.626054 441.581376 
" style="fill: none; stroke: #000000; stroke-width: 0.8; stroke-linecap: square"/>
    </g>
    <g id="text_14">
     <!-- 3.4 -->
     <g transform="translate(280.714068 458.197452) scale(0.1 -0.1)">
      <use xlink:href="#DejaVuSans-33"/>
      <use xlink:href="#DejaVuSans-2e" x="63.623047"/>
      <use xlink:href="#DejaVuSans-34" x="95.410156"/>
     </g>
    </g>
   </g>
   <g id="xtick_14">
    <g id="line2d_15">
     <path d="M 314.359447 444.978599 
L 311.384047 447.795609 
" style="fill: none; stroke: #000000; stroke-width: 0.8; stroke-linecap: square"/>
    </g>
    <g id="text_15">
     <!-- 3.5 -->
     <g transform="translate(300.467095 464.443007) scale(0.1 -0.1)">
      <use xlink:href="#DejaVuSans-33"/>
      <use xlink:href="#DejaVuSans-2e" x="63.623047"/>
      <use xlink:href="#DejaVuSans-35" x="95.410156"/>
     </g>
    </g>
   </g>
   <g id="xtick_15">
    <g id="line2d_16">
     <path d="M 334.228515 451.215342 
L 331.273061 454.051049 
" style="fill: none; stroke: #000000; stroke-width: 0.8; stroke-linecap: square"/>
    </g>
    <g id="text_16">
     <!-- 3.6 -->
     <g transform="translate(320.351141 470.729989) scale(0.1 -0.1)">
      <use xlink:href="#DejaVuSans-33"/>
      <use xlink:href="#DejaVuSans-2e" x="63.623047"/>
      <use xlink:href="#DejaVuSans-36" x="95.410156"/>
     </g>
    </g>
   </g>
   <g id="xtick_16">
    <g id="line2d_17">
     <path d="M 354.22958 457.493518 
L 351.294401 460.348109 
" style="fill: none; stroke: #000000; stroke-width: 0.8; stroke-linecap: square"/>
    </g>
    <g id="text_17">
     <!-- 3.7 -->
     <g transform="translate(340.367513 477.058809) scale(0.1 -0.1)">
      <use xlink:href="#DejaVuSans-33"/>
      <use xlink:href="#DejaVuSans-2e" x="63.623047"/>
      <use xlink:href="#DejaVuSans-37" x="95.410156"/>
     </g>
    </g>
   </g>
   <g id="xtick_17">
    <g id="line2d_18">
     <path d="M 374.363959 463.813541 
L 371.449393 466.687204 
" style="fill: none; stroke: #000000; stroke-width: 0.8; stroke-linecap: square"/>
    </g>
    <g id="text_18">
     <!-- 3.8 -->
     <g transform="translate(360.517536 483.429888) scale(0.1 -0.1)">
      <defs>
       <path id="DejaVuSans-38" d="M 2034 2216 
Q 1584 2216 1326 1975 
Q 1069 1734 1069 1313 
Q 1069 891 1326 650 
Q 1584 409 2034 409 
Q 2484 409 2743 651 
Q 3003 894 3003 1313 
Q 3003 1734 2745 1975 
Q 2488 2216 2034 2216 
z
M 1403 2484 
Q 997 2584 770 2862 
Q 544 3141 544 3541 
Q 544 4100 942 4425 
Q 1341 4750 2034 4750 
Q 2731 4750 3128 4425 
Q 3525 4100 3525 3541 
Q 3525 3141 3298 2862 
Q 3072 2584 2669 2484 
Q 3125 2378 3379 2068 
Q 3634 1759 3634 1313 
Q 3634 634 3220 271 
Q 2806 -91 2034 -91 
Q 1263 -91 848 271 
Q 434 634 434 1313 
Q 434 1759 690 2068 
Q 947 2378 1403 2484 
z
M 1172 3481 
Q 1172 3119 1398 2916 
Q 1625 2713 2034 2713 
Q 2441 2713 2670 2916 
Q 2900 3119 2900 3481 
Q 2900 3844 2670 4047 
Q 2441 4250 2034 4250 
Q 1625 4250 1398 4047 
Q 1172 3844 1172 3481 
z
" transform="scale(0.015625)"/>
      </defs>
      <use xlink:href="#DejaVuSans-33"/>
      <use xlink:href="#DejaVuSans-2e" x="63.623047"/>
      <use xlink:href="#DejaVuSans-38" x="95.410156"/>
     </g>
    </g>
   </g>
   <g id="xtick_18">
    <g id="line2d_19">
     <path d="M 394.632991 470.17583 
L 391.73938 473.068758 
" style="fill: none; stroke: #000000; stroke-width: 0.8; stroke-linecap: square"/>
    </g>
    <g id="text_19">
     <!-- 3.9 -->
     <g transform="translate(380.802555 489.84365) scale(0.1 -0.1)">
      <defs>
       <path id="DejaVuSans-39" d="M 703 97 
L 703 672 
Q 941 559 1184 500 
Q 1428 441 1663 441 
Q 2288 441 2617 861 
Q 2947 1281 2994 2138 
Q 2813 1869 2534 1725 
Q 2256 1581 1919 1581 
Q 1219 1581 811 2004 
Q 403 2428 403 3163 
Q 403 3881 828 4315 
Q 1253 4750 1959 4750 
Q 2769 4750 3195 4129 
Q 3622 3509 3622 2328 
Q 3622 1225 3098 567 
Q 2575 -91 1691 -91 
Q 1453 -91 1209 -44 
Q 966 3 703 97 
z
M 1959 2075 
Q 2384 2075 2632 2365 
Q 2881 2656 2881 3163 
Q 2881 3666 2632 3958 
Q 2384 4250 1959 4250 
Q 1534 4250 1286 3958 
Q 1038 3666 1038 3163 
Q 1038 2656 1286 2365 
Q 1534 2075 1959 2075 
z
" transform="scale(0.015625)"/>
      </defs>
      <use xlink:href="#DejaVuSans-33"/>
      <use xlink:href="#DejaVuSans-2e" x="63.623047"/>
      <use xlink:href="#DejaVuSans-39" x="95.410156"/>
     </g>
    </g>
   </g>
   <g id="xtick_19">
    <g id="line2d_20">
     <path d="M 415.038032 476.58081 
L 412.165722 479.493198 
" style="fill: none; stroke: #000000; stroke-width: 0.8; stroke-linecap: square"/>
    </g>
    <g id="text_20">
     <!-- 3.10 -->
     <g transform="translate(398.042679 496.300526) scale(0.1 -0.1)">
      <use xlink:href="#DejaVuSans-33"/>
      <use xlink:href="#DejaVuSans-2e" x="63.623047"/>
      <use xlink:href="#DejaVuSans-31" x="95.410156"/>
      <use xlink:href="#DejaVuSans-30" x="159.033203"/>
     </g>
    </g>
   </g>
   <g id="xtick_20">
    <g id="line2d_21">
     <path d="M 435.580454 483.028914 
L 432.7298 485.960958 
" style="fill: none; stroke: #000000; stroke-width: 0.8; stroke-linecap: square"/>
    </g>
    <g id="text_21">
     <!-- 3.11 -->
     <g transform="translate(418.60179 502.80095) scale(0.1 -0.1)">
      <use xlink:href="#DejaVuSans-33"/>
      <use xlink:href="#DejaVuSans-2e" x="63.623047"/>
      <use xlink:href="#DejaVuSans-31" x="95.410156"/>
      <use xlink:href="#DejaVuSans-31" x="159.033203"/>
     </g>
    </g>
   </g>
  </g>
  <g id="axis3d_2">
   <g id="line2d_22">
    <path d="M 573.729769 377.157828 
L 463.330816 493.019825 
" style="fill: none; stroke: #000000; stroke-width: 0.8; stroke-linecap: square"/>
   </g>
   <g id="text_22">
    <!-- Release date -->
    <g transform="translate(533.742058 488.90359) rotate(-46.383131) scale(0.12 -0.12)">
     <defs>
      <path id="DejaVuSans-52" d="M 2841 2188 
Q 3044 2119 3236 1894 
Q 3428 1669 3622 1275 
L 4263 0 
L 3584 0 
L 2988 1197 
Q 2756 1666 2539 1819 
Q 2322 1972 1947 1972 
L 1259 1972 
L 1259 0 
L 628 0 
L 628 4666 
L 2053 4666 
Q 2853 4666 3247 4331 
Q 3641 3997 3641 3322 
Q 3641 2881 3436 2590 
Q 3231 2300 2841 2188 
z
M 1259 4147 
L 1259 2491 
L 2053 2491 
Q 2509 2491 2742 2702 
Q 2975 2913 2975 3322 
Q 2975 3731 2742 3939 
Q 2509 4147 2053 4147 
L 1259 4147 
z
" transform="scale(0.015625)"/>
      <path id="DejaVuSans-6c" d="M 603 4863 
L 1178 4863 
L 1178 0 
L 603 0 
L 603 4863 
z
" transform="scale(0.015625)"/>
      <path id="DejaVuSans-61" d="M 2194 1759 
Q 1497 1759 1228 1600 
Q 959 1441 959 1056 
Q 959 750 1161 570 
Q 1363 391 1709 391 
Q 2188 391 2477 730 
Q 2766 1069 2766 1631 
L 2766 1759 
L 2194 1759 
z
M 3341 1997 
L 3341 0 
L 2766 0 
L 2766 531 
Q 2569 213 2275 61 
Q 1981 -91 1556 -91 
Q 1019 -91 701 211 
Q 384 513 384 1019 
Q 384 1609 779 1909 
Q 1175 2209 1959 2209 
L 2766 2209 
L 2766 2266 
Q 2766 2663 2505 2880 
Q 2244 3097 1772 3097 
Q 1472 3097 1187 3025 
Q 903 2953 641 2809 
L 641 3341 
Q 956 3463 1253 3523 
Q 1550 3584 1831 3584 
Q 2591 3584 2966 3190 
Q 3341 2797 3341 1997 
z
" transform="scale(0.015625)"/>
      <path id="DejaVuSans-64" d="M 2906 2969 
L 2906 4863 
L 3481 4863 
L 3481 0 
L 2906 0 
L 2906 525 
Q 2725 213 2448 61 
Q 2172 -91 1784 -91 
Q 1150 -91 751 415 
Q 353 922 353 1747 
Q 353 2572 751 3078 
Q 1150 3584 1784 3584 
Q 2172 3584 2448 3432 
Q 2725 3281 2906 2969 
z
M 947 1747 
Q 947 1113 1208 752 
Q 1469 391 1925 391 
Q 2381 391 2643 752 
Q 2906 1113 2906 1747 
Q 2906 2381 2643 2742 
Q 2381 3103 1925 3103 
Q 1469 3103 1208 2742 
Q 947 2381 947 1747 
z
" transform="scale(0.015625)"/>
     </defs>
     <use xlink:href="#DejaVuSans-52"/>
     <use xlink:href="#DejaVuSans-65" x="64.982422"/>
     <use xlink:href="#DejaVuSans-6c" x="126.505859"/>
     <use xlink:href="#DejaVuSans-65" x="154.289062"/>
     <use xlink:href="#DejaVuSans-61" x="215.8125"/>
     <use xlink:href="#DejaVuSans-73" x="277.091797"/>
     <use xlink:href="#DejaVuSans-65" x="329.191406"/>
     <use xlink:href="#DejaVuSans-20" x="390.714844"/>
     <use xlink:href="#DejaVuSans-64" x="422.501953"/>
     <use xlink:href="#DejaVuSans-61" x="485.978516"/>
     <use xlink:href="#DejaVuSans-74" x="547.257812"/>
     <use xlink:href="#DejaVuSans-65" x="586.466797"/>
    </g>
   </g>
   <g id="Line3DCollection_2">
    <path d="M 61.126778 183.443119 
L 68.323937 338.984938 
L 486.902678 468.28152 
" style="fill: none; stroke: #b0b0b0; stroke-width: 0.8"/>
    <path d="M 86.113053 165.371111 
L 92.506794 319.755353 
L 507.971007 446.170634 
" style="fill: none; stroke: #b0b0b0; stroke-width: 0.8"/>
    <path d="M 110.548784 147.697299 
L 116.172116 300.937299 
L 528.556417 424.566564 
" style="fill: none; stroke: #b0b0b0; stroke-width: 0.8"/>
    <path d="M 134.430397 130.424269 
L 139.315431 282.534331 
L 548.657174 403.47113 
" style="fill: none; stroke: #b0b0b0; stroke-width: 0.8"/>
    <path d="M 157.818719 113.508024 
L 161.994745 264.500325 
L 568.325661 382.829357 
" style="fill: none; stroke: #b0b0b0; stroke-width: 0.8"/>
   </g>
   <g id="xtick_21">
    <g id="line2d_23">
     <path d="M 483.312604 467.172567 
L 494.095373 470.503303 
" style="fill: none; stroke: #000000; stroke-width: 0.8; stroke-linecap: square"/>
    </g>
    <g id="text_23">
     <!-- 2011 -->
     <g transform="translate(491.863262 487.711378) scale(0.1 -0.1)">
      <use xlink:href="#DejaVuSans-32"/>
      <use xlink:href="#DejaVuSans-30" x="63.623047"/>
      <use xlink:href="#DejaVuSans-31" x="127.246094"/>
      <use xlink:href="#DejaVuSans-31" x="190.869141"/>
     </g>
    </g>
   </g>
   <g id="xtick_22">
    <g id="line2d_24">
     <path d="M 504.410423 445.087237 
L 515.104476 448.341168 
" style="fill: none; stroke: #000000; stroke-width: 0.8; stroke-linecap: square"/>
    </g>
    <g id="text_24">
     <!-- 2014 -->
     <g transform="translate(512.760471 465.427149) scale(0.1 -0.1)">
      <use xlink:href="#DejaVuSans-32"/>
      <use xlink:href="#DejaVuSans-30" x="63.623047"/>
      <use xlink:href="#DejaVuSans-31" x="127.246094"/>
      <use xlink:href="#DejaVuSans-34" x="190.869141"/>
     </g>
    </g>
   </g>
   <g id="xtick_23">
    <g id="line2d_25">
     <path d="M 525.024921 423.507852 
L 535.631469 426.687603 
" style="fill: none; stroke: #000000; stroke-width: 0.8; stroke-linecap: square"/>
    </g>
    <g id="text_25">
     <!-- 2017 -->
     <g transform="translate(533.177913 443.654532) scale(0.1 -0.1)">
      <use xlink:href="#DejaVuSans-32"/>
      <use xlink:href="#DejaVuSans-30" x="63.623047"/>
      <use xlink:href="#DejaVuSans-31" x="127.246094"/>
      <use xlink:href="#DejaVuSans-37" x="190.869141"/>
     </g>
    </g>
   </g>
   <g id="xtick_24">
    <g id="line2d_26">
     <path d="M 545.154343 402.436246 
L 555.674661 405.544391 
" style="fill: none; stroke: #000000; stroke-width: 0.8; stroke-linecap: square"/>
    </g>
    <g id="text_26">
     <!-- 2020 -->
     <g transform="translate(553.113923 422.395302) scale(0.1 -0.1)">
      <use xlink:href="#DejaVuSans-32"/>
      <use xlink:href="#DejaVuSans-30" x="63.623047"/>
      <use xlink:href="#DejaVuSans-32" x="127.246094"/>
      <use xlink:href="#DejaVuSans-30" x="190.869141"/>
     </g>
    </g>
   </g>
   <g id="xtick_25">
    <g id="line2d_27">
     <path d="M 564.85113 381.817527 
L 575.286321 384.856395 
" style="fill: none; stroke: #000000; stroke-width: 0.8; stroke-linecap: square"/>
    </g>
    <g id="text_27">
     <!-- 2023 -->
     <g transform="translate(572.620503 401.594004) scale(0.1 -0.1)">
      <use xlink:href="#DejaVuSans-32"/>
      <use xlink:href="#DejaVuSans-30" x="63.623047"/>
      <use xlink:href="#DejaVuSans-32" x="127.246094"/>
      <use xlink:href="#DejaVuSans-33" x="190.869141"/>
     </g>
    </g>
   </g>
  </g>
  <g id="axis3d_3">
   <g id="line2d_28">
    <path d="M 573.729769 377.157828 
L 581.997262 219.353145 
" style="fill: none; stroke: #000000; stroke-width: 0.8; stroke-linecap: square"/>
   </g>
   <g id="text_28">
    <!-- Amount of version-specific features -->
    <g transform="translate(622.800538 407.579611) rotate(-87.000978) scale(0.12 -0.12)">
     <defs>
      <path id="DejaVuSans-41" d="M 2188 4044 
L 1331 1722 
L 3047 1722 
L 2188 4044 
z
M 1831 4666 
L 2547 4666 
L 4325 0 
L 3669 0 
L 3244 1197 
L 1141 1197 
L 716 0 
L 50 0 
L 1831 4666 
z
" transform="scale(0.015625)"/>
      <path id="DejaVuSans-6d" d="M 3328 2828 
Q 3544 3216 3844 3400 
Q 4144 3584 4550 3584 
Q 5097 3584 5394 3201 
Q 5691 2819 5691 2113 
L 5691 0 
L 5113 0 
L 5113 2094 
Q 5113 2597 4934 2840 
Q 4756 3084 4391 3084 
Q 3944 3084 3684 2787 
Q 3425 2491 3425 1978 
L 3425 0 
L 2847 0 
L 2847 2094 
Q 2847 2600 2669 2842 
Q 2491 3084 2119 3084 
Q 1678 3084 1418 2786 
Q 1159 2488 1159 1978 
L 1159 0 
L 581 0 
L 581 3500 
L 1159 3500 
L 1159 2956 
Q 1356 3278 1631 3431 
Q 1906 3584 2284 3584 
Q 2666 3584 2933 3390 
Q 3200 3197 3328 2828 
z
" transform="scale(0.015625)"/>
      <path id="DejaVuSans-75" d="M 544 1381 
L 544 3500 
L 1119 3500 
L 1119 1403 
Q 1119 906 1312 657 
Q 1506 409 1894 409 
Q 2359 409 2629 706 
Q 2900 1003 2900 1516 
L 2900 3500 
L 3475 3500 
L 3475 0 
L 2900 0 
L 2900 538 
Q 2691 219 2414 64 
Q 2138 -91 1772 -91 
Q 1169 -91 856 284 
Q 544 659 544 1381 
z
M 1991 3584 
L 1991 3584 
z
" transform="scale(0.015625)"/>
      <path id="DejaVuSans-66" d="M 2375 4863 
L 2375 4384 
L 1825 4384 
Q 1516 4384 1395 4259 
Q 1275 4134 1275 3809 
L 1275 3500 
L 2222 3500 
L 2222 3053 
L 1275 3053 
L 1275 0 
L 697 0 
L 697 3053 
L 147 3053 
L 147 3500 
L 697 3500 
L 697 3744 
Q 697 4328 969 4595 
Q 1241 4863 1831 4863 
L 2375 4863 
z
" transform="scale(0.015625)"/>
      <path id="DejaVuSans-2d" d="M 313 2009 
L 1997 2009 
L 1997 1497 
L 313 1497 
L 313 2009 
z
" transform="scale(0.015625)"/>
      <path id="DejaVuSans-70" d="M 1159 525 
L 1159 -1331 
L 581 -1331 
L 581 3500 
L 1159 3500 
L 1159 2969 
Q 1341 3281 1617 3432 
Q 1894 3584 2278 3584 
Q 2916 3584 3314 3078 
Q 3713 2572 3713 1747 
Q 3713 922 3314 415 
Q 2916 -91 2278 -91 
Q 1894 -91 1617 61 
Q 1341 213 1159 525 
z
M 3116 1747 
Q 3116 2381 2855 2742 
Q 2594 3103 2138 3103 
Q 1681 3103 1420 2742 
Q 1159 2381 1159 1747 
Q 1159 1113 1420 752 
Q 1681 391 2138 391 
Q 2594 391 2855 752 
Q 3116 1113 3116 1747 
z
" transform="scale(0.015625)"/>
      <path id="DejaVuSans-63" d="M 3122 3366 
L 3122 2828 
Q 2878 2963 2633 3030 
Q 2388 3097 2138 3097 
Q 1578 3097 1268 2742 
Q 959 2388 959 1747 
Q 959 1106 1268 751 
Q 1578 397 2138 397 
Q 2388 397 2633 464 
Q 2878 531 3122 666 
L 3122 134 
Q 2881 22 2623 -34 
Q 2366 -91 2075 -91 
Q 1284 -91 818 406 
Q 353 903 353 1747 
Q 353 2603 823 3093 
Q 1294 3584 2113 3584 
Q 2378 3584 2631 3529 
Q 2884 3475 3122 3366 
z
" transform="scale(0.015625)"/>
     </defs>
     <use xlink:href="#DejaVuSans-41"/>
     <use xlink:href="#DejaVuSans-6d" x="68.408203"/>
     <use xlink:href="#DejaVuSans-6f" x="165.820312"/>
     <use xlink:href="#DejaVuSans-75" x="227.001953"/>
     <use xlink:href="#DejaVuSans-6e" x="290.380859"/>
     <use xlink:href="#DejaVuSans-74" x="353.759766"/>
     <use xlink:href="#DejaVuSans-20" x="392.96875"/>
     <use xlink:href="#DejaVuSans-6f" x="424.755859"/>
     <use xlink:href="#DejaVuSans-66" x="485.9375"/>
     <use xlink:href="#DejaVuSans-20" x="521.142578"/>
     <use xlink:href="#DejaVuSans-76" x="552.929688"/>
     <use xlink:href="#DejaVuSans-65" x="612.109375"/>
     <use xlink:href="#DejaVuSans-72" x="673.632812"/>
     <use xlink:href="#DejaVuSans-73" x="714.746094"/>
     <use xlink:href="#DejaVuSans-69" x="766.845703"/>
     <use xlink:href="#DejaVuSans-6f" x="794.628906"/>
     <use xlink:href="#DejaVuSans-6e" x="855.810547"/>
     <use xlink:href="#DejaVuSans-2d" x="919.189453"/>
     <use xlink:href="#DejaVuSans-73" x="955.273438"/>
     <use xlink:href="#DejaVuSans-70" x="1007.373047"/>
     <use xlink:href="#DejaVuSans-65" x="1070.849609"/>
     <use xlink:href="#DejaVuSans-63" x="1132.373047"/>
     <use xlink:href="#DejaVuSans-69" x="1187.353516"/>
     <use xlink:href="#DejaVuSans-66" x="1215.136719"/>
     <use xlink:href="#DejaVuSans-69" x="1250.341797"/>
     <use xlink:href="#DejaVuSans-63" x="1278.125"/>
     <use xlink:href="#DejaVuSans-20" x="1333.105469"/>
     <use xlink:href="#DejaVuSans-66" x="1364.892578"/>
     <use xlink:href="#DejaVuSans-65" x="1400.097656"/>
     <use xlink:href="#DejaVuSans-61" x="1461.621094"/>
     <use xlink:href="#DejaVuSans-74" x="1522.900391"/>
     <use xlink:href="#DejaVuSans-75" x="1562.109375"/>
     <use xlink:href="#DejaVuSans-72" x="1625.488281"/>
     <use xlink:href="#DejaVuSans-65" x="1664.351562"/>
     <use xlink:href="#DejaVuSans-73" x="1725.875"/>
    </g>
   </g>
   <g id="Line3DCollection_3">
    <path d="M 573.890257 374.094538 
L 168.154476 256.609867 
L 41.154922 357.41872 
" style="fill: none; stroke: #b0b0b0; stroke-width: 0.8"/>
    <path d="M 575.518796 343.010017 
L 167.368592 226.882774 
L 39.556293 326.521295 
" style="fill: none; stroke: #b0b0b0; stroke-width: 0.8"/>
    <path d="M 577.167278 311.544833 
L 166.573716 196.815502 
L 37.93827 295.249021 
" style="fill: none; stroke: #b0b0b0; stroke-width: 0.8"/>
    <path d="M 578.836072 279.691951 
L 165.769691 166.402178 
L 36.300498 263.595035 
" style="fill: none; stroke: #b0b0b0; stroke-width: 0.8"/>
    <path d="M 580.525555 247.444162 
L 164.956359 135.636795 
L 34.642612 231.552306 
" style="fill: none; stroke: #b0b0b0; stroke-width: 0.8"/>
   </g>
   <g id="xtick_26">
    <g id="line2d_29">
     <path d="M 570.421377 373.090091 
L 580.839567 376.106778 
" style="fill: none; stroke: #000000; stroke-width: 0.8; stroke-linecap: square"/>
    </g>
    <g id="text_29">
     <!-- 0.0 -->
     <g transform="translate(587.360749 382.363535) scale(0.1 -0.1)">
      <use xlink:href="#DejaVuSans-30"/>
      <use xlink:href="#DejaVuSans-2e" x="63.623047"/>
      <use xlink:href="#DejaVuSans-30" x="95.410156"/>
     </g>
    </g>
   </g>
   <g id="xtick_27">
    <g id="line2d_30">
     <path d="M 572.027909 342.016787 
L 582.512264 344.999804 
" style="fill: none; stroke: #000000; stroke-width: 0.8; stroke-linecap: square"/>
    </g>
    <g id="text_30">
     <!-- 0.1 -->
     <g transform="translate(589.120312 351.271528) scale(0.1 -0.1)">
      <use xlink:href="#DejaVuSans-30"/>
      <use xlink:href="#DejaVuSans-2e" x="63.623047"/>
      <use xlink:href="#DejaVuSans-31" x="95.410156"/>
     </g>
    </g>
   </g>
   <g id="xtick_28">
    <g id="line2d_31">
     <path d="M 573.654104 310.563171 
L 584.205467 313.511466 
" style="fill: none; stroke: #000000; stroke-width: 0.8; stroke-linecap: square"/>
    </g>
    <g id="text_31">
     <!-- 0.2 -->
     <g transform="translate(590.90143 319.798625) scale(0.1 -0.1)">
      <use xlink:href="#DejaVuSans-30"/>
      <use xlink:href="#DejaVuSans-2e" x="63.623047"/>
      <use xlink:href="#DejaVuSans-32" x="95.410156"/>
     </g>
    </g>
   </g>
   <g id="xtick_29">
    <g id="line2d_32">
     <path d="M 575.300324 278.722219 
L 585.919557 281.634706 
" style="fill: none; stroke: #000000; stroke-width: 0.8; stroke-linecap: square"/>
    </g>
    <g id="text_32">
     <!-- 0.3 -->
     <g transform="translate(592.704503 287.937783) scale(0.1 -0.1)">
      <use xlink:href="#DejaVuSans-30"/>
      <use xlink:href="#DejaVuSans-2e" x="63.623047"/>
      <use xlink:href="#DejaVuSans-33" x="95.410156"/>
     </g>
    </g>
   </g>
   <g id="xtick_30">
    <g id="line2d_33">
     <path d="M 576.966943 246.48673 
L 587.654922 249.362292 
" style="fill: none; stroke: #000000; stroke-width: 0.8; stroke-linecap: square"/>
    </g>
    <g id="text_33">
     <!-- 0.4 -->
     <g transform="translate(594.529939 255.681785) scale(0.1 -0.1)">
      <use xlink:href="#DejaVuSans-30"/>
      <use xlink:href="#DejaVuSans-2e" x="63.623047"/>
      <use xlink:href="#DejaVuSans-34" x="95.410156"/>
     </g>
    </g>
   </g>
  </g>
  <g id="axes_1">
   <g id="line2d_34">
    <path d="M 185.957522 393.155417 
L 218.705457 386.986935 
L 225.340066 403.812427 
L 248.931418 405.841586 
L 280.917784 400.291177 
L 312.383581 395.076694 
L 342.581941 390.908021 
L 372.901121 386.514591 
L 401.535589 383.616855 
L 431.688993 379.16537 
L 460.247182 376.16119 
L 486.543786 375.330245 
L 512.944204 374.370604 
L 539.694397 373.024131 
" clip-path="url(#p387e519bd7)" style="fill: none; stroke: #ff0000; stroke-width: 1.5; stroke-linecap: square"/>
   </g>
   <g id="Poly3DCollection_1">
    <path d="M 183.954637 279.449698 
L 197.83655 272.837486 
L 180.264765 273.414882 
z
" clip-path="url(#p387e519bd7)" style="fill: #edf4fc"/>
    <path d="M 180.264765 273.414882 
L 165.946064 266.468979 
L 183.954637 279.449698 
z
" clip-path="url(#p387e519bd7)" style="fill: #e5eff9"/>
    <path d="M 213.916519 178.254212 
L 197.83655 272.837486 
L 183.954637 279.449698 
z
" clip-path="url(#p387e519bd7)" style="fill: #99c7e0"/>
    <path d="M 183.954637 279.449698 
L 165.946064 266.468979 
L 130.768218 308.682528 
z
" clip-path="url(#p387e519bd7)" style="fill: #e2edf8"/>
    <path d="M 219.750132 282.144967 
L 233.377729 268.768895 
L 213.916519 178.254212 
z
" clip-path="url(#p387e519bd7)" style="fill: #7cb7da"/>
    <path d="M 130.768218 308.682528 
L 148.665776 311.814795 
L 183.954637 279.449698 
z
" clip-path="url(#p387e519bd7)" style="fill: #eaf2fb"/>
    <path d="M 183.954637 279.449698 
L 200.165578 200.231585 
L 213.916519 178.254212 
z
" clip-path="url(#p387e519bd7)" style="fill: #3686c0"/>
    <path d="M 233.377729 268.768895 
L 219.750132 282.144967 
L 236.678423 194.244298 
z
" clip-path="url(#p387e519bd7)" style="fill: #75b4d8"/>
    <path d="M 274.42337 277.01495 
L 269.739969 290.858693 
L 256.273494 303.219694 
z
" clip-path="url(#p387e519bd7)" style="fill: #d4e4f4"/>
    <path d="M 274.42337 277.01495 
L 287.913942 269.877606 
L 269.739969 290.858693 
z
" clip-path="url(#p387e519bd7)" style="fill: #c1d9ed"/>
    <path d="M 130.768218 308.682528 
L 130.597583 308.819733 
L 148.495949 311.952731 
z
" clip-path="url(#p387e519bd7)" style="fill: #eef5fc"/>
    <path d="M 213.916519 178.254212 
L 200.165578 200.231585 
L 219.750132 282.144967 
z
" clip-path="url(#p387e519bd7)" style="fill: #2f7fbc"/>
    <path d="M 311.636852 327.317151 
L 324.846713 315.607654 
L 306.385551 307.316571 
z
" clip-path="url(#p387e519bd7)" style="fill: #f5fafe"/>
    <path d="M 130.597583 308.819733 
L 127.118531 307.101795 
L 148.495949 311.952731 
z
" clip-path="url(#p387e519bd7)" style="fill: #eaf3fb"/>
    <path d="M 148.495949 311.952731 
L 148.665776 311.814795 
L 130.768218 308.682528 
z
" clip-path="url(#p387e519bd7)" style="fill: #ecf4fb"/>
    <path d="M 306.385551 307.316571 
L 287.913942 269.877606 
L 274.42337 277.01495 
z
" clip-path="url(#p387e519bd7)" style="fill: #c7dbef"/>
    <path d="M 256.273494 303.219694 
L 269.739969 290.858693 
L 236.678423 194.244298 
z
" clip-path="url(#p387e519bd7)" style="fill: #92c4de"/>
    <path d="M 306.385551 307.316571 
L 293.086953 319.243121 
L 311.636852 327.317151 
z
" clip-path="url(#p387e519bd7)" style="fill: #f4f9fe"/>
    <path d="M 274.42337 277.01495 
L 293.086953 319.243121 
L 306.385551 307.316571 
z
" clip-path="url(#p387e519bd7)" style="fill: #dbe9f6"/>
    <path d="M 343.422005 321.028407 
L 324.846713 315.607654 
L 311.636852 327.317151 
z
" clip-path="url(#p387e519bd7)" style="fill: #f7fbff"/>
    <path d="M 183.954637 279.449698 
L 148.665776 311.814795 
L 164.88686 248.230376 
z
" clip-path="url(#p387e519bd7)" style="fill: #b8d5ea"/>
    <path d="M 143.465072 315.414448 
L 127.118531 307.101795 
L 125.375395 307.529174 
z
" clip-path="url(#p387e519bd7)" style="fill: #e7f0fa"/>
    <path d="M 127.118531 307.101795 
L 145.025149 309.523434 
L 148.495949 311.952731 
z
" clip-path="url(#p387e519bd7)" style="fill: #e6f0f9"/>
    <path d="M 125.375395 307.529174 
L 123.489194 308.699383 
L 143.465072 315.414448 
z
" clip-path="url(#p387e519bd7)" style="fill: #e6f0f9"/>
    <path d="M 184.627645 309.015327 
L 219.750132 282.144967 
L 200.165578 200.231585 
z
" clip-path="url(#p387e519bd7)" style="fill: #8abfdd"/>
    <path d="M 143.465072 315.414448 
L 145.025149 309.523434 
L 127.118531 307.101795 
z
" clip-path="url(#p387e519bd7)" style="fill: #e5eff9"/>
    <path d="M 164.88686 248.230376 
L 200.165578 200.231585 
L 183.954637 279.449698 
z
" clip-path="url(#p387e519bd7)" style="fill: #529dcc"/>
    <path d="M 250.369986 170.213919 
L 233.377729 268.768895 
L 236.678423 194.244298 
z
" clip-path="url(#p387e519bd7)" style="fill: #1561a9"/>
    <path d="M 123.489194 308.699383 
L 141.593349 316.678199 
L 143.465072 315.414448 
z
" clip-path="url(#p387e519bd7)" style="fill: #e7f1fa"/>
    <path d="M 137.621257 327.776782 
L 123.489194 308.699383 
L 119.247938 312.272347 
z
" clip-path="url(#p387e519bd7)" style="fill: #eaf3fb"/>
    <path d="M 137.621257 327.776782 
L 141.593349 316.678199 
L 123.489194 308.699383 
z
" clip-path="url(#p387e519bd7)" style="fill: #ecf4fb"/>
    <path d="M 119.247938 312.272347 
L 118.184888 316.668847 
L 137.621257 327.776782 
z
" clip-path="url(#p387e519bd7)" style="fill: #edf4fc"/>
    <path d="M 330.295416 332.810616 
L 343.422005 321.028407 
L 311.636852 327.317151 
z
" clip-path="url(#p387e519bd7)" style="fill: #f7fbff"/>
    <path d="M 236.678423 194.244298 
L 269.739969 290.858693 
L 250.369986 170.213919 
z
" clip-path="url(#p387e519bd7)" style="fill: #1c6bb0"/>
    <path d="M 118.184888 316.668847 
L 136.332467 325.433372 
L 137.621257 327.776782 
z
" clip-path="url(#p387e519bd7)" style="fill: #f1f7fd"/>
    <path d="M 184.627645 309.015327 
L 236.678423 194.244298 
L 219.750132 282.144967 
z
" clip-path="url(#p387e519bd7)" style="fill: #75b4d8"/>
    <path d="M 349.092289 335.707778 
L 362.144068 323.561344 
L 343.422005 321.028407 
z
" clip-path="url(#p387e519bd7)" style="fill: #f4f9fe"/>
    <path d="M 134.387728 322.966394 
L 118.184888 316.668847 
L 116.0708 310.248116 
z
" clip-path="url(#p387e519bd7)" style="fill: #e5eff9"/>
    <path d="M 134.387728 322.966394 
L 136.332467 325.433372 
L 118.184888 316.668847 
z
" clip-path="url(#p387e519bd7)" style="fill: #ecf4fb"/>
    <path d="M 148.665776 311.814795 
L 148.495949 311.952731 
L 164.715529 248.365495 
z
" clip-path="url(#p387e519bd7)" style="fill: #bcd7eb"/>
    <path d="M 256.273494 303.219694 
L 221.385857 315.383224 
L 274.42337 277.01495 
z
" clip-path="url(#p387e519bd7)" style="fill: #caddf0"/>
    <path d="M 349.092289 335.707778 
L 343.422005 321.028407 
L 330.295416 332.810616 
z
" clip-path="url(#p387e519bd7)" style="fill: #f5fafe"/>
    <path d="M 134.387728 322.966394 
L 116.0708 310.248116 
L 114.945946 309.571451 
z
" clip-path="url(#p387e519bd7)" style="fill: #dfecf7"/>
    <path d="M 164.715529 248.365495 
L 148.495949 311.952731 
L 145.025149 309.523434 
z
" clip-path="url(#p387e519bd7)" style="fill: #b7d4ea"/>
    <path d="M 114.945946 309.571451 
L 133.300996 323.0634 
L 134.387728 322.966394 
z
" clip-path="url(#p387e519bd7)" style="fill: #e3eef9"/>
    <path d="M 380.91908 331.971029 
L 362.144068 323.561344 
L 349.092289 335.707778 
z
" clip-path="url(#p387e519bd7)" style="fill: #f4f9fe"/>
    <path d="M 258.908653 347.172139 
L 293.086953 319.243121 
L 274.42337 277.01495 
z
" clip-path="url(#p387e519bd7)" style="fill: #d9e8f5"/>
    <path d="M 236.678423 194.244298 
L 221.385857 315.383224 
L 256.273494 303.219694 
z
" clip-path="url(#p387e519bd7)" style="fill: #7db8da"/>
    <path d="M 277.70226 357.397483 
L 311.636852 327.317151 
L 293.086953 319.243121 
z
" clip-path="url(#p387e519bd7)" style="fill: #f5fafe"/>
    <path d="M 157.801923 254.64072 
L 143.465072 315.414448 
L 141.593349 316.678199 
z
" clip-path="url(#p387e519bd7)" style="fill: #bcd7eb"/>
    <path d="M 141.593349 316.678199 
L 137.621257 327.776782 
L 157.801923 254.64072 
z
" clip-path="url(#p387e519bd7)" style="fill: #c3daee"/>
    <path d="M 160.788144 229.820207 
L 145.025149 309.523434 
L 143.465072 315.414448 
z
" clip-path="url(#p387e519bd7)" style="fill: #a1cbe2"/>
    <path d="M 184.627645 309.015327 
L 200.165578 200.231585 
L 164.88686 248.230376 
z
" clip-path="url(#p387e519bd7)" style="fill: #4896c8"/>
    <path d="M 380.91908 331.971029 
L 367.96293 343.900707 
L 399.843023 337.493528 
z
" clip-path="url(#p387e519bd7)" style="fill: #f7fbff"/>
    <path d="M 136.332467 325.433372 
L 134.387728 322.966394 
L 151.457479 291.828424 
z
" clip-path="url(#p387e519bd7)" style="fill: #d5e5f4"/>
    <path d="M 349.092289 335.707778 
L 367.96293 343.900707 
L 380.91908 331.971029 
z
" clip-path="url(#p387e519bd7)" style="fill: #f5fafe"/>
    <path d="M 151.457479 291.828424 
L 134.387728 322.966394 
L 133.300996 323.0634 
z
" clip-path="url(#p387e519bd7)" style="fill: #d2e3f3"/>
    <path d="M 330.295416 332.810616 
L 311.636852 327.317151 
L 277.70226 357.397483 
z
" clip-path="url(#p387e519bd7)" style="fill: #f7fbff"/>
    <path d="M 164.88686 248.230376 
L 148.665776 311.814795 
L 164.715529 248.365495 
z
" clip-path="url(#p387e519bd7)" style="fill: #6aaed6"/>
    <path d="M 137.621257 327.776782 
L 136.332467 325.433372 
L 151.989904 246.714765 
z
" clip-path="url(#p387e519bd7)" style="fill: #bad6eb"/>
    <path d="M 184.459167 309.154266 
L 184.627645 309.015327 
L 164.715529 248.365495 
z
" clip-path="url(#p387e519bd7)" style="fill: #a0cbe2"/>
    <path d="M 164.715529 248.365495 
L 181.163359 311.414353 
L 184.459167 309.154266 
z
" clip-path="url(#p387e519bd7)" style="fill: #9fcae1"/>
    <path d="M 367.96293 343.900707 
L 386.974082 349.497981 
L 399.843023 337.493528 
z
" clip-path="url(#p387e519bd7)" style="fill: #f7fbff"/>
    <path d="M 277.70226 357.397483 
L 293.086953 319.243121 
L 258.908653 347.172139 
z
" clip-path="url(#p387e519bd7)" style="fill: #f3f8fe"/>
    <path d="M 221.385857 315.383224 
L 239.933662 316.293379 
L 274.42337 277.01495 
z
" clip-path="url(#p387e519bd7)" style="fill: #b7d4ea"/>
    <path d="M 418.885367 343.050579 
L 399.843023 337.493528 
L 406.104986 355.130513 
z
" clip-path="url(#p387e519bd7)" style="fill: #f7fbff"/>
    <path d="M 164.715529 248.365495 
L 145.025149 309.523434 
L 160.788144 229.820207 
z
" clip-path="url(#p387e519bd7)" style="fill: #4f9bcb"/>
    <path d="M 159.608682 250.54907 
L 143.465072 315.414448 
L 157.801923 254.64072 
z
" clip-path="url(#p387e519bd7)" style="fill: #69add5"/>
    <path d="M 349.092289 335.707778 
L 330.295416 332.810616 
L 296.567892 360.78229 
z
" clip-path="url(#p387e519bd7)" style="fill: #f4f9fe"/>
    <path d="M 164.715529 248.365495 
L 184.627645 309.015327 
L 164.88686 248.230376 
z
" clip-path="url(#p387e519bd7)" style="fill: #5ca4d0"/>
    <path d="M 151.457479 291.828424 
L 133.300996 323.0634 
L 150.253752 288.017326 
z
" clip-path="url(#p387e519bd7)" style="fill: #b0d2e7"/>
    <path d="M 157.801923 254.64072 
L 177.637894 314.759897 
L 179.503179 313.906151 
z
" clip-path="url(#p387e519bd7)" style="fill: #a1cbe2"/>
    <path d="M 274.42337 277.01495 
L 239.933662 316.293379 
L 258.908653 347.172139 
z
" clip-path="url(#p387e519bd7)" style="fill: #c9ddf0"/>
    <path d="M 179.503179 313.906151 
L 181.163359 311.414353 
L 160.788144 229.820207 
z
" clip-path="url(#p387e519bd7)" style="fill: #85bcdc"/>
    <path d="M 143.465072 315.414448 
L 159.608682 250.54907 
L 160.788144 229.820207 
z
" clip-path="url(#p387e519bd7)" style="fill: #539ecd"/>
    <path d="M 406.104986 355.130513 
L 399.843023 337.493528 
L 386.974082 349.497981 
z
" clip-path="url(#p387e519bd7)" style="fill: #f7fbff"/>
    <path d="M 173.457553 318.556159 
L 177.637894 314.759897 
L 157.801923 254.64072 
z
" clip-path="url(#p387e519bd7)" style="fill: #a1cbe2"/>
    <path d="M 151.989904 246.714765 
L 136.332467 325.433372 
L 151.457479 291.828424 
z
" clip-path="url(#p387e519bd7)" style="fill: #8abfdd"/>
    <path d="M 151.457479 291.828424 
L 170.442 319.372492 
L 172.292556 319.799261 
z
" clip-path="url(#p387e519bd7)" style="fill: #bfd8ed"/>
    <path d="M 438.047227 348.642508 
L 418.885367 343.050579 
L 406.104986 355.130513 
z
" clip-path="url(#p387e519bd7)" style="fill: #f7fbff"/>
    <path d="M 157.801923 254.64072 
L 137.621257 327.776782 
L 153.04748 241.079493 
z
" clip-path="url(#p387e519bd7)" style="fill: #63a8d3"/>
    <path d="M 160.788144 229.820207 
L 181.163359 311.414353 
L 164.715529 248.365495 
z
" clip-path="url(#p387e519bd7)" style="fill: #4695c8"/>
    <path d="M 169.327566 317.923145 
L 170.442 319.372492 
L 151.457479 291.828424 
z
" clip-path="url(#p387e519bd7)" style="fill: #bcd7eb"/>
    <path d="M 157.801923 254.64072 
L 179.503179 313.906151 
L 159.608682 250.54907 
z
" clip-path="url(#p387e519bd7)" style="fill: #5ca4d0"/>
    <path d="M 184.459167 309.154266 
L 181.163359 311.414353 
L 197.705744 227.982206 
z
" clip-path="url(#p387e519bd7)" style="fill: #75b4d8"/>
    <path d="M 296.567892 360.78229 
L 330.295416 332.810616 
L 277.70226 357.397483 
z
" clip-path="url(#p387e519bd7)" style="fill: #f6faff"/>
    <path d="M 150.253752 288.017326 
L 169.327566 317.923145 
L 151.457479 291.828424 
z
" clip-path="url(#p387e519bd7)" style="fill: #a0cbe2"/>
    <path d="M 239.767735 316.434465 
L 221.385857 315.383224 
L 221.219114 315.523669 
z
" clip-path="url(#p387e519bd7)" style="fill: #c6dbef"/>
    <path d="M 160.788144 229.820207 
L 159.608682 250.54907 
L 179.503179 313.906151 
z
" clip-path="url(#p387e519bd7)" style="fill: #4695c8"/>
    <path d="M 184.459167 309.154266 
L 200.47295 197.443078 
L 184.627645 309.015327 
z
" clip-path="url(#p387e519bd7)" style="fill: #58a1cf"/>
    <path d="M 179.503179 313.906151 
L 197.705744 227.982206 
L 181.163359 311.414353 
z
" clip-path="url(#p387e519bd7)" style="fill: #75b4d8"/>
    <path d="M 151.989904 246.714765 
L 172.292556 319.799261 
L 173.457553 318.556159 
z
" clip-path="url(#p387e519bd7)" style="fill: #92c4de"/>
    <path d="M 151.989904 246.714765 
L 153.04748 241.079493 
L 137.621257 327.776782 
z
" clip-path="url(#p387e519bd7)" style="fill: #56a0ce"/>
    <path d="M 334.672696 374.55347 
L 367.96293 343.900707 
L 349.092289 335.707778 
z
" clip-path="url(#p387e519bd7)" style="fill: #f5fafe"/>
    <path d="M 236.404846 309.740024 
L 221.219114 315.523669 
L 218.24513 334.465948 
z
" clip-path="url(#p387e519bd7)" style="fill: #caddf0"/>
    <path d="M 151.457479 291.828424 
L 172.292556 319.799261 
L 151.989904 246.714765 
z
" clip-path="url(#p387e519bd7)" style="fill: #74b3d8"/>
    <path d="M 200.644482 197.309653 
L 236.678423 194.244298 
L 184.627645 309.015327 
z
" clip-path="url(#p387e519bd7)" style="fill: #0e58a2"/>
    <path d="M 239.767735 316.434465 
L 239.933662 316.293379 
L 221.385857 315.383224 
z
" clip-path="url(#p387e519bd7)" style="fill: #c1d9ed"/>
    <path d="M 239.767735 316.434465 
L 258.744541 347.315455 
L 258.908653 347.172139 
z
" clip-path="url(#p387e519bd7)" style="fill: #dfebf7"/>
    <path d="M 195.8022 220.032084 
L 179.503179 313.906151 
L 177.637894 314.759897 
z
" clip-path="url(#p387e519bd7)" style="fill: #6caed6"/>
    <path d="M 218.24513 334.465948 
L 216.258722 317.400886 
L 236.404846 309.740024 
z
" clip-path="url(#p387e519bd7)" style="fill: #c8dcf0"/>
    <path d="M 258.744541 347.315455 
L 277.70226 357.397483 
L 258.908653 347.172139 
z
" clip-path="url(#p387e519bd7)" style="fill: #f2f7fd"/>
    <path d="M 406.104986 355.130513 
L 425.356778 360.798636 
L 438.047227 348.642508 
z
" clip-path="url(#p387e519bd7)" style="fill: #f7fbff"/>
    <path d="M 153.04748 241.079493 
L 173.457553 318.556159 
L 157.801923 254.64072 
z
" clip-path="url(#p387e519bd7)" style="fill: #4d99ca"/>
    <path d="M 258.908653 347.172139 
L 239.933662 316.293379 
L 239.767735 316.434465 
z
" clip-path="url(#p387e519bd7)" style="fill: #d0e1f2"/>
    <path d="M 277.539288 357.541944 
L 258.744541 347.315455 
L 255.530442 348.67017 
z
" clip-path="url(#p387e519bd7)" style="fill: #f1f7fd"/>
    <path d="M 386.974082 349.497981 
L 367.96293 343.900707 
L 334.672696 374.55347 
z
" clip-path="url(#p387e519bd7)" style="fill: #f7fbff"/>
    <path d="M 277.539288 357.541944 
L 277.70226 357.397483 
L 258.744541 347.315455 
z
" clip-path="url(#p387e519bd7)" style="fill: #f5f9fe"/>
    <path d="M 236.404846 309.740024 
L 239.767735 316.434465 
L 221.219114 315.523669 
z
" clip-path="url(#p387e519bd7)" style="fill: #b7d4ea"/>
    <path d="M 444.730607 366.50269 
L 457.32973 354.269644 
L 438.047227 348.642508 
z
" clip-path="url(#p387e519bd7)" style="fill: #f7fbff"/>
    <path d="M 218.24513 334.465948 
L 221.219114 315.523669 
L 197.705744 227.982206 
z
" clip-path="url(#p387e519bd7)" style="fill: #7fb9da"/>
    <path d="M 296.567892 360.78229 
L 315.566193 366.496118 
L 349.092289 335.707778 
z
" clip-path="url(#p387e519bd7)" style="fill: #f3f8fe"/>
    <path d="M 232.996105 318.351434 
L 216.258722 317.400886 
L 214.503889 323.204254 
z
" clip-path="url(#p387e519bd7)" style="fill: #c1d9ed"/>
    <path d="M 258.744541 347.315455 
L 239.767735 316.434465 
L 236.404846 309.740024 
z
" clip-path="url(#p387e519bd7)" style="fill: #caddf0"/>
    <path d="M 236.404846 309.740024 
L 255.530442 348.67017 
L 258.744541 347.315455 
z
" clip-path="url(#p387e519bd7)" style="fill: #d8e7f5"/>
    <path d="M 214.503889 323.204254 
L 210.461486 332.188384 
L 232.996105 318.351434 
z
" clip-path="url(#p387e519bd7)" style="fill: #c9ddf0"/>
    <path d="M 274.361655 360.358665 
L 277.539288 357.541944 
L 255.530442 348.67017 
z
" clip-path="url(#p387e519bd7)" style="fill: #f4f9fe"/>
    <path d="M 236.678423 194.244298 
L 200.644482 197.309653 
L 221.385857 315.383224 
z
" clip-path="url(#p387e519bd7)" style="fill: #0a549e"/>
    <path d="M 173.457553 318.556159 
L 153.04748 241.079493 
L 151.989904 246.714765 
z
" clip-path="url(#p387e519bd7)" style="fill: #4191c6"/>
    <path d="M 177.637894 314.759897 
L 173.457553 318.556159 
L 189.572943 220.181272 
z
" clip-path="url(#p387e519bd7)" style="fill: #66abd4"/>
    <path d="M 438.047227 348.642508 
L 425.356778 360.798636 
L 444.730607 366.50269 
z
" clip-path="url(#p387e519bd7)" style="fill: #f7fbff"/>
    <path d="M 197.705744 227.982206 
L 216.258722 317.400886 
L 218.24513 334.465948 
z
" clip-path="url(#p387e519bd7)" style="fill: #7cb7da"/>
    <path d="M 255.530442 348.67017 
L 253.871564 348.632562 
L 272.729689 361.805274 
z
" clip-path="url(#p387e519bd7)" style="fill: #eff6fc"/>
    <path d="M 253.871564 348.632562 
L 255.530442 348.67017 
L 236.404846 309.740024 
z
" clip-path="url(#p387e519bd7)" style="fill: #d6e6f4"/>
    <path d="M 272.729689 361.805274 
L 274.361655 360.358665 
L 255.530442 348.67017 
z
" clip-path="url(#p387e519bd7)" style="fill: #f4f9fe"/>
    <path d="M 296.405854 360.927547 
L 277.70226 357.397483 
L 277.539288 357.541944 
z
" clip-path="url(#p387e519bd7)" style="fill: #f6faff"/>
    <path d="M 236.404846 309.740024 
L 216.258722 317.400886 
L 234.833684 317.907771 
z
" clip-path="url(#p387e519bd7)" style="fill: #b2d2e8"/>
    <path d="M 234.833684 317.907771 
L 216.258722 317.400886 
L 232.996105 318.351434 
z
" clip-path="url(#p387e519bd7)" style="fill: #b8d5ea"/>
    <path d="M 476.734021 359.93232 
L 457.32973 354.269644 
L 444.730607 366.50269 
z
" clip-path="url(#p387e519bd7)" style="fill: #f7fbff"/>
    <path d="M 221.219114 315.523669 
L 221.385857 315.383224 
L 200.644482 197.309653 
z
" clip-path="url(#p387e519bd7)" style="fill: #4e9acb"/>
    <path d="M 296.405854 360.927547 
L 277.539288 357.541944 
L 274.361655 360.358665 
z
" clip-path="url(#p387e519bd7)" style="fill: #f6faff"/>
    <path d="M 252.066845 349.951098 
L 270.941184 363.390642 
L 253.871564 348.632562 
z
" clip-path="url(#p387e519bd7)" style="fill: #eef5fc"/>
    <path d="M 172.292556 319.799261 
L 188.26481 215.866087 
L 173.457553 318.556159 
z
" clip-path="url(#p387e519bd7)" style="fill: #61a7d2"/>
    <path d="M 253.871564 348.632562 
L 232.996105 318.351434 
L 252.066845 349.951098 
z
" clip-path="url(#p387e519bd7)" style="fill: #d9e7f5"/>
    <path d="M 234.833684 317.907771 
L 253.871564 348.632562 
L 236.404846 309.740024 
z
" clip-path="url(#p387e519bd7)" style="fill: #c6dbef"/>
    <path d="M 349.092289 335.707778 
L 315.566193 366.496118 
L 334.672696 374.55347 
z
" clip-path="url(#p387e519bd7)" style="fill: #f4f9fe"/>
    <path d="M 227.610819 316.234434 
L 210.461486 332.188384 
L 209.323339 334.249063 
z
" clip-path="url(#p387e519bd7)" style="fill: #c9ddf0"/>
    <path d="M 253.871564 348.632562 
L 270.941184 363.390642 
L 272.729689 361.805274 
z
" clip-path="url(#p387e519bd7)" style="fill: #f2f8fd"/>
    <path d="M 234.833684 317.907771 
L 232.996105 318.351434 
L 253.871564 348.632562 
z
" clip-path="url(#p387e519bd7)" style="fill: #caddf0"/>
    <path d="M 406.104986 355.130513 
L 386.974082 349.497981 
L 353.905444 380.345189 
z
" clip-path="url(#p387e519bd7)" style="fill: #f7fbff"/>
    <path d="M 296.567892 360.78229 
L 277.70226 357.397483 
L 296.405854 360.927547 
z
" clip-path="url(#p387e519bd7)" style="fill: #f5f9fe"/>
    <path d="M 232.996105 318.351434 
L 210.461486 332.188384 
L 228.913842 324.984481 
z
" clip-path="url(#p387e519bd7)" style="fill: #c3daee"/>
    <path d="M 247.984835 353.639276 
L 270.941184 363.390642 
L 252.066845 349.951098 
z
" clip-path="url(#p387e519bd7)" style="fill: #eef5fc"/>
    <path d="M 209.323339 334.249063 
L 207.159765 315.712453 
L 226.11952 336.084717 
z
" clip-path="url(#p387e519bd7)" style="fill: #c9ddf0"/>
    <path d="M 252.066845 349.951098 
L 232.996105 318.351434 
L 247.984835 353.639276 
z
" clip-path="url(#p387e519bd7)" style="fill: #d9e7f5"/>
    <path d="M 293.244568 363.037754 
L 274.361655 360.358665 
L 272.729689 361.805274 
z
" clip-path="url(#p387e519bd7)" style="fill: #f5fafe"/>
    <path d="M 274.361655 360.358665 
L 293.244568 363.037754 
L 296.405854 360.927547 
z
" clip-path="url(#p387e519bd7)" style="fill: #f4f9fe"/>
    <path d="M 214.503889 323.204254 
L 216.258722 317.400886 
L 193.838848 217.399471 
z
" clip-path="url(#p387e519bd7)" style="fill: #5ca4d0"/>
    <path d="M 228.913842 324.984481 
L 210.461486 332.188384 
L 227.610819 316.234434 
z
" clip-path="url(#p387e519bd7)" style="fill: #bdd7ec"/>
    <path d="M 226.11952 336.084717 
L 227.610819 316.234434 
L 209.323339 334.249063 
z
" clip-path="url(#p387e519bd7)" style="fill: #c7dbef"/>
    <path d="M 247.984835 353.639276 
L 232.996105 318.351434 
L 228.913842 324.984481 
z
" clip-path="url(#p387e519bd7)" style="fill: #cadef0"/>
    <path d="M 193.838848 217.399471 
L 210.461486 332.188384 
L 214.503889 323.204254 
z
" clip-path="url(#p387e519bd7)" style="fill: #66abd4"/>
    <path d="M 266.88859 366.982946 
L 270.941184 363.390642 
L 247.984835 353.639276 
z
" clip-path="url(#p387e519bd7)" style="fill: #f2f8fd"/>
    <path d="M 272.729689 361.805274 
L 270.941184 363.390642 
L 291.615984 362.498767 
z
" clip-path="url(#p387e519bd7)" style="fill: #f4f9fe"/>
    <path d="M 172.292556 319.799261 
L 170.442 319.372492 
L 185.970236 196.912263 
z
" clip-path="url(#p387e519bd7)" style="fill: #4b98ca"/>
    <path d="M 197.705744 227.982206 
L 200.47295 197.443078 
L 184.459167 309.154266 
z
" clip-path="url(#p387e519bd7)" style="fill: #0f5aa3"/>
    <path d="M 247.984835 353.639276 
L 246.891929 358.92846 
L 265.754513 367.988216 
z
" clip-path="url(#p387e519bd7)" style="fill: #f1f7fd"/>
    <path d="M 226.11952 336.084717 
L 245.090693 356.46925 
L 246.891929 358.92846 
z
" clip-path="url(#p387e519bd7)" style="fill: #e3eef8"/>
    <path d="M 195.8022 220.032084 
L 197.705744 227.982206 
L 179.503179 313.906151 
z
" clip-path="url(#p387e519bd7)" style="fill: #1b69af"/>
    <path d="M 296.405854 360.927547 
L 315.566193 366.496118 
L 296.567892 360.78229 
z
" clip-path="url(#p387e519bd7)" style="fill: #f3f8fe"/>
    <path d="M 246.891929 358.92846 
L 247.984835 353.639276 
L 227.610819 316.234434 
z
" clip-path="url(#p387e519bd7)" style="fill: #d7e6f5"/>
    <path d="M 272.729689 361.805274 
L 291.615984 362.498767 
L 293.244568 363.037754 
z
" clip-path="url(#p387e519bd7)" style="fill: #f2f8fd"/>
    <path d="M 185.970236 196.912263 
L 170.442 319.372492 
L 169.327566 317.923145 
z
" clip-path="url(#p387e519bd7)" style="fill: #4896c8"/>
    <path d="M 444.730607 366.50269 
L 464.227637 372.243017 
L 476.734021 359.93232 
z
" clip-path="url(#p387e519bd7)" style="fill: #f7fbff"/>
    <path d="M 226.11952 336.084717 
L 207.159765 315.712453 
L 206.039719 312.685072 
z
" clip-path="url(#p387e519bd7)" style="fill: #b2d2e8"/>
    <path d="M 247.984835 353.639276 
L 265.754513 367.988216 
L 266.88859 366.982946 
z
" clip-path="url(#p387e519bd7)" style="fill: #f2f8fd"/>
    <path d="M 246.891929 358.92846 
L 245.090693 356.46925 
L 264.012642 369.532247 
z
" clip-path="url(#p387e519bd7)" style="fill: #f1f7fd"/>
    <path d="M 244.055182 356.58986 
L 245.090693 356.46925 
L 226.11952 336.084717 
z
" clip-path="url(#p387e519bd7)" style="fill: #dfecf7"/>
    <path d="M 246.891929 358.92846 
L 227.610819 316.234434 
L 226.11952 336.084717 
z
" clip-path="url(#p387e519bd7)" style="fill: #cfe1f2"/>
    <path d="M 265.754513 367.988216 
L 246.891929 358.92846 
L 264.012642 369.532247 
z
" clip-path="url(#p387e519bd7)" style="fill: #f5fafe"/>
    <path d="M 225.047466 334.637484 
L 244.055182 356.58986 
L 226.11952 336.084717 
z
" clip-path="url(#p387e519bd7)" style="fill: #d6e5f4"/>
    <path d="M 206.039719 312.685072 
L 225.047466 334.637484 
L 226.11952 336.084717 
z
" clip-path="url(#p387e519bd7)" style="fill: #bed8ec"/>
    <path d="M 227.610819 316.234434 
L 247.984835 353.639276 
L 228.913842 324.984481 
z
" clip-path="url(#p387e519bd7)" style="fill: #c7dbef"/>
    <path d="M 200.47295 197.443078 
L 200.644482 197.309653 
L 184.627645 309.015327 
z
" clip-path="url(#p387e519bd7)" style="fill: #08458a"/>
    <path d="M 209.323339 334.249063 
L 210.461486 332.188384 
L 188.26481 215.866087 
z
" clip-path="url(#p387e519bd7)" style="fill: #68acd5"/>
    <path d="M 296.405854 360.927547 
L 315.405179 366.642298 
L 315.566193 366.496118 
z
" clip-path="url(#p387e519bd7)" style="fill: #f3f8fe"/>
    <path d="M 264.012642 369.532247 
L 245.090693 356.46925 
L 244.055182 356.58986 
z
" clip-path="url(#p387e519bd7)" style="fill: #eef5fc"/>
    <path d="M 483.849047 378.019964 
L 496.261256 365.630875 
L 476.734021 359.93232 
z
" clip-path="url(#p387e519bd7)" style="fill: #f7fbff"/>
    <path d="M 291.615984 362.498767 
L 270.941184 363.390642 
L 289.836194 363.922437 
z
" clip-path="url(#p387e519bd7)" style="fill: #f1f7fd"/>
    <path d="M 312.266524 368.769049 
L 296.405854 360.927547 
L 293.244568 363.037754 
z
" clip-path="url(#p387e519bd7)" style="fill: #f2f8fd"/>
    <path d="M 334.672696 374.55347 
L 353.905444 380.345189 
L 386.974082 349.497981 
z
" clip-path="url(#p387e519bd7)" style="fill: #f7fbff"/>
    <path d="M 270.941184 363.390642 
L 266.88859 366.982946 
L 285.804741 367.616857 
z
" clip-path="url(#p387e519bd7)" style="fill: #f4f9fe"/>
    <path d="M 177.637894 314.759897 
L 193.838848 217.399471 
L 195.8022 220.032084 
z
" clip-path="url(#p387e519bd7)" style="fill: #125ea6"/>
    <path d="M 315.405179 366.642298 
L 296.405854 360.927547 
L 312.266524 368.769049 
z
" clip-path="url(#p387e519bd7)" style="fill: #f2f8fd"/>
    <path d="M 264.012642 369.532247 
L 244.055182 356.58986 
L 262.994192 370.435022 
z
" clip-path="url(#p387e519bd7)" style="fill: #f2f8fd"/>
    <path d="M 221.219114 315.523669 
L 200.47295 197.443078 
L 197.705744 227.982206 
z
" clip-path="url(#p387e519bd7)" style="fill: #0d57a1"/>
    <path d="M 392.741865 392.040327 
L 425.356778 360.798636 
L 406.104986 355.130513 
z
" clip-path="url(#p387e519bd7)" style="fill: #f7fbff"/>
    <path d="M 285.804741 367.616857 
L 289.836194 363.922437 
L 270.941184 363.390642 
z
" clip-path="url(#p387e519bd7)" style="fill: #f1f7fd"/>
    <path d="M 312.266524 368.769049 
L 293.244568 363.037754 
L 291.615984 362.498767 
z
" clip-path="url(#p387e519bd7)" style="fill: #f1f7fd"/>
    <path d="M 266.88859 366.982946 
L 265.754513 367.988216 
L 284.683894 370.377911 
z
" clip-path="url(#p387e519bd7)" style="fill: #f5fafe"/>
    <path d="M 476.734021 359.93232 
L 464.227637 372.243017 
L 483.849047 378.019964 
z
" clip-path="url(#p387e519bd7)" style="fill: #f7fbff"/>
    <path d="M 195.8022 220.032084 
L 216.258722 317.400886 
L 197.705744 227.982206 
z
" clip-path="url(#p387e519bd7)" style="fill: #1663aa"/>
    <path d="M 264.012642 369.532247 
L 284.683894 370.377911 
L 265.754513 367.988216 
z
" clip-path="url(#p387e519bd7)" style="fill: #f5fafe"/>
    <path d="M 189.572943 220.181272 
L 193.838848 217.399471 
L 177.637894 314.759897 
z
" clip-path="url(#p387e519bd7)" style="fill: #105ba4"/>
    <path d="M 334.672696 374.55347 
L 315.566193 366.496118 
L 315.405179 366.642298 
z
" clip-path="url(#p387e519bd7)" style="fill: #f5f9fe"/>
    <path d="M 200.644482 197.309653 
L 200.47295 197.443078 
L 221.219114 315.523669 
z
" clip-path="url(#p387e519bd7)" style="fill: #084184"/>
    <path d="M 291.615984 362.498767 
L 289.836194 363.922437 
L 308.886327 372.269738 
z
" clip-path="url(#p387e519bd7)" style="fill: #eff6fc"/>
    <path d="M 312.266524 368.769049 
L 291.615984 362.498767 
L 310.653447 370.7501 
z
" clip-path="url(#p387e519bd7)" style="fill: #f1f7fd"/>
    <path d="M 285.804741 367.616857 
L 266.88859 366.982946 
L 284.683894 370.377911 
z
" clip-path="url(#p387e519bd7)" style="fill: #f2f8fd"/>
    <path d="M 334.512793 374.700704 
L 315.405179 366.642298 
L 312.266524 368.769049 
z
" clip-path="url(#p387e519bd7)" style="fill: #f4f9fe"/>
    <path d="M 193.838848 217.399471 
L 216.258722 317.400886 
L 195.8022 220.032084 
z
" clip-path="url(#p387e519bd7)" style="fill: #0e59a2"/>
    <path d="M 315.405179 366.642298 
L 334.512793 374.700704 
L 334.672696 374.55347 
z
" clip-path="url(#p387e519bd7)" style="fill: #f6faff"/>
    <path d="M 262.994192 370.435022 
L 281.915869 368.05069 
L 264.012642 369.532247 
z
" clip-path="url(#p387e519bd7)" style="fill: #f2f8fd"/>
    <path d="M 308.886327 372.269738 
L 310.653447 370.7501 
L 291.615984 362.498767 
z
" clip-path="url(#p387e519bd7)" style="fill: #f1f7fd"/>
    <path d="M 444.730607 366.50269 
L 425.356778 360.798636 
L 392.741865 392.040327 
z
" clip-path="url(#p387e519bd7)" style="fill: #f7fbff"/>
    <path d="M 503.596032 383.833883 
L 515.912608 371.36565 
L 496.261256 365.630875 
z
" clip-path="url(#p387e519bd7)" style="fill: #f7fbff"/>
    <path d="M 185.970236 196.912263 
L 207.159765 315.712453 
L 209.323339 334.249063 
z
" clip-path="url(#p387e519bd7)" style="fill: #4090c5"/>
    <path d="M 353.905444 380.345189 
L 373.261438 386.174022 
L 406.104986 355.130513 
z
" clip-path="url(#p387e519bd7)" style="fill: #f7fbff"/>
    <path d="M 282.933256 367.921824 
L 284.683894 370.377911 
L 264.012642 369.532247 
z
" clip-path="url(#p387e519bd7)" style="fill: #f1f7fd"/>
    <path d="M 173.457553 318.556159 
L 188.26481 215.866087 
L 189.572943 220.181272 
z
" clip-path="url(#p387e519bd7)" style="fill: #0d57a1"/>
    <path d="M 304.88196 375.947654 
L 289.836194 363.922437 
L 285.804741 367.616857 
z
" clip-path="url(#p387e519bd7)" style="fill: #eff6fc"/>
    <path d="M 312.266524 368.769049 
L 331.394948 377.571533 
L 334.512793 374.700704 
z
" clip-path="url(#p387e519bd7)" style="fill: #f5fafe"/>
    <path d="M 310.653447 370.7501 
L 329.793651 379.045964 
L 312.266524 368.769049 
z
" clip-path="url(#p387e519bd7)" style="fill: #f4f9fe"/>
    <path d="M 308.886327 372.269738 
L 289.836194 363.922437 
L 304.88196 375.947654 
z
" clip-path="url(#p387e519bd7)" style="fill: #f1f7fd"/>
    <path d="M 264.012642 369.532247 
L 281.915869 368.05069 
L 282.933256 367.921824 
z
" clip-path="url(#p387e519bd7)" style="fill: #eef5fc"/>
    <path d="M 189.572943 220.181272 
L 210.461486 332.188384 
L 193.838848 217.399471 
z
" clip-path="url(#p387e519bd7)" style="fill: #125da6"/>
    <path d="M 496.261256 365.630875 
L 483.849047 378.019964 
L 503.596032 383.833883 
z
" clip-path="url(#p387e519bd7)" style="fill: #f7fbff"/>
    <path d="M 284.683894 370.377911 
L 304.88196 375.947654 
L 285.804741 367.616857 
z
" clip-path="url(#p387e519bd7)" style="fill: #f1f7fd"/>
    <path d="M 329.793651 379.045964 
L 310.653447 370.7501 
L 308.886327 372.269738 
z
" clip-path="url(#p387e519bd7)" style="fill: #f4f9fe"/>
    <path d="M 329.793651 379.045964 
L 331.394948 377.571533 
L 312.266524 368.769049 
z
" clip-path="url(#p387e519bd7)" style="fill: #f5fafe"/>
    <path d="M 334.512793 374.700704 
L 353.905444 380.345189 
L 334.672696 374.55347 
z
" clip-path="url(#p387e519bd7)" style="fill: #f7fbff"/>
    <path d="M 206.039719 312.685072 
L 207.159765 315.712453 
L 185.970236 196.912263 
z
" clip-path="url(#p387e519bd7)" style="fill: #2d7dbb"/>
    <path d="M 535.689263 377.136993 
L 515.912608 371.36565 
L 503.596032 383.833883 
z
" clip-path="url(#p387e519bd7)" style="fill: #f7fbff"/>
    <path d="M 353.746598 380.493365 
L 334.512793 374.700704 
L 331.394948 377.571533 
z
" clip-path="url(#p387e519bd7)" style="fill: #f7fbff"/>
    <path d="M 406.104986 355.130513 
L 373.261438 386.174022 
L 392.741865 392.040327 
z
" clip-path="url(#p387e519bd7)" style="fill: #f7fbff"/>
    <path d="M 303.762634 379.524512 
L 304.88196 375.947654 
L 284.683894 370.377911 
z
" clip-path="url(#p387e519bd7)" style="fill: #f4f9fe"/>
    <path d="M 282.933256 367.921824 
L 302.042319 381.08833 
L 284.683894 370.377911 
z
" clip-path="url(#p387e519bd7)" style="fill: #f1f7fd"/>
    <path d="M 188.26481 215.866087 
L 210.461486 332.188384 
L 189.572943 220.181272 
z
" clip-path="url(#p387e519bd7)" style="fill: #0e59a2"/>
    <path d="M 308.886327 372.269738 
L 328.038729 380.66185 
L 329.793651 379.045964 
z
" clip-path="url(#p387e519bd7)" style="fill: #f5fafe"/>
    <path d="M 334.512793 374.700704 
L 353.746598 380.493365 
L 353.905444 380.345189 
z
" clip-path="url(#p387e519bd7)" style="fill: #f7fbff"/>
    <path d="M 284.683894 370.377911 
L 302.042319 381.08833 
L 303.762634 379.524512 
z
" clip-path="url(#p387e519bd7)" style="fill: #f5fafe"/>
    <path d="M 308.886327 372.269738 
L 304.88196 375.947654 
L 328.038729 380.66185 
z
" clip-path="url(#p387e519bd7)" style="fill: #f4f9fe"/>
    <path d="M 185.970236 196.912263 
L 188.26481 215.866087 
L 172.292556 319.799261 
z
" clip-path="url(#p387e519bd7)" style="fill: #084387"/>
    <path d="M 282.933256 367.921824 
L 281.915869 368.05069 
L 302.042319 381.08833 
z
" clip-path="url(#p387e519bd7)" style="fill: #eef5fc"/>
    <path d="M 331.394948 377.571533 
L 350.649322 383.382577 
L 353.746598 380.493365 
z
" clip-path="url(#p387e519bd7)" style="fill: #f7fbff"/>
    <path d="M 331.394948 377.571533 
L 329.793651 379.045964 
L 349.058577 384.866462 
z
" clip-path="url(#p387e519bd7)" style="fill: #f7fbff"/>
    <path d="M 302.042319 381.08833 
L 281.915869 368.05069 
L 301.036464 382.002683 
z
" clip-path="url(#p387e519bd7)" style="fill: #f2f8fd"/>
    <path d="M 432.080849 403.886806 
L 464.227637 372.243017 
L 444.730607 366.50269 
z
" clip-path="url(#p387e519bd7)" style="fill: #f7fbff"/>
    <path d="M 169.327566 317.923145 
L 185.304862 215.556908 
L 185.970236 196.912263 
z
" clip-path="url(#p387e519bd7)" style="fill: #083d7f"/>
    <path d="M 322.949281 385.348079 
L 304.88196 375.947654 
L 303.762634 379.524512 
z
" clip-path="url(#p387e519bd7)" style="fill: #f5fafe"/>
    <path d="M 328.038729 380.66185 
L 304.88196 375.947654 
L 324.062121 384.323405 
z
" clip-path="url(#p387e519bd7)" style="fill: #f5fafe"/>
    <path d="M 349.058577 384.866462 
L 350.649322 383.382577 
L 331.394948 377.571533 
z
" clip-path="url(#p387e519bd7)" style="fill: #f7fbff"/>
    <path d="M 303.762634 379.524512 
L 302.042319 381.08833 
L 322.949281 385.348079 
z
" clip-path="url(#p387e519bd7)" style="fill: #f7fbff"/>
    <path d="M 209.323339 334.249063 
L 188.26481 215.866087 
L 185.970236 196.912263 
z
" clip-path="url(#p387e519bd7)" style="fill: #08468b"/>
    <path d="M 329.793651 379.045964 
L 328.038729 380.66185 
L 347.31521 386.492716 
z
" clip-path="url(#p387e519bd7)" style="fill: #f7fbff"/>
    <path d="M 353.905444 380.345189 
L 353.746598 380.493365 
L 373.103664 386.323149 
z
" clip-path="url(#p387e519bd7)" style="fill: #f7fbff"/>
    <path d="M 324.062121 384.323405 
L 304.88196 375.947654 
L 322.949281 385.348079 
z
" clip-path="url(#p387e519bd7)" style="fill: #f5fafe"/>
    <path d="M 329.793651 379.045964 
L 347.31521 386.492716 
L 349.058577 384.866462 
z
" clip-path="url(#p387e519bd7)" style="fill: #f7fbff"/>
    <path d="M 503.596032 383.833883 
L 523.4698 389.685129 
L 535.689263 377.136993 
z
" clip-path="url(#p387e519bd7)" style="fill: #f7fbff"/>
    <path d="M 320.2406 387.84216 
L 302.042319 381.08833 
L 301.036464 382.002683 
z
" clip-path="url(#p387e519bd7)" style="fill: #f7fbff"/>
    <path d="M 373.103664 386.323149 
L 373.261438 386.174022 
L 353.905444 380.345189 
z
" clip-path="url(#p387e519bd7)" style="fill: #f7fbff"/>
    <path d="M 353.746598 380.493365 
L 350.649322 383.382577 
L 370.027286 389.230922 
z
" clip-path="url(#p387e519bd7)" style="fill: #f7fbff"/>
    <path d="M 322.949281 385.348079 
L 302.042319 381.08833 
L 321.240005 386.921934 
z
" clip-path="url(#p387e519bd7)" style="fill: #f7fbff"/>
    <path d="M 483.849047 378.019964 
L 464.227637 372.243017 
L 432.080849 403.886806 
z
" clip-path="url(#p387e519bd7)" style="fill: #f7fbff"/>
    <path d="M 324.062121 384.323405 
L 343.364749 390.1778 
L 328.038729 380.66185 
z
" clip-path="url(#p387e519bd7)" style="fill: #f7fbff"/>
    <path d="M 321.240005 386.921934 
L 302.042319 381.08833 
L 320.2406 387.84216 
z
" clip-path="url(#p387e519bd7)" style="fill: #f7fbff"/>
    <path d="M 370.027286 389.230922 
L 373.103664 386.323149 
L 353.746598 380.493365 
z
" clip-path="url(#p387e519bd7)" style="fill: #f7fbff"/>
    <path d="M 392.741865 392.040327 
L 412.347929 397.944466 
L 444.730607 366.50269 
z
" clip-path="url(#p387e519bd7)" style="fill: #f7fbff"/>
    <path d="M 343.364749 390.1778 
L 347.31521 386.492716 
L 328.038729 380.66185 
z
" clip-path="url(#p387e519bd7)" style="fill: #f7fbff"/>
    <path d="M 370.027286 389.230922 
L 350.649322 383.382577 
L 349.058577 384.866462 
z
" clip-path="url(#p387e519bd7)" style="fill: #f7fbff"/>
    <path d="M 322.949281 385.348079 
L 343.364749 390.1778 
L 324.062121 384.323405 
z
" clip-path="url(#p387e519bd7)" style="fill: #f7fbff"/>
    <path d="M 185.970236 196.912263 
L 185.304862 215.556908 
L 206.039719 312.685072 
z
" clip-path="url(#p387e519bd7)" style="fill: #08306b"/>
    <path d="M 349.058577 384.866462 
L 347.31521 386.492716 
L 368.447262 390.72435 
z
" clip-path="url(#p387e519bd7)" style="fill: #f7fbff"/>
    <path d="M 373.261438 386.174022 
L 373.103664 386.323149 
L 392.58518 392.190414 
z
" clip-path="url(#p387e519bd7)" style="fill: #f7fbff"/>
    <path d="M 349.058577 384.866462 
L 368.447262 390.72435 
L 370.027286 389.230922 
z
" clip-path="url(#p387e519bd7)" style="fill: #f7fbff"/>
    <path d="M 322.949281 385.348079 
L 321.240005 386.921934 
L 340.561158 392.793056 
z
" clip-path="url(#p387e519bd7)" style="fill: #f7fbff"/>
    <path d="M 322.949281 385.348079 
L 342.259217 391.209066 
L 343.364749 390.1778 
z
" clip-path="url(#p387e519bd7)" style="fill: #f7fbff"/>
    <path d="M 340.561158 392.793056 
L 321.240005 386.921934 
L 320.2406 387.84216 
z
" clip-path="url(#p387e519bd7)" style="fill: #f7fbff"/>
    <path d="M 370.027286 389.230922 
L 392.58518 392.190414 
L 373.103664 386.323149 
z
" clip-path="url(#p387e519bd7)" style="fill: #f7fbff"/>
    <path d="M 444.730607 366.50269 
L 412.347929 397.944466 
L 432.080849 403.886806 
z
" clip-path="url(#p387e519bd7)" style="fill: #f7fbff"/>
    <path d="M 366.715635 392.361073 
L 347.31521 386.492716 
L 343.364749 390.1778 
z
" clip-path="url(#p387e519bd7)" style="fill: #f7fbff"/>
    <path d="M 340.561158 392.793056 
L 342.259217 391.209066 
L 322.949281 385.348079 
z
" clip-path="url(#p387e519bd7)" style="fill: #f7fbff"/>
    <path d="M 347.31521 386.492716 
L 366.715635 392.361073 
L 368.447262 390.72435 
z
" clip-path="url(#p387e519bd7)" style="fill: #f7fbff"/>
    <path d="M 392.741865 392.040327 
L 373.261438 386.174022 
L 392.58518 392.190414 
z
" clip-path="url(#p387e519bd7)" style="fill: #f7fbff"/>
    <path d="M 503.596032 383.833883 
L 483.849047 378.019964 
L 451.941861 409.86772 
z
" clip-path="url(#p387e519bd7)" style="fill: #f7fbff"/>
    <path d="M 320.2406 387.84216 
L 339.568307 393.71921 
L 340.561158 392.793056 
z
" clip-path="url(#p387e519bd7)" style="fill: #f7fbff"/>
    <path d="M 370.027286 389.230922 
L 389.530034 395.116927 
L 392.58518 392.190414 
z
" clip-path="url(#p387e519bd7)" style="fill: #f7fbff"/>
    <path d="M 370.027286 389.230922 
L 368.447262 390.72435 
L 387.960902 396.619991 
z
" clip-path="url(#p387e519bd7)" style="fill: #f7fbff"/>
    <path d="M 343.364749 390.1778 
L 342.259217 391.209066 
L 361.693633 397.107837 
z
" clip-path="url(#p387e519bd7)" style="fill: #f7fbff"/>
    <path d="M 366.715635 392.361073 
L 343.364749 390.1778 
L 362.79174 396.069913 
z
" clip-path="url(#p387e519bd7)" style="fill: #f7fbff"/>
    <path d="M 387.960902 396.619991 
L 389.530034 395.116927 
L 370.027286 389.230922 
z
" clip-path="url(#p387e519bd7)" style="fill: #f7fbff"/>
    <path d="M 361.693633 397.107837 
L 342.259217 391.209066 
L 340.561158 392.793056 
z
" clip-path="url(#p387e519bd7)" style="fill: #f7fbff"/>
    <path d="M 368.447262 390.72435 
L 366.715635 392.361073 
L 386.241203 398.267284 
z
" clip-path="url(#p387e519bd7)" style="fill: #f7fbff"/>
    <path d="M 392.58518 392.190414 
L 412.347929 397.944466 
L 392.741865 392.040327 
z
" clip-path="url(#p387e519bd7)" style="fill: #f7fbff"/>
    <path d="M 362.79174 396.069913 
L 343.364749 390.1778 
L 361.693633 397.107837 
z
" clip-path="url(#p387e519bd7)" style="fill: #f7fbff"/>
    <path d="M 339.568307 393.71921 
L 360.006972 398.702058 
L 340.561158 392.793056 
z
" clip-path="url(#p387e519bd7)" style="fill: #f7fbff"/>
    <path d="M 386.241203 398.267284 
L 387.960902 396.619991 
L 368.447262 390.72435 
z
" clip-path="url(#p387e519bd7)" style="fill: #f7fbff"/>
    <path d="M 392.58518 392.190414 
L 412.192351 398.095523 
L 412.347929 397.944466 
z
" clip-path="url(#p387e519bd7)" style="fill: #f7fbff"/>
    <path d="M 392.58518 392.190414 
L 389.530034 395.116927 
L 409.158775 401.040956 
z
" clip-path="url(#p387e519bd7)" style="fill: #f7fbff"/>
    <path d="M 340.561158 392.793056 
L 360.006972 398.702058 
L 361.693633 397.107837 
z
" clip-path="url(#p387e519bd7)" style="fill: #f7fbff"/>
    <path d="M 382.3443 402.000111 
L 366.715635 392.361073 
L 362.79174 396.069913 
z
" clip-path="url(#p387e519bd7)" style="fill: #f7fbff"/>
    <path d="M 412.192351 398.095523 
L 392.58518 392.190414 
L 409.158775 401.040956 
z
" clip-path="url(#p387e519bd7)" style="fill: #f7fbff"/>
    <path d="M 432.080849 403.886806 
L 451.941861 409.86772 
L 483.849047 378.019964 
z
" clip-path="url(#p387e519bd7)" style="fill: #f7fbff"/>
    <path d="M 339.568307 393.71921 
L 359.02078 399.6342 
L 360.006972 398.702058 
z
" clip-path="url(#p387e519bd7)" style="fill: #f7fbff"/>
    <path d="M 386.241203 398.267284 
L 366.715635 392.361073 
L 382.3443 402.000111 
z
" clip-path="url(#p387e519bd7)" style="fill: #f7fbff"/>
    <path d="M 409.158775 401.040956 
L 389.530034 395.116927 
L 387.960902 396.619991 
z
" clip-path="url(#p387e519bd7)" style="fill: #f7fbff"/>
    <path d="M 492.053181 421.946779 
L 523.4698 389.685129 
L 503.596032 383.833883 
z
" clip-path="url(#p387e519bd7)" style="fill: #f7fbff"/>
    <path d="M 362.79174 396.069913 
L 361.693633 397.107837 
L 381.253738 403.044756 
z
" clip-path="url(#p387e519bd7)" style="fill: #f7fbff"/>
    <path d="M 407.60071 402.553751 
L 387.960902 396.619991 
L 386.241203 398.267284 
z
" clip-path="url(#p387e519bd7)" style="fill: #f7fbff"/>
    <path d="M 381.253738 403.044756 
L 361.693633 397.107837 
L 360.006972 398.702058 
z
" clip-path="url(#p387e519bd7)" style="fill: #f7fbff"/>
    <path d="M 412.347929 397.944466 
L 412.192351 398.095523 
L 431.926396 404.038842 
z
" clip-path="url(#p387e519bd7)" style="fill: #f7fbff"/>
    <path d="M 387.960902 396.619991 
L 407.60071 402.553751 
L 409.158775 401.040956 
z
" clip-path="url(#p387e519bd7)" style="fill: #f7fbff"/>
    <path d="M 381.253738 403.044756 
L 382.3443 402.000111 
L 362.79174 396.069913 
z
" clip-path="url(#p387e519bd7)" style="fill: #f7fbff"/>
    <path d="M 409.158775 401.040956 
L 431.926396 404.038842 
L 412.192351 398.095523 
z
" clip-path="url(#p387e519bd7)" style="fill: #f7fbff"/>
    <path d="M 360.006972 398.702058 
L 359.02078 399.6342 
L 378.599233 405.587496 
z
" clip-path="url(#p387e519bd7)" style="fill: #f7fbff"/>
    <path d="M 386.241203 398.267284 
L 382.3443 402.000111 
L 405.893129 404.211717 
z
" clip-path="url(#p387e519bd7)" style="fill: #f7fbff"/>
    <path d="M 386.241203 398.267284 
L 405.893129 404.211717 
L 407.60071 402.553751 
z
" clip-path="url(#p387e519bd7)" style="fill: #f7fbff"/>
    <path d="M 432.080849 403.886806 
L 412.347929 397.944466 
L 431.926396 404.038842 
z
" clip-path="url(#p387e519bd7)" style="fill: #f7fbff"/>
    <path d="M 360.006972 398.702058 
L 379.578657 404.649309 
L 381.253738 403.044756 
z
" clip-path="url(#p387e519bd7)" style="fill: #f7fbff"/>
    <path d="M 378.599233 405.587496 
L 379.578657 404.649309 
L 360.006972 398.702058 
z
" clip-path="url(#p387e519bd7)" style="fill: #f7fbff"/>
    <path d="M 451.941861 409.86772 
L 471.932216 415.887583 
L 503.596032 383.833883 
z
" clip-path="url(#p387e519bd7)" style="fill: #f7fbff"/>
    <path d="M 409.158775 401.040956 
L 428.914734 407.003381 
L 431.926396 404.038842 
z
" clip-path="url(#p387e519bd7)" style="fill: #f7fbff"/>
    <path d="M 409.158775 401.040956 
L 407.60071 402.553751 
L 427.367911 408.526 
z
" clip-path="url(#p387e519bd7)" style="fill: #f7fbff"/>
    <path d="M 402.023651 407.968764 
L 382.3443 402.000111 
L 381.253738 403.044756 
z
" clip-path="url(#p387e519bd7)" style="fill: #f7fbff"/>
    <path d="M 405.893129 404.211717 
L 382.3443 402.000111 
L 402.023651 407.968764 
z
" clip-path="url(#p387e519bd7)" style="fill: #f7fbff"/>
    <path d="M 427.367911 408.526 
L 428.914734 407.003381 
L 409.158775 401.040956 
z
" clip-path="url(#p387e519bd7)" style="fill: #f7fbff"/>
    <path d="M 407.60071 402.553751 
L 405.893129 404.211717 
L 425.672643 410.194743 
z
" clip-path="url(#p387e519bd7)" style="fill: #f7fbff"/>
    <path d="M 432.080849 403.886806 
L 431.926396 404.038842 
L 451.788551 410.020744 
z
" clip-path="url(#p387e519bd7)" style="fill: #f7fbff"/>
    <path d="M 381.253738 403.044756 
L 379.578657 404.649309 
L 399.27744 410.635181 
z
" clip-path="url(#p387e519bd7)" style="fill: #f7fbff"/>
    <path d="M 400.940754 409.020196 
L 402.023651 407.968764 
L 381.253738 403.044756 
z
" clip-path="url(#p387e519bd7)" style="fill: #f7fbff"/>
    <path d="M 399.27744 410.635181 
L 379.578657 404.649309 
L 378.599233 405.587496 
z
" clip-path="url(#p387e519bd7)" style="fill: #f7fbff"/>
    <path d="M 425.672643 410.194743 
L 427.367911 408.526 
L 407.60071 402.553751 
z
" clip-path="url(#p387e519bd7)" style="fill: #f7fbff"/>
    <path d="M 503.596032 383.833883 
L 471.932216 415.887583 
L 492.053181 421.946779 
z
" clip-path="url(#p387e519bd7)" style="fill: #f7fbff"/>
    <path d="M 399.27744 410.635181 
L 400.940754 409.020196 
L 381.253738 403.044756 
z
" clip-path="url(#p387e519bd7)" style="fill: #f7fbff"/>
    <path d="M 451.788551 410.020744 
L 451.941861 409.86772 
L 432.080849 403.886806 
z
" clip-path="url(#p387e519bd7)" style="fill: #f7fbff"/>
    <path d="M 431.926396 404.038842 
L 428.914734 407.003381 
L 448.799151 413.004575 
z
" clip-path="url(#p387e519bd7)" style="fill: #f7fbff"/>
    <path d="M 405.893129 404.211717 
L 402.023651 407.968764 
L 421.831029 413.976247 
z
" clip-path="url(#p387e519bd7)" style="fill: #f7fbff"/>
    <path d="M 448.799151 413.004575 
L 451.788551 410.020744 
L 431.926396 404.038842 
z
" clip-path="url(#p387e519bd7)" style="fill: #f7fbff"/>
    <path d="M 378.599233 405.587496 
L 398.304892 411.579472 
L 399.27744 410.635181 
z
" clip-path="url(#p387e519bd7)" style="fill: #f7fbff"/>
    <path d="M 421.831029 413.976247 
L 425.672643 410.194743 
L 405.893129 404.211717 
z
" clip-path="url(#p387e519bd7)" style="fill: #f7fbff"/>
    <path d="M 448.799151 413.004575 
L 428.914734 407.003381 
L 427.367911 408.526 
z
" clip-path="url(#p387e519bd7)" style="fill: #f7fbff"/>
    <path d="M 420.755921 415.034533 
L 402.023651 407.968764 
L 400.940754 409.020196 
z
" clip-path="url(#p387e519bd7)" style="fill: #f7fbff"/>
    <path d="M 420.755921 415.034533 
L 400.940754 409.020196 
L 399.27744 410.635181 
z
" clip-path="url(#p387e519bd7)" style="fill: #f7fbff"/>
    <path d="M 445.580992 416.21674 
L 427.367911 408.526 
L 425.672643 410.194743 
z
" clip-path="url(#p387e519bd7)" style="fill: #f7fbff"/>
    <path d="M 451.941861 409.86772 
L 451.788551 410.020744 
L 471.780066 416.041606 
z
" clip-path="url(#p387e519bd7)" style="fill: #f7fbff"/>
    <path d="M 427.367911 408.526 
L 447.263752 414.537115 
L 448.799151 413.004575 
z
" clip-path="url(#p387e519bd7)" style="fill: #f7fbff"/>
    <path d="M 421.831029 413.976247 
L 402.023651 407.968764 
L 420.755921 415.034533 
z
" clip-path="url(#p387e519bd7)" style="fill: #f7fbff"/>
    <path d="M 399.27744 410.635181 
L 398.304892 411.579472 
L 419.104563 416.660052 
z
" clip-path="url(#p387e519bd7)" style="fill: #f7fbff"/>
    <path d="M 445.580992 416.21674 
L 447.263752 414.537115 
L 427.367911 408.526 
z
" clip-path="url(#p387e519bd7)" style="fill: #f7fbff"/>
    <path d="M 445.580992 416.21674 
L 425.672643 410.194743 
L 421.831029 413.976247 
z
" clip-path="url(#p387e519bd7)" style="fill: #f7fbff"/>
    <path d="M 471.780066 416.041606 
L 471.932216 415.887583 
L 451.941861 409.86772 
z
" clip-path="url(#p387e519bd7)" style="fill: #f7fbff"/>
    <path d="M 451.788551 410.020744 
L 448.799151 413.004575 
L 468.813285 419.044918 
z
" clip-path="url(#p387e519bd7)" style="fill: #f7fbff"/>
    <path d="M 399.27744 410.635181 
L 419.104563 416.660052 
L 420.755921 415.034533 
z
" clip-path="url(#p387e519bd7)" style="fill: #f7fbff"/>
    <path d="M 468.813285 419.044918 
L 471.780066 416.041606 
L 451.788551 410.020744 
z
" clip-path="url(#p387e519bd7)" style="fill: #f7fbff"/>
    <path d="M 398.304892 411.579472 
L 418.139001 417.610507 
L 419.104563 416.660052 
z
" clip-path="url(#p387e519bd7)" style="fill: #f7fbff"/>
    <path d="M 468.813285 419.044918 
L 448.799151 413.004575 
L 447.263752 414.537115 
z
" clip-path="url(#p387e519bd7)" style="fill: #f7fbff"/>
    <path d="M 420.755921 415.034533 
L 441.767689 420.022941 
L 421.831029 413.976247 
z
" clip-path="url(#p387e519bd7)" style="fill: #f7fbff"/>
    <path d="M 421.831029 413.976247 
L 441.767689 420.022941 
L 445.580992 416.21674 
z
" clip-path="url(#p387e519bd7)" style="fill: #f7fbff"/>
    <path d="M 445.580992 416.21674 
L 467.28949 420.587476 
L 447.263752 414.537115 
z
" clip-path="url(#p387e519bd7)" style="fill: #f7fbff"/>
    <path d="M 492.053181 421.946779 
L 471.932216 415.887583 
L 471.780066 416.041606 
z
" clip-path="url(#p387e519bd7)" style="fill: #f7fbff"/>
    <path d="M 447.263752 414.537115 
L 467.28949 420.587476 
L 468.813285 419.044918 
z
" clip-path="url(#p387e519bd7)" style="fill: #f7fbff"/>
    <path d="M 420.755921 415.034533 
L 419.104563 416.660052 
L 439.061284 422.724304 
z
" clip-path="url(#p387e519bd7)" style="fill: #f7fbff"/>
    <path d="M 420.755921 415.034533 
L 440.700495 421.088147 
L 441.767689 420.022941 
z
" clip-path="url(#p387e519bd7)" style="fill: #f7fbff"/>
    <path d="M 491.902211 422.10181 
L 471.780066 416.041606 
L 468.813285 419.044918 
z
" clip-path="url(#p387e519bd7)" style="fill: #f7fbff"/>
    <path d="M 419.104563 416.660052 
L 418.139001 417.610507 
L 438.102821 423.680983 
z
" clip-path="url(#p387e519bd7)" style="fill: #f7fbff"/>
    <path d="M 420.755921 415.034533 
L 439.061284 422.724304 
L 440.700495 421.088147 
z
" clip-path="url(#p387e519bd7)" style="fill: #f7fbff"/>
    <path d="M 465.61944 422.27809 
L 467.28949 420.587476 
L 445.580992 416.21674 
z
" clip-path="url(#p387e519bd7)" style="fill: #f7fbff"/>
    <path d="M 471.780066 416.041606 
L 491.902211 422.10181 
L 492.053181 421.946779 
z
" clip-path="url(#p387e519bd7)" style="fill: #f7fbff"/>
    <path d="M 441.767689 420.022941 
L 461.8349 426.10923 
L 445.580992 416.21674 
z
" clip-path="url(#p387e519bd7)" style="fill: #f7fbff"/>
    <path d="M 438.102821 423.680983 
L 439.061284 422.724304 
L 419.104563 416.660052 
z
" clip-path="url(#p387e519bd7)" style="fill: #f7fbff"/>
    <path d="M 445.580992 416.21674 
L 461.8349 426.10923 
L 465.61944 422.27809 
z
" clip-path="url(#p387e519bd7)" style="fill: #f7fbff"/>
    <path d="M 488.958408 425.124794 
L 491.902211 422.10181 
L 468.813285 419.044918 
z
" clip-path="url(#p387e519bd7)" style="fill: #f7fbff"/>
    <path d="M 468.813285 419.044918 
L 467.28949 420.587476 
L 487.446403 426.677468 
z
" clip-path="url(#p387e519bd7)" style="fill: #f7fbff"/>
    <path d="M 441.767689 420.022941 
L 440.700495 421.088147 
L 460.775746 427.181425 
z
" clip-path="url(#p387e519bd7)" style="fill: #f7fbff"/>
    <path d="M 468.813285 419.044918 
L 487.446403 426.677468 
L 488.958408 425.124794 
z
" clip-path="url(#p387e519bd7)" style="fill: #f7fbff"/>
    <path d="M 467.28949 420.587476 
L 465.61944 422.27809 
L 485.789264 428.379179 
z
" clip-path="url(#p387e519bd7)" style="fill: #f7fbff"/>
    <path d="M 440.700495 421.088147 
L 439.061284 422.724304 
L 459.148879 428.828324 
z
" clip-path="url(#p387e519bd7)" style="fill: #f7fbff"/>
    <path d="M 460.775746 427.181425 
L 461.8349 426.10923 
L 441.767689 420.022941 
z
" clip-path="url(#p387e519bd7)" style="fill: #f7fbff"/>
    <path d="M 459.148879 428.828324 
L 439.061284 422.724304 
L 438.102821 423.680983 
z
" clip-path="url(#p387e519bd7)" style="fill: #f7fbff"/>
    <path d="M 485.789264 428.379179 
L 487.446403 426.677468 
L 467.28949 420.587476 
z
" clip-path="url(#p387e519bd7)" style="fill: #f7fbff"/>
    <path d="M 485.789264 428.379179 
L 465.61944 422.27809 
L 461.8349 426.10923 
z
" clip-path="url(#p387e519bd7)" style="fill: #f7fbff"/>
    <path d="M 459.148879 428.828324 
L 460.775746 427.181425 
L 440.700495 421.088147 
z
" clip-path="url(#p387e519bd7)" style="fill: #f7fbff"/>
    <path d="M 438.102821 423.680983 
L 458.197627 429.791289 
L 459.148879 428.828324 
z
" clip-path="url(#p387e519bd7)" style="fill: #f7fbff"/>
    <path d="M 482.033948 432.235505 
L 461.8349 426.10923 
L 460.775746 427.181425 
z
" clip-path="url(#p387e519bd7)" style="fill: #f7fbff"/>
    <path d="M 461.8349 426.10923 
L 482.033948 432.235505 
L 485.789264 428.379179 
z
" clip-path="url(#p387e519bd7)" style="fill: #f7fbff"/>
    <path d="M 480.982964 433.314757 
L 460.775746 427.181425 
L 459.148879 428.828324 
z
" clip-path="url(#p387e519bd7)" style="fill: #f7fbff"/>
    <path d="M 460.775746 427.181425 
L 480.982964 433.314757 
L 482.033948 432.235505 
z
" clip-path="url(#p387e519bd7)" style="fill: #f7fbff"/>
    <path d="M 459.148879 428.828324 
L 458.197627 429.791289 
L 478.424715 435.941818 
z
" clip-path="url(#p387e519bd7)" style="fill: #f7fbff"/>
    <path d="M 459.148879 428.828324 
L 479.368638 434.972506 
L 480.982964 433.314757 
z
" clip-path="url(#p387e519bd7)" style="fill: #f7fbff"/>
    <path d="M 478.424715 435.941818 
L 479.368638 434.972506 
L 459.148879 428.828324 
z
" clip-path="url(#p387e519bd7)" style="fill: #f7fbff"/>
   </g>
  </g>
 </g>
 <defs>
  <clipPath id="p387e519bd7">
   <rect x="21.6" y="21.6" width="554.4" height="554.4"/>
  </clipPath>
 </defs>
</svg>
