<?xml version="1.0" encoding="utf-8" standalone="no"?>
<!DOCTYPE svg PUBLIC "-//W3C//DTD SVG 1.1//EN"
  "http://www.w3.org/Graphics/SVG/1.1/DTD/svg11.dtd">
<svg xmlns:xlink="http://www.w3.org/1999/xlink" width="584.800476pt" height="583.2pt" viewBox="0 0 584.800476 583.2" xmlns="http://www.w3.org/2000/svg" version="1.1">
 <metadata>
  <rdf:RDF xmlns:dc="http://purl.org/dc/elements/1.1/" xmlns:cc="http://creativecommons.org/ns#" xmlns:rdf="http://www.w3.org/1999/02/22-rdf-syntax-ns#">
   <cc:Work>
    <dc:type rdf:resource="http://purl.org/dc/dcmitype/StillImage"/>
    <dc:date/>
    <dc:format>image/svg+xml</dc:format>
    <dc:creator>
     <cc:Agent>
      <dc:title>Matplotlib v3.6.2, https://matplotlib.org/</dc:title>
     </cc:Agent>
    </dc:creator>
   </cc:Work>
  </rdf:RDF>
 </metadata>
 <defs>
  <style type="text/css">*{stroke-linejoin: round; stroke-linecap: butt}</style>
 </defs>
 <g id="figure_1">
  <g id="patch_1">
   <path d="M 0 583.2 
L 584.800476 583.2 
L 584.800476 0 
L 0 0 
z
" style="fill: #ffffff"/>
  </g>
  <g id="patch_2">
   <path d="M 14.4 568.8 
L 568.8 568.8 
L 568.8 14.4 
L 14.4 14.4 
z
" style="fill: #ffffff"/>
  </g>
  <g id="pane3d_1">
   <g id="patch_3">
    <path d="M 56.261023 432.102727 
L 239.342009 278.640614 
L 236.797008 57.320814 
L 44.954653 197.318627 
" style="fill: #f2f2f2; opacity: 0.5; stroke: #f2f2f2; stroke-linejoin: miter"/>
   </g>
  </g>
  <g id="pane3d_2">
   <g id="patch_4">
    <path d="M 239.342009 278.640614 
L 533.121668 364.030763 
L 543.605628 135.087856 
L 236.797008 57.320814 
" style="fill: #e6e6e6; opacity: 0.5; stroke: #e6e6e6; stroke-linejoin: miter"/>
   </g>
  </g>
  <g id="pane3d_3">
   <g id="patch_5">
    <path d="M 56.261023 432.102727 
L 367.68181 533.812756 
L 533.121668 364.030763 
L 239.342009 278.640614 
" style="fill: #ececec; opacity: 0.5; stroke: #ececec; stroke-linejoin: miter"/>
   </g>
  </g>
  <g id="axis3d_1">
   <g id="line2d_1">
    <path d="M 56.261023 432.102727 
L 367.68181 533.812756 
" style="fill: none; stroke: #000000; stroke-width: 0.8; stroke-linecap: square"/>
   </g>
   <g id="text_1">
    <!-- Python version -->
    <g transform="translate(155.394605 507.800845) rotate(-341.912962) scale(0.1 -0.1)">
     <defs>
      <path id="DejaVuSans-50" d="M 1259 4147 
L 1259 2394 
L 2053 2394 
Q 2494 2394 2734 2622 
Q 2975 2850 2975 3272 
Q 2975 3691 2734 3919 
Q 2494 4147 2053 4147 
L 1259 4147 
z
M 628 4666 
L 2053 4666 
Q 2838 4666 3239 4311 
Q 3641 3956 3641 3272 
Q 3641 2581 3239 2228 
Q 2838 1875 2053 1875 
L 1259 1875 
L 1259 0 
L 628 0 
L 628 4666 
z
" transform="scale(0.015625)"/>
      <path id="DejaVuSans-79" d="M 2059 -325 
Q 1816 -950 1584 -1140 
Q 1353 -1331 966 -1331 
L 506 -1331 
L 506 -850 
L 844 -850 
Q 1081 -850 1212 -737 
Q 1344 -625 1503 -206 
L 1606 56 
L 191 3500 
L 800 3500 
L 1894 763 
L 2988 3500 
L 3597 3500 
L 2059 -325 
z
" transform="scale(0.015625)"/>
      <path id="DejaVuSans-74" d="M 1172 4494 
L 1172 3500 
L 2356 3500 
L 2356 3053 
L 1172 3053 
L 1172 1153 
Q 1172 725 1289 603 
Q 1406 481 1766 481 
L 2356 481 
L 2356 0 
L 1766 0 
Q 1100 0 847 248 
Q 594 497 594 1153 
L 594 3053 
L 172 3053 
L 172 3500 
L 594 3500 
L 594 4494 
L 1172 4494 
z
" transform="scale(0.015625)"/>
      <path id="DejaVuSans-68" d="M 3513 2113 
L 3513 0 
L 2938 0 
L 2938 2094 
Q 2938 2591 2744 2837 
Q 2550 3084 2163 3084 
Q 1697 3084 1428 2787 
Q 1159 2491 1159 1978 
L 1159 0 
L 581 0 
L 581 4863 
L 1159 4863 
L 1159 2956 
Q 1366 3272 1645 3428 
Q 1925 3584 2291 3584 
Q 2894 3584 3203 3211 
Q 3513 2838 3513 2113 
z
" transform="scale(0.015625)"/>
      <path id="DejaVuSans-6f" d="M 1959 3097 
Q 1497 3097 1228 2736 
Q 959 2375 959 1747 
Q 959 1119 1226 758 
Q 1494 397 1959 397 
Q 2419 397 2687 759 
Q 2956 1122 2956 1747 
Q 2956 2369 2687 2733 
Q 2419 3097 1959 3097 
z
M 1959 3584 
Q 2709 3584 3137 3096 
Q 3566 2609 3566 1747 
Q 3566 888 3137 398 
Q 2709 -91 1959 -91 
Q 1206 -91 779 398 
Q 353 888 353 1747 
Q 353 2609 779 3096 
Q 1206 3584 1959 3584 
z
" transform="scale(0.015625)"/>
      <path id="DejaVuSans-6e" d="M 3513 2113 
L 3513 0 
L 2938 0 
L 2938 2094 
Q 2938 2591 2744 2837 
Q 2550 3084 2163 3084 
Q 1697 3084 1428 2787 
Q 1159 2491 1159 1978 
L 1159 0 
L 581 0 
L 581 3500 
L 1159 3500 
L 1159 2956 
Q 1366 3272 1645 3428 
Q 1925 3584 2291 3584 
Q 2894 3584 3203 3211 
Q 3513 2838 3513 2113 
z
" transform="scale(0.015625)"/>
      <path id="DejaVuSans-20" transform="scale(0.015625)"/>
      <path id="DejaVuSans-76" d="M 191 3500 
L 800 3500 
L 1894 563 
L 2988 3500 
L 3597 3500 
L 2284 0 
L 1503 0 
L 191 3500 
z
" transform="scale(0.015625)"/>
      <path id="DejaVuSans-65" d="M 3597 1894 
L 3597 1613 
L 953 1613 
Q 991 1019 1311 708 
Q 1631 397 2203 397 
Q 2534 397 2845 478 
Q 3156 559 3463 722 
L 3463 178 
Q 3153 47 2828 -22 
Q 2503 -91 2169 -91 
Q 1331 -91 842 396 
Q 353 884 353 1716 
Q 353 2575 817 3079 
Q 1281 3584 2069 3584 
Q 2775 3584 3186 3129 
Q 3597 2675 3597 1894 
z
M 3022 2063 
Q 3016 2534 2758 2815 
Q 2500 3097 2075 3097 
Q 1594 3097 1305 2825 
Q 1016 2553 972 2059 
L 3022 2063 
z
" transform="scale(0.015625)"/>
      <path id="DejaVuSans-72" d="M 2631 2963 
Q 2534 3019 2420 3045 
Q 2306 3072 2169 3072 
Q 1681 3072 1420 2755 
Q 1159 2438 1159 1844 
L 1159 0 
L 581 0 
L 581 3500 
L 1159 3500 
L 1159 2956 
Q 1341 3275 1631 3429 
Q 1922 3584 2338 3584 
Q 2397 3584 2469 3576 
Q 2541 3569 2628 3553 
L 2631 2963 
z
" transform="scale(0.015625)"/>
      <path id="DejaVuSans-73" d="M 2834 3397 
L 2834 2853 
Q 2591 2978 2328 3040 
Q 2066 3103 1784 3103 
Q 1356 3103 1142 2972 
Q 928 2841 928 2578 
Q 928 2378 1081 2264 
Q 1234 2150 1697 2047 
L 1894 2003 
Q 2506 1872 2764 1633 
Q 3022 1394 3022 966 
Q 3022 478 2636 193 
Q 2250 -91 1575 -91 
Q 1294 -91 989 -36 
Q 684 19 347 128 
L 347 722 
Q 666 556 975 473 
Q 1284 391 1588 391 
Q 1994 391 2212 530 
Q 2431 669 2431 922 
Q 2431 1156 2273 1281 
Q 2116 1406 1581 1522 
L 1381 1569 
Q 847 1681 609 1914 
Q 372 2147 372 2553 
Q 372 3047 722 3315 
Q 1072 3584 1716 3584 
Q 2034 3584 2315 3537 
Q 2597 3491 2834 3397 
z
" transform="scale(0.015625)"/>
      <path id="DejaVuSans-69" d="M 603 3500 
L 1178 3500 
L 1178 0 
L 603 0 
L 603 3500 
z
M 603 4863 
L 1178 4863 
L 1178 4134 
L 603 4134 
L 603 4863 
z
" transform="scale(0.015625)"/>
     </defs>
     <use xlink:href="#DejaVuSans-50"/>
     <use xlink:href="#DejaVuSans-79" x="60.302734"/>
     <use xlink:href="#DejaVuSans-74" x="119.482422"/>
     <use xlink:href="#DejaVuSans-68" x="158.691406"/>
     <use xlink:href="#DejaVuSans-6f" x="222.070312"/>
     <use xlink:href="#DejaVuSans-6e" x="283.251953"/>
     <use xlink:href="#DejaVuSans-20" x="346.630859"/>
     <use xlink:href="#DejaVuSans-76" x="378.417969"/>
     <use xlink:href="#DejaVuSans-65" x="437.597656"/>
     <use xlink:href="#DejaVuSans-72" x="499.121094"/>
     <use xlink:href="#DejaVuSans-73" x="540.234375"/>
     <use xlink:href="#DejaVuSans-69" x="592.333984"/>
     <use xlink:href="#DejaVuSans-6f" x="620.117188"/>
     <use xlink:href="#DejaVuSans-6e" x="681.298828"/>
    </g>
   </g>
   <g id="Line3DCollection_1">
    <path d="M 75.1223 438.26282 
L 257.208789 283.833782 
L 255.419208 62.040999 
" style="fill: none; stroke: #b0b0b0; stroke-width: 0.8"/>
    <path d="M 88.81352 442.734372 
L 270.172116 287.601709 
L 268.933626 65.46651 
" style="fill: none; stroke: #b0b0b0; stroke-width: 0.8"/>
    <path d="M 102.569873 447.227197 
L 283.192038 291.386087 
L 282.509576 68.907618 
" style="fill: none; stroke: #b0b0b0; stroke-width: 0.8"/>
    <path d="M 116.391826 451.741447 
L 296.268926 295.187022 
L 296.147481 72.364429 
" style="fill: none; stroke: #b0b0b0; stroke-width: 0.8"/>
    <path d="M 130.279848 456.277275 
L 309.403155 299.004623 
L 309.847764 75.837052 
" style="fill: none; stroke: #b0b0b0; stroke-width: 0.8"/>
    <path d="M 144.234415 460.834837 
L 322.595102 302.839002 
L 323.610856 79.325594 
" style="fill: none; stroke: #b0b0b0; stroke-width: 0.8"/>
    <path d="M 158.256006 465.414288 
L 335.845148 306.690267 
L 337.437188 82.830166 
" style="fill: none; stroke: #b0b0b0; stroke-width: 0.8"/>
    <path d="M 172.345105 470.015788 
L 349.15368 310.558532 
L 351.327199 86.350879 
" style="fill: none; stroke: #b0b0b0; stroke-width: 0.8"/>
    <path d="M 186.502201 474.639495 
L 362.521084 314.443908 
L 365.281328 89.887844 
" style="fill: none; stroke: #b0b0b0; stroke-width: 0.8"/>
    <path d="M 200.727787 479.285572 
L 375.947752 318.346511 
L 379.300021 93.441174 
" style="fill: none; stroke: #b0b0b0; stroke-width: 0.8"/>
    <path d="M 215.022362 483.95418 
L 389.434079 322.266454 
L 393.383727 97.010983 
" style="fill: none; stroke: #b0b0b0; stroke-width: 0.8"/>
    <path d="M 229.386428 488.645484 
L 402.980464 326.203853 
L 407.532899 100.597386 
" style="fill: none; stroke: #b0b0b0; stroke-width: 0.8"/>
    <path d="M 243.820494 493.35965 
L 416.587309 330.158825 
L 421.747995 104.200498 
" style="fill: none; stroke: #b0b0b0; stroke-width: 0.8"/>
    <path d="M 258.325072 498.096845 
L 430.255019 334.131489 
L 436.029476 107.820437 
" style="fill: none; stroke: #b0b0b0; stroke-width: 0.8"/>
    <path d="M 272.900681 502.857239 
L 443.984003 338.121963 
L 450.377809 111.457322 
" style="fill: none; stroke: #b0b0b0; stroke-width: 0.8"/>
    <path d="M 287.547843 507.641002 
L 457.774676 342.130367 
L 464.793464 115.11127 
" style="fill: none; stroke: #b0b0b0; stroke-width: 0.8"/>
    <path d="M 302.267087 512.448307 
L 471.627452 346.156822 
L 479.276917 118.782403 
" style="fill: none; stroke: #b0b0b0; stroke-width: 0.8"/>
    <path d="M 317.058946 517.279328 
L 485.542754 350.201451 
L 493.828645 122.470842 
" style="fill: none; stroke: #b0b0b0; stroke-width: 0.8"/>
    <path d="M 331.923958 522.134241 
L 499.521004 354.264377 
L 508.449135 126.17671 
" style="fill: none; stroke: #b0b0b0; stroke-width: 0.8"/>
    <path d="M 346.862668 527.013224 
L 513.562632 358.345723 
L 523.138873 129.90013 
" style="fill: none; stroke: #b0b0b0; stroke-width: 0.8"/>
   </g>
   <g id="xtick_1">
    <g id="line2d_2">
     <path d="M 76.707899 436.918061 
L 71.944299 440.958109 
" style="fill: none; stroke: #000000; stroke-width: 0.8; stroke-linecap: square"/>
    </g>
    <g id="text_2">
     <!-- 2.0 -->
     <g transform="translate(59.656214 461.541659) scale(0.1 -0.1)">
      <defs>
       <path id="DejaVuSans-32" d="M 1228 531 
L 3431 531 
L 3431 0 
L 469 0 
L 469 531 
Q 828 903 1448 1529 
Q 2069 2156 2228 2338 
Q 2531 2678 2651 2914 
Q 2772 3150 2772 3378 
Q 2772 3750 2511 3984 
Q 2250 4219 1831 4219 
Q 1534 4219 1204 4116 
Q 875 4013 500 3803 
L 500 4441 
Q 881 4594 1212 4672 
Q 1544 4750 1819 4750 
Q 2544 4750 2975 4387 
Q 3406 4025 3406 3419 
Q 3406 3131 3298 2873 
Q 3191 2616 2906 2266 
Q 2828 2175 2409 1742 
Q 1991 1309 1228 531 
z
" transform="scale(0.015625)"/>
       <path id="DejaVuSans-2e" d="M 684 794 
L 1344 794 
L 1344 0 
L 684 0 
L 684 794 
z
" transform="scale(0.015625)"/>
       <path id="DejaVuSans-30" d="M 2034 4250 
Q 1547 4250 1301 3770 
Q 1056 3291 1056 2328 
Q 1056 1369 1301 889 
Q 1547 409 2034 409 
Q 2525 409 2770 889 
Q 3016 1369 3016 2328 
Q 3016 3291 2770 3770 
Q 2525 4250 2034 4250 
z
M 2034 4750 
Q 2819 4750 3233 4129 
Q 3647 3509 3647 2328 
Q 3647 1150 3233 529 
Q 2819 -91 2034 -91 
Q 1250 -91 836 529 
Q 422 1150 422 2328 
Q 422 3509 836 4129 
Q 1250 4750 2034 4750 
z
" transform="scale(0.015625)"/>
      </defs>
      <use xlink:href="#DejaVuSans-32"/>
      <use xlink:href="#DejaVuSans-2e" x="63.623047"/>
      <use xlink:href="#DejaVuSans-30" x="95.410156"/>
     </g>
    </g>
   </g>
   <g id="xtick_2">
    <g id="line2d_3">
     <path d="M 90.393085 441.383226 
L 85.647596 445.442478 
" style="fill: none; stroke: #000000; stroke-width: 0.8; stroke-linecap: square"/>
    </g>
    <g id="text_3">
     <!-- 2.1 -->
     <g transform="translate(73.354009 466.05847) scale(0.1 -0.1)">
      <defs>
       <path id="DejaVuSans-31" d="M 794 531 
L 1825 531 
L 1825 4091 
L 703 3866 
L 703 4441 
L 1819 4666 
L 2450 4666 
L 2450 531 
L 3481 531 
L 3481 0 
L 794 0 
L 794 531 
z
" transform="scale(0.015625)"/>
      </defs>
      <use xlink:href="#DejaVuSans-32"/>
      <use xlink:href="#DejaVuSans-2e" x="63.623047"/>
      <use xlink:href="#DejaVuSans-31" x="95.410156"/>
     </g>
    </g>
   </g>
   <g id="xtick_3">
    <g id="line2d_4">
     <path d="M 104.143328 445.869617 
L 99.416178 449.948211 
" style="fill: none; stroke: #000000; stroke-width: 0.8; stroke-linecap: square"/>
    </g>
    <g id="text_4">
     <!-- 2.2 -->
     <g transform="translate(87.117086 470.596807) scale(0.1 -0.1)">
      <use xlink:href="#DejaVuSans-32"/>
      <use xlink:href="#DejaVuSans-2e" x="63.623047"/>
      <use xlink:href="#DejaVuSans-32" x="95.410156"/>
     </g>
    </g>
   </g>
   <g id="xtick_4">
    <g id="line2d_5">
     <path d="M 117.959095 450.377388 
L 113.250512 454.475461 
" style="fill: none; stroke: #000000; stroke-width: 0.8; stroke-linecap: square"/>
    </g>
    <g id="text_5">
     <!-- 2.3 -->
     <g transform="translate(100.945912 475.156825) scale(0.1 -0.1)">
      <defs>
       <path id="DejaVuSans-33" d="M 2597 2516 
Q 3050 2419 3304 2112 
Q 3559 1806 3559 1356 
Q 3559 666 3084 287 
Q 2609 -91 1734 -91 
Q 1441 -91 1130 -33 
Q 819 25 488 141 
L 488 750 
Q 750 597 1062 519 
Q 1375 441 1716 441 
Q 2309 441 2620 675 
Q 2931 909 2931 1356 
Q 2931 1769 2642 2001 
Q 2353 2234 1838 2234 
L 1294 2234 
L 1294 2753 
L 1863 2753 
Q 2328 2753 2575 2939 
Q 2822 3125 2822 3475 
Q 2822 3834 2567 4026 
Q 2313 4219 1838 4219 
Q 1578 4219 1281 4162 
Q 984 4106 628 3988 
L 628 4550 
Q 988 4650 1302 4700 
Q 1616 4750 1894 4750 
Q 2613 4750 3031 4423 
Q 3450 4097 3450 3541 
Q 3450 3153 3228 2886 
Q 3006 2619 2597 2516 
z
" transform="scale(0.015625)"/>
      </defs>
      <use xlink:href="#DejaVuSans-32"/>
      <use xlink:href="#DejaVuSans-2e" x="63.623047"/>
      <use xlink:href="#DejaVuSans-33" x="95.410156"/>
     </g>
    </g>
   </g>
   <g id="xtick_5">
    <g id="line2d_6">
     <path d="M 131.840855 454.90669 
L 127.151071 459.024383 
" style="fill: none; stroke: #000000; stroke-width: 0.8; stroke-linecap: square"/>
    </g>
    <g id="text_6">
     <!-- 2.4 -->
     <g transform="translate(114.84096 479.738679) scale(0.1 -0.1)">
      <defs>
       <path id="DejaVuSans-34" d="M 2419 4116 
L 825 1625 
L 2419 1625 
L 2419 4116 
z
M 2253 4666 
L 3047 4666 
L 3047 1625 
L 3713 1625 
L 3713 1100 
L 3047 1100 
L 3047 0 
L 2419 0 
L 2419 1100 
L 313 1100 
L 313 1709 
L 2253 4666 
z
" transform="scale(0.015625)"/>
      </defs>
      <use xlink:href="#DejaVuSans-32"/>
      <use xlink:href="#DejaVuSans-2e" x="63.623047"/>
      <use xlink:href="#DejaVuSans-34" x="95.410156"/>
     </g>
    </g>
   </g>
   <g id="xtick_6">
    <g id="line2d_7">
     <path d="M 145.789081 459.457679 
L 141.118331 463.595132 
" style="fill: none; stroke: #000000; stroke-width: 0.8; stroke-linecap: square"/>
    </g>
    <g id="text_7">
     <!-- 2.5 -->
     <g transform="translate(128.802706 484.342526) scale(0.1 -0.1)">
      <defs>
       <path id="DejaVuSans-35" d="M 691 4666 
L 3169 4666 
L 3169 4134 
L 1269 4134 
L 1269 2991 
Q 1406 3038 1543 3061 
Q 1681 3084 1819 3084 
Q 2600 3084 3056 2656 
Q 3513 2228 3513 1497 
Q 3513 744 3044 326 
Q 2575 -91 1722 -91 
Q 1428 -91 1123 -41 
Q 819 9 494 109 
L 494 744 
Q 775 591 1075 516 
Q 1375 441 1709 441 
Q 2250 441 2565 725 
Q 2881 1009 2881 1497 
Q 2881 1984 2565 2268 
Q 2250 2553 1709 2553 
Q 1456 2553 1204 2497 
Q 953 2441 691 2322 
L 691 4666 
z
" transform="scale(0.015625)"/>
      </defs>
      <use xlink:href="#DejaVuSans-32"/>
      <use xlink:href="#DejaVuSans-2e" x="63.623047"/>
      <use xlink:href="#DejaVuSans-35" x="95.410156"/>
     </g>
    </g>
   </g>
   <g id="xtick_7">
    <g id="line2d_8">
     <path d="M 159.804252 464.03051 
L 155.152773 468.187867 
" style="fill: none; stroke: #000000; stroke-width: 0.8; stroke-linecap: square"/>
    </g>
    <g id="text_8">
     <!-- 2.6 -->
     <g transform="translate(142.831632 488.968526) scale(0.1 -0.1)">
      <defs>
       <path id="DejaVuSans-36" d="M 2113 2584 
Q 1688 2584 1439 2293 
Q 1191 2003 1191 1497 
Q 1191 994 1439 701 
Q 1688 409 2113 409 
Q 2538 409 2786 701 
Q 3034 994 3034 1497 
Q 3034 2003 2786 2293 
Q 2538 2584 2113 2584 
z
M 3366 4563 
L 3366 3988 
Q 3128 4100 2886 4159 
Q 2644 4219 2406 4219 
Q 1781 4219 1451 3797 
Q 1122 3375 1075 2522 
Q 1259 2794 1537 2939 
Q 1816 3084 2150 3084 
Q 2853 3084 3261 2657 
Q 3669 2231 3669 1497 
Q 3669 778 3244 343 
Q 2819 -91 2113 -91 
Q 1303 -91 875 529 
Q 447 1150 447 2328 
Q 447 3434 972 4092 
Q 1497 4750 2381 4750 
Q 2619 4750 2861 4703 
Q 3103 4656 3366 4563 
z
" transform="scale(0.015625)"/>
      </defs>
      <use xlink:href="#DejaVuSans-32"/>
      <use xlink:href="#DejaVuSans-2e" x="63.623047"/>
      <use xlink:href="#DejaVuSans-36" x="95.410156"/>
     </g>
    </g>
   </g>
   <g id="xtick_8">
    <g id="line2d_9">
     <path d="M 173.886852 468.625342 
L 169.254884 472.802747 
" style="fill: none; stroke: #000000; stroke-width: 0.8; stroke-linecap: square"/>
    </g>
    <g id="text_9">
     <!-- 2.7 -->
     <g transform="translate(156.928223 493.616838) scale(0.1 -0.1)">
      <defs>
       <path id="DejaVuSans-37" d="M 525 4666 
L 3525 4666 
L 3525 4397 
L 1831 0 
L 1172 0 
L 2766 4134 
L 525 4134 
L 525 4666 
z
" transform="scale(0.015625)"/>
      </defs>
      <use xlink:href="#DejaVuSans-32"/>
      <use xlink:href="#DejaVuSans-2e" x="63.623047"/>
      <use xlink:href="#DejaVuSans-37" x="95.410156"/>
     </g>
    </g>
   </g>
   <g id="xtick_9">
    <g id="line2d_10">
     <path d="M 188.037367 473.242334 
L 183.425153 477.43993 
" style="fill: none; stroke: #000000; stroke-width: 0.8; stroke-linecap: square"/>
    </g>
    <g id="text_10">
     <!-- 3.0 -->
     <g transform="translate(171.092971 498.287625) scale(0.1 -0.1)">
      <use xlink:href="#DejaVuSans-33"/>
      <use xlink:href="#DejaVuSans-2e" x="63.623047"/>
      <use xlink:href="#DejaVuSans-30" x="95.410156"/>
     </g>
    </g>
   </g>
   <g id="xtick_10">
    <g id="line2d_11">
     <path d="M 202.256291 477.881645 
L 197.664077 482.099581 
" style="fill: none; stroke: #000000; stroke-width: 0.8; stroke-linecap: square"/>
    </g>
    <g id="text_11">
     <!-- 3.1 -->
     <g transform="translate(185.326371 502.98105) scale(0.1 -0.1)">
      <use xlink:href="#DejaVuSans-33"/>
      <use xlink:href="#DejaVuSans-2e" x="63.623047"/>
      <use xlink:href="#DejaVuSans-31" x="95.410156"/>
     </g>
    </g>
   </g>
   <g id="xtick_11">
    <g id="line2d_12">
     <path d="M 216.544121 482.543439 
L 211.972155 486.781863 
" style="fill: none; stroke: #000000; stroke-width: 0.8; stroke-linecap: square"/>
    </g>
    <g id="text_12">
     <!-- 3.2 -->
     <g transform="translate(199.628923 507.697277) scale(0.1 -0.1)">
      <use xlink:href="#DejaVuSans-33"/>
      <use xlink:href="#DejaVuSans-2e" x="63.623047"/>
      <use xlink:href="#DejaVuSans-32" x="95.410156"/>
     </g>
    </g>
   </g>
   <g id="xtick_12">
    <g id="line2d_13">
     <path d="M 230.901359 487.227879 
L 226.349892 491.48694 
" style="fill: none; stroke: #000000; stroke-width: 0.8; stroke-linecap: square"/>
    </g>
    <g id="text_13">
     <!-- 3.3 -->
     <g transform="translate(214.001132 512.436474) scale(0.1 -0.1)">
      <use xlink:href="#DejaVuSans-33"/>
      <use xlink:href="#DejaVuSans-2e" x="63.623047"/>
      <use xlink:href="#DejaVuSans-33" x="95.410156"/>
     </g>
    </g>
   </g>
   <g id="xtick_13">
    <g id="line2d_14">
     <path d="M 245.328511 491.935131 
L 240.797799 496.21498 
" style="fill: none; stroke: #000000; stroke-width: 0.8; stroke-linecap: square"/>
    </g>
    <g id="text_14">
     <!-- 3.4 -->
     <g transform="translate(228.443509 517.198808) scale(0.1 -0.1)">
      <use xlink:href="#DejaVuSans-33"/>
      <use xlink:href="#DejaVuSans-2e" x="63.623047"/>
      <use xlink:href="#DejaVuSans-34" x="95.410156"/>
     </g>
    </g>
   </g>
   <g id="xtick_14">
    <g id="line2d_15">
     <path d="M 259.82609 496.665361 
L 255.31639 500.966151 
" style="fill: none; stroke: #000000; stroke-width: 0.8; stroke-linecap: square"/>
    </g>
    <g id="text_15">
     <!-- 3.5 -->
     <g transform="translate(242.956569 521.98445) scale(0.1 -0.1)">
      <use xlink:href="#DejaVuSans-33"/>
      <use xlink:href="#DejaVuSans-2e" x="63.623047"/>
      <use xlink:href="#DejaVuSans-35" x="95.410156"/>
     </g>
    </g>
   </g>
   <g id="xtick_15">
    <g id="line2d_16">
     <path d="M 274.394613 501.418738 
L 269.906185 505.740624 
" style="fill: none; stroke: #000000; stroke-width: 0.8; stroke-linecap: square"/>
    </g>
    <g id="text_16">
     <!-- 3.6 -->
     <g transform="translate(257.540832 526.793571) scale(0.1 -0.1)">
      <use xlink:href="#DejaVuSans-33"/>
      <use xlink:href="#DejaVuSans-2e" x="63.623047"/>
      <use xlink:href="#DejaVuSans-36" x="95.410156"/>
     </g>
    </g>
   </g>
   <g id="xtick_16">
    <g id="line2d_17">
     <path d="M 289.034602 506.195434 
L 284.567709 510.53857 
" style="fill: none; stroke: #000000; stroke-width: 0.8; stroke-linecap: square"/>
    </g>
    <g id="text_17">
     <!-- 3.7 -->
     <g transform="translate(272.196823 531.626344) scale(0.1 -0.1)">
      <use xlink:href="#DejaVuSans-33"/>
      <use xlink:href="#DejaVuSans-2e" x="63.623047"/>
      <use xlink:href="#DejaVuSans-37" x="95.410156"/>
     </g>
    </g>
   </g>
   <g id="xtick_17">
    <g id="line2d_18">
     <path d="M 303.746584 510.995619 
L 299.301493 515.360163 
" style="fill: none; stroke: #000000; stroke-width: 0.8; stroke-linecap: square"/>
    </g>
    <g id="text_18">
     <!-- 3.8 -->
     <g transform="translate(286.925072 536.482944) scale(0.1 -0.1)">
      <defs>
       <path id="DejaVuSans-38" d="M 2034 2216 
Q 1584 2216 1326 1975 
Q 1069 1734 1069 1313 
Q 1069 891 1326 650 
Q 1584 409 2034 409 
Q 2484 409 2743 651 
Q 3003 894 3003 1313 
Q 3003 1734 2745 1975 
Q 2488 2216 2034 2216 
z
M 1403 2484 
Q 997 2584 770 2862 
Q 544 3141 544 3541 
Q 544 4100 942 4425 
Q 1341 4750 2034 4750 
Q 2731 4750 3128 4425 
Q 3525 4100 3525 3541 
Q 3525 3141 3298 2862 
Q 3072 2584 2669 2484 
Q 3125 2378 3379 2068 
Q 3634 1759 3634 1313 
Q 3634 634 3220 271 
Q 2806 -91 2034 -91 
Q 1263 -91 848 271 
Q 434 634 434 1313 
Q 434 1759 690 2068 
Q 947 2378 1403 2484 
z
M 1172 3481 
Q 1172 3119 1398 2916 
Q 1625 2713 2034 2713 
Q 2441 2713 2670 2916 
Q 2900 3119 2900 3481 
Q 2900 3844 2670 4047 
Q 2441 4250 2034 4250 
Q 1625 4250 1398 4047 
Q 1172 3844 1172 3481 
z
" transform="scale(0.015625)"/>
      </defs>
      <use xlink:href="#DejaVuSans-33"/>
      <use xlink:href="#DejaVuSans-2e" x="63.623047"/>
      <use xlink:href="#DejaVuSans-38" x="95.410156"/>
     </g>
    </g>
   </g>
   <g id="xtick_18">
    <g id="line2d_19">
     <path d="M 318.531091 515.819467 
L 314.108072 520.205577 
" style="fill: none; stroke: #000000; stroke-width: 0.8; stroke-linecap: square"/>
    </g>
    <g id="text_19">
     <!-- 3.9 -->
     <g transform="translate(301.726116 541.363548) scale(0.1 -0.1)">
      <defs>
       <path id="DejaVuSans-39" d="M 703 97 
L 703 672 
Q 941 559 1184 500 
Q 1428 441 1663 441 
Q 2288 441 2617 861 
Q 2947 1281 2994 2138 
Q 2813 1869 2534 1725 
Q 2256 1581 1919 1581 
Q 1219 1581 811 2004 
Q 403 2428 403 3163 
Q 403 3881 828 4315 
Q 1253 4750 1959 4750 
Q 2769 4750 3195 4129 
Q 3622 3509 3622 2328 
Q 3622 1225 3098 567 
Q 2575 -91 1691 -91 
Q 1453 -91 1209 -44 
Q 966 3 703 97 
z
M 1959 2075 
Q 2384 2075 2632 2365 
Q 2881 2656 2881 3163 
Q 2881 3666 2632 3958 
Q 2384 4250 1959 4250 
Q 1534 4250 1286 3958 
Q 1038 3666 1038 3163 
Q 1038 2656 1286 2365 
Q 1534 2075 1959 2075 
z
" transform="scale(0.015625)"/>
      </defs>
      <use xlink:href="#DejaVuSans-33"/>
      <use xlink:href="#DejaVuSans-2e" x="63.623047"/>
      <use xlink:href="#DejaVuSans-39" x="95.410156"/>
     </g>
    </g>
   </g>
   <g id="xtick_19">
    <g id="line2d_20">
     <path d="M 333.388661 520.667154 
L 328.987987 525.074991 
" style="fill: none; stroke: #000000; stroke-width: 0.8; stroke-linecap: square"/>
    </g>
    <g id="text_20">
     <!-- 3.10 -->
     <g transform="translate(313.419245 546.268333) scale(0.1 -0.1)">
      <use xlink:href="#DejaVuSans-33"/>
      <use xlink:href="#DejaVuSans-2e" x="63.623047"/>
      <use xlink:href="#DejaVuSans-31" x="95.410156"/>
      <use xlink:href="#DejaVuSans-30" x="159.033203"/>
     </g>
    </g>
   </g>
   <g id="xtick_20">
    <g id="line2d_21">
     <path d="M 348.319837 525.538857 
L 343.941785 529.968583 
" style="fill: none; stroke: #000000; stroke-width: 0.8; stroke-linecap: square"/>
    </g>
    <g id="text_21">
     <!-- 3.11 -->
     <g transform="translate(328.367506 551.197482) scale(0.1 -0.1)">
      <use xlink:href="#DejaVuSans-33"/>
      <use xlink:href="#DejaVuSans-2e" x="63.623047"/>
      <use xlink:href="#DejaVuSans-31" x="95.410156"/>
      <use xlink:href="#DejaVuSans-31" x="159.033203"/>
     </g>
    </g>
   </g>
  </g>
  <g id="axis3d_2">
   <g id="line2d_22">
    <path d="M 533.121668 364.030763 
L 367.68181 533.812756 
" style="fill: none; stroke: #000000; stroke-width: 0.8; stroke-linecap: square"/>
   </g>
   <g id="text_22">
    <!-- Release date -->
    <g transform="translate(460.423213 498.244272) rotate(-45.742112) scale(0.1 -0.1)">
     <defs>
      <path id="DejaVuSans-52" d="M 2841 2188 
Q 3044 2119 3236 1894 
Q 3428 1669 3622 1275 
L 4263 0 
L 3584 0 
L 2988 1197 
Q 2756 1666 2539 1819 
Q 2322 1972 1947 1972 
L 1259 1972 
L 1259 0 
L 628 0 
L 628 4666 
L 2053 4666 
Q 2853 4666 3247 4331 
Q 3641 3997 3641 3322 
Q 3641 2881 3436 2590 
Q 3231 2300 2841 2188 
z
M 1259 4147 
L 1259 2491 
L 2053 2491 
Q 2509 2491 2742 2702 
Q 2975 2913 2975 3322 
Q 2975 3731 2742 3939 
Q 2509 4147 2053 4147 
L 1259 4147 
z
" transform="scale(0.015625)"/>
      <path id="DejaVuSans-6c" d="M 603 4863 
L 1178 4863 
L 1178 0 
L 603 0 
L 603 4863 
z
" transform="scale(0.015625)"/>
      <path id="DejaVuSans-61" d="M 2194 1759 
Q 1497 1759 1228 1600 
Q 959 1441 959 1056 
Q 959 750 1161 570 
Q 1363 391 1709 391 
Q 2188 391 2477 730 
Q 2766 1069 2766 1631 
L 2766 1759 
L 2194 1759 
z
M 3341 1997 
L 3341 0 
L 2766 0 
L 2766 531 
Q 2569 213 2275 61 
Q 1981 -91 1556 -91 
Q 1019 -91 701 211 
Q 384 513 384 1019 
Q 384 1609 779 1909 
Q 1175 2209 1959 2209 
L 2766 2209 
L 2766 2266 
Q 2766 2663 2505 2880 
Q 2244 3097 1772 3097 
Q 1472 3097 1187 3025 
Q 903 2953 641 2809 
L 641 3341 
Q 956 3463 1253 3523 
Q 1550 3584 1831 3584 
Q 2591 3584 2966 3190 
Q 3341 2797 3341 1997 
z
" transform="scale(0.015625)"/>
      <path id="DejaVuSans-64" d="M 2906 2969 
L 2906 4863 
L 3481 4863 
L 3481 0 
L 2906 0 
L 2906 525 
Q 2725 213 2448 61 
Q 2172 -91 1784 -91 
Q 1150 -91 751 415 
Q 353 922 353 1747 
Q 353 2572 751 3078 
Q 1150 3584 1784 3584 
Q 2172 3584 2448 3432 
Q 2725 3281 2906 2969 
z
M 947 1747 
Q 947 1113 1208 752 
Q 1469 391 1925 391 
Q 2381 391 2643 752 
Q 2906 1113 2906 1747 
Q 2906 2381 2643 2742 
Q 2381 3103 1925 3103 
Q 1469 3103 1208 2742 
Q 947 2381 947 1747 
z
" transform="scale(0.015625)"/>
     </defs>
     <use xlink:href="#DejaVuSans-52"/>
     <use xlink:href="#DejaVuSans-65" x="64.982422"/>
     <use xlink:href="#DejaVuSans-6c" x="126.505859"/>
     <use xlink:href="#DejaVuSans-65" x="154.289062"/>
     <use xlink:href="#DejaVuSans-61" x="215.8125"/>
     <use xlink:href="#DejaVuSans-73" x="277.091797"/>
     <use xlink:href="#DejaVuSans-65" x="329.191406"/>
     <use xlink:href="#DejaVuSans-20" x="390.714844"/>
     <use xlink:href="#DejaVuSans-64" x="422.501953"/>
     <use xlink:href="#DejaVuSans-61" x="485.978516"/>
     <use xlink:href="#DejaVuSans-74" x="547.257812"/>
     <use xlink:href="#DejaVuSans-65" x="586.466797"/>
    </g>
   </g>
   <g id="Line3DCollection_2">
    <path d="M 52.954855 191.480444 
L 63.868125 425.726303 
L 374.585062 526.728321 
" style="fill: none; stroke: #b0b0b0; stroke-width: 0.8"/>
    <path d="M 90.209331 164.293825 
L 99.323755 396.006691 
L 406.726695 493.743098 
" style="fill: none; stroke: #b0b0b0; stroke-width: 0.8"/>
    <path d="M 126.24701 137.995168 
L 133.671083 367.21608 
L 437.811187 461.842763 
" style="fill: none; stroke: #b0b0b0; stroke-width: 0.8"/>
    <path d="M 161.126549 112.541669 
L 166.961274 339.311581 
L 467.889847 430.974659 
" style="fill: none; stroke: #b0b0b0; stroke-width: 0.8"/>
    <path d="M 194.872563 87.915365 
L 199.213388 312.277221 
L 496.98457 401.116315 
" style="fill: none; stroke: #b0b0b0; stroke-width: 0.8"/>
    <path d="M 227.598173 64.033705 
L 230.531491 286.025765 
L 525.193497 372.167016 
" style="fill: none; stroke: #b0b0b0; stroke-width: 0.8"/>
   </g>
   <g id="xtick_21">
    <g id="line2d_23">
     <path d="M 371.966327 525.877072 
L 379.829321 528.433026 
" style="fill: none; stroke: #000000; stroke-width: 0.8; stroke-linecap: square"/>
    </g>
    <g id="text_23">
     <!-- 2008 -->
     <g transform="translate(374.765896 547.779019) scale(0.1 -0.1)">
      <use xlink:href="#DejaVuSans-32"/>
      <use xlink:href="#DejaVuSans-30" x="63.623047"/>
      <use xlink:href="#DejaVuSans-30" x="127.246094"/>
      <use xlink:href="#DejaVuSans-38" x="190.869141"/>
     </g>
    </g>
   </g>
   <g id="xtick_22">
    <g id="line2d_24">
     <path d="M 404.13809 492.920071 
L 411.910505 495.391251 
" style="fill: none; stroke: #000000; stroke-width: 0.8; stroke-linecap: square"/>
    </g>
    <g id="text_24">
     <!-- 2011 -->
     <g transform="translate(406.700784 514.55947) scale(0.1 -0.1)">
      <use xlink:href="#DejaVuSans-32"/>
      <use xlink:href="#DejaVuSans-30" x="63.623047"/>
      <use xlink:href="#DejaVuSans-31" x="127.246094"/>
      <use xlink:href="#DejaVuSans-31" x="190.869141"/>
     </g>
    </g>
   </g>
   <g id="xtick_23">
    <g id="line2d_25">
     <path d="M 435.252161 461.046577 
L 442.935653 463.437131 
" style="fill: none; stroke: #000000; stroke-width: 0.8; stroke-linecap: square"/>
    </g>
    <g id="text_25">
     <!-- 2014 -->
     <g transform="translate(437.585038 482.43282) scale(0.1 -0.1)">
      <use xlink:href="#DejaVuSans-32"/>
      <use xlink:href="#DejaVuSans-30" x="63.623047"/>
      <use xlink:href="#DejaVuSans-31" x="127.246094"/>
      <use xlink:href="#DejaVuSans-34" x="190.869141"/>
     </g>
    </g>
   </g>
   <g id="xtick_24">
    <g id="line2d_26">
     <path d="M 465.359858 430.204022 
L 472.956064 432.517833 
" style="fill: none; stroke: #000000; stroke-width: 0.8; stroke-linecap: square"/>
    </g>
    <g id="text_26">
     <!-- 2017 -->
     <g transform="translate(467.469666 451.346008) scale(0.1 -0.1)">
      <use xlink:href="#DejaVuSans-32"/>
      <use xlink:href="#DejaVuSans-30" x="63.623047"/>
      <use xlink:href="#DejaVuSans-31" x="127.246094"/>
      <use xlink:href="#DejaVuSans-37" x="190.869141"/>
     </g>
    </g>
   </g>
   <g id="xtick_25">
    <g id="line2d_27">
     <path d="M 494.483055 400.369996 
L 501.993673 402.610765 
" style="fill: none; stroke: #000000; stroke-width: 0.8; stroke-linecap: square"/>
    </g>
    <g id="text_27">
     <!-- 2020 -->
     <g transform="translate(496.376449 421.276377) scale(0.1 -0.1)">
      <use xlink:href="#DejaVuSans-32"/>
      <use xlink:href="#DejaVuSans-30" x="63.623047"/>
      <use xlink:href="#DejaVuSans-32" x="127.246094"/>
      <use xlink:href="#DejaVuSans-30" x="190.869141"/>
     </g>
    </g>
   </g>
   <g id="xtick_26">
    <g id="line2d_28">
     <path d="M 522.719951 371.443902 
L 530.146498 373.614973 
" style="fill: none; stroke: #000000; stroke-width: 0.8; stroke-linecap: square"/>
    </g>
    <g id="text_28">
     <!-- 2023 -->
     <g transform="translate(524.402916 392.122476) scale(0.1 -0.1)">
      <use xlink:href="#DejaVuSans-32"/>
      <use xlink:href="#DejaVuSans-30" x="63.623047"/>
      <use xlink:href="#DejaVuSans-32" x="127.246094"/>
      <use xlink:href="#DejaVuSans-33" x="190.869141"/>
     </g>
    </g>
   </g>
  </g>
  <g id="axis3d_3">
   <g id="line2d_29">
    <path d="M 533.121668 364.030763 
L 543.605628 135.087856 
" style="fill: none; stroke: #000000; stroke-width: 0.8; stroke-linecap: square"/>
   </g>
   <g id="text_29">
    <!-- Amount of version-specific features -->
    <g transform="translate(577.454291 335.569915) rotate(-87.378092) scale(0.1 -0.1)">
     <defs>
      <path id="DejaVuSans-41" d="M 2188 4044 
L 1331 1722 
L 3047 1722 
L 2188 4044 
z
M 1831 4666 
L 2547 4666 
L 4325 0 
L 3669 0 
L 3244 1197 
L 1141 1197 
L 716 0 
L 50 0 
L 1831 4666 
z
" transform="scale(0.015625)"/>
      <path id="DejaVuSans-6d" d="M 3328 2828 
Q 3544 3216 3844 3400 
Q 4144 3584 4550 3584 
Q 5097 3584 5394 3201 
Q 5691 2819 5691 2113 
L 5691 0 
L 5113 0 
L 5113 2094 
Q 5113 2597 4934 2840 
Q 4756 3084 4391 3084 
Q 3944 3084 3684 2787 
Q 3425 2491 3425 1978 
L 3425 0 
L 2847 0 
L 2847 2094 
Q 2847 2600 2669 2842 
Q 2491 3084 2119 3084 
Q 1678 3084 1418 2786 
Q 1159 2488 1159 1978 
L 1159 0 
L 581 0 
L 581 3500 
L 1159 3500 
L 1159 2956 
Q 1356 3278 1631 3431 
Q 1906 3584 2284 3584 
Q 2666 3584 2933 3390 
Q 3200 3197 3328 2828 
z
" transform="scale(0.015625)"/>
      <path id="DejaVuSans-75" d="M 544 1381 
L 544 3500 
L 1119 3500 
L 1119 1403 
Q 1119 906 1312 657 
Q 1506 409 1894 409 
Q 2359 409 2629 706 
Q 2900 1003 2900 1516 
L 2900 3500 
L 3475 3500 
L 3475 0 
L 2900 0 
L 2900 538 
Q 2691 219 2414 64 
Q 2138 -91 1772 -91 
Q 1169 -91 856 284 
Q 544 659 544 1381 
z
M 1991 3584 
L 1991 3584 
z
" transform="scale(0.015625)"/>
      <path id="DejaVuSans-66" d="M 2375 4863 
L 2375 4384 
L 1825 4384 
Q 1516 4384 1395 4259 
Q 1275 4134 1275 3809 
L 1275 3500 
L 2222 3500 
L 2222 3053 
L 1275 3053 
L 1275 0 
L 697 0 
L 697 3053 
L 147 3053 
L 147 3500 
L 697 3500 
L 697 3744 
Q 697 4328 969 4595 
Q 1241 4863 1831 4863 
L 2375 4863 
z
" transform="scale(0.015625)"/>
      <path id="DejaVuSans-2d" d="M 313 2009 
L 1997 2009 
L 1997 1497 
L 313 1497 
L 313 2009 
z
" transform="scale(0.015625)"/>
      <path id="DejaVuSans-70" d="M 1159 525 
L 1159 -1331 
L 581 -1331 
L 581 3500 
L 1159 3500 
L 1159 2969 
Q 1341 3281 1617 3432 
Q 1894 3584 2278 3584 
Q 2916 3584 3314 3078 
Q 3713 2572 3713 1747 
Q 3713 922 3314 415 
Q 2916 -91 2278 -91 
Q 1894 -91 1617 61 
Q 1341 213 1159 525 
z
M 3116 1747 
Q 3116 2381 2855 2742 
Q 2594 3103 2138 3103 
Q 1681 3103 1420 2742 
Q 1159 2381 1159 1747 
Q 1159 1113 1420 752 
Q 1681 391 2138 391 
Q 2594 391 2855 752 
Q 3116 1113 3116 1747 
z
" transform="scale(0.015625)"/>
      <path id="DejaVuSans-63" d="M 3122 3366 
L 3122 2828 
Q 2878 2963 2633 3030 
Q 2388 3097 2138 3097 
Q 1578 3097 1268 2742 
Q 959 2388 959 1747 
Q 959 1106 1268 751 
Q 1578 397 2138 397 
Q 2388 397 2633 464 
Q 2878 531 3122 666 
L 3122 134 
Q 2881 22 2623 -34 
Q 2366 -91 2075 -91 
Q 1284 -91 818 406 
Q 353 903 353 1747 
Q 353 2603 823 3093 
Q 1294 3584 2113 3584 
Q 2378 3584 2631 3529 
Q 2884 3475 3122 3366 
z
" transform="scale(0.015625)"/>
     </defs>
     <use xlink:href="#DejaVuSans-41"/>
     <use xlink:href="#DejaVuSans-6d" x="68.408203"/>
     <use xlink:href="#DejaVuSans-6f" x="165.820312"/>
     <use xlink:href="#DejaVuSans-75" x="227.001953"/>
     <use xlink:href="#DejaVuSans-6e" x="290.380859"/>
     <use xlink:href="#DejaVuSans-74" x="353.759766"/>
     <use xlink:href="#DejaVuSans-20" x="392.96875"/>
     <use xlink:href="#DejaVuSans-6f" x="424.755859"/>
     <use xlink:href="#DejaVuSans-66" x="485.9375"/>
     <use xlink:href="#DejaVuSans-20" x="521.142578"/>
     <use xlink:href="#DejaVuSans-76" x="552.929688"/>
     <use xlink:href="#DejaVuSans-65" x="612.109375"/>
     <use xlink:href="#DejaVuSans-72" x="673.632812"/>
     <use xlink:href="#DejaVuSans-73" x="714.746094"/>
     <use xlink:href="#DejaVuSans-69" x="766.845703"/>
     <use xlink:href="#DejaVuSans-6f" x="794.628906"/>
     <use xlink:href="#DejaVuSans-6e" x="855.810547"/>
     <use xlink:href="#DejaVuSans-2d" x="919.189453"/>
     <use xlink:href="#DejaVuSans-73" x="955.273438"/>
     <use xlink:href="#DejaVuSans-70" x="1007.373047"/>
     <use xlink:href="#DejaVuSans-65" x="1070.849609"/>
     <use xlink:href="#DejaVuSans-63" x="1132.373047"/>
     <use xlink:href="#DejaVuSans-69" x="1187.353516"/>
     <use xlink:href="#DejaVuSans-66" x="1215.136719"/>
     <use xlink:href="#DejaVuSans-69" x="1250.341797"/>
     <use xlink:href="#DejaVuSans-63" x="1278.125"/>
     <use xlink:href="#DejaVuSans-20" x="1333.105469"/>
     <use xlink:href="#DejaVuSans-66" x="1364.892578"/>
     <use xlink:href="#DejaVuSans-65" x="1400.097656"/>
     <use xlink:href="#DejaVuSans-61" x="1461.621094"/>
     <use xlink:href="#DejaVuSans-74" x="1522.900391"/>
     <use xlink:href="#DejaVuSans-75" x="1562.109375"/>
     <use xlink:href="#DejaVuSans-72" x="1625.488281"/>
     <use xlink:href="#DejaVuSans-65" x="1664.351562"/>
     <use xlink:href="#DejaVuSans-73" x="1725.875"/>
    </g>
   </g>
   <g id="Line3DCollection_3">
    <path d="M 533.322529 359.64447 
L 239.293149 274.391583 
L 56.044764 427.611957 
" style="fill: none; stroke: #b0b0b0; stroke-width: 0.8"/>
    <path d="M 535.268484 317.149787 
L 238.81999 233.244504 
L 53.948904 384.090073 
" style="fill: none; stroke: #b0b0b0; stroke-width: 0.8"/>
    <path d="M 537.247043 273.943109 
L 238.339284 191.441077 
L 51.816584 339.81106 
" style="fill: none; stroke: #b0b0b0; stroke-width: 0.8"/>
    <path d="M 539.259033 230.006392 
L 237.850849 148.965473 
L 49.646843 294.754985 
" style="fill: none; stroke: #b0b0b0; stroke-width: 0.8"/>
    <path d="M 541.305308 185.320974 
L 237.354496 105.801347 
L 47.438688 248.901213 
" style="fill: none; stroke: #b0b0b0; stroke-width: 0.8"/>
    <path d="M 543.386752 139.867553 
L 236.850031 61.931821 
L 45.191089 202.228371 
" style="fill: none; stroke: #b0b0b0; stroke-width: 0.8"/>
   </g>
   <g id="xtick_27">
    <g id="line2d_30">
     <path d="M 530.854713 358.928935 
L 538.264034 361.077244 
" style="fill: none; stroke: #000000; stroke-width: 0.8; stroke-linecap: square"/>
    </g>
    <g id="text_30">
     <!-- 0.0 -->
     <g transform="translate(543.663475 364.637934) scale(0.1 -0.1)">
      <use xlink:href="#DejaVuSans-30"/>
      <use xlink:href="#DejaVuSans-2e" x="63.623047"/>
      <use xlink:href="#DejaVuSans-30" x="95.410156"/>
     </g>
    </g>
   </g>
   <g id="xtick_28">
    <g id="line2d_31">
     <path d="M 532.779397 316.445288 
L 540.252632 318.560475 
" style="fill: none; stroke: #000000; stroke-width: 0.8; stroke-linecap: square"/>
    </g>
    <g id="text_31">
     <!-- 0.2 -->
     <g transform="translate(545.75835 322.183454) scale(0.1 -0.1)">
      <use xlink:href="#DejaVuSans-30"/>
      <use xlink:href="#DejaVuSans-2e" x="63.623047"/>
      <use xlink:href="#DejaVuSans-32" x="95.410156"/>
     </g>
    </g>
   </g>
   <g id="xtick_29">
    <g id="line2d_32">
     <path d="M 534.736315 273.250119 
L 542.274576 275.330767 
" style="fill: none; stroke: #000000; stroke-width: 0.8; stroke-linecap: square"/>
    </g>
    <g id="text_32">
     <!-- 0.4 -->
     <g transform="translate(547.888273 279.018695) scale(0.1 -0.1)">
      <use xlink:href="#DejaVuSans-30"/>
      <use xlink:href="#DejaVuSans-2e" x="63.623047"/>
      <use xlink:href="#DejaVuSans-34" x="95.410156"/>
     </g>
    </g>
   </g>
   <g id="xtick_30">
    <g id="line2d_33">
     <path d="M 536.726285 229.325401 
L 544.330711 231.370036 
" style="fill: none; stroke: #000000; stroke-width: 0.8; stroke-linecap: square"/>
    </g>
    <g id="text_33">
     <!-- 0.6 -->
     <g transform="translate(550.054131 235.125684) scale(0.1 -0.1)">
      <use xlink:href="#DejaVuSans-30"/>
      <use xlink:href="#DejaVuSans-2e" x="63.623047"/>
      <use xlink:href="#DejaVuSans-36" x="95.410156"/>
     </g>
    </g>
   </g>
   <g id="xtick_31">
    <g id="line2d_34">
     <path d="M 538.750151 184.652493 
L 546.421912 186.65958 
" style="fill: none; stroke: #000000; stroke-width: 0.8; stroke-linecap: square"/>
    </g>
    <g id="text_34">
     <!-- 0.8 -->
     <g transform="translate(552.256841 190.485832) scale(0.1 -0.1)">
      <use xlink:href="#DejaVuSans-30"/>
      <use xlink:href="#DejaVuSans-2e" x="63.623047"/>
      <use xlink:href="#DejaVuSans-38" x="95.410156"/>
     </g>
    </g>
   </g>
   <g id="xtick_32">
    <g id="line2d_35">
     <path d="M 540.808786 139.212116 
L 548.549085 141.180056 
" style="fill: none; stroke: #000000; stroke-width: 0.8; stroke-linecap: square"/>
    </g>
    <g id="text_35">
     <!-- 1.0 -->
     <g transform="translate(554.497351 145.079916) scale(0.1 -0.1)">
      <use xlink:href="#DejaVuSans-31"/>
      <use xlink:href="#DejaVuSans-2e" x="63.623047"/>
      <use xlink:href="#DejaVuSans-30" x="95.410156"/>
     </g>
    </g>
   </g>
  </g>
  <g id="axes_1">
   <g id="line2d_36">
    <path d="M 174.245544 446.503987 
L 208.288211 433.028017 
L 204.358129 453.781123 
L 224.931837 452.46493 
L 257.596678 439.942114 
L 289.358558 428.026714 
L 319.152275 417.739846 
L 348.991075 407.212918 
L 376.288419 398.923623 
L 405.645086 388.474799 
L 432.604873 380.167686 
L 456.232334 374.991782 
L 479.908485 369.663022 
L 503.98433 363.822422 
" clip-path="url(#p6a2a33ca3d)" style="fill: none; stroke: #ff0000; stroke-width: 1.5; stroke-linecap: square"/>
   </g>
   <g id="Poly3DCollection_1">
    <path d="M 236.095561 291.333099 
L 209.2547 307.152617 
L 249.221731 300.308062 
z
" clip-path="url(#p6a2a33ca3d)" style="fill: #e7f1fa"/>
    <path d="M 262.140382 275.633715 
L 249.221731 300.308062 
L 222.622635 322.134785 
z
" clip-path="url(#p6a2a33ca3d)" style="fill: #ddeaf7"/>
    <path d="M 209.2547 307.152617 
L 222.622635 322.134785 
L 249.221731 300.308062 
z
" clip-path="url(#p6a2a33ca3d)" style="fill: #eaf3fb"/>
    <path d="M 262.140382 275.633715 
L 249.031673 317.698012 
L 275.493214 301.585366 
z
" clip-path="url(#p6a2a33ca3d)" style="fill: #cee0f2"/>
    <path d="M 249.031673 317.698012 
L 288.723065 293.181158 
L 275.493214 301.585366 
z
" clip-path="url(#p6a2a33ca3d)" style="fill: #d6e5f4"/>
    <path d="M 218.02229 327.019263 
L 222.622635 322.134785 
L 209.2547 307.152617 
z
" clip-path="url(#p6a2a33ca3d)" style="fill: #eaf3fb"/>
    <path d="M 218.02229 327.019263 
L 209.2547 307.152617 
L 204.548848 307.70767 
z
" clip-path="url(#p6a2a33ca3d)" style="fill: #dfebf7"/>
    <path d="M 262.140382 275.633715 
L 222.622635 322.134785 
L 235.14953 268.446956 
z
" clip-path="url(#p6a2a33ca3d)" style="fill: #9fcae1"/>
    <path d="M 262.376691 315.935109 
L 288.723065 293.181158 
L 249.031673 317.698012 
z
" clip-path="url(#p6a2a33ca3d)" style="fill: #ccdff1"/>
    <path d="M 235.14953 268.446956 
L 249.031673 317.698012 
L 262.140382 275.633715 
z
" clip-path="url(#p6a2a33ca3d)" style="fill: #8abfdd"/>
    <path d="M 302.068455 296.512326 
L 288.723065 293.181158 
L 275.703793 290.197002 
z
" clip-path="url(#p6a2a33ca3d)" style="fill: #a1cbe2"/>
    <path d="M 235.14953 268.446956 
L 222.622635 322.134785 
L 218.02229 327.019263 
z
" clip-path="url(#p6a2a33ca3d)" style="fill: #c6dbef"/>
    <path d="M 204.548848 307.70767 
L 186.631654 320.057467 
L 218.02229 327.019263 
z
" clip-path="url(#p6a2a33ca3d)" style="fill: #dae8f6"/>
    <path d="M 275.703793 290.197002 
L 315.522777 285.197248 
L 302.068455 296.512326 
z
" clip-path="url(#p6a2a33ca3d)" style="fill: #87bddc"/>
    <path d="M 186.631654 320.057467 
L 200.28788 342.00408 
L 218.02229 327.019263 
z
" clip-path="url(#p6a2a33ca3d)" style="fill: #e7f0fa"/>
    <path d="M 275.703793 290.197002 
L 288.723065 293.181158 
L 262.376691 315.935109 
z
" clip-path="url(#p6a2a33ca3d)" style="fill: #a1cbe2"/>
    <path d="M 249.031673 317.698012 
L 244.474014 324.515334 
L 257.834004 323.747615 
z
" clip-path="url(#p6a2a33ca3d)" style="fill: #d6e5f4"/>
    <path d="M 329.019624 290.677467 
L 315.522777 285.197248 
L 302.941166 331.136744 
z
" clip-path="url(#p6a2a33ca3d)" style="fill: #a5cde3"/>
    <path d="M 257.834004 323.747615 
L 262.376691 315.935109 
L 249.031673 317.698012 
z
" clip-path="url(#p6a2a33ca3d)" style="fill: #cfe1f2"/>
    <path d="M 330.175983 355.873025 
L 369.43112 336.109812 
L 355.83622 332.045616 
z
" clip-path="url(#p6a2a33ca3d)" style="fill: #f6faff"/>
    <path d="M 230.616117 281.103721 
L 244.474014 324.515334 
L 249.031673 317.698012 
z
" clip-path="url(#p6a2a33ca3d)" style="fill: #b3d3e8"/>
    <path d="M 218.02229 327.019263 
L 230.616117 281.103721 
L 235.14953 268.446956 
z
" clip-path="url(#p6a2a33ca3d)" style="fill: #7fb9da"/>
    <path d="M 355.83622 332.045616 
L 342.638723 287.867467 
L 330.175983 355.873025 
z
" clip-path="url(#p6a2a33ca3d)" style="fill: #d6e5f4"/>
    <path d="M 302.941166 331.136744 
L 342.638723 287.867467 
L 329.019624 290.677467 
z
" clip-path="url(#p6a2a33ca3d)" style="fill: #9fcae1"/>
    <path d="M 235.14953 268.446956 
L 230.616117 281.103721 
L 249.031673 317.698012 
z
" clip-path="url(#p6a2a33ca3d)" style="fill: #69add5"/>
    <path d="M 383.103731 339.162995 
L 369.43112 336.109812 
L 343.89405 359.815967 
z
" clip-path="url(#p6a2a33ca3d)" style="fill: #f5fafe"/>
    <path d="M 315.522777 285.197248 
L 289.352759 320.07469 
L 302.941166 331.136744 
z
" clip-path="url(#p6a2a33ca3d)" style="fill: #b3d3e8"/>
    <path d="M 200.28788 342.00408 
L 212.636548 287.457658 
L 218.02229 327.019263 
z
" clip-path="url(#p6a2a33ca3d)" style="fill: #c7dbef"/>
    <path d="M 275.703793 290.197002 
L 289.352759 320.07469 
L 315.522777 285.197248 
z
" clip-path="url(#p6a2a33ca3d)" style="fill: #82bbdb"/>
    <path d="M 188.597271 351.283971 
L 200.28788 342.00408 
L 186.631654 320.057467 
z
" clip-path="url(#p6a2a33ca3d)" style="fill: #e6f0f9"/>
    <path d="M 275.703793 290.197002 
L 262.376691 315.935109 
L 257.834004 323.747615 
z
" clip-path="url(#p6a2a33ca3d)" style="fill: #a6cee4"/>
    <path d="M 218.02229 327.019263 
L 212.636548 287.457658 
L 230.616117 281.103721 
z
" clip-path="url(#p6a2a33ca3d)" style="fill: #7fb9da"/>
    <path d="M 316.523657 351.15209 
L 342.638723 287.867467 
L 302.941166 331.136744 
z
" clip-path="url(#p6a2a33ca3d)" style="fill: #c8dcf0"/>
    <path d="M 330.175983 355.873025 
L 342.638723 287.867467 
L 316.523657 351.15209 
z
" clip-path="url(#p6a2a33ca3d)" style="fill: #d6e5f4"/>
    <path d="M 330.175983 355.873025 
L 343.89405 359.815967 
L 369.43112 336.109812 
z
" clip-path="url(#p6a2a33ca3d)" style="fill: #f7fbff"/>
    <path d="M 371.514225 368.237198 
L 396.803949 344.29292 
L 383.103731 339.162995 
z
" clip-path="url(#p6a2a33ca3d)" style="fill: #f6faff"/>
    <path d="M 244.474014 324.515334 
L 240.000655 315.395216 
L 257.834004 323.747615 
z
" clip-path="url(#p6a2a33ca3d)" style="fill: #bfd8ed"/>
    <path d="M 230.616117 281.103721 
L 212.636548 287.457658 
L 244.474014 324.515334 
z
" clip-path="url(#p6a2a33ca3d)" style="fill: #6dafd7"/>
    <path d="M 188.597271 351.283971 
L 186.631654 320.057467 
L 174.666452 321.679689 
z
" clip-path="url(#p6a2a33ca3d)" style="fill: #d1e2f3"/>
    <path d="M 289.352759 320.07469 
L 284.821326 325.99347 
L 302.941166 331.136744 
z
" clip-path="url(#p6a2a33ca3d)" style="fill: #c4daee"/>
    <path d="M 302.941166 331.136744 
L 312.050027 354.422231 
L 316.523657 351.15209 
z
" clip-path="url(#p6a2a33ca3d)" style="fill: #e7f1fa"/>
    <path d="M 244.474014 324.515334 
L 212.636548 287.457658 
L 226.827755 337.962732 
z
" clip-path="url(#p6a2a33ca3d)" style="fill: #a9cfe5"/>
    <path d="M 371.514225 368.237198 
L 410.698034 343.109108 
L 396.803949 344.29292 
z
" clip-path="url(#p6a2a33ca3d)" style="fill: #f2f8fd"/>
    <path d="M 257.834004 323.747615 
L 271.113747 292.305025 
L 275.703793 290.197002 
z
" clip-path="url(#p6a2a33ca3d)" style="fill: #74b3d8"/>
    <path d="M 226.827755 337.962732 
L 240.000655 315.395216 
L 244.474014 324.515334 
z
" clip-path="url(#p6a2a33ca3d)" style="fill: #c3daee"/>
    <path d="M 275.703793 290.197002 
L 284.821326 325.99347 
L 289.352759 320.07469 
z
" clip-path="url(#p6a2a33ca3d)" style="fill: #99c7e0"/>
    <path d="M 343.89405 359.815967 
L 357.673755 363.93708 
L 383.103731 339.162995 
z
" clip-path="url(#p6a2a33ca3d)" style="fill: #f5fafe"/>
    <path d="M 325.721843 359.914937 
L 330.175983 355.873025 
L 316.523657 351.15209 
z
" clip-path="url(#p6a2a33ca3d)" style="fill: #f6faff"/>
    <path d="M 316.523657 351.15209 
L 312.050027 354.422231 
L 325.721843 359.914937 
z
" clip-path="url(#p6a2a33ca3d)" style="fill: #f5fafe"/>
    <path d="M 383.103731 339.162995 
L 357.673755 363.93708 
L 371.514225 368.237198 
z
" clip-path="url(#p6a2a33ca3d)" style="fill: #f6faff"/>
    <path d="M 271.113747 292.305025 
L 284.821326 325.99347 
L 275.703793 290.197002 
z
" clip-path="url(#p6a2a33ca3d)" style="fill: #6aaed6"/>
    <path d="M 302.941166 331.136744 
L 284.821326 325.99347 
L 298.42813 312.572741 
z
" clip-path="url(#p6a2a33ca3d)" style="fill: #b0d2e7"/>
    <path d="M 298.42813 312.572741 
L 312.050027 354.422231 
L 302.941166 331.136744 
z
" clip-path="url(#p6a2a33ca3d)" style="fill: #c9ddf0"/>
    <path d="M 257.834004 323.747615 
L 240.000655 315.395216 
L 271.113747 292.305025 
z
" clip-path="url(#p6a2a33ca3d)" style="fill: #85bcdc"/>
    <path d="M 343.89405 359.815967 
L 330.175983 355.873025 
L 325.721843 359.914937 
z
" clip-path="url(#p6a2a33ca3d)" style="fill: #f7fbff"/>
    <path d="M 200.28788 342.00408 
L 188.597271 351.283971 
L 200.531088 279.417806 
z
" clip-path="url(#p6a2a33ca3d)" style="fill: #afd1e7"/>
    <path d="M 424.585614 345.927047 
L 410.698034 343.109108 
L 399.386503 376.735293 
z
" clip-path="url(#p6a2a33ca3d)" style="fill: #eef5fc"/>
    <path d="M 325.721843 359.914937 
L 339.461162 363.836984 
L 343.89405 359.815967 
z
" clip-path="url(#p6a2a33ca3d)" style="fill: #f7fbff"/>
    <path d="M 399.386503 376.735293 
L 438.325082 356.775222 
L 424.585614 345.927047 
z
" clip-path="url(#p6a2a33ca3d)" style="fill: #f2f7fd"/>
    <path d="M 357.673755 363.93708 
L 343.89405 359.815967 
L 339.461162 363.836984 
z
" clip-path="url(#p6a2a33ca3d)" style="fill: #f6faff"/>
    <path d="M 284.821326 325.99347 
L 281.152049 366.29893 
L 298.42813 312.572741 
z
" clip-path="url(#p6a2a33ca3d)" style="fill: #c4daee"/>
    <path d="M 325.721843 359.914937 
L 312.050027 354.422231 
L 294.845396 369.278475 
z
" clip-path="url(#p6a2a33ca3d)" style="fill: #f4f9fe"/>
    <path d="M 298.42813 312.572741 
L 281.152049 366.29893 
L 312.050027 354.422231 
z
" clip-path="url(#p6a2a33ca3d)" style="fill: #d6e5f4"/>
    <path d="M 267.408529 344.08017 
L 281.152049 366.29893 
L 284.821326 325.99347 
z
" clip-path="url(#p6a2a33ca3d)" style="fill: #d5e5f4"/>
    <path d="M 385.591291 362.272126 
L 410.698034 343.109108 
L 371.514225 368.237198 
z
" clip-path="url(#p6a2a33ca3d)" style="fill: #eaf3fb"/>
    <path d="M 200.531088 279.417806 
L 212.636548 287.457658 
L 200.28788 342.00408 
z
" clip-path="url(#p6a2a33ca3d)" style="fill: #58a1cf"/>
    <path d="M 284.821326 325.99347 
L 271.113747 292.305025 
L 253.464869 303.01377 
z
" clip-path="url(#p6a2a33ca3d)" style="fill: #63a8d3"/>
    <path d="M 281.152049 366.29893 
L 294.845396 369.278475 
L 312.050027 354.422231 
z
" clip-path="url(#p6a2a33ca3d)" style="fill: #f3f8fe"/>
    <path d="M 353.262293 367.976734 
L 357.673755 363.93708 
L 339.461162 363.836984 
z
" clip-path="url(#p6a2a33ca3d)" style="fill: #f6faff"/>
    <path d="M 174.666452 321.679689 
L 141.439469 341.909194 
L 188.597271 351.283971 
z
" clip-path="url(#p6a2a33ca3d)" style="fill: #c4daee"/>
    <path d="M 371.514225 368.237198 
L 357.673755 363.93708 
L 353.262293 367.976734 
z
" clip-path="url(#p6a2a33ca3d)" style="fill: #f7fbff"/>
    <path d="M 452.293314 360.881467 
L 438.325082 356.775222 
L 427.518417 385.150229 
z
" clip-path="url(#p6a2a33ca3d)" style="fill: #f7fbff"/>
    <path d="M 399.386503 376.735293 
L 410.698034 343.109108 
L 385.591291 362.272126 
z
" clip-path="url(#p6a2a33ca3d)" style="fill: #eaf3fb"/>
    <path d="M 322.418798 379.993437 
L 339.461162 363.836984 
L 325.721843 359.914937 
z
" clip-path="url(#p6a2a33ca3d)" style="fill: #f7fbff"/>
    <path d="M 253.464869 303.01377 
L 267.408529 344.08017 
L 284.821326 325.99347 
z
" clip-path="url(#p6a2a33ca3d)" style="fill: #97c6df"/>
    <path d="M 200.531088 279.417806 
L 215.185127 345.869928 
L 226.827755 337.962732 
z
" clip-path="url(#p6a2a33ca3d)" style="fill: #89bedc"/>
    <path d="M 226.827755 337.962732 
L 215.185127 345.869928 
L 228.154844 308.988829 
z
" clip-path="url(#p6a2a33ca3d)" style="fill: #a9cfe5"/>
    <path d="M 226.827755 337.962732 
L 212.636548 287.457658 
L 200.531088 279.417806 
z
" clip-path="url(#p6a2a33ca3d)" style="fill: #4896c8"/>
    <path d="M 325.721843 359.914937 
L 294.845396 369.278475 
L 308.601853 375.564997 
z
" clip-path="url(#p6a2a33ca3d)" style="fill: #f5fafe"/>
    <path d="M 353.262293 367.976734 
L 367.121377 372.534915 
L 371.514225 368.237198 
z
" clip-path="url(#p6a2a33ca3d)" style="fill: #f7fbff"/>
    <path d="M 228.154844 308.988829 
L 240.000655 315.395216 
L 226.827755 337.962732 
z
" clip-path="url(#p6a2a33ca3d)" style="fill: #84bcdb"/>
    <path d="M 271.113747 292.305025 
L 240.000655 315.395216 
L 253.464869 303.01377 
z
" clip-path="url(#p6a2a33ca3d)" style="fill: #4b98ca"/>
    <path d="M 427.518417 385.150229 
L 466.325321 365.00646 
L 452.293314 360.881467 
z
" clip-path="url(#p6a2a33ca3d)" style="fill: #f7fbff"/>
    <path d="M 413.420067 380.933072 
L 438.325082 356.775222 
L 399.386503 376.735293 
z
" clip-path="url(#p6a2a33ca3d)" style="fill: #f7fbff"/>
    <path d="M 308.601853 375.564997 
L 322.418798 379.993437 
L 325.721843 359.914937 
z
" clip-path="url(#p6a2a33ca3d)" style="fill: #f7fbff"/>
    <path d="M 339.461162 363.836984 
L 336.299936 384.206253 
L 353.262293 367.976734 
z
" clip-path="url(#p6a2a33ca3d)" style="fill: #f7fbff"/>
    <path d="M 381.048396 376.713348 
L 371.514225 368.237198 
L 367.121377 372.534915 
z
" clip-path="url(#p6a2a33ca3d)" style="fill: #f7fbff"/>
    <path d="M 281.152049 366.29893 
L 269.774017 377.057787 
L 294.845396 369.278475 
z
" clip-path="url(#p6a2a33ca3d)" style="fill: #f4f9fe"/>
    <path d="M 200.531088 279.417806 
L 188.597271 351.283971 
L 155.899339 379.141572 
z
" clip-path="url(#p6a2a33ca3d)" style="fill: #aed1e7"/>
    <path d="M 255.889629 348.75816 
L 281.152049 366.29893 
L 267.408529 344.08017 
z
" clip-path="url(#p6a2a33ca3d)" style="fill: #d3e4f3"/>
    <path d="M 385.591291 362.272126 
L 371.514225 368.237198 
L 381.048396 376.713348 
z
" clip-path="url(#p6a2a33ca3d)" style="fill: #eff6fc"/>
    <path d="M 427.518417 385.150229 
L 438.325082 356.775222 
L 413.420067 380.933072 
z
" clip-path="url(#p6a2a33ca3d)" style="fill: #f7fbff"/>
    <path d="M 141.439469 341.909194 
L 155.899339 379.141572 
L 188.597271 351.283971 
z
" clip-path="url(#p6a2a33ca3d)" style="fill: #d9e7f5"/>
    <path d="M 336.299936 384.206253 
L 367.121377 372.534915 
L 353.262293 367.976734 
z
" clip-path="url(#p6a2a33ca3d)" style="fill: #f7fbff"/>
    <path d="M 455.926237 393.158485 
L 480.441234 368.595859 
L 466.325321 365.00646 
z
" clip-path="url(#p6a2a33ca3d)" style="fill: #f6faff"/>
    <path d="M 255.889629 348.75816 
L 269.774017 377.057787 
L 281.152049 366.29893 
z
" clip-path="url(#p6a2a33ca3d)" style="fill: #e2edf8"/>
    <path d="M 322.418798 379.993437 
L 336.299936 384.206253 
L 339.461162 363.836984 
z
" clip-path="url(#p6a2a33ca3d)" style="fill: #f7fbff"/>
    <path d="M 381.048396 376.713348 
L 399.386503 376.735293 
L 385.591291 362.272126 
z
" clip-path="url(#p6a2a33ca3d)" style="fill: #eff6fc"/>
    <path d="M 255.889629 348.75816 
L 267.408529 344.08017 
L 253.464869 303.01377 
z
" clip-path="url(#p6a2a33ca3d)" style="fill: #92c4de"/>
    <path d="M 253.464869 303.01377 
L 242.427671 364.498675 
L 255.889629 348.75816 
z
" clip-path="url(#p6a2a33ca3d)" style="fill: #a8cee4"/>
    <path d="M 253.464869 303.01377 
L 240.000655 315.395216 
L 228.154844 308.988829 
z
" clip-path="url(#p6a2a33ca3d)" style="fill: #4594c7"/>
    <path d="M 294.845396 369.278475 
L 269.774017 377.057787 
L 283.508238 378.003613 
z
" clip-path="url(#p6a2a33ca3d)" style="fill: #f2f7fd"/>
    <path d="M 395.03956 380.911025 
L 399.386503 376.735293 
L 381.048396 376.713348 
z
" clip-path="url(#p6a2a33ca3d)" style="fill: #f7fbff"/>
    <path d="M 297.326084 386.131357 
L 308.601853 375.564997 
L 294.845396 369.278475 
z
" clip-path="url(#p6a2a33ca3d)" style="fill: #f5fafe"/>
    <path d="M 228.154844 308.988829 
L 242.427671 364.498675 
L 253.464869 303.01377 
z
" clip-path="url(#p6a2a33ca3d)" style="fill: #75b4d8"/>
    <path d="M 494.582414 373.313207 
L 480.441234 368.595859 
L 455.926237 393.158485 
z
" clip-path="url(#p6a2a33ca3d)" style="fill: #f6faff"/>
    <path d="M 381.048396 376.713348 
L 367.121377 372.534915 
L 350.245271 388.438552 
z
" clip-path="url(#p6a2a33ca3d)" style="fill: #f7fbff"/>
    <path d="M 427.518417 385.150229 
L 441.682002 389.3869 
L 466.325321 365.00646 
z
" clip-path="url(#p6a2a33ca3d)" style="fill: #f7fbff"/>
    <path d="M 294.845396 369.278475 
L 283.508238 378.003613 
L 297.326084 386.131357 
z
" clip-path="url(#p6a2a33ca3d)" style="fill: #f2f8fd"/>
    <path d="M 322.418798 379.993437 
L 308.601853 375.564997 
L 297.326084 386.131357 
z
" clip-path="url(#p6a2a33ca3d)" style="fill: #f7fbff"/>
    <path d="M 399.386503 376.735293 
L 395.03956 380.911025 
L 409.095313 385.128081 
z
" clip-path="url(#p6a2a33ca3d)" style="fill: #f7fbff"/>
    <path d="M 409.095313 385.128081 
L 413.420067 380.933072 
L 399.386503 376.735293 
z
" clip-path="url(#p6a2a33ca3d)" style="fill: #f7fbff"/>
    <path d="M 350.245271 388.438552 
L 367.121377 372.534915 
L 336.299936 384.206253 
z
" clip-path="url(#p6a2a33ca3d)" style="fill: #f7fbff"/>
    <path d="M 182.6082 371.46485 
L 215.185127 345.869928 
L 200.531088 279.417806 
z
" clip-path="url(#p6a2a33ca3d)" style="fill: #81badb"/>
    <path d="M 228.154844 308.988829 
L 215.185127 345.869928 
L 182.6082 371.46485 
z
" clip-path="url(#p6a2a33ca3d)" style="fill: #a3cce3"/>
    <path d="M 466.325321 365.00646 
L 441.682002 389.3869 
L 455.926237 393.158485 
z
" clip-path="url(#p6a2a33ca3d)" style="fill: #f7fbff"/>
    <path d="M 427.518417 385.150229 
L 413.420067 380.933072 
L 409.095313 385.128081 
z
" clip-path="url(#p6a2a33ca3d)" style="fill: #f7fbff"/>
    <path d="M 210.319414 396.94189 
L 255.889629 348.75816 
L 242.427671 364.498675 
z
" clip-path="url(#p6a2a33ca3d)" style="fill: #dfebf7"/>
    <path d="M 242.427671 364.498675 
L 228.154844 308.988829 
L 210.319414 396.94189 
z
" clip-path="url(#p6a2a33ca3d)" style="fill: #c7dbef"/>
    <path d="M 336.299936 384.206253 
L 322.418798 379.993437 
L 311.195903 390.372575 
z
" clip-path="url(#p6a2a33ca3d)" style="fill: #f7fbff"/>
    <path d="M 378.330321 396.962144 
L 395.03956 380.911025 
L 381.048396 376.713348 
z
" clip-path="url(#p6a2a33ca3d)" style="fill: #f7fbff"/>
    <path d="M 297.326084 386.131357 
L 311.195903 390.372575 
L 322.418798 379.993437 
z
" clip-path="url(#p6a2a33ca3d)" style="fill: #f7fbff"/>
    <path d="M 350.245271 388.438552 
L 364.255249 392.69047 
L 381.048396 376.713348 
z
" clip-path="url(#p6a2a33ca3d)" style="fill: #f7fbff"/>
    <path d="M 409.095313 385.128081 
L 423.216103 389.364649 
L 427.518417 385.150229 
z
" clip-path="url(#p6a2a33ca3d)" style="fill: #f7fbff"/>
    <path d="M 455.926237 393.158485 
L 470.206697 397.919327 
L 494.582414 373.313207 
z
" clip-path="url(#p6a2a33ca3d)" style="fill: #f7fbff"/>
    <path d="M 381.048396 376.713348 
L 364.255249 392.69047 
L 378.330321 396.962144 
z
" clip-path="url(#p6a2a33ca3d)" style="fill: #f7fbff"/>
    <path d="M 237.909023 406.378918 
L 269.774017 377.057787 
L 255.889629 348.75816 
z
" clip-path="url(#p6a2a33ca3d)" style="fill: #e3eef8"/>
    <path d="M 395.03956 380.911025 
L 392.470942 401.253711 
L 409.095313 385.128081 
z
" clip-path="url(#p6a2a33ca3d)" style="fill: #f7fbff"/>
    <path d="M 427.518417 385.150229 
L 423.216103 389.364649 
L 437.402384 393.620866 
z
" clip-path="url(#p6a2a33ca3d)" style="fill: #f7fbff"/>
    <path d="M 437.402384 393.620866 
L 441.682002 389.3869 
L 427.518417 385.150229 
z
" clip-path="url(#p6a2a33ca3d)" style="fill: #f7fbff"/>
    <path d="M 336.299936 384.206253 
L 311.195903 390.372575 
L 325.130084 394.633473 
z
" clip-path="url(#p6a2a33ca3d)" style="fill: #f7fbff"/>
    <path d="M 336.299936 384.206253 
L 339.129074 398.91419 
L 350.245271 388.438552 
z
" clip-path="url(#p6a2a33ca3d)" style="fill: #f7fbff"/>
    <path d="M 283.508238 378.003613 
L 269.774017 377.057787 
L 251.742976 405.314654 
z
" clip-path="url(#p6a2a33ca3d)" style="fill: #eff6fc"/>
    <path d="M 409.095313 385.128081 
L 392.470942 401.253711 
L 423.216103 389.364649 
z
" clip-path="url(#p6a2a33ca3d)" style="fill: #f7fbff"/>
    <path d="M 455.926237 393.158485 
L 441.682002 389.3869 
L 437.402384 393.620866 
z
" clip-path="url(#p6a2a33ca3d)" style="fill: #f7fbff"/>
    <path d="M 325.130084 394.633473 
L 339.129074 398.91419 
L 336.299936 384.206253 
z
" clip-path="url(#p6a2a33ca3d)" style="fill: #f7fbff"/>
    <path d="M 378.330321 396.962144 
L 392.470942 401.253711 
L 395.03956 380.911025 
z
" clip-path="url(#p6a2a33ca3d)" style="fill: #f7fbff"/>
    <path d="M 350.245271 388.438552 
L 339.129074 398.91419 
L 364.255249 392.69047 
z
" clip-path="url(#p6a2a33ca3d)" style="fill: #f7fbff"/>
    <path d="M 297.326084 386.131357 
L 283.508238 378.003613 
L 251.742976 405.314654 
z
" clip-path="url(#p6a2a33ca3d)" style="fill: #f0f6fd"/>
    <path d="M 228.154844 308.988829 
L 182.6082 371.46485 
L 196.149141 369.039356 
z
" clip-path="url(#p6a2a33ca3d)" style="fill: #95c5df"/>
    <path d="M 437.402384 393.620866 
L 451.672778 397.292332 
L 455.926237 393.158485 
z
" clip-path="url(#p6a2a33ca3d)" style="fill: #f6faff"/>
    <path d="M 210.319414 396.94189 
L 228.154844 308.988829 
L 196.149141 369.039356 
z
" clip-path="url(#p6a2a33ca3d)" style="fill: #aed1e7"/>
    <path d="M 200.531088 279.417806 
L 155.899339 379.141572 
L 166.928131 286.056478 
z
" clip-path="url(#p6a2a33ca3d)" style="fill: #2b7bba"/>
    <path d="M 297.326084 386.131357 
L 265.742946 415.07043 
L 311.195903 390.372575 
z
" clip-path="url(#p6a2a33ca3d)" style="fill: #f7fbff"/>
    <path d="M 437.402384 393.620866 
L 423.216103 389.364649 
L 420.95067 409.897084 
z
" clip-path="url(#p6a2a33ca3d)" style="fill: #f7fbff"/>
    <path d="M 223.64011 371.682346 
L 255.889629 348.75816 
L 210.319414 396.94189 
z
" clip-path="url(#p6a2a33ca3d)" style="fill: #cbdef1"/>
    <path d="M 465.973245 402.192795 
L 470.206697 397.919327 
L 455.926237 393.158485 
z
" clip-path="url(#p6a2a33ca3d)" style="fill: #f7fbff"/>
    <path d="M 455.926237 393.158485 
L 451.672778 397.292332 
L 465.973245 402.192795 
z
" clip-path="url(#p6a2a33ca3d)" style="fill: #f6faff"/>
    <path d="M 364.255249 392.69047 
L 339.129074 398.91419 
L 353.193329 403.214863 
z
" clip-path="url(#p6a2a33ca3d)" style="fill: #f7fbff"/>
    <path d="M 392.470942 401.253711 
L 406.677571 405.565311 
L 423.216103 389.364649 
z
" clip-path="url(#p6a2a33ca3d)" style="fill: #f7fbff"/>
    <path d="M 251.742976 405.314654 
L 269.774017 377.057787 
L 237.909023 406.378918 
z
" clip-path="url(#p6a2a33ca3d)" style="fill: #f2f8fd"/>
    <path d="M 367.323304 407.535633 
L 378.330321 396.962144 
L 364.255249 392.69047 
z
" clip-path="url(#p6a2a33ca3d)" style="fill: #f7fbff"/>
    <path d="M 101.139913 427.549141 
L 155.899339 379.141572 
L 141.439469 341.909194 
z
" clip-path="url(#p6a2a33ca3d)" style="fill: #dae8f6"/>
    <path d="M 166.928131 286.056478 
L 182.6082 371.46485 
L 200.531088 279.417806 
z
" clip-path="url(#p6a2a33ca3d)" style="fill: #1c6ab0"/>
    <path d="M 420.95067 409.897084 
L 451.672778 397.292332 
L 437.402384 393.620866 
z
" clip-path="url(#p6a2a33ca3d)" style="fill: #f7fbff"/>
    <path d="M 255.889629 348.75816 
L 223.64011 371.682346 
L 237.909023 406.378918 
z
" clip-path="url(#p6a2a33ca3d)" style="fill: #ccdff1"/>
    <path d="M 364.255249 392.69047 
L 353.193329 403.214863 
L 367.323304 407.535633 
z
" clip-path="url(#p6a2a33ca3d)" style="fill: #f7fbff"/>
    <path d="M 420.95067 409.897084 
L 423.216103 389.364649 
L 406.677571 405.565311 
z
" clip-path="url(#p6a2a33ca3d)" style="fill: #f7fbff"/>
    <path d="M 392.470942 401.253711 
L 378.330321 396.962144 
L 367.323304 407.535633 
z
" clip-path="url(#p6a2a33ca3d)" style="fill: #f7fbff"/>
    <path d="M 293.839288 423.843887 
L 325.130084 394.633473 
L 311.195903 390.372575 
z
" clip-path="url(#p6a2a33ca3d)" style="fill: #f7fbff"/>
    <path d="M 251.742976 405.314654 
L 265.742946 415.07043 
L 297.326084 386.131357 
z
" clip-path="url(#p6a2a33ca3d)" style="fill: #f3f8fe"/>
    <path d="M 465.973245 402.192795 
L 451.672778 397.292332 
L 435.309936 413.534734 
z
" clip-path="url(#p6a2a33ca3d)" style="fill: #f6faff"/>
    <path d="M 339.129074 398.91419 
L 325.130084 394.633473 
L 293.839288 423.843887 
z
" clip-path="url(#p6a2a33ca3d)" style="fill: #f7fbff"/>
    <path d="M 406.677571 405.565311 
L 392.470942 401.253711 
L 381.519462 411.87664 
z
" clip-path="url(#p6a2a33ca3d)" style="fill: #f7fbff"/>
    <path d="M 367.323304 407.535633 
L 381.519462 411.87664 
L 392.470942 401.253711 
z
" clip-path="url(#p6a2a33ca3d)" style="fill: #f7fbff"/>
    <path d="M 420.95067 409.897084 
L 435.309936 413.534734 
L 451.672778 397.292332 
z
" clip-path="url(#p6a2a33ca3d)" style="fill: #f6faff"/>
    <path d="M 265.742946 415.07043 
L 279.758083 419.446843 
L 311.195903 390.372575 
z
" clip-path="url(#p6a2a33ca3d)" style="fill: #f7fbff"/>
    <path d="M 420.95067 409.897084 
L 406.677571 405.565311 
L 395.782269 416.238028 
z
" clip-path="url(#p6a2a33ca3d)" style="fill: #f7fbff"/>
    <path d="M 311.195903 390.372575 
L 279.758083 419.446843 
L 293.839288 423.843887 
z
" clip-path="url(#p6a2a33ca3d)" style="fill: #f7fbff"/>
    <path d="M 406.677571 405.565311 
L 381.519462 411.87664 
L 395.782269 416.238028 
z
" clip-path="url(#p6a2a33ca3d)" style="fill: #f7fbff"/>
    <path d="M 166.928131 286.056478 
L 155.899339 379.141572 
L 114.859582 431.984508 
z
" clip-path="url(#p6a2a33ca3d)" style="fill: #94c4df"/>
    <path d="M 339.129074 398.91419 
L 322.201778 432.700452 
L 353.193329 403.214863 
z
" clip-path="url(#p6a2a33ca3d)" style="fill: #f7fbff"/>
    <path d="M 435.309936 413.534734 
L 449.698156 418.621719 
L 465.973245 402.192795 
z
" clip-path="url(#p6a2a33ca3d)" style="fill: #f7fbff"/>
    <path d="M 196.149141 369.039356 
L 182.6082 371.46485 
L 142.494717 440.918538 
z
" clip-path="url(#p6a2a33ca3d)" style="fill: #d6e5f4"/>
    <path d="M 155.899339 379.141572 
L 101.139913 427.549141 
L 114.859582 431.984508 
z
" clip-path="url(#p6a2a33ca3d)" style="fill: #f6faff"/>
    <path d="M 196.149141 369.039356 
L 142.494717 440.918538 
L 210.319414 396.94189 
z
" clip-path="url(#p6a2a33ca3d)" style="fill: #e3eef9"/>
    <path d="M 367.323304 407.535633 
L 353.193329 403.214863 
L 322.201778 432.700452 
z
" clip-path="url(#p6a2a33ca3d)" style="fill: #f7fbff"/>
    <path d="M 395.782269 416.238028 
L 410.112195 420.619941 
L 420.95067 409.897084 
z
" clip-path="url(#p6a2a33ca3d)" style="fill: #f7fbff"/>
    <path d="M 114.859582 431.984508 
L 182.6082 371.46485 
L 166.928131 286.056478 
z
" clip-path="url(#p6a2a33ca3d)" style="fill: #7ab6d9"/>
    <path d="M 424.534317 424.032 
L 435.309936 413.534734 
L 420.95067 409.897084 
z
" clip-path="url(#p6a2a33ca3d)" style="fill: #f6faff"/>
    <path d="M 293.839288 423.843887 
L 307.987029 428.261707 
L 339.129074 398.91419 
z
" clip-path="url(#p6a2a33ca3d)" style="fill: #f7fbff"/>
    <path d="M 420.95067 409.897084 
L 410.112195 420.619941 
L 424.534317 424.032 
z
" clip-path="url(#p6a2a33ca3d)" style="fill: #f6faff"/>
    <path d="M 381.519462 411.87664 
L 367.323304 407.535633 
L 336.484013 437.160269 
z
" clip-path="url(#p6a2a33ca3d)" style="fill: #f7fbff"/>
    <path d="M 307.987029 428.261707 
L 322.201778 432.700452 
L 339.129074 398.91419 
z
" clip-path="url(#p6a2a33ca3d)" style="fill: #f7fbff"/>
    <path d="M 170.394033 449.937974 
L 223.64011 371.682346 
L 210.319414 396.94189 
z
" clip-path="url(#p6a2a33ca3d)" style="fill: #dfebf7"/>
    <path d="M 438.975309 429.44592 
L 449.698156 418.621719 
L 435.309936 413.534734 
z
" clip-path="url(#p6a2a33ca3d)" style="fill: #f7fbff"/>
    <path d="M 114.859582 431.984508 
L 128.644362 436.440923 
L 182.6082 371.46485 
z
" clip-path="url(#p6a2a33ca3d)" style="fill: #e9f2fa"/>
    <path d="M 435.309936 413.534734 
L 424.534317 424.032 
L 438.975309 429.44592 
z
" clip-path="url(#p6a2a33ca3d)" style="fill: #f6faff"/>
    <path d="M 182.6082 371.46485 
L 128.644362 436.440923 
L 142.494717 440.918538 
z
" clip-path="url(#p6a2a33ca3d)" style="fill: #e9f2fa"/>
    <path d="M 251.742976 405.314654 
L 237.909023 406.378918 
L 184.443945 454.480103 
z
" clip-path="url(#p6a2a33ca3d)" style="fill: #f3f8fe"/>
    <path d="M 184.443945 454.480103 
L 237.909023 406.378918 
L 223.64011 371.682346 
z
" clip-path="url(#p6a2a33ca3d)" style="fill: #dfebf7"/>
    <path d="M 365.252873 446.143728 
L 395.782269 416.238028 
L 381.519462 411.87664 
z
" clip-path="url(#p6a2a33ca3d)" style="fill: #f7fbff"/>
    <path d="M 336.484013 437.160269 
L 367.323304 407.535633 
L 322.201778 432.700452 
z
" clip-path="url(#p6a2a33ca3d)" style="fill: #f7fbff"/>
    <path d="M 410.112195 420.619941 
L 395.782269 416.238028 
L 365.252873 446.143728 
z
" clip-path="url(#p6a2a33ca3d)" style="fill: #f7fbff"/>
    <path d="M 210.319414 396.94189 
L 142.494717 440.918538 
L 156.411116 445.417504 
z
" clip-path="url(#p6a2a33ca3d)" style="fill: #f7fbff"/>
    <path d="M 336.484013 437.160269 
L 350.834216 441.641311 
L 381.519462 411.87664 
z
" clip-path="url(#p6a2a33ca3d)" style="fill: #f7fbff"/>
    <path d="M 251.742976 405.314654 
L 212.746692 463.629963 
L 265.742946 415.07043 
z
" clip-path="url(#p6a2a33ca3d)" style="fill: #f3f8fe"/>
    <path d="M 156.411116 445.417504 
L 170.394033 449.937974 
L 210.319414 396.94189 
z
" clip-path="url(#p6a2a33ca3d)" style="fill: #f7fbff"/>
    <path d="M 212.746692 463.629963 
L 279.758083 419.446843 
L 265.742946 415.07043 
z
" clip-path="url(#p6a2a33ca3d)" style="fill: #f7fbff"/>
    <path d="M 381.519462 411.87664 
L 350.834216 441.641311 
L 365.252873 446.143728 
z
" clip-path="url(#p6a2a33ca3d)" style="fill: #f7fbff"/>
    <path d="M 394.321487 453.949564 
L 424.534317 424.032 
L 410.112195 420.619941 
z
" clip-path="url(#p6a2a33ca3d)" style="fill: #f5fafe"/>
    <path d="M 408.9245 459.780775 
L 438.975309 429.44592 
L 424.534317 424.032 
z
" clip-path="url(#p6a2a33ca3d)" style="fill: #f6faff"/>
    <path d="M 293.839288 423.843887 
L 279.758083 419.446843 
L 241.323275 472.86835 
z
" clip-path="url(#p6a2a33ca3d)" style="fill: #f7fbff"/>
    <path d="M 410.112195 420.619941 
L 365.252873 446.143728 
L 379.740474 450.667675 
z
" clip-path="url(#p6a2a33ca3d)" style="fill: #f7fbff"/>
    <path d="M 223.64011 371.682346 
L 170.394033 449.937974 
L 184.443945 454.480103 
z
" clip-path="url(#p6a2a33ca3d)" style="fill: #dfebf7"/>
    <path d="M 101.139913 427.549141 
L 141.439469 341.909194 
L 78.058817 198.114208 
z
" clip-path="url(#p6a2a33ca3d)" style="fill: #08306b"/>
    <path d="M 184.443945 454.480103 
L 198.561336 459.044047 
L 251.742976 405.314654 
z
" clip-path="url(#p6a2a33ca3d)" style="fill: #f3f8fe"/>
    <path d="M 379.740474 450.667675 
L 394.321487 453.949564 
L 410.112195 420.619941 
z
" clip-path="url(#p6a2a33ca3d)" style="fill: #f6faff"/>
    <path d="M 255.715499 477.521143 
L 307.987029 428.261707 
L 293.839288 423.843887 
z
" clip-path="url(#p6a2a33ca3d)" style="fill: #f7fbff"/>
    <path d="M 198.561336 459.044047 
L 212.746692 463.629963 
L 251.742976 405.314654 
z
" clip-path="url(#p6a2a33ca3d)" style="fill: #f3f8fe"/>
    <path d="M 255.715499 477.521143 
L 322.201778 432.700452 
L 307.987029 428.261707 
z
" clip-path="url(#p6a2a33ca3d)" style="fill: #f7fbff"/>
    <path d="M 424.534317 424.032 
L 394.321487 453.949564 
L 408.9245 459.780775 
z
" clip-path="url(#p6a2a33ca3d)" style="fill: #f5fafe"/>
    <path d="M 227.000506 468.23801 
L 279.758083 419.446843 
L 212.746692 463.629963 
z
" clip-path="url(#p6a2a33ca3d)" style="fill: #f7fbff"/>
    <path d="M 336.484013 437.160269 
L 322.201778 432.700452 
L 284.710347 486.894749 
z
" clip-path="url(#p6a2a33ca3d)" style="fill: #f7fbff"/>
    <path d="M 241.323275 472.86835 
L 279.758083 419.446843 
L 227.000506 468.23801 
z
" clip-path="url(#p6a2a33ca3d)" style="fill: #f7fbff"/>
    <path d="M 284.710347 486.894749 
L 350.834216 441.641311 
L 336.484013 437.160269 
z
" clip-path="url(#p6a2a33ca3d)" style="fill: #f7fbff"/>
    <path d="M 293.839288 423.843887 
L 241.323275 472.86835 
L 255.715499 477.521143 
z
" clip-path="url(#p6a2a33ca3d)" style="fill: #f7fbff"/>
    <path d="M 365.252873 446.143728 
L 350.834216 441.641311 
L 313.98916 496.360156 
z
" clip-path="url(#p6a2a33ca3d)" style="fill: #f7fbff"/>
    <path d="M 270.177686 482.196554 
L 322.201778 432.700452 
L 255.715499 477.521143 
z
" clip-path="url(#p6a2a33ca3d)" style="fill: #f7fbff"/>
    <path d="M 379.740474 450.667675 
L 365.252873 446.143728 
L 313.98916 496.360156 
z
" clip-path="url(#p6a2a33ca3d)" style="fill: #f7fbff"/>
    <path d="M 284.710347 486.894749 
L 322.201778 432.700452 
L 270.177686 482.196554 
z
" clip-path="url(#p6a2a33ca3d)" style="fill: #f7fbff"/>
    <path d="M 343.556132 505.918721 
L 394.321487 453.949564 
L 379.740474 450.667675 
z
" clip-path="url(#p6a2a33ca3d)" style="fill: #f6faff"/>
    <path d="M 299.313998 491.615893 
L 350.834216 441.641311 
L 284.710347 486.894749 
z
" clip-path="url(#p6a2a33ca3d)" style="fill: #f7fbff"/>
    <path d="M 408.9245 459.780775 
L 394.321487 453.949564 
L 343.556132 505.918721 
z
" clip-path="url(#p6a2a33ca3d)" style="fill: #f6faff"/>
    <path d="M 313.98916 496.360156 
L 350.834216 441.641311 
L 299.313998 491.615893 
z
" clip-path="url(#p6a2a33ca3d)" style="fill: #f7fbff"/>
    <path d="M 313.98916 496.360156 
L 328.736361 501.127708 
L 379.740474 450.667675 
z
" clip-path="url(#p6a2a33ca3d)" style="fill: #f7fbff"/>
    <path d="M 379.740474 450.667675 
L 328.736361 501.127708 
L 343.556132 505.918721 
z
" clip-path="url(#p6a2a33ca3d)" style="fill: #f7fbff"/>
    <path d="M 358.44901 510.733368 
L 408.9245 459.780775 
L 343.556132 505.918721 
z
" clip-path="url(#p6a2a33ca3d)" style="fill: #f7fbff"/>
   </g>
  </g>
 </g>
 <defs>
  <clipPath id="p6a2a33ca3d">
   <rect x="14.4" y="14.4" width="554.4" height="554.4"/>
  </clipPath>
 </defs>
</svg>
