<?xml version="1.0" encoding="utf-8" standalone="no"?>
<!DOCTYPE svg PUBLIC "-//W3C//DTD SVG 1.1//EN"
  "http://www.w3.org/Graphics/SVG/1.1/DTD/svg11.dtd">
<svg xmlns:xlink="http://www.w3.org/1999/xlink" width="632.558783pt" height="597.6pt" viewBox="0 0 632.558783 597.6" xmlns="http://www.w3.org/2000/svg" version="1.1">
 <metadata>
  <rdf:RDF xmlns:dc="http://purl.org/dc/elements/1.1/" xmlns:cc="http://creativecommons.org/ns#" xmlns:rdf="http://www.w3.org/1999/02/22-rdf-syntax-ns#">
   <cc:Work>
    <dc:type rdf:resource="http://purl.org/dc/dcmitype/StillImage"/>
    <dc:date/>
    <dc:format>image/svg+xml</dc:format>
    <dc:creator>
     <cc:Agent>
      <dc:title>Matplotlib v3.6.2, https://matplotlib.org/</dc:title>
     </cc:Agent>
    </dc:creator>
   </cc:Work>
  </rdf:RDF>
 </metadata>
 <defs>
  <style type="text/css">*{stroke-linejoin: round; stroke-linecap: butt}</style>
 </defs>
 <g id="figure_1">
  <g id="patch_1">
   <path d="M 0 597.6 
L 632.558783 597.6 
L 632.558783 0 
L 0 0 
z
" style="fill: #ffffff"/>
  </g>
  <g id="patch_2">
   <path d="M 21.6 576 
L 576 576 
L 576 21.6 
L 21.6 21.6 
z
" style="fill: #ffffff"/>
  </g>
  <g id="pane3d_1">
   <g id="patch_3">
    <path d="M 41.312472 360.463759 
L 168.231956 259.540656 
L 164.248407 108.857576 
L 33.198586 203.642949 
" style="fill: #f2f2f2; opacity: 0.5; stroke: #f2f2f2; stroke-linejoin: miter"/>
   </g>
  </g>
  <g id="pane3d_2">
   <g id="patch_4">
    <path d="M 168.231956 259.540656 
L 573.729769 377.157828 
L 581.997262 219.353145 
L 164.248407 108.857576 
" style="fill: #e6e6e6; opacity: 0.5; stroke: #e6e6e6; stroke-linejoin: miter"/>
   </g>
  </g>
  <g id="pane3d_3">
   <g id="patch_5">
    <path d="M 41.312472 360.463759 
L 463.330816 493.019825 
L 573.729769 377.157828 
L 168.231956 259.540656 
" style="fill: #ececec; opacity: 0.5; stroke: #ececec; stroke-linejoin: miter"/>
   </g>
  </g>
  <g id="axis3d_1">
   <g id="line2d_1">
    <path d="M 41.312472 360.463759 
L 463.330816 493.019825 
" style="fill: none; stroke: #000000; stroke-width: 0.8; stroke-linecap: square"/>
   </g>
   <g id="text_1">
    <!-- Python version -->
    <g transform="translate(187.76057 443.267396) rotate(-342.562483) scale(0.12 -0.12)">
     <defs>
      <path id="DejaVuSans-50" d="M 1259 4147 
L 1259 2394 
L 2053 2394 
Q 2494 2394 2734 2622 
Q 2975 2850 2975 3272 
Q 2975 3691 2734 3919 
Q 2494 4147 2053 4147 
L 1259 4147 
z
M 628 4666 
L 2053 4666 
Q 2838 4666 3239 4311 
Q 3641 3956 3641 3272 
Q 3641 2581 3239 2228 
Q 2838 1875 2053 1875 
L 1259 1875 
L 1259 0 
L 628 0 
L 628 4666 
z
" transform="scale(0.015625)"/>
      <path id="DejaVuSans-79" d="M 2059 -325 
Q 1816 -950 1584 -1140 
Q 1353 -1331 966 -1331 
L 506 -1331 
L 506 -850 
L 844 -850 
Q 1081 -850 1212 -737 
Q 1344 -625 1503 -206 
L 1606 56 
L 191 3500 
L 800 3500 
L 1894 763 
L 2988 3500 
L 3597 3500 
L 2059 -325 
z
" transform="scale(0.015625)"/>
      <path id="DejaVuSans-74" d="M 1172 4494 
L 1172 3500 
L 2356 3500 
L 2356 3053 
L 1172 3053 
L 1172 1153 
Q 1172 725 1289 603 
Q 1406 481 1766 481 
L 2356 481 
L 2356 0 
L 1766 0 
Q 1100 0 847 248 
Q 594 497 594 1153 
L 594 3053 
L 172 3053 
L 172 3500 
L 594 3500 
L 594 4494 
L 1172 4494 
z
" transform="scale(0.015625)"/>
      <path id="DejaVuSans-68" d="M 3513 2113 
L 3513 0 
L 2938 0 
L 2938 2094 
Q 2938 2591 2744 2837 
Q 2550 3084 2163 3084 
Q 1697 3084 1428 2787 
Q 1159 2491 1159 1978 
L 1159 0 
L 581 0 
L 581 4863 
L 1159 4863 
L 1159 2956 
Q 1366 3272 1645 3428 
Q 1925 3584 2291 3584 
Q 2894 3584 3203 3211 
Q 3513 2838 3513 2113 
z
" transform="scale(0.015625)"/>
      <path id="DejaVuSans-6f" d="M 1959 3097 
Q 1497 3097 1228 2736 
Q 959 2375 959 1747 
Q 959 1119 1226 758 
Q 1494 397 1959 397 
Q 2419 397 2687 759 
Q 2956 1122 2956 1747 
Q 2956 2369 2687 2733 
Q 2419 3097 1959 3097 
z
M 1959 3584 
Q 2709 3584 3137 3096 
Q 3566 2609 3566 1747 
Q 3566 888 3137 398 
Q 2709 -91 1959 -91 
Q 1206 -91 779 398 
Q 353 888 353 1747 
Q 353 2609 779 3096 
Q 1206 3584 1959 3584 
z
" transform="scale(0.015625)"/>
      <path id="DejaVuSans-6e" d="M 3513 2113 
L 3513 0 
L 2938 0 
L 2938 2094 
Q 2938 2591 2744 2837 
Q 2550 3084 2163 3084 
Q 1697 3084 1428 2787 
Q 1159 2491 1159 1978 
L 1159 0 
L 581 0 
L 581 3500 
L 1159 3500 
L 1159 2956 
Q 1366 3272 1645 3428 
Q 1925 3584 2291 3584 
Q 2894 3584 3203 3211 
Q 3513 2838 3513 2113 
z
" transform="scale(0.015625)"/>
      <path id="DejaVuSans-20" transform="scale(0.015625)"/>
      <path id="DejaVuSans-76" d="M 191 3500 
L 800 3500 
L 1894 563 
L 2988 3500 
L 3597 3500 
L 2284 0 
L 1503 0 
L 191 3500 
z
" transform="scale(0.015625)"/>
      <path id="DejaVuSans-65" d="M 3597 1894 
L 3597 1613 
L 953 1613 
Q 991 1019 1311 708 
Q 1631 397 2203 397 
Q 2534 397 2845 478 
Q 3156 559 3463 722 
L 3463 178 
Q 3153 47 2828 -22 
Q 2503 -91 2169 -91 
Q 1331 -91 842 396 
Q 353 884 353 1716 
Q 353 2575 817 3079 
Q 1281 3584 2069 3584 
Q 2775 3584 3186 3129 
Q 3597 2675 3597 1894 
z
M 3022 2063 
Q 3016 2534 2758 2815 
Q 2500 3097 2075 3097 
Q 1594 3097 1305 2825 
Q 1016 2553 972 2059 
L 3022 2063 
z
" transform="scale(0.015625)"/>
      <path id="DejaVuSans-72" d="M 2631 2963 
Q 2534 3019 2420 3045 
Q 2306 3072 2169 3072 
Q 1681 3072 1420 2755 
Q 1159 2438 1159 1844 
L 1159 0 
L 581 0 
L 581 3500 
L 1159 3500 
L 1159 2956 
Q 1341 3275 1631 3429 
Q 1922 3584 2338 3584 
Q 2397 3584 2469 3576 
Q 2541 3569 2628 3553 
L 2631 2963 
z
" transform="scale(0.015625)"/>
      <path id="DejaVuSans-73" d="M 2834 3397 
L 2834 2853 
Q 2591 2978 2328 3040 
Q 2066 3103 1784 3103 
Q 1356 3103 1142 2972 
Q 928 2841 928 2578 
Q 928 2378 1081 2264 
Q 1234 2150 1697 2047 
L 1894 2003 
Q 2506 1872 2764 1633 
Q 3022 1394 3022 966 
Q 3022 478 2636 193 
Q 2250 -91 1575 -91 
Q 1294 -91 989 -36 
Q 684 19 347 128 
L 347 722 
Q 666 556 975 473 
Q 1284 391 1588 391 
Q 1994 391 2212 530 
Q 2431 669 2431 922 
Q 2431 1156 2273 1281 
Q 2116 1406 1581 1522 
L 1381 1569 
Q 847 1681 609 1914 
Q 372 2147 372 2553 
Q 372 3047 722 3315 
Q 1072 3584 1716 3584 
Q 2034 3584 2315 3537 
Q 2597 3491 2834 3397 
z
" transform="scale(0.015625)"/>
      <path id="DejaVuSans-69" d="M 603 3500 
L 1178 3500 
L 1178 0 
L 603 0 
L 603 3500 
z
M 603 4863 
L 1178 4863 
L 1178 4134 
L 603 4134 
L 603 4863 
z
" transform="scale(0.015625)"/>
     </defs>
     <use xlink:href="#DejaVuSans-50"/>
     <use xlink:href="#DejaVuSans-79" x="60.302734"/>
     <use xlink:href="#DejaVuSans-74" x="119.482422"/>
     <use xlink:href="#DejaVuSans-68" x="158.691406"/>
     <use xlink:href="#DejaVuSans-6f" x="222.070312"/>
     <use xlink:href="#DejaVuSans-6e" x="283.251953"/>
     <use xlink:href="#DejaVuSans-20" x="346.630859"/>
     <use xlink:href="#DejaVuSans-76" x="378.417969"/>
     <use xlink:href="#DejaVuSans-65" x="437.597656"/>
     <use xlink:href="#DejaVuSans-72" x="499.121094"/>
     <use xlink:href="#DejaVuSans-73" x="540.234375"/>
     <use xlink:href="#DejaVuSans-69" x="592.333984"/>
     <use xlink:href="#DejaVuSans-6f" x="620.117188"/>
     <use xlink:href="#DejaVuSans-6e" x="681.298828"/>
    </g>
   </g>
   <g id="Line3DCollection_1">
    <path d="M 66.435183 368.354809 
L 192.464986 266.569598 
L 189.166665 115.448515 
" style="fill: none; stroke: #b0b0b0; stroke-width: 0.8"/>
    <path d="M 84.706233 374.09375 
L 210.08151 271.67938 
L 207.285061 120.240874 
" style="fill: none; stroke: #b0b0b0; stroke-width: 0.8"/>
    <path d="M 103.093693 379.869256 
L 227.803915 276.819875 
L 225.515529 125.062876 
" style="fill: none; stroke: #b0b0b0; stroke-width: 0.8"/>
    <path d="M 121.598681 385.681677 
L 245.633159 281.991358 
L 243.859114 129.914798 
" style="fill: none; stroke: #b0b0b0; stroke-width: 0.8"/>
    <path d="M 140.222327 391.531369 
L 263.570211 287.194112 
L 262.31687 134.796919 
" style="fill: none; stroke: #b0b0b0; stroke-width: 0.8"/>
    <path d="M 158.965775 397.418691 
L 281.616052 292.428421 
L 280.889868 139.709521 
" style="fill: none; stroke: #b0b0b0; stroke-width: 0.8"/>
    <path d="M 177.830185 403.344007 
L 299.771673 297.694572 
L 299.57919 144.652891 
" style="fill: none; stroke: #b0b0b0; stroke-width: 0.8"/>
    <path d="M 196.816732 409.307686 
L 318.038081 302.992858 
L 318.385931 149.627319 
" style="fill: none; stroke: #b0b0b0; stroke-width: 0.8"/>
    <path d="M 215.926607 415.310102 
L 336.416293 308.323573 
L 337.311203 154.633099 
" style="fill: none; stroke: #b0b0b0; stroke-width: 0.8"/>
    <path d="M 235.161014 421.351634 
L 354.907337 313.687016 
L 356.356128 159.670527 
" style="fill: none; stroke: #b0b0b0; stroke-width: 0.8"/>
    <path d="M 254.521174 427.432665 
L 373.512257 319.083489 
L 375.521847 164.739905 
" style="fill: none; stroke: #b0b0b0; stroke-width: 0.8"/>
    <path d="M 274.008326 433.553584 
L 392.232106 324.513298 
L 394.809511 169.841538 
" style="fill: none; stroke: #b0b0b0; stroke-width: 0.8"/>
    <path d="M 293.623723 439.714785 
L 411.067955 329.976754 
L 414.220288 174.975735 
" style="fill: none; stroke: #b0b0b0; stroke-width: 0.8"/>
    <path d="M 313.368635 445.916667 
L 430.020884 335.474169 
L 433.75536 180.142808 
" style="fill: none; stroke: #b0b0b0; stroke-width: 0.8"/>
    <path d="M 333.244348 452.159634 
L 449.091988 341.005862 
L 453.415926 185.343075 
" style="fill: none; stroke: #b0b0b0; stroke-width: 0.8"/>
    <path d="M 353.252167 458.444095 
L 468.282376 346.572154 
L 473.203197 190.576855 
" style="fill: none; stroke: #b0b0b0; stroke-width: 0.8"/>
    <path d="M 373.393414 464.770465 
L 487.59317 352.17337 
L 493.118405 195.844475 
" style="fill: none; stroke: #b0b0b0; stroke-width: 0.8"/>
    <path d="M 393.669428 471.139166 
L 507.025508 357.809841 
L 513.162792 201.146264 
" style="fill: none; stroke: #b0b0b0; stroke-width: 0.8"/>
    <path d="M 414.081565 477.550623 
L 526.58054 363.4819 
L 533.33762 206.482554 
" style="fill: none; stroke: #b0b0b0; stroke-width: 0.8"/>
    <path d="M 434.631201 484.005269 
L 546.259433 369.189886 
L 553.644166 211.853684 
" style="fill: none; stroke: #b0b0b0; stroke-width: 0.8"/>
   </g>
   <g id="xtick_1">
    <g id="line2d_2">
     <path d="M 67.503086 367.492341 
L 64.296315 370.082219 
" style="fill: none; stroke: #000000; stroke-width: 0.8; stroke-linecap: square"/>
    </g>
    <g id="text_2">
     <!-- 2.0 -->
     <g transform="translate(53.443759 386.338624) scale(0.1 -0.1)">
      <defs>
       <path id="DejaVuSans-32" d="M 1228 531 
L 3431 531 
L 3431 0 
L 469 0 
L 469 531 
Q 828 903 1448 1529 
Q 2069 2156 2228 2338 
Q 2531 2678 2651 2914 
Q 2772 3150 2772 3378 
Q 2772 3750 2511 3984 
Q 2250 4219 1831 4219 
Q 1534 4219 1204 4116 
Q 875 4013 500 3803 
L 500 4441 
Q 881 4594 1212 4672 
Q 1544 4750 1819 4750 
Q 2544 4750 2975 4387 
Q 3406 4025 3406 3419 
Q 3406 3131 3298 2873 
Q 3191 2616 2906 2266 
Q 2828 2175 2409 1742 
Q 1991 1309 1228 531 
z
" transform="scale(0.015625)"/>
       <path id="DejaVuSans-2e" d="M 684 794 
L 1344 794 
L 1344 0 
L 684 0 
L 684 794 
z
" transform="scale(0.015625)"/>
       <path id="DejaVuSans-30" d="M 2034 4250 
Q 1547 4250 1301 3770 
Q 1056 3291 1056 2328 
Q 1056 1369 1301 889 
Q 1547 409 2034 409 
Q 2525 409 2770 889 
Q 3016 1369 3016 2328 
Q 3016 3291 2770 3770 
Q 2525 4250 2034 4250 
z
M 2034 4750 
Q 2819 4750 3233 4129 
Q 3647 3509 3647 2328 
Q 3647 1150 3233 529 
Q 2819 -91 2034 -91 
Q 1250 -91 836 529 
Q 422 1150 422 2328 
Q 422 3509 836 4129 
Q 1250 4750 2034 4750 
z
" transform="scale(0.015625)"/>
      </defs>
      <use xlink:href="#DejaVuSans-32"/>
      <use xlink:href="#DejaVuSans-2e" x="63.623047"/>
      <use xlink:href="#DejaVuSans-30" x="95.410156"/>
     </g>
    </g>
   </g>
   <g id="xtick_2">
    <g id="line2d_3">
     <path d="M 85.768778 373.225797 
L 82.578086 375.832154 
" style="fill: none; stroke: #000000; stroke-width: 0.8; stroke-linecap: square"/>
    </g>
    <g id="text_3">
     <!-- 2.1 -->
     <g transform="translate(71.720595 392.117434) scale(0.1 -0.1)">
      <defs>
       <path id="DejaVuSans-31" d="M 794 531 
L 1825 531 
L 1825 4091 
L 703 3866 
L 703 4441 
L 1819 4666 
L 2450 4666 
L 2450 531 
L 3481 531 
L 3481 0 
L 794 0 
L 794 531 
z
" transform="scale(0.015625)"/>
      </defs>
      <use xlink:href="#DejaVuSans-32"/>
      <use xlink:href="#DejaVuSans-2e" x="63.623047"/>
      <use xlink:href="#DejaVuSans-31" x="95.410156"/>
     </g>
    </g>
   </g>
   <g id="xtick_3">
    <g id="line2d_4">
     <path d="M 104.150791 378.995765 
L 100.976448 381.618759 
" style="fill: none; stroke: #000000; stroke-width: 0.8; stroke-linecap: square"/>
    </g>
    <g id="text_4">
     <!-- 2.2 -->
     <g transform="translate(90.114018 397.933107) scale(0.1 -0.1)">
      <use xlink:href="#DejaVuSans-32"/>
      <use xlink:href="#DejaVuSans-2e" x="63.623047"/>
      <use xlink:href="#DejaVuSans-32" x="95.410156"/>
     </g>
    </g>
   </g>
   <g id="xtick_4">
    <g id="line2d_5">
     <path d="M 122.65024 384.802596 
L 119.49252 387.442386 
" style="fill: none; stroke: #000000; stroke-width: 0.8; stroke-linecap: square"/>
    </g>
    <g id="text_5">
     <!-- 2.3 -->
     <g transform="translate(108.625148 403.785997) scale(0.1 -0.1)">
      <defs>
       <path id="DejaVuSans-33" d="M 2597 2516 
Q 3050 2419 3304 2112 
Q 3559 1806 3559 1356 
Q 3559 666 3084 287 
Q 2609 -91 1734 -91 
Q 1441 -91 1130 -33 
Q 819 25 488 141 
L 488 750 
Q 750 597 1062 519 
Q 1375 441 1716 441 
Q 2309 441 2620 675 
Q 2931 909 2931 1356 
Q 2931 1769 2642 2001 
Q 2353 2234 1838 2234 
L 1294 2234 
L 1294 2753 
L 1863 2753 
Q 2328 2753 2575 2939 
Q 2822 3125 2822 3475 
Q 2822 3834 2567 4026 
Q 2313 4219 1838 4219 
Q 1578 4219 1281 4162 
Q 984 4106 628 3988 
L 628 4550 
Q 988 4650 1302 4700 
Q 1616 4750 1894 4750 
Q 2613 4750 3031 4423 
Q 3450 4097 3450 3541 
Q 3450 3153 3228 2886 
Q 3006 2619 2597 2516 
z
" transform="scale(0.015625)"/>
      </defs>
      <use xlink:href="#DejaVuSans-32"/>
      <use xlink:href="#DejaVuSans-2e" x="63.623047"/>
      <use xlink:href="#DejaVuSans-33" x="95.410156"/>
     </g>
    </g>
   </g>
   <g id="xtick_5">
    <g id="line2d_6">
     <path d="M 141.268253 390.646643 
L 138.127436 393.303391 
" style="fill: none; stroke: #000000; stroke-width: 0.8; stroke-linecap: square"/>
    </g>
    <g id="text_6">
     <!-- 2.4 -->
     <g transform="translate(127.255118 409.676462) scale(0.1 -0.1)">
      <defs>
       <path id="DejaVuSans-34" d="M 2419 4116 
L 825 1625 
L 2419 1625 
L 2419 4116 
z
M 2253 4666 
L 3047 4666 
L 3047 1625 
L 3713 1625 
L 3713 1100 
L 3047 1100 
L 3047 0 
L 2419 0 
L 2419 1100 
L 313 1100 
L 313 1709 
L 2253 4666 
z
" transform="scale(0.015625)"/>
      </defs>
      <use xlink:href="#DejaVuSans-32"/>
      <use xlink:href="#DejaVuSans-2e" x="63.623047"/>
      <use xlink:href="#DejaVuSans-34" x="95.410156"/>
     </g>
    </g>
   </g>
   <g id="xtick_6">
    <g id="line2d_7">
     <path d="M 160.005975 396.528265 
L 156.882344 399.202135 
" style="fill: none; stroke: #000000; stroke-width: 0.8; stroke-linecap: square"/>
    </g>
    <g id="text_7">
     <!-- 2.5 -->
     <g transform="translate(146.005076 415.604865) scale(0.1 -0.1)">
      <defs>
       <path id="DejaVuSans-35" d="M 691 4666 
L 3169 4666 
L 3169 4134 
L 1269 4134 
L 1269 2991 
Q 1406 3038 1543 3061 
Q 1681 3084 1819 3084 
Q 2600 3084 3056 2656 
Q 3513 2228 3513 1497 
Q 3513 744 3044 326 
Q 2575 -91 1722 -91 
Q 1428 -91 1123 -41 
Q 819 9 494 109 
L 494 744 
Q 775 591 1075 516 
Q 1375 441 1709 441 
Q 2250 441 2565 725 
Q 2881 1009 2881 1497 
Q 2881 1984 2565 2268 
Q 2250 2553 1709 2553 
Q 1456 2553 1204 2497 
Q 953 2441 691 2322 
L 691 4666 
z
" transform="scale(0.015625)"/>
      </defs>
      <use xlink:href="#DejaVuSans-32"/>
      <use xlink:href="#DejaVuSans-2e" x="63.623047"/>
      <use xlink:href="#DejaVuSans-35" x="95.410156"/>
     </g>
    </g>
   </g>
   <g id="xtick_7">
    <g id="line2d_8">
     <path d="M 178.864563 402.447827 
L 175.758405 405.138985 
" style="fill: none; stroke: #000000; stroke-width: 0.8; stroke-linecap: square"/>
    </g>
    <g id="text_8">
     <!-- 2.6 -->
     <g transform="translate(164.876185 421.571574) scale(0.1 -0.1)">
      <defs>
       <path id="DejaVuSans-36" d="M 2113 2584 
Q 1688 2584 1439 2293 
Q 1191 2003 1191 1497 
Q 1191 994 1439 701 
Q 1688 409 2113 409 
Q 2538 409 2786 701 
Q 3034 994 3034 1497 
Q 3034 2003 2786 2293 
Q 2538 2584 2113 2584 
z
M 3366 4563 
L 3366 3988 
Q 3128 4100 2886 4159 
Q 2644 4219 2406 4219 
Q 1781 4219 1451 3797 
Q 1122 3375 1075 2522 
Q 1259 2794 1537 2939 
Q 1816 3084 2150 3084 
Q 2853 3084 3261 2657 
Q 3669 2231 3669 1497 
Q 3669 778 3244 343 
Q 2819 -91 2113 -91 
Q 1303 -91 875 529 
Q 447 1150 447 2328 
Q 447 3434 972 4092 
Q 1497 4750 2381 4750 
Q 2619 4750 2861 4703 
Q 3103 4656 3366 4563 
z
" transform="scale(0.015625)"/>
      </defs>
      <use xlink:href="#DejaVuSans-32"/>
      <use xlink:href="#DejaVuSans-2e" x="63.623047"/>
      <use xlink:href="#DejaVuSans-36" x="95.410156"/>
     </g>
    </g>
   </g>
   <g id="xtick_8">
    <g id="line2d_9">
     <path d="M 197.845191 408.405696 
L 194.756799 411.11431 
" style="fill: none; stroke: #000000; stroke-width: 0.8; stroke-linecap: square"/>
    </g>
    <g id="text_9">
     <!-- 2.7 -->
     <g transform="translate(183.869624 427.576961) scale(0.1 -0.1)">
      <defs>
       <path id="DejaVuSans-37" d="M 525 4666 
L 3525 4666 
L 3525 4397 
L 1831 0 
L 1172 0 
L 2766 4134 
L 525 4134 
L 525 4666 
z
" transform="scale(0.015625)"/>
      </defs>
      <use xlink:href="#DejaVuSans-32"/>
      <use xlink:href="#DejaVuSans-2e" x="63.623047"/>
      <use xlink:href="#DejaVuSans-37" x="95.410156"/>
     </g>
    </g>
   </g>
   <g id="xtick_9">
    <g id="line2d_10">
     <path d="M 216.949047 414.402245 
L 213.878717 417.128486 
" style="fill: none; stroke: #000000; stroke-width: 0.8; stroke-linecap: square"/>
    </g>
    <g id="text_10">
     <!-- 3.0 -->
     <g transform="translate(202.986584 433.621404) scale(0.1 -0.1)">
      <use xlink:href="#DejaVuSans-33"/>
      <use xlink:href="#DejaVuSans-2e" x="63.623047"/>
      <use xlink:href="#DejaVuSans-30" x="95.410156"/>
     </g>
    </g>
   </g>
   <g id="xtick_10">
    <g id="line2d_11">
     <path d="M 236.177336 420.437853 
L 233.12537 423.181893 
" style="fill: none; stroke: #000000; stroke-width: 0.8; stroke-linecap: square"/>
    </g>
    <g id="text_11">
     <!-- 3.1 -->
     <g transform="translate(222.228276 439.705285) scale(0.1 -0.1)">
      <use xlink:href="#DejaVuSans-33"/>
      <use xlink:href="#DejaVuSans-2e" x="63.623047"/>
      <use xlink:href="#DejaVuSans-31" x="95.410156"/>
     </g>
    </g>
   </g>
   <g id="xtick_11">
    <g id="line2d_12">
     <path d="M 255.531276 426.512902 
L 252.49798 429.274916 
" style="fill: none; stroke: #000000; stroke-width: 0.8; stroke-linecap: square"/>
    </g>
    <g id="text_12">
     <!-- 3.2 -->
     <g transform="translate(241.595924 445.828991) scale(0.1 -0.1)">
      <use xlink:href="#DejaVuSans-33"/>
      <use xlink:href="#DejaVuSans-2e" x="63.623047"/>
      <use xlink:href="#DejaVuSans-32" x="95.410156"/>
     </g>
    </g>
   </g>
   <g id="xtick_12">
    <g id="line2d_13">
     <path d="M 275.012104 432.627779 
L 271.997789 435.407945 
" style="fill: none; stroke: #000000; stroke-width: 0.8; stroke-linecap: square"/>
    </g>
    <g id="text_13">
     <!-- 3.3 -->
     <g transform="translate(261.090769 451.992914) scale(0.1 -0.1)">
      <use xlink:href="#DejaVuSans-33"/>
      <use xlink:href="#DejaVuSans-2e" x="63.623047"/>
      <use xlink:href="#DejaVuSans-33" x="95.410156"/>
     </g>
    </g>
   </g>
   <g id="xtick_13">
    <g id="line2d_14">
     <path d="M 294.621071 438.782879 
L 291.626054 441.581376 
" style="fill: none; stroke: #000000; stroke-width: 0.8; stroke-linecap: square"/>
    </g>
    <g id="text_14">
     <!-- 3.4 -->
     <g transform="translate(280.714068 458.197452) scale(0.1 -0.1)">
      <use xlink:href="#DejaVuSans-33"/>
      <use xlink:href="#DejaVuSans-2e" x="63.623047"/>
      <use xlink:href="#DejaVuSans-34" x="95.410156"/>
     </g>
    </g>
   </g>
   <g id="xtick_14">
    <g id="line2d_15">
     <path d="M 314.359447 444.978599 
L 311.384047 447.795609 
" style="fill: none; stroke: #000000; stroke-width: 0.8; stroke-linecap: square"/>
    </g>
    <g id="text_15">
     <!-- 3.5 -->
     <g transform="translate(300.467095 464.443007) scale(0.1 -0.1)">
      <use xlink:href="#DejaVuSans-33"/>
      <use xlink:href="#DejaVuSans-2e" x="63.623047"/>
      <use xlink:href="#DejaVuSans-35" x="95.410156"/>
     </g>
    </g>
   </g>
   <g id="xtick_15">
    <g id="line2d_16">
     <path d="M 334.228515 451.215342 
L 331.273061 454.051049 
" style="fill: none; stroke: #000000; stroke-width: 0.8; stroke-linecap: square"/>
    </g>
    <g id="text_16">
     <!-- 3.6 -->
     <g transform="translate(320.351141 470.729989) scale(0.1 -0.1)">
      <use xlink:href="#DejaVuSans-33"/>
      <use xlink:href="#DejaVuSans-2e" x="63.623047"/>
      <use xlink:href="#DejaVuSans-36" x="95.410156"/>
     </g>
    </g>
   </g>
   <g id="xtick_16">
    <g id="line2d_17">
     <path d="M 354.22958 457.493518 
L 351.294401 460.348109 
" style="fill: none; stroke: #000000; stroke-width: 0.8; stroke-linecap: square"/>
    </g>
    <g id="text_17">
     <!-- 3.7 -->
     <g transform="translate(340.367513 477.058809) scale(0.1 -0.1)">
      <use xlink:href="#DejaVuSans-33"/>
      <use xlink:href="#DejaVuSans-2e" x="63.623047"/>
      <use xlink:href="#DejaVuSans-37" x="95.410156"/>
     </g>
    </g>
   </g>
   <g id="xtick_17">
    <g id="line2d_18">
     <path d="M 374.363959 463.813541 
L 371.449393 466.687204 
" style="fill: none; stroke: #000000; stroke-width: 0.8; stroke-linecap: square"/>
    </g>
    <g id="text_18">
     <!-- 3.8 -->
     <g transform="translate(360.517536 483.429888) scale(0.1 -0.1)">
      <defs>
       <path id="DejaVuSans-38" d="M 2034 2216 
Q 1584 2216 1326 1975 
Q 1069 1734 1069 1313 
Q 1069 891 1326 650 
Q 1584 409 2034 409 
Q 2484 409 2743 651 
Q 3003 894 3003 1313 
Q 3003 1734 2745 1975 
Q 2488 2216 2034 2216 
z
M 1403 2484 
Q 997 2584 770 2862 
Q 544 3141 544 3541 
Q 544 4100 942 4425 
Q 1341 4750 2034 4750 
Q 2731 4750 3128 4425 
Q 3525 4100 3525 3541 
Q 3525 3141 3298 2862 
Q 3072 2584 2669 2484 
Q 3125 2378 3379 2068 
Q 3634 1759 3634 1313 
Q 3634 634 3220 271 
Q 2806 -91 2034 -91 
Q 1263 -91 848 271 
Q 434 634 434 1313 
Q 434 1759 690 2068 
Q 947 2378 1403 2484 
z
M 1172 3481 
Q 1172 3119 1398 2916 
Q 1625 2713 2034 2713 
Q 2441 2713 2670 2916 
Q 2900 3119 2900 3481 
Q 2900 3844 2670 4047 
Q 2441 4250 2034 4250 
Q 1625 4250 1398 4047 
Q 1172 3844 1172 3481 
z
" transform="scale(0.015625)"/>
      </defs>
      <use xlink:href="#DejaVuSans-33"/>
      <use xlink:href="#DejaVuSans-2e" x="63.623047"/>
      <use xlink:href="#DejaVuSans-38" x="95.410156"/>
     </g>
    </g>
   </g>
   <g id="xtick_18">
    <g id="line2d_19">
     <path d="M 394.632991 470.17583 
L 391.73938 473.068758 
" style="fill: none; stroke: #000000; stroke-width: 0.8; stroke-linecap: square"/>
    </g>
    <g id="text_19">
     <!-- 3.9 -->
     <g transform="translate(380.802555 489.84365) scale(0.1 -0.1)">
      <defs>
       <path id="DejaVuSans-39" d="M 703 97 
L 703 672 
Q 941 559 1184 500 
Q 1428 441 1663 441 
Q 2288 441 2617 861 
Q 2947 1281 2994 2138 
Q 2813 1869 2534 1725 
Q 2256 1581 1919 1581 
Q 1219 1581 811 2004 
Q 403 2428 403 3163 
Q 403 3881 828 4315 
Q 1253 4750 1959 4750 
Q 2769 4750 3195 4129 
Q 3622 3509 3622 2328 
Q 3622 1225 3098 567 
Q 2575 -91 1691 -91 
Q 1453 -91 1209 -44 
Q 966 3 703 97 
z
M 1959 2075 
Q 2384 2075 2632 2365 
Q 2881 2656 2881 3163 
Q 2881 3666 2632 3958 
Q 2384 4250 1959 4250 
Q 1534 4250 1286 3958 
Q 1038 3666 1038 3163 
Q 1038 2656 1286 2365 
Q 1534 2075 1959 2075 
z
" transform="scale(0.015625)"/>
      </defs>
      <use xlink:href="#DejaVuSans-33"/>
      <use xlink:href="#DejaVuSans-2e" x="63.623047"/>
      <use xlink:href="#DejaVuSans-39" x="95.410156"/>
     </g>
    </g>
   </g>
   <g id="xtick_19">
    <g id="line2d_20">
     <path d="M 415.038032 476.58081 
L 412.165722 479.493198 
" style="fill: none; stroke: #000000; stroke-width: 0.8; stroke-linecap: square"/>
    </g>
    <g id="text_20">
     <!-- 3.10 -->
     <g transform="translate(398.042679 496.300526) scale(0.1 -0.1)">
      <use xlink:href="#DejaVuSans-33"/>
      <use xlink:href="#DejaVuSans-2e" x="63.623047"/>
      <use xlink:href="#DejaVuSans-31" x="95.410156"/>
      <use xlink:href="#DejaVuSans-30" x="159.033203"/>
     </g>
    </g>
   </g>
   <g id="xtick_20">
    <g id="line2d_21">
     <path d="M 435.580454 483.028914 
L 432.7298 485.960958 
" style="fill: none; stroke: #000000; stroke-width: 0.8; stroke-linecap: square"/>
    </g>
    <g id="text_21">
     <!-- 3.11 -->
     <g transform="translate(418.60179 502.80095) scale(0.1 -0.1)">
      <use xlink:href="#DejaVuSans-33"/>
      <use xlink:href="#DejaVuSans-2e" x="63.623047"/>
      <use xlink:href="#DejaVuSans-31" x="95.410156"/>
      <use xlink:href="#DejaVuSans-31" x="159.033203"/>
     </g>
    </g>
   </g>
  </g>
  <g id="axis3d_2">
   <g id="line2d_22">
    <path d="M 573.729769 377.157828 
L 463.330816 493.019825 
" style="fill: none; stroke: #000000; stroke-width: 0.8; stroke-linecap: square"/>
   </g>
   <g id="text_22">
    <!-- Release date -->
    <g transform="translate(533.742058 488.90359) rotate(-46.383131) scale(0.12 -0.12)">
     <defs>
      <path id="DejaVuSans-52" d="M 2841 2188 
Q 3044 2119 3236 1894 
Q 3428 1669 3622 1275 
L 4263 0 
L 3584 0 
L 2988 1197 
Q 2756 1666 2539 1819 
Q 2322 1972 1947 1972 
L 1259 1972 
L 1259 0 
L 628 0 
L 628 4666 
L 2053 4666 
Q 2853 4666 3247 4331 
Q 3641 3997 3641 3322 
Q 3641 2881 3436 2590 
Q 3231 2300 2841 2188 
z
M 1259 4147 
L 1259 2491 
L 2053 2491 
Q 2509 2491 2742 2702 
Q 2975 2913 2975 3322 
Q 2975 3731 2742 3939 
Q 2509 4147 2053 4147 
L 1259 4147 
z
" transform="scale(0.015625)"/>
      <path id="DejaVuSans-6c" d="M 603 4863 
L 1178 4863 
L 1178 0 
L 603 0 
L 603 4863 
z
" transform="scale(0.015625)"/>
      <path id="DejaVuSans-61" d="M 2194 1759 
Q 1497 1759 1228 1600 
Q 959 1441 959 1056 
Q 959 750 1161 570 
Q 1363 391 1709 391 
Q 2188 391 2477 730 
Q 2766 1069 2766 1631 
L 2766 1759 
L 2194 1759 
z
M 3341 1997 
L 3341 0 
L 2766 0 
L 2766 531 
Q 2569 213 2275 61 
Q 1981 -91 1556 -91 
Q 1019 -91 701 211 
Q 384 513 384 1019 
Q 384 1609 779 1909 
Q 1175 2209 1959 2209 
L 2766 2209 
L 2766 2266 
Q 2766 2663 2505 2880 
Q 2244 3097 1772 3097 
Q 1472 3097 1187 3025 
Q 903 2953 641 2809 
L 641 3341 
Q 956 3463 1253 3523 
Q 1550 3584 1831 3584 
Q 2591 3584 2966 3190 
Q 3341 2797 3341 1997 
z
" transform="scale(0.015625)"/>
      <path id="DejaVuSans-64" d="M 2906 2969 
L 2906 4863 
L 3481 4863 
L 3481 0 
L 2906 0 
L 2906 525 
Q 2725 213 2448 61 
Q 2172 -91 1784 -91 
Q 1150 -91 751 415 
Q 353 922 353 1747 
Q 353 2572 751 3078 
Q 1150 3584 1784 3584 
Q 2172 3584 2448 3432 
Q 2725 3281 2906 2969 
z
M 947 1747 
Q 947 1113 1208 752 
Q 1469 391 1925 391 
Q 2381 391 2643 752 
Q 2906 1113 2906 1747 
Q 2906 2381 2643 2742 
Q 2381 3103 1925 3103 
Q 1469 3103 1208 2742 
Q 947 2381 947 1747 
z
" transform="scale(0.015625)"/>
     </defs>
     <use xlink:href="#DejaVuSans-52"/>
     <use xlink:href="#DejaVuSans-65" x="64.982422"/>
     <use xlink:href="#DejaVuSans-6c" x="126.505859"/>
     <use xlink:href="#DejaVuSans-65" x="154.289062"/>
     <use xlink:href="#DejaVuSans-61" x="215.8125"/>
     <use xlink:href="#DejaVuSans-73" x="277.091797"/>
     <use xlink:href="#DejaVuSans-65" x="329.191406"/>
     <use xlink:href="#DejaVuSans-20" x="390.714844"/>
     <use xlink:href="#DejaVuSans-64" x="422.501953"/>
     <use xlink:href="#DejaVuSans-61" x="485.978516"/>
     <use xlink:href="#DejaVuSans-74" x="547.257812"/>
     <use xlink:href="#DejaVuSans-65" x="586.466797"/>
    </g>
   </g>
   <g id="Line3DCollection_2">
    <path d="M 36.926974 200.94629 
L 44.917336 357.597264 
L 466.479039 489.715814 
" style="fill: none; stroke: #b0b0b0; stroke-width: 0.8"/>
    <path d="M 62.183848 182.678564 
L 69.346697 338.171665 
L 487.794387 467.345685 
" style="fill: none; stroke: #b0b0b0; stroke-width: 0.8"/>
    <path d="M 86.884193 164.813363 
L 93.25339 319.161679 
L 508.620922 445.488558 
" style="fill: none; stroke: #b0b0b0; stroke-width: 0.8"/>
    <path d="M 111.046204 147.337527 
L 116.654011 300.554109 
L 528.975267 424.126988 
" style="fill: none; stroke: #b0b0b0; stroke-width: 0.8"/>
    <path d="M 134.665951 130.253898 
L 139.543775 282.352758 
L 548.855348 403.263149 
" style="fill: none; stroke: #b0b0b0; stroke-width: 0.8"/>
    <path d="M 157.803231 113.519226 
L 161.979722 264.512271 
L 568.312641 382.84302 
" style="fill: none; stroke: #b0b0b0; stroke-width: 0.8"/>
   </g>
   <g id="xtick_21">
    <g id="line2d_23">
     <path d="M 462.860649 488.581801 
L 473.728607 491.987847 
" style="fill: none; stroke: #000000; stroke-width: 0.8; stroke-linecap: square"/>
    </g>
    <g id="text_23">
     <!-- 2008 -->
     <g transform="translate(471.604746 509.31452) scale(0.1 -0.1)">
      <use xlink:href="#DejaVuSans-32"/>
      <use xlink:href="#DejaVuSans-30" x="63.623047"/>
      <use xlink:href="#DejaVuSans-30" x="127.246094"/>
      <use xlink:href="#DejaVuSans-38" x="190.869141"/>
     </g>
    </g>
   </g>
   <g id="xtick_22">
    <g id="line2d_24">
     <path d="M 484.205555 466.237819 
L 494.984587 469.565286 
" style="fill: none; stroke: #000000; stroke-width: 0.8; stroke-linecap: square"/>
    </g>
    <g id="text_24">
     <!-- 2011 -->
     <g transform="translate(492.747745 486.768188) scale(0.1 -0.1)">
      <use xlink:href="#DejaVuSans-32"/>
      <use xlink:href="#DejaVuSans-30" x="63.623047"/>
      <use xlink:href="#DejaVuSans-31" x="127.246094"/>
      <use xlink:href="#DejaVuSans-31" x="190.869141"/>
     </g>
    </g>
   </g>
   <g id="xtick_23">
    <g id="line2d_25">
     <path d="M 505.061251 444.405946 
L 515.752555 447.657521 
" style="fill: none; stroke: #000000; stroke-width: 0.8; stroke-linecap: square"/>
    </g>
    <g id="text_25">
     <!-- 2014 -->
     <g transform="translate(513.405094 464.73974) scale(0.1 -0.1)">
      <use xlink:href="#DejaVuSans-32"/>
      <use xlink:href="#DejaVuSans-30" x="63.623047"/>
      <use xlink:href="#DejaVuSans-31" x="127.246094"/>
      <use xlink:href="#DejaVuSans-34" x="190.869141"/>
     </g>
    </g>
   </g>
   <g id="xtick_24">
    <g id="line2d_26">
     <path d="M 525.444365 423.068775 
L 536.049124 426.247026 
" style="fill: none; stroke: #000000; stroke-width: 0.8; stroke-linecap: square"/>
    </g>
    <g id="text_26">
     <!-- 2017 -->
     <g transform="translate(533.593337 443.211535) scale(0.1 -0.1)">
      <use xlink:href="#DejaVuSans-32"/>
      <use xlink:href="#DejaVuSans-30" x="63.623047"/>
      <use xlink:href="#DejaVuSans-31" x="127.246094"/>
      <use xlink:href="#DejaVuSans-37" x="190.869141"/>
     </g>
    </g>
   </g>
   <g id="xtick_25">
    <g id="line2d_27">
     <path d="M 545.352802 402.228498 
L 555.872265 405.335942 
" style="fill: none; stroke: #000000; stroke-width: 0.8; stroke-linecap: square"/>
    </g>
    <g id="text_27">
     <!-- 2020 -->
     <g transform="translate(553.310469 422.18571) scale(0.1 -0.1)">
      <use xlink:href="#DejaVuSans-32"/>
      <use xlink:href="#DejaVuSans-30" x="63.623047"/>
      <use xlink:href="#DejaVuSans-32" x="127.246094"/>
      <use xlink:href="#DejaVuSans-30" x="190.869141"/>
     </g>
    </g>
   </g>
   <g id="xtick_26">
    <g id="line2d_28">
     <path d="M 564.838091 381.831175 
L 575.273339 384.870089 
" style="fill: none; stroke: #000000; stroke-width: 0.8; stroke-linecap: square"/>
    </g>
    <g id="text_28">
     <!-- 2023 -->
     <g transform="translate(572.607591 401.607773) scale(0.1 -0.1)">
      <use xlink:href="#DejaVuSans-32"/>
      <use xlink:href="#DejaVuSans-30" x="63.623047"/>
      <use xlink:href="#DejaVuSans-32" x="127.246094"/>
      <use xlink:href="#DejaVuSans-33" x="190.869141"/>
     </g>
    </g>
   </g>
  </g>
  <g id="axis3d_3">
   <g id="line2d_29">
    <path d="M 573.729769 377.157828 
L 581.997262 219.353145 
" style="fill: none; stroke: #000000; stroke-width: 0.8; stroke-linecap: square"/>
   </g>
   <g id="text_29">
    <!-- Amount of version-specific features -->
    <g transform="translate(622.800538 407.579611) rotate(-87.000978) scale(0.12 -0.12)">
     <defs>
      <path id="DejaVuSans-41" d="M 2188 4044 
L 1331 1722 
L 3047 1722 
L 2188 4044 
z
M 1831 4666 
L 2547 4666 
L 4325 0 
L 3669 0 
L 3244 1197 
L 1141 1197 
L 716 0 
L 50 0 
L 1831 4666 
z
" transform="scale(0.015625)"/>
      <path id="DejaVuSans-6d" d="M 3328 2828 
Q 3544 3216 3844 3400 
Q 4144 3584 4550 3584 
Q 5097 3584 5394 3201 
Q 5691 2819 5691 2113 
L 5691 0 
L 5113 0 
L 5113 2094 
Q 5113 2597 4934 2840 
Q 4756 3084 4391 3084 
Q 3944 3084 3684 2787 
Q 3425 2491 3425 1978 
L 3425 0 
L 2847 0 
L 2847 2094 
Q 2847 2600 2669 2842 
Q 2491 3084 2119 3084 
Q 1678 3084 1418 2786 
Q 1159 2488 1159 1978 
L 1159 0 
L 581 0 
L 581 3500 
L 1159 3500 
L 1159 2956 
Q 1356 3278 1631 3431 
Q 1906 3584 2284 3584 
Q 2666 3584 2933 3390 
Q 3200 3197 3328 2828 
z
" transform="scale(0.015625)"/>
      <path id="DejaVuSans-75" d="M 544 1381 
L 544 3500 
L 1119 3500 
L 1119 1403 
Q 1119 906 1312 657 
Q 1506 409 1894 409 
Q 2359 409 2629 706 
Q 2900 1003 2900 1516 
L 2900 3500 
L 3475 3500 
L 3475 0 
L 2900 0 
L 2900 538 
Q 2691 219 2414 64 
Q 2138 -91 1772 -91 
Q 1169 -91 856 284 
Q 544 659 544 1381 
z
M 1991 3584 
L 1991 3584 
z
" transform="scale(0.015625)"/>
      <path id="DejaVuSans-66" d="M 2375 4863 
L 2375 4384 
L 1825 4384 
Q 1516 4384 1395 4259 
Q 1275 4134 1275 3809 
L 1275 3500 
L 2222 3500 
L 2222 3053 
L 1275 3053 
L 1275 0 
L 697 0 
L 697 3053 
L 147 3053 
L 147 3500 
L 697 3500 
L 697 3744 
Q 697 4328 969 4595 
Q 1241 4863 1831 4863 
L 2375 4863 
z
" transform="scale(0.015625)"/>
      <path id="DejaVuSans-2d" d="M 313 2009 
L 1997 2009 
L 1997 1497 
L 313 1497 
L 313 2009 
z
" transform="scale(0.015625)"/>
      <path id="DejaVuSans-70" d="M 1159 525 
L 1159 -1331 
L 581 -1331 
L 581 3500 
L 1159 3500 
L 1159 2969 
Q 1341 3281 1617 3432 
Q 1894 3584 2278 3584 
Q 2916 3584 3314 3078 
Q 3713 2572 3713 1747 
Q 3713 922 3314 415 
Q 2916 -91 2278 -91 
Q 1894 -91 1617 61 
Q 1341 213 1159 525 
z
M 3116 1747 
Q 3116 2381 2855 2742 
Q 2594 3103 2138 3103 
Q 1681 3103 1420 2742 
Q 1159 2381 1159 1747 
Q 1159 1113 1420 752 
Q 1681 391 2138 391 
Q 2594 391 2855 752 
Q 3116 1113 3116 1747 
z
" transform="scale(0.015625)"/>
      <path id="DejaVuSans-63" d="M 3122 3366 
L 3122 2828 
Q 2878 2963 2633 3030 
Q 2388 3097 2138 3097 
Q 1578 3097 1268 2742 
Q 959 2388 959 1747 
Q 959 1106 1268 751 
Q 1578 397 2138 397 
Q 2388 397 2633 464 
Q 2878 531 3122 666 
L 3122 134 
Q 2881 22 2623 -34 
Q 2366 -91 2075 -91 
Q 1284 -91 818 406 
Q 353 903 353 1747 
Q 353 2603 823 3093 
Q 1294 3584 2113 3584 
Q 2378 3584 2631 3529 
Q 2884 3475 3122 3366 
z
" transform="scale(0.015625)"/>
     </defs>
     <use xlink:href="#DejaVuSans-41"/>
     <use xlink:href="#DejaVuSans-6d" x="68.408203"/>
     <use xlink:href="#DejaVuSans-6f" x="165.820312"/>
     <use xlink:href="#DejaVuSans-75" x="227.001953"/>
     <use xlink:href="#DejaVuSans-6e" x="290.380859"/>
     <use xlink:href="#DejaVuSans-74" x="353.759766"/>
     <use xlink:href="#DejaVuSans-20" x="392.96875"/>
     <use xlink:href="#DejaVuSans-6f" x="424.755859"/>
     <use xlink:href="#DejaVuSans-66" x="485.9375"/>
     <use xlink:href="#DejaVuSans-20" x="521.142578"/>
     <use xlink:href="#DejaVuSans-76" x="552.929688"/>
     <use xlink:href="#DejaVuSans-65" x="612.109375"/>
     <use xlink:href="#DejaVuSans-72" x="673.632812"/>
     <use xlink:href="#DejaVuSans-73" x="714.746094"/>
     <use xlink:href="#DejaVuSans-69" x="766.845703"/>
     <use xlink:href="#DejaVuSans-6f" x="794.628906"/>
     <use xlink:href="#DejaVuSans-6e" x="855.810547"/>
     <use xlink:href="#DejaVuSans-2d" x="919.189453"/>
     <use xlink:href="#DejaVuSans-73" x="955.273438"/>
     <use xlink:href="#DejaVuSans-70" x="1007.373047"/>
     <use xlink:href="#DejaVuSans-65" x="1070.849609"/>
     <use xlink:href="#DejaVuSans-63" x="1132.373047"/>
     <use xlink:href="#DejaVuSans-69" x="1187.353516"/>
     <use xlink:href="#DejaVuSans-66" x="1215.136719"/>
     <use xlink:href="#DejaVuSans-69" x="1250.341797"/>
     <use xlink:href="#DejaVuSans-63" x="1278.125"/>
     <use xlink:href="#DejaVuSans-20" x="1333.105469"/>
     <use xlink:href="#DejaVuSans-66" x="1364.892578"/>
     <use xlink:href="#DejaVuSans-65" x="1400.097656"/>
     <use xlink:href="#DejaVuSans-61" x="1461.621094"/>
     <use xlink:href="#DejaVuSans-74" x="1522.900391"/>
     <use xlink:href="#DejaVuSans-75" x="1562.109375"/>
     <use xlink:href="#DejaVuSans-72" x="1625.488281"/>
     <use xlink:href="#DejaVuSans-65" x="1664.351562"/>
     <use xlink:href="#DejaVuSans-73" x="1725.875"/>
    </g>
   </g>
   <g id="Line3DCollection_3">
    <path d="M 573.890257 374.094538 
L 168.154476 256.609867 
L 41.154922 357.41872 
" style="fill: none; stroke: #b0b0b0; stroke-width: 0.8"/>
    <path d="M 575.284935 347.473807 
L 167.481408 231.150194 
L 39.785848 330.958004 
" style="fill: none; stroke: #b0b0b0; stroke-width: 0.8"/>
    <path d="M 576.694227 320.574136 
L 166.80175 205.441203 
L 38.402562 304.222603 
" style="fill: none; stroke: #b0b0b0; stroke-width: 0.8"/>
    <path d="M 578.118363 293.391118 
L 166.115403 179.479216 
L 37.004842 277.208216 
" style="fill: none; stroke: #b0b0b0; stroke-width: 0.8"/>
    <path d="M 579.55758 265.920253 
L 165.422269 153.260479 
L 35.59246 249.910454 
" style="fill: none; stroke: #b0b0b0; stroke-width: 0.8"/>
    <path d="M 581.012118 238.156944 
L 164.722246 126.781164 
L 34.165184 222.324835 
" style="fill: none; stroke: #b0b0b0; stroke-width: 0.8"/>
   </g>
   <g id="xtick_27">
    <g id="line2d_30">
     <path d="M 570.421377 373.090091 
L 580.839567 376.106778 
" style="fill: none; stroke: #000000; stroke-width: 0.8; stroke-linecap: square"/>
    </g>
    <g id="text_30">
     <!-- 0.0 -->
     <g transform="translate(587.360749 382.363535) scale(0.1 -0.1)">
      <use xlink:href="#DejaVuSans-30"/>
      <use xlink:href="#DejaVuSans-2e" x="63.623047"/>
      <use xlink:href="#DejaVuSans-30" x="95.410156"/>
     </g>
    </g>
   </g>
   <g id="xtick_28">
    <g id="line2d_31">
     <path d="M 571.797209 346.478953 
L 582.27206 349.466844 
" style="fill: none; stroke: #000000; stroke-width: 0.8; stroke-linecap: square"/>
    </g>
    <g id="text_31">
     <!-- 0.1 -->
     <g transform="translate(588.867635 355.736402) scale(0.1 -0.1)">
      <use xlink:href="#DejaVuSans-30"/>
      <use xlink:href="#DejaVuSans-2e" x="63.623047"/>
      <use xlink:href="#DejaVuSans-31" x="95.410156"/>
     </g>
    </g>
   </g>
   <g id="xtick_29">
    <g id="line2d_32">
     <path d="M 573.187449 319.589132 
L 583.71958 322.547457 
" style="fill: none; stroke: #000000; stroke-width: 0.8; stroke-linecap: square"/>
    </g>
    <g id="text_32">
     <!-- 0.2 -->
     <g transform="translate(590.390317 328.830158) scale(0.1 -0.1)">
      <use xlink:href="#DejaVuSans-30"/>
      <use xlink:href="#DejaVuSans-2e" x="63.623047"/>
      <use xlink:href="#DejaVuSans-32" x="95.410156"/>
     </g>
    </g>
   </g>
   <g id="xtick_30">
    <g id="line2d_33">
     <path d="M 574.592325 292.416228 
L 585.182365 295.344196 
" style="fill: none; stroke: #000000; stroke-width: 0.8; stroke-linecap: square"/>
    </g>
    <g id="text_33">
     <!-- 0.3 -->
     <g transform="translate(591.929043 301.640392) scale(0.1 -0.1)">
      <use xlink:href="#DejaVuSans-30"/>
      <use xlink:href="#DejaVuSans-2e" x="63.623047"/>
      <use xlink:href="#DejaVuSans-33" x="95.410156"/>
     </g>
    </g>
   </g>
   <g id="xtick_31">
    <g id="line2d_34">
     <path d="M 576.01207 264.955746 
L 586.660657 267.852547 
" style="fill: none; stroke: #000000; stroke-width: 0.8; stroke-linecap: square"/>
    </g>
    <g id="text_34">
     <!-- 0.4 -->
     <g transform="translate(593.48407 274.162598) scale(0.1 -0.1)">
      <use xlink:href="#DejaVuSans-30"/>
      <use xlink:href="#DejaVuSans-2e" x="63.623047"/>
      <use xlink:href="#DejaVuSans-34" x="95.410156"/>
     </g>
    </g>
   </g>
   <g id="xtick_32">
    <g id="line2d_35">
     <path d="M 577.446919 237.203097 
L 588.154704 240.067899 
" style="fill: none; stroke: #000000; stroke-width: 0.8; stroke-linecap: square"/>
    </g>
    <g id="text_35">
     <!-- 0.5 -->
     <g transform="translate(595.055658 246.392176) scale(0.1 -0.1)">
      <use xlink:href="#DejaVuSans-30"/>
      <use xlink:href="#DejaVuSans-2e" x="63.623047"/>
      <use xlink:href="#DejaVuSans-35" x="95.410156"/>
     </g>
    </g>
   </g>
  </g>
  <g id="axes_1">
   <g id="line2d_36">
    <path d="M 187.148845 392.125032 
L 219.728821 386.090947 
L 226.501619 402.782802 
L 250.034394 404.851573 
L 281.866269 399.428975 
L 313.186543 394.337348 
L 343.256603 390.278681 
L 373.448716 385.997008 
L 401.977412 383.193634 
L 432.010617 378.853091 
L 460.468531 375.943305 
L 486.691487 375.182819 
L 513.018986 374.294902 
L 539.694397 373.024131 
" clip-path="url(#p49fabebd82)" style="fill: none; stroke: #ff0000; stroke-width: 1.5; stroke-linecap: square"/>
   </g>
   <g id="Poly3DCollection_1">
    <path d="M 157.008156 288.494277 
L 150.163012 294.646621 
L 167.873288 294.329849 
z
" clip-path="url(#p49fabebd82)" style="fill: #eef5fc"/>
    <path d="M 167.873288 294.329849 
L 174.712734 288.962686 
L 157.008156 288.494277 
z
" clip-path="url(#p49fabebd82)" style="fill: #ebf3fb"/>
    <path d="M 167.873288 294.329849 
L 150.163012 294.646621 
L 139.988907 304.239589 
z
" clip-path="url(#p49fabebd82)" style="fill: #f0f6fd"/>
    <path d="M 192.16115 271.282969 
L 174.712734 288.962686 
L 167.873288 294.329849 
z
" clip-path="url(#p49fabebd82)" style="fill: #dce9f6"/>
    <path d="M 139.988907 304.239589 
L 157.774963 305.304251 
L 167.873288 294.329849 
z
" clip-path="url(#p49fabebd82)" style="fill: #eef5fc"/>
    <path d="M 139.988907 304.239589 
L 134.649732 308.761894 
L 152.461602 309.95963 
z
" clip-path="url(#p49fabebd82)" style="fill: #f2f8fd"/>
    <path d="M 152.461602 309.95963 
L 157.774963 305.304251 
L 139.988907 304.239589 
z
" clip-path="url(#p49fabebd82)" style="fill: #f0f6fd"/>
    <path d="M 167.873288 294.329849 
L 185.258052 273.655289 
L 192.16115 271.282969 
z
" clip-path="url(#p49fabebd82)" style="fill: #cddff1"/>
    <path d="M 203.870055 300.355732 
L 210.642675 295.050875 
L 192.16115 271.282969 
z
" clip-path="url(#p49fabebd82)" style="fill: #d6e6f4"/>
    <path d="M 134.649732 308.761894 
L 125.740093 315.336713 
L 152.461602 309.95963 
z
" clip-path="url(#p49fabebd82)" style="fill: #f2f8fd"/>
    <path d="M 192.16115 271.282969 
L 185.258052 273.655289 
L 203.870055 300.355732 
z
" clip-path="url(#p49fabebd82)" style="fill: #cadef0"/>
    <path d="M 167.873288 294.329849 
L 157.774963 305.304251 
L 174.575637 261.797669 
z
" clip-path="url(#p49fabebd82)" style="fill: #d0e2f2"/>
    <path d="M 125.740093 315.336713 
L 143.599502 316.789757 
L 152.461602 309.95963 
z
" clip-path="url(#p49fabebd82)" style="fill: #f0f6fd"/>
    <path d="M 174.575637 261.797669 
L 185.258052 273.655289 
L 167.873288 294.329849 
z
" clip-path="url(#p49fabebd82)" style="fill: #bcd7eb"/>
    <path d="M 142.704386 312.496741 
L 125.740093 315.336713 
L 124.971261 315.212704 
z
" clip-path="url(#p49fabebd82)" style="fill: #eef5fc"/>
    <path d="M 228.119125 252.746114 
L 210.642675 295.050875 
L 203.870055 300.355732 
z
" clip-path="url(#p49fabebd82)" style="fill: #c7dbef"/>
    <path d="M 174.575637 261.797669 
L 157.774963 305.304251 
L 152.461602 309.95963 
z
" clip-path="url(#p49fabebd82)" style="fill: #d2e3f3"/>
    <path d="M 142.704386 312.496741 
L 143.599502 316.789757 
L 125.740093 315.336713 
z
" clip-path="url(#p49fabebd82)" style="fill: #edf4fc"/>
    <path d="M 124.971261 315.212704 
L 116.374918 318.383405 
L 142.704386 312.496741 
z
" clip-path="url(#p49fabebd82)" style="fill: #ecf4fb"/>
    <path d="M 203.870055 300.355732 
L 185.258052 273.655289 
L 174.575637 261.797669 
z
" clip-path="url(#p49fabebd82)" style="fill: #b8d5ea"/>
    <path d="M 174.575637 261.797669 
L 193.684759 303.66881 
L 203.870055 300.355732 
z
" clip-path="url(#p49fabebd82)" style="fill: #c7dbef"/>
    <path d="M 116.374918 318.383405 
L 134.31571 320.65948 
L 142.704386 312.496741 
z
" clip-path="url(#p49fabebd82)" style="fill: #e8f1fa"/>
    <path d="M 203.870055 300.355732 
L 193.684759 303.66881 
L 211.449 279.606414 
z
" clip-path="url(#p49fabebd82)" style="fill: #cadef0"/>
    <path d="M 221.364449 260.642106 
L 228.119125 252.746114 
L 203.870055 300.355732 
z
" clip-path="url(#p49fabebd82)" style="fill: #9dcae1"/>
    <path d="M 169.035955 258.77628 
L 174.575637 261.797669 
L 152.461602 309.95963 
z
" clip-path="url(#p49fabebd82)" style="fill: #a6cee4"/>
    <path d="M 152.461602 309.95963 
L 143.599502 316.789757 
L 159.498235 243.33765 
z
" clip-path="url(#p49fabebd82)" style="fill: #bed8ec"/>
    <path d="M 188.118762 295.444888 
L 193.684759 303.66881 
L 174.575637 261.797669 
z
" clip-path="url(#p49fabebd82)" style="fill: #b7d4ea"/>
    <path d="M 211.449 279.606414 
L 221.364449 260.642106 
L 203.870055 300.355732 
z
" clip-path="url(#p49fabebd82)" style="fill: #a9cfe5"/>
    <path d="M 121.767244 330.58802 
L 134.31571 320.65948 
L 116.374918 318.383405 
z
" clip-path="url(#p49fabebd82)" style="fill: #e9f2fa"/>
    <path d="M 121.767244 330.58802 
L 116.374918 318.383405 
L 103.772353 328.341431 
z
" clip-path="url(#p49fabebd82)" style="fill: #eaf3fb"/>
    <path d="M 159.498235 243.33765 
L 143.599502 316.789757 
L 142.704386 312.496741 
z
" clip-path="url(#p49fabebd82)" style="fill: #bad6eb"/>
    <path d="M 211.449 279.606414 
L 193.684759 303.66881 
L 188.118762 295.444888 
z
" clip-path="url(#p49fabebd82)" style="fill: #bdd7ec"/>
    <path d="M 296.178111 341.020102 
L 302.73176 335.210811 
L 284.061672 312.982891 
z
" clip-path="url(#p49fabebd82)" style="fill: #eef5fc"/>
    <path d="M 188.118762 295.444888 
L 174.575637 261.797669 
L 169.035955 258.77628 
z
" clip-path="url(#p49fabebd82)" style="fill: #8abfdd"/>
    <path d="M 284.061672 312.982891 
L 265.343226 285.229366 
L 258.656387 290.676331 
z
" clip-path="url(#p49fabebd82)" style="fill: #bfd8ed"/>
    <path d="M 152.461602 309.95963 
L 159.498235 243.33765 
L 169.035955 258.77628 
z
" clip-path="url(#p49fabebd82)" style="fill: #85bcdc"/>
    <path d="M 284.061672 312.982891 
L 277.455432 320.404123 
L 296.178111 341.020102 
z
" clip-path="url(#p49fabebd82)" style="fill: #e5eff9"/>
    <path d="M 321.460515 335.880977 
L 302.73176 335.210811 
L 296.178111 341.020102 
z
" clip-path="url(#p49fabebd82)" style="fill: #f5f9fe"/>
    <path d="M 258.656387 290.676331 
L 277.455432 320.404123 
L 284.061672 312.982891 
z
" clip-path="url(#p49fabebd82)" style="fill: #cfe1f2"/>
    <path d="M 179.391166 305.670516 
L 188.118762 295.444888 
L 169.035955 258.77628 
z
" clip-path="url(#p49fabebd82)" style="fill: #a8cee4"/>
    <path d="M 228.119125 252.746114 
L 221.364449 260.642106 
L 239.558835 242.041404 
z
" clip-path="url(#p49fabebd82)" style="fill: #529dcc"/>
    <path d="M 258.656387 290.676331 
L 265.343226 285.229366 
L 246.356716 237.87003 
z
" clip-path="url(#p49fabebd82)" style="fill: #7db8da"/>
    <path d="M 277.455432 320.404123 
L 267.667787 337.011697 
L 296.178111 341.020102 
z
" clip-path="url(#p49fabebd82)" style="fill: #eaf3fb"/>
    <path d="M 258.656387 290.676331 
L 267.667787 337.011697 
L 277.455432 320.404123 
z
" clip-path="url(#p49fabebd82)" style="fill: #d5e5f4"/>
    <path d="M 314.941341 341.900598 
L 321.460515 335.880977 
L 296.178111 341.020102 
z
" clip-path="url(#p49fabebd82)" style="fill: #f2f7fd"/>
    <path d="M 228.119125 252.746114 
L 239.558835 242.041404 
L 246.356716 237.87003 
z
" clip-path="url(#p49fabebd82)" style="fill: #3e8ec4"/>
    <path d="M 103.772353 328.341431 
L 91.769881 314.51007 
L 121.767244 330.58802 
z
" clip-path="url(#p49fabebd82)" style="fill: #ddeaf7"/>
    <path d="M 248.873374 314.581915 
L 267.667787 337.011697 
L 258.656387 290.676331 
z
" clip-path="url(#p49fabebd82)" style="fill: #d0e1f2"/>
    <path d="M 296.178111 341.020102 
L 267.667787 337.011697 
L 286.419027 349.670759 
z
" clip-path="url(#p49fabebd82)" style="fill: #f3f8fe"/>
    <path d="M 142.704386 312.496741 
L 134.31571 320.65948 
L 148.87474 205.090405 
z
" clip-path="url(#p49fabebd82)" style="fill: #8abfdd"/>
    <path d="M 246.356716 237.87003 
L 239.558835 242.041404 
L 258.656387 290.676331 
z
" clip-path="url(#p49fabebd82)" style="fill: #529dcc"/>
    <path d="M 333.817524 350.196743 
L 340.293999 343.89094 
L 321.460515 335.880977 
z
" clip-path="url(#p49fabebd82)" style="fill: #f2f8fd"/>
    <path d="M 169.035955 258.77628 
L 159.498235 243.33765 
L 179.391166 305.670516 
z
" clip-path="url(#p49fabebd82)" style="fill: #6caed6"/>
    <path d="M 333.817524 350.196743 
L 321.460515 335.880977 
L 314.941341 341.900598 
z
" clip-path="url(#p49fabebd82)" style="fill: #f1f7fd"/>
    <path d="M 205.248393 236.212361 
L 188.118762 295.444888 
L 179.391166 305.670516 
z
" clip-path="url(#p49fabebd82)" style="fill: #84bcdb"/>
    <path d="M 188.118762 295.444888 
L 205.248393 236.212361 
L 211.449 279.606414 
z
" clip-path="url(#p49fabebd82)" style="fill: #6dafd7"/>
    <path d="M 248.873374 314.581915 
L 243.608235 313.244099 
L 267.667787 337.011697 
z
" clip-path="url(#p49fabebd82)" style="fill: #d5e5f4"/>
    <path d="M 296.178111 341.020102 
L 305.233591 348.214664 
L 314.941341 341.900598 
z
" clip-path="url(#p49fabebd82)" style="fill: #f1f7fd"/>
    <path d="M 178.401461 295.972199 
L 179.391166 305.670516 
L 159.498235 243.33765 
z
" clip-path="url(#p49fabebd82)" style="fill: #87bddc"/>
    <path d="M 267.667787 337.011697 
L 243.608235 313.244099 
L 262.581092 348.572382 
z
" clip-path="url(#p49fabebd82)" style="fill: #e3eef8"/>
    <path d="M 286.419027 349.670759 
L 305.233591 348.214664 
L 296.178111 341.020102 
z
" clip-path="url(#p49fabebd82)" style="fill: #f3f8fe"/>
    <path d="M 229.259024 236.681497 
L 221.364449 260.642106 
L 211.449 279.606414 
z
" clip-path="url(#p49fabebd82)" style="fill: #529dcc"/>
    <path d="M 281.310486 354.199076 
L 267.667787 337.011697 
L 262.581092 348.572382 
z
" clip-path="url(#p49fabebd82)" style="fill: #f3f8fe"/>
    <path d="M 286.419027 349.670759 
L 267.667787 337.011697 
L 281.310486 354.199076 
z
" clip-path="url(#p49fabebd82)" style="fill: #f3f8fe"/>
    <path d="M 207.869728 352.466746 
L 215.667898 320.742166 
L 197.204525 317.970419 
z
" clip-path="url(#p49fabebd82)" style="fill: #ddeaf7"/>
    <path d="M 188.508352 308.185526 
L 197.204525 317.970419 
L 178.401461 295.972199 
z
" clip-path="url(#p49fabebd82)" style="fill: #bcd7eb"/>
    <path d="M 196.82205 264.308781 
L 179.391166 305.670516 
L 178.401461 295.972199 
z
" clip-path="url(#p49fabebd82)" style="fill: #94c4df"/>
    <path d="M 258.656387 290.676331 
L 229.259024 236.681497 
L 248.873374 314.581915 
z
" clip-path="url(#p49fabebd82)" style="fill: #7fb9da"/>
    <path d="M 352.799044 357.86321 
L 359.22796 351.943635 
L 340.293999 343.89094 
z
" clip-path="url(#p49fabebd82)" style="fill: #f6faff"/>
    <path d="M 142.704386 312.496741 
L 157.537912 200.897657 
L 159.498235 243.33765 
z
" clip-path="url(#p49fabebd82)" style="fill: #4090c5"/>
    <path d="M 91.769881 314.51007 
L 110.016342 320.046154 
L 121.767244 330.58802 
z
" clip-path="url(#p49fabebd82)" style="fill: #d1e2f3"/>
    <path d="M 239.558835 242.041404 
L 221.364449 260.642106 
L 229.259024 236.681497 
z
" clip-path="url(#p49fabebd82)" style="fill: #3585bf"/>
    <path d="M 262.581092 348.572382 
L 243.608235 313.244099 
L 254.033901 356.055727 
z
" clip-path="url(#p49fabebd82)" style="fill: #e7f0fa"/>
    <path d="M 340.293999 343.89094 
L 333.817524 350.196743 
L 352.799044 357.86321 
z
" clip-path="url(#p49fabebd82)" style="fill: #f5f9fe"/>
    <path d="M 148.87474 205.090405 
L 134.31571 320.65948 
L 121.767244 330.58802 
z
" clip-path="url(#p49fabebd82)" style="fill: #8cc0dd"/>
    <path d="M 262.581092 348.572382 
L 254.033901 356.055727 
L 281.310486 354.199076 
z
" clip-path="url(#p49fabebd82)" style="fill: #f7fbff"/>
    <path d="M 314.941341 341.900598 
L 305.233591 348.214664 
L 333.817524 350.196743 
z
" clip-path="url(#p49fabebd82)" style="fill: #eff6fc"/>
    <path d="M 197.204525 317.970419 
L 215.667898 320.742166 
L 216.15784 306.52476 
z
" clip-path="url(#p49fabebd82)" style="fill: #c8dcf0"/>
    <path d="M 178.401461 295.972199 
L 197.204525 317.970419 
L 196.82205 264.308781 
z
" clip-path="url(#p49fabebd82)" style="fill: #9ac8e0"/>
    <path d="M 207.869728 352.466746 
L 197.204525 317.970419 
L 188.508352 308.185526 
z
" clip-path="url(#p49fabebd82)" style="fill: #d5e5f4"/>
    <path d="M 224.894743 300.63255 
L 216.15784 306.52476 
L 243.608235 313.244099 
z
" clip-path="url(#p49fabebd82)" style="fill: #b7d4ea"/>
    <path d="M 281.310486 354.199076 
L 305.233591 348.214664 
L 286.419027 349.670759 
z
" clip-path="url(#p49fabebd82)" style="fill: #f3f8fe"/>
    <path d="M 239.558835 242.041404 
L 229.259024 236.681497 
L 258.656387 290.676331 
z
" clip-path="url(#p49fabebd82)" style="fill: #4493c7"/>
    <path d="M 178.401461 295.972199 
L 169.751445 292.94758 
L 188.508352 308.185526 
z
" clip-path="url(#p49fabebd82)" style="fill: #a4cce3"/>
    <path d="M 248.873374 314.581915 
L 229.259024 236.681497 
L 243.608235 313.244099 
z
" clip-path="url(#p49fabebd82)" style="fill: #8abfdd"/>
    <path d="M 378.297601 357.591607 
L 359.22796 351.943635 
L 352.799044 357.86321 
z
" clip-path="url(#p49fabebd82)" style="fill: #f7fbff"/>
    <path d="M 243.608235 313.244099 
L 229.259024 236.681497 
L 224.894743 300.63255 
z
" clip-path="url(#p49fabebd82)" style="fill: #7ab6d9"/>
    <path d="M 254.033901 356.055727 
L 243.608235 313.244099 
L 234.952863 320.173769 
z
" clip-path="url(#p49fabebd82)" style="fill: #d6e5f4"/>
    <path d="M 196.82205 264.308781 
L 197.204525 317.970419 
L 216.15784 306.52476 
z
" clip-path="url(#p49fabebd82)" style="fill: #9ac8e0"/>
    <path d="M 234.112952 312.449674 
L 215.667898 320.742166 
L 207.869728 352.466746 
z
" clip-path="url(#p49fabebd82)" style="fill: #d3e4f3"/>
    <path d="M 333.817524 350.196743 
L 305.233591 348.214664 
L 324.169988 360.973605 
z
" clip-path="url(#p49fabebd82)" style="fill: #f2f8fd"/>
    <path d="M 352.799044 357.86321 
L 333.817524 350.196743 
L 324.169988 360.973605 
z
" clip-path="url(#p49fabebd82)" style="fill: #f6faff"/>
    <path d="M 281.310486 354.199076 
L 300.15817 359.861306 
L 305.233591 348.214664 
z
" clip-path="url(#p49fabebd82)" style="fill: #f3f8fe"/>
    <path d="M 281.310486 354.199076 
L 254.033901 356.055727 
L 272.814938 361.729707 
z
" clip-path="url(#p49fabebd82)" style="fill: #f7fbff"/>
    <path d="M 243.608235 313.244099 
L 216.15784 306.52476 
L 234.952863 320.173769 
z
" clip-path="url(#p49fabebd82)" style="fill: #bdd7ec"/>
    <path d="M 216.15784 306.52476 
L 224.894743 300.63255 
L 205.248393 236.212361 
z
" clip-path="url(#p49fabebd82)" style="fill: #72b2d8"/>
    <path d="M 179.391166 305.670516 
L 196.82205 264.308781 
L 205.248393 236.212361 
z
" clip-path="url(#p49fabebd82)" style="fill: #57a0ce"/>
    <path d="M 211.449 279.606414 
L 205.248393 236.212361 
L 229.259024 236.681497 
z
" clip-path="url(#p49fabebd82)" style="fill: #3484bf"/>
    <path d="M 253.319054 356.681599 
L 272.1044 362.359543 
L 254.033901 356.055727 
z
" clip-path="url(#p49fabebd82)" style="fill: #f7fbff"/>
    <path d="M 216.15784 306.52476 
L 215.667898 320.742166 
L 234.112952 312.449674 
z
" clip-path="url(#p49fabebd82)" style="fill: #bad6eb"/>
    <path d="M 234.112952 312.449674 
L 253.319054 356.681599 
L 254.033901 356.055727 
z
" clip-path="url(#p49fabebd82)" style="fill: #e1edf8"/>
    <path d="M 159.498235 243.33765 
L 157.537912 200.897657 
L 178.401461 295.972199 
z
" clip-path="url(#p49fabebd82)" style="fill: #2c7cba"/>
    <path d="M 352.799044 357.86321 
L 371.911577 363.548642 
L 378.297601 357.591607 
z
" clip-path="url(#p49fabebd82)" style="fill: #f7fbff"/>
    <path d="M 121.767244 330.58802 
L 110.016342 320.046154 
L 127.352543 295.886564 
z
" clip-path="url(#p49fabebd82)" style="fill: #bdd7ec"/>
    <path d="M 254.033901 356.055727 
L 272.1044 362.359543 
L 272.814938 361.729707 
z
" clip-path="url(#p49fabebd82)" style="fill: #f7fbff"/>
    <path d="M 148.87474 205.090405 
L 157.537912 200.897657 
L 142.704386 312.496741 
z
" clip-path="url(#p49fabebd82)" style="fill: #206fb4"/>
    <path d="M 205.248393 236.212361 
L 224.894743 300.63255 
L 229.259024 236.681497 
z
" clip-path="url(#p49fabebd82)" style="fill: #3c8cc3"/>
    <path d="M 300.15817 359.861306 
L 281.310486 354.199076 
L 291.715089 367.439674 
z
" clip-path="url(#p49fabebd82)" style="fill: #f7fbff"/>
    <path d="M 254.033901 356.055727 
L 234.952863 320.173769 
L 234.112952 312.449674 
z
" clip-path="url(#p49fabebd82)" style="fill: #d1e2f3"/>
    <path d="M 110.016342 320.046154 
L 91.769881 314.51007 
L 73.434197 329.041805 
z
" clip-path="url(#p49fabebd82)" style="fill: #c7dbef"/>
    <path d="M 188.508352 308.185526 
L 176.155242 320.797419 
L 207.869728 352.466746 
z
" clip-path="url(#p49fabebd82)" style="fill: #cde0f1"/>
    <path d="M 272.1044 362.359543 
L 253.319054 356.681599 
L 245.182897 363.80507 
z
" clip-path="url(#p49fabebd82)" style="fill: #f7fbff"/>
    <path d="M 305.233591 348.214664 
L 300.15817 359.861306 
L 319.125266 365.55941 
z
" clip-path="url(#p49fabebd82)" style="fill: #f3f8fe"/>
    <path d="M 291.715089 367.439674 
L 281.310486 354.199076 
L 272.814938 361.729707 
z
" clip-path="url(#p49fabebd82)" style="fill: #f7fbff"/>
    <path d="M 234.112952 312.449674 
L 234.952863 320.173769 
L 216.15784 306.52476 
z
" clip-path="url(#p49fabebd82)" style="fill: #b5d4e9"/>
    <path d="M 324.169988 360.973605 
L 305.233591 348.214664 
L 319.125266 365.55941 
z
" clip-path="url(#p49fabebd82)" style="fill: #f3f8fe"/>
    <path d="M 207.869728 352.466746 
L 226.014651 329.053727 
L 234.112952 312.449674 
z
" clip-path="url(#p49fabebd82)" style="fill: #d1e2f3"/>
    <path d="M 207.869728 352.466746 
L 176.155242 320.797419 
L 195.624504 362.930773 
z
" clip-path="url(#p49fabebd82)" style="fill: #e3eef8"/>
    <path d="M 352.799044 357.86321 
L 324.169988 360.973605 
L 343.224963 366.678769 
z
" clip-path="url(#p49fabebd82)" style="fill: #f7fbff"/>
    <path d="M 148.87474 205.090405 
L 169.751445 292.94758 
L 178.401461 295.972199 
z
" clip-path="url(#p49fabebd82)" style="fill: #4695c8"/>
    <path d="M 205.248393 236.212361 
L 196.82205 264.308781 
L 216.15784 306.52476 
z
" clip-path="url(#p49fabebd82)" style="fill: #4d99ca"/>
    <path d="M 169.751445 292.94758 
L 176.155242 320.797419 
L 188.508352 308.185526 
z
" clip-path="url(#p49fabebd82)" style="fill: #a6cee4"/>
    <path d="M 226.014651 329.053727 
L 245.182897 363.80507 
L 253.319054 356.681599 
z
" clip-path="url(#p49fabebd82)" style="fill: #e7f0fa"/>
    <path d="M 234.112952 312.449674 
L 226.014651 329.053727 
L 253.319054 356.681599 
z
" clip-path="url(#p49fabebd82)" style="fill: #d1e2f3"/>
    <path d="M 391.156673 368.593937 
L 397.498841 362.661746 
L 378.297601 357.591607 
z
" clip-path="url(#p49fabebd82)" style="fill: #f7fbff"/>
    <path d="M 378.297601 357.591607 
L 371.911577 363.548642 
L 391.156673 368.593937 
z
" clip-path="url(#p49fabebd82)" style="fill: #f7fbff"/>
    <path d="M 272.814938 361.729707 
L 272.1044 362.359543 
L 291.715089 367.439674 
z
" clip-path="url(#p49fabebd82)" style="fill: #f7fbff"/>
    <path d="M 300.15817 359.861306 
L 291.715089 367.439674 
L 319.125266 365.55941 
z
" clip-path="url(#p49fabebd82)" style="fill: #f7fbff"/>
    <path d="M 343.224963 366.678769 
L 324.169988 360.973605 
L 319.125266 365.55941 
z
" clip-path="url(#p49fabebd82)" style="fill: #f7fbff"/>
    <path d="M 352.799044 357.86321 
L 362.401124 372.420218 
L 371.911577 363.548642 
z
" clip-path="url(#p49fabebd82)" style="fill: #f7fbff"/>
    <path d="M 195.624504 362.930773 
L 213.754214 338.739219 
L 207.869728 352.466746 
z
" clip-path="url(#p49fabebd82)" style="fill: #e7f0fa"/>
    <path d="M 169.751445 292.94758 
L 157.305833 305.216403 
L 176.155242 320.797419 
z
" clip-path="url(#p49fabebd82)" style="fill: #9fcae1"/>
    <path d="M 245.182897 363.80507 
L 263.990496 366.301849 
L 272.1044 362.359543 
z
" clip-path="url(#p49fabebd82)" style="fill: #f5fafe"/>
    <path d="M 343.224963 366.678769 
L 362.401124 372.420218 
L 352.799044 357.86321 
z
" clip-path="url(#p49fabebd82)" style="fill: #f7fbff"/>
    <path d="M 291.715089 367.439674 
L 272.1044 362.359543 
L 291.008929 368.073512 
z
" clip-path="url(#p49fabebd82)" style="fill: #f7fbff"/>
    <path d="M 207.869728 352.466746 
L 213.754214 338.739219 
L 226.014651 329.053727 
z
" clip-path="url(#p49fabebd82)" style="fill: #d6e6f4"/>
    <path d="M 178.401461 295.972199 
L 157.537912 200.897657 
L 148.87474 205.090405 
z
" clip-path="url(#p49fabebd82)" style="fill: #105ba4"/>
    <path d="M 416.806677 368.68771 
L 397.498841 362.661746 
L 391.156673 368.593937 
z
" clip-path="url(#p49fabebd82)" style="fill: #f6faff"/>
    <path d="M 73.434197 329.041805 
L 91.773989 334.670181 
L 110.016342 320.046154 
z
" clip-path="url(#p49fabebd82)" style="fill: #c7dbef"/>
    <path d="M 319.125266 365.55941 
L 338.212914 371.293731 
L 343.224963 366.678769 
z
" clip-path="url(#p49fabebd82)" style="fill: #f7fbff"/>
    <path d="M 195.624504 362.930773 
L 176.155242 320.797419 
L 184.871916 372.119285 
z
" clip-path="url(#p49fabebd82)" style="fill: #e3eef8"/>
    <path d="M 272.1044 362.359543 
L 282.971425 375.287842 
L 291.008929 368.073512 
z
" clip-path="url(#p49fabebd82)" style="fill: #f7fbff"/>
    <path d="M 319.125266 365.55941 
L 291.715089 367.439674 
L 310.735492 373.185971 
z
" clip-path="url(#p49fabebd82)" style="fill: #f7fbff"/>
    <path d="M 272.1044 362.359543 
L 263.990496 366.301849 
L 282.971425 375.287842 
z
" clip-path="url(#p49fabebd82)" style="fill: #f5fafe"/>
    <path d="M 184.871916 372.119285 
L 176.155242 320.797419 
L 166.261571 366.379741 
z
" clip-path="url(#p49fabebd82)" style="fill: #e3eef8"/>
    <path d="M 263.990496 366.301849 
L 245.182897 363.80507 
L 233.079062 374.402374 
z
" clip-path="url(#p49fabebd82)" style="fill: #f5fafe"/>
    <path d="M 291.008929 368.073512 
L 310.033781 373.823848 
L 291.715089 367.439674 
z
" clip-path="url(#p49fabebd82)" style="fill: #f7fbff"/>
    <path d="M 226.014651 329.053727 
L 213.754214 338.739219 
L 245.182897 363.80507 
z
" clip-path="url(#p49fabebd82)" style="fill: #d6e6f4"/>
    <path d="M 381.707744 377.649142 
L 391.156673 368.593937 
L 371.911577 363.548642 
z
" clip-path="url(#p49fabebd82)" style="fill: #f7fbff"/>
    <path d="M 121.767244 330.58802 
L 127.352543 295.886564 
L 135.976055 211.481641 
z
" clip-path="url(#p49fabebd82)" style="fill: #549fcd"/>
    <path d="M 391.156673 368.593937 
L 410.508736 374.689348 
L 416.806677 368.68771 
z
" clip-path="url(#p49fabebd82)" style="fill: #f7fbff"/>
    <path d="M 195.624504 362.930773 
L 184.871916 372.119285 
L 213.754214 338.739219 
z
" clip-path="url(#p49fabebd82)" style="fill: #e7f0fa"/>
    <path d="M 371.911577 363.548642 
L 362.401124 372.420218 
L 381.707744 377.649142 
z
" clip-path="url(#p49fabebd82)" style="fill: #f7fbff"/>
    <path d="M 310.033781 373.823848 
L 310.735492 373.185971 
L 291.715089 367.439674 
z
" clip-path="url(#p49fabebd82)" style="fill: #f7fbff"/>
    <path d="M 343.224963 366.678769 
L 338.212914 371.293731 
L 357.422267 377.064614 
z
" clip-path="url(#p49fabebd82)" style="fill: #f7fbff"/>
    <path d="M 329.877298 378.968944 
L 338.212914 371.293731 
L 319.125266 365.55941 
z
" clip-path="url(#p49fabebd82)" style="fill: #f7fbff"/>
    <path d="M 357.422267 377.064614 
L 362.401124 372.420218 
L 343.224963 366.678769 
z
" clip-path="url(#p49fabebd82)" style="fill: #f7fbff"/>
    <path d="M 135.976055 211.481641 
L 148.87474 205.090405 
L 121.767244 330.58802 
z
" clip-path="url(#p49fabebd82)" style="fill: #1d6cb1"/>
    <path d="M 245.182897 363.80507 
L 213.754214 338.739219 
L 233.079062 374.402374 
z
" clip-path="url(#p49fabebd82)" style="fill: #e7f0fa"/>
    <path d="M 319.125266 365.55941 
L 310.735492 373.185971 
L 329.877298 378.968944 
z
" clip-path="url(#p49fabebd82)" style="fill: #f7fbff"/>
    <path d="M 135.976055 211.481641 
L 157.305833 305.216403 
L 169.751445 292.94758 
z
" clip-path="url(#p49fabebd82)" style="fill: #3d8dc4"/>
    <path d="M 410.508736 374.689348 
L 436.235135 374.75132 
L 416.806677 368.68771 
z
" clip-path="url(#p49fabebd82)" style="fill: #f7fbff"/>
    <path d="M 302.046796 381.08426 
L 310.033781 373.823848 
L 291.008929 368.073512 
z
" clip-path="url(#p49fabebd82)" style="fill: #f7fbff"/>
    <path d="M 410.508736 374.689348 
L 391.156673 368.593937 
L 381.707744 377.649142 
z
" clip-path="url(#p49fabebd82)" style="fill: #f6faff"/>
    <path d="M 291.008929 368.073512 
L 282.971425 375.287842 
L 302.046796 381.08426 
z
" clip-path="url(#p49fabebd82)" style="fill: #f7fbff"/>
    <path d="M 109.090959 310.439917 
L 110.016342 320.046154 
L 91.773989 334.670181 
z
" clip-path="url(#p49fabebd82)" style="fill: #abd0e6"/>
    <path d="M 167.128216 387.281976 
L 184.871916 372.119285 
L 166.261571 366.379741 
z
" clip-path="url(#p49fabebd82)" style="fill: #f7fbff"/>
    <path d="M 127.352543 295.886564 
L 110.016342 320.046154 
L 109.090959 310.439917 
z
" clip-path="url(#p49fabebd82)" style="fill: #8dc1dd"/>
    <path d="M 233.079062 374.402374 
L 251.950423 376.873459 
L 263.990496 366.301849 
z
" clip-path="url(#p49fabebd82)" style="fill: #f4f9fe"/>
    <path d="M 329.180106 379.6109 
L 310.735492 373.185971 
L 310.033781 373.823848 
z
" clip-path="url(#p49fabebd82)" style="fill: #f7fbff"/>
    <path d="M 357.422267 377.064614 
L 338.212914 371.293731 
L 329.877298 378.968944 
z
" clip-path="url(#p49fabebd82)" style="fill: #f7fbff"/>
    <path d="M 362.401124 372.420218 
L 357.422267 377.064614 
L 381.707744 377.649142 
z
" clip-path="url(#p49fabebd82)" style="fill: #f7fbff"/>
    <path d="M 213.754214 338.739219 
L 184.871916 372.119285 
L 203.600975 377.895441 
z
" clip-path="url(#p49fabebd82)" style="fill: #e7f0fa"/>
    <path d="M 429.981868 380.822893 
L 436.235135 374.75132 
L 410.508736 374.689348 
z
" clip-path="url(#p49fabebd82)" style="fill: #f7fbff"/>
    <path d="M 169.751445 292.94758 
L 148.87474 205.090405 
L 135.976055 211.481641 
z
" clip-path="url(#p49fabebd82)" style="fill: #08509b"/>
    <path d="M 329.877298 378.968944 
L 310.735492 373.185971 
L 329.180106 379.6109 
z
" clip-path="url(#p49fabebd82)" style="fill: #f7fbff"/>
    <path d="M 271.013603 386.020984 
L 282.971425 375.287842 
L 263.990496 366.301849 
z
" clip-path="url(#p49fabebd82)" style="fill: #f5fafe"/>
    <path d="M 302.046796 381.08426 
L 329.180106 379.6109 
L 310.033781 373.823848 
z
" clip-path="url(#p49fabebd82)" style="fill: #f7fbff"/>
    <path d="M 166.261571 366.379741 
L 148.419257 381.446075 
L 167.128216 387.281976 
z
" clip-path="url(#p49fabebd82)" style="fill: #f7fbff"/>
    <path d="M 203.600975 377.895441 
L 184.871916 372.119285 
L 167.128216 387.281976 
z
" clip-path="url(#p49fabebd82)" style="fill: #f7fbff"/>
    <path d="M 222.44989 383.708561 
L 233.079062 374.402374 
L 213.754214 338.739219 
z
" clip-path="url(#p49fabebd82)" style="fill: #e7f0fa"/>
    <path d="M 401.121656 384.013359 
L 410.508736 374.689348 
L 381.707744 377.649142 
z
" clip-path="url(#p49fabebd82)" style="fill: #f7fbff"/>
    <path d="M 263.990496 366.301849 
L 251.950423 376.873459 
L 271.013603 386.020984 
z
" clip-path="url(#p49fabebd82)" style="fill: #f4f9fe"/>
    <path d="M 381.707744 377.649142 
L 357.422267 377.064614 
L 376.774234 381.443773 
z
" clip-path="url(#p49fabebd82)" style="fill: #f6faff"/>
    <path d="M 251.950423 376.873459 
L 233.079062 374.402374 
L 222.44989 383.708561 
z
" clip-path="url(#p49fabebd82)" style="fill: #f5fafe"/>
    <path d="M 329.877298 378.968944 
L 349.141673 384.788947 
L 357.422267 377.064614 
z
" clip-path="url(#p49fabebd82)" style="fill: #f7fbff"/>
    <path d="M 213.754214 338.739219 
L 203.600975 377.895441 
L 222.44989 383.708561 
z
" clip-path="url(#p49fabebd82)" style="fill: #e7f0fa"/>
    <path d="M 455.794394 380.544305 
L 436.235135 374.75132 
L 449.586776 386.654793 
z
" clip-path="url(#p49fabebd82)" style="fill: #f7fbff"/>
    <path d="M 449.586776 386.654793 
L 436.235135 374.75132 
L 429.981868 380.822893 
z
" clip-path="url(#p49fabebd82)" style="fill: #f7fbff"/>
    <path d="M 302.046796 381.08426 
L 282.971425 375.287842 
L 271.013603 386.020984 
z
" clip-path="url(#p49fabebd82)" style="fill: #f7fbff"/>
    <path d="M 329.877298 378.968944 
L 329.180106 379.6109 
L 349.141673 384.788947 
z
" clip-path="url(#p49fabebd82)" style="fill: #f7fbff"/>
    <path d="M 410.508736 374.689348 
L 420.668392 389.865759 
L 429.981868 380.822893 
z
" clip-path="url(#p49fabebd82)" style="fill: #f7fbff"/>
    <path d="M 321.244454 386.917838 
L 329.180106 379.6109 
L 302.046796 381.08426 
z
" clip-path="url(#p49fabebd82)" style="fill: #f7fbff"/>
    <path d="M 410.508736 374.689348 
L 401.121656 384.013359 
L 420.668392 389.865759 
z
" clip-path="url(#p49fabebd82)" style="fill: #f7fbff"/>
    <path d="M 349.141673 384.788947 
L 329.180106 379.6109 
L 348.449073 385.435021 
z
" clip-path="url(#p49fabebd82)" style="fill: #f7fbff"/>
    <path d="M 166.261571 366.379741 
L 176.155242 320.797419 
L 143.103033 209.94599 
z
" clip-path="url(#p49fabebd82)" style="fill: #64a9d3"/>
    <path d="M 376.774234 381.443773 
L 396.210772 388.717475 
L 381.707744 377.649142 
z
" clip-path="url(#p49fabebd82)" style="fill: #f6faff"/>
    <path d="M 357.422267 377.064614 
L 368.529799 390.646337 
L 376.774234 381.443773 
z
" clip-path="url(#p49fabebd82)" style="fill: #f6faff"/>
    <path d="M 381.707744 377.649142 
L 396.210772 388.717475 
L 401.121656 384.013359 
z
" clip-path="url(#p49fabebd82)" style="fill: #f7fbff"/>
    <path d="M 176.155242 320.797419 
L 157.305833 305.216403 
L 143.103033 209.94599 
z
" clip-path="url(#p49fabebd82)" style="fill: #3b8bc2"/>
    <path d="M 357.422267 377.064614 
L 349.141673 384.788947 
L 368.529799 390.646337 
z
" clip-path="url(#p49fabebd82)" style="fill: #f7fbff"/>
    <path d="M 449.586776 386.654793 
L 475.479005 386.374416 
L 455.794394 380.544305 
z
" clip-path="url(#p49fabebd82)" style="fill: #f7fbff"/>
    <path d="M 222.44989 383.708561 
L 241.419814 389.559002 
L 251.950423 376.873459 
z
" clip-path="url(#p49fabebd82)" style="fill: #f5fafe"/>
    <path d="M 348.449073 385.435021 
L 329.180106 379.6109 
L 340.565577 392.788933 
z
" clip-path="url(#p49fabebd82)" style="fill: #f7fbff"/>
    <path d="M 167.128216 387.281976 
L 185.957522 393.155417 
L 203.600975 377.895441 
z
" clip-path="url(#p49fabebd82)" style="fill: #f7fbff"/>
    <path d="M 271.013603 386.020984 
L 290.16376 391.886303 
L 302.046796 381.08426 
z
" clip-path="url(#p49fabebd82)" style="fill: #f7fbff"/>
    <path d="M 340.565577 392.788933 
L 329.180106 379.6109 
L 321.244454 386.917838 
z
" clip-path="url(#p49fabebd82)" style="fill: #f7fbff"/>
    <path d="M 222.44989 383.708561 
L 203.600975 377.895441 
L 204.908341 399.066762 
z
" clip-path="url(#p49fabebd82)" style="fill: #f7fbff"/>
    <path d="M 143.103033 209.94599 
L 148.419257 381.446075 
L 166.261571 366.379741 
z
" clip-path="url(#p49fabebd82)" style="fill: #8dc1dd"/>
    <path d="M 348.449073 385.435021 
L 367.841864 391.296569 
L 349.141673 384.788947 
z
" clip-path="url(#p49fabebd82)" style="fill: #f7fbff"/>
    <path d="M 376.774234 381.443773 
L 368.529799 390.646337 
L 396.210772 388.717475 
z
" clip-path="url(#p49fabebd82)" style="fill: #f6faff"/>
    <path d="M 251.950423 376.873459 
L 260.511917 395.447123 
L 271.013603 386.020984 
z
" clip-path="url(#p49fabebd82)" style="fill: #f5fafe"/>
    <path d="M 440.341042 395.755859 
L 449.586776 386.654793 
L 429.981868 380.822893 
z
" clip-path="url(#p49fabebd82)" style="fill: #f7fbff"/>
    <path d="M 469.317751 392.524194 
L 475.479005 386.374416 
L 449.586776 386.654793 
z
" clip-path="url(#p49fabebd82)" style="fill: #f7fbff"/>
    <path d="M 302.046796 381.08426 
L 309.437414 397.789447 
L 321.244454 386.917838 
z
" clip-path="url(#p49fabebd82)" style="fill: #f7fbff"/>
    <path d="M 241.419814 389.559002 
L 260.511917 395.447123 
L 251.950423 376.873459 
z
" clip-path="url(#p49fabebd82)" style="fill: #f5fafe"/>
    <path d="M 429.981868 380.822893 
L 420.668392 389.865759 
L 440.341042 395.755859 
z
" clip-path="url(#p49fabebd82)" style="fill: #f7fbff"/>
    <path d="M 349.141673 384.788947 
L 367.841864 391.296569 
L 368.529799 390.646337 
z
" clip-path="url(#p49fabebd82)" style="fill: #f7fbff"/>
    <path d="M 401.121656 384.013359 
L 396.210772 388.717475 
L 415.792305 394.600168 
z
" clip-path="url(#p49fabebd82)" style="fill: #f7fbff"/>
    <path d="M 420.668392 389.865759 
L 401.121656 384.013359 
L 415.792305 394.600168 
z
" clip-path="url(#p49fabebd82)" style="fill: #f7fbff"/>
    <path d="M 340.565577 392.788933 
L 367.841864 391.296569 
L 348.449073 385.435021 
z
" clip-path="url(#p49fabebd82)" style="fill: #f7fbff"/>
    <path d="M 203.600975 377.895441 
L 185.957522 393.155417 
L 204.908341 399.066762 
z
" clip-path="url(#p49fabebd82)" style="fill: #f7fbff"/>
    <path d="M 302.046796 381.08426 
L 290.16376 391.886303 
L 309.437414 397.789447 
z
" clip-path="url(#p49fabebd82)" style="fill: #f7fbff"/>
    <path d="M 271.013603 386.020984 
L 260.511917 395.447123 
L 290.16376 391.886303 
z
" clip-path="url(#p49fabebd82)" style="fill: #f7fbff"/>
    <path d="M 143.103033 209.94599 
L 157.305833 305.216403 
L 135.976055 211.481641 
z
" clip-path="url(#p49fabebd82)" style="fill: #084488"/>
    <path d="M 469.317751 392.524194 
L 449.586776 386.654793 
L 440.341042 395.755859 
z
" clip-path="url(#p49fabebd82)" style="fill: #f7fbff"/>
    <path d="M 368.529799 390.646337 
L 388.04287 396.541475 
L 396.210772 388.717475 
z
" clip-path="url(#p49fabebd82)" style="fill: #f7fbff"/>
    <path d="M 475.479005 386.374416 
L 489.176013 398.431459 
L 495.290175 392.242011 
z
" clip-path="url(#p49fabebd82)" style="fill: #f7fbff"/>
    <path d="M 469.317751 392.524194 
L 489.176013 398.431459 
L 475.479005 386.374416 
z
" clip-path="url(#p49fabebd82)" style="fill: #f7fbff"/>
    <path d="M 321.244454 386.917838 
L 309.437414 397.789447 
L 340.565577 392.788933 
z
" clip-path="url(#p49fabebd82)" style="fill: #f7fbff"/>
    <path d="M 223.981851 405.016378 
L 241.419814 389.559002 
L 222.44989 383.708561 
z
" clip-path="url(#p49fabebd82)" style="fill: #f7fbff"/>
    <path d="M 367.841864 391.296569 
L 388.04287 396.541475 
L 368.529799 390.646337 
z
" clip-path="url(#p49fabebd82)" style="fill: #f7fbff"/>
    <path d="M 415.792305 394.600168 
L 396.210772 388.717475 
L 388.04287 396.541475 
z
" clip-path="url(#p49fabebd82)" style="fill: #f7fbff"/>
    <path d="M 109.090959 310.439917 
L 143.103033 209.94599 
L 127.352543 295.886564 
z
" clip-path="url(#p49fabebd82)" style="fill: #2171b5"/>
    <path d="M 135.976055 211.481641 
L 127.352543 295.886564 
L 143.103033 209.94599 
z
" clip-path="url(#p49fabebd82)" style="fill: #083a7a"/>
    <path d="M 360.011361 398.697909 
L 367.841864 391.296569 
L 340.565577 392.788933 
z
" clip-path="url(#p49fabebd82)" style="fill: #f7fbff"/>
    <path d="M 420.668392 389.865759 
L 415.792305 394.600168 
L 435.500304 400.520855 
z
" clip-path="url(#p49fabebd82)" style="fill: #f7fbff"/>
    <path d="M 387.359675 397.195904 
L 388.04287 396.541475 
L 367.841864 391.296569 
z
" clip-path="url(#p49fabebd82)" style="fill: #f7fbff"/>
    <path d="M 435.500304 400.520855 
L 440.341042 395.755859 
L 420.668392 389.865759 
z
" clip-path="url(#p49fabebd82)" style="fill: #f7fbff"/>
    <path d="M 222.44989 383.708561 
L 204.908341 399.066762 
L 223.981851 405.016378 
z
" clip-path="url(#p49fabebd82)" style="fill: #f7fbff"/>
    <path d="M 290.16376 391.886303 
L 260.511917 395.447123 
L 279.727382 401.373289 
z
" clip-path="url(#p49fabebd82)" style="fill: #f7fbff"/>
    <path d="M 515.22913 398.147453 
L 495.290175 392.242011 
L 489.176013 398.431459 
z
" clip-path="url(#p49fabebd82)" style="fill: #f7fbff"/>
    <path d="M 440.341042 395.755859 
L 460.140828 401.684024 
L 469.317751 392.524194 
z
" clip-path="url(#p49fabebd82)" style="fill: #f7fbff"/>
    <path d="M 223.981851 405.016378 
L 260.511917 395.447123 
L 241.419814 389.559002 
z
" clip-path="url(#p49fabebd82)" style="fill: #f7fbff"/>
    <path d="M 367.841864 391.296569 
L 379.583016 404.645133 
L 387.359675 397.195904 
z
" clip-path="url(#p49fabebd82)" style="fill: #f7fbff"/>
    <path d="M 415.792305 394.600168 
L 388.04287 396.541475 
L 407.682099 402.474726 
z
" clip-path="url(#p49fabebd82)" style="fill: #f7fbff"/>
    <path d="M 340.565577 392.788933 
L 309.437414 397.789447 
L 328.835762 403.730783 
z
" clip-path="url(#p49fabebd82)" style="fill: #f7fbff"/>
    <path d="M 360.011361 398.697909 
L 379.583016 404.645133 
L 367.841864 391.296569 
z
" clip-path="url(#p49fabebd82)" style="fill: #f7fbff"/>
    <path d="M 387.359675 397.195904 
L 407.00372 403.133394 
L 388.04287 396.541475 
z
" clip-path="url(#p49fabebd82)" style="fill: #f7fbff"/>
    <path d="M 309.437414 397.789447 
L 290.16376 391.886303 
L 299.067409 407.337872 
z
" clip-path="url(#p49fabebd82)" style="fill: #f7fbff"/>
    <path d="M 435.500304 400.520855 
L 415.792305 394.600168 
L 407.682099 402.474726 
z
" clip-path="url(#p49fabebd82)" style="fill: #f7fbff"/>
    <path d="M 460.140828 401.684024 
L 440.341042 395.755859 
L 435.500304 400.520855 
z
" clip-path="url(#p49fabebd82)" style="fill: #f7fbff"/>
    <path d="M 480.068984 407.650625 
L 489.176013 398.431459 
L 469.317751 392.524194 
z
" clip-path="url(#p49fabebd82)" style="fill: #f7fbff"/>
    <path d="M 299.067409 407.337872 
L 290.16376 391.886303 
L 279.727382 401.373289 
z
" clip-path="url(#p49fabebd82)" style="fill: #f7fbff"/>
    <path d="M 489.176013 398.431459 
L 509.162797 404.376956 
L 515.22913 398.147453 
z
" clip-path="url(#p49fabebd82)" style="fill: #f7fbff"/>
    <path d="M 340.565577 392.788933 
L 348.36002 409.710682 
L 360.011361 398.697909 
z
" clip-path="url(#p49fabebd82)" style="fill: #f7fbff"/>
    <path d="M 469.317751 392.524194 
L 460.140828 401.684024 
L 480.068984 407.650625 
z
" clip-path="url(#p49fabebd82)" style="fill: #f7fbff"/>
    <path d="M 388.04287 396.541475 
L 407.00372 403.133394 
L 407.682099 402.474726 
z
" clip-path="url(#p49fabebd82)" style="fill: #f7fbff"/>
    <path d="M 379.583016 404.645133 
L 407.00372 403.133394 
L 387.359675 397.195904 
z
" clip-path="url(#p49fabebd82)" style="fill: #f7fbff"/>
    <path d="M 328.835762 403.730783 
L 348.36002 409.710682 
L 340.565577 392.788933 
z
" clip-path="url(#p49fabebd82)" style="fill: #f7fbff"/>
    <path d="M 435.500304 400.520855 
L 455.335998 406.479904 
L 460.140828 401.684024 
z
" clip-path="url(#p49fabebd82)" style="fill: #f7fbff"/>
    <path d="M 328.835762 403.730783 
L 309.437414 397.789447 
L 299.067409 407.337872 
z
" clip-path="url(#p49fabebd82)" style="fill: #f7fbff"/>
    <path d="M 509.162797 404.376956 
L 489.176013 398.431459 
L 480.068984 407.650625 
z
" clip-path="url(#p49fabebd82)" style="fill: #f7fbff"/>
    <path d="M 407.682099 402.474726 
L 427.448714 408.446462 
L 435.500304 400.520855 
z
" clip-path="url(#p49fabebd82)" style="fill: #f7fbff"/>
    <path d="M 243.179248 411.004638 
L 260.511917 395.447123 
L 223.981851 405.016378 
z
" clip-path="url(#p49fabebd82)" style="fill: #f7fbff"/>
    <path d="M 360.011361 398.697909 
L 348.36002 409.710682 
L 379.583016 404.645133 
z
" clip-path="url(#p49fabebd82)" style="fill: #f7fbff"/>
    <path d="M 260.511917 395.447123 
L 262.501744 417.03192 
L 279.727382 401.373289 
z
" clip-path="url(#p49fabebd82)" style="fill: #f7fbff"/>
    <path d="M 407.682099 402.474726 
L 407.00372 403.133394 
L 427.448714 408.446462 
z
" clip-path="url(#p49fabebd82)" style="fill: #f7fbff"/>
    <path d="M 399.281769 410.630978 
L 407.00372 403.133394 
L 379.583016 404.645133 
z
" clip-path="url(#p49fabebd82)" style="fill: #f7fbff"/>
    <path d="M 460.140828 401.684024 
L 455.335998 406.479904 
L 475.300634 412.477689 
z
" clip-path="url(#p49fabebd82)" style="fill: #f7fbff"/>
    <path d="M 427.448714 408.446462 
L 407.00372 403.133394 
L 426.775228 409.10941 
z
" clip-path="url(#p49fabebd82)" style="fill: #f7fbff"/>
    <path d="M 447.343958 414.457058 
L 455.335998 406.479904 
L 435.500304 400.520855 
z
" clip-path="url(#p49fabebd82)" style="fill: #f7fbff"/>
    <path d="M 475.300634 412.477689 
L 480.068984 407.650625 
L 460.140828 401.684024 
z
" clip-path="url(#p49fabebd82)" style="fill: #f7fbff"/>
    <path d="M 435.500304 400.520855 
L 427.448714 408.446462 
L 447.343958 414.457058 
z
" clip-path="url(#p49fabebd82)" style="fill: #f7fbff"/>
    <path d="M 243.179248 411.004638 
L 262.501744 417.03192 
L 260.511917 395.447123 
z
" clip-path="url(#p49fabebd82)" style="fill: #f7fbff"/>
    <path d="M 299.067409 407.337872 
L 318.533213 413.341245 
L 328.835762 403.730783 
z
" clip-path="url(#p49fabebd82)" style="fill: #f7fbff"/>
    <path d="M 143.103033 209.94599 
L 124.591214 224.070104 
L 148.419257 381.446075 
z
" clip-path="url(#p49fabebd82)" style="fill: #105ba4"/>
    <path d="M 500.126765 413.656035 
L 509.162797 404.376956 
L 480.068984 407.650625 
z
" clip-path="url(#p49fabebd82)" style="fill: #f7fbff"/>
    <path d="M 279.727382 401.373289 
L 262.501744 417.03192 
L 299.067409 407.337872 
z
" clip-path="url(#p49fabebd82)" style="fill: #f7fbff"/>
    <path d="M 328.835762 403.730783 
L 318.533213 413.341245 
L 348.36002 409.710682 
z
" clip-path="url(#p49fabebd82)" style="fill: #f7fbff"/>
    <path d="M 426.775228 409.10941 
L 407.00372 403.133394 
L 419.108861 416.655822 
z
" clip-path="url(#p49fabebd82)" style="fill: #f7fbff"/>
    <path d="M 379.583016 404.645133 
L 348.36002 409.710682 
L 368.011416 415.729521 
z
" clip-path="url(#p49fabebd82)" style="fill: #f7fbff"/>
    <path d="M 419.108861 416.655822 
L 407.00372 403.133394 
L 399.281769 410.630978 
z
" clip-path="url(#p49fabebd82)" style="fill: #f7fbff"/>
    <path d="M 446.675443 415.124328 
L 427.448714 408.446462 
L 426.775228 409.10941 
z
" clip-path="url(#p49fabebd82)" style="fill: #f7fbff"/>
    <path d="M 475.300634 412.477689 
L 455.335998 406.479904 
L 447.343958 414.457058 
z
" clip-path="url(#p49fabebd82)" style="fill: #f7fbff"/>
    <path d="M 500.126765 413.656035 
L 480.068984 407.650625 
L 475.300634 412.477689 
z
" clip-path="url(#p49fabebd82)" style="fill: #f7fbff"/>
    <path d="M 124.591214 224.070104 
L 143.103033 209.94599 
L 109.090959 310.439917 
z
" clip-path="url(#p49fabebd82)" style="fill: #08306b"/>
    <path d="M 399.281769 410.630978 
L 379.583016 404.645133 
L 387.791198 421.787682 
z
" clip-path="url(#p49fabebd82)" style="fill: #f7fbff"/>
    <path d="M 447.343958 414.457058 
L 427.448714 408.446462 
L 446.675443 415.124328 
z
" clip-path="url(#p49fabebd82)" style="fill: #f7fbff"/>
    <path d="M 419.108861 416.655822 
L 446.675443 415.124328 
L 426.775228 409.10941 
z
" clip-path="url(#p49fabebd82)" style="fill: #f7fbff"/>
    <path d="M 387.791198 421.787682 
L 379.583016 404.645133 
L 368.011416 415.729521 
z
" clip-path="url(#p49fabebd82)" style="fill: #f7fbff"/>
    <path d="M 318.533213 413.341245 
L 338.126025 419.383787 
L 348.36002 409.710682 
z
" clip-path="url(#p49fabebd82)" style="fill: #f7fbff"/>
    <path d="M 475.300634 412.477689 
L 495.395471 418.51459 
L 500.126765 413.656035 
z
" clip-path="url(#p49fabebd82)" style="fill: #f7fbff"/>
    <path d="M 447.343958 414.457058 
L 467.36909 420.506896 
L 475.300634 412.477689 
z
" clip-path="url(#p49fabebd82)" style="fill: #f7fbff"/>
    <path d="M 299.067409 407.337872 
L 262.501744 417.03192 
L 281.950565 423.098607 
z
" clip-path="url(#p49fabebd82)" style="fill: #f7fbff"/>
    <path d="M 301.526954 429.205086 
L 318.533213 413.341245 
L 299.067409 407.337872 
z
" clip-path="url(#p49fabebd82)" style="fill: #f7fbff"/>
    <path d="M 446.675443 415.124328 
L 467.36909 420.506896 
L 447.343958 414.457058 
z
" clip-path="url(#p49fabebd82)" style="fill: #f7fbff"/>
    <path d="M 348.36002 409.710682 
L 357.847092 425.465885 
L 368.011416 415.729521 
z
" clip-path="url(#p49fabebd82)" style="fill: #f7fbff"/>
    <path d="M 439.065551 422.720046 
L 446.675443 415.124328 
L 419.108861 416.655822 
z
" clip-path="url(#p49fabebd82)" style="fill: #f7fbff"/>
    <path d="M 348.36002 409.710682 
L 338.126025 419.383787 
L 357.847092 425.465885 
z
" clip-path="url(#p49fabebd82)" style="fill: #f7fbff"/>
    <path d="M 407.700627 427.885552 
L 419.108861 416.655822 
L 399.281769 410.630978 
z
" clip-path="url(#p49fabebd82)" style="fill: #f7fbff"/>
    <path d="M 466.705625 421.17853 
L 467.36909 420.506896 
L 446.675443 415.124328 
z
" clip-path="url(#p49fabebd82)" style="fill: #f7fbff"/>
    <path d="M 475.300634 412.477689 
L 487.525387 426.596359 
L 495.395471 418.51459 
z
" clip-path="url(#p49fabebd82)" style="fill: #f7fbff"/>
    <path d="M 467.36909 420.506896 
L 487.525387 426.596359 
L 475.300634 412.477689 
z
" clip-path="url(#p49fabebd82)" style="fill: #f7fbff"/>
    <path d="M 281.950565 423.098607 
L 301.526954 429.205086 
L 299.067409 407.337872 
z
" clip-path="url(#p49fabebd82)" style="fill: #f7fbff"/>
    <path d="M 399.281769 410.630978 
L 387.791198 421.787682 
L 407.700627 427.885552 
z
" clip-path="url(#p49fabebd82)" style="fill: #f7fbff"/>
    <path d="M 368.011416 415.729521 
L 357.847092 425.465885 
L 387.791198 421.787682 
z
" clip-path="url(#p49fabebd82)" style="fill: #f7fbff"/>
    <path d="M 466.705625 421.17853 
L 446.675443 415.124328 
L 459.153113 428.824038 
z
" clip-path="url(#p49fabebd82)" style="fill: #f7fbff"/>
    <path d="M 459.153113 428.824038 
L 446.675443 415.124328 
L 439.065551 422.720046 
z
" clip-path="url(#p49fabebd82)" style="fill: #f7fbff"/>
    <path d="M 439.065551 422.720046 
L 419.108861 416.655822 
L 407.700627 427.885552 
z
" clip-path="url(#p49fabebd82)" style="fill: #f7fbff"/>
    <path d="M 321.23217 435.35175 
L 338.126025 419.383787 
L 318.533213 413.341245 
z
" clip-path="url(#p49fabebd82)" style="fill: #f7fbff"/>
    <path d="M 487.525387 426.596359 
L 467.36909 420.506896 
L 466.705625 421.17853 
z
" clip-path="url(#p49fabebd82)" style="fill: #f7fbff"/>
    <path d="M 487.525387 426.596359 
L 466.705625 421.17853 
L 486.867053 427.272401 
z
" clip-path="url(#p49fabebd82)" style="fill: #f7fbff"/>
    <path d="M 486.867053 427.272401 
L 466.705625 421.17853 
L 459.153113 428.824038 
z
" clip-path="url(#p49fabebd82)" style="fill: #f7fbff"/>
    <path d="M 321.23217 435.35175 
L 318.533213 413.341245 
L 301.526954 429.205086 
z
" clip-path="url(#p49fabebd82)" style="fill: #f7fbff"/>
    <path d="M 357.847092 425.465885 
L 377.697679 431.587927 
L 387.791198 421.787682 
z
" clip-path="url(#p49fabebd82)" style="fill: #f7fbff"/>
    <path d="M 357.847092 425.465885 
L 338.126025 419.383787 
L 321.23217 435.35175 
z
" clip-path="url(#p49fabebd82)" style="fill: #f7fbff"/>
    <path d="M 407.700627 427.885552 
L 387.791198 421.787682 
L 377.697679 431.587927 
z
" clip-path="url(#p49fabebd82)" style="fill: #f7fbff"/>
    <path d="M 427.740982 434.023522 
L 439.065551 422.720046 
L 407.700627 427.885552 
z
" clip-path="url(#p49fabebd82)" style="fill: #f7fbff"/>
    <path d="M 459.153113 428.824038 
L 439.065551 422.720046 
L 427.740982 434.023522 
z
" clip-path="url(#p49fabebd82)" style="fill: #f7fbff"/>
    <path d="M 479.372839 434.968191 
L 486.867053 427.272401 
L 459.153113 428.824038 
z
" clip-path="url(#p49fabebd82)" style="fill: #f7fbff"/>
    <path d="M 407.700627 427.885552 
L 377.697679 431.587927 
L 397.679064 437.750308 
z
" clip-path="url(#p49fabebd82)" style="fill: #f7fbff"/>
    <path d="M 377.697679 431.587927 
L 357.847092 425.465885 
L 341.067489 441.538998 
z
" clip-path="url(#p49fabebd82)" style="fill: #f7fbff"/>
    <path d="M 341.067489 441.538998 
L 357.847092 425.465885 
L 321.23217 435.35175 
z
" clip-path="url(#p49fabebd82)" style="fill: #f7fbff"/>
    <path d="M 427.740982 434.023522 
L 447.913558 440.201988 
L 459.153113 428.824038 
z
" clip-path="url(#p49fabebd82)" style="fill: #f7fbff"/>
    <path d="M 417.792544 443.953428 
L 427.740982 434.023522 
L 407.700627 427.885552 
z
" clip-path="url(#p49fabebd82)" style="fill: #f7fbff"/>
    <path d="M 407.700627 427.885552 
L 397.679064 437.750308 
L 417.792544 443.953428 
z
" clip-path="url(#p49fabebd82)" style="fill: #f7fbff"/>
    <path d="M 459.153113 428.824038 
L 468.219669 446.421354 
L 479.372839 434.968191 
z
" clip-path="url(#p49fabebd82)" style="fill: #f7fbff"/>
    <path d="M 459.153113 428.824038 
L 447.913558 440.201988 
L 468.219669 446.421354 
z
" clip-path="url(#p49fabebd82)" style="fill: #f7fbff"/>
    <path d="M 447.913558 440.201988 
L 427.740982 434.023522 
L 417.792544 443.953428 
z
" clip-path="url(#p49fabebd82)" style="fill: #f7fbff"/>
    <path d="M 341.067489 441.538998 
L 361.034204 447.767232 
L 377.697679 431.587927 
z
" clip-path="url(#p49fabebd82)" style="fill: #f7fbff"/>
    <path d="M 381.133625 454.036861 
L 397.679064 437.750308 
L 377.697679 431.587927 
z
" clip-path="url(#p49fabebd82)" style="fill: #f7fbff"/>
    <path d="M 377.697679 431.587927 
L 361.034204 447.767232 
L 381.133625 454.036861 
z
" clip-path="url(#p49fabebd82)" style="fill: #f7fbff"/>
    <path d="M 417.792544 443.953428 
L 438.039435 450.197693 
L 447.913558 440.201988 
z
" clip-path="url(#p49fabebd82)" style="fill: #f7fbff"/>
    <path d="M 417.792544 443.953428 
L 397.679064 437.750308 
L 401.36708 460.348299 
z
" clip-path="url(#p49fabebd82)" style="fill: #f7fbff"/>
    <path d="M 458.421068 456.483513 
L 468.219669 446.421354 
L 447.913558 440.201988 
z
" clip-path="url(#p49fabebd82)" style="fill: #f7fbff"/>
    <path d="M 447.913558 440.201988 
L 438.039435 450.197693 
L 458.421068 456.483513 
z
" clip-path="url(#p49fabebd82)" style="fill: #f7fbff"/>
    <path d="M 401.36708 460.348299 
L 397.679064 437.750308 
L 381.133625 454.036861 
z
" clip-path="url(#p49fabebd82)" style="fill: #f7fbff"/>
    <path d="M 401.36708 460.348299 
L 438.039435 450.197693 
L 417.792544 443.953428 
z
" clip-path="url(#p49fabebd82)" style="fill: #f7fbff"/>
    <path d="M 458.421068 456.483513 
L 438.039435 450.197693 
L 421.735912 466.701966 
z
" clip-path="url(#p49fabebd82)" style="fill: #f7fbff"/>
    <path d="M 401.36708 460.348299 
L 421.735912 466.701966 
L 438.039435 450.197693 
z
" clip-path="url(#p49fabebd82)" style="fill: #f7fbff"/>
    <path d="M 442.241487 473.098286 
L 458.421068 456.483513 
L 421.735912 466.701966 
z
" clip-path="url(#p49fabebd82)" style="fill: #f7fbff"/>
   </g>
  </g>
 </g>
 <defs>
  <clipPath id="p49fabebd82">
   <rect x="21.6" y="21.6" width="554.4" height="554.4"/>
  </clipPath>
 </defs>
</svg>
