<?xml version="1.0" encoding="utf-8" standalone="no"?>
<!DOCTYPE svg PUBLIC "-//W3C//DTD SVG 1.1//EN"
  "http://www.w3.org/Graphics/SVG/1.1/DTD/svg11.dtd">
<svg xmlns:xlink="http://www.w3.org/1999/xlink" width="619.2pt" height="410.4pt" viewBox="0 0 619.2 410.4" xmlns="http://www.w3.org/2000/svg" version="1.1">
 <metadata>
  <rdf:RDF xmlns:dc="http://purl.org/dc/elements/1.1/" xmlns:cc="http://creativecommons.org/ns#" xmlns:rdf="http://www.w3.org/1999/02/22-rdf-syntax-ns#">
   <cc:Work>
    <dc:type rdf:resource="http://purl.org/dc/dcmitype/StillImage"/>
    <dc:date/>
    <dc:format>image/svg+xml</dc:format>
    <dc:creator>
     <cc:Agent>
      <dc:title>Matplotlib v3.6.2, https://matplotlib.org/</dc:title>
     </cc:Agent>
    </dc:creator>
   </cc:Work>
  </rdf:RDF>
 </metadata>
 <defs>
  <style type="text/css">*{stroke-linejoin: round; stroke-linecap: butt}</style>
 </defs>
 <g id="figure_1">
  <g id="patch_1">
   <path d="M 0 410.4 
L 619.2 410.4 
L 619.2 0 
L 0 0 
z
" style="fill: #ffffff"/>
  </g>
  <g id="patch_2">
   <path d="M -1.8 475.2 
L 552.6 475.2 
L 552.6 -79.2 
L -1.8 -79.2 
z
" style="fill: #ffffff"/>
  </g>
  <g id="pane3d_1">
   <g id="patch_3">
    <path d="M 17.912472 259.663759 
L 144.831956 158.740656 
L 140.848407 8.057576 
L 9.798586 102.842949 
" style="fill: #f2f2f2; opacity: 0.5; stroke: #f2f2f2; stroke-linejoin: miter"/>
   </g>
  </g>
  <g id="pane3d_2">
   <g id="patch_4">
    <path d="M 144.831956 158.740656 
L 550.329769 276.357828 
L 558.597262 118.553145 
L 140.848407 8.057576 
" style="fill: #e6e6e6; opacity: 0.5; stroke: #e6e6e6; stroke-linejoin: miter"/>
   </g>
  </g>
  <g id="pane3d_3">
   <g id="patch_5">
    <path d="M 17.912472 259.663759 
L 439.930816 392.219825 
L 550.329769 276.357828 
L 144.831956 158.740656 
" style="fill: #ececec; opacity: 0.5; stroke: #ececec; stroke-linejoin: miter"/>
   </g>
  </g>
  <g id="axis3d_1">
   <g id="line2d_1">
    <path d="M 17.912472 259.663759 
L 439.930816 392.219825 
" style="fill: none; stroke: #000000; stroke-width: 0.8; stroke-linecap: square"/>
   </g>
   <g id="text_1">
    <!-- Python version -->
    <g transform="translate(164.36057 342.467396) rotate(-342.562483) scale(0.12 -0.12)">
     <defs>
      <path id="DejaVuSans-50" d="M 1259 4147 
L 1259 2394 
L 2053 2394 
Q 2494 2394 2734 2622 
Q 2975 2850 2975 3272 
Q 2975 3691 2734 3919 
Q 2494 4147 2053 4147 
L 1259 4147 
z
M 628 4666 
L 2053 4666 
Q 2838 4666 3239 4311 
Q 3641 3956 3641 3272 
Q 3641 2581 3239 2228 
Q 2838 1875 2053 1875 
L 1259 1875 
L 1259 0 
L 628 0 
L 628 4666 
z
" transform="scale(0.015625)"/>
      <path id="DejaVuSans-79" d="M 2059 -325 
Q 1816 -950 1584 -1140 
Q 1353 -1331 966 -1331 
L 506 -1331 
L 506 -850 
L 844 -850 
Q 1081 -850 1212 -737 
Q 1344 -625 1503 -206 
L 1606 56 
L 191 3500 
L 800 3500 
L 1894 763 
L 2988 3500 
L 3597 3500 
L 2059 -325 
z
" transform="scale(0.015625)"/>
      <path id="DejaVuSans-74" d="M 1172 4494 
L 1172 3500 
L 2356 3500 
L 2356 3053 
L 1172 3053 
L 1172 1153 
Q 1172 725 1289 603 
Q 1406 481 1766 481 
L 2356 481 
L 2356 0 
L 1766 0 
Q 1100 0 847 248 
Q 594 497 594 1153 
L 594 3053 
L 172 3053 
L 172 3500 
L 594 3500 
L 594 4494 
L 1172 4494 
z
" transform="scale(0.015625)"/>
      <path id="DejaVuSans-68" d="M 3513 2113 
L 3513 0 
L 2938 0 
L 2938 2094 
Q 2938 2591 2744 2837 
Q 2550 3084 2163 3084 
Q 1697 3084 1428 2787 
Q 1159 2491 1159 1978 
L 1159 0 
L 581 0 
L 581 4863 
L 1159 4863 
L 1159 2956 
Q 1366 3272 1645 3428 
Q 1925 3584 2291 3584 
Q 2894 3584 3203 3211 
Q 3513 2838 3513 2113 
z
" transform="scale(0.015625)"/>
      <path id="DejaVuSans-6f" d="M 1959 3097 
Q 1497 3097 1228 2736 
Q 959 2375 959 1747 
Q 959 1119 1226 758 
Q 1494 397 1959 397 
Q 2419 397 2687 759 
Q 2956 1122 2956 1747 
Q 2956 2369 2687 2733 
Q 2419 3097 1959 3097 
z
M 1959 3584 
Q 2709 3584 3137 3096 
Q 3566 2609 3566 1747 
Q 3566 888 3137 398 
Q 2709 -91 1959 -91 
Q 1206 -91 779 398 
Q 353 888 353 1747 
Q 353 2609 779 3096 
Q 1206 3584 1959 3584 
z
" transform="scale(0.015625)"/>
      <path id="DejaVuSans-6e" d="M 3513 2113 
L 3513 0 
L 2938 0 
L 2938 2094 
Q 2938 2591 2744 2837 
Q 2550 3084 2163 3084 
Q 1697 3084 1428 2787 
Q 1159 2491 1159 1978 
L 1159 0 
L 581 0 
L 581 3500 
L 1159 3500 
L 1159 2956 
Q 1366 3272 1645 3428 
Q 1925 3584 2291 3584 
Q 2894 3584 3203 3211 
Q 3513 2838 3513 2113 
z
" transform="scale(0.015625)"/>
      <path id="DejaVuSans-20" transform="scale(0.015625)"/>
      <path id="DejaVuSans-76" d="M 191 3500 
L 800 3500 
L 1894 563 
L 2988 3500 
L 3597 3500 
L 2284 0 
L 1503 0 
L 191 3500 
z
" transform="scale(0.015625)"/>
      <path id="DejaVuSans-65" d="M 3597 1894 
L 3597 1613 
L 953 1613 
Q 991 1019 1311 708 
Q 1631 397 2203 397 
Q 2534 397 2845 478 
Q 3156 559 3463 722 
L 3463 178 
Q 3153 47 2828 -22 
Q 2503 -91 2169 -91 
Q 1331 -91 842 396 
Q 353 884 353 1716 
Q 353 2575 817 3079 
Q 1281 3584 2069 3584 
Q 2775 3584 3186 3129 
Q 3597 2675 3597 1894 
z
M 3022 2063 
Q 3016 2534 2758 2815 
Q 2500 3097 2075 3097 
Q 1594 3097 1305 2825 
Q 1016 2553 972 2059 
L 3022 2063 
z
" transform="scale(0.015625)"/>
      <path id="DejaVuSans-72" d="M 2631 2963 
Q 2534 3019 2420 3045 
Q 2306 3072 2169 3072 
Q 1681 3072 1420 2755 
Q 1159 2438 1159 1844 
L 1159 0 
L 581 0 
L 581 3500 
L 1159 3500 
L 1159 2956 
Q 1341 3275 1631 3429 
Q 1922 3584 2338 3584 
Q 2397 3584 2469 3576 
Q 2541 3569 2628 3553 
L 2631 2963 
z
" transform="scale(0.015625)"/>
      <path id="DejaVuSans-73" d="M 2834 3397 
L 2834 2853 
Q 2591 2978 2328 3040 
Q 2066 3103 1784 3103 
Q 1356 3103 1142 2972 
Q 928 2841 928 2578 
Q 928 2378 1081 2264 
Q 1234 2150 1697 2047 
L 1894 2003 
Q 2506 1872 2764 1633 
Q 3022 1394 3022 966 
Q 3022 478 2636 193 
Q 2250 -91 1575 -91 
Q 1294 -91 989 -36 
Q 684 19 347 128 
L 347 722 
Q 666 556 975 473 
Q 1284 391 1588 391 
Q 1994 391 2212 530 
Q 2431 669 2431 922 
Q 2431 1156 2273 1281 
Q 2116 1406 1581 1522 
L 1381 1569 
Q 847 1681 609 1914 
Q 372 2147 372 2553 
Q 372 3047 722 3315 
Q 1072 3584 1716 3584 
Q 2034 3584 2315 3537 
Q 2597 3491 2834 3397 
z
" transform="scale(0.015625)"/>
      <path id="DejaVuSans-69" d="M 603 3500 
L 1178 3500 
L 1178 0 
L 603 0 
L 603 3500 
z
M 603 4863 
L 1178 4863 
L 1178 4134 
L 603 4134 
L 603 4863 
z
" transform="scale(0.015625)"/>
     </defs>
     <use xlink:href="#DejaVuSans-50"/>
     <use xlink:href="#DejaVuSans-79" x="60.302734"/>
     <use xlink:href="#DejaVuSans-74" x="119.482422"/>
     <use xlink:href="#DejaVuSans-68" x="158.691406"/>
     <use xlink:href="#DejaVuSans-6f" x="222.070312"/>
     <use xlink:href="#DejaVuSans-6e" x="283.251953"/>
     <use xlink:href="#DejaVuSans-20" x="346.630859"/>
     <use xlink:href="#DejaVuSans-76" x="378.417969"/>
     <use xlink:href="#DejaVuSans-65" x="437.597656"/>
     <use xlink:href="#DejaVuSans-72" x="499.121094"/>
     <use xlink:href="#DejaVuSans-73" x="540.234375"/>
     <use xlink:href="#DejaVuSans-69" x="592.333984"/>
     <use xlink:href="#DejaVuSans-6f" x="620.117188"/>
     <use xlink:href="#DejaVuSans-6e" x="681.298828"/>
    </g>
   </g>
   <g id="Line3DCollection_1">
    <path d="M 43.035183 267.554809 
L 169.064986 165.769598 
L 165.766665 14.648515 
" style="fill: none; stroke: #b0b0b0; stroke-width: 0.8"/>
    <path d="M 61.306233 273.29375 
L 186.68151 170.87938 
L 183.885061 19.440874 
" style="fill: none; stroke: #b0b0b0; stroke-width: 0.8"/>
    <path d="M 79.693693 279.069256 
L 204.403915 176.019875 
L 202.115529 24.262876 
" style="fill: none; stroke: #b0b0b0; stroke-width: 0.8"/>
    <path d="M 98.198681 284.881677 
L 222.233159 181.191358 
L 220.459114 29.114798 
" style="fill: none; stroke: #b0b0b0; stroke-width: 0.8"/>
    <path d="M 116.822327 290.731369 
L 240.170211 186.394112 
L 238.91687 33.996919 
" style="fill: none; stroke: #b0b0b0; stroke-width: 0.8"/>
    <path d="M 135.565775 296.618691 
L 258.216052 191.628421 
L 257.489868 38.909521 
" style="fill: none; stroke: #b0b0b0; stroke-width: 0.8"/>
    <path d="M 154.430185 302.544007 
L 276.371673 196.894572 
L 276.17919 43.852891 
" style="fill: none; stroke: #b0b0b0; stroke-width: 0.8"/>
    <path d="M 173.416732 308.507686 
L 294.638081 202.192858 
L 294.985931 48.827319 
" style="fill: none; stroke: #b0b0b0; stroke-width: 0.8"/>
    <path d="M 192.526607 314.510102 
L 313.016293 207.523573 
L 313.911203 53.833099 
" style="fill: none; stroke: #b0b0b0; stroke-width: 0.8"/>
    <path d="M 211.761014 320.551634 
L 331.507337 212.887016 
L 332.956128 58.870527 
" style="fill: none; stroke: #b0b0b0; stroke-width: 0.8"/>
    <path d="M 231.121174 326.632665 
L 350.112257 218.283489 
L 352.121847 63.939905 
" style="fill: none; stroke: #b0b0b0; stroke-width: 0.8"/>
    <path d="M 250.608326 332.753584 
L 368.832106 223.713298 
L 371.409511 69.041538 
" style="fill: none; stroke: #b0b0b0; stroke-width: 0.8"/>
    <path d="M 270.223723 338.914785 
L 387.667955 229.176754 
L 390.820288 74.175735 
" style="fill: none; stroke: #b0b0b0; stroke-width: 0.8"/>
    <path d="M 289.968635 345.116667 
L 406.620884 234.674169 
L 410.35536 79.342808 
" style="fill: none; stroke: #b0b0b0; stroke-width: 0.8"/>
    <path d="M 309.844348 351.359634 
L 425.691988 240.205862 
L 430.015926 84.543075 
" style="fill: none; stroke: #b0b0b0; stroke-width: 0.8"/>
    <path d="M 329.852167 357.644095 
L 444.882376 245.772154 
L 449.803197 89.776855 
" style="fill: none; stroke: #b0b0b0; stroke-width: 0.8"/>
    <path d="M 349.993414 363.970465 
L 464.19317 251.37337 
L 469.718405 95.044475 
" style="fill: none; stroke: #b0b0b0; stroke-width: 0.8"/>
    <path d="M 370.269428 370.339166 
L 483.625508 257.009841 
L 489.762792 100.346264 
" style="fill: none; stroke: #b0b0b0; stroke-width: 0.8"/>
    <path d="M 390.681565 376.750623 
L 503.18054 262.6819 
L 509.93762 105.682554 
" style="fill: none; stroke: #b0b0b0; stroke-width: 0.8"/>
    <path d="M 411.231201 383.205269 
L 522.859433 268.389886 
L 530.244166 111.053684 
" style="fill: none; stroke: #b0b0b0; stroke-width: 0.8"/>
   </g>
   <g id="xtick_1">
    <g id="line2d_2">
     <path d="M 44.103086 266.692341 
L 40.896315 269.282219 
" style="fill: none; stroke: #000000; stroke-width: 0.8; stroke-linecap: square"/>
    </g>
    <g id="text_2">
     <!-- 2.0 -->
     <g transform="translate(30.043759 285.538624) scale(0.1 -0.1)">
      <defs>
       <path id="DejaVuSans-32" d="M 1228 531 
L 3431 531 
L 3431 0 
L 469 0 
L 469 531 
Q 828 903 1448 1529 
Q 2069 2156 2228 2338 
Q 2531 2678 2651 2914 
Q 2772 3150 2772 3378 
Q 2772 3750 2511 3984 
Q 2250 4219 1831 4219 
Q 1534 4219 1204 4116 
Q 875 4013 500 3803 
L 500 4441 
Q 881 4594 1212 4672 
Q 1544 4750 1819 4750 
Q 2544 4750 2975 4387 
Q 3406 4025 3406 3419 
Q 3406 3131 3298 2873 
Q 3191 2616 2906 2266 
Q 2828 2175 2409 1742 
Q 1991 1309 1228 531 
z
" transform="scale(0.015625)"/>
       <path id="DejaVuSans-2e" d="M 684 794 
L 1344 794 
L 1344 0 
L 684 0 
L 684 794 
z
" transform="scale(0.015625)"/>
       <path id="DejaVuSans-30" d="M 2034 4250 
Q 1547 4250 1301 3770 
Q 1056 3291 1056 2328 
Q 1056 1369 1301 889 
Q 1547 409 2034 409 
Q 2525 409 2770 889 
Q 3016 1369 3016 2328 
Q 3016 3291 2770 3770 
Q 2525 4250 2034 4250 
z
M 2034 4750 
Q 2819 4750 3233 4129 
Q 3647 3509 3647 2328 
Q 3647 1150 3233 529 
Q 2819 -91 2034 -91 
Q 1250 -91 836 529 
Q 422 1150 422 2328 
Q 422 3509 836 4129 
Q 1250 4750 2034 4750 
z
" transform="scale(0.015625)"/>
      </defs>
      <use xlink:href="#DejaVuSans-32"/>
      <use xlink:href="#DejaVuSans-2e" x="63.623047"/>
      <use xlink:href="#DejaVuSans-30" x="95.410156"/>
     </g>
    </g>
   </g>
   <g id="xtick_2">
    <g id="line2d_3">
     <path d="M 62.368778 272.425797 
L 59.178086 275.032154 
" style="fill: none; stroke: #000000; stroke-width: 0.8; stroke-linecap: square"/>
    </g>
    <g id="text_3">
     <!-- 2.1 -->
     <g transform="translate(48.320595 291.317434) scale(0.1 -0.1)">
      <defs>
       <path id="DejaVuSans-31" d="M 794 531 
L 1825 531 
L 1825 4091 
L 703 3866 
L 703 4441 
L 1819 4666 
L 2450 4666 
L 2450 531 
L 3481 531 
L 3481 0 
L 794 0 
L 794 531 
z
" transform="scale(0.015625)"/>
      </defs>
      <use xlink:href="#DejaVuSans-32"/>
      <use xlink:href="#DejaVuSans-2e" x="63.623047"/>
      <use xlink:href="#DejaVuSans-31" x="95.410156"/>
     </g>
    </g>
   </g>
   <g id="xtick_3">
    <g id="line2d_4">
     <path d="M 80.750791 278.195765 
L 77.576448 280.818759 
" style="fill: none; stroke: #000000; stroke-width: 0.8; stroke-linecap: square"/>
    </g>
    <g id="text_4">
     <!-- 2.2 -->
     <g transform="translate(66.714018 297.133107) scale(0.1 -0.1)">
      <use xlink:href="#DejaVuSans-32"/>
      <use xlink:href="#DejaVuSans-2e" x="63.623047"/>
      <use xlink:href="#DejaVuSans-32" x="95.410156"/>
     </g>
    </g>
   </g>
   <g id="xtick_4">
    <g id="line2d_5">
     <path d="M 99.25024 284.002596 
L 96.09252 286.642386 
" style="fill: none; stroke: #000000; stroke-width: 0.8; stroke-linecap: square"/>
    </g>
    <g id="text_5">
     <!-- 2.3 -->
     <g transform="translate(85.225148 302.985997) scale(0.1 -0.1)">
      <defs>
       <path id="DejaVuSans-33" d="M 2597 2516 
Q 3050 2419 3304 2112 
Q 3559 1806 3559 1356 
Q 3559 666 3084 287 
Q 2609 -91 1734 -91 
Q 1441 -91 1130 -33 
Q 819 25 488 141 
L 488 750 
Q 750 597 1062 519 
Q 1375 441 1716 441 
Q 2309 441 2620 675 
Q 2931 909 2931 1356 
Q 2931 1769 2642 2001 
Q 2353 2234 1838 2234 
L 1294 2234 
L 1294 2753 
L 1863 2753 
Q 2328 2753 2575 2939 
Q 2822 3125 2822 3475 
Q 2822 3834 2567 4026 
Q 2313 4219 1838 4219 
Q 1578 4219 1281 4162 
Q 984 4106 628 3988 
L 628 4550 
Q 988 4650 1302 4700 
Q 1616 4750 1894 4750 
Q 2613 4750 3031 4423 
Q 3450 4097 3450 3541 
Q 3450 3153 3228 2886 
Q 3006 2619 2597 2516 
z
" transform="scale(0.015625)"/>
      </defs>
      <use xlink:href="#DejaVuSans-32"/>
      <use xlink:href="#DejaVuSans-2e" x="63.623047"/>
      <use xlink:href="#DejaVuSans-33" x="95.410156"/>
     </g>
    </g>
   </g>
   <g id="xtick_5">
    <g id="line2d_6">
     <path d="M 117.868253 289.846643 
L 114.727436 292.503391 
" style="fill: none; stroke: #000000; stroke-width: 0.8; stroke-linecap: square"/>
    </g>
    <g id="text_6">
     <!-- 2.4 -->
     <g transform="translate(103.855118 308.876462) scale(0.1 -0.1)">
      <defs>
       <path id="DejaVuSans-34" d="M 2419 4116 
L 825 1625 
L 2419 1625 
L 2419 4116 
z
M 2253 4666 
L 3047 4666 
L 3047 1625 
L 3713 1625 
L 3713 1100 
L 3047 1100 
L 3047 0 
L 2419 0 
L 2419 1100 
L 313 1100 
L 313 1709 
L 2253 4666 
z
" transform="scale(0.015625)"/>
      </defs>
      <use xlink:href="#DejaVuSans-32"/>
      <use xlink:href="#DejaVuSans-2e" x="63.623047"/>
      <use xlink:href="#DejaVuSans-34" x="95.410156"/>
     </g>
    </g>
   </g>
   <g id="xtick_6">
    <g id="line2d_7">
     <path d="M 136.605975 295.728265 
L 133.482344 298.402135 
" style="fill: none; stroke: #000000; stroke-width: 0.8; stroke-linecap: square"/>
    </g>
    <g id="text_7">
     <!-- 2.5 -->
     <g transform="translate(122.605076 314.804865) scale(0.1 -0.1)">
      <defs>
       <path id="DejaVuSans-35" d="M 691 4666 
L 3169 4666 
L 3169 4134 
L 1269 4134 
L 1269 2991 
Q 1406 3038 1543 3061 
Q 1681 3084 1819 3084 
Q 2600 3084 3056 2656 
Q 3513 2228 3513 1497 
Q 3513 744 3044 326 
Q 2575 -91 1722 -91 
Q 1428 -91 1123 -41 
Q 819 9 494 109 
L 494 744 
Q 775 591 1075 516 
Q 1375 441 1709 441 
Q 2250 441 2565 725 
Q 2881 1009 2881 1497 
Q 2881 1984 2565 2268 
Q 2250 2553 1709 2553 
Q 1456 2553 1204 2497 
Q 953 2441 691 2322 
L 691 4666 
z
" transform="scale(0.015625)"/>
      </defs>
      <use xlink:href="#DejaVuSans-32"/>
      <use xlink:href="#DejaVuSans-2e" x="63.623047"/>
      <use xlink:href="#DejaVuSans-35" x="95.410156"/>
     </g>
    </g>
   </g>
   <g id="xtick_7">
    <g id="line2d_8">
     <path d="M 155.464563 301.647827 
L 152.358405 304.338985 
" style="fill: none; stroke: #000000; stroke-width: 0.8; stroke-linecap: square"/>
    </g>
    <g id="text_8">
     <!-- 2.6 -->
     <g transform="translate(141.476185 320.771574) scale(0.1 -0.1)">
      <defs>
       <path id="DejaVuSans-36" d="M 2113 2584 
Q 1688 2584 1439 2293 
Q 1191 2003 1191 1497 
Q 1191 994 1439 701 
Q 1688 409 2113 409 
Q 2538 409 2786 701 
Q 3034 994 3034 1497 
Q 3034 2003 2786 2293 
Q 2538 2584 2113 2584 
z
M 3366 4563 
L 3366 3988 
Q 3128 4100 2886 4159 
Q 2644 4219 2406 4219 
Q 1781 4219 1451 3797 
Q 1122 3375 1075 2522 
Q 1259 2794 1537 2939 
Q 1816 3084 2150 3084 
Q 2853 3084 3261 2657 
Q 3669 2231 3669 1497 
Q 3669 778 3244 343 
Q 2819 -91 2113 -91 
Q 1303 -91 875 529 
Q 447 1150 447 2328 
Q 447 3434 972 4092 
Q 1497 4750 2381 4750 
Q 2619 4750 2861 4703 
Q 3103 4656 3366 4563 
z
" transform="scale(0.015625)"/>
      </defs>
      <use xlink:href="#DejaVuSans-32"/>
      <use xlink:href="#DejaVuSans-2e" x="63.623047"/>
      <use xlink:href="#DejaVuSans-36" x="95.410156"/>
     </g>
    </g>
   </g>
   <g id="xtick_8">
    <g id="line2d_9">
     <path d="M 174.445191 307.605696 
L 171.356799 310.31431 
" style="fill: none; stroke: #000000; stroke-width: 0.8; stroke-linecap: square"/>
    </g>
    <g id="text_9">
     <!-- 2.7 -->
     <g transform="translate(160.469624 326.776961) scale(0.1 -0.1)">
      <defs>
       <path id="DejaVuSans-37" d="M 525 4666 
L 3525 4666 
L 3525 4397 
L 1831 0 
L 1172 0 
L 2766 4134 
L 525 4134 
L 525 4666 
z
" transform="scale(0.015625)"/>
      </defs>
      <use xlink:href="#DejaVuSans-32"/>
      <use xlink:href="#DejaVuSans-2e" x="63.623047"/>
      <use xlink:href="#DejaVuSans-37" x="95.410156"/>
     </g>
    </g>
   </g>
   <g id="xtick_9">
    <g id="line2d_10">
     <path d="M 193.549047 313.602245 
L 190.478717 316.328486 
" style="fill: none; stroke: #000000; stroke-width: 0.8; stroke-linecap: square"/>
    </g>
    <g id="text_10">
     <!-- 3.0 -->
     <g transform="translate(179.586584 332.821404) scale(0.1 -0.1)">
      <use xlink:href="#DejaVuSans-33"/>
      <use xlink:href="#DejaVuSans-2e" x="63.623047"/>
      <use xlink:href="#DejaVuSans-30" x="95.410156"/>
     </g>
    </g>
   </g>
   <g id="xtick_10">
    <g id="line2d_11">
     <path d="M 212.777336 319.637853 
L 209.72537 322.381893 
" style="fill: none; stroke: #000000; stroke-width: 0.8; stroke-linecap: square"/>
    </g>
    <g id="text_11">
     <!-- 3.1 -->
     <g transform="translate(198.828276 338.905285) scale(0.1 -0.1)">
      <use xlink:href="#DejaVuSans-33"/>
      <use xlink:href="#DejaVuSans-2e" x="63.623047"/>
      <use xlink:href="#DejaVuSans-31" x="95.410156"/>
     </g>
    </g>
   </g>
   <g id="xtick_11">
    <g id="line2d_12">
     <path d="M 232.131276 325.712902 
L 229.09798 328.474916 
" style="fill: none; stroke: #000000; stroke-width: 0.8; stroke-linecap: square"/>
    </g>
    <g id="text_12">
     <!-- 3.2 -->
     <g transform="translate(218.195924 345.028991) scale(0.1 -0.1)">
      <use xlink:href="#DejaVuSans-33"/>
      <use xlink:href="#DejaVuSans-2e" x="63.623047"/>
      <use xlink:href="#DejaVuSans-32" x="95.410156"/>
     </g>
    </g>
   </g>
   <g id="xtick_12">
    <g id="line2d_13">
     <path d="M 251.612104 331.827779 
L 248.597789 334.607945 
" style="fill: none; stroke: #000000; stroke-width: 0.8; stroke-linecap: square"/>
    </g>
    <g id="text_13">
     <!-- 3.3 -->
     <g transform="translate(237.690769 351.192914) scale(0.1 -0.1)">
      <use xlink:href="#DejaVuSans-33"/>
      <use xlink:href="#DejaVuSans-2e" x="63.623047"/>
      <use xlink:href="#DejaVuSans-33" x="95.410156"/>
     </g>
    </g>
   </g>
   <g id="xtick_13">
    <g id="line2d_14">
     <path d="M 271.221071 337.982879 
L 268.226054 340.781376 
" style="fill: none; stroke: #000000; stroke-width: 0.8; stroke-linecap: square"/>
    </g>
    <g id="text_14">
     <!-- 3.4 -->
     <g transform="translate(257.314068 357.397452) scale(0.1 -0.1)">
      <use xlink:href="#DejaVuSans-33"/>
      <use xlink:href="#DejaVuSans-2e" x="63.623047"/>
      <use xlink:href="#DejaVuSans-34" x="95.410156"/>
     </g>
    </g>
   </g>
   <g id="xtick_14">
    <g id="line2d_15">
     <path d="M 290.959447 344.178599 
L 287.984047 346.995609 
" style="fill: none; stroke: #000000; stroke-width: 0.8; stroke-linecap: square"/>
    </g>
    <g id="text_15">
     <!-- 3.5 -->
     <g transform="translate(277.067095 363.643007) scale(0.1 -0.1)">
      <use xlink:href="#DejaVuSans-33"/>
      <use xlink:href="#DejaVuSans-2e" x="63.623047"/>
      <use xlink:href="#DejaVuSans-35" x="95.410156"/>
     </g>
    </g>
   </g>
   <g id="xtick_15">
    <g id="line2d_16">
     <path d="M 310.828515 350.415342 
L 307.873061 353.251049 
" style="fill: none; stroke: #000000; stroke-width: 0.8; stroke-linecap: square"/>
    </g>
    <g id="text_16">
     <!-- 3.6 -->
     <g transform="translate(296.951141 369.929989) scale(0.1 -0.1)">
      <use xlink:href="#DejaVuSans-33"/>
      <use xlink:href="#DejaVuSans-2e" x="63.623047"/>
      <use xlink:href="#DejaVuSans-36" x="95.410156"/>
     </g>
    </g>
   </g>
   <g id="xtick_16">
    <g id="line2d_17">
     <path d="M 330.82958 356.693518 
L 327.894401 359.548109 
" style="fill: none; stroke: #000000; stroke-width: 0.8; stroke-linecap: square"/>
    </g>
    <g id="text_17">
     <!-- 3.7 -->
     <g transform="translate(316.967513 376.258809) scale(0.1 -0.1)">
      <use xlink:href="#DejaVuSans-33"/>
      <use xlink:href="#DejaVuSans-2e" x="63.623047"/>
      <use xlink:href="#DejaVuSans-37" x="95.410156"/>
     </g>
    </g>
   </g>
   <g id="xtick_17">
    <g id="line2d_18">
     <path d="M 350.963959 363.013541 
L 348.049393 365.887204 
" style="fill: none; stroke: #000000; stroke-width: 0.8; stroke-linecap: square"/>
    </g>
    <g id="text_18">
     <!-- 3.8 -->
     <g transform="translate(337.117536 382.629888) scale(0.1 -0.1)">
      <defs>
       <path id="DejaVuSans-38" d="M 2034 2216 
Q 1584 2216 1326 1975 
Q 1069 1734 1069 1313 
Q 1069 891 1326 650 
Q 1584 409 2034 409 
Q 2484 409 2743 651 
Q 3003 894 3003 1313 
Q 3003 1734 2745 1975 
Q 2488 2216 2034 2216 
z
M 1403 2484 
Q 997 2584 770 2862 
Q 544 3141 544 3541 
Q 544 4100 942 4425 
Q 1341 4750 2034 4750 
Q 2731 4750 3128 4425 
Q 3525 4100 3525 3541 
Q 3525 3141 3298 2862 
Q 3072 2584 2669 2484 
Q 3125 2378 3379 2068 
Q 3634 1759 3634 1313 
Q 3634 634 3220 271 
Q 2806 -91 2034 -91 
Q 1263 -91 848 271 
Q 434 634 434 1313 
Q 434 1759 690 2068 
Q 947 2378 1403 2484 
z
M 1172 3481 
Q 1172 3119 1398 2916 
Q 1625 2713 2034 2713 
Q 2441 2713 2670 2916 
Q 2900 3119 2900 3481 
Q 2900 3844 2670 4047 
Q 2441 4250 2034 4250 
Q 1625 4250 1398 4047 
Q 1172 3844 1172 3481 
z
" transform="scale(0.015625)"/>
      </defs>
      <use xlink:href="#DejaVuSans-33"/>
      <use xlink:href="#DejaVuSans-2e" x="63.623047"/>
      <use xlink:href="#DejaVuSans-38" x="95.410156"/>
     </g>
    </g>
   </g>
   <g id="xtick_18">
    <g id="line2d_19">
     <path d="M 371.232991 369.37583 
L 368.33938 372.268758 
" style="fill: none; stroke: #000000; stroke-width: 0.8; stroke-linecap: square"/>
    </g>
    <g id="text_19">
     <!-- 3.9 -->
     <g transform="translate(357.402555 389.04365) scale(0.1 -0.1)">
      <defs>
       <path id="DejaVuSans-39" d="M 703 97 
L 703 672 
Q 941 559 1184 500 
Q 1428 441 1663 441 
Q 2288 441 2617 861 
Q 2947 1281 2994 2138 
Q 2813 1869 2534 1725 
Q 2256 1581 1919 1581 
Q 1219 1581 811 2004 
Q 403 2428 403 3163 
Q 403 3881 828 4315 
Q 1253 4750 1959 4750 
Q 2769 4750 3195 4129 
Q 3622 3509 3622 2328 
Q 3622 1225 3098 567 
Q 2575 -91 1691 -91 
Q 1453 -91 1209 -44 
Q 966 3 703 97 
z
M 1959 2075 
Q 2384 2075 2632 2365 
Q 2881 2656 2881 3163 
Q 2881 3666 2632 3958 
Q 2384 4250 1959 4250 
Q 1534 4250 1286 3958 
Q 1038 3666 1038 3163 
Q 1038 2656 1286 2365 
Q 1534 2075 1959 2075 
z
" transform="scale(0.015625)"/>
      </defs>
      <use xlink:href="#DejaVuSans-33"/>
      <use xlink:href="#DejaVuSans-2e" x="63.623047"/>
      <use xlink:href="#DejaVuSans-39" x="95.410156"/>
     </g>
    </g>
   </g>
   <g id="xtick_19">
    <g id="line2d_20">
     <path d="M 391.638032 375.78081 
L 388.765722 378.693198 
" style="fill: none; stroke: #000000; stroke-width: 0.8; stroke-linecap: square"/>
    </g>
    <g id="text_20">
     <!-- 3.10 -->
     <g transform="translate(374.642679 395.500526) scale(0.1 -0.1)">
      <use xlink:href="#DejaVuSans-33"/>
      <use xlink:href="#DejaVuSans-2e" x="63.623047"/>
      <use xlink:href="#DejaVuSans-31" x="95.410156"/>
      <use xlink:href="#DejaVuSans-30" x="159.033203"/>
     </g>
    </g>
   </g>
   <g id="xtick_20">
    <g id="line2d_21">
     <path d="M 412.180454 382.228914 
L 409.3298 385.160958 
" style="fill: none; stroke: #000000; stroke-width: 0.8; stroke-linecap: square"/>
    </g>
    <g id="text_21">
     <!-- 3.11 -->
     <g transform="translate(395.20179 402.00095) scale(0.1 -0.1)">
      <use xlink:href="#DejaVuSans-33"/>
      <use xlink:href="#DejaVuSans-2e" x="63.623047"/>
      <use xlink:href="#DejaVuSans-31" x="95.410156"/>
      <use xlink:href="#DejaVuSans-31" x="159.033203"/>
     </g>
    </g>
   </g>
  </g>
  <g id="axis3d_2">
   <g id="line2d_22">
    <path d="M 550.329769 276.357828 
L 439.930816 392.219825 
" style="fill: none; stroke: #000000; stroke-width: 0.8; stroke-linecap: square"/>
   </g>
   <g id="text_22">
    <!-- Release date -->
    <g transform="translate(510.342058 388.10359) rotate(-46.383131) scale(0.12 -0.12)">
     <defs>
      <path id="DejaVuSans-52" d="M 2841 2188 
Q 3044 2119 3236 1894 
Q 3428 1669 3622 1275 
L 4263 0 
L 3584 0 
L 2988 1197 
Q 2756 1666 2539 1819 
Q 2322 1972 1947 1972 
L 1259 1972 
L 1259 0 
L 628 0 
L 628 4666 
L 2053 4666 
Q 2853 4666 3247 4331 
Q 3641 3997 3641 3322 
Q 3641 2881 3436 2590 
Q 3231 2300 2841 2188 
z
M 1259 4147 
L 1259 2491 
L 2053 2491 
Q 2509 2491 2742 2702 
Q 2975 2913 2975 3322 
Q 2975 3731 2742 3939 
Q 2509 4147 2053 4147 
L 1259 4147 
z
" transform="scale(0.015625)"/>
      <path id="DejaVuSans-6c" d="M 603 4863 
L 1178 4863 
L 1178 0 
L 603 0 
L 603 4863 
z
" transform="scale(0.015625)"/>
      <path id="DejaVuSans-61" d="M 2194 1759 
Q 1497 1759 1228 1600 
Q 959 1441 959 1056 
Q 959 750 1161 570 
Q 1363 391 1709 391 
Q 2188 391 2477 730 
Q 2766 1069 2766 1631 
L 2766 1759 
L 2194 1759 
z
M 3341 1997 
L 3341 0 
L 2766 0 
L 2766 531 
Q 2569 213 2275 61 
Q 1981 -91 1556 -91 
Q 1019 -91 701 211 
Q 384 513 384 1019 
Q 384 1609 779 1909 
Q 1175 2209 1959 2209 
L 2766 2209 
L 2766 2266 
Q 2766 2663 2505 2880 
Q 2244 3097 1772 3097 
Q 1472 3097 1187 3025 
Q 903 2953 641 2809 
L 641 3341 
Q 956 3463 1253 3523 
Q 1550 3584 1831 3584 
Q 2591 3584 2966 3190 
Q 3341 2797 3341 1997 
z
" transform="scale(0.015625)"/>
      <path id="DejaVuSans-64" d="M 2906 2969 
L 2906 4863 
L 3481 4863 
L 3481 0 
L 2906 0 
L 2906 525 
Q 2725 213 2448 61 
Q 2172 -91 1784 -91 
Q 1150 -91 751 415 
Q 353 922 353 1747 
Q 353 2572 751 3078 
Q 1150 3584 1784 3584 
Q 2172 3584 2448 3432 
Q 2725 3281 2906 2969 
z
M 947 1747 
Q 947 1113 1208 752 
Q 1469 391 1925 391 
Q 2381 391 2643 752 
Q 2906 1113 2906 1747 
Q 2906 2381 2643 2742 
Q 2381 3103 1925 3103 
Q 1469 3103 1208 2742 
Q 947 2381 947 1747 
z
" transform="scale(0.015625)"/>
     </defs>
     <use xlink:href="#DejaVuSans-52"/>
     <use xlink:href="#DejaVuSans-65" x="64.982422"/>
     <use xlink:href="#DejaVuSans-6c" x="126.505859"/>
     <use xlink:href="#DejaVuSans-65" x="154.289062"/>
     <use xlink:href="#DejaVuSans-61" x="215.8125"/>
     <use xlink:href="#DejaVuSans-73" x="277.091797"/>
     <use xlink:href="#DejaVuSans-65" x="329.191406"/>
     <use xlink:href="#DejaVuSans-20" x="390.714844"/>
     <use xlink:href="#DejaVuSans-64" x="422.501953"/>
     <use xlink:href="#DejaVuSans-61" x="485.978516"/>
     <use xlink:href="#DejaVuSans-74" x="547.257812"/>
     <use xlink:href="#DejaVuSans-65" x="586.466797"/>
    </g>
   </g>
   <g id="Line3DCollection_2">
    <path d="M 13.526974 100.14629 
L 21.517336 256.797264 
L 443.079039 388.915814 
" style="fill: none; stroke: #b0b0b0; stroke-width: 0.8"/>
    <path d="M 38.783848 81.878564 
L 45.946697 237.371665 
L 464.394387 366.545685 
" style="fill: none; stroke: #b0b0b0; stroke-width: 0.8"/>
    <path d="M 63.484193 64.013363 
L 69.85339 218.361679 
L 485.220922 344.688558 
" style="fill: none; stroke: #b0b0b0; stroke-width: 0.8"/>
    <path d="M 87.646204 46.537527 
L 93.254011 199.754109 
L 505.575267 323.326988 
" style="fill: none; stroke: #b0b0b0; stroke-width: 0.8"/>
    <path d="M 111.265951 29.453898 
L 116.143775 181.552758 
L 525.455348 302.463149 
" style="fill: none; stroke: #b0b0b0; stroke-width: 0.8"/>
    <path d="M 134.403231 12.719226 
L 138.579722 163.712271 
L 544.912641 282.04302 
" style="fill: none; stroke: #b0b0b0; stroke-width: 0.8"/>
   </g>
   <g id="xtick_21">
    <g id="line2d_23">
     <path d="M 439.460649 387.781801 
L 450.328607 391.187847 
" style="fill: none; stroke: #000000; stroke-width: 0.8; stroke-linecap: square"/>
    </g>
    <g id="text_23">
     <!-- 2008 -->
     <g transform="translate(448.204746 408.51452) scale(0.1 -0.1)">
      <use xlink:href="#DejaVuSans-32"/>
      <use xlink:href="#DejaVuSans-30" x="63.623047"/>
      <use xlink:href="#DejaVuSans-30" x="127.246094"/>
      <use xlink:href="#DejaVuSans-38" x="190.869141"/>
     </g>
    </g>
   </g>
   <g id="xtick_22">
    <g id="line2d_24">
     <path d="M 460.805555 365.437819 
L 471.584587 368.765286 
" style="fill: none; stroke: #000000; stroke-width: 0.8; stroke-linecap: square"/>
    </g>
    <g id="text_24">
     <!-- 2011 -->
     <g transform="translate(469.347745 385.968188) scale(0.1 -0.1)">
      <use xlink:href="#DejaVuSans-32"/>
      <use xlink:href="#DejaVuSans-30" x="63.623047"/>
      <use xlink:href="#DejaVuSans-31" x="127.246094"/>
      <use xlink:href="#DejaVuSans-31" x="190.869141"/>
     </g>
    </g>
   </g>
   <g id="xtick_23">
    <g id="line2d_25">
     <path d="M 481.661251 343.605946 
L 492.352555 346.857521 
" style="fill: none; stroke: #000000; stroke-width: 0.8; stroke-linecap: square"/>
    </g>
    <g id="text_25">
     <!-- 2014 -->
     <g transform="translate(490.005094 363.93974) scale(0.1 -0.1)">
      <use xlink:href="#DejaVuSans-32"/>
      <use xlink:href="#DejaVuSans-30" x="63.623047"/>
      <use xlink:href="#DejaVuSans-31" x="127.246094"/>
      <use xlink:href="#DejaVuSans-34" x="190.869141"/>
     </g>
    </g>
   </g>
   <g id="xtick_24">
    <g id="line2d_26">
     <path d="M 502.044365 322.268775 
L 512.649124 325.447026 
" style="fill: none; stroke: #000000; stroke-width: 0.8; stroke-linecap: square"/>
    </g>
    <g id="text_26">
     <!-- 2017 -->
     <g transform="translate(510.193337 342.411535) scale(0.1 -0.1)">
      <use xlink:href="#DejaVuSans-32"/>
      <use xlink:href="#DejaVuSans-30" x="63.623047"/>
      <use xlink:href="#DejaVuSans-31" x="127.246094"/>
      <use xlink:href="#DejaVuSans-37" x="190.869141"/>
     </g>
    </g>
   </g>
   <g id="xtick_25">
    <g id="line2d_27">
     <path d="M 521.952802 301.428498 
L 532.472265 304.535942 
" style="fill: none; stroke: #000000; stroke-width: 0.8; stroke-linecap: square"/>
    </g>
    <g id="text_27">
     <!-- 2020 -->
     <g transform="translate(529.910469 321.38571) scale(0.1 -0.1)">
      <use xlink:href="#DejaVuSans-32"/>
      <use xlink:href="#DejaVuSans-30" x="63.623047"/>
      <use xlink:href="#DejaVuSans-32" x="127.246094"/>
      <use xlink:href="#DejaVuSans-30" x="190.869141"/>
     </g>
    </g>
   </g>
   <g id="xtick_26">
    <g id="line2d_28">
     <path d="M 541.438091 281.031175 
L 551.873339 284.070089 
" style="fill: none; stroke: #000000; stroke-width: 0.8; stroke-linecap: square"/>
    </g>
    <g id="text_28">
     <!-- 2023 -->
     <g transform="translate(549.207591 300.807773) scale(0.1 -0.1)">
      <use xlink:href="#DejaVuSans-32"/>
      <use xlink:href="#DejaVuSans-30" x="63.623047"/>
      <use xlink:href="#DejaVuSans-32" x="127.246094"/>
      <use xlink:href="#DejaVuSans-33" x="190.869141"/>
     </g>
    </g>
   </g>
  </g>
  <g id="axis3d_3">
   <g id="line2d_29">
    <path d="M 550.329769 276.357828 
L 558.597262 118.553145 
" style="fill: none; stroke: #000000; stroke-width: 0.8; stroke-linecap: square"/>
   </g>
   <g id="text_29">
    <!-- Amount of version-specific features -->
    <g transform="translate(599.400538 306.779611) rotate(-87.000978) scale(0.12 -0.12)">
     <defs>
      <path id="DejaVuSans-41" d="M 2188 4044 
L 1331 1722 
L 3047 1722 
L 2188 4044 
z
M 1831 4666 
L 2547 4666 
L 4325 0 
L 3669 0 
L 3244 1197 
L 1141 1197 
L 716 0 
L 50 0 
L 1831 4666 
z
" transform="scale(0.015625)"/>
      <path id="DejaVuSans-6d" d="M 3328 2828 
Q 3544 3216 3844 3400 
Q 4144 3584 4550 3584 
Q 5097 3584 5394 3201 
Q 5691 2819 5691 2113 
L 5691 0 
L 5113 0 
L 5113 2094 
Q 5113 2597 4934 2840 
Q 4756 3084 4391 3084 
Q 3944 3084 3684 2787 
Q 3425 2491 3425 1978 
L 3425 0 
L 2847 0 
L 2847 2094 
Q 2847 2600 2669 2842 
Q 2491 3084 2119 3084 
Q 1678 3084 1418 2786 
Q 1159 2488 1159 1978 
L 1159 0 
L 581 0 
L 581 3500 
L 1159 3500 
L 1159 2956 
Q 1356 3278 1631 3431 
Q 1906 3584 2284 3584 
Q 2666 3584 2933 3390 
Q 3200 3197 3328 2828 
z
" transform="scale(0.015625)"/>
      <path id="DejaVuSans-75" d="M 544 1381 
L 544 3500 
L 1119 3500 
L 1119 1403 
Q 1119 906 1312 657 
Q 1506 409 1894 409 
Q 2359 409 2629 706 
Q 2900 1003 2900 1516 
L 2900 3500 
L 3475 3500 
L 3475 0 
L 2900 0 
L 2900 538 
Q 2691 219 2414 64 
Q 2138 -91 1772 -91 
Q 1169 -91 856 284 
Q 544 659 544 1381 
z
M 1991 3584 
L 1991 3584 
z
" transform="scale(0.015625)"/>
      <path id="DejaVuSans-66" d="M 2375 4863 
L 2375 4384 
L 1825 4384 
Q 1516 4384 1395 4259 
Q 1275 4134 1275 3809 
L 1275 3500 
L 2222 3500 
L 2222 3053 
L 1275 3053 
L 1275 0 
L 697 0 
L 697 3053 
L 147 3053 
L 147 3500 
L 697 3500 
L 697 3744 
Q 697 4328 969 4595 
Q 1241 4863 1831 4863 
L 2375 4863 
z
" transform="scale(0.015625)"/>
      <path id="DejaVuSans-2d" d="M 313 2009 
L 1997 2009 
L 1997 1497 
L 313 1497 
L 313 2009 
z
" transform="scale(0.015625)"/>
      <path id="DejaVuSans-70" d="M 1159 525 
L 1159 -1331 
L 581 -1331 
L 581 3500 
L 1159 3500 
L 1159 2969 
Q 1341 3281 1617 3432 
Q 1894 3584 2278 3584 
Q 2916 3584 3314 3078 
Q 3713 2572 3713 1747 
Q 3713 922 3314 415 
Q 2916 -91 2278 -91 
Q 1894 -91 1617 61 
Q 1341 213 1159 525 
z
M 3116 1747 
Q 3116 2381 2855 2742 
Q 2594 3103 2138 3103 
Q 1681 3103 1420 2742 
Q 1159 2381 1159 1747 
Q 1159 1113 1420 752 
Q 1681 391 2138 391 
Q 2594 391 2855 752 
Q 3116 1113 3116 1747 
z
" transform="scale(0.015625)"/>
      <path id="DejaVuSans-63" d="M 3122 3366 
L 3122 2828 
Q 2878 2963 2633 3030 
Q 2388 3097 2138 3097 
Q 1578 3097 1268 2742 
Q 959 2388 959 1747 
Q 959 1106 1268 751 
Q 1578 397 2138 397 
Q 2388 397 2633 464 
Q 2878 531 3122 666 
L 3122 134 
Q 2881 22 2623 -34 
Q 2366 -91 2075 -91 
Q 1284 -91 818 406 
Q 353 903 353 1747 
Q 353 2603 823 3093 
Q 1294 3584 2113 3584 
Q 2378 3584 2631 3529 
Q 2884 3475 3122 3366 
z
" transform="scale(0.015625)"/>
     </defs>
     <use xlink:href="#DejaVuSans-41"/>
     <use xlink:href="#DejaVuSans-6d" x="68.408203"/>
     <use xlink:href="#DejaVuSans-6f" x="165.820312"/>
     <use xlink:href="#DejaVuSans-75" x="227.001953"/>
     <use xlink:href="#DejaVuSans-6e" x="290.380859"/>
     <use xlink:href="#DejaVuSans-74" x="353.759766"/>
     <use xlink:href="#DejaVuSans-20" x="392.96875"/>
     <use xlink:href="#DejaVuSans-6f" x="424.755859"/>
     <use xlink:href="#DejaVuSans-66" x="485.9375"/>
     <use xlink:href="#DejaVuSans-20" x="521.142578"/>
     <use xlink:href="#DejaVuSans-76" x="552.929688"/>
     <use xlink:href="#DejaVuSans-65" x="612.109375"/>
     <use xlink:href="#DejaVuSans-72" x="673.632812"/>
     <use xlink:href="#DejaVuSans-73" x="714.746094"/>
     <use xlink:href="#DejaVuSans-69" x="766.845703"/>
     <use xlink:href="#DejaVuSans-6f" x="794.628906"/>
     <use xlink:href="#DejaVuSans-6e" x="855.810547"/>
     <use xlink:href="#DejaVuSans-2d" x="919.189453"/>
     <use xlink:href="#DejaVuSans-73" x="955.273438"/>
     <use xlink:href="#DejaVuSans-70" x="1007.373047"/>
     <use xlink:href="#DejaVuSans-65" x="1070.849609"/>
     <use xlink:href="#DejaVuSans-63" x="1132.373047"/>
     <use xlink:href="#DejaVuSans-69" x="1187.353516"/>
     <use xlink:href="#DejaVuSans-66" x="1215.136719"/>
     <use xlink:href="#DejaVuSans-69" x="1250.341797"/>
     <use xlink:href="#DejaVuSans-63" x="1278.125"/>
     <use xlink:href="#DejaVuSans-20" x="1333.105469"/>
     <use xlink:href="#DejaVuSans-66" x="1364.892578"/>
     <use xlink:href="#DejaVuSans-65" x="1400.097656"/>
     <use xlink:href="#DejaVuSans-61" x="1461.621094"/>
     <use xlink:href="#DejaVuSans-74" x="1522.900391"/>
     <use xlink:href="#DejaVuSans-75" x="1562.109375"/>
     <use xlink:href="#DejaVuSans-72" x="1625.488281"/>
     <use xlink:href="#DejaVuSans-65" x="1664.351562"/>
     <use xlink:href="#DejaVuSans-73" x="1725.875"/>
    </g>
   </g>
   <g id="Line3DCollection_3">
    <path d="M 550.490257 273.294538 
L 144.754476 155.809867 
L 17.754922 256.61872 
" style="fill: none; stroke: #b0b0b0; stroke-width: 0.8"/>
    <path d="M 551.884935 246.673807 
L 144.081408 130.350194 
L 16.385848 230.158004 
" style="fill: none; stroke: #b0b0b0; stroke-width: 0.8"/>
    <path d="M 553.294227 219.774136 
L 143.40175 104.641203 
L 15.002562 203.422603 
" style="fill: none; stroke: #b0b0b0; stroke-width: 0.8"/>
    <path d="M 554.718363 192.591118 
L 142.715403 78.679216 
L 13.604842 176.408216 
" style="fill: none; stroke: #b0b0b0; stroke-width: 0.8"/>
    <path d="M 556.15758 165.120253 
L 142.022269 52.460479 
L 12.19246 149.110454 
" style="fill: none; stroke: #b0b0b0; stroke-width: 0.8"/>
    <path d="M 557.612118 137.356944 
L 141.322246 25.981164 
L 10.765184 121.524835 
" style="fill: none; stroke: #b0b0b0; stroke-width: 0.8"/>
   </g>
   <g id="xtick_27">
    <g id="line2d_30">
     <path d="M 547.021377 272.290091 
L 557.439567 275.306778 
" style="fill: none; stroke: #000000; stroke-width: 0.8; stroke-linecap: square"/>
    </g>
    <g id="text_30">
     <!-- 0.0 -->
     <g transform="translate(563.960749 281.563535) scale(0.1 -0.1)">
      <use xlink:href="#DejaVuSans-30"/>
      <use xlink:href="#DejaVuSans-2e" x="63.623047"/>
      <use xlink:href="#DejaVuSans-30" x="95.410156"/>
     </g>
    </g>
   </g>
   <g id="xtick_28">
    <g id="line2d_31">
     <path d="M 548.397209 245.678953 
L 558.87206 248.666844 
" style="fill: none; stroke: #000000; stroke-width: 0.8; stroke-linecap: square"/>
    </g>
    <g id="text_31">
     <!-- 0.1 -->
     <g transform="translate(565.467635 254.936402) scale(0.1 -0.1)">
      <use xlink:href="#DejaVuSans-30"/>
      <use xlink:href="#DejaVuSans-2e" x="63.623047"/>
      <use xlink:href="#DejaVuSans-31" x="95.410156"/>
     </g>
    </g>
   </g>
   <g id="xtick_29">
    <g id="line2d_32">
     <path d="M 549.787449 218.789132 
L 560.31958 221.747457 
" style="fill: none; stroke: #000000; stroke-width: 0.8; stroke-linecap: square"/>
    </g>
    <g id="text_32">
     <!-- 0.2 -->
     <g transform="translate(566.990317 228.030158) scale(0.1 -0.1)">
      <use xlink:href="#DejaVuSans-30"/>
      <use xlink:href="#DejaVuSans-2e" x="63.623047"/>
      <use xlink:href="#DejaVuSans-32" x="95.410156"/>
     </g>
    </g>
   </g>
   <g id="xtick_30">
    <g id="line2d_33">
     <path d="M 551.192325 191.616228 
L 561.782365 194.544196 
" style="fill: none; stroke: #000000; stroke-width: 0.8; stroke-linecap: square"/>
    </g>
    <g id="text_33">
     <!-- 0.3 -->
     <g transform="translate(568.529043 200.840392) scale(0.1 -0.1)">
      <use xlink:href="#DejaVuSans-30"/>
      <use xlink:href="#DejaVuSans-2e" x="63.623047"/>
      <use xlink:href="#DejaVuSans-33" x="95.410156"/>
     </g>
    </g>
   </g>
   <g id="xtick_31">
    <g id="line2d_34">
     <path d="M 552.61207 164.155746 
L 563.260657 167.052547 
" style="fill: none; stroke: #000000; stroke-width: 0.8; stroke-linecap: square"/>
    </g>
    <g id="text_34">
     <!-- 0.4 -->
     <g transform="translate(570.08407 173.362598) scale(0.1 -0.1)">
      <use xlink:href="#DejaVuSans-30"/>
      <use xlink:href="#DejaVuSans-2e" x="63.623047"/>
      <use xlink:href="#DejaVuSans-34" x="95.410156"/>
     </g>
    </g>
   </g>
   <g id="xtick_32">
    <g id="line2d_35">
     <path d="M 554.046919 136.403097 
L 564.754704 139.267899 
" style="fill: none; stroke: #000000; stroke-width: 0.8; stroke-linecap: square"/>
    </g>
    <g id="text_35">
     <!-- 0.5 -->
     <g transform="translate(571.655658 145.592176) scale(0.1 -0.1)">
      <use xlink:href="#DejaVuSans-30"/>
      <use xlink:href="#DejaVuSans-2e" x="63.623047"/>
      <use xlink:href="#DejaVuSans-35" x="95.410156"/>
     </g>
    </g>
   </g>
  </g>
  <g id="axes_1">
   <g id="line2d_36">
    <path d="M 163.748845 291.325032 
L 196.328821 285.290947 
L 203.101619 301.982802 
L 226.634394 304.051573 
L 258.466269 298.628975 
L 289.786543 293.537348 
L 319.856603 289.478681 
L 350.048716 285.197008 
L 378.577412 282.393634 
L 408.610617 278.053091 
L 437.068531 275.143305 
L 463.291487 274.382819 
L 489.618986 273.494902 
L 516.294397 272.224131 
" clip-path="url(#pc5fd12c749)" style="fill: none; stroke: #ff0000; stroke-width: 1.5; stroke-linecap: square"/>
   </g>
   <g id="Poly3DCollection_1">
    <path d="M 133.608156 187.694277 
L 126.763012 193.846621 
L 144.473288 193.529849 
z
" clip-path="url(#pc5fd12c749)" style="fill: #eef5fc"/>
    <path d="M 144.473288 193.529849 
L 151.312734 188.162686 
L 133.608156 187.694277 
z
" clip-path="url(#pc5fd12c749)" style="fill: #ebf3fb"/>
    <path d="M 144.473288 193.529849 
L 126.763012 193.846621 
L 116.588907 203.439589 
z
" clip-path="url(#pc5fd12c749)" style="fill: #f0f6fd"/>
    <path d="M 168.76115 170.482969 
L 151.312734 188.162686 
L 144.473288 193.529849 
z
" clip-path="url(#pc5fd12c749)" style="fill: #dce9f6"/>
    <path d="M 116.588907 203.439589 
L 134.374963 204.504251 
L 144.473288 193.529849 
z
" clip-path="url(#pc5fd12c749)" style="fill: #eef5fc"/>
    <path d="M 116.588907 203.439589 
L 111.249732 207.961894 
L 129.061602 209.15963 
z
" clip-path="url(#pc5fd12c749)" style="fill: #f2f8fd"/>
    <path d="M 129.061602 209.15963 
L 134.374963 204.504251 
L 116.588907 203.439589 
z
" clip-path="url(#pc5fd12c749)" style="fill: #f0f6fd"/>
    <path d="M 144.473288 193.529849 
L 161.858052 172.855289 
L 168.76115 170.482969 
z
" clip-path="url(#pc5fd12c749)" style="fill: #cddff1"/>
    <path d="M 180.470055 199.555732 
L 187.242675 194.250875 
L 168.76115 170.482969 
z
" clip-path="url(#pc5fd12c749)" style="fill: #d6e6f4"/>
    <path d="M 111.249732 207.961894 
L 102.340093 214.536713 
L 129.061602 209.15963 
z
" clip-path="url(#pc5fd12c749)" style="fill: #f2f8fd"/>
    <path d="M 168.76115 170.482969 
L 161.858052 172.855289 
L 180.470055 199.555732 
z
" clip-path="url(#pc5fd12c749)" style="fill: #cadef0"/>
    <path d="M 144.473288 193.529849 
L 134.374963 204.504251 
L 151.175637 160.997669 
z
" clip-path="url(#pc5fd12c749)" style="fill: #d0e2f2"/>
    <path d="M 102.340093 214.536713 
L 120.199502 215.989757 
L 129.061602 209.15963 
z
" clip-path="url(#pc5fd12c749)" style="fill: #f0f6fd"/>
    <path d="M 151.175637 160.997669 
L 161.858052 172.855289 
L 144.473288 193.529849 
z
" clip-path="url(#pc5fd12c749)" style="fill: #bcd7eb"/>
    <path d="M 119.304386 211.696741 
L 102.340093 214.536713 
L 101.571261 214.412704 
z
" clip-path="url(#pc5fd12c749)" style="fill: #eef5fc"/>
    <path d="M 204.719125 151.946114 
L 187.242675 194.250875 
L 180.470055 199.555732 
z
" clip-path="url(#pc5fd12c749)" style="fill: #c7dbef"/>
    <path d="M 151.175637 160.997669 
L 134.374963 204.504251 
L 129.061602 209.15963 
z
" clip-path="url(#pc5fd12c749)" style="fill: #d2e3f3"/>
    <path d="M 119.304386 211.696741 
L 120.199502 215.989757 
L 102.340093 214.536713 
z
" clip-path="url(#pc5fd12c749)" style="fill: #edf4fc"/>
    <path d="M 101.571261 214.412704 
L 92.974918 217.583405 
L 119.304386 211.696741 
z
" clip-path="url(#pc5fd12c749)" style="fill: #ecf4fb"/>
    <path d="M 180.470055 199.555732 
L 161.858052 172.855289 
L 151.175637 160.997669 
z
" clip-path="url(#pc5fd12c749)" style="fill: #b8d5ea"/>
    <path d="M 151.175637 160.997669 
L 170.284759 202.86881 
L 180.470055 199.555732 
z
" clip-path="url(#pc5fd12c749)" style="fill: #c7dbef"/>
    <path d="M 92.974918 217.583405 
L 110.91571 219.85948 
L 119.304386 211.696741 
z
" clip-path="url(#pc5fd12c749)" style="fill: #e8f1fa"/>
    <path d="M 180.470055 199.555732 
L 170.284759 202.86881 
L 188.049 178.806414 
z
" clip-path="url(#pc5fd12c749)" style="fill: #cadef0"/>
    <path d="M 197.964449 159.842106 
L 204.719125 151.946114 
L 180.470055 199.555732 
z
" clip-path="url(#pc5fd12c749)" style="fill: #9dcae1"/>
    <path d="M 145.635955 157.97628 
L 151.175637 160.997669 
L 129.061602 209.15963 
z
" clip-path="url(#pc5fd12c749)" style="fill: #a6cee4"/>
    <path d="M 129.061602 209.15963 
L 120.199502 215.989757 
L 136.098235 142.53765 
z
" clip-path="url(#pc5fd12c749)" style="fill: #bed8ec"/>
    <path d="M 164.718762 194.644888 
L 170.284759 202.86881 
L 151.175637 160.997669 
z
" clip-path="url(#pc5fd12c749)" style="fill: #b7d4ea"/>
    <path d="M 188.049 178.806414 
L 197.964449 159.842106 
L 180.470055 199.555732 
z
" clip-path="url(#pc5fd12c749)" style="fill: #a9cfe5"/>
    <path d="M 98.367244 229.78802 
L 110.91571 219.85948 
L 92.974918 217.583405 
z
" clip-path="url(#pc5fd12c749)" style="fill: #e9f2fa"/>
    <path d="M 98.367244 229.78802 
L 92.974918 217.583405 
L 80.372353 227.541431 
z
" clip-path="url(#pc5fd12c749)" style="fill: #eaf3fb"/>
    <path d="M 136.098235 142.53765 
L 120.199502 215.989757 
L 119.304386 211.696741 
z
" clip-path="url(#pc5fd12c749)" style="fill: #bad6eb"/>
    <path d="M 188.049 178.806414 
L 170.284759 202.86881 
L 164.718762 194.644888 
z
" clip-path="url(#pc5fd12c749)" style="fill: #bdd7ec"/>
    <path d="M 272.778111 240.220102 
L 279.33176 234.410811 
L 260.661672 212.182891 
z
" clip-path="url(#pc5fd12c749)" style="fill: #eef5fc"/>
    <path d="M 164.718762 194.644888 
L 151.175637 160.997669 
L 145.635955 157.97628 
z
" clip-path="url(#pc5fd12c749)" style="fill: #8abfdd"/>
    <path d="M 260.661672 212.182891 
L 241.943226 184.429366 
L 235.256387 189.876331 
z
" clip-path="url(#pc5fd12c749)" style="fill: #bfd8ed"/>
    <path d="M 129.061602 209.15963 
L 136.098235 142.53765 
L 145.635955 157.97628 
z
" clip-path="url(#pc5fd12c749)" style="fill: #85bcdc"/>
    <path d="M 260.661672 212.182891 
L 254.055432 219.604123 
L 272.778111 240.220102 
z
" clip-path="url(#pc5fd12c749)" style="fill: #e5eff9"/>
    <path d="M 298.060515 235.080977 
L 279.33176 234.410811 
L 272.778111 240.220102 
z
" clip-path="url(#pc5fd12c749)" style="fill: #f5f9fe"/>
    <path d="M 235.256387 189.876331 
L 254.055432 219.604123 
L 260.661672 212.182891 
z
" clip-path="url(#pc5fd12c749)" style="fill: #cfe1f2"/>
    <path d="M 155.991166 204.870516 
L 164.718762 194.644888 
L 145.635955 157.97628 
z
" clip-path="url(#pc5fd12c749)" style="fill: #a8cee4"/>
    <path d="M 204.719125 151.946114 
L 197.964449 159.842106 
L 216.158835 141.241404 
z
" clip-path="url(#pc5fd12c749)" style="fill: #529dcc"/>
    <path d="M 235.256387 189.876331 
L 241.943226 184.429366 
L 222.956716 137.07003 
z
" clip-path="url(#pc5fd12c749)" style="fill: #7db8da"/>
    <path d="M 254.055432 219.604123 
L 244.267787 236.211697 
L 272.778111 240.220102 
z
" clip-path="url(#pc5fd12c749)" style="fill: #eaf3fb"/>
    <path d="M 235.256387 189.876331 
L 244.267787 236.211697 
L 254.055432 219.604123 
z
" clip-path="url(#pc5fd12c749)" style="fill: #d5e5f4"/>
    <path d="M 291.541341 241.100598 
L 298.060515 235.080977 
L 272.778111 240.220102 
z
" clip-path="url(#pc5fd12c749)" style="fill: #f2f7fd"/>
    <path d="M 204.719125 151.946114 
L 216.158835 141.241404 
L 222.956716 137.07003 
z
" clip-path="url(#pc5fd12c749)" style="fill: #3e8ec4"/>
    <path d="M 80.372353 227.541431 
L 68.369881 213.71007 
L 98.367244 229.78802 
z
" clip-path="url(#pc5fd12c749)" style="fill: #ddeaf7"/>
    <path d="M 225.473374 213.781915 
L 244.267787 236.211697 
L 235.256387 189.876331 
z
" clip-path="url(#pc5fd12c749)" style="fill: #d0e1f2"/>
    <path d="M 272.778111 240.220102 
L 244.267787 236.211697 
L 263.019027 248.870759 
z
" clip-path="url(#pc5fd12c749)" style="fill: #f3f8fe"/>
    <path d="M 119.304386 211.696741 
L 110.91571 219.85948 
L 125.47474 104.290405 
z
" clip-path="url(#pc5fd12c749)" style="fill: #8abfdd"/>
    <path d="M 222.956716 137.07003 
L 216.158835 141.241404 
L 235.256387 189.876331 
z
" clip-path="url(#pc5fd12c749)" style="fill: #529dcc"/>
    <path d="M 310.417524 249.396743 
L 316.893999 243.09094 
L 298.060515 235.080977 
z
" clip-path="url(#pc5fd12c749)" style="fill: #f2f8fd"/>
    <path d="M 145.635955 157.97628 
L 136.098235 142.53765 
L 155.991166 204.870516 
z
" clip-path="url(#pc5fd12c749)" style="fill: #6caed6"/>
    <path d="M 310.417524 249.396743 
L 298.060515 235.080977 
L 291.541341 241.100598 
z
" clip-path="url(#pc5fd12c749)" style="fill: #f1f7fd"/>
    <path d="M 181.848393 135.412361 
L 164.718762 194.644888 
L 155.991166 204.870516 
z
" clip-path="url(#pc5fd12c749)" style="fill: #84bcdb"/>
    <path d="M 164.718762 194.644888 
L 181.848393 135.412361 
L 188.049 178.806414 
z
" clip-path="url(#pc5fd12c749)" style="fill: #6dafd7"/>
    <path d="M 225.473374 213.781915 
L 220.208235 212.444099 
L 244.267787 236.211697 
z
" clip-path="url(#pc5fd12c749)" style="fill: #d5e5f4"/>
    <path d="M 272.778111 240.220102 
L 281.833591 247.414664 
L 291.541341 241.100598 
z
" clip-path="url(#pc5fd12c749)" style="fill: #f1f7fd"/>
    <path d="M 155.001461 195.172199 
L 155.991166 204.870516 
L 136.098235 142.53765 
z
" clip-path="url(#pc5fd12c749)" style="fill: #87bddc"/>
    <path d="M 244.267787 236.211697 
L 220.208235 212.444099 
L 239.181092 247.772382 
z
" clip-path="url(#pc5fd12c749)" style="fill: #e3eef8"/>
    <path d="M 263.019027 248.870759 
L 281.833591 247.414664 
L 272.778111 240.220102 
z
" clip-path="url(#pc5fd12c749)" style="fill: #f3f8fe"/>
    <path d="M 205.859024 135.881497 
L 197.964449 159.842106 
L 188.049 178.806414 
z
" clip-path="url(#pc5fd12c749)" style="fill: #529dcc"/>
    <path d="M 257.910486 253.399076 
L 244.267787 236.211697 
L 239.181092 247.772382 
z
" clip-path="url(#pc5fd12c749)" style="fill: #f3f8fe"/>
    <path d="M 263.019027 248.870759 
L 244.267787 236.211697 
L 257.910486 253.399076 
z
" clip-path="url(#pc5fd12c749)" style="fill: #f3f8fe"/>
    <path d="M 184.469728 251.666746 
L 192.267898 219.942166 
L 173.804525 217.170419 
z
" clip-path="url(#pc5fd12c749)" style="fill: #ddeaf7"/>
    <path d="M 165.108352 207.385526 
L 173.804525 217.170419 
L 155.001461 195.172199 
z
" clip-path="url(#pc5fd12c749)" style="fill: #bcd7eb"/>
    <path d="M 173.42205 163.508781 
L 155.991166 204.870516 
L 155.001461 195.172199 
z
" clip-path="url(#pc5fd12c749)" style="fill: #94c4df"/>
    <path d="M 235.256387 189.876331 
L 205.859024 135.881497 
L 225.473374 213.781915 
z
" clip-path="url(#pc5fd12c749)" style="fill: #7fb9da"/>
    <path d="M 329.399044 257.06321 
L 335.82796 251.143635 
L 316.893999 243.09094 
z
" clip-path="url(#pc5fd12c749)" style="fill: #f6faff"/>
    <path d="M 119.304386 211.696741 
L 134.137912 100.097657 
L 136.098235 142.53765 
z
" clip-path="url(#pc5fd12c749)" style="fill: #4090c5"/>
    <path d="M 68.369881 213.71007 
L 86.616342 219.246154 
L 98.367244 229.78802 
z
" clip-path="url(#pc5fd12c749)" style="fill: #d1e2f3"/>
    <path d="M 216.158835 141.241404 
L 197.964449 159.842106 
L 205.859024 135.881497 
z
" clip-path="url(#pc5fd12c749)" style="fill: #3585bf"/>
    <path d="M 239.181092 247.772382 
L 220.208235 212.444099 
L 230.633901 255.255727 
z
" clip-path="url(#pc5fd12c749)" style="fill: #e7f0fa"/>
    <path d="M 316.893999 243.09094 
L 310.417524 249.396743 
L 329.399044 257.06321 
z
" clip-path="url(#pc5fd12c749)" style="fill: #f5f9fe"/>
    <path d="M 125.47474 104.290405 
L 110.91571 219.85948 
L 98.367244 229.78802 
z
" clip-path="url(#pc5fd12c749)" style="fill: #8cc0dd"/>
    <path d="M 239.181092 247.772382 
L 230.633901 255.255727 
L 257.910486 253.399076 
z
" clip-path="url(#pc5fd12c749)" style="fill: #f7fbff"/>
    <path d="M 291.541341 241.100598 
L 281.833591 247.414664 
L 310.417524 249.396743 
z
" clip-path="url(#pc5fd12c749)" style="fill: #eff6fc"/>
    <path d="M 173.804525 217.170419 
L 192.267898 219.942166 
L 192.75784 205.72476 
z
" clip-path="url(#pc5fd12c749)" style="fill: #c8dcf0"/>
    <path d="M 155.001461 195.172199 
L 173.804525 217.170419 
L 173.42205 163.508781 
z
" clip-path="url(#pc5fd12c749)" style="fill: #9ac8e0"/>
    <path d="M 184.469728 251.666746 
L 173.804525 217.170419 
L 165.108352 207.385526 
z
" clip-path="url(#pc5fd12c749)" style="fill: #d5e5f4"/>
    <path d="M 201.494743 199.83255 
L 192.75784 205.72476 
L 220.208235 212.444099 
z
" clip-path="url(#pc5fd12c749)" style="fill: #b7d4ea"/>
    <path d="M 257.910486 253.399076 
L 281.833591 247.414664 
L 263.019027 248.870759 
z
" clip-path="url(#pc5fd12c749)" style="fill: #f3f8fe"/>
    <path d="M 216.158835 141.241404 
L 205.859024 135.881497 
L 235.256387 189.876331 
z
" clip-path="url(#pc5fd12c749)" style="fill: #4493c7"/>
    <path d="M 155.001461 195.172199 
L 146.351445 192.14758 
L 165.108352 207.385526 
z
" clip-path="url(#pc5fd12c749)" style="fill: #a4cce3"/>
    <path d="M 225.473374 213.781915 
L 205.859024 135.881497 
L 220.208235 212.444099 
z
" clip-path="url(#pc5fd12c749)" style="fill: #8abfdd"/>
    <path d="M 354.897601 256.791607 
L 335.82796 251.143635 
L 329.399044 257.06321 
z
" clip-path="url(#pc5fd12c749)" style="fill: #f7fbff"/>
    <path d="M 220.208235 212.444099 
L 205.859024 135.881497 
L 201.494743 199.83255 
z
" clip-path="url(#pc5fd12c749)" style="fill: #7ab6d9"/>
    <path d="M 230.633901 255.255727 
L 220.208235 212.444099 
L 211.552863 219.373769 
z
" clip-path="url(#pc5fd12c749)" style="fill: #d6e5f4"/>
    <path d="M 173.42205 163.508781 
L 173.804525 217.170419 
L 192.75784 205.72476 
z
" clip-path="url(#pc5fd12c749)" style="fill: #9ac8e0"/>
    <path d="M 210.712952 211.649674 
L 192.267898 219.942166 
L 184.469728 251.666746 
z
" clip-path="url(#pc5fd12c749)" style="fill: #d3e4f3"/>
    <path d="M 310.417524 249.396743 
L 281.833591 247.414664 
L 300.769988 260.173605 
z
" clip-path="url(#pc5fd12c749)" style="fill: #f2f8fd"/>
    <path d="M 329.399044 257.06321 
L 310.417524 249.396743 
L 300.769988 260.173605 
z
" clip-path="url(#pc5fd12c749)" style="fill: #f6faff"/>
    <path d="M 257.910486 253.399076 
L 276.75817 259.061306 
L 281.833591 247.414664 
z
" clip-path="url(#pc5fd12c749)" style="fill: #f3f8fe"/>
    <path d="M 257.910486 253.399076 
L 230.633901 255.255727 
L 249.414938 260.929707 
z
" clip-path="url(#pc5fd12c749)" style="fill: #f7fbff"/>
    <path d="M 220.208235 212.444099 
L 192.75784 205.72476 
L 211.552863 219.373769 
z
" clip-path="url(#pc5fd12c749)" style="fill: #bdd7ec"/>
    <path d="M 192.75784 205.72476 
L 201.494743 199.83255 
L 181.848393 135.412361 
z
" clip-path="url(#pc5fd12c749)" style="fill: #72b2d8"/>
    <path d="M 155.991166 204.870516 
L 173.42205 163.508781 
L 181.848393 135.412361 
z
" clip-path="url(#pc5fd12c749)" style="fill: #57a0ce"/>
    <path d="M 188.049 178.806414 
L 181.848393 135.412361 
L 205.859024 135.881497 
z
" clip-path="url(#pc5fd12c749)" style="fill: #3484bf"/>
    <path d="M 229.919054 255.881599 
L 248.7044 261.559543 
L 230.633901 255.255727 
z
" clip-path="url(#pc5fd12c749)" style="fill: #f7fbff"/>
    <path d="M 192.75784 205.72476 
L 192.267898 219.942166 
L 210.712952 211.649674 
z
" clip-path="url(#pc5fd12c749)" style="fill: #bad6eb"/>
    <path d="M 210.712952 211.649674 
L 229.919054 255.881599 
L 230.633901 255.255727 
z
" clip-path="url(#pc5fd12c749)" style="fill: #e1edf8"/>
    <path d="M 136.098235 142.53765 
L 134.137912 100.097657 
L 155.001461 195.172199 
z
" clip-path="url(#pc5fd12c749)" style="fill: #2c7cba"/>
    <path d="M 329.399044 257.06321 
L 348.511577 262.748642 
L 354.897601 256.791607 
z
" clip-path="url(#pc5fd12c749)" style="fill: #f7fbff"/>
    <path d="M 98.367244 229.78802 
L 86.616342 219.246154 
L 103.952543 195.086564 
z
" clip-path="url(#pc5fd12c749)" style="fill: #bdd7ec"/>
    <path d="M 230.633901 255.255727 
L 248.7044 261.559543 
L 249.414938 260.929707 
z
" clip-path="url(#pc5fd12c749)" style="fill: #f7fbff"/>
    <path d="M 125.47474 104.290405 
L 134.137912 100.097657 
L 119.304386 211.696741 
z
" clip-path="url(#pc5fd12c749)" style="fill: #206fb4"/>
    <path d="M 181.848393 135.412361 
L 201.494743 199.83255 
L 205.859024 135.881497 
z
" clip-path="url(#pc5fd12c749)" style="fill: #3c8cc3"/>
    <path d="M 276.75817 259.061306 
L 257.910486 253.399076 
L 268.315089 266.639674 
z
" clip-path="url(#pc5fd12c749)" style="fill: #f7fbff"/>
    <path d="M 230.633901 255.255727 
L 211.552863 219.373769 
L 210.712952 211.649674 
z
" clip-path="url(#pc5fd12c749)" style="fill: #d1e2f3"/>
    <path d="M 86.616342 219.246154 
L 68.369881 213.71007 
L 50.034197 228.241805 
z
" clip-path="url(#pc5fd12c749)" style="fill: #c7dbef"/>
    <path d="M 165.108352 207.385526 
L 152.755242 219.997419 
L 184.469728 251.666746 
z
" clip-path="url(#pc5fd12c749)" style="fill: #cde0f1"/>
    <path d="M 248.7044 261.559543 
L 229.919054 255.881599 
L 221.782897 263.00507 
z
" clip-path="url(#pc5fd12c749)" style="fill: #f7fbff"/>
    <path d="M 281.833591 247.414664 
L 276.75817 259.061306 
L 295.725266 264.75941 
z
" clip-path="url(#pc5fd12c749)" style="fill: #f3f8fe"/>
    <path d="M 268.315089 266.639674 
L 257.910486 253.399076 
L 249.414938 260.929707 
z
" clip-path="url(#pc5fd12c749)" style="fill: #f7fbff"/>
    <path d="M 210.712952 211.649674 
L 211.552863 219.373769 
L 192.75784 205.72476 
z
" clip-path="url(#pc5fd12c749)" style="fill: #b5d4e9"/>
    <path d="M 300.769988 260.173605 
L 281.833591 247.414664 
L 295.725266 264.75941 
z
" clip-path="url(#pc5fd12c749)" style="fill: #f3f8fe"/>
    <path d="M 184.469728 251.666746 
L 202.614651 228.253727 
L 210.712952 211.649674 
z
" clip-path="url(#pc5fd12c749)" style="fill: #d1e2f3"/>
    <path d="M 184.469728 251.666746 
L 152.755242 219.997419 
L 172.224504 262.130773 
z
" clip-path="url(#pc5fd12c749)" style="fill: #e3eef8"/>
    <path d="M 329.399044 257.06321 
L 300.769988 260.173605 
L 319.824963 265.878769 
z
" clip-path="url(#pc5fd12c749)" style="fill: #f7fbff"/>
    <path d="M 125.47474 104.290405 
L 146.351445 192.14758 
L 155.001461 195.172199 
z
" clip-path="url(#pc5fd12c749)" style="fill: #4695c8"/>
    <path d="M 181.848393 135.412361 
L 173.42205 163.508781 
L 192.75784 205.72476 
z
" clip-path="url(#pc5fd12c749)" style="fill: #4d99ca"/>
    <path d="M 146.351445 192.14758 
L 152.755242 219.997419 
L 165.108352 207.385526 
z
" clip-path="url(#pc5fd12c749)" style="fill: #a6cee4"/>
    <path d="M 202.614651 228.253727 
L 221.782897 263.00507 
L 229.919054 255.881599 
z
" clip-path="url(#pc5fd12c749)" style="fill: #e7f0fa"/>
    <path d="M 210.712952 211.649674 
L 202.614651 228.253727 
L 229.919054 255.881599 
z
" clip-path="url(#pc5fd12c749)" style="fill: #d1e2f3"/>
    <path d="M 367.756673 267.793937 
L 374.098841 261.861746 
L 354.897601 256.791607 
z
" clip-path="url(#pc5fd12c749)" style="fill: #f7fbff"/>
    <path d="M 354.897601 256.791607 
L 348.511577 262.748642 
L 367.756673 267.793937 
z
" clip-path="url(#pc5fd12c749)" style="fill: #f7fbff"/>
    <path d="M 249.414938 260.929707 
L 248.7044 261.559543 
L 268.315089 266.639674 
z
" clip-path="url(#pc5fd12c749)" style="fill: #f7fbff"/>
    <path d="M 276.75817 259.061306 
L 268.315089 266.639674 
L 295.725266 264.75941 
z
" clip-path="url(#pc5fd12c749)" style="fill: #f7fbff"/>
    <path d="M 319.824963 265.878769 
L 300.769988 260.173605 
L 295.725266 264.75941 
z
" clip-path="url(#pc5fd12c749)" style="fill: #f7fbff"/>
    <path d="M 329.399044 257.06321 
L 339.001124 271.620218 
L 348.511577 262.748642 
z
" clip-path="url(#pc5fd12c749)" style="fill: #f7fbff"/>
    <path d="M 172.224504 262.130773 
L 190.354214 237.939219 
L 184.469728 251.666746 
z
" clip-path="url(#pc5fd12c749)" style="fill: #e7f0fa"/>
    <path d="M 146.351445 192.14758 
L 133.905833 204.416403 
L 152.755242 219.997419 
z
" clip-path="url(#pc5fd12c749)" style="fill: #9fcae1"/>
    <path d="M 221.782897 263.00507 
L 240.590496 265.501849 
L 248.7044 261.559543 
z
" clip-path="url(#pc5fd12c749)" style="fill: #f5fafe"/>
    <path d="M 319.824963 265.878769 
L 339.001124 271.620218 
L 329.399044 257.06321 
z
" clip-path="url(#pc5fd12c749)" style="fill: #f7fbff"/>
    <path d="M 268.315089 266.639674 
L 248.7044 261.559543 
L 267.608929 267.273512 
z
" clip-path="url(#pc5fd12c749)" style="fill: #f7fbff"/>
    <path d="M 184.469728 251.666746 
L 190.354214 237.939219 
L 202.614651 228.253727 
z
" clip-path="url(#pc5fd12c749)" style="fill: #d6e6f4"/>
    <path d="M 155.001461 195.172199 
L 134.137912 100.097657 
L 125.47474 104.290405 
z
" clip-path="url(#pc5fd12c749)" style="fill: #105ba4"/>
    <path d="M 393.406677 267.88771 
L 374.098841 261.861746 
L 367.756673 267.793937 
z
" clip-path="url(#pc5fd12c749)" style="fill: #f6faff"/>
    <path d="M 50.034197 228.241805 
L 68.373989 233.870181 
L 86.616342 219.246154 
z
" clip-path="url(#pc5fd12c749)" style="fill: #c7dbef"/>
    <path d="M 295.725266 264.75941 
L 314.812914 270.493731 
L 319.824963 265.878769 
z
" clip-path="url(#pc5fd12c749)" style="fill: #f7fbff"/>
    <path d="M 172.224504 262.130773 
L 152.755242 219.997419 
L 161.471916 271.319285 
z
" clip-path="url(#pc5fd12c749)" style="fill: #e3eef8"/>
    <path d="M 248.7044 261.559543 
L 259.571425 274.487842 
L 267.608929 267.273512 
z
" clip-path="url(#pc5fd12c749)" style="fill: #f7fbff"/>
    <path d="M 295.725266 264.75941 
L 268.315089 266.639674 
L 287.335492 272.385971 
z
" clip-path="url(#pc5fd12c749)" style="fill: #f7fbff"/>
    <path d="M 248.7044 261.559543 
L 240.590496 265.501849 
L 259.571425 274.487842 
z
" clip-path="url(#pc5fd12c749)" style="fill: #f5fafe"/>
    <path d="M 161.471916 271.319285 
L 152.755242 219.997419 
L 142.861571 265.579741 
z
" clip-path="url(#pc5fd12c749)" style="fill: #e3eef8"/>
    <path d="M 240.590496 265.501849 
L 221.782897 263.00507 
L 209.679062 273.602374 
z
" clip-path="url(#pc5fd12c749)" style="fill: #f5fafe"/>
    <path d="M 267.608929 267.273512 
L 286.633781 273.023848 
L 268.315089 266.639674 
z
" clip-path="url(#pc5fd12c749)" style="fill: #f7fbff"/>
    <path d="M 202.614651 228.253727 
L 190.354214 237.939219 
L 221.782897 263.00507 
z
" clip-path="url(#pc5fd12c749)" style="fill: #d6e6f4"/>
    <path d="M 358.307744 276.849142 
L 367.756673 267.793937 
L 348.511577 262.748642 
z
" clip-path="url(#pc5fd12c749)" style="fill: #f7fbff"/>
    <path d="M 98.367244 229.78802 
L 103.952543 195.086564 
L 112.576055 110.681641 
z
" clip-path="url(#pc5fd12c749)" style="fill: #549fcd"/>
    <path d="M 367.756673 267.793937 
L 387.108736 273.889348 
L 393.406677 267.88771 
z
" clip-path="url(#pc5fd12c749)" style="fill: #f7fbff"/>
    <path d="M 172.224504 262.130773 
L 161.471916 271.319285 
L 190.354214 237.939219 
z
" clip-path="url(#pc5fd12c749)" style="fill: #e7f0fa"/>
    <path d="M 348.511577 262.748642 
L 339.001124 271.620218 
L 358.307744 276.849142 
z
" clip-path="url(#pc5fd12c749)" style="fill: #f7fbff"/>
    <path d="M 286.633781 273.023848 
L 287.335492 272.385971 
L 268.315089 266.639674 
z
" clip-path="url(#pc5fd12c749)" style="fill: #f7fbff"/>
    <path d="M 319.824963 265.878769 
L 314.812914 270.493731 
L 334.022267 276.264614 
z
" clip-path="url(#pc5fd12c749)" style="fill: #f7fbff"/>
    <path d="M 306.477298 278.168944 
L 314.812914 270.493731 
L 295.725266 264.75941 
z
" clip-path="url(#pc5fd12c749)" style="fill: #f7fbff"/>
    <path d="M 334.022267 276.264614 
L 339.001124 271.620218 
L 319.824963 265.878769 
z
" clip-path="url(#pc5fd12c749)" style="fill: #f7fbff"/>
    <path d="M 112.576055 110.681641 
L 125.47474 104.290405 
L 98.367244 229.78802 
z
" clip-path="url(#pc5fd12c749)" style="fill: #1d6cb1"/>
    <path d="M 221.782897 263.00507 
L 190.354214 237.939219 
L 209.679062 273.602374 
z
" clip-path="url(#pc5fd12c749)" style="fill: #e7f0fa"/>
    <path d="M 295.725266 264.75941 
L 287.335492 272.385971 
L 306.477298 278.168944 
z
" clip-path="url(#pc5fd12c749)" style="fill: #f7fbff"/>
    <path d="M 112.576055 110.681641 
L 133.905833 204.416403 
L 146.351445 192.14758 
z
" clip-path="url(#pc5fd12c749)" style="fill: #3d8dc4"/>
    <path d="M 387.108736 273.889348 
L 412.835135 273.95132 
L 393.406677 267.88771 
z
" clip-path="url(#pc5fd12c749)" style="fill: #f7fbff"/>
    <path d="M 278.646796 280.28426 
L 286.633781 273.023848 
L 267.608929 267.273512 
z
" clip-path="url(#pc5fd12c749)" style="fill: #f7fbff"/>
    <path d="M 387.108736 273.889348 
L 367.756673 267.793937 
L 358.307744 276.849142 
z
" clip-path="url(#pc5fd12c749)" style="fill: #f6faff"/>
    <path d="M 267.608929 267.273512 
L 259.571425 274.487842 
L 278.646796 280.28426 
z
" clip-path="url(#pc5fd12c749)" style="fill: #f7fbff"/>
    <path d="M 85.690959 209.639917 
L 86.616342 219.246154 
L 68.373989 233.870181 
z
" clip-path="url(#pc5fd12c749)" style="fill: #abd0e6"/>
    <path d="M 143.728216 286.481976 
L 161.471916 271.319285 
L 142.861571 265.579741 
z
" clip-path="url(#pc5fd12c749)" style="fill: #f7fbff"/>
    <path d="M 103.952543 195.086564 
L 86.616342 219.246154 
L 85.690959 209.639917 
z
" clip-path="url(#pc5fd12c749)" style="fill: #8dc1dd"/>
    <path d="M 209.679062 273.602374 
L 228.550423 276.073459 
L 240.590496 265.501849 
z
" clip-path="url(#pc5fd12c749)" style="fill: #f4f9fe"/>
    <path d="M 305.780106 278.8109 
L 287.335492 272.385971 
L 286.633781 273.023848 
z
" clip-path="url(#pc5fd12c749)" style="fill: #f7fbff"/>
    <path d="M 334.022267 276.264614 
L 314.812914 270.493731 
L 306.477298 278.168944 
z
" clip-path="url(#pc5fd12c749)" style="fill: #f7fbff"/>
    <path d="M 339.001124 271.620218 
L 334.022267 276.264614 
L 358.307744 276.849142 
z
" clip-path="url(#pc5fd12c749)" style="fill: #f7fbff"/>
    <path d="M 190.354214 237.939219 
L 161.471916 271.319285 
L 180.200975 277.095441 
z
" clip-path="url(#pc5fd12c749)" style="fill: #e7f0fa"/>
    <path d="M 406.581868 280.022893 
L 412.835135 273.95132 
L 387.108736 273.889348 
z
" clip-path="url(#pc5fd12c749)" style="fill: #f7fbff"/>
    <path d="M 146.351445 192.14758 
L 125.47474 104.290405 
L 112.576055 110.681641 
z
" clip-path="url(#pc5fd12c749)" style="fill: #08509b"/>
    <path d="M 306.477298 278.168944 
L 287.335492 272.385971 
L 305.780106 278.8109 
z
" clip-path="url(#pc5fd12c749)" style="fill: #f7fbff"/>
    <path d="M 247.613603 285.220984 
L 259.571425 274.487842 
L 240.590496 265.501849 
z
" clip-path="url(#pc5fd12c749)" style="fill: #f5fafe"/>
    <path d="M 278.646796 280.28426 
L 305.780106 278.8109 
L 286.633781 273.023848 
z
" clip-path="url(#pc5fd12c749)" style="fill: #f7fbff"/>
    <path d="M 142.861571 265.579741 
L 125.019257 280.646075 
L 143.728216 286.481976 
z
" clip-path="url(#pc5fd12c749)" style="fill: #f7fbff"/>
    <path d="M 180.200975 277.095441 
L 161.471916 271.319285 
L 143.728216 286.481976 
z
" clip-path="url(#pc5fd12c749)" style="fill: #f7fbff"/>
    <path d="M 199.04989 282.908561 
L 209.679062 273.602374 
L 190.354214 237.939219 
z
" clip-path="url(#pc5fd12c749)" style="fill: #e7f0fa"/>
    <path d="M 377.721656 283.213359 
L 387.108736 273.889348 
L 358.307744 276.849142 
z
" clip-path="url(#pc5fd12c749)" style="fill: #f7fbff"/>
    <path d="M 240.590496 265.501849 
L 228.550423 276.073459 
L 247.613603 285.220984 
z
" clip-path="url(#pc5fd12c749)" style="fill: #f4f9fe"/>
    <path d="M 358.307744 276.849142 
L 334.022267 276.264614 
L 353.374234 280.643773 
z
" clip-path="url(#pc5fd12c749)" style="fill: #f6faff"/>
    <path d="M 228.550423 276.073459 
L 209.679062 273.602374 
L 199.04989 282.908561 
z
" clip-path="url(#pc5fd12c749)" style="fill: #f5fafe"/>
    <path d="M 306.477298 278.168944 
L 325.741673 283.988947 
L 334.022267 276.264614 
z
" clip-path="url(#pc5fd12c749)" style="fill: #f7fbff"/>
    <path d="M 190.354214 237.939219 
L 180.200975 277.095441 
L 199.04989 282.908561 
z
" clip-path="url(#pc5fd12c749)" style="fill: #e7f0fa"/>
    <path d="M 432.394394 279.744305 
L 412.835135 273.95132 
L 426.186776 285.854793 
z
" clip-path="url(#pc5fd12c749)" style="fill: #f7fbff"/>
    <path d="M 426.186776 285.854793 
L 412.835135 273.95132 
L 406.581868 280.022893 
z
" clip-path="url(#pc5fd12c749)" style="fill: #f7fbff"/>
    <path d="M 278.646796 280.28426 
L 259.571425 274.487842 
L 247.613603 285.220984 
z
" clip-path="url(#pc5fd12c749)" style="fill: #f7fbff"/>
    <path d="M 306.477298 278.168944 
L 305.780106 278.8109 
L 325.741673 283.988947 
z
" clip-path="url(#pc5fd12c749)" style="fill: #f7fbff"/>
    <path d="M 387.108736 273.889348 
L 397.268392 289.065759 
L 406.581868 280.022893 
z
" clip-path="url(#pc5fd12c749)" style="fill: #f7fbff"/>
    <path d="M 297.844454 286.117838 
L 305.780106 278.8109 
L 278.646796 280.28426 
z
" clip-path="url(#pc5fd12c749)" style="fill: #f7fbff"/>
    <path d="M 387.108736 273.889348 
L 377.721656 283.213359 
L 397.268392 289.065759 
z
" clip-path="url(#pc5fd12c749)" style="fill: #f7fbff"/>
    <path d="M 325.741673 283.988947 
L 305.780106 278.8109 
L 325.049073 284.635021 
z
" clip-path="url(#pc5fd12c749)" style="fill: #f7fbff"/>
    <path d="M 142.861571 265.579741 
L 152.755242 219.997419 
L 119.703033 109.14599 
z
" clip-path="url(#pc5fd12c749)" style="fill: #64a9d3"/>
    <path d="M 353.374234 280.643773 
L 372.810772 287.917475 
L 358.307744 276.849142 
z
" clip-path="url(#pc5fd12c749)" style="fill: #f6faff"/>
    <path d="M 334.022267 276.264614 
L 345.129799 289.846337 
L 353.374234 280.643773 
z
" clip-path="url(#pc5fd12c749)" style="fill: #f6faff"/>
    <path d="M 358.307744 276.849142 
L 372.810772 287.917475 
L 377.721656 283.213359 
z
" clip-path="url(#pc5fd12c749)" style="fill: #f7fbff"/>
    <path d="M 152.755242 219.997419 
L 133.905833 204.416403 
L 119.703033 109.14599 
z
" clip-path="url(#pc5fd12c749)" style="fill: #3b8bc2"/>
    <path d="M 334.022267 276.264614 
L 325.741673 283.988947 
L 345.129799 289.846337 
z
" clip-path="url(#pc5fd12c749)" style="fill: #f7fbff"/>
    <path d="M 426.186776 285.854793 
L 452.079005 285.574416 
L 432.394394 279.744305 
z
" clip-path="url(#pc5fd12c749)" style="fill: #f7fbff"/>
    <path d="M 199.04989 282.908561 
L 218.019814 288.759002 
L 228.550423 276.073459 
z
" clip-path="url(#pc5fd12c749)" style="fill: #f5fafe"/>
    <path d="M 325.049073 284.635021 
L 305.780106 278.8109 
L 317.165577 291.988933 
z
" clip-path="url(#pc5fd12c749)" style="fill: #f7fbff"/>
    <path d="M 143.728216 286.481976 
L 162.557522 292.355417 
L 180.200975 277.095441 
z
" clip-path="url(#pc5fd12c749)" style="fill: #f7fbff"/>
    <path d="M 247.613603 285.220984 
L 266.76376 291.086303 
L 278.646796 280.28426 
z
" clip-path="url(#pc5fd12c749)" style="fill: #f7fbff"/>
    <path d="M 317.165577 291.988933 
L 305.780106 278.8109 
L 297.844454 286.117838 
z
" clip-path="url(#pc5fd12c749)" style="fill: #f7fbff"/>
    <path d="M 199.04989 282.908561 
L 180.200975 277.095441 
L 181.508341 298.266762 
z
" clip-path="url(#pc5fd12c749)" style="fill: #f7fbff"/>
    <path d="M 119.703033 109.14599 
L 125.019257 280.646075 
L 142.861571 265.579741 
z
" clip-path="url(#pc5fd12c749)" style="fill: #8dc1dd"/>
    <path d="M 325.049073 284.635021 
L 344.441864 290.496569 
L 325.741673 283.988947 
z
" clip-path="url(#pc5fd12c749)" style="fill: #f7fbff"/>
    <path d="M 353.374234 280.643773 
L 345.129799 289.846337 
L 372.810772 287.917475 
z
" clip-path="url(#pc5fd12c749)" style="fill: #f6faff"/>
    <path d="M 228.550423 276.073459 
L 237.111917 294.647123 
L 247.613603 285.220984 
z
" clip-path="url(#pc5fd12c749)" style="fill: #f5fafe"/>
    <path d="M 416.941042 294.955859 
L 426.186776 285.854793 
L 406.581868 280.022893 
z
" clip-path="url(#pc5fd12c749)" style="fill: #f7fbff"/>
    <path d="M 445.917751 291.724194 
L 452.079005 285.574416 
L 426.186776 285.854793 
z
" clip-path="url(#pc5fd12c749)" style="fill: #f7fbff"/>
    <path d="M 278.646796 280.28426 
L 286.037414 296.989447 
L 297.844454 286.117838 
z
" clip-path="url(#pc5fd12c749)" style="fill: #f7fbff"/>
    <path d="M 218.019814 288.759002 
L 237.111917 294.647123 
L 228.550423 276.073459 
z
" clip-path="url(#pc5fd12c749)" style="fill: #f5fafe"/>
    <path d="M 406.581868 280.022893 
L 397.268392 289.065759 
L 416.941042 294.955859 
z
" clip-path="url(#pc5fd12c749)" style="fill: #f7fbff"/>
    <path d="M 325.741673 283.988947 
L 344.441864 290.496569 
L 345.129799 289.846337 
z
" clip-path="url(#pc5fd12c749)" style="fill: #f7fbff"/>
    <path d="M 377.721656 283.213359 
L 372.810772 287.917475 
L 392.392305 293.800168 
z
" clip-path="url(#pc5fd12c749)" style="fill: #f7fbff"/>
    <path d="M 397.268392 289.065759 
L 377.721656 283.213359 
L 392.392305 293.800168 
z
" clip-path="url(#pc5fd12c749)" style="fill: #f7fbff"/>
    <path d="M 317.165577 291.988933 
L 344.441864 290.496569 
L 325.049073 284.635021 
z
" clip-path="url(#pc5fd12c749)" style="fill: #f7fbff"/>
    <path d="M 180.200975 277.095441 
L 162.557522 292.355417 
L 181.508341 298.266762 
z
" clip-path="url(#pc5fd12c749)" style="fill: #f7fbff"/>
    <path d="M 278.646796 280.28426 
L 266.76376 291.086303 
L 286.037414 296.989447 
z
" clip-path="url(#pc5fd12c749)" style="fill: #f7fbff"/>
    <path d="M 247.613603 285.220984 
L 237.111917 294.647123 
L 266.76376 291.086303 
z
" clip-path="url(#pc5fd12c749)" style="fill: #f7fbff"/>
    <path d="M 119.703033 109.14599 
L 133.905833 204.416403 
L 112.576055 110.681641 
z
" clip-path="url(#pc5fd12c749)" style="fill: #084488"/>
    <path d="M 445.917751 291.724194 
L 426.186776 285.854793 
L 416.941042 294.955859 
z
" clip-path="url(#pc5fd12c749)" style="fill: #f7fbff"/>
    <path d="M 345.129799 289.846337 
L 364.64287 295.741475 
L 372.810772 287.917475 
z
" clip-path="url(#pc5fd12c749)" style="fill: #f7fbff"/>
    <path d="M 452.079005 285.574416 
L 465.776013 297.631459 
L 471.890175 291.442011 
z
" clip-path="url(#pc5fd12c749)" style="fill: #f7fbff"/>
    <path d="M 445.917751 291.724194 
L 465.776013 297.631459 
L 452.079005 285.574416 
z
" clip-path="url(#pc5fd12c749)" style="fill: #f7fbff"/>
    <path d="M 297.844454 286.117838 
L 286.037414 296.989447 
L 317.165577 291.988933 
z
" clip-path="url(#pc5fd12c749)" style="fill: #f7fbff"/>
    <path d="M 200.581851 304.216378 
L 218.019814 288.759002 
L 199.04989 282.908561 
z
" clip-path="url(#pc5fd12c749)" style="fill: #f7fbff"/>
    <path d="M 344.441864 290.496569 
L 364.64287 295.741475 
L 345.129799 289.846337 
z
" clip-path="url(#pc5fd12c749)" style="fill: #f7fbff"/>
    <path d="M 392.392305 293.800168 
L 372.810772 287.917475 
L 364.64287 295.741475 
z
" clip-path="url(#pc5fd12c749)" style="fill: #f7fbff"/>
    <path d="M 85.690959 209.639917 
L 119.703033 109.14599 
L 103.952543 195.086564 
z
" clip-path="url(#pc5fd12c749)" style="fill: #2171b5"/>
    <path d="M 112.576055 110.681641 
L 103.952543 195.086564 
L 119.703033 109.14599 
z
" clip-path="url(#pc5fd12c749)" style="fill: #083a7a"/>
    <path d="M 336.611361 297.897909 
L 344.441864 290.496569 
L 317.165577 291.988933 
z
" clip-path="url(#pc5fd12c749)" style="fill: #f7fbff"/>
    <path d="M 397.268392 289.065759 
L 392.392305 293.800168 
L 412.100304 299.720855 
z
" clip-path="url(#pc5fd12c749)" style="fill: #f7fbff"/>
    <path d="M 363.959675 296.395904 
L 364.64287 295.741475 
L 344.441864 290.496569 
z
" clip-path="url(#pc5fd12c749)" style="fill: #f7fbff"/>
    <path d="M 412.100304 299.720855 
L 416.941042 294.955859 
L 397.268392 289.065759 
z
" clip-path="url(#pc5fd12c749)" style="fill: #f7fbff"/>
    <path d="M 199.04989 282.908561 
L 181.508341 298.266762 
L 200.581851 304.216378 
z
" clip-path="url(#pc5fd12c749)" style="fill: #f7fbff"/>
    <path d="M 266.76376 291.086303 
L 237.111917 294.647123 
L 256.327382 300.573289 
z
" clip-path="url(#pc5fd12c749)" style="fill: #f7fbff"/>
    <path d="M 491.82913 297.347453 
L 471.890175 291.442011 
L 465.776013 297.631459 
z
" clip-path="url(#pc5fd12c749)" style="fill: #f7fbff"/>
    <path d="M 416.941042 294.955859 
L 436.740828 300.884024 
L 445.917751 291.724194 
z
" clip-path="url(#pc5fd12c749)" style="fill: #f7fbff"/>
    <path d="M 200.581851 304.216378 
L 237.111917 294.647123 
L 218.019814 288.759002 
z
" clip-path="url(#pc5fd12c749)" style="fill: #f7fbff"/>
    <path d="M 344.441864 290.496569 
L 356.183016 303.845133 
L 363.959675 296.395904 
z
" clip-path="url(#pc5fd12c749)" style="fill: #f7fbff"/>
    <path d="M 392.392305 293.800168 
L 364.64287 295.741475 
L 384.282099 301.674726 
z
" clip-path="url(#pc5fd12c749)" style="fill: #f7fbff"/>
    <path d="M 317.165577 291.988933 
L 286.037414 296.989447 
L 305.435762 302.930783 
z
" clip-path="url(#pc5fd12c749)" style="fill: #f7fbff"/>
    <path d="M 336.611361 297.897909 
L 356.183016 303.845133 
L 344.441864 290.496569 
z
" clip-path="url(#pc5fd12c749)" style="fill: #f7fbff"/>
    <path d="M 363.959675 296.395904 
L 383.60372 302.333394 
L 364.64287 295.741475 
z
" clip-path="url(#pc5fd12c749)" style="fill: #f7fbff"/>
    <path d="M 286.037414 296.989447 
L 266.76376 291.086303 
L 275.667409 306.537872 
z
" clip-path="url(#pc5fd12c749)" style="fill: #f7fbff"/>
    <path d="M 412.100304 299.720855 
L 392.392305 293.800168 
L 384.282099 301.674726 
z
" clip-path="url(#pc5fd12c749)" style="fill: #f7fbff"/>
    <path d="M 436.740828 300.884024 
L 416.941042 294.955859 
L 412.100304 299.720855 
z
" clip-path="url(#pc5fd12c749)" style="fill: #f7fbff"/>
    <path d="M 456.668984 306.850625 
L 465.776013 297.631459 
L 445.917751 291.724194 
z
" clip-path="url(#pc5fd12c749)" style="fill: #f7fbff"/>
    <path d="M 275.667409 306.537872 
L 266.76376 291.086303 
L 256.327382 300.573289 
z
" clip-path="url(#pc5fd12c749)" style="fill: #f7fbff"/>
    <path d="M 465.776013 297.631459 
L 485.762797 303.576956 
L 491.82913 297.347453 
z
" clip-path="url(#pc5fd12c749)" style="fill: #f7fbff"/>
    <path d="M 317.165577 291.988933 
L 324.96002 308.910682 
L 336.611361 297.897909 
z
" clip-path="url(#pc5fd12c749)" style="fill: #f7fbff"/>
    <path d="M 445.917751 291.724194 
L 436.740828 300.884024 
L 456.668984 306.850625 
z
" clip-path="url(#pc5fd12c749)" style="fill: #f7fbff"/>
    <path d="M 364.64287 295.741475 
L 383.60372 302.333394 
L 384.282099 301.674726 
z
" clip-path="url(#pc5fd12c749)" style="fill: #f7fbff"/>
    <path d="M 356.183016 303.845133 
L 383.60372 302.333394 
L 363.959675 296.395904 
z
" clip-path="url(#pc5fd12c749)" style="fill: #f7fbff"/>
    <path d="M 305.435762 302.930783 
L 324.96002 308.910682 
L 317.165577 291.988933 
z
" clip-path="url(#pc5fd12c749)" style="fill: #f7fbff"/>
    <path d="M 412.100304 299.720855 
L 431.935998 305.679904 
L 436.740828 300.884024 
z
" clip-path="url(#pc5fd12c749)" style="fill: #f7fbff"/>
    <path d="M 305.435762 302.930783 
L 286.037414 296.989447 
L 275.667409 306.537872 
z
" clip-path="url(#pc5fd12c749)" style="fill: #f7fbff"/>
    <path d="M 485.762797 303.576956 
L 465.776013 297.631459 
L 456.668984 306.850625 
z
" clip-path="url(#pc5fd12c749)" style="fill: #f7fbff"/>
    <path d="M 384.282099 301.674726 
L 404.048714 307.646462 
L 412.100304 299.720855 
z
" clip-path="url(#pc5fd12c749)" style="fill: #f7fbff"/>
    <path d="M 219.779248 310.204638 
L 237.111917 294.647123 
L 200.581851 304.216378 
z
" clip-path="url(#pc5fd12c749)" style="fill: #f7fbff"/>
    <path d="M 336.611361 297.897909 
L 324.96002 308.910682 
L 356.183016 303.845133 
z
" clip-path="url(#pc5fd12c749)" style="fill: #f7fbff"/>
    <path d="M 237.111917 294.647123 
L 239.101744 316.23192 
L 256.327382 300.573289 
z
" clip-path="url(#pc5fd12c749)" style="fill: #f7fbff"/>
    <path d="M 384.282099 301.674726 
L 383.60372 302.333394 
L 404.048714 307.646462 
z
" clip-path="url(#pc5fd12c749)" style="fill: #f7fbff"/>
    <path d="M 375.881769 309.830978 
L 383.60372 302.333394 
L 356.183016 303.845133 
z
" clip-path="url(#pc5fd12c749)" style="fill: #f7fbff"/>
    <path d="M 436.740828 300.884024 
L 431.935998 305.679904 
L 451.900634 311.677689 
z
" clip-path="url(#pc5fd12c749)" style="fill: #f7fbff"/>
    <path d="M 404.048714 307.646462 
L 383.60372 302.333394 
L 403.375228 308.30941 
z
" clip-path="url(#pc5fd12c749)" style="fill: #f7fbff"/>
    <path d="M 423.943958 313.657058 
L 431.935998 305.679904 
L 412.100304 299.720855 
z
" clip-path="url(#pc5fd12c749)" style="fill: #f7fbff"/>
    <path d="M 451.900634 311.677689 
L 456.668984 306.850625 
L 436.740828 300.884024 
z
" clip-path="url(#pc5fd12c749)" style="fill: #f7fbff"/>
    <path d="M 412.100304 299.720855 
L 404.048714 307.646462 
L 423.943958 313.657058 
z
" clip-path="url(#pc5fd12c749)" style="fill: #f7fbff"/>
    <path d="M 219.779248 310.204638 
L 239.101744 316.23192 
L 237.111917 294.647123 
z
" clip-path="url(#pc5fd12c749)" style="fill: #f7fbff"/>
    <path d="M 275.667409 306.537872 
L 295.133213 312.541245 
L 305.435762 302.930783 
z
" clip-path="url(#pc5fd12c749)" style="fill: #f7fbff"/>
    <path d="M 119.703033 109.14599 
L 101.191214 123.270104 
L 125.019257 280.646075 
z
" clip-path="url(#pc5fd12c749)" style="fill: #105ba4"/>
    <path d="M 476.726765 312.856035 
L 485.762797 303.576956 
L 456.668984 306.850625 
z
" clip-path="url(#pc5fd12c749)" style="fill: #f7fbff"/>
    <path d="M 256.327382 300.573289 
L 239.101744 316.23192 
L 275.667409 306.537872 
z
" clip-path="url(#pc5fd12c749)" style="fill: #f7fbff"/>
    <path d="M 305.435762 302.930783 
L 295.133213 312.541245 
L 324.96002 308.910682 
z
" clip-path="url(#pc5fd12c749)" style="fill: #f7fbff"/>
    <path d="M 403.375228 308.30941 
L 383.60372 302.333394 
L 395.708861 315.855822 
z
" clip-path="url(#pc5fd12c749)" style="fill: #f7fbff"/>
    <path d="M 356.183016 303.845133 
L 324.96002 308.910682 
L 344.611416 314.929521 
z
" clip-path="url(#pc5fd12c749)" style="fill: #f7fbff"/>
    <path d="M 395.708861 315.855822 
L 383.60372 302.333394 
L 375.881769 309.830978 
z
" clip-path="url(#pc5fd12c749)" style="fill: #f7fbff"/>
    <path d="M 423.275443 314.324328 
L 404.048714 307.646462 
L 403.375228 308.30941 
z
" clip-path="url(#pc5fd12c749)" style="fill: #f7fbff"/>
    <path d="M 451.900634 311.677689 
L 431.935998 305.679904 
L 423.943958 313.657058 
z
" clip-path="url(#pc5fd12c749)" style="fill: #f7fbff"/>
    <path d="M 476.726765 312.856035 
L 456.668984 306.850625 
L 451.900634 311.677689 
z
" clip-path="url(#pc5fd12c749)" style="fill: #f7fbff"/>
    <path d="M 101.191214 123.270104 
L 119.703033 109.14599 
L 85.690959 209.639917 
z
" clip-path="url(#pc5fd12c749)" style="fill: #08306b"/>
    <path d="M 375.881769 309.830978 
L 356.183016 303.845133 
L 364.391198 320.987682 
z
" clip-path="url(#pc5fd12c749)" style="fill: #f7fbff"/>
    <path d="M 423.943958 313.657058 
L 404.048714 307.646462 
L 423.275443 314.324328 
z
" clip-path="url(#pc5fd12c749)" style="fill: #f7fbff"/>
    <path d="M 395.708861 315.855822 
L 423.275443 314.324328 
L 403.375228 308.30941 
z
" clip-path="url(#pc5fd12c749)" style="fill: #f7fbff"/>
    <path d="M 364.391198 320.987682 
L 356.183016 303.845133 
L 344.611416 314.929521 
z
" clip-path="url(#pc5fd12c749)" style="fill: #f7fbff"/>
    <path d="M 295.133213 312.541245 
L 314.726025 318.583787 
L 324.96002 308.910682 
z
" clip-path="url(#pc5fd12c749)" style="fill: #f7fbff"/>
    <path d="M 451.900634 311.677689 
L 471.995471 317.71459 
L 476.726765 312.856035 
z
" clip-path="url(#pc5fd12c749)" style="fill: #f7fbff"/>
    <path d="M 423.943958 313.657058 
L 443.96909 319.706896 
L 451.900634 311.677689 
z
" clip-path="url(#pc5fd12c749)" style="fill: #f7fbff"/>
    <path d="M 275.667409 306.537872 
L 239.101744 316.23192 
L 258.550565 322.298607 
z
" clip-path="url(#pc5fd12c749)" style="fill: #f7fbff"/>
    <path d="M 278.126954 328.405086 
L 295.133213 312.541245 
L 275.667409 306.537872 
z
" clip-path="url(#pc5fd12c749)" style="fill: #f7fbff"/>
    <path d="M 423.275443 314.324328 
L 443.96909 319.706896 
L 423.943958 313.657058 
z
" clip-path="url(#pc5fd12c749)" style="fill: #f7fbff"/>
    <path d="M 324.96002 308.910682 
L 334.447092 324.665885 
L 344.611416 314.929521 
z
" clip-path="url(#pc5fd12c749)" style="fill: #f7fbff"/>
    <path d="M 415.665551 321.920046 
L 423.275443 314.324328 
L 395.708861 315.855822 
z
" clip-path="url(#pc5fd12c749)" style="fill: #f7fbff"/>
    <path d="M 324.96002 308.910682 
L 314.726025 318.583787 
L 334.447092 324.665885 
z
" clip-path="url(#pc5fd12c749)" style="fill: #f7fbff"/>
    <path d="M 384.300627 327.085552 
L 395.708861 315.855822 
L 375.881769 309.830978 
z
" clip-path="url(#pc5fd12c749)" style="fill: #f7fbff"/>
    <path d="M 443.305625 320.37853 
L 443.96909 319.706896 
L 423.275443 314.324328 
z
" clip-path="url(#pc5fd12c749)" style="fill: #f7fbff"/>
    <path d="M 451.900634 311.677689 
L 464.125387 325.796359 
L 471.995471 317.71459 
z
" clip-path="url(#pc5fd12c749)" style="fill: #f7fbff"/>
    <path d="M 443.96909 319.706896 
L 464.125387 325.796359 
L 451.900634 311.677689 
z
" clip-path="url(#pc5fd12c749)" style="fill: #f7fbff"/>
    <path d="M 258.550565 322.298607 
L 278.126954 328.405086 
L 275.667409 306.537872 
z
" clip-path="url(#pc5fd12c749)" style="fill: #f7fbff"/>
    <path d="M 375.881769 309.830978 
L 364.391198 320.987682 
L 384.300627 327.085552 
z
" clip-path="url(#pc5fd12c749)" style="fill: #f7fbff"/>
    <path d="M 344.611416 314.929521 
L 334.447092 324.665885 
L 364.391198 320.987682 
z
" clip-path="url(#pc5fd12c749)" style="fill: #f7fbff"/>
    <path d="M 443.305625 320.37853 
L 423.275443 314.324328 
L 435.753113 328.024038 
z
" clip-path="url(#pc5fd12c749)" style="fill: #f7fbff"/>
    <path d="M 435.753113 328.024038 
L 423.275443 314.324328 
L 415.665551 321.920046 
z
" clip-path="url(#pc5fd12c749)" style="fill: #f7fbff"/>
    <path d="M 415.665551 321.920046 
L 395.708861 315.855822 
L 384.300627 327.085552 
z
" clip-path="url(#pc5fd12c749)" style="fill: #f7fbff"/>
    <path d="M 297.83217 334.55175 
L 314.726025 318.583787 
L 295.133213 312.541245 
z
" clip-path="url(#pc5fd12c749)" style="fill: #f7fbff"/>
    <path d="M 464.125387 325.796359 
L 443.96909 319.706896 
L 443.305625 320.37853 
z
" clip-path="url(#pc5fd12c749)" style="fill: #f7fbff"/>
    <path d="M 464.125387 325.796359 
L 443.305625 320.37853 
L 463.467053 326.472401 
z
" clip-path="url(#pc5fd12c749)" style="fill: #f7fbff"/>
    <path d="M 463.467053 326.472401 
L 443.305625 320.37853 
L 435.753113 328.024038 
z
" clip-path="url(#pc5fd12c749)" style="fill: #f7fbff"/>
    <path d="M 297.83217 334.55175 
L 295.133213 312.541245 
L 278.126954 328.405086 
z
" clip-path="url(#pc5fd12c749)" style="fill: #f7fbff"/>
    <path d="M 334.447092 324.665885 
L 354.297679 330.787927 
L 364.391198 320.987682 
z
" clip-path="url(#pc5fd12c749)" style="fill: #f7fbff"/>
    <path d="M 334.447092 324.665885 
L 314.726025 318.583787 
L 297.83217 334.55175 
z
" clip-path="url(#pc5fd12c749)" style="fill: #f7fbff"/>
    <path d="M 384.300627 327.085552 
L 364.391198 320.987682 
L 354.297679 330.787927 
z
" clip-path="url(#pc5fd12c749)" style="fill: #f7fbff"/>
    <path d="M 404.340982 333.223522 
L 415.665551 321.920046 
L 384.300627 327.085552 
z
" clip-path="url(#pc5fd12c749)" style="fill: #f7fbff"/>
    <path d="M 435.753113 328.024038 
L 415.665551 321.920046 
L 404.340982 333.223522 
z
" clip-path="url(#pc5fd12c749)" style="fill: #f7fbff"/>
    <path d="M 455.972839 334.168191 
L 463.467053 326.472401 
L 435.753113 328.024038 
z
" clip-path="url(#pc5fd12c749)" style="fill: #f7fbff"/>
    <path d="M 384.300627 327.085552 
L 354.297679 330.787927 
L 374.279064 336.950308 
z
" clip-path="url(#pc5fd12c749)" style="fill: #f7fbff"/>
    <path d="M 354.297679 330.787927 
L 334.447092 324.665885 
L 317.667489 340.738998 
z
" clip-path="url(#pc5fd12c749)" style="fill: #f7fbff"/>
    <path d="M 317.667489 340.738998 
L 334.447092 324.665885 
L 297.83217 334.55175 
z
" clip-path="url(#pc5fd12c749)" style="fill: #f7fbff"/>
    <path d="M 404.340982 333.223522 
L 424.513558 339.401988 
L 435.753113 328.024038 
z
" clip-path="url(#pc5fd12c749)" style="fill: #f7fbff"/>
    <path d="M 394.392544 343.153428 
L 404.340982 333.223522 
L 384.300627 327.085552 
z
" clip-path="url(#pc5fd12c749)" style="fill: #f7fbff"/>
    <path d="M 384.300627 327.085552 
L 374.279064 336.950308 
L 394.392544 343.153428 
z
" clip-path="url(#pc5fd12c749)" style="fill: #f7fbff"/>
    <path d="M 435.753113 328.024038 
L 444.819669 345.621354 
L 455.972839 334.168191 
z
" clip-path="url(#pc5fd12c749)" style="fill: #f7fbff"/>
    <path d="M 435.753113 328.024038 
L 424.513558 339.401988 
L 444.819669 345.621354 
z
" clip-path="url(#pc5fd12c749)" style="fill: #f7fbff"/>
    <path d="M 424.513558 339.401988 
L 404.340982 333.223522 
L 394.392544 343.153428 
z
" clip-path="url(#pc5fd12c749)" style="fill: #f7fbff"/>
    <path d="M 317.667489 340.738998 
L 337.634204 346.967232 
L 354.297679 330.787927 
z
" clip-path="url(#pc5fd12c749)" style="fill: #f7fbff"/>
    <path d="M 357.733625 353.236861 
L 374.279064 336.950308 
L 354.297679 330.787927 
z
" clip-path="url(#pc5fd12c749)" style="fill: #f7fbff"/>
    <path d="M 354.297679 330.787927 
L 337.634204 346.967232 
L 357.733625 353.236861 
z
" clip-path="url(#pc5fd12c749)" style="fill: #f7fbff"/>
    <path d="M 394.392544 343.153428 
L 414.639435 349.397693 
L 424.513558 339.401988 
z
" clip-path="url(#pc5fd12c749)" style="fill: #f7fbff"/>
    <path d="M 394.392544 343.153428 
L 374.279064 336.950308 
L 377.96708 359.548299 
z
" clip-path="url(#pc5fd12c749)" style="fill: #f7fbff"/>
    <path d="M 435.021068 355.683513 
L 444.819669 345.621354 
L 424.513558 339.401988 
z
" clip-path="url(#pc5fd12c749)" style="fill: #f7fbff"/>
    <path d="M 424.513558 339.401988 
L 414.639435 349.397693 
L 435.021068 355.683513 
z
" clip-path="url(#pc5fd12c749)" style="fill: #f7fbff"/>
    <path d="M 377.96708 359.548299 
L 374.279064 336.950308 
L 357.733625 353.236861 
z
" clip-path="url(#pc5fd12c749)" style="fill: #f7fbff"/>
    <path d="M 377.96708 359.548299 
L 414.639435 349.397693 
L 394.392544 343.153428 
z
" clip-path="url(#pc5fd12c749)" style="fill: #f7fbff"/>
    <path d="M 435.021068 355.683513 
L 414.639435 349.397693 
L 398.335912 365.901966 
z
" clip-path="url(#pc5fd12c749)" style="fill: #f7fbff"/>
    <path d="M 377.96708 359.548299 
L 398.335912 365.901966 
L 414.639435 349.397693 
z
" clip-path="url(#pc5fd12c749)" style="fill: #f7fbff"/>
    <path d="M 418.841487 372.298286 
L 435.021068 355.683513 
L 398.335912 365.901966 
z
" clip-path="url(#pc5fd12c749)" style="fill: #f7fbff"/>
   </g>
  </g>
 </g>
 <defs>
  <clipPath id="pc5fd12c749">
   <rect x="-1.8" y="-79.2" width="554.4" height="554.4"/>
  </clipPath>
 </defs>
</svg>
