<?xml version="1.0" encoding="utf-8" standalone="no"?>
<!DOCTYPE svg PUBLIC "-//W3C//DTD SVG 1.1//EN"
  "http://www.w3.org/Graphics/SVG/1.1/DTD/svg11.dtd">
<svg xmlns:xlink="http://www.w3.org/1999/xlink" width="636.152612pt" height="597.6pt" viewBox="0 0 636.152612 597.6" xmlns="http://www.w3.org/2000/svg" version="1.1">
 <metadata>
  <rdf:RDF xmlns:dc="http://purl.org/dc/elements/1.1/" xmlns:cc="http://creativecommons.org/ns#" xmlns:rdf="http://www.w3.org/1999/02/22-rdf-syntax-ns#">
   <cc:Work>
    <dc:type rdf:resource="http://purl.org/dc/dcmitype/StillImage"/>
    <dc:date/>
    <dc:format>image/svg+xml</dc:format>
    <dc:creator>
     <cc:Agent>
      <dc:title>Matplotlib v3.6.2, https://matplotlib.org/</dc:title>
     </cc:Agent>
    </dc:creator>
   </cc:Work>
  </rdf:RDF>
 </metadata>
 <defs>
  <style type="text/css">*{stroke-linejoin: round; stroke-linecap: butt}</style>
 </defs>
 <g id="figure_1">
  <g id="patch_1">
   <path d="M 0 597.6 
L 636.152612 597.6 
L 636.152612 0 
L 0 0 
z
" style="fill: #ffffff"/>
  </g>
  <g id="patch_2">
   <path d="M 21.6 576 
L 576 576 
L 576 21.6 
L 21.6 21.6 
z
" style="fill: #ffffff"/>
  </g>
  <g id="pane3d_1">
   <g id="patch_3">
    <path d="M 41.312472 360.463759 
L 168.231956 259.540656 
L 164.248407 108.857576 
L 33.198586 203.642949 
" style="fill: #f2f2f2; opacity: 0.5; stroke: #f2f2f2; stroke-linejoin: miter"/>
   </g>
  </g>
  <g id="pane3d_2">
   <g id="patch_4">
    <path d="M 168.231956 259.540656 
L 573.729769 377.157828 
L 581.997262 219.353145 
L 164.248407 108.857576 
" style="fill: #e6e6e6; opacity: 0.5; stroke: #e6e6e6; stroke-linejoin: miter"/>
   </g>
  </g>
  <g id="pane3d_3">
   <g id="patch_5">
    <path d="M 41.312472 360.463759 
L 463.330816 493.019825 
L 573.729769 377.157828 
L 168.231956 259.540656 
" style="fill: #ececec; opacity: 0.5; stroke: #ececec; stroke-linejoin: miter"/>
   </g>
  </g>
  <g id="axis3d_1">
   <g id="line2d_1">
    <path d="M 41.312472 360.463759 
L 463.330816 493.019825 
" style="fill: none; stroke: #000000; stroke-width: 0.8; stroke-linecap: square"/>
   </g>
   <g id="text_1">
    <!-- Python version -->
    <g transform="translate(187.76057 443.267396) rotate(-342.562483) scale(0.12 -0.12)">
     <defs>
      <path id="DejaVuSans-50" d="M 1259 4147 
L 1259 2394 
L 2053 2394 
Q 2494 2394 2734 2622 
Q 2975 2850 2975 3272 
Q 2975 3691 2734 3919 
Q 2494 4147 2053 4147 
L 1259 4147 
z
M 628 4666 
L 2053 4666 
Q 2838 4666 3239 4311 
Q 3641 3956 3641 3272 
Q 3641 2581 3239 2228 
Q 2838 1875 2053 1875 
L 1259 1875 
L 1259 0 
L 628 0 
L 628 4666 
z
" transform="scale(0.015625)"/>
      <path id="DejaVuSans-79" d="M 2059 -325 
Q 1816 -950 1584 -1140 
Q 1353 -1331 966 -1331 
L 506 -1331 
L 506 -850 
L 844 -850 
Q 1081 -850 1212 -737 
Q 1344 -625 1503 -206 
L 1606 56 
L 191 3500 
L 800 3500 
L 1894 763 
L 2988 3500 
L 3597 3500 
L 2059 -325 
z
" transform="scale(0.015625)"/>
      <path id="DejaVuSans-74" d="M 1172 4494 
L 1172 3500 
L 2356 3500 
L 2356 3053 
L 1172 3053 
L 1172 1153 
Q 1172 725 1289 603 
Q 1406 481 1766 481 
L 2356 481 
L 2356 0 
L 1766 0 
Q 1100 0 847 248 
Q 594 497 594 1153 
L 594 3053 
L 172 3053 
L 172 3500 
L 594 3500 
L 594 4494 
L 1172 4494 
z
" transform="scale(0.015625)"/>
      <path id="DejaVuSans-68" d="M 3513 2113 
L 3513 0 
L 2938 0 
L 2938 2094 
Q 2938 2591 2744 2837 
Q 2550 3084 2163 3084 
Q 1697 3084 1428 2787 
Q 1159 2491 1159 1978 
L 1159 0 
L 581 0 
L 581 4863 
L 1159 4863 
L 1159 2956 
Q 1366 3272 1645 3428 
Q 1925 3584 2291 3584 
Q 2894 3584 3203 3211 
Q 3513 2838 3513 2113 
z
" transform="scale(0.015625)"/>
      <path id="DejaVuSans-6f" d="M 1959 3097 
Q 1497 3097 1228 2736 
Q 959 2375 959 1747 
Q 959 1119 1226 758 
Q 1494 397 1959 397 
Q 2419 397 2687 759 
Q 2956 1122 2956 1747 
Q 2956 2369 2687 2733 
Q 2419 3097 1959 3097 
z
M 1959 3584 
Q 2709 3584 3137 3096 
Q 3566 2609 3566 1747 
Q 3566 888 3137 398 
Q 2709 -91 1959 -91 
Q 1206 -91 779 398 
Q 353 888 353 1747 
Q 353 2609 779 3096 
Q 1206 3584 1959 3584 
z
" transform="scale(0.015625)"/>
      <path id="DejaVuSans-6e" d="M 3513 2113 
L 3513 0 
L 2938 0 
L 2938 2094 
Q 2938 2591 2744 2837 
Q 2550 3084 2163 3084 
Q 1697 3084 1428 2787 
Q 1159 2491 1159 1978 
L 1159 0 
L 581 0 
L 581 3500 
L 1159 3500 
L 1159 2956 
Q 1366 3272 1645 3428 
Q 1925 3584 2291 3584 
Q 2894 3584 3203 3211 
Q 3513 2838 3513 2113 
z
" transform="scale(0.015625)"/>
      <path id="DejaVuSans-20" transform="scale(0.015625)"/>
      <path id="DejaVuSans-76" d="M 191 3500 
L 800 3500 
L 1894 563 
L 2988 3500 
L 3597 3500 
L 2284 0 
L 1503 0 
L 191 3500 
z
" transform="scale(0.015625)"/>
      <path id="DejaVuSans-65" d="M 3597 1894 
L 3597 1613 
L 953 1613 
Q 991 1019 1311 708 
Q 1631 397 2203 397 
Q 2534 397 2845 478 
Q 3156 559 3463 722 
L 3463 178 
Q 3153 47 2828 -22 
Q 2503 -91 2169 -91 
Q 1331 -91 842 396 
Q 353 884 353 1716 
Q 353 2575 817 3079 
Q 1281 3584 2069 3584 
Q 2775 3584 3186 3129 
Q 3597 2675 3597 1894 
z
M 3022 2063 
Q 3016 2534 2758 2815 
Q 2500 3097 2075 3097 
Q 1594 3097 1305 2825 
Q 1016 2553 972 2059 
L 3022 2063 
z
" transform="scale(0.015625)"/>
      <path id="DejaVuSans-72" d="M 2631 2963 
Q 2534 3019 2420 3045 
Q 2306 3072 2169 3072 
Q 1681 3072 1420 2755 
Q 1159 2438 1159 1844 
L 1159 0 
L 581 0 
L 581 3500 
L 1159 3500 
L 1159 2956 
Q 1341 3275 1631 3429 
Q 1922 3584 2338 3584 
Q 2397 3584 2469 3576 
Q 2541 3569 2628 3553 
L 2631 2963 
z
" transform="scale(0.015625)"/>
      <path id="DejaVuSans-73" d="M 2834 3397 
L 2834 2853 
Q 2591 2978 2328 3040 
Q 2066 3103 1784 3103 
Q 1356 3103 1142 2972 
Q 928 2841 928 2578 
Q 928 2378 1081 2264 
Q 1234 2150 1697 2047 
L 1894 2003 
Q 2506 1872 2764 1633 
Q 3022 1394 3022 966 
Q 3022 478 2636 193 
Q 2250 -91 1575 -91 
Q 1294 -91 989 -36 
Q 684 19 347 128 
L 347 722 
Q 666 556 975 473 
Q 1284 391 1588 391 
Q 1994 391 2212 530 
Q 2431 669 2431 922 
Q 2431 1156 2273 1281 
Q 2116 1406 1581 1522 
L 1381 1569 
Q 847 1681 609 1914 
Q 372 2147 372 2553 
Q 372 3047 722 3315 
Q 1072 3584 1716 3584 
Q 2034 3584 2315 3537 
Q 2597 3491 2834 3397 
z
" transform="scale(0.015625)"/>
      <path id="DejaVuSans-69" d="M 603 3500 
L 1178 3500 
L 1178 0 
L 603 0 
L 603 3500 
z
M 603 4863 
L 1178 4863 
L 1178 4134 
L 603 4134 
L 603 4863 
z
" transform="scale(0.015625)"/>
     </defs>
     <use xlink:href="#DejaVuSans-50"/>
     <use xlink:href="#DejaVuSans-79" x="60.302734"/>
     <use xlink:href="#DejaVuSans-74" x="119.482422"/>
     <use xlink:href="#DejaVuSans-68" x="158.691406"/>
     <use xlink:href="#DejaVuSans-6f" x="222.070312"/>
     <use xlink:href="#DejaVuSans-6e" x="283.251953"/>
     <use xlink:href="#DejaVuSans-20" x="346.630859"/>
     <use xlink:href="#DejaVuSans-76" x="378.417969"/>
     <use xlink:href="#DejaVuSans-65" x="437.597656"/>
     <use xlink:href="#DejaVuSans-72" x="499.121094"/>
     <use xlink:href="#DejaVuSans-73" x="540.234375"/>
     <use xlink:href="#DejaVuSans-69" x="592.333984"/>
     <use xlink:href="#DejaVuSans-6f" x="620.117188"/>
     <use xlink:href="#DejaVuSans-6e" x="681.298828"/>
    </g>
   </g>
   <g id="Line3DCollection_1">
    <path d="M 66.435183 368.354809 
L 192.464986 266.569598 
L 189.166665 115.448515 
" style="fill: none; stroke: #b0b0b0; stroke-width: 0.8"/>
    <path d="M 84.706233 374.09375 
L 210.08151 271.67938 
L 207.285061 120.240874 
" style="fill: none; stroke: #b0b0b0; stroke-width: 0.8"/>
    <path d="M 103.093693 379.869256 
L 227.803915 276.819875 
L 225.515529 125.062876 
" style="fill: none; stroke: #b0b0b0; stroke-width: 0.8"/>
    <path d="M 121.598681 385.681677 
L 245.633159 281.991358 
L 243.859114 129.914798 
" style="fill: none; stroke: #b0b0b0; stroke-width: 0.8"/>
    <path d="M 140.222327 391.531369 
L 263.570211 287.194112 
L 262.31687 134.796919 
" style="fill: none; stroke: #b0b0b0; stroke-width: 0.8"/>
    <path d="M 158.965775 397.418691 
L 281.616052 292.428421 
L 280.889868 139.709521 
" style="fill: none; stroke: #b0b0b0; stroke-width: 0.8"/>
    <path d="M 177.830185 403.344007 
L 299.771673 297.694572 
L 299.57919 144.652891 
" style="fill: none; stroke: #b0b0b0; stroke-width: 0.8"/>
    <path d="M 196.816732 409.307686 
L 318.038081 302.992858 
L 318.385931 149.627319 
" style="fill: none; stroke: #b0b0b0; stroke-width: 0.8"/>
    <path d="M 215.926607 415.310102 
L 336.416293 308.323573 
L 337.311203 154.633099 
" style="fill: none; stroke: #b0b0b0; stroke-width: 0.8"/>
    <path d="M 235.161014 421.351634 
L 354.907337 313.687016 
L 356.356128 159.670527 
" style="fill: none; stroke: #b0b0b0; stroke-width: 0.8"/>
    <path d="M 254.521174 427.432665 
L 373.512257 319.083489 
L 375.521847 164.739905 
" style="fill: none; stroke: #b0b0b0; stroke-width: 0.8"/>
    <path d="M 274.008326 433.553584 
L 392.232106 324.513298 
L 394.809511 169.841538 
" style="fill: none; stroke: #b0b0b0; stroke-width: 0.8"/>
    <path d="M 293.623723 439.714785 
L 411.067955 329.976754 
L 414.220288 174.975735 
" style="fill: none; stroke: #b0b0b0; stroke-width: 0.8"/>
    <path d="M 313.368635 445.916667 
L 430.020884 335.474169 
L 433.75536 180.142808 
" style="fill: none; stroke: #b0b0b0; stroke-width: 0.8"/>
    <path d="M 333.244348 452.159634 
L 449.091988 341.005862 
L 453.415926 185.343075 
" style="fill: none; stroke: #b0b0b0; stroke-width: 0.8"/>
    <path d="M 353.252167 458.444095 
L 468.282376 346.572154 
L 473.203197 190.576855 
" style="fill: none; stroke: #b0b0b0; stroke-width: 0.8"/>
    <path d="M 373.393414 464.770465 
L 487.59317 352.17337 
L 493.118405 195.844475 
" style="fill: none; stroke: #b0b0b0; stroke-width: 0.8"/>
    <path d="M 393.669428 471.139166 
L 507.025508 357.809841 
L 513.162792 201.146264 
" style="fill: none; stroke: #b0b0b0; stroke-width: 0.8"/>
    <path d="M 414.081565 477.550623 
L 526.58054 363.4819 
L 533.33762 206.482554 
" style="fill: none; stroke: #b0b0b0; stroke-width: 0.8"/>
    <path d="M 434.631201 484.005269 
L 546.259433 369.189886 
L 553.644166 211.853684 
" style="fill: none; stroke: #b0b0b0; stroke-width: 0.8"/>
   </g>
   <g id="xtick_1">
    <g id="line2d_2">
     <path d="M 67.503086 367.492341 
L 64.296315 370.082219 
" style="fill: none; stroke: #000000; stroke-width: 0.8; stroke-linecap: square"/>
    </g>
    <g id="text_2">
     <!-- 2.0 -->
     <g transform="translate(53.443759 386.338624) scale(0.1 -0.1)">
      <defs>
       <path id="DejaVuSans-32" d="M 1228 531 
L 3431 531 
L 3431 0 
L 469 0 
L 469 531 
Q 828 903 1448 1529 
Q 2069 2156 2228 2338 
Q 2531 2678 2651 2914 
Q 2772 3150 2772 3378 
Q 2772 3750 2511 3984 
Q 2250 4219 1831 4219 
Q 1534 4219 1204 4116 
Q 875 4013 500 3803 
L 500 4441 
Q 881 4594 1212 4672 
Q 1544 4750 1819 4750 
Q 2544 4750 2975 4387 
Q 3406 4025 3406 3419 
Q 3406 3131 3298 2873 
Q 3191 2616 2906 2266 
Q 2828 2175 2409 1742 
Q 1991 1309 1228 531 
z
" transform="scale(0.015625)"/>
       <path id="DejaVuSans-2e" d="M 684 794 
L 1344 794 
L 1344 0 
L 684 0 
L 684 794 
z
" transform="scale(0.015625)"/>
       <path id="DejaVuSans-30" d="M 2034 4250 
Q 1547 4250 1301 3770 
Q 1056 3291 1056 2328 
Q 1056 1369 1301 889 
Q 1547 409 2034 409 
Q 2525 409 2770 889 
Q 3016 1369 3016 2328 
Q 3016 3291 2770 3770 
Q 2525 4250 2034 4250 
z
M 2034 4750 
Q 2819 4750 3233 4129 
Q 3647 3509 3647 2328 
Q 3647 1150 3233 529 
Q 2819 -91 2034 -91 
Q 1250 -91 836 529 
Q 422 1150 422 2328 
Q 422 3509 836 4129 
Q 1250 4750 2034 4750 
z
" transform="scale(0.015625)"/>
      </defs>
      <use xlink:href="#DejaVuSans-32"/>
      <use xlink:href="#DejaVuSans-2e" x="63.623047"/>
      <use xlink:href="#DejaVuSans-30" x="95.410156"/>
     </g>
    </g>
   </g>
   <g id="xtick_2">
    <g id="line2d_3">
     <path d="M 85.768778 373.225797 
L 82.578086 375.832154 
" style="fill: none; stroke: #000000; stroke-width: 0.8; stroke-linecap: square"/>
    </g>
    <g id="text_3">
     <!-- 2.1 -->
     <g transform="translate(71.720595 392.117434) scale(0.1 -0.1)">
      <defs>
       <path id="DejaVuSans-31" d="M 794 531 
L 1825 531 
L 1825 4091 
L 703 3866 
L 703 4441 
L 1819 4666 
L 2450 4666 
L 2450 531 
L 3481 531 
L 3481 0 
L 794 0 
L 794 531 
z
" transform="scale(0.015625)"/>
      </defs>
      <use xlink:href="#DejaVuSans-32"/>
      <use xlink:href="#DejaVuSans-2e" x="63.623047"/>
      <use xlink:href="#DejaVuSans-31" x="95.410156"/>
     </g>
    </g>
   </g>
   <g id="xtick_3">
    <g id="line2d_4">
     <path d="M 104.150791 378.995765 
L 100.976448 381.618759 
" style="fill: none; stroke: #000000; stroke-width: 0.8; stroke-linecap: square"/>
    </g>
    <g id="text_4">
     <!-- 2.2 -->
     <g transform="translate(90.114018 397.933107) scale(0.1 -0.1)">
      <use xlink:href="#DejaVuSans-32"/>
      <use xlink:href="#DejaVuSans-2e" x="63.623047"/>
      <use xlink:href="#DejaVuSans-32" x="95.410156"/>
     </g>
    </g>
   </g>
   <g id="xtick_4">
    <g id="line2d_5">
     <path d="M 122.65024 384.802596 
L 119.49252 387.442386 
" style="fill: none; stroke: #000000; stroke-width: 0.8; stroke-linecap: square"/>
    </g>
    <g id="text_5">
     <!-- 2.3 -->
     <g transform="translate(108.625148 403.785997) scale(0.1 -0.1)">
      <defs>
       <path id="DejaVuSans-33" d="M 2597 2516 
Q 3050 2419 3304 2112 
Q 3559 1806 3559 1356 
Q 3559 666 3084 287 
Q 2609 -91 1734 -91 
Q 1441 -91 1130 -33 
Q 819 25 488 141 
L 488 750 
Q 750 597 1062 519 
Q 1375 441 1716 441 
Q 2309 441 2620 675 
Q 2931 909 2931 1356 
Q 2931 1769 2642 2001 
Q 2353 2234 1838 2234 
L 1294 2234 
L 1294 2753 
L 1863 2753 
Q 2328 2753 2575 2939 
Q 2822 3125 2822 3475 
Q 2822 3834 2567 4026 
Q 2313 4219 1838 4219 
Q 1578 4219 1281 4162 
Q 984 4106 628 3988 
L 628 4550 
Q 988 4650 1302 4700 
Q 1616 4750 1894 4750 
Q 2613 4750 3031 4423 
Q 3450 4097 3450 3541 
Q 3450 3153 3228 2886 
Q 3006 2619 2597 2516 
z
" transform="scale(0.015625)"/>
      </defs>
      <use xlink:href="#DejaVuSans-32"/>
      <use xlink:href="#DejaVuSans-2e" x="63.623047"/>
      <use xlink:href="#DejaVuSans-33" x="95.410156"/>
     </g>
    </g>
   </g>
   <g id="xtick_5">
    <g id="line2d_6">
     <path d="M 141.268253 390.646643 
L 138.127436 393.303391 
" style="fill: none; stroke: #000000; stroke-width: 0.8; stroke-linecap: square"/>
    </g>
    <g id="text_6">
     <!-- 2.4 -->
     <g transform="translate(127.255118 409.676462) scale(0.1 -0.1)">
      <defs>
       <path id="DejaVuSans-34" d="M 2419 4116 
L 825 1625 
L 2419 1625 
L 2419 4116 
z
M 2253 4666 
L 3047 4666 
L 3047 1625 
L 3713 1625 
L 3713 1100 
L 3047 1100 
L 3047 0 
L 2419 0 
L 2419 1100 
L 313 1100 
L 313 1709 
L 2253 4666 
z
" transform="scale(0.015625)"/>
      </defs>
      <use xlink:href="#DejaVuSans-32"/>
      <use xlink:href="#DejaVuSans-2e" x="63.623047"/>
      <use xlink:href="#DejaVuSans-34" x="95.410156"/>
     </g>
    </g>
   </g>
   <g id="xtick_6">
    <g id="line2d_7">
     <path d="M 160.005975 396.528265 
L 156.882344 399.202135 
" style="fill: none; stroke: #000000; stroke-width: 0.8; stroke-linecap: square"/>
    </g>
    <g id="text_7">
     <!-- 2.5 -->
     <g transform="translate(146.005076 415.604865) scale(0.1 -0.1)">
      <defs>
       <path id="DejaVuSans-35" d="M 691 4666 
L 3169 4666 
L 3169 4134 
L 1269 4134 
L 1269 2991 
Q 1406 3038 1543 3061 
Q 1681 3084 1819 3084 
Q 2600 3084 3056 2656 
Q 3513 2228 3513 1497 
Q 3513 744 3044 326 
Q 2575 -91 1722 -91 
Q 1428 -91 1123 -41 
Q 819 9 494 109 
L 494 744 
Q 775 591 1075 516 
Q 1375 441 1709 441 
Q 2250 441 2565 725 
Q 2881 1009 2881 1497 
Q 2881 1984 2565 2268 
Q 2250 2553 1709 2553 
Q 1456 2553 1204 2497 
Q 953 2441 691 2322 
L 691 4666 
z
" transform="scale(0.015625)"/>
      </defs>
      <use xlink:href="#DejaVuSans-32"/>
      <use xlink:href="#DejaVuSans-2e" x="63.623047"/>
      <use xlink:href="#DejaVuSans-35" x="95.410156"/>
     </g>
    </g>
   </g>
   <g id="xtick_7">
    <g id="line2d_8">
     <path d="M 178.864563 402.447827 
L 175.758405 405.138985 
" style="fill: none; stroke: #000000; stroke-width: 0.8; stroke-linecap: square"/>
    </g>
    <g id="text_8">
     <!-- 2.6 -->
     <g transform="translate(164.876185 421.571574) scale(0.1 -0.1)">
      <defs>
       <path id="DejaVuSans-36" d="M 2113 2584 
Q 1688 2584 1439 2293 
Q 1191 2003 1191 1497 
Q 1191 994 1439 701 
Q 1688 409 2113 409 
Q 2538 409 2786 701 
Q 3034 994 3034 1497 
Q 3034 2003 2786 2293 
Q 2538 2584 2113 2584 
z
M 3366 4563 
L 3366 3988 
Q 3128 4100 2886 4159 
Q 2644 4219 2406 4219 
Q 1781 4219 1451 3797 
Q 1122 3375 1075 2522 
Q 1259 2794 1537 2939 
Q 1816 3084 2150 3084 
Q 2853 3084 3261 2657 
Q 3669 2231 3669 1497 
Q 3669 778 3244 343 
Q 2819 -91 2113 -91 
Q 1303 -91 875 529 
Q 447 1150 447 2328 
Q 447 3434 972 4092 
Q 1497 4750 2381 4750 
Q 2619 4750 2861 4703 
Q 3103 4656 3366 4563 
z
" transform="scale(0.015625)"/>
      </defs>
      <use xlink:href="#DejaVuSans-32"/>
      <use xlink:href="#DejaVuSans-2e" x="63.623047"/>
      <use xlink:href="#DejaVuSans-36" x="95.410156"/>
     </g>
    </g>
   </g>
   <g id="xtick_8">
    <g id="line2d_9">
     <path d="M 197.845191 408.405696 
L 194.756799 411.11431 
" style="fill: none; stroke: #000000; stroke-width: 0.8; stroke-linecap: square"/>
    </g>
    <g id="text_9">
     <!-- 2.7 -->
     <g transform="translate(183.869624 427.576961) scale(0.1 -0.1)">
      <defs>
       <path id="DejaVuSans-37" d="M 525 4666 
L 3525 4666 
L 3525 4397 
L 1831 0 
L 1172 0 
L 2766 4134 
L 525 4134 
L 525 4666 
z
" transform="scale(0.015625)"/>
      </defs>
      <use xlink:href="#DejaVuSans-32"/>
      <use xlink:href="#DejaVuSans-2e" x="63.623047"/>
      <use xlink:href="#DejaVuSans-37" x="95.410156"/>
     </g>
    </g>
   </g>
   <g id="xtick_9">
    <g id="line2d_10">
     <path d="M 216.949047 414.402245 
L 213.878717 417.128486 
" style="fill: none; stroke: #000000; stroke-width: 0.8; stroke-linecap: square"/>
    </g>
    <g id="text_10">
     <!-- 3.0 -->
     <g transform="translate(202.986584 433.621404) scale(0.1 -0.1)">
      <use xlink:href="#DejaVuSans-33"/>
      <use xlink:href="#DejaVuSans-2e" x="63.623047"/>
      <use xlink:href="#DejaVuSans-30" x="95.410156"/>
     </g>
    </g>
   </g>
   <g id="xtick_10">
    <g id="line2d_11">
     <path d="M 236.177336 420.437853 
L 233.12537 423.181893 
" style="fill: none; stroke: #000000; stroke-width: 0.8; stroke-linecap: square"/>
    </g>
    <g id="text_11">
     <!-- 3.1 -->
     <g transform="translate(222.228276 439.705285) scale(0.1 -0.1)">
      <use xlink:href="#DejaVuSans-33"/>
      <use xlink:href="#DejaVuSans-2e" x="63.623047"/>
      <use xlink:href="#DejaVuSans-31" x="95.410156"/>
     </g>
    </g>
   </g>
   <g id="xtick_11">
    <g id="line2d_12">
     <path d="M 255.531276 426.512902 
L 252.49798 429.274916 
" style="fill: none; stroke: #000000; stroke-width: 0.8; stroke-linecap: square"/>
    </g>
    <g id="text_12">
     <!-- 3.2 -->
     <g transform="translate(241.595924 445.828991) scale(0.1 -0.1)">
      <use xlink:href="#DejaVuSans-33"/>
      <use xlink:href="#DejaVuSans-2e" x="63.623047"/>
      <use xlink:href="#DejaVuSans-32" x="95.410156"/>
     </g>
    </g>
   </g>
   <g id="xtick_12">
    <g id="line2d_13">
     <path d="M 275.012104 432.627779 
L 271.997789 435.407945 
" style="fill: none; stroke: #000000; stroke-width: 0.8; stroke-linecap: square"/>
    </g>
    <g id="text_13">
     <!-- 3.3 -->
     <g transform="translate(261.090769 451.992914) scale(0.1 -0.1)">
      <use xlink:href="#DejaVuSans-33"/>
      <use xlink:href="#DejaVuSans-2e" x="63.623047"/>
      <use xlink:href="#DejaVuSans-33" x="95.410156"/>
     </g>
    </g>
   </g>
   <g id="xtick_13">
    <g id="line2d_14">
     <path d="M 294.621071 438.782879 
L 291.626054 441.581376 
" style="fill: none; stroke: #000000; stroke-width: 0.8; stroke-linecap: square"/>
    </g>
    <g id="text_14">
     <!-- 3.4 -->
     <g transform="translate(280.714068 458.197452) scale(0.1 -0.1)">
      <use xlink:href="#DejaVuSans-33"/>
      <use xlink:href="#DejaVuSans-2e" x="63.623047"/>
      <use xlink:href="#DejaVuSans-34" x="95.410156"/>
     </g>
    </g>
   </g>
   <g id="xtick_14">
    <g id="line2d_15">
     <path d="M 314.359447 444.978599 
L 311.384047 447.795609 
" style="fill: none; stroke: #000000; stroke-width: 0.8; stroke-linecap: square"/>
    </g>
    <g id="text_15">
     <!-- 3.5 -->
     <g transform="translate(300.467095 464.443007) scale(0.1 -0.1)">
      <use xlink:href="#DejaVuSans-33"/>
      <use xlink:href="#DejaVuSans-2e" x="63.623047"/>
      <use xlink:href="#DejaVuSans-35" x="95.410156"/>
     </g>
    </g>
   </g>
   <g id="xtick_15">
    <g id="line2d_16">
     <path d="M 334.228515 451.215342 
L 331.273061 454.051049 
" style="fill: none; stroke: #000000; stroke-width: 0.8; stroke-linecap: square"/>
    </g>
    <g id="text_16">
     <!-- 3.6 -->
     <g transform="translate(320.351141 470.729989) scale(0.1 -0.1)">
      <use xlink:href="#DejaVuSans-33"/>
      <use xlink:href="#DejaVuSans-2e" x="63.623047"/>
      <use xlink:href="#DejaVuSans-36" x="95.410156"/>
     </g>
    </g>
   </g>
   <g id="xtick_16">
    <g id="line2d_17">
     <path d="M 354.22958 457.493518 
L 351.294401 460.348109 
" style="fill: none; stroke: #000000; stroke-width: 0.8; stroke-linecap: square"/>
    </g>
    <g id="text_17">
     <!-- 3.7 -->
     <g transform="translate(340.367513 477.058809) scale(0.1 -0.1)">
      <use xlink:href="#DejaVuSans-33"/>
      <use xlink:href="#DejaVuSans-2e" x="63.623047"/>
      <use xlink:href="#DejaVuSans-37" x="95.410156"/>
     </g>
    </g>
   </g>
   <g id="xtick_17">
    <g id="line2d_18">
     <path d="M 374.363959 463.813541 
L 371.449393 466.687204 
" style="fill: none; stroke: #000000; stroke-width: 0.8; stroke-linecap: square"/>
    </g>
    <g id="text_18">
     <!-- 3.8 -->
     <g transform="translate(360.517536 483.429888) scale(0.1 -0.1)">
      <defs>
       <path id="DejaVuSans-38" d="M 2034 2216 
Q 1584 2216 1326 1975 
Q 1069 1734 1069 1313 
Q 1069 891 1326 650 
Q 1584 409 2034 409 
Q 2484 409 2743 651 
Q 3003 894 3003 1313 
Q 3003 1734 2745 1975 
Q 2488 2216 2034 2216 
z
M 1403 2484 
Q 997 2584 770 2862 
Q 544 3141 544 3541 
Q 544 4100 942 4425 
Q 1341 4750 2034 4750 
Q 2731 4750 3128 4425 
Q 3525 4100 3525 3541 
Q 3525 3141 3298 2862 
Q 3072 2584 2669 2484 
Q 3125 2378 3379 2068 
Q 3634 1759 3634 1313 
Q 3634 634 3220 271 
Q 2806 -91 2034 -91 
Q 1263 -91 848 271 
Q 434 634 434 1313 
Q 434 1759 690 2068 
Q 947 2378 1403 2484 
z
M 1172 3481 
Q 1172 3119 1398 2916 
Q 1625 2713 2034 2713 
Q 2441 2713 2670 2916 
Q 2900 3119 2900 3481 
Q 2900 3844 2670 4047 
Q 2441 4250 2034 4250 
Q 1625 4250 1398 4047 
Q 1172 3844 1172 3481 
z
" transform="scale(0.015625)"/>
      </defs>
      <use xlink:href="#DejaVuSans-33"/>
      <use xlink:href="#DejaVuSans-2e" x="63.623047"/>
      <use xlink:href="#DejaVuSans-38" x="95.410156"/>
     </g>
    </g>
   </g>
   <g id="xtick_18">
    <g id="line2d_19">
     <path d="M 394.632991 470.17583 
L 391.73938 473.068758 
" style="fill: none; stroke: #000000; stroke-width: 0.8; stroke-linecap: square"/>
    </g>
    <g id="text_19">
     <!-- 3.9 -->
     <g transform="translate(380.802555 489.84365) scale(0.1 -0.1)">
      <defs>
       <path id="DejaVuSans-39" d="M 703 97 
L 703 672 
Q 941 559 1184 500 
Q 1428 441 1663 441 
Q 2288 441 2617 861 
Q 2947 1281 2994 2138 
Q 2813 1869 2534 1725 
Q 2256 1581 1919 1581 
Q 1219 1581 811 2004 
Q 403 2428 403 3163 
Q 403 3881 828 4315 
Q 1253 4750 1959 4750 
Q 2769 4750 3195 4129 
Q 3622 3509 3622 2328 
Q 3622 1225 3098 567 
Q 2575 -91 1691 -91 
Q 1453 -91 1209 -44 
Q 966 3 703 97 
z
M 1959 2075 
Q 2384 2075 2632 2365 
Q 2881 2656 2881 3163 
Q 2881 3666 2632 3958 
Q 2384 4250 1959 4250 
Q 1534 4250 1286 3958 
Q 1038 3666 1038 3163 
Q 1038 2656 1286 2365 
Q 1534 2075 1959 2075 
z
" transform="scale(0.015625)"/>
      </defs>
      <use xlink:href="#DejaVuSans-33"/>
      <use xlink:href="#DejaVuSans-2e" x="63.623047"/>
      <use xlink:href="#DejaVuSans-39" x="95.410156"/>
     </g>
    </g>
   </g>
   <g id="xtick_19">
    <g id="line2d_20">
     <path d="M 415.038032 476.58081 
L 412.165722 479.493198 
" style="fill: none; stroke: #000000; stroke-width: 0.8; stroke-linecap: square"/>
    </g>
    <g id="text_20">
     <!-- 3.10 -->
     <g transform="translate(398.042679 496.300526) scale(0.1 -0.1)">
      <use xlink:href="#DejaVuSans-33"/>
      <use xlink:href="#DejaVuSans-2e" x="63.623047"/>
      <use xlink:href="#DejaVuSans-31" x="95.410156"/>
      <use xlink:href="#DejaVuSans-30" x="159.033203"/>
     </g>
    </g>
   </g>
   <g id="xtick_20">
    <g id="line2d_21">
     <path d="M 435.580454 483.028914 
L 432.7298 485.960958 
" style="fill: none; stroke: #000000; stroke-width: 0.8; stroke-linecap: square"/>
    </g>
    <g id="text_21">
     <!-- 3.11 -->
     <g transform="translate(418.60179 502.80095) scale(0.1 -0.1)">
      <use xlink:href="#DejaVuSans-33"/>
      <use xlink:href="#DejaVuSans-2e" x="63.623047"/>
      <use xlink:href="#DejaVuSans-31" x="95.410156"/>
      <use xlink:href="#DejaVuSans-31" x="159.033203"/>
     </g>
    </g>
   </g>
  </g>
  <g id="axis3d_2">
   <g id="line2d_22">
    <path d="M 573.729769 377.157828 
L 463.330816 493.019825 
" style="fill: none; stroke: #000000; stroke-width: 0.8; stroke-linecap: square"/>
   </g>
   <g id="text_22">
    <!-- Release date -->
    <g transform="translate(533.742058 488.90359) rotate(-46.383131) scale(0.12 -0.12)">
     <defs>
      <path id="DejaVuSans-52" d="M 2841 2188 
Q 3044 2119 3236 1894 
Q 3428 1669 3622 1275 
L 4263 0 
L 3584 0 
L 2988 1197 
Q 2756 1666 2539 1819 
Q 2322 1972 1947 1972 
L 1259 1972 
L 1259 0 
L 628 0 
L 628 4666 
L 2053 4666 
Q 2853 4666 3247 4331 
Q 3641 3997 3641 3322 
Q 3641 2881 3436 2590 
Q 3231 2300 2841 2188 
z
M 1259 4147 
L 1259 2491 
L 2053 2491 
Q 2509 2491 2742 2702 
Q 2975 2913 2975 3322 
Q 2975 3731 2742 3939 
Q 2509 4147 2053 4147 
L 1259 4147 
z
" transform="scale(0.015625)"/>
      <path id="DejaVuSans-6c" d="M 603 4863 
L 1178 4863 
L 1178 0 
L 603 0 
L 603 4863 
z
" transform="scale(0.015625)"/>
      <path id="DejaVuSans-61" d="M 2194 1759 
Q 1497 1759 1228 1600 
Q 959 1441 959 1056 
Q 959 750 1161 570 
Q 1363 391 1709 391 
Q 2188 391 2477 730 
Q 2766 1069 2766 1631 
L 2766 1759 
L 2194 1759 
z
M 3341 1997 
L 3341 0 
L 2766 0 
L 2766 531 
Q 2569 213 2275 61 
Q 1981 -91 1556 -91 
Q 1019 -91 701 211 
Q 384 513 384 1019 
Q 384 1609 779 1909 
Q 1175 2209 1959 2209 
L 2766 2209 
L 2766 2266 
Q 2766 2663 2505 2880 
Q 2244 3097 1772 3097 
Q 1472 3097 1187 3025 
Q 903 2953 641 2809 
L 641 3341 
Q 956 3463 1253 3523 
Q 1550 3584 1831 3584 
Q 2591 3584 2966 3190 
Q 3341 2797 3341 1997 
z
" transform="scale(0.015625)"/>
      <path id="DejaVuSans-64" d="M 2906 2969 
L 2906 4863 
L 3481 4863 
L 3481 0 
L 2906 0 
L 2906 525 
Q 2725 213 2448 61 
Q 2172 -91 1784 -91 
Q 1150 -91 751 415 
Q 353 922 353 1747 
Q 353 2572 751 3078 
Q 1150 3584 1784 3584 
Q 2172 3584 2448 3432 
Q 2725 3281 2906 2969 
z
M 947 1747 
Q 947 1113 1208 752 
Q 1469 391 1925 391 
Q 2381 391 2643 752 
Q 2906 1113 2906 1747 
Q 2906 2381 2643 2742 
Q 2381 3103 1925 3103 
Q 1469 3103 1208 2742 
Q 947 2381 947 1747 
z
" transform="scale(0.015625)"/>
     </defs>
     <use xlink:href="#DejaVuSans-52"/>
     <use xlink:href="#DejaVuSans-65" x="64.982422"/>
     <use xlink:href="#DejaVuSans-6c" x="126.505859"/>
     <use xlink:href="#DejaVuSans-65" x="154.289062"/>
     <use xlink:href="#DejaVuSans-61" x="215.8125"/>
     <use xlink:href="#DejaVuSans-73" x="277.091797"/>
     <use xlink:href="#DejaVuSans-65" x="329.191406"/>
     <use xlink:href="#DejaVuSans-20" x="390.714844"/>
     <use xlink:href="#DejaVuSans-64" x="422.501953"/>
     <use xlink:href="#DejaVuSans-61" x="485.978516"/>
     <use xlink:href="#DejaVuSans-74" x="547.257812"/>
     <use xlink:href="#DejaVuSans-65" x="586.466797"/>
    </g>
   </g>
   <g id="Line3DCollection_2">
    <path d="M 61.126778 183.443119 
L 68.323937 338.984938 
L 486.902678 468.28152 
" style="fill: none; stroke: #b0b0b0; stroke-width: 0.8"/>
    <path d="M 86.113053 165.371111 
L 92.506794 319.755353 
L 507.971007 446.170634 
" style="fill: none; stroke: #b0b0b0; stroke-width: 0.8"/>
    <path d="M 110.548784 147.697299 
L 116.172116 300.937299 
L 528.556417 424.566564 
" style="fill: none; stroke: #b0b0b0; stroke-width: 0.8"/>
    <path d="M 134.430397 130.424269 
L 139.315431 282.534331 
L 548.657174 403.47113 
" style="fill: none; stroke: #b0b0b0; stroke-width: 0.8"/>
    <path d="M 157.818719 113.508024 
L 161.994745 264.500325 
L 568.325661 382.829357 
" style="fill: none; stroke: #b0b0b0; stroke-width: 0.8"/>
   </g>
   <g id="xtick_21">
    <g id="line2d_23">
     <path d="M 483.312604 467.172567 
L 494.095373 470.503303 
" style="fill: none; stroke: #000000; stroke-width: 0.8; stroke-linecap: square"/>
    </g>
    <g id="text_23">
     <!-- 2011 -->
     <g transform="translate(491.863262 487.711378) scale(0.1 -0.1)">
      <use xlink:href="#DejaVuSans-32"/>
      <use xlink:href="#DejaVuSans-30" x="63.623047"/>
      <use xlink:href="#DejaVuSans-31" x="127.246094"/>
      <use xlink:href="#DejaVuSans-31" x="190.869141"/>
     </g>
    </g>
   </g>
   <g id="xtick_22">
    <g id="line2d_24">
     <path d="M 504.410423 445.087237 
L 515.104476 448.341168 
" style="fill: none; stroke: #000000; stroke-width: 0.8; stroke-linecap: square"/>
    </g>
    <g id="text_24">
     <!-- 2014 -->
     <g transform="translate(512.760471 465.427149) scale(0.1 -0.1)">
      <use xlink:href="#DejaVuSans-32"/>
      <use xlink:href="#DejaVuSans-30" x="63.623047"/>
      <use xlink:href="#DejaVuSans-31" x="127.246094"/>
      <use xlink:href="#DejaVuSans-34" x="190.869141"/>
     </g>
    </g>
   </g>
   <g id="xtick_23">
    <g id="line2d_25">
     <path d="M 525.024921 423.507852 
L 535.631469 426.687603 
" style="fill: none; stroke: #000000; stroke-width: 0.8; stroke-linecap: square"/>
    </g>
    <g id="text_25">
     <!-- 2017 -->
     <g transform="translate(533.177913 443.654532) scale(0.1 -0.1)">
      <use xlink:href="#DejaVuSans-32"/>
      <use xlink:href="#DejaVuSans-30" x="63.623047"/>
      <use xlink:href="#DejaVuSans-31" x="127.246094"/>
      <use xlink:href="#DejaVuSans-37" x="190.869141"/>
     </g>
    </g>
   </g>
   <g id="xtick_24">
    <g id="line2d_26">
     <path d="M 545.154343 402.436246 
L 555.674661 405.544391 
" style="fill: none; stroke: #000000; stroke-width: 0.8; stroke-linecap: square"/>
    </g>
    <g id="text_26">
     <!-- 2020 -->
     <g transform="translate(553.113923 422.395302) scale(0.1 -0.1)">
      <use xlink:href="#DejaVuSans-32"/>
      <use xlink:href="#DejaVuSans-30" x="63.623047"/>
      <use xlink:href="#DejaVuSans-32" x="127.246094"/>
      <use xlink:href="#DejaVuSans-30" x="190.869141"/>
     </g>
    </g>
   </g>
   <g id="xtick_25">
    <g id="line2d_27">
     <path d="M 564.85113 381.817527 
L 575.286321 384.856395 
" style="fill: none; stroke: #000000; stroke-width: 0.8; stroke-linecap: square"/>
    </g>
    <g id="text_27">
     <!-- 2023 -->
     <g transform="translate(572.620503 401.594004) scale(0.1 -0.1)">
      <use xlink:href="#DejaVuSans-32"/>
      <use xlink:href="#DejaVuSans-30" x="63.623047"/>
      <use xlink:href="#DejaVuSans-32" x="127.246094"/>
      <use xlink:href="#DejaVuSans-33" x="190.869141"/>
     </g>
    </g>
   </g>
  </g>
  <g id="axis3d_3">
   <g id="line2d_28">
    <path d="M 573.729769 377.157828 
L 581.997262 219.353145 
" style="fill: none; stroke: #000000; stroke-width: 0.8; stroke-linecap: square"/>
   </g>
   <g id="text_28">
    <!-- Amount of version-specific features -->
    <g transform="translate(622.800538 407.579611) rotate(-87.000978) scale(0.12 -0.12)">
     <defs>
      <path id="DejaVuSans-41" d="M 2188 4044 
L 1331 1722 
L 3047 1722 
L 2188 4044 
z
M 1831 4666 
L 2547 4666 
L 4325 0 
L 3669 0 
L 3244 1197 
L 1141 1197 
L 716 0 
L 50 0 
L 1831 4666 
z
" transform="scale(0.015625)"/>
      <path id="DejaVuSans-6d" d="M 3328 2828 
Q 3544 3216 3844 3400 
Q 4144 3584 4550 3584 
Q 5097 3584 5394 3201 
Q 5691 2819 5691 2113 
L 5691 0 
L 5113 0 
L 5113 2094 
Q 5113 2597 4934 2840 
Q 4756 3084 4391 3084 
Q 3944 3084 3684 2787 
Q 3425 2491 3425 1978 
L 3425 0 
L 2847 0 
L 2847 2094 
Q 2847 2600 2669 2842 
Q 2491 3084 2119 3084 
Q 1678 3084 1418 2786 
Q 1159 2488 1159 1978 
L 1159 0 
L 581 0 
L 581 3500 
L 1159 3500 
L 1159 2956 
Q 1356 3278 1631 3431 
Q 1906 3584 2284 3584 
Q 2666 3584 2933 3390 
Q 3200 3197 3328 2828 
z
" transform="scale(0.015625)"/>
      <path id="DejaVuSans-75" d="M 544 1381 
L 544 3500 
L 1119 3500 
L 1119 1403 
Q 1119 906 1312 657 
Q 1506 409 1894 409 
Q 2359 409 2629 706 
Q 2900 1003 2900 1516 
L 2900 3500 
L 3475 3500 
L 3475 0 
L 2900 0 
L 2900 538 
Q 2691 219 2414 64 
Q 2138 -91 1772 -91 
Q 1169 -91 856 284 
Q 544 659 544 1381 
z
M 1991 3584 
L 1991 3584 
z
" transform="scale(0.015625)"/>
      <path id="DejaVuSans-66" d="M 2375 4863 
L 2375 4384 
L 1825 4384 
Q 1516 4384 1395 4259 
Q 1275 4134 1275 3809 
L 1275 3500 
L 2222 3500 
L 2222 3053 
L 1275 3053 
L 1275 0 
L 697 0 
L 697 3053 
L 147 3053 
L 147 3500 
L 697 3500 
L 697 3744 
Q 697 4328 969 4595 
Q 1241 4863 1831 4863 
L 2375 4863 
z
" transform="scale(0.015625)"/>
      <path id="DejaVuSans-2d" d="M 313 2009 
L 1997 2009 
L 1997 1497 
L 313 1497 
L 313 2009 
z
" transform="scale(0.015625)"/>
      <path id="DejaVuSans-70" d="M 1159 525 
L 1159 -1331 
L 581 -1331 
L 581 3500 
L 1159 3500 
L 1159 2969 
Q 1341 3281 1617 3432 
Q 1894 3584 2278 3584 
Q 2916 3584 3314 3078 
Q 3713 2572 3713 1747 
Q 3713 922 3314 415 
Q 2916 -91 2278 -91 
Q 1894 -91 1617 61 
Q 1341 213 1159 525 
z
M 3116 1747 
Q 3116 2381 2855 2742 
Q 2594 3103 2138 3103 
Q 1681 3103 1420 2742 
Q 1159 2381 1159 1747 
Q 1159 1113 1420 752 
Q 1681 391 2138 391 
Q 2594 391 2855 752 
Q 3116 1113 3116 1747 
z
" transform="scale(0.015625)"/>
      <path id="DejaVuSans-63" d="M 3122 3366 
L 3122 2828 
Q 2878 2963 2633 3030 
Q 2388 3097 2138 3097 
Q 1578 3097 1268 2742 
Q 959 2388 959 1747 
Q 959 1106 1268 751 
Q 1578 397 2138 397 
Q 2388 397 2633 464 
Q 2878 531 3122 666 
L 3122 134 
Q 2881 22 2623 -34 
Q 2366 -91 2075 -91 
Q 1284 -91 818 406 
Q 353 903 353 1747 
Q 353 2603 823 3093 
Q 1294 3584 2113 3584 
Q 2378 3584 2631 3529 
Q 2884 3475 3122 3366 
z
" transform="scale(0.015625)"/>
     </defs>
     <use xlink:href="#DejaVuSans-41"/>
     <use xlink:href="#DejaVuSans-6d" x="68.408203"/>
     <use xlink:href="#DejaVuSans-6f" x="165.820312"/>
     <use xlink:href="#DejaVuSans-75" x="227.001953"/>
     <use xlink:href="#DejaVuSans-6e" x="290.380859"/>
     <use xlink:href="#DejaVuSans-74" x="353.759766"/>
     <use xlink:href="#DejaVuSans-20" x="392.96875"/>
     <use xlink:href="#DejaVuSans-6f" x="424.755859"/>
     <use xlink:href="#DejaVuSans-66" x="485.9375"/>
     <use xlink:href="#DejaVuSans-20" x="521.142578"/>
     <use xlink:href="#DejaVuSans-76" x="552.929688"/>
     <use xlink:href="#DejaVuSans-65" x="612.109375"/>
     <use xlink:href="#DejaVuSans-72" x="673.632812"/>
     <use xlink:href="#DejaVuSans-73" x="714.746094"/>
     <use xlink:href="#DejaVuSans-69" x="766.845703"/>
     <use xlink:href="#DejaVuSans-6f" x="794.628906"/>
     <use xlink:href="#DejaVuSans-6e" x="855.810547"/>
     <use xlink:href="#DejaVuSans-2d" x="919.189453"/>
     <use xlink:href="#DejaVuSans-73" x="955.273438"/>
     <use xlink:href="#DejaVuSans-70" x="1007.373047"/>
     <use xlink:href="#DejaVuSans-65" x="1070.849609"/>
     <use xlink:href="#DejaVuSans-63" x="1132.373047"/>
     <use xlink:href="#DejaVuSans-69" x="1187.353516"/>
     <use xlink:href="#DejaVuSans-66" x="1215.136719"/>
     <use xlink:href="#DejaVuSans-69" x="1250.341797"/>
     <use xlink:href="#DejaVuSans-63" x="1278.125"/>
     <use xlink:href="#DejaVuSans-20" x="1333.105469"/>
     <use xlink:href="#DejaVuSans-66" x="1364.892578"/>
     <use xlink:href="#DejaVuSans-65" x="1400.097656"/>
     <use xlink:href="#DejaVuSans-61" x="1461.621094"/>
     <use xlink:href="#DejaVuSans-74" x="1522.900391"/>
     <use xlink:href="#DejaVuSans-75" x="1562.109375"/>
     <use xlink:href="#DejaVuSans-72" x="1625.488281"/>
     <use xlink:href="#DejaVuSans-65" x="1664.351562"/>
     <use xlink:href="#DejaVuSans-73" x="1725.875"/>
    </g>
   </g>
   <g id="Line3DCollection_3">
    <path d="M 573.890257 374.094538 
L 168.154476 256.609867 
L 41.154922 357.41872 
" style="fill: none; stroke: #b0b0b0; stroke-width: 0.8"/>
    <path d="M 574.805758 356.620026 
L 167.712606 239.895563 
L 40.256213 340.04896 
" style="fill: none; stroke: #b0b0b0; stroke-width: 0.8"/>
    <path d="M 575.727545 339.025536 
L 167.267901 223.073986 
L 39.351391 322.561046 
" style="fill: none; stroke: #b0b0b0; stroke-width: 0.8"/>
    <path d="M 576.655683 321.309829 
L 166.820332 206.144099 
L 38.440393 304.95377 
" style="fill: none; stroke: #b0b0b0; stroke-width: 0.8"/>
    <path d="M 577.590237 303.471649 
L 166.369872 189.104853 
L 37.523156 287.225903 
" style="fill: none; stroke: #b0b0b0; stroke-width: 0.8"/>
    <path d="M 578.531275 285.509719 
L 165.916493 171.955185 
L 36.599615 269.376204 
" style="fill: none; stroke: #b0b0b0; stroke-width: 0.8"/>
    <path d="M 579.478863 267.422749 
L 165.460167 154.694018 
L 35.669705 251.403412 
" style="fill: none; stroke: #b0b0b0; stroke-width: 0.8"/>
    <path d="M 580.433071 249.209427 
L 165.000864 137.320262 
L 34.733361 233.30625 
" style="fill: none; stroke: #b0b0b0; stroke-width: 0.8"/>
    <path d="M 581.393969 230.868426 
L 164.538555 119.83281 
L 33.790514 215.083421 
" style="fill: none; stroke: #b0b0b0; stroke-width: 0.8"/>
   </g>
   <g id="xtick_26">
    <g id="line2d_29">
     <path d="M 570.421377 373.090091 
L 580.839567 376.106778 
" style="fill: none; stroke: #000000; stroke-width: 0.8; stroke-linecap: square"/>
    </g>
    <g id="text_29">
     <!-- 0.00 -->
     <g transform="translate(584.179499 382.363535) scale(0.1 -0.1)">
      <use xlink:href="#DejaVuSans-30"/>
      <use xlink:href="#DejaVuSans-2e" x="63.623047"/>
      <use xlink:href="#DejaVuSans-30" x="95.410156"/>
      <use xlink:href="#DejaVuSans-30" x="159.033203"/>
     </g>
    </g>
   </g>
   <g id="xtick_27">
    <g id="line2d_30">
     <path d="M 571.324508 355.621859 
L 581.77989 358.619695 
" style="fill: none; stroke: #000000; stroke-width: 0.8; stroke-linecap: square"/>
    </g>
    <g id="text_30">
     <!-- 0.05 -->
     <g transform="translate(585.168656 364.884832) scale(0.1 -0.1)">
      <use xlink:href="#DejaVuSans-30"/>
      <use xlink:href="#DejaVuSans-2e" x="63.623047"/>
      <use xlink:href="#DejaVuSans-30" x="95.410156"/>
      <use xlink:href="#DejaVuSans-35" x="159.033203"/>
     </g>
    </g>
   </g>
   <g id="xtick_28">
    <g id="line2d_31">
     <path d="M 572.233837 338.033759 
L 582.726675 341.012416 
" style="fill: none; stroke: #000000; stroke-width: 0.8; stroke-linecap: square"/>
    </g>
    <g id="text_31">
     <!-- 0.10 -->
     <g transform="translate(586.164607 347.286078) scale(0.1 -0.1)">
      <use xlink:href="#DejaVuSans-30"/>
      <use xlink:href="#DejaVuSans-2e" x="63.623047"/>
      <use xlink:href="#DejaVuSans-31" x="95.410156"/>
      <use xlink:href="#DejaVuSans-30" x="159.033203"/>
     </g>
    </g>
   </g>
   <g id="xtick_29">
    <g id="line2d_32">
     <path d="M 573.149427 320.324554 
L 583.679991 323.283694 
" style="fill: none; stroke: #000000; stroke-width: 0.8; stroke-linecap: square"/>
    </g>
    <g id="text_32">
     <!-- 0.15 -->
     <g transform="translate(587.167422 329.566033) scale(0.1 -0.1)">
      <use xlink:href="#DejaVuSans-30"/>
      <use xlink:href="#DejaVuSans-2e" x="63.623047"/>
      <use xlink:href="#DejaVuSans-31" x="95.410156"/>
      <use xlink:href="#DejaVuSans-35" x="159.033203"/>
     </g>
    </g>
   </g>
   <g id="xtick_30">
    <g id="line2d_33">
     <path d="M 574.071343 302.492989 
L 584.639905 305.432271 
" style="fill: none; stroke: #000000; stroke-width: 0.8; stroke-linecap: square"/>
    </g>
    <g id="text_33">
     <!-- 0.20 -->
     <g transform="translate(588.177172 311.723437) scale(0.1 -0.1)">
      <use xlink:href="#DejaVuSans-30"/>
      <use xlink:href="#DejaVuSans-2e" x="63.623047"/>
      <use xlink:href="#DejaVuSans-32" x="95.410156"/>
      <use xlink:href="#DejaVuSans-30" x="159.033203"/>
     </g>
    </g>
   </g>
   <g id="xtick_31">
    <g id="line2d_34">
     <path d="M 574.999651 284.537791 
L 585.606486 287.456867 
" style="fill: none; stroke: #000000; stroke-width: 0.8; stroke-linecap: square"/>
    </g>
    <g id="text_34">
     <!-- 0.25 -->
     <g transform="translate(589.19393 293.757016) scale(0.1 -0.1)">
      <use xlink:href="#DejaVuSans-30"/>
      <use xlink:href="#DejaVuSans-2e" x="63.623047"/>
      <use xlink:href="#DejaVuSans-32" x="95.410156"/>
      <use xlink:href="#DejaVuSans-35" x="159.033203"/>
     </g>
    </g>
   </g>
   <g id="xtick_32">
    <g id="line2d_35">
     <path d="M 575.934418 266.457669 
L 586.579802 269.356187 
" style="fill: none; stroke: #000000; stroke-width: 0.8; stroke-linecap: square"/>
    </g>
    <g id="text_35">
     <!-- 0.30 -->
     <g transform="translate(590.217769 275.665475) scale(0.1 -0.1)">
      <use xlink:href="#DejaVuSans-30"/>
      <use xlink:href="#DejaVuSans-2e" x="63.623047"/>
      <use xlink:href="#DejaVuSans-33" x="95.410156"/>
      <use xlink:href="#DejaVuSans-30" x="159.033203"/>
     </g>
    </g>
   </g>
   <g id="xtick_33">
    <g id="line2d_36">
     <path d="M 576.875711 248.251316 
L 587.559926 251.128917 
" style="fill: none; stroke: #000000; stroke-width: 0.8; stroke-linecap: square"/>
    </g>
    <g id="text_36">
     <!-- 0.35 -->
     <g transform="translate(591.248763 257.447504) scale(0.1 -0.1)">
      <use xlink:href="#DejaVuSans-30"/>
      <use xlink:href="#DejaVuSans-2e" x="63.623047"/>
      <use xlink:href="#DejaVuSans-33" x="95.410156"/>
      <use xlink:href="#DejaVuSans-35" x="159.033203"/>
     </g>
    </g>
   </g>
   <g id="xtick_34">
    <g id="line2d_37">
     <path d="M 577.8236 229.917405 
L 588.546929 232.773723 
" style="fill: none; stroke: #000000; stroke-width: 0.8; stroke-linecap: square"/>
    </g>
    <g id="text_37">
     <!-- 0.40 -->
     <g transform="translate(592.286987 239.101771) scale(0.1 -0.1)">
      <use xlink:href="#DejaVuSans-30"/>
      <use xlink:href="#DejaVuSans-2e" x="63.623047"/>
      <use xlink:href="#DejaVuSans-34" x="95.410156"/>
      <use xlink:href="#DejaVuSans-30" x="159.033203"/>
     </g>
    </g>
   </g>
  </g>
  <g id="axes_1">
   <g id="line2d_38">
    <path d="M 185.957522 393.155417 
L 218.705457 386.986935 
L 225.340066 403.812427 
L 248.931418 405.841586 
L 280.917784 400.291177 
L 312.383581 395.076694 
L 342.581941 390.908021 
L 372.901121 386.514591 
L 401.535589 383.616855 
L 431.688993 379.16537 
L 460.247182 376.16119 
L 486.543786 375.330245 
L 512.944204 374.370604 
L 539.694397 373.024131 
" clip-path="url(#paa72a7b9b5)" style="fill: none; stroke: #ff0000; stroke-width: 1.5; stroke-linecap: square"/>
   </g>
   <g id="Poly3DCollection_1">
    <path d="M 169.42022 194.57191 
L 189.293184 281.782494 
L 194.78913 278.75668 
z
" clip-path="url(#paa72a7b9b5)" style="fill: #bed8ec"/>
    <path d="M 176.189543 237.964971 
L 169.42022 194.57191 
L 194.78913 278.75668 
z
" clip-path="url(#paa72a7b9b5)" style="fill: #9cc9e1"/>
    <path d="M 181.543426 290.609844 
L 189.293184 281.782494 
L 169.42022 194.57191 
z
" clip-path="url(#paa72a7b9b5)" style="fill: #bfd8ed"/>
    <path d="M 160.666031 200.069474 
L 180.817943 291.066923 
L 181.543426 290.609844 
z
" clip-path="url(#paa72a7b9b5)" style="fill: #c1d9ed"/>
    <path d="M 194.78913 278.75668 
L 189.293184 281.782494 
L 204.596821 153.179181 
z
" clip-path="url(#paa72a7b9b5)" style="fill: #89bedc"/>
    <path d="M 155.060864 204.355309 
L 175.339203 295.530647 
L 180.817943 291.066923 
z
" clip-path="url(#paa72a7b9b5)" style="fill: #bfd8ed"/>
    <path d="M 242.929797 275.852517 
L 248.332509 271.779582 
L 230.266039 270.145509 
z
" clip-path="url(#paa72a7b9b5)" style="fill: #cddff1"/>
    <path d="M 204.596821 153.179181 
L 189.293184 281.782494 
L 181.543426 290.609844 
z
" clip-path="url(#paa72a7b9b5)" style="fill: #8abfdd"/>
    <path d="M 181.543426 290.609844 
L 169.42022 194.57191 
L 161.399338 199.298206 
z
" clip-path="url(#paa72a7b9b5)" style="fill: #64a9d3"/>
    <path d="M 230.266039 270.145509 
L 224.577951 257.773511 
L 242.929797 275.852517 
z
" clip-path="url(#paa72a7b9b5)" style="fill: #c4daee"/>
    <path d="M 170.151984 301.250087 
L 175.339203 295.530647 
L 155.060864 204.355309 
z
" clip-path="url(#paa72a7b9b5)" style="fill: #c2d9ee"/>
    <path d="M 161.399338 199.298206 
L 160.666031 200.069474 
L 181.543426 290.609844 
z
" clip-path="url(#paa72a7b9b5)" style="fill: #63a8d3"/>
    <path d="M 180.817943 291.066923 
L 160.666031 200.069474 
L 155.060864 204.355309 
z
" clip-path="url(#paa72a7b9b5)" style="fill: #63a8d3"/>
    <path d="M 181.543426 290.609844 
L 180.817943 291.066923 
L 195.692598 150.704018 
z
" clip-path="url(#paa72a7b9b5)" style="fill: #82bbdb"/>
    <path d="M 235.199744 281.059021 
L 261.40351 305.437695 
L 242.929797 275.852517 
z
" clip-path="url(#paa72a7b9b5)" style="fill: #d7e6f5"/>
    <path d="M 242.929797 275.852517 
L 224.577951 257.773511 
L 216.769269 262.297854 
z
" clip-path="url(#paa72a7b9b5)" style="fill: #b2d2e8"/>
    <path d="M 235.199744 281.059021 
L 253.770864 311.894716 
L 261.40351 305.437695 
z
" clip-path="url(#paa72a7b9b5)" style="fill: #e6f0f9"/>
    <path d="M 279.614826 295.445974 
L 261.40351 305.437695 
L 253.770864 311.894716 
z
" clip-path="url(#paa72a7b9b5)" style="fill: #ecf4fb"/>
    <path d="M 204.596821 153.179181 
L 210.784952 182.56529 
L 194.78913 278.75668 
z
" clip-path="url(#paa72a7b9b5)" style="fill: #2777b8"/>
    <path d="M 190.081932 154.933962 
L 180.817943 291.066923 
L 175.339203 295.530647 
z
" clip-path="url(#paa72a7b9b5)" style="fill: #82bbdb"/>
    <path d="M 216.769269 262.297854 
L 235.199744 281.059021 
L 242.929797 275.852517 
z
" clip-path="url(#paa72a7b9b5)" style="fill: #bdd7ec"/>
    <path d="M 204.596821 153.179181 
L 224.577951 257.773511 
L 230.266039 270.145509 
z
" clip-path="url(#paa72a7b9b5)" style="fill: #4e9acb"/>
    <path d="M 235.199744 281.059021 
L 253.078308 313.834228 
L 253.770864 311.894716 
z
" clip-path="url(#paa72a7b9b5)" style="fill: #e7f0fa"/>
    <path d="M 266.126762 219.933968 
L 248.332509 271.779582 
L 242.929797 275.852517 
z
" clip-path="url(#paa72a7b9b5)" style="fill: #95c5df"/>
    <path d="M 242.929797 275.852517 
L 261.40351 305.437695 
L 266.126762 219.933968 
z
" clip-path="url(#paa72a7b9b5)" style="fill: #aed1e7"/>
    <path d="M 303.36764 299.67765 
L 284.949531 293.135005 
L 279.614826 295.445974 
z
" clip-path="url(#paa72a7b9b5)" style="fill: #dceaf6"/>
    <path d="M 155.060864 204.355309 
L 149.687569 207.543891 
L 170.151984 301.250087 
z
" clip-path="url(#paa72a7b9b5)" style="fill: #63a8d3"/>
    <path d="M 234.448817 278.980062 
L 253.078308 313.834228 
L 235.199744 281.059021 
z
" clip-path="url(#paa72a7b9b5)" style="fill: #d6e5f4"/>
    <path d="M 175.339203 295.530647 
L 170.151984 301.250087 
L 190.081932 154.933962 
z
" clip-path="url(#paa72a7b9b5)" style="fill: #84bcdb"/>
    <path d="M 272.017491 303.87157 
L 253.770864 311.894716 
L 253.078308 313.834228 
z
" clip-path="url(#paa72a7b9b5)" style="fill: #eef5fc"/>
    <path d="M 234.448817 278.980062 
L 235.199744 281.059021 
L 216.769269 262.297854 
z
" clip-path="url(#paa72a7b9b5)" style="fill: #b9d6ea"/>
    <path d="M 135.138122 218.662507 
L 155.940329 312.838769 
L 170.151984 301.250087 
z
" clip-path="url(#paa72a7b9b5)" style="fill: #c2d9ee"/>
    <path d="M 216.769269 262.297854 
L 215.979688 258.862343 
L 234.448817 278.980062 
z
" clip-path="url(#paa72a7b9b5)" style="fill: #a9cfe5"/>
    <path d="M 266.126762 219.933968 
L 261.40351 305.437695 
L 279.614826 295.445974 
z
" clip-path="url(#paa72a7b9b5)" style="fill: #b7d4ea"/>
    <path d="M 279.614826 295.445974 
L 298.088804 311.078628 
L 303.36764 299.67765 
z
" clip-path="url(#paa72a7b9b5)" style="fill: #e2edf8"/>
    <path d="M 253.770864 311.894716 
L 272.017491 303.87157 
L 279.614826 295.445974 
z
" clip-path="url(#paa72a7b9b5)" style="fill: #e3eef9"/>
    <path d="M 229.02992 283.477785 
L 247.722219 318.411218 
L 253.078308 313.834228 
z
" clip-path="url(#paa72a7b9b5)" style="fill: #e6f0f9"/>
    <path d="M 253.078308 313.834228 
L 234.448817 278.980062 
L 229.02992 283.477785 
z
" clip-path="url(#paa72a7b9b5)" style="fill: #d4e4f4"/>
    <path d="M 230.266039 270.145509 
L 210.784952 182.56529 
L 204.596821 153.179181 
z
" clip-path="url(#paa72a7b9b5)" style="fill: #1a68ae"/>
    <path d="M 229.02992 283.477785 
L 234.448817 278.980062 
L 215.979688 258.862343 
z
" clip-path="url(#paa72a7b9b5)" style="fill: #b3d3e8"/>
    <path d="M 266.008029 313.51038 
L 253.078308 313.834228 
L 247.722219 318.411218 
z
" clip-path="url(#paa72a7b9b5)" style="fill: #f2f7fd"/>
    <path d="M 279.614826 295.445974 
L 284.949531 293.135005 
L 266.126762 219.933968 
z
" clip-path="url(#paa72a7b9b5)" style="fill: #aacfe5"/>
    <path d="M 271.343522 308.922915 
L 272.017491 303.87157 
L 253.078308 313.834228 
z
" clip-path="url(#paa72a7b9b5)" style="fill: #e8f1fa"/>
    <path d="M 215.979688 258.862343 
L 210.513729 263.306342 
L 229.02992 283.477785 
z
" clip-path="url(#paa72a7b9b5)" style="fill: #a5cde3"/>
    <path d="M 290.539004 317.361653 
L 298.088804 311.078628 
L 279.614826 295.445974 
z
" clip-path="url(#paa72a7b9b5)" style="fill: #e6f0f9"/>
    <path d="M 271.343522 308.922915 
L 253.078308 313.834228 
L 266.008029 313.51038 
z
" clip-path="url(#paa72a7b9b5)" style="fill: #ebf3fb"/>
    <path d="M 170.151984 301.250087 
L 149.687569 207.543891 
L 135.138122 218.662507 
z
" clip-path="url(#paa72a7b9b5)" style="fill: #61a7d2"/>
    <path d="M 303.36764 299.67765 
L 298.088804 311.078628 
L 316.637025 310.072173 
z
" clip-path="url(#paa72a7b9b5)" style="fill: #e4eff9"/>
    <path d="M 316.637025 310.072173 
L 321.891083 306.257713 
L 303.36764 299.67765 
z
" clip-path="url(#paa72a7b9b5)" style="fill: #e0ecf8"/>
    <path d="M 279.614826 295.445974 
L 272.017491 303.87157 
L 290.539004 317.361653 
z
" clip-path="url(#paa72a7b9b5)" style="fill: #e0ecf8"/>
    <path d="M 266.008029 313.51038 
L 247.722219 318.411218 
L 242.613258 322.777027 
z
" clip-path="url(#paa72a7b9b5)" style="fill: #f2f7fd"/>
    <path d="M 196.597349 158.159069 
L 216.769269 262.297854 
L 224.577951 257.773511 
z
" clip-path="url(#paa72a7b9b5)" style="fill: #3c8cc3"/>
    <path d="M 247.722219 318.411218 
L 223.805505 284.272483 
L 242.613258 322.777027 
z
" clip-path="url(#paa72a7b9b5)" style="fill: #e3eef9"/>
    <path d="M 229.02992 283.477785 
L 223.805505 284.272483 
L 247.722219 318.411218 
z
" clip-path="url(#paa72a7b9b5)" style="fill: #d3e3f3"/>
    <path d="M 290.539004 317.361653 
L 272.017491 303.87157 
L 271.343522 308.922915 
z
" clip-path="url(#paa72a7b9b5)" style="fill: #e4eff9"/>
    <path d="M 181.543426 290.609844 
L 196.597349 158.159069 
L 204.596821 153.179181 
z
" clip-path="url(#paa72a7b9b5)" style="fill: #125ea6"/>
    <path d="M 316.637025 310.072173 
L 298.088804 311.078628 
L 290.539004 317.361653 
z
" clip-path="url(#paa72a7b9b5)" style="fill: #e8f1fa"/>
    <path d="M 210.513729 263.306342 
L 223.805505 284.272483 
L 229.02992 283.477785 
z
" clip-path="url(#paa72a7b9b5)" style="fill: #b0d2e7"/>
    <path d="M 271.343522 308.922915 
L 289.857028 323.212372 
L 290.539004 317.361653 
z
" clip-path="url(#paa72a7b9b5)" style="fill: #ecf4fb"/>
    <path d="M 284.562809 327.843747 
L 289.857028 323.212372 
L 271.343522 308.922915 
z
" clip-path="url(#paa72a7b9b5)" style="fill: #eff6fc"/>
    <path d="M 215.979688 258.862343 
L 216.769269 262.297854 
L 196.597349 158.159069 
z
" clip-path="url(#paa72a7b9b5)" style="fill: #3787c0"/>
    <path d="M 170.422797 180.013043 
L 170.151984 301.250087 
L 155.940329 312.838769 
z
" clip-path="url(#paa72a7b9b5)" style="fill: #92c4de"/>
    <path d="M 205.213357 263.076878 
L 223.805505 284.272483 
L 210.513729 263.306342 
z
" clip-path="url(#paa72a7b9b5)" style="fill: #9dcae1"/>
    <path d="M 271.343522 308.922915 
L 266.008029 313.51038 
L 284.562809 327.843747 
z
" clip-path="url(#paa72a7b9b5)" style="fill: #eaf3fb"/>
    <path d="M 321.891083 306.257713 
L 316.637025 310.072173 
L 335.289152 319.377183 
z
" clip-path="url(#paa72a7b9b5)" style="fill: #e3eef9"/>
    <path d="M 242.613258 322.777027 
L 260.898857 315.64133 
L 266.008029 313.51038 
z
" clip-path="url(#paa72a7b9b5)" style="fill: #eaf2fb"/>
    <path d="M 195.692598 150.704018 
L 196.597349 158.159069 
L 181.543426 290.609844 
z
" clip-path="url(#paa72a7b9b5)" style="fill: #0d57a1"/>
    <path d="M 321.891083 306.257713 
L 335.289152 319.377183 
L 340.568707 305.636046 
z
" clip-path="url(#paa72a7b9b5)" style="fill: #e0ecf8"/>
    <path d="M 289.857028 323.212372 
L 308.4297 318.317134 
L 290.539004 317.361653 
z
" clip-path="url(#paa72a7b9b5)" style="fill: #ebf3fb"/>
    <path d="M 223.805505 284.272483 
L 228.713186 334.655188 
L 242.613258 322.777027 
z
" clip-path="url(#paa72a7b9b5)" style="fill: #e3eef9"/>
    <path d="M 290.539004 317.361653 
L 309.124178 318.775702 
L 316.637025 310.072173 
z
" clip-path="url(#paa72a7b9b5)" style="fill: #e5eff9"/>
    <path d="M 284.562809 327.843747 
L 308.4297 318.317134 
L 289.857028 323.212372 
z
" clip-path="url(#paa72a7b9b5)" style="fill: #eef5fc"/>
    <path d="M 196.597349 158.159069 
L 224.577951 257.773511 
L 204.596821 153.179181 
z
" clip-path="url(#paa72a7b9b5)" style="fill: #084285"/>
    <path d="M 284.562809 327.843747 
L 266.008029 313.51038 
L 260.898857 315.64133 
z
" clip-path="url(#paa72a7b9b5)" style="fill: #e9f2fa"/>
    <path d="M 228.713186 334.655188 
L 260.898857 315.64133 
L 242.613258 322.777027 
z
" clip-path="url(#paa72a7b9b5)" style="fill: #f0f6fd"/>
    <path d="M 195.692598 150.704018 
L 180.817943 291.066923 
L 190.081932 154.933962 
z
" clip-path="url(#paa72a7b9b5)" style="fill: #08519c"/>
    <path d="M 215.979688 258.862343 
L 190.081932 154.933962 
L 210.513729 263.306342 
z
" clip-path="url(#paa72a7b9b5)" style="fill: #2f7fbc"/>
    <path d="M 308.4297 318.317134 
L 309.124178 318.775702 
L 290.539004 317.361653 
z
" clip-path="url(#paa72a7b9b5)" style="fill: #e6f0f9"/>
    <path d="M 115.597946 228.76886 
L 137.024419 328.263465 
L 155.940329 312.838769 
z
" clip-path="url(#paa72a7b9b5)" style="fill: #bed8ec"/>
    <path d="M 284.562809 327.843747 
L 260.898857 315.64133 
L 279.5122 332.16651 
z
" clip-path="url(#paa72a7b9b5)" style="fill: #eef5fc"/>
    <path d="M 340.568707 305.636046 
L 335.289152 319.377183 
L 354.029518 328.726213 
z
" clip-path="url(#paa72a7b9b5)" style="fill: #e4eff9"/>
    <path d="M 335.289152 319.377183 
L 316.637025 310.072173 
L 327.832099 325.612996 
z
" clip-path="url(#paa72a7b9b5)" style="fill: #e5eff9"/>
    <path d="M 354.029518 328.726213 
L 359.232856 321.943856 
L 340.568707 305.636046 
z
" clip-path="url(#paa72a7b9b5)" style="fill: #e5eff9"/>
    <path d="M 191.014843 274.590019 
L 223.805505 284.272483 
L 205.213357 263.076878 
z
" clip-path="url(#paa72a7b9b5)" style="fill: #97c6df"/>
    <path d="M 316.637025 310.072173 
L 309.124178 318.775702 
L 327.832099 325.612996 
z
" clip-path="url(#paa72a7b9b5)" style="fill: #e3eef9"/>
    <path d="M 378.001663 333.467727 
L 359.232856 321.943856 
L 354.029518 328.726213 
z
" clip-path="url(#paa72a7b9b5)" style="fill: #eff6fc"/>
    <path d="M 205.213357 263.076878 
L 210.513729 263.306342 
L 190.081932 154.933962 
z
" clip-path="url(#paa72a7b9b5)" style="fill: #2b7bba"/>
    <path d="M 284.562809 327.843747 
L 303.157341 322.959375 
L 308.4297 318.317134 
z
" clip-path="url(#paa72a7b9b5)" style="fill: #e8f1fa"/>
    <path d="M 209.732003 295.929633 
L 228.713186 334.655188 
L 223.805505 284.272483 
z
" clip-path="url(#paa72a7b9b5)" style="fill: #d0e2f2"/>
    <path d="M 135.138122 218.662507 
L 115.597946 228.76886 
L 155.940329 312.838769 
z
" clip-path="url(#paa72a7b9b5)" style="fill: #5da5d1"/>
    <path d="M 327.832099 325.612996 
L 354.029518 328.726213 
L 335.289152 319.377183 
z
" clip-path="url(#paa72a7b9b5)" style="fill: #e9f2fa"/>
    <path d="M 327.832099 325.612996 
L 309.124178 318.775702 
L 308.4297 318.317134 
z
" clip-path="url(#paa72a7b9b5)" style="fill: #e4eff9"/>
    <path d="M 190.081932 154.933962 
L 170.151984 301.250087 
L 184.958353 168.984646 
z
" clip-path="url(#paa72a7b9b5)" style="fill: #0f5aa3"/>
    <path d="M 170.422797 180.013043 
L 155.940329 312.838769 
L 137.024419 328.263465 
z
" clip-path="url(#paa72a7b9b5)" style="fill: #92c4de"/>
    <path d="M 279.5122 332.16651 
L 298.126736 326.622403 
L 284.562809 327.843747 
z
" clip-path="url(#paa72a7b9b5)" style="fill: #eef5fc"/>
    <path d="M 195.692598 150.704018 
L 215.979688 258.862343 
L 196.597349 158.159069 
z
" clip-path="url(#paa72a7b9b5)" style="fill: #083573"/>
    <path d="M 209.732003 295.929633 
L 223.805505 284.272483 
L 191.014843 274.590019 
z
" clip-path="url(#paa72a7b9b5)" style="fill: #a8cee4"/>
    <path d="M 354.029518 328.726213 
L 372.858751 338.119576 
L 378.001663 333.467727 
z
" clip-path="url(#paa72a7b9b5)" style="fill: #f3f8fe"/>
    <path d="M 247.045029 327.537538 
L 260.898857 315.64133 
L 228.713186 334.655188 
z
" clip-path="url(#paa72a7b9b5)" style="fill: #e8f1fa"/>
    <path d="M 327.832099 325.612996 
L 308.4297 318.317134 
L 327.14552 325.291008 
z
" clip-path="url(#paa72a7b9b5)" style="fill: #e4eff9"/>
    <path d="M 298.126736 326.622403 
L 303.157341 322.959375 
L 284.562809 327.843747 
z
" clip-path="url(#paa72a7b9b5)" style="fill: #e8f1fa"/>
    <path d="M 327.14552 325.291008 
L 308.4297 318.317134 
L 303.157341 322.959375 
z
" clip-path="url(#paa72a7b9b5)" style="fill: #e3eef8"/>
    <path d="M 279.5122 332.16651 
L 260.898857 315.64133 
L 265.771152 344.18651 
z
" clip-path="url(#paa72a7b9b5)" style="fill: #eef5fc"/>
    <path d="M 372.858751 338.119576 
L 396.949905 339.004653 
L 378.001663 333.467727 
z
" clip-path="url(#paa72a7b9b5)" style="fill: #f5fafe"/>
    <path d="M 346.62605 335.195447 
L 354.029518 328.726213 
L 327.832099 325.612996 
z
" clip-path="url(#paa72a7b9b5)" style="fill: #ebf3fb"/>
    <path d="M 195.692598 150.704018 
L 190.081932 154.933962 
L 215.979688 258.862343 
z
" clip-path="url(#paa72a7b9b5)" style="fill: #08306b"/>
    <path d="M 327.14552 325.291008 
L 345.899 341.22127 
L 327.832099 325.612996 
z
" clip-path="url(#paa72a7b9b5)" style="fill: #ebf3fb"/>
    <path d="M 184.958353 168.984646 
L 170.151984 301.250087 
L 170.422797 180.013043 
z
" clip-path="url(#paa72a7b9b5)" style="fill: #1561a9"/>
    <path d="M 327.832099 325.612996 
L 345.899 341.22127 
L 346.62605 335.195447 
z
" clip-path="url(#paa72a7b9b5)" style="fill: #eef5fc"/>
    <path d="M 303.157341 322.959375 
L 321.907769 329.964914 
L 327.14552 325.291008 
z
" clip-path="url(#paa72a7b9b5)" style="fill: #e4eff9"/>
    <path d="M 372.858751 338.119576 
L 354.029518 328.726213 
L 365.508127 344.822831 
z
" clip-path="url(#paa72a7b9b5)" style="fill: #f3f8fe"/>
    <path d="M 265.771152 344.18651 
L 260.898857 315.64133 
L 247.045029 327.537538 
z
" clip-path="url(#paa72a7b9b5)" style="fill: #e7f1fa"/>
    <path d="M 279.5122 332.16651 
L 265.771152 344.18651 
L 298.126736 326.622403 
z
" clip-path="url(#paa72a7b9b5)" style="fill: #eef5fc"/>
    <path d="M 365.508127 344.822831 
L 354.029518 328.726213 
L 346.62605 335.195447 
z
" clip-path="url(#paa72a7b9b5)" style="fill: #f0f6fd"/>
    <path d="M 391.820449 344.977175 
L 396.949905 339.004653 
L 372.858751 338.119576 
z
" clip-path="url(#paa72a7b9b5)" style="fill: #f6faff"/>
    <path d="M 210.208445 350.46822 
L 228.713186 334.655188 
L 209.732003 295.929633 
z
" clip-path="url(#paa72a7b9b5)" style="fill: #e3eef9"/>
    <path d="M 340.705185 345.942605 
L 345.899 341.22127 
L 327.14552 325.291008 
z
" clip-path="url(#paa72a7b9b5)" style="fill: #f2f7fd"/>
    <path d="M 115.288215 345.987928 
L 137.024419 328.263465 
L 115.597946 228.76886 
z
" clip-path="url(#paa72a7b9b5)" style="fill: #bed8ec"/>
    <path d="M 327.14552 325.291008 
L 321.907769 329.964914 
L 340.705185 345.942605 
z
" clip-path="url(#paa72a7b9b5)" style="fill: #ebf3fb"/>
    <path d="M 247.045029 327.537538 
L 228.713186 334.655188 
L 210.208445 350.46822 
z
" clip-path="url(#paa72a7b9b5)" style="fill: #f0f6fd"/>
    <path d="M 346.62605 335.195447 
L 345.899 341.22127 
L 365.508127 344.822831 
z
" clip-path="url(#paa72a7b9b5)" style="fill: #f3f8fe"/>
    <path d="M 303.157341 322.959375 
L 298.126736 326.622403 
L 316.912698 333.752895 
z
" clip-path="url(#paa72a7b9b5)" style="fill: #e2edf8"/>
    <path d="M 316.912698 333.752895 
L 321.907769 329.964914 
L 303.157341 322.959375 
z
" clip-path="url(#paa72a7b9b5)" style="fill: #e3eef9"/>
    <path d="M 416.042766 343.365741 
L 396.949905 339.004653 
L 391.820449 344.977175 
z
" clip-path="url(#paa72a7b9b5)" style="fill: #f5fafe"/>
    <path d="M 184.958353 168.984646 
L 205.213357 263.076878 
L 190.081932 154.933962 
z
" clip-path="url(#paa72a7b9b5)" style="fill: #083370"/>
    <path d="M 170.422797 180.013043 
L 191.014843 274.590019 
L 205.213357 263.076878 
z
" clip-path="url(#paa72a7b9b5)" style="fill: #2f7fbc"/>
    <path d="M 365.508127 344.822831 
L 345.899 341.22127 
L 364.829267 345.314687 
z
" clip-path="url(#paa72a7b9b5)" style="fill: #f5fafe"/>
    <path d="M 391.820449 344.977175 
L 372.858751 338.119576 
L 384.520254 351.78697 
z
" clip-path="url(#paa72a7b9b5)" style="fill: #f7fbff"/>
    <path d="M 209.732003 295.929633 
L 191.014843 274.590019 
L 172.112027 289.925516 
z
" clip-path="url(#paa72a7b9b5)" style="fill: #97c6df"/>
    <path d="M 372.858751 338.119576 
L 365.508127 344.822831 
L 384.520254 351.78697 
z
" clip-path="url(#paa72a7b9b5)" style="fill: #f5fafe"/>
    <path d="M 340.705185 345.942605 
L 321.907769 329.964914 
L 316.912698 333.752895 
z
" clip-path="url(#paa72a7b9b5)" style="fill: #eaf3fb"/>
    <path d="M 345.899 341.22127 
L 340.705185 345.942605 
L 359.667995 350.063132 
z
" clip-path="url(#paa72a7b9b5)" style="fill: #f6faff"/>
    <path d="M 364.829267 345.314687 
L 345.899 341.22127 
L 359.667995 350.063132 
z
" clip-path="url(#paa72a7b9b5)" style="fill: #f5fafe"/>
    <path d="M 391.820449 344.977175 
L 410.918066 350.581221 
L 416.042766 343.365741 
z
" clip-path="url(#paa72a7b9b5)" style="fill: #f6faff"/>
    <path d="M 316.912698 333.752895 
L 335.750616 350.44646 
L 340.705185 345.942605 
z
" clip-path="url(#paa72a7b9b5)" style="fill: #f1f7fd"/>
    <path d="M 384.520254 351.78697 
L 365.508127 344.822831 
L 364.829267 345.314687 
z
" clip-path="url(#paa72a7b9b5)" style="fill: #f5fafe"/>
    <path d="M 298.126736 326.622403 
L 265.771152 344.18651 
L 284.439618 338.6685 
z
" clip-path="url(#paa72a7b9b5)" style="fill: #e7f1fa"/>
    <path d="M 170.422797 180.013043 
L 205.213357 263.076878 
L 184.958353 168.984646 
z
" clip-path="url(#paa72a7b9b5)" style="fill: #083b7c"/>
    <path d="M 210.208445 350.46822 
L 209.732003 295.929633 
L 191.007425 311.988107 
z
" clip-path="url(#paa72a7b9b5)" style="fill: #d0e2f2"/>
    <path d="M 384.520254 351.78697 
L 410.918066 350.581221 
L 391.820449 344.977175 
z
" clip-path="url(#paa72a7b9b5)" style="fill: #f7fbff"/>
    <path d="M 359.667995 350.063132 
L 340.705185 345.942605 
L 335.750616 350.44646 
z
" clip-path="url(#paa72a7b9b5)" style="fill: #f6faff"/>
    <path d="M 247.045029 327.537538 
L 228.643657 346.247453 
L 265.771152 344.18651 
z
" clip-path="url(#paa72a7b9b5)" style="fill: #e9f2fa"/>
    <path d="M 364.829267 345.314687 
L 383.844597 352.417239 
L 384.520254 351.78697 
z
" clip-path="url(#paa72a7b9b5)" style="fill: #f6faff"/>
    <path d="M 364.829267 345.314687 
L 359.667995 350.063132 
L 383.844597 352.417239 
z
" clip-path="url(#paa72a7b9b5)" style="fill: #f5fafe"/>
    <path d="M 191.007425 311.988107 
L 209.732003 295.929633 
L 172.112027 289.925516 
z
" clip-path="url(#paa72a7b9b5)" style="fill: #a9cfe5"/>
    <path d="M 303.315126 345.882104 
L 316.912698 333.752895 
L 298.126736 326.622403 
z
" clip-path="url(#paa72a7b9b5)" style="fill: #e3eef8"/>
    <path d="M 416.042766 343.365741 
L 410.918066 350.581221 
L 430.136052 356.220589 
z
" clip-path="url(#paa72a7b9b5)" style="fill: #f6faff"/>
    <path d="M 416.042766 343.365741 
L 430.136052 356.220589 
L 435.17334 351.395392 
z
" clip-path="url(#paa72a7b9b5)" style="fill: #f6faff"/>
    <path d="M 210.208445 350.46822 
L 228.643657 346.247453 
L 247.045029 327.537538 
z
" clip-path="url(#paa72a7b9b5)" style="fill: #eaf2fb"/>
    <path d="M 151.028469 193.391923 
L 137.024419 328.263465 
L 115.288215 345.987928 
z
" clip-path="url(#paa72a7b9b5)" style="fill: #91c3de"/>
    <path d="M 359.667995 350.063132 
L 335.750616 350.44646 
L 354.730282 356.084978 
z
" clip-path="url(#paa72a7b9b5)" style="fill: #f6faff"/>
    <path d="M 384.520254 351.78697 
L 403.667983 357.433952 
L 410.918066 350.581221 
z
" clip-path="url(#paa72a7b9b5)" style="fill: #f7fbff"/>
    <path d="M 335.750616 350.44646 
L 316.912698 333.752895 
L 303.315126 345.882104 
z
" clip-path="url(#paa72a7b9b5)" style="fill: #eaf3fb"/>
    <path d="M 298.126736 326.622403 
L 284.439618 338.6685 
L 303.315126 345.882104 
z
" clip-path="url(#paa72a7b9b5)" style="fill: #e2edf8"/>
    <path d="M 383.844597 352.417239 
L 359.667995 350.063132 
L 378.719306 357.198231 
z
" clip-path="url(#paa72a7b9b5)" style="fill: #f6faff"/>
    <path d="M 170.422797 180.013043 
L 172.112027 289.925516 
L 191.014843 274.590019 
z
" clip-path="url(#paa72a7b9b5)" style="fill: #2f7fbc"/>
    <path d="M 402.996955 358.068203 
L 384.520254 351.78697 
L 383.844597 352.417239 
z
" clip-path="url(#paa72a7b9b5)" style="fill: #f7fbff"/>
    <path d="M 430.136052 356.220589 
L 410.918066 350.581221 
L 403.667983 357.433952 
z
" clip-path="url(#paa72a7b9b5)" style="fill: #f7fbff"/>
    <path d="M 403.667983 357.433952 
L 384.520254 351.78697 
L 402.996955 358.068203 
z
" clip-path="url(#paa72a7b9b5)" style="fill: #f7fbff"/>
    <path d="M 265.771152 344.18651 
L 228.643657 346.247453 
L 247.494508 361.781179 
z
" clip-path="url(#paa72a7b9b5)" style="fill: #f1f7fd"/>
    <path d="M 402.996955 358.068203 
L 383.844597 352.417239 
L 378.719306 357.198231 
z
" clip-path="url(#paa72a7b9b5)" style="fill: #f7fbff"/>
    <path d="M 435.17334 351.395392 
L 430.136052 356.220589 
L 449.475551 361.895614 
z
" clip-path="url(#paa72a7b9b5)" style="fill: #f7fbff"/>
    <path d="M 359.667995 350.063132 
L 354.730282 356.084978 
L 373.829944 361.759144 
z
" clip-path="url(#paa72a7b9b5)" style="fill: #f6faff"/>
    <path d="M 449.475551 361.895614 
L 454.476573 357.039901 
L 435.17334 351.395392 
z
" clip-path="url(#paa72a7b9b5)" style="fill: #f7fbff"/>
    <path d="M 373.829944 361.759144 
L 378.719306 357.198231 
L 359.667995 350.063132 
z
" clip-path="url(#paa72a7b9b5)" style="fill: #f6faff"/>
    <path d="M 115.288215 345.987928 
L 115.597946 228.76886 
L 93.312507 245.750139 
z
" clip-path="url(#paa72a7b9b5)" style="fill: #5aa2cf"/>
    <path d="M 303.315126 345.882104 
L 322.268649 362.701979 
L 335.750616 350.44646 
z
" clip-path="url(#paa72a7b9b5)" style="fill: #f1f7fd"/>
    <path d="M 266.211658 354.282899 
L 284.439618 338.6685 
L 265.771152 344.18651 
z
" clip-path="url(#paa72a7b9b5)" style="fill: #e7f1fa"/>
    <path d="M 341.335949 368.418124 
L 354.730282 356.084978 
L 335.750616 350.44646 
z
" clip-path="url(#paa72a7b9b5)" style="fill: #f7fbff"/>
    <path d="M 170.422797 180.013043 
L 137.024419 328.263465 
L 151.028469 193.391923 
z
" clip-path="url(#paa72a7b9b5)" style="fill: #1460a8"/>
    <path d="M 403.667983 357.433952 
L 422.936862 363.116664 
L 430.136052 356.220589 
z
" clip-path="url(#paa72a7b9b5)" style="fill: #f7fbff"/>
    <path d="M 378.719306 357.198231 
L 397.906732 362.879449 
L 402.996955 358.068203 
z
" clip-path="url(#paa72a7b9b5)" style="fill: #f7fbff"/>
    <path d="M 422.936862 363.116664 
L 403.667983 357.433952 
L 402.996955 358.068203 
z
" clip-path="url(#paa72a7b9b5)" style="fill: #f7fbff"/>
    <path d="M 247.494508 361.781179 
L 266.211658 354.282899 
L 265.771152 344.18651 
z
" clip-path="url(#paa72a7b9b5)" style="fill: #eef5fc"/>
    <path d="M 422.936862 363.116664 
L 449.475551 361.895614 
L 430.136052 356.220589 
z
" clip-path="url(#paa72a7b9b5)" style="fill: #f7fbff"/>
    <path d="M 191.007425 311.988107 
L 169.473212 329.830593 
L 210.208445 350.46822 
z
" clip-path="url(#paa72a7b9b5)" style="fill: #d1e2f3"/>
    <path d="M 335.750616 350.44646 
L 322.268649 362.701979 
L 341.335949 368.418124 
z
" clip-path="url(#paa72a7b9b5)" style="fill: #f7fbff"/>
    <path d="M 473.901912 362.720115 
L 454.476573 357.039901 
L 449.475551 361.895614 
z
" clip-path="url(#paa72a7b9b5)" style="fill: #f7fbff"/>
    <path d="M 397.906732 362.879449 
L 378.719306 357.198231 
L 373.829944 361.759144 
z
" clip-path="url(#paa72a7b9b5)" style="fill: #f7fbff"/>
    <path d="M 402.996955 358.068203 
L 422.270536 363.754935 
L 422.936862 363.116664 
z
" clip-path="url(#paa72a7b9b5)" style="fill: #f7fbff"/>
    <path d="M 172.112027 289.925516 
L 169.473212 329.830593 
L 191.007425 311.988107 
z
" clip-path="url(#paa72a7b9b5)" style="fill: #a9cfe5"/>
    <path d="M 207.45396 364.47263 
L 228.643657 346.247453 
L 210.208445 350.46822 
z
" clip-path="url(#paa72a7b9b5)" style="fill: #ecf4fb"/>
    <path d="M 402.996955 358.068203 
L 397.906732 362.879449 
L 417.215929 368.596722 
z
" clip-path="url(#paa72a7b9b5)" style="fill: #f7fbff"/>
    <path d="M 417.215929 368.596722 
L 422.270536 363.754935 
L 402.996955 358.068203 
z
" clip-path="url(#paa72a7b9b5)" style="fill: #f7fbff"/>
    <path d="M 354.730282 356.084978 
L 360.524629 374.170657 
L 373.829944 361.759144 
z
" clip-path="url(#paa72a7b9b5)" style="fill: #f7fbff"/>
    <path d="M 373.829944 361.759144 
L 393.050745 367.469297 
L 397.906732 362.879449 
z
" clip-path="url(#paa72a7b9b5)" style="fill: #f7fbff"/>
    <path d="M 449.475551 361.895614 
L 468.937718 367.606634 
L 473.901912 362.720115 
z
" clip-path="url(#paa72a7b9b5)" style="fill: #f7fbff"/>
    <path d="M 284.439618 338.6685 
L 285.214197 363.317664 
L 303.315126 345.882104 
z
" clip-path="url(#paa72a7b9b5)" style="fill: #e3eef9"/>
    <path d="M 210.208445 350.46822 
L 169.473212 329.830593 
L 188.939699 368.643203 
z
" clip-path="url(#paa72a7b9b5)" style="fill: #e4eff9"/>
    <path d="M 422.936862 363.116664 
L 442.328045 368.835444 
L 449.475551 361.895614 
z
" clip-path="url(#paa72a7b9b5)" style="fill: #f7fbff"/>
    <path d="M 442.328045 368.835444 
L 422.936862 363.116664 
L 422.270536 363.754935 
z
" clip-path="url(#paa72a7b9b5)" style="fill: #f7fbff"/>
    <path d="M 188.939699 368.643203 
L 207.45396 364.47263 
L 210.208445 350.46822 
z
" clip-path="url(#paa72a7b9b5)" style="fill: #f2f7fd"/>
    <path d="M 341.335949 368.418124 
L 360.524629 374.170657 
L 354.730282 356.084978 
z
" clip-path="url(#paa72a7b9b5)" style="fill: #f7fbff"/>
    <path d="M 303.315126 345.882104 
L 285.214197 363.317664 
L 322.268649 362.701979 
z
" clip-path="url(#paa72a7b9b5)" style="fill: #ebf3fb"/>
    <path d="M 228.643657 346.247453 
L 226.471066 380.187891 
L 247.494508 361.781179 
z
" clip-path="url(#paa72a7b9b5)" style="fill: #f2f7fd"/>
    <path d="M 422.270536 363.754935 
L 441.666493 369.477774 
L 442.328045 368.835444 
z
" clip-path="url(#paa72a7b9b5)" style="fill: #f7fbff"/>
    <path d="M 373.829944 361.759144 
L 360.524629 374.170657 
L 393.050745 367.469297 
z
" clip-path="url(#paa72a7b9b5)" style="fill: #f7fbff"/>
    <path d="M 397.906732 362.879449 
L 393.050745 367.469297 
L 412.393838 373.215782 
z
" clip-path="url(#paa72a7b9b5)" style="fill: #f7fbff"/>
    <path d="M 473.901912 362.720115 
L 468.937718 367.606634 
L 488.523724 373.353995 
z
" clip-path="url(#paa72a7b9b5)" style="fill: #f7fbff"/>
    <path d="M 151.028469 193.391923 
L 172.112027 289.925516 
L 170.422797 180.013043 
z
" clip-path="url(#paa72a7b9b5)" style="fill: #083a7a"/>
    <path d="M 468.937718 367.606634 
L 449.475551 361.895614 
L 461.842698 374.590639 
z
" clip-path="url(#paa72a7b9b5)" style="fill: #f7fbff"/>
    <path d="M 488.523724 373.353995 
L 493.45052 368.436375 
L 473.901912 362.720115 
z
" clip-path="url(#paa72a7b9b5)" style="fill: #f7fbff"/>
    <path d="M 412.393838 373.215782 
L 417.215929 368.596722 
L 397.906732 362.879449 
z
" clip-path="url(#paa72a7b9b5)" style="fill: #f7fbff"/>
    <path d="M 284.439618 338.6685 
L 266.211658 354.282899 
L 285.214197 363.317664 
z
" clip-path="url(#paa72a7b9b5)" style="fill: #e2edf8"/>
    <path d="M 449.475551 361.895614 
L 442.328045 368.835444 
L 461.842698 374.590639 
z
" clip-path="url(#paa72a7b9b5)" style="fill: #f7fbff"/>
    <path d="M 150.384193 307.544031 
L 169.473212 329.830593 
L 172.112027 289.925516 
z
" clip-path="url(#paa72a7b9b5)" style="fill: #99c7e0"/>
    <path d="M 417.215929 368.596722 
L 436.648059 374.350394 
L 422.270536 363.754935 
z
" clip-path="url(#paa72a7b9b5)" style="fill: #f7fbff"/>
    <path d="M 436.648059 374.350394 
L 441.666493 369.477774 
L 422.270536 363.754935 
z
" clip-path="url(#paa72a7b9b5)" style="fill: #f7fbff"/>
    <path d="M 442.328045 368.835444 
L 441.666493 369.477774 
L 461.185996 375.237065 
z
" clip-path="url(#paa72a7b9b5)" style="fill: #f7fbff"/>
    <path d="M 461.842698 374.590639 
L 488.523724 373.353995 
L 468.937718 367.606634 
z
" clip-path="url(#paa72a7b9b5)" style="fill: #f7fbff"/>
    <path d="M 341.335949 368.418124 
L 322.268649 362.701979 
L 323.49918 384.841746 
z
" clip-path="url(#paa72a7b9b5)" style="fill: #f7fbff"/>
    <path d="M 436.648059 374.350394 
L 417.215929 368.596722 
L 412.393838 373.215782 
z
" clip-path="url(#paa72a7b9b5)" style="fill: #f7fbff"/>
    <path d="M 228.643657 346.247453 
L 207.45396 364.47263 
L 226.471066 380.187891 
z
" clip-path="url(#paa72a7b9b5)" style="fill: #ecf4fb"/>
    <path d="M 322.268649 362.701979 
L 285.214197 363.317664 
L 304.316087 379.021406 
z
" clip-path="url(#paa72a7b9b5)" style="fill: #f2f7fd"/>
    <path d="M 461.185996 375.237065 
L 461.842698 374.590639 
L 442.328045 368.835444 
z
" clip-path="url(#paa72a7b9b5)" style="fill: #f7fbff"/>
    <path d="M 461.185996 375.237065 
L 441.666493 369.477774 
L 436.648059 374.350394 
z
" clip-path="url(#paa72a7b9b5)" style="fill: #f7fbff"/>
    <path d="M 493.45052 368.436375 
L 488.523724 373.353995 
L 508.234754 379.138043 
z
" clip-path="url(#paa72a7b9b5)" style="fill: #f7fbff"/>
    <path d="M 393.050745 367.469297 
L 360.524629 374.170657 
L 379.835853 379.959928 
z
" clip-path="url(#paa72a7b9b5)" style="fill: #f7fbff"/>
    <path d="M 508.234754 379.138043 
L 513.123575 374.189025 
L 493.45052 368.436375 
z
" clip-path="url(#paa72a7b9b5)" style="fill: #f7fbff"/>
    <path d="M 245.258277 372.719666 
L 266.211658 354.282899 
L 247.494508 361.781179 
z
" clip-path="url(#paa72a7b9b5)" style="fill: #e8f1fa"/>
    <path d="M 399.270798 385.786288 
L 412.393838 373.215782 
L 393.050745 367.469297 
z
" clip-path="url(#paa72a7b9b5)" style="fill: #f7fbff"/>
    <path d="M 412.393838 373.215782 
L 431.860397 378.998947 
L 436.648059 374.350394 
z
" clip-path="url(#paa72a7b9b5)" style="fill: #f7fbff"/>
    <path d="M 323.49918 384.841746 
L 322.268649 362.701979 
L 304.316087 379.021406 
z
" clip-path="url(#paa72a7b9b5)" style="fill: #f7fbff"/>
    <path d="M 341.335949 368.418124 
L 323.49918 384.841746 
L 360.524629 374.170657 
z
" clip-path="url(#paa72a7b9b5)" style="fill: #f7fbff"/>
    <path d="M 461.842698 374.590639 
L 481.482007 380.382596 
L 488.523724 373.353995 
z
" clip-path="url(#paa72a7b9b5)" style="fill: #f7fbff"/>
    <path d="M 115.288215 345.987928 
L 128.768042 210.267512 
L 151.028469 193.391923 
z
" clip-path="url(#paa72a7b9b5)" style="fill: #135fa7"/>
    <path d="M 461.185996 375.237065 
L 436.648059 374.350394 
L 456.204299 380.140814 
z
" clip-path="url(#paa72a7b9b5)" style="fill: #f7fbff"/>
    <path d="M 481.482007 380.382596 
L 461.842698 374.590639 
L 461.185996 375.237065 
z
" clip-path="url(#paa72a7b9b5)" style="fill: #f7fbff"/>
    <path d="M 128.768042 210.267512 
L 150.384193 307.544031 
L 172.112027 289.925516 
z
" clip-path="url(#paa72a7b9b5)" style="fill: #2e7ebc"/>
    <path d="M 247.494508 361.781179 
L 226.471066 380.187891 
L 245.258277 372.719666 
z
" clip-path="url(#paa72a7b9b5)" style="fill: #f0f6fd"/>
    <path d="M 393.050745 367.469297 
L 379.835853 379.959928 
L 399.270798 385.786288 
z
" clip-path="url(#paa72a7b9b5)" style="fill: #f7fbff"/>
    <path d="M 532.922268 379.978413 
L 513.123575 374.189025 
L 508.234754 379.138043 
z
" clip-path="url(#paa72a7b9b5)" style="fill: #f7fbff"/>
    <path d="M 461.185996 375.237065 
L 480.830229 381.033159 
L 481.482007 380.382596 
z
" clip-path="url(#paa72a7b9b5)" style="fill: #f7fbff"/>
    <path d="M 431.860397 378.998947 
L 412.393838 373.215782 
L 399.270798 385.786288 
z
" clip-path="url(#paa72a7b9b5)" style="fill: #f7fbff"/>
    <path d="M 436.648059 374.350394 
L 431.860397 378.998947 
L 451.451606 384.819142 
z
" clip-path="url(#paa72a7b9b5)" style="fill: #f7fbff"/>
    <path d="M 501.247168 386.211669 
L 508.234754 379.138043 
L 488.523724 373.353995 
z
" clip-path="url(#paa72a7b9b5)" style="fill: #f7fbff"/>
    <path d="M 451.451606 384.819142 
L 456.204299 380.140814 
L 436.648059 374.350394 
z
" clip-path="url(#paa72a7b9b5)" style="fill: #f7fbff"/>
    <path d="M 151.028469 193.391923 
L 128.768042 210.267512 
L 172.112027 289.925516 
z
" clip-path="url(#paa72a7b9b5)" style="fill: #083979"/>
    <path d="M 285.214197 363.317664 
L 266.211658 354.282899 
L 245.258277 372.719666 
z
" clip-path="url(#paa72a7b9b5)" style="fill: #e2edf8"/>
    <path d="M 488.523724 373.353995 
L 481.482007 380.382596 
L 501.247168 386.211669 
z
" clip-path="url(#paa72a7b9b5)" style="fill: #f7fbff"/>
    <path d="M 456.204299 380.140814 
L 475.885844 385.968336 
L 461.185996 375.237065 
z
" clip-path="url(#paa72a7b9b5)" style="fill: #f7fbff"/>
    <path d="M 475.885844 385.968336 
L 480.830229 381.033159 
L 461.185996 375.237065 
z
" clip-path="url(#paa72a7b9b5)" style="fill: #f7fbff"/>
    <path d="M 528.072011 384.95913 
L 532.922268 379.978413 
L 508.234754 379.138043 
z
" clip-path="url(#paa72a7b9b5)" style="fill: #f7fbff"/>
    <path d="M 480.830229 381.033159 
L 501.247168 386.211669 
L 481.482007 380.382596 
z
" clip-path="url(#paa72a7b9b5)" style="fill: #f7fbff"/>
    <path d="M 360.524629 374.170657 
L 323.49918 384.841746 
L 342.805505 390.699475 
z
" clip-path="url(#paa72a7b9b5)" style="fill: #f7fbff"/>
    <path d="M 528.072011 384.95913 
L 508.234754 379.138043 
L 501.247168 386.211669 
z
" clip-path="url(#paa72a7b9b5)" style="fill: #f7fbff"/>
    <path d="M 379.835853 379.959928 
L 360.524629 374.170657 
L 362.236253 396.594956 
z
" clip-path="url(#paa72a7b9b5)" style="fill: #f7fbff"/>
    <path d="M 475.885844 385.968336 
L 456.204299 380.140814 
L 451.451606 384.819142 
z
" clip-path="url(#paa72a7b9b5)" style="fill: #f7fbff"/>
    <path d="M 304.316087 379.021406 
L 285.214197 363.317664 
L 283.675742 397.784109 
z
" clip-path="url(#paa72a7b9b5)" style="fill: #f2f7fd"/>
    <path d="M 500.600392 386.866409 
L 501.247168 386.211669 
L 480.830229 381.033159 
z
" clip-path="url(#paa72a7b9b5)" style="fill: #f7fbff"/>
    <path d="M 399.270798 385.786288 
L 418.830658 391.650097 
L 431.860397 378.998947 
z
" clip-path="url(#paa72a7b9b5)" style="fill: #f7fbff"/>
    <path d="M 475.885844 385.968336 
L 495.6939 391.833316 
L 480.830229 381.033159 
z
" clip-path="url(#paa72a7b9b5)" style="fill: #f7fbff"/>
    <path d="M 480.830229 381.033159 
L 495.6939 391.833316 
L 500.600392 386.866409 
z
" clip-path="url(#paa72a7b9b5)" style="fill: #f7fbff"/>
    <path d="M 438.51664 397.551715 
L 451.451606 384.819142 
L 431.860397 378.998947 
z
" clip-path="url(#paa72a7b9b5)" style="fill: #f7fbff"/>
    <path d="M 451.451606 384.819142 
L 471.168666 390.676726 
L 475.885844 385.968336 
z
" clip-path="url(#paa72a7b9b5)" style="fill: #f7fbff"/>
    <path d="M 362.236253 396.594956 
L 360.524629 374.170657 
L 342.805505 390.699475 
z
" clip-path="url(#paa72a7b9b5)" style="fill: #f7fbff"/>
    <path d="M 304.316087 379.021406 
L 283.675742 397.784109 
L 323.49918 384.841746 
z
" clip-path="url(#paa72a7b9b5)" style="fill: #f7fbff"/>
    <path d="M 399.270798 385.786288 
L 379.835853 379.959928 
L 362.236253 396.594956 
z
" clip-path="url(#paa72a7b9b5)" style="fill: #f7fbff"/>
    <path d="M 264.402922 381.894879 
L 285.214197 363.317664 
L 245.258277 372.719666 
z
" clip-path="url(#paa72a7b9b5)" style="fill: #e4eff9"/>
    <path d="M 501.247168 386.211669 
L 521.139396 392.078216 
L 528.072011 384.95913 
z
" clip-path="url(#paa72a7b9b5)" style="fill: #f7fbff"/>
    <path d="M 501.247168 386.211669 
L 500.600392 386.866409 
L 520.497699 392.737173 
z
" clip-path="url(#paa72a7b9b5)" style="fill: #f7fbff"/>
    <path d="M 431.860397 378.998947 
L 418.830658 391.650097 
L 438.51664 397.551715 
z
" clip-path="url(#paa72a7b9b5)" style="fill: #f7fbff"/>
    <path d="M 495.6939 391.833316 
L 475.885844 385.968336 
L 471.168666 390.676726 
z
" clip-path="url(#paa72a7b9b5)" style="fill: #f7fbff"/>
    <path d="M 283.675742 397.784109 
L 285.214197 363.317664 
L 264.402922 381.894879 
z
" clip-path="url(#paa72a7b9b5)" style="fill: #ecf4fb"/>
    <path d="M 501.247168 386.211669 
L 520.497699 392.737173 
L 521.139396 392.078216 
z
" clip-path="url(#paa72a7b9b5)" style="fill: #f7fbff"/>
    <path d="M 520.497699 392.737173 
L 500.600392 386.866409 
L 495.6939 391.833316 
z
" clip-path="url(#paa72a7b9b5)" style="fill: #f7fbff"/>
    <path d="M 471.168666 390.676726 
L 451.451606 384.819142 
L 438.51664 397.551715 
z
" clip-path="url(#paa72a7b9b5)" style="fill: #f7fbff"/>
    <path d="M 495.6939 391.833316 
L 471.168666 390.676726 
L 491.012795 396.57206 
z
" clip-path="url(#paa72a7b9b5)" style="fill: #f7fbff"/>
    <path d="M 515.629692 397.736118 
L 520.497699 392.737173 
L 495.6939 391.833316 
z
" clip-path="url(#paa72a7b9b5)" style="fill: #f7fbff"/>
    <path d="M 362.236253 396.594956 
L 381.79263 402.528554 
L 399.270798 385.786288 
z
" clip-path="url(#paa72a7b9b5)" style="fill: #f7fbff"/>
    <path d="M 322.431023 409.705275 
L 342.805505 390.699475 
L 323.49918 384.841746 
z
" clip-path="url(#paa72a7b9b5)" style="fill: #f7fbff"/>
    <path d="M 401.475859 408.500639 
L 418.830658 391.650097 
L 399.270798 385.786288 
z
" clip-path="url(#paa72a7b9b5)" style="fill: #f7fbff"/>
    <path d="M 323.49918 384.841746 
L 283.675742 397.784109 
L 302.990699 403.72541 
z
" clip-path="url(#paa72a7b9b5)" style="fill: #f7fbff"/>
    <path d="M 491.012795 396.57206 
L 510.985225 402.505509 
L 495.6939 391.833316 
z
" clip-path="url(#paa72a7b9b5)" style="fill: #f7fbff"/>
    <path d="M 438.51664 397.551715 
L 458.329969 403.49151 
L 471.168666 390.676726 
z
" clip-path="url(#paa72a7b9b5)" style="fill: #f7fbff"/>
    <path d="M 495.6939 391.833316 
L 510.985225 402.505509 
L 515.629692 397.736118 
z
" clip-path="url(#paa72a7b9b5)" style="fill: #f7fbff"/>
    <path d="M 471.168666 390.676726 
L 478.271883 409.469854 
L 491.012795 396.57206 
z
" clip-path="url(#paa72a7b9b5)" style="fill: #f7fbff"/>
    <path d="M 399.270798 385.786288 
L 381.79263 402.528554 
L 401.475859 408.500639 
z
" clip-path="url(#paa72a7b9b5)" style="fill: #f7fbff"/>
    <path d="M 362.236253 396.594956 
L 342.805505 390.699475 
L 322.431023 409.705275 
z
" clip-path="url(#paa72a7b9b5)" style="fill: #f7fbff"/>
    <path d="M 438.51664 397.551715 
L 418.830658 391.650097 
L 401.475859 408.500639 
z
" clip-path="url(#paa72a7b9b5)" style="fill: #f7fbff"/>
    <path d="M 302.990699 403.72541 
L 322.431023 409.705275 
L 323.49918 384.841746 
z
" clip-path="url(#paa72a7b9b5)" style="fill: #f7fbff"/>
    <path d="M 458.329969 403.49151 
L 478.271883 409.469854 
L 471.168666 390.676726 
z
" clip-path="url(#paa72a7b9b5)" style="fill: #f7fbff"/>
    <path d="M 478.271883 409.469854 
L 510.985225 402.505509 
L 491.012795 396.57206 
z
" clip-path="url(#paa72a7b9b5)" style="fill: #f7fbff"/>
    <path d="M 401.475859 408.500639 
L 421.287178 414.511589 
L 438.51664 397.551715 
z
" clip-path="url(#paa72a7b9b5)" style="fill: #f7fbff"/>
    <path d="M 361.692689 421.782204 
L 381.79263 402.528554 
L 362.236253 396.594956 
z
" clip-path="url(#paa72a7b9b5)" style="fill: #f7fbff"/>
    <path d="M 441.227841 420.561783 
L 458.329969 403.49151 
L 438.51664 397.551715 
z
" clip-path="url(#paa72a7b9b5)" style="fill: #f7fbff"/>
    <path d="M 322.431023 409.705275 
L 341.99794 415.724079 
L 362.236253 396.594956 
z
" clip-path="url(#paa72a7b9b5)" style="fill: #f7fbff"/>
    <path d="M 498.343639 415.487123 
L 510.985225 402.505509 
L 478.271883 409.469854 
z
" clip-path="url(#paa72a7b9b5)" style="fill: #f7fbff"/>
    <path d="M 438.51664 397.551715 
L 421.287178 414.511589 
L 441.227841 420.561783 
z
" clip-path="url(#paa72a7b9b5)" style="fill: #f7fbff"/>
    <path d="M 401.475859 408.500639 
L 381.79263 402.528554 
L 361.692689 421.782204 
z
" clip-path="url(#paa72a7b9b5)" style="fill: #f7fbff"/>
    <path d="M 441.227841 420.561783 
L 478.271883 409.469854 
L 458.329969 403.49151 
z
" clip-path="url(#paa72a7b9b5)" style="fill: #f7fbff"/>
    <path d="M 362.236253 396.594956 
L 341.99794 415.724079 
L 361.692689 421.782204 
z
" clip-path="url(#paa72a7b9b5)" style="fill: #f7fbff"/>
    <path d="M 498.343639 415.487123 
L 478.271883 409.469854 
L 461.29912 426.651607 
z
" clip-path="url(#paa72a7b9b5)" style="fill: #f7fbff"/>
    <path d="M 441.227841 420.561783 
L 461.29912 426.651607 
L 478.271883 409.469854 
z
" clip-path="url(#paa72a7b9b5)" style="fill: #f7fbff"/>
    <path d="M 401.470728 434.017971 
L 421.287178 414.511589 
L 401.475859 408.500639 
z
" clip-path="url(#paa72a7b9b5)" style="fill: #f7fbff"/>
    <path d="M 361.692689 421.782204 
L 381.516527 427.880038 
L 401.475859 408.500639 
z
" clip-path="url(#paa72a7b9b5)" style="fill: #f7fbff"/>
    <path d="M 441.227841 420.561783 
L 421.287178 414.511589 
L 401.470728 434.017971 
z
" clip-path="url(#paa72a7b9b5)" style="fill: #f7fbff"/>
    <path d="M 401.475859 408.500639 
L 381.516527 427.880038 
L 401.470728 434.017971 
z
" clip-path="url(#paa72a7b9b5)" style="fill: #f7fbff"/>
    <path d="M 461.29912 426.651607 
L 481.502302 432.781451 
L 498.343639 415.487123 
z
" clip-path="url(#paa72a7b9b5)" style="fill: #f7fbff"/>
    <path d="M 441.775397 446.41573 
L 461.29912 426.651607 
L 441.227841 420.561783 
z
" clip-path="url(#paa72a7b9b5)" style="fill: #f7fbff"/>
    <path d="M 401.470728 434.017971 
L 421.556583 440.196401 
L 441.227841 420.561783 
z
" clip-path="url(#paa72a7b9b5)" style="fill: #f7fbff"/>
    <path d="M 421.556583 440.196401 
L 441.775397 446.41573 
L 441.227841 420.561783 
z
" clip-path="url(#paa72a7b9b5)" style="fill: #f7fbff"/>
    <path d="M 462.128496 452.676365 
L 481.502302 432.781451 
L 461.29912 426.651607 
z
" clip-path="url(#paa72a7b9b5)" style="fill: #f7fbff"/>
    <path d="M 461.29912 426.651607 
L 441.775397 446.41573 
L 462.128496 452.676365 
z
" clip-path="url(#paa72a7b9b5)" style="fill: #f7fbff"/>
   </g>
  </g>
 </g>
 <defs>
  <clipPath id="paa72a7b9b5">
   <rect x="21.6" y="21.6" width="554.4" height="554.4"/>
  </clipPath>
 </defs>
</svg>
