<?xml version="1.0" encoding="utf-8" standalone="no"?>
<!DOCTYPE svg PUBLIC "-//W3C//DTD SVG 1.1//EN"
  "http://www.w3.org/Graphics/SVG/1.1/DTD/svg11.dtd">
<svg xmlns:xlink="http://www.w3.org/1999/xlink" width="619.2pt" height="410.4pt" viewBox="0 0 619.2 410.4" xmlns="http://www.w3.org/2000/svg" version="1.1">
 <metadata>
  <rdf:RDF xmlns:dc="http://purl.org/dc/elements/1.1/" xmlns:cc="http://creativecommons.org/ns#" xmlns:rdf="http://www.w3.org/1999/02/22-rdf-syntax-ns#">
   <cc:Work>
    <dc:type rdf:resource="http://purl.org/dc/dcmitype/StillImage"/>
    <dc:date/>
    <dc:format>image/svg+xml</dc:format>
    <dc:creator>
     <cc:Agent>
      <dc:title>Matplotlib v3.6.2, https://matplotlib.org/</dc:title>
     </cc:Agent>
    </dc:creator>
   </cc:Work>
  </rdf:RDF>
 </metadata>
 <defs>
  <style type="text/css">*{stroke-linejoin: round; stroke-linecap: butt}</style>
 </defs>
 <g id="figure_1">
  <g id="patch_1">
   <path d="M 0 410.4 
L 619.2 410.4 
L 619.2 0 
L 0 0 
z
" style="fill: #ffffff"/>
  </g>
  <g id="patch_2">
   <path d="M -1.8 475.2 
L 552.6 475.2 
L 552.6 -79.2 
L -1.8 -79.2 
z
" style="fill: #ffffff"/>
  </g>
  <g id="pane3d_1">
   <g id="patch_3">
    <path d="M 17.912472 259.663759 
L 144.831956 158.740656 
L 140.848407 8.057576 
L 9.798586 102.842949 
" style="fill: #f2f2f2; opacity: 0.5; stroke: #f2f2f2; stroke-linejoin: miter"/>
   </g>
  </g>
  <g id="pane3d_2">
   <g id="patch_4">
    <path d="M 144.831956 158.740656 
L 550.329769 276.357828 
L 558.597262 118.553145 
L 140.848407 8.057576 
" style="fill: #e6e6e6; opacity: 0.5; stroke: #e6e6e6; stroke-linejoin: miter"/>
   </g>
  </g>
  <g id="pane3d_3">
   <g id="patch_5">
    <path d="M 17.912472 259.663759 
L 439.930816 392.219825 
L 550.329769 276.357828 
L 144.831956 158.740656 
" style="fill: #ececec; opacity: 0.5; stroke: #ececec; stroke-linejoin: miter"/>
   </g>
  </g>
  <g id="axis3d_1">
   <g id="line2d_1">
    <path d="M 17.912472 259.663759 
L 439.930816 392.219825 
" style="fill: none; stroke: #000000; stroke-width: 0.8; stroke-linecap: square"/>
   </g>
   <g id="text_1">
    <!-- Python version -->
    <g transform="translate(164.36057 342.467396) rotate(-342.562483) scale(0.12 -0.12)">
     <defs>
      <path id="DejaVuSans-50" d="M 1259 4147 
L 1259 2394 
L 2053 2394 
Q 2494 2394 2734 2622 
Q 2975 2850 2975 3272 
Q 2975 3691 2734 3919 
Q 2494 4147 2053 4147 
L 1259 4147 
z
M 628 4666 
L 2053 4666 
Q 2838 4666 3239 4311 
Q 3641 3956 3641 3272 
Q 3641 2581 3239 2228 
Q 2838 1875 2053 1875 
L 1259 1875 
L 1259 0 
L 628 0 
L 628 4666 
z
" transform="scale(0.015625)"/>
      <path id="DejaVuSans-79" d="M 2059 -325 
Q 1816 -950 1584 -1140 
Q 1353 -1331 966 -1331 
L 506 -1331 
L 506 -850 
L 844 -850 
Q 1081 -850 1212 -737 
Q 1344 -625 1503 -206 
L 1606 56 
L 191 3500 
L 800 3500 
L 1894 763 
L 2988 3500 
L 3597 3500 
L 2059 -325 
z
" transform="scale(0.015625)"/>
      <path id="DejaVuSans-74" d="M 1172 4494 
L 1172 3500 
L 2356 3500 
L 2356 3053 
L 1172 3053 
L 1172 1153 
Q 1172 725 1289 603 
Q 1406 481 1766 481 
L 2356 481 
L 2356 0 
L 1766 0 
Q 1100 0 847 248 
Q 594 497 594 1153 
L 594 3053 
L 172 3053 
L 172 3500 
L 594 3500 
L 594 4494 
L 1172 4494 
z
" transform="scale(0.015625)"/>
      <path id="DejaVuSans-68" d="M 3513 2113 
L 3513 0 
L 2938 0 
L 2938 2094 
Q 2938 2591 2744 2837 
Q 2550 3084 2163 3084 
Q 1697 3084 1428 2787 
Q 1159 2491 1159 1978 
L 1159 0 
L 581 0 
L 581 4863 
L 1159 4863 
L 1159 2956 
Q 1366 3272 1645 3428 
Q 1925 3584 2291 3584 
Q 2894 3584 3203 3211 
Q 3513 2838 3513 2113 
z
" transform="scale(0.015625)"/>
      <path id="DejaVuSans-6f" d="M 1959 3097 
Q 1497 3097 1228 2736 
Q 959 2375 959 1747 
Q 959 1119 1226 758 
Q 1494 397 1959 397 
Q 2419 397 2687 759 
Q 2956 1122 2956 1747 
Q 2956 2369 2687 2733 
Q 2419 3097 1959 3097 
z
M 1959 3584 
Q 2709 3584 3137 3096 
Q 3566 2609 3566 1747 
Q 3566 888 3137 398 
Q 2709 -91 1959 -91 
Q 1206 -91 779 398 
Q 353 888 353 1747 
Q 353 2609 779 3096 
Q 1206 3584 1959 3584 
z
" transform="scale(0.015625)"/>
      <path id="DejaVuSans-6e" d="M 3513 2113 
L 3513 0 
L 2938 0 
L 2938 2094 
Q 2938 2591 2744 2837 
Q 2550 3084 2163 3084 
Q 1697 3084 1428 2787 
Q 1159 2491 1159 1978 
L 1159 0 
L 581 0 
L 581 3500 
L 1159 3500 
L 1159 2956 
Q 1366 3272 1645 3428 
Q 1925 3584 2291 3584 
Q 2894 3584 3203 3211 
Q 3513 2838 3513 2113 
z
" transform="scale(0.015625)"/>
      <path id="DejaVuSans-20" transform="scale(0.015625)"/>
      <path id="DejaVuSans-76" d="M 191 3500 
L 800 3500 
L 1894 563 
L 2988 3500 
L 3597 3500 
L 2284 0 
L 1503 0 
L 191 3500 
z
" transform="scale(0.015625)"/>
      <path id="DejaVuSans-65" d="M 3597 1894 
L 3597 1613 
L 953 1613 
Q 991 1019 1311 708 
Q 1631 397 2203 397 
Q 2534 397 2845 478 
Q 3156 559 3463 722 
L 3463 178 
Q 3153 47 2828 -22 
Q 2503 -91 2169 -91 
Q 1331 -91 842 396 
Q 353 884 353 1716 
Q 353 2575 817 3079 
Q 1281 3584 2069 3584 
Q 2775 3584 3186 3129 
Q 3597 2675 3597 1894 
z
M 3022 2063 
Q 3016 2534 2758 2815 
Q 2500 3097 2075 3097 
Q 1594 3097 1305 2825 
Q 1016 2553 972 2059 
L 3022 2063 
z
" transform="scale(0.015625)"/>
      <path id="DejaVuSans-72" d="M 2631 2963 
Q 2534 3019 2420 3045 
Q 2306 3072 2169 3072 
Q 1681 3072 1420 2755 
Q 1159 2438 1159 1844 
L 1159 0 
L 581 0 
L 581 3500 
L 1159 3500 
L 1159 2956 
Q 1341 3275 1631 3429 
Q 1922 3584 2338 3584 
Q 2397 3584 2469 3576 
Q 2541 3569 2628 3553 
L 2631 2963 
z
" transform="scale(0.015625)"/>
      <path id="DejaVuSans-73" d="M 2834 3397 
L 2834 2853 
Q 2591 2978 2328 3040 
Q 2066 3103 1784 3103 
Q 1356 3103 1142 2972 
Q 928 2841 928 2578 
Q 928 2378 1081 2264 
Q 1234 2150 1697 2047 
L 1894 2003 
Q 2506 1872 2764 1633 
Q 3022 1394 3022 966 
Q 3022 478 2636 193 
Q 2250 -91 1575 -91 
Q 1294 -91 989 -36 
Q 684 19 347 128 
L 347 722 
Q 666 556 975 473 
Q 1284 391 1588 391 
Q 1994 391 2212 530 
Q 2431 669 2431 922 
Q 2431 1156 2273 1281 
Q 2116 1406 1581 1522 
L 1381 1569 
Q 847 1681 609 1914 
Q 372 2147 372 2553 
Q 372 3047 722 3315 
Q 1072 3584 1716 3584 
Q 2034 3584 2315 3537 
Q 2597 3491 2834 3397 
z
" transform="scale(0.015625)"/>
      <path id="DejaVuSans-69" d="M 603 3500 
L 1178 3500 
L 1178 0 
L 603 0 
L 603 3500 
z
M 603 4863 
L 1178 4863 
L 1178 4134 
L 603 4134 
L 603 4863 
z
" transform="scale(0.015625)"/>
     </defs>
     <use xlink:href="#DejaVuSans-50"/>
     <use xlink:href="#DejaVuSans-79" x="60.302734"/>
     <use xlink:href="#DejaVuSans-74" x="119.482422"/>
     <use xlink:href="#DejaVuSans-68" x="158.691406"/>
     <use xlink:href="#DejaVuSans-6f" x="222.070312"/>
     <use xlink:href="#DejaVuSans-6e" x="283.251953"/>
     <use xlink:href="#DejaVuSans-20" x="346.630859"/>
     <use xlink:href="#DejaVuSans-76" x="378.417969"/>
     <use xlink:href="#DejaVuSans-65" x="437.597656"/>
     <use xlink:href="#DejaVuSans-72" x="499.121094"/>
     <use xlink:href="#DejaVuSans-73" x="540.234375"/>
     <use xlink:href="#DejaVuSans-69" x="592.333984"/>
     <use xlink:href="#DejaVuSans-6f" x="620.117188"/>
     <use xlink:href="#DejaVuSans-6e" x="681.298828"/>
    </g>
   </g>
   <g id="Line3DCollection_1">
    <path d="M 43.035183 267.554809 
L 169.064986 165.769598 
L 165.766665 14.648515 
" style="fill: none; stroke: #b0b0b0; stroke-width: 0.8"/>
    <path d="M 61.306233 273.29375 
L 186.68151 170.87938 
L 183.885061 19.440874 
" style="fill: none; stroke: #b0b0b0; stroke-width: 0.8"/>
    <path d="M 79.693693 279.069256 
L 204.403915 176.019875 
L 202.115529 24.262876 
" style="fill: none; stroke: #b0b0b0; stroke-width: 0.8"/>
    <path d="M 98.198681 284.881677 
L 222.233159 181.191358 
L 220.459114 29.114798 
" style="fill: none; stroke: #b0b0b0; stroke-width: 0.8"/>
    <path d="M 116.822327 290.731369 
L 240.170211 186.394112 
L 238.91687 33.996919 
" style="fill: none; stroke: #b0b0b0; stroke-width: 0.8"/>
    <path d="M 135.565775 296.618691 
L 258.216052 191.628421 
L 257.489868 38.909521 
" style="fill: none; stroke: #b0b0b0; stroke-width: 0.8"/>
    <path d="M 154.430185 302.544007 
L 276.371673 196.894572 
L 276.17919 43.852891 
" style="fill: none; stroke: #b0b0b0; stroke-width: 0.8"/>
    <path d="M 173.416732 308.507686 
L 294.638081 202.192858 
L 294.985931 48.827319 
" style="fill: none; stroke: #b0b0b0; stroke-width: 0.8"/>
    <path d="M 192.526607 314.510102 
L 313.016293 207.523573 
L 313.911203 53.833099 
" style="fill: none; stroke: #b0b0b0; stroke-width: 0.8"/>
    <path d="M 211.761014 320.551634 
L 331.507337 212.887016 
L 332.956128 58.870527 
" style="fill: none; stroke: #b0b0b0; stroke-width: 0.8"/>
    <path d="M 231.121174 326.632665 
L 350.112257 218.283489 
L 352.121847 63.939905 
" style="fill: none; stroke: #b0b0b0; stroke-width: 0.8"/>
    <path d="M 250.608326 332.753584 
L 368.832106 223.713298 
L 371.409511 69.041538 
" style="fill: none; stroke: #b0b0b0; stroke-width: 0.8"/>
    <path d="M 270.223723 338.914785 
L 387.667955 229.176754 
L 390.820288 74.175735 
" style="fill: none; stroke: #b0b0b0; stroke-width: 0.8"/>
    <path d="M 289.968635 345.116667 
L 406.620884 234.674169 
L 410.35536 79.342808 
" style="fill: none; stroke: #b0b0b0; stroke-width: 0.8"/>
    <path d="M 309.844348 351.359634 
L 425.691988 240.205862 
L 430.015926 84.543075 
" style="fill: none; stroke: #b0b0b0; stroke-width: 0.8"/>
    <path d="M 329.852167 357.644095 
L 444.882376 245.772154 
L 449.803197 89.776855 
" style="fill: none; stroke: #b0b0b0; stroke-width: 0.8"/>
    <path d="M 349.993414 363.970465 
L 464.19317 251.37337 
L 469.718405 95.044475 
" style="fill: none; stroke: #b0b0b0; stroke-width: 0.8"/>
    <path d="M 370.269428 370.339166 
L 483.625508 257.009841 
L 489.762792 100.346264 
" style="fill: none; stroke: #b0b0b0; stroke-width: 0.8"/>
    <path d="M 390.681565 376.750623 
L 503.18054 262.6819 
L 509.93762 105.682554 
" style="fill: none; stroke: #b0b0b0; stroke-width: 0.8"/>
    <path d="M 411.231201 383.205269 
L 522.859433 268.389886 
L 530.244166 111.053684 
" style="fill: none; stroke: #b0b0b0; stroke-width: 0.8"/>
   </g>
   <g id="xtick_1">
    <g id="line2d_2">
     <path d="M 44.103086 266.692341 
L 40.896315 269.282219 
" style="fill: none; stroke: #000000; stroke-width: 0.8; stroke-linecap: square"/>
    </g>
    <g id="text_2">
     <!-- 2.0 -->
     <g transform="translate(30.043759 285.538624) scale(0.1 -0.1)">
      <defs>
       <path id="DejaVuSans-32" d="M 1228 531 
L 3431 531 
L 3431 0 
L 469 0 
L 469 531 
Q 828 903 1448 1529 
Q 2069 2156 2228 2338 
Q 2531 2678 2651 2914 
Q 2772 3150 2772 3378 
Q 2772 3750 2511 3984 
Q 2250 4219 1831 4219 
Q 1534 4219 1204 4116 
Q 875 4013 500 3803 
L 500 4441 
Q 881 4594 1212 4672 
Q 1544 4750 1819 4750 
Q 2544 4750 2975 4387 
Q 3406 4025 3406 3419 
Q 3406 3131 3298 2873 
Q 3191 2616 2906 2266 
Q 2828 2175 2409 1742 
Q 1991 1309 1228 531 
z
" transform="scale(0.015625)"/>
       <path id="DejaVuSans-2e" d="M 684 794 
L 1344 794 
L 1344 0 
L 684 0 
L 684 794 
z
" transform="scale(0.015625)"/>
       <path id="DejaVuSans-30" d="M 2034 4250 
Q 1547 4250 1301 3770 
Q 1056 3291 1056 2328 
Q 1056 1369 1301 889 
Q 1547 409 2034 409 
Q 2525 409 2770 889 
Q 3016 1369 3016 2328 
Q 3016 3291 2770 3770 
Q 2525 4250 2034 4250 
z
M 2034 4750 
Q 2819 4750 3233 4129 
Q 3647 3509 3647 2328 
Q 3647 1150 3233 529 
Q 2819 -91 2034 -91 
Q 1250 -91 836 529 
Q 422 1150 422 2328 
Q 422 3509 836 4129 
Q 1250 4750 2034 4750 
z
" transform="scale(0.015625)"/>
      </defs>
      <use xlink:href="#DejaVuSans-32"/>
      <use xlink:href="#DejaVuSans-2e" x="63.623047"/>
      <use xlink:href="#DejaVuSans-30" x="95.410156"/>
     </g>
    </g>
   </g>
   <g id="xtick_2">
    <g id="line2d_3">
     <path d="M 62.368778 272.425797 
L 59.178086 275.032154 
" style="fill: none; stroke: #000000; stroke-width: 0.8; stroke-linecap: square"/>
    </g>
    <g id="text_3">
     <!-- 2.1 -->
     <g transform="translate(48.320595 291.317434) scale(0.1 -0.1)">
      <defs>
       <path id="DejaVuSans-31" d="M 794 531 
L 1825 531 
L 1825 4091 
L 703 3866 
L 703 4441 
L 1819 4666 
L 2450 4666 
L 2450 531 
L 3481 531 
L 3481 0 
L 794 0 
L 794 531 
z
" transform="scale(0.015625)"/>
      </defs>
      <use xlink:href="#DejaVuSans-32"/>
      <use xlink:href="#DejaVuSans-2e" x="63.623047"/>
      <use xlink:href="#DejaVuSans-31" x="95.410156"/>
     </g>
    </g>
   </g>
   <g id="xtick_3">
    <g id="line2d_4">
     <path d="M 80.750791 278.195765 
L 77.576448 280.818759 
" style="fill: none; stroke: #000000; stroke-width: 0.8; stroke-linecap: square"/>
    </g>
    <g id="text_4">
     <!-- 2.2 -->
     <g transform="translate(66.714018 297.133107) scale(0.1 -0.1)">
      <use xlink:href="#DejaVuSans-32"/>
      <use xlink:href="#DejaVuSans-2e" x="63.623047"/>
      <use xlink:href="#DejaVuSans-32" x="95.410156"/>
     </g>
    </g>
   </g>
   <g id="xtick_4">
    <g id="line2d_5">
     <path d="M 99.25024 284.002596 
L 96.09252 286.642386 
" style="fill: none; stroke: #000000; stroke-width: 0.8; stroke-linecap: square"/>
    </g>
    <g id="text_5">
     <!-- 2.3 -->
     <g transform="translate(85.225148 302.985997) scale(0.1 -0.1)">
      <defs>
       <path id="DejaVuSans-33" d="M 2597 2516 
Q 3050 2419 3304 2112 
Q 3559 1806 3559 1356 
Q 3559 666 3084 287 
Q 2609 -91 1734 -91 
Q 1441 -91 1130 -33 
Q 819 25 488 141 
L 488 750 
Q 750 597 1062 519 
Q 1375 441 1716 441 
Q 2309 441 2620 675 
Q 2931 909 2931 1356 
Q 2931 1769 2642 2001 
Q 2353 2234 1838 2234 
L 1294 2234 
L 1294 2753 
L 1863 2753 
Q 2328 2753 2575 2939 
Q 2822 3125 2822 3475 
Q 2822 3834 2567 4026 
Q 2313 4219 1838 4219 
Q 1578 4219 1281 4162 
Q 984 4106 628 3988 
L 628 4550 
Q 988 4650 1302 4700 
Q 1616 4750 1894 4750 
Q 2613 4750 3031 4423 
Q 3450 4097 3450 3541 
Q 3450 3153 3228 2886 
Q 3006 2619 2597 2516 
z
" transform="scale(0.015625)"/>
      </defs>
      <use xlink:href="#DejaVuSans-32"/>
      <use xlink:href="#DejaVuSans-2e" x="63.623047"/>
      <use xlink:href="#DejaVuSans-33" x="95.410156"/>
     </g>
    </g>
   </g>
   <g id="xtick_5">
    <g id="line2d_6">
     <path d="M 117.868253 289.846643 
L 114.727436 292.503391 
" style="fill: none; stroke: #000000; stroke-width: 0.8; stroke-linecap: square"/>
    </g>
    <g id="text_6">
     <!-- 2.4 -->
     <g transform="translate(103.855118 308.876462) scale(0.1 -0.1)">
      <defs>
       <path id="DejaVuSans-34" d="M 2419 4116 
L 825 1625 
L 2419 1625 
L 2419 4116 
z
M 2253 4666 
L 3047 4666 
L 3047 1625 
L 3713 1625 
L 3713 1100 
L 3047 1100 
L 3047 0 
L 2419 0 
L 2419 1100 
L 313 1100 
L 313 1709 
L 2253 4666 
z
" transform="scale(0.015625)"/>
      </defs>
      <use xlink:href="#DejaVuSans-32"/>
      <use xlink:href="#DejaVuSans-2e" x="63.623047"/>
      <use xlink:href="#DejaVuSans-34" x="95.410156"/>
     </g>
    </g>
   </g>
   <g id="xtick_6">
    <g id="line2d_7">
     <path d="M 136.605975 295.728265 
L 133.482344 298.402135 
" style="fill: none; stroke: #000000; stroke-width: 0.8; stroke-linecap: square"/>
    </g>
    <g id="text_7">
     <!-- 2.5 -->
     <g transform="translate(122.605076 314.804865) scale(0.1 -0.1)">
      <defs>
       <path id="DejaVuSans-35" d="M 691 4666 
L 3169 4666 
L 3169 4134 
L 1269 4134 
L 1269 2991 
Q 1406 3038 1543 3061 
Q 1681 3084 1819 3084 
Q 2600 3084 3056 2656 
Q 3513 2228 3513 1497 
Q 3513 744 3044 326 
Q 2575 -91 1722 -91 
Q 1428 -91 1123 -41 
Q 819 9 494 109 
L 494 744 
Q 775 591 1075 516 
Q 1375 441 1709 441 
Q 2250 441 2565 725 
Q 2881 1009 2881 1497 
Q 2881 1984 2565 2268 
Q 2250 2553 1709 2553 
Q 1456 2553 1204 2497 
Q 953 2441 691 2322 
L 691 4666 
z
" transform="scale(0.015625)"/>
      </defs>
      <use xlink:href="#DejaVuSans-32"/>
      <use xlink:href="#DejaVuSans-2e" x="63.623047"/>
      <use xlink:href="#DejaVuSans-35" x="95.410156"/>
     </g>
    </g>
   </g>
   <g id="xtick_7">
    <g id="line2d_8">
     <path d="M 155.464563 301.647827 
L 152.358405 304.338985 
" style="fill: none; stroke: #000000; stroke-width: 0.8; stroke-linecap: square"/>
    </g>
    <g id="text_8">
     <!-- 2.6 -->
     <g transform="translate(141.476185 320.771574) scale(0.1 -0.1)">
      <defs>
       <path id="DejaVuSans-36" d="M 2113 2584 
Q 1688 2584 1439 2293 
Q 1191 2003 1191 1497 
Q 1191 994 1439 701 
Q 1688 409 2113 409 
Q 2538 409 2786 701 
Q 3034 994 3034 1497 
Q 3034 2003 2786 2293 
Q 2538 2584 2113 2584 
z
M 3366 4563 
L 3366 3988 
Q 3128 4100 2886 4159 
Q 2644 4219 2406 4219 
Q 1781 4219 1451 3797 
Q 1122 3375 1075 2522 
Q 1259 2794 1537 2939 
Q 1816 3084 2150 3084 
Q 2853 3084 3261 2657 
Q 3669 2231 3669 1497 
Q 3669 778 3244 343 
Q 2819 -91 2113 -91 
Q 1303 -91 875 529 
Q 447 1150 447 2328 
Q 447 3434 972 4092 
Q 1497 4750 2381 4750 
Q 2619 4750 2861 4703 
Q 3103 4656 3366 4563 
z
" transform="scale(0.015625)"/>
      </defs>
      <use xlink:href="#DejaVuSans-32"/>
      <use xlink:href="#DejaVuSans-2e" x="63.623047"/>
      <use xlink:href="#DejaVuSans-36" x="95.410156"/>
     </g>
    </g>
   </g>
   <g id="xtick_8">
    <g id="line2d_9">
     <path d="M 174.445191 307.605696 
L 171.356799 310.31431 
" style="fill: none; stroke: #000000; stroke-width: 0.8; stroke-linecap: square"/>
    </g>
    <g id="text_9">
     <!-- 2.7 -->
     <g transform="translate(160.469624 326.776961) scale(0.1 -0.1)">
      <defs>
       <path id="DejaVuSans-37" d="M 525 4666 
L 3525 4666 
L 3525 4397 
L 1831 0 
L 1172 0 
L 2766 4134 
L 525 4134 
L 525 4666 
z
" transform="scale(0.015625)"/>
      </defs>
      <use xlink:href="#DejaVuSans-32"/>
      <use xlink:href="#DejaVuSans-2e" x="63.623047"/>
      <use xlink:href="#DejaVuSans-37" x="95.410156"/>
     </g>
    </g>
   </g>
   <g id="xtick_9">
    <g id="line2d_10">
     <path d="M 193.549047 313.602245 
L 190.478717 316.328486 
" style="fill: none; stroke: #000000; stroke-width: 0.8; stroke-linecap: square"/>
    </g>
    <g id="text_10">
     <!-- 3.0 -->
     <g transform="translate(179.586584 332.821404) scale(0.1 -0.1)">
      <use xlink:href="#DejaVuSans-33"/>
      <use xlink:href="#DejaVuSans-2e" x="63.623047"/>
      <use xlink:href="#DejaVuSans-30" x="95.410156"/>
     </g>
    </g>
   </g>
   <g id="xtick_10">
    <g id="line2d_11">
     <path d="M 212.777336 319.637853 
L 209.72537 322.381893 
" style="fill: none; stroke: #000000; stroke-width: 0.8; stroke-linecap: square"/>
    </g>
    <g id="text_11">
     <!-- 3.1 -->
     <g transform="translate(198.828276 338.905285) scale(0.1 -0.1)">
      <use xlink:href="#DejaVuSans-33"/>
      <use xlink:href="#DejaVuSans-2e" x="63.623047"/>
      <use xlink:href="#DejaVuSans-31" x="95.410156"/>
     </g>
    </g>
   </g>
   <g id="xtick_11">
    <g id="line2d_12">
     <path d="M 232.131276 325.712902 
L 229.09798 328.474916 
" style="fill: none; stroke: #000000; stroke-width: 0.8; stroke-linecap: square"/>
    </g>
    <g id="text_12">
     <!-- 3.2 -->
     <g transform="translate(218.195924 345.028991) scale(0.1 -0.1)">
      <use xlink:href="#DejaVuSans-33"/>
      <use xlink:href="#DejaVuSans-2e" x="63.623047"/>
      <use xlink:href="#DejaVuSans-32" x="95.410156"/>
     </g>
    </g>
   </g>
   <g id="xtick_12">
    <g id="line2d_13">
     <path d="M 251.612104 331.827779 
L 248.597789 334.607945 
" style="fill: none; stroke: #000000; stroke-width: 0.8; stroke-linecap: square"/>
    </g>
    <g id="text_13">
     <!-- 3.3 -->
     <g transform="translate(237.690769 351.192914) scale(0.1 -0.1)">
      <use xlink:href="#DejaVuSans-33"/>
      <use xlink:href="#DejaVuSans-2e" x="63.623047"/>
      <use xlink:href="#DejaVuSans-33" x="95.410156"/>
     </g>
    </g>
   </g>
   <g id="xtick_13">
    <g id="line2d_14">
     <path d="M 271.221071 337.982879 
L 268.226054 340.781376 
" style="fill: none; stroke: #000000; stroke-width: 0.8; stroke-linecap: square"/>
    </g>
    <g id="text_14">
     <!-- 3.4 -->
     <g transform="translate(257.314068 357.397452) scale(0.1 -0.1)">
      <use xlink:href="#DejaVuSans-33"/>
      <use xlink:href="#DejaVuSans-2e" x="63.623047"/>
      <use xlink:href="#DejaVuSans-34" x="95.410156"/>
     </g>
    </g>
   </g>
   <g id="xtick_14">
    <g id="line2d_15">
     <path d="M 290.959447 344.178599 
L 287.984047 346.995609 
" style="fill: none; stroke: #000000; stroke-width: 0.8; stroke-linecap: square"/>
    </g>
    <g id="text_15">
     <!-- 3.5 -->
     <g transform="translate(277.067095 363.643007) scale(0.1 -0.1)">
      <use xlink:href="#DejaVuSans-33"/>
      <use xlink:href="#DejaVuSans-2e" x="63.623047"/>
      <use xlink:href="#DejaVuSans-35" x="95.410156"/>
     </g>
    </g>
   </g>
   <g id="xtick_15">
    <g id="line2d_16">
     <path d="M 310.828515 350.415342 
L 307.873061 353.251049 
" style="fill: none; stroke: #000000; stroke-width: 0.8; stroke-linecap: square"/>
    </g>
    <g id="text_16">
     <!-- 3.6 -->
     <g transform="translate(296.951141 369.929989) scale(0.1 -0.1)">
      <use xlink:href="#DejaVuSans-33"/>
      <use xlink:href="#DejaVuSans-2e" x="63.623047"/>
      <use xlink:href="#DejaVuSans-36" x="95.410156"/>
     </g>
    </g>
   </g>
   <g id="xtick_16">
    <g id="line2d_17">
     <path d="M 330.82958 356.693518 
L 327.894401 359.548109 
" style="fill: none; stroke: #000000; stroke-width: 0.8; stroke-linecap: square"/>
    </g>
    <g id="text_17">
     <!-- 3.7 -->
     <g transform="translate(316.967513 376.258809) scale(0.1 -0.1)">
      <use xlink:href="#DejaVuSans-33"/>
      <use xlink:href="#DejaVuSans-2e" x="63.623047"/>
      <use xlink:href="#DejaVuSans-37" x="95.410156"/>
     </g>
    </g>
   </g>
   <g id="xtick_17">
    <g id="line2d_18">
     <path d="M 350.963959 363.013541 
L 348.049393 365.887204 
" style="fill: none; stroke: #000000; stroke-width: 0.8; stroke-linecap: square"/>
    </g>
    <g id="text_18">
     <!-- 3.8 -->
     <g transform="translate(337.117536 382.629888) scale(0.1 -0.1)">
      <defs>
       <path id="DejaVuSans-38" d="M 2034 2216 
Q 1584 2216 1326 1975 
Q 1069 1734 1069 1313 
Q 1069 891 1326 650 
Q 1584 409 2034 409 
Q 2484 409 2743 651 
Q 3003 894 3003 1313 
Q 3003 1734 2745 1975 
Q 2488 2216 2034 2216 
z
M 1403 2484 
Q 997 2584 770 2862 
Q 544 3141 544 3541 
Q 544 4100 942 4425 
Q 1341 4750 2034 4750 
Q 2731 4750 3128 4425 
Q 3525 4100 3525 3541 
Q 3525 3141 3298 2862 
Q 3072 2584 2669 2484 
Q 3125 2378 3379 2068 
Q 3634 1759 3634 1313 
Q 3634 634 3220 271 
Q 2806 -91 2034 -91 
Q 1263 -91 848 271 
Q 434 634 434 1313 
Q 434 1759 690 2068 
Q 947 2378 1403 2484 
z
M 1172 3481 
Q 1172 3119 1398 2916 
Q 1625 2713 2034 2713 
Q 2441 2713 2670 2916 
Q 2900 3119 2900 3481 
Q 2900 3844 2670 4047 
Q 2441 4250 2034 4250 
Q 1625 4250 1398 4047 
Q 1172 3844 1172 3481 
z
" transform="scale(0.015625)"/>
      </defs>
      <use xlink:href="#DejaVuSans-33"/>
      <use xlink:href="#DejaVuSans-2e" x="63.623047"/>
      <use xlink:href="#DejaVuSans-38" x="95.410156"/>
     </g>
    </g>
   </g>
   <g id="xtick_18">
    <g id="line2d_19">
     <path d="M 371.232991 369.37583 
L 368.33938 372.268758 
" style="fill: none; stroke: #000000; stroke-width: 0.8; stroke-linecap: square"/>
    </g>
    <g id="text_19">
     <!-- 3.9 -->
     <g transform="translate(357.402555 389.04365) scale(0.1 -0.1)">
      <defs>
       <path id="DejaVuSans-39" d="M 703 97 
L 703 672 
Q 941 559 1184 500 
Q 1428 441 1663 441 
Q 2288 441 2617 861 
Q 2947 1281 2994 2138 
Q 2813 1869 2534 1725 
Q 2256 1581 1919 1581 
Q 1219 1581 811 2004 
Q 403 2428 403 3163 
Q 403 3881 828 4315 
Q 1253 4750 1959 4750 
Q 2769 4750 3195 4129 
Q 3622 3509 3622 2328 
Q 3622 1225 3098 567 
Q 2575 -91 1691 -91 
Q 1453 -91 1209 -44 
Q 966 3 703 97 
z
M 1959 2075 
Q 2384 2075 2632 2365 
Q 2881 2656 2881 3163 
Q 2881 3666 2632 3958 
Q 2384 4250 1959 4250 
Q 1534 4250 1286 3958 
Q 1038 3666 1038 3163 
Q 1038 2656 1286 2365 
Q 1534 2075 1959 2075 
z
" transform="scale(0.015625)"/>
      </defs>
      <use xlink:href="#DejaVuSans-33"/>
      <use xlink:href="#DejaVuSans-2e" x="63.623047"/>
      <use xlink:href="#DejaVuSans-39" x="95.410156"/>
     </g>
    </g>
   </g>
   <g id="xtick_19">
    <g id="line2d_20">
     <path d="M 391.638032 375.78081 
L 388.765722 378.693198 
" style="fill: none; stroke: #000000; stroke-width: 0.8; stroke-linecap: square"/>
    </g>
    <g id="text_20">
     <!-- 3.10 -->
     <g transform="translate(374.642679 395.500526) scale(0.1 -0.1)">
      <use xlink:href="#DejaVuSans-33"/>
      <use xlink:href="#DejaVuSans-2e" x="63.623047"/>
      <use xlink:href="#DejaVuSans-31" x="95.410156"/>
      <use xlink:href="#DejaVuSans-30" x="159.033203"/>
     </g>
    </g>
   </g>
   <g id="xtick_20">
    <g id="line2d_21">
     <path d="M 412.180454 382.228914 
L 409.3298 385.160958 
" style="fill: none; stroke: #000000; stroke-width: 0.8; stroke-linecap: square"/>
    </g>
    <g id="text_21">
     <!-- 3.11 -->
     <g transform="translate(395.20179 402.00095) scale(0.1 -0.1)">
      <use xlink:href="#DejaVuSans-33"/>
      <use xlink:href="#DejaVuSans-2e" x="63.623047"/>
      <use xlink:href="#DejaVuSans-31" x="95.410156"/>
      <use xlink:href="#DejaVuSans-31" x="159.033203"/>
     </g>
    </g>
   </g>
  </g>
  <g id="axis3d_2">
   <g id="line2d_22">
    <path d="M 550.329769 276.357828 
L 439.930816 392.219825 
" style="fill: none; stroke: #000000; stroke-width: 0.8; stroke-linecap: square"/>
   </g>
   <g id="text_22">
    <!-- Release date -->
    <g transform="translate(510.342058 388.10359) rotate(-46.383131) scale(0.12 -0.12)">
     <defs>
      <path id="DejaVuSans-52" d="M 2841 2188 
Q 3044 2119 3236 1894 
Q 3428 1669 3622 1275 
L 4263 0 
L 3584 0 
L 2988 1197 
Q 2756 1666 2539 1819 
Q 2322 1972 1947 1972 
L 1259 1972 
L 1259 0 
L 628 0 
L 628 4666 
L 2053 4666 
Q 2853 4666 3247 4331 
Q 3641 3997 3641 3322 
Q 3641 2881 3436 2590 
Q 3231 2300 2841 2188 
z
M 1259 4147 
L 1259 2491 
L 2053 2491 
Q 2509 2491 2742 2702 
Q 2975 2913 2975 3322 
Q 2975 3731 2742 3939 
Q 2509 4147 2053 4147 
L 1259 4147 
z
" transform="scale(0.015625)"/>
      <path id="DejaVuSans-6c" d="M 603 4863 
L 1178 4863 
L 1178 0 
L 603 0 
L 603 4863 
z
" transform="scale(0.015625)"/>
      <path id="DejaVuSans-61" d="M 2194 1759 
Q 1497 1759 1228 1600 
Q 959 1441 959 1056 
Q 959 750 1161 570 
Q 1363 391 1709 391 
Q 2188 391 2477 730 
Q 2766 1069 2766 1631 
L 2766 1759 
L 2194 1759 
z
M 3341 1997 
L 3341 0 
L 2766 0 
L 2766 531 
Q 2569 213 2275 61 
Q 1981 -91 1556 -91 
Q 1019 -91 701 211 
Q 384 513 384 1019 
Q 384 1609 779 1909 
Q 1175 2209 1959 2209 
L 2766 2209 
L 2766 2266 
Q 2766 2663 2505 2880 
Q 2244 3097 1772 3097 
Q 1472 3097 1187 3025 
Q 903 2953 641 2809 
L 641 3341 
Q 956 3463 1253 3523 
Q 1550 3584 1831 3584 
Q 2591 3584 2966 3190 
Q 3341 2797 3341 1997 
z
" transform="scale(0.015625)"/>
      <path id="DejaVuSans-64" d="M 2906 2969 
L 2906 4863 
L 3481 4863 
L 3481 0 
L 2906 0 
L 2906 525 
Q 2725 213 2448 61 
Q 2172 -91 1784 -91 
Q 1150 -91 751 415 
Q 353 922 353 1747 
Q 353 2572 751 3078 
Q 1150 3584 1784 3584 
Q 2172 3584 2448 3432 
Q 2725 3281 2906 2969 
z
M 947 1747 
Q 947 1113 1208 752 
Q 1469 391 1925 391 
Q 2381 391 2643 752 
Q 2906 1113 2906 1747 
Q 2906 2381 2643 2742 
Q 2381 3103 1925 3103 
Q 1469 3103 1208 2742 
Q 947 2381 947 1747 
z
" transform="scale(0.015625)"/>
     </defs>
     <use xlink:href="#DejaVuSans-52"/>
     <use xlink:href="#DejaVuSans-65" x="64.982422"/>
     <use xlink:href="#DejaVuSans-6c" x="126.505859"/>
     <use xlink:href="#DejaVuSans-65" x="154.289062"/>
     <use xlink:href="#DejaVuSans-61" x="215.8125"/>
     <use xlink:href="#DejaVuSans-73" x="277.091797"/>
     <use xlink:href="#DejaVuSans-65" x="329.191406"/>
     <use xlink:href="#DejaVuSans-20" x="390.714844"/>
     <use xlink:href="#DejaVuSans-64" x="422.501953"/>
     <use xlink:href="#DejaVuSans-61" x="485.978516"/>
     <use xlink:href="#DejaVuSans-74" x="547.257812"/>
     <use xlink:href="#DejaVuSans-65" x="586.466797"/>
    </g>
   </g>
   <g id="Line3DCollection_2">
    <path d="M 37.726778 82.643119 
L 44.923937 238.184938 
L 463.502678 367.48152 
" style="fill: none; stroke: #b0b0b0; stroke-width: 0.8"/>
    <path d="M 62.713053 64.571111 
L 69.106794 218.955353 
L 484.571007 345.370634 
" style="fill: none; stroke: #b0b0b0; stroke-width: 0.8"/>
    <path d="M 87.148784 46.897299 
L 92.772116 200.137299 
L 505.156417 323.766564 
" style="fill: none; stroke: #b0b0b0; stroke-width: 0.8"/>
    <path d="M 111.030397 29.624269 
L 115.915431 181.734331 
L 525.257174 302.67113 
" style="fill: none; stroke: #b0b0b0; stroke-width: 0.8"/>
    <path d="M 134.418719 12.708024 
L 138.594745 163.700325 
L 544.925661 282.029357 
" style="fill: none; stroke: #b0b0b0; stroke-width: 0.8"/>
   </g>
   <g id="xtick_21">
    <g id="line2d_23">
     <path d="M 459.912604 366.372567 
L 470.695373 369.703303 
" style="fill: none; stroke: #000000; stroke-width: 0.8; stroke-linecap: square"/>
    </g>
    <g id="text_23">
     <!-- 2011 -->
     <g transform="translate(468.463262 386.911378) scale(0.1 -0.1)">
      <use xlink:href="#DejaVuSans-32"/>
      <use xlink:href="#DejaVuSans-30" x="63.623047"/>
      <use xlink:href="#DejaVuSans-31" x="127.246094"/>
      <use xlink:href="#DejaVuSans-31" x="190.869141"/>
     </g>
    </g>
   </g>
   <g id="xtick_22">
    <g id="line2d_24">
     <path d="M 481.010423 344.287237 
L 491.704476 347.541168 
" style="fill: none; stroke: #000000; stroke-width: 0.8; stroke-linecap: square"/>
    </g>
    <g id="text_24">
     <!-- 2014 -->
     <g transform="translate(489.360471 364.627149) scale(0.1 -0.1)">
      <use xlink:href="#DejaVuSans-32"/>
      <use xlink:href="#DejaVuSans-30" x="63.623047"/>
      <use xlink:href="#DejaVuSans-31" x="127.246094"/>
      <use xlink:href="#DejaVuSans-34" x="190.869141"/>
     </g>
    </g>
   </g>
   <g id="xtick_23">
    <g id="line2d_25">
     <path d="M 501.624921 322.707852 
L 512.231469 325.887603 
" style="fill: none; stroke: #000000; stroke-width: 0.8; stroke-linecap: square"/>
    </g>
    <g id="text_25">
     <!-- 2017 -->
     <g transform="translate(509.777913 342.854532) scale(0.1 -0.1)">
      <use xlink:href="#DejaVuSans-32"/>
      <use xlink:href="#DejaVuSans-30" x="63.623047"/>
      <use xlink:href="#DejaVuSans-31" x="127.246094"/>
      <use xlink:href="#DejaVuSans-37" x="190.869141"/>
     </g>
    </g>
   </g>
   <g id="xtick_24">
    <g id="line2d_26">
     <path d="M 521.754343 301.636246 
L 532.274661 304.744391 
" style="fill: none; stroke: #000000; stroke-width: 0.8; stroke-linecap: square"/>
    </g>
    <g id="text_26">
     <!-- 2020 -->
     <g transform="translate(529.713923 321.595302) scale(0.1 -0.1)">
      <use xlink:href="#DejaVuSans-32"/>
      <use xlink:href="#DejaVuSans-30" x="63.623047"/>
      <use xlink:href="#DejaVuSans-32" x="127.246094"/>
      <use xlink:href="#DejaVuSans-30" x="190.869141"/>
     </g>
    </g>
   </g>
   <g id="xtick_25">
    <g id="line2d_27">
     <path d="M 541.45113 281.017527 
L 551.886321 284.056395 
" style="fill: none; stroke: #000000; stroke-width: 0.8; stroke-linecap: square"/>
    </g>
    <g id="text_27">
     <!-- 2023 -->
     <g transform="translate(549.220503 300.794004) scale(0.1 -0.1)">
      <use xlink:href="#DejaVuSans-32"/>
      <use xlink:href="#DejaVuSans-30" x="63.623047"/>
      <use xlink:href="#DejaVuSans-32" x="127.246094"/>
      <use xlink:href="#DejaVuSans-33" x="190.869141"/>
     </g>
    </g>
   </g>
  </g>
  <g id="axis3d_3">
   <g id="line2d_28">
    <path d="M 550.329769 276.357828 
L 558.597262 118.553145 
" style="fill: none; stroke: #000000; stroke-width: 0.8; stroke-linecap: square"/>
   </g>
   <g id="text_28">
    <!-- Amount of version-specific features -->
    <g transform="translate(599.400538 306.779611) rotate(-87.000978) scale(0.12 -0.12)">
     <defs>
      <path id="DejaVuSans-41" d="M 2188 4044 
L 1331 1722 
L 3047 1722 
L 2188 4044 
z
M 1831 4666 
L 2547 4666 
L 4325 0 
L 3669 0 
L 3244 1197 
L 1141 1197 
L 716 0 
L 50 0 
L 1831 4666 
z
" transform="scale(0.015625)"/>
      <path id="DejaVuSans-6d" d="M 3328 2828 
Q 3544 3216 3844 3400 
Q 4144 3584 4550 3584 
Q 5097 3584 5394 3201 
Q 5691 2819 5691 2113 
L 5691 0 
L 5113 0 
L 5113 2094 
Q 5113 2597 4934 2840 
Q 4756 3084 4391 3084 
Q 3944 3084 3684 2787 
Q 3425 2491 3425 1978 
L 3425 0 
L 2847 0 
L 2847 2094 
Q 2847 2600 2669 2842 
Q 2491 3084 2119 3084 
Q 1678 3084 1418 2786 
Q 1159 2488 1159 1978 
L 1159 0 
L 581 0 
L 581 3500 
L 1159 3500 
L 1159 2956 
Q 1356 3278 1631 3431 
Q 1906 3584 2284 3584 
Q 2666 3584 2933 3390 
Q 3200 3197 3328 2828 
z
" transform="scale(0.015625)"/>
      <path id="DejaVuSans-75" d="M 544 1381 
L 544 3500 
L 1119 3500 
L 1119 1403 
Q 1119 906 1312 657 
Q 1506 409 1894 409 
Q 2359 409 2629 706 
Q 2900 1003 2900 1516 
L 2900 3500 
L 3475 3500 
L 3475 0 
L 2900 0 
L 2900 538 
Q 2691 219 2414 64 
Q 2138 -91 1772 -91 
Q 1169 -91 856 284 
Q 544 659 544 1381 
z
M 1991 3584 
L 1991 3584 
z
" transform="scale(0.015625)"/>
      <path id="DejaVuSans-66" d="M 2375 4863 
L 2375 4384 
L 1825 4384 
Q 1516 4384 1395 4259 
Q 1275 4134 1275 3809 
L 1275 3500 
L 2222 3500 
L 2222 3053 
L 1275 3053 
L 1275 0 
L 697 0 
L 697 3053 
L 147 3053 
L 147 3500 
L 697 3500 
L 697 3744 
Q 697 4328 969 4595 
Q 1241 4863 1831 4863 
L 2375 4863 
z
" transform="scale(0.015625)"/>
      <path id="DejaVuSans-2d" d="M 313 2009 
L 1997 2009 
L 1997 1497 
L 313 1497 
L 313 2009 
z
" transform="scale(0.015625)"/>
      <path id="DejaVuSans-70" d="M 1159 525 
L 1159 -1331 
L 581 -1331 
L 581 3500 
L 1159 3500 
L 1159 2969 
Q 1341 3281 1617 3432 
Q 1894 3584 2278 3584 
Q 2916 3584 3314 3078 
Q 3713 2572 3713 1747 
Q 3713 922 3314 415 
Q 2916 -91 2278 -91 
Q 1894 -91 1617 61 
Q 1341 213 1159 525 
z
M 3116 1747 
Q 3116 2381 2855 2742 
Q 2594 3103 2138 3103 
Q 1681 3103 1420 2742 
Q 1159 2381 1159 1747 
Q 1159 1113 1420 752 
Q 1681 391 2138 391 
Q 2594 391 2855 752 
Q 3116 1113 3116 1747 
z
" transform="scale(0.015625)"/>
      <path id="DejaVuSans-63" d="M 3122 3366 
L 3122 2828 
Q 2878 2963 2633 3030 
Q 2388 3097 2138 3097 
Q 1578 3097 1268 2742 
Q 959 2388 959 1747 
Q 959 1106 1268 751 
Q 1578 397 2138 397 
Q 2388 397 2633 464 
Q 2878 531 3122 666 
L 3122 134 
Q 2881 22 2623 -34 
Q 2366 -91 2075 -91 
Q 1284 -91 818 406 
Q 353 903 353 1747 
Q 353 2603 823 3093 
Q 1294 3584 2113 3584 
Q 2378 3584 2631 3529 
Q 2884 3475 3122 3366 
z
" transform="scale(0.015625)"/>
     </defs>
     <use xlink:href="#DejaVuSans-41"/>
     <use xlink:href="#DejaVuSans-6d" x="68.408203"/>
     <use xlink:href="#DejaVuSans-6f" x="165.820312"/>
     <use xlink:href="#DejaVuSans-75" x="227.001953"/>
     <use xlink:href="#DejaVuSans-6e" x="290.380859"/>
     <use xlink:href="#DejaVuSans-74" x="353.759766"/>
     <use xlink:href="#DejaVuSans-20" x="392.96875"/>
     <use xlink:href="#DejaVuSans-6f" x="424.755859"/>
     <use xlink:href="#DejaVuSans-66" x="485.9375"/>
     <use xlink:href="#DejaVuSans-20" x="521.142578"/>
     <use xlink:href="#DejaVuSans-76" x="552.929688"/>
     <use xlink:href="#DejaVuSans-65" x="612.109375"/>
     <use xlink:href="#DejaVuSans-72" x="673.632812"/>
     <use xlink:href="#DejaVuSans-73" x="714.746094"/>
     <use xlink:href="#DejaVuSans-69" x="766.845703"/>
     <use xlink:href="#DejaVuSans-6f" x="794.628906"/>
     <use xlink:href="#DejaVuSans-6e" x="855.810547"/>
     <use xlink:href="#DejaVuSans-2d" x="919.189453"/>
     <use xlink:href="#DejaVuSans-73" x="955.273438"/>
     <use xlink:href="#DejaVuSans-70" x="1007.373047"/>
     <use xlink:href="#DejaVuSans-65" x="1070.849609"/>
     <use xlink:href="#DejaVuSans-63" x="1132.373047"/>
     <use xlink:href="#DejaVuSans-69" x="1187.353516"/>
     <use xlink:href="#DejaVuSans-66" x="1215.136719"/>
     <use xlink:href="#DejaVuSans-69" x="1250.341797"/>
     <use xlink:href="#DejaVuSans-63" x="1278.125"/>
     <use xlink:href="#DejaVuSans-20" x="1333.105469"/>
     <use xlink:href="#DejaVuSans-66" x="1364.892578"/>
     <use xlink:href="#DejaVuSans-65" x="1400.097656"/>
     <use xlink:href="#DejaVuSans-61" x="1461.621094"/>
     <use xlink:href="#DejaVuSans-74" x="1522.900391"/>
     <use xlink:href="#DejaVuSans-75" x="1562.109375"/>
     <use xlink:href="#DejaVuSans-72" x="1625.488281"/>
     <use xlink:href="#DejaVuSans-65" x="1664.351562"/>
     <use xlink:href="#DejaVuSans-73" x="1725.875"/>
    </g>
   </g>
   <g id="Line3DCollection_3">
    <path d="M 550.490257 273.294538 
L 144.754476 155.809867 
L 17.754922 256.61872 
" style="fill: none; stroke: #b0b0b0; stroke-width: 0.8"/>
    <path d="M 551.405758 255.820026 
L 144.312606 139.095563 
L 16.856213 239.24896 
" style="fill: none; stroke: #b0b0b0; stroke-width: 0.8"/>
    <path d="M 552.327545 238.225536 
L 143.867901 122.273986 
L 15.951391 221.761046 
" style="fill: none; stroke: #b0b0b0; stroke-width: 0.8"/>
    <path d="M 553.255683 220.509829 
L 143.420332 105.344099 
L 15.040393 204.15377 
" style="fill: none; stroke: #b0b0b0; stroke-width: 0.8"/>
    <path d="M 554.190237 202.671649 
L 142.969872 88.304853 
L 14.123156 186.425903 
" style="fill: none; stroke: #b0b0b0; stroke-width: 0.8"/>
    <path d="M 555.131275 184.709719 
L 142.516493 71.155185 
L 13.199615 168.576204 
" style="fill: none; stroke: #b0b0b0; stroke-width: 0.8"/>
    <path d="M 556.078863 166.622749 
L 142.060167 53.894018 
L 12.269705 150.603412 
" style="fill: none; stroke: #b0b0b0; stroke-width: 0.8"/>
    <path d="M 557.033071 148.409427 
L 141.600864 36.520262 
L 11.333361 132.50625 
" style="fill: none; stroke: #b0b0b0; stroke-width: 0.8"/>
    <path d="M 557.993969 130.068426 
L 141.138555 19.03281 
L 10.390514 114.283421 
" style="fill: none; stroke: #b0b0b0; stroke-width: 0.8"/>
   </g>
   <g id="xtick_26">
    <g id="line2d_29">
     <path d="M 547.021377 272.290091 
L 557.439567 275.306778 
" style="fill: none; stroke: #000000; stroke-width: 0.8; stroke-linecap: square"/>
    </g>
    <g id="text_29">
     <!-- 0.00 -->
     <g transform="translate(560.779499 281.563535) scale(0.1 -0.1)">
      <use xlink:href="#DejaVuSans-30"/>
      <use xlink:href="#DejaVuSans-2e" x="63.623047"/>
      <use xlink:href="#DejaVuSans-30" x="95.410156"/>
      <use xlink:href="#DejaVuSans-30" x="159.033203"/>
     </g>
    </g>
   </g>
   <g id="xtick_27">
    <g id="line2d_30">
     <path d="M 547.924508 254.821859 
L 558.37989 257.819695 
" style="fill: none; stroke: #000000; stroke-width: 0.8; stroke-linecap: square"/>
    </g>
    <g id="text_30">
     <!-- 0.05 -->
     <g transform="translate(561.768656 264.084832) scale(0.1 -0.1)">
      <use xlink:href="#DejaVuSans-30"/>
      <use xlink:href="#DejaVuSans-2e" x="63.623047"/>
      <use xlink:href="#DejaVuSans-30" x="95.410156"/>
      <use xlink:href="#DejaVuSans-35" x="159.033203"/>
     </g>
    </g>
   </g>
   <g id="xtick_28">
    <g id="line2d_31">
     <path d="M 548.833837 237.233759 
L 559.326675 240.212416 
" style="fill: none; stroke: #000000; stroke-width: 0.8; stroke-linecap: square"/>
    </g>
    <g id="text_31">
     <!-- 0.10 -->
     <g transform="translate(562.764607 246.486078) scale(0.1 -0.1)">
      <use xlink:href="#DejaVuSans-30"/>
      <use xlink:href="#DejaVuSans-2e" x="63.623047"/>
      <use xlink:href="#DejaVuSans-31" x="95.410156"/>
      <use xlink:href="#DejaVuSans-30" x="159.033203"/>
     </g>
    </g>
   </g>
   <g id="xtick_29">
    <g id="line2d_32">
     <path d="M 549.749427 219.524554 
L 560.279991 222.483694 
" style="fill: none; stroke: #000000; stroke-width: 0.8; stroke-linecap: square"/>
    </g>
    <g id="text_32">
     <!-- 0.15 -->
     <g transform="translate(563.767422 228.766033) scale(0.1 -0.1)">
      <use xlink:href="#DejaVuSans-30"/>
      <use xlink:href="#DejaVuSans-2e" x="63.623047"/>
      <use xlink:href="#DejaVuSans-31" x="95.410156"/>
      <use xlink:href="#DejaVuSans-35" x="159.033203"/>
     </g>
    </g>
   </g>
   <g id="xtick_30">
    <g id="line2d_33">
     <path d="M 550.671343 201.692989 
L 561.239905 204.632271 
" style="fill: none; stroke: #000000; stroke-width: 0.8; stroke-linecap: square"/>
    </g>
    <g id="text_33">
     <!-- 0.20 -->
     <g transform="translate(564.777172 210.923437) scale(0.1 -0.1)">
      <use xlink:href="#DejaVuSans-30"/>
      <use xlink:href="#DejaVuSans-2e" x="63.623047"/>
      <use xlink:href="#DejaVuSans-32" x="95.410156"/>
      <use xlink:href="#DejaVuSans-30" x="159.033203"/>
     </g>
    </g>
   </g>
   <g id="xtick_31">
    <g id="line2d_34">
     <path d="M 551.599651 183.737791 
L 562.206486 186.656867 
" style="fill: none; stroke: #000000; stroke-width: 0.8; stroke-linecap: square"/>
    </g>
    <g id="text_34">
     <!-- 0.25 -->
     <g transform="translate(565.79393 192.957016) scale(0.1 -0.1)">
      <use xlink:href="#DejaVuSans-30"/>
      <use xlink:href="#DejaVuSans-2e" x="63.623047"/>
      <use xlink:href="#DejaVuSans-32" x="95.410156"/>
      <use xlink:href="#DejaVuSans-35" x="159.033203"/>
     </g>
    </g>
   </g>
   <g id="xtick_32">
    <g id="line2d_35">
     <path d="M 552.534418 165.657669 
L 563.179802 168.556187 
" style="fill: none; stroke: #000000; stroke-width: 0.8; stroke-linecap: square"/>
    </g>
    <g id="text_35">
     <!-- 0.30 -->
     <g transform="translate(566.817769 174.865475) scale(0.1 -0.1)">
      <use xlink:href="#DejaVuSans-30"/>
      <use xlink:href="#DejaVuSans-2e" x="63.623047"/>
      <use xlink:href="#DejaVuSans-33" x="95.410156"/>
      <use xlink:href="#DejaVuSans-30" x="159.033203"/>
     </g>
    </g>
   </g>
   <g id="xtick_33">
    <g id="line2d_36">
     <path d="M 553.475711 147.451316 
L 564.159926 150.328917 
" style="fill: none; stroke: #000000; stroke-width: 0.8; stroke-linecap: square"/>
    </g>
    <g id="text_36">
     <!-- 0.35 -->
     <g transform="translate(567.848763 156.647504) scale(0.1 -0.1)">
      <use xlink:href="#DejaVuSans-30"/>
      <use xlink:href="#DejaVuSans-2e" x="63.623047"/>
      <use xlink:href="#DejaVuSans-33" x="95.410156"/>
      <use xlink:href="#DejaVuSans-35" x="159.033203"/>
     </g>
    </g>
   </g>
   <g id="xtick_34">
    <g id="line2d_37">
     <path d="M 554.4236 129.117405 
L 565.146929 131.973723 
" style="fill: none; stroke: #000000; stroke-width: 0.8; stroke-linecap: square"/>
    </g>
    <g id="text_37">
     <!-- 0.40 -->
     <g transform="translate(568.886987 138.301771) scale(0.1 -0.1)">
      <use xlink:href="#DejaVuSans-30"/>
      <use xlink:href="#DejaVuSans-2e" x="63.623047"/>
      <use xlink:href="#DejaVuSans-34" x="95.410156"/>
      <use xlink:href="#DejaVuSans-30" x="159.033203"/>
     </g>
    </g>
   </g>
  </g>
  <g id="axes_1">
   <g id="line2d_38">
    <path d="M 162.557522 292.355417 
L 195.305457 286.186935 
L 201.940066 303.012427 
L 225.531418 305.041586 
L 257.517784 299.491177 
L 288.983581 294.276694 
L 319.181941 290.108021 
L 349.501121 285.714591 
L 378.135589 282.816855 
L 408.288993 278.36537 
L 436.847182 275.36119 
L 463.143786 274.530245 
L 489.544204 273.570604 
L 516.294397 272.224131 
" clip-path="url(#pa6d8303a1a)" style="fill: none; stroke: #ff0000; stroke-width: 1.5; stroke-linecap: square"/>
   </g>
   <g id="Poly3DCollection_1">
    <path d="M 146.02022 93.77191 
L 165.893184 180.982494 
L 171.38913 177.95668 
z
" clip-path="url(#pa6d8303a1a)" style="fill: #bed8ec"/>
    <path d="M 152.789543 137.164971 
L 146.02022 93.77191 
L 171.38913 177.95668 
z
" clip-path="url(#pa6d8303a1a)" style="fill: #9cc9e1"/>
    <path d="M 158.143426 189.809844 
L 165.893184 180.982494 
L 146.02022 93.77191 
z
" clip-path="url(#pa6d8303a1a)" style="fill: #bfd8ed"/>
    <path d="M 137.266031 99.269474 
L 157.417943 190.266923 
L 158.143426 189.809844 
z
" clip-path="url(#pa6d8303a1a)" style="fill: #c1d9ed"/>
    <path d="M 171.38913 177.95668 
L 165.893184 180.982494 
L 181.196821 52.379181 
z
" clip-path="url(#pa6d8303a1a)" style="fill: #89bedc"/>
    <path d="M 131.660864 103.555309 
L 151.939203 194.730647 
L 157.417943 190.266923 
z
" clip-path="url(#pa6d8303a1a)" style="fill: #bfd8ed"/>
    <path d="M 219.529797 175.052517 
L 224.932509 170.979582 
L 206.866039 169.345509 
z
" clip-path="url(#pa6d8303a1a)" style="fill: #cddff1"/>
    <path d="M 181.196821 52.379181 
L 165.893184 180.982494 
L 158.143426 189.809844 
z
" clip-path="url(#pa6d8303a1a)" style="fill: #8abfdd"/>
    <path d="M 158.143426 189.809844 
L 146.02022 93.77191 
L 137.999338 98.498206 
z
" clip-path="url(#pa6d8303a1a)" style="fill: #64a9d3"/>
    <path d="M 206.866039 169.345509 
L 201.177951 156.973511 
L 219.529797 175.052517 
z
" clip-path="url(#pa6d8303a1a)" style="fill: #c4daee"/>
    <path d="M 146.751984 200.450087 
L 151.939203 194.730647 
L 131.660864 103.555309 
z
" clip-path="url(#pa6d8303a1a)" style="fill: #c2d9ee"/>
    <path d="M 137.999338 98.498206 
L 137.266031 99.269474 
L 158.143426 189.809844 
z
" clip-path="url(#pa6d8303a1a)" style="fill: #63a8d3"/>
    <path d="M 157.417943 190.266923 
L 137.266031 99.269474 
L 131.660864 103.555309 
z
" clip-path="url(#pa6d8303a1a)" style="fill: #63a8d3"/>
    <path d="M 158.143426 189.809844 
L 157.417943 190.266923 
L 172.292598 49.904018 
z
" clip-path="url(#pa6d8303a1a)" style="fill: #82bbdb"/>
    <path d="M 211.799744 180.259021 
L 238.00351 204.637695 
L 219.529797 175.052517 
z
" clip-path="url(#pa6d8303a1a)" style="fill: #d7e6f5"/>
    <path d="M 219.529797 175.052517 
L 201.177951 156.973511 
L 193.369269 161.497854 
z
" clip-path="url(#pa6d8303a1a)" style="fill: #b2d2e8"/>
    <path d="M 211.799744 180.259021 
L 230.370864 211.094716 
L 238.00351 204.637695 
z
" clip-path="url(#pa6d8303a1a)" style="fill: #e6f0f9"/>
    <path d="M 256.214826 194.645974 
L 238.00351 204.637695 
L 230.370864 211.094716 
z
" clip-path="url(#pa6d8303a1a)" style="fill: #ecf4fb"/>
    <path d="M 181.196821 52.379181 
L 187.384952 81.76529 
L 171.38913 177.95668 
z
" clip-path="url(#pa6d8303a1a)" style="fill: #2777b8"/>
    <path d="M 166.681932 54.133962 
L 157.417943 190.266923 
L 151.939203 194.730647 
z
" clip-path="url(#pa6d8303a1a)" style="fill: #82bbdb"/>
    <path d="M 193.369269 161.497854 
L 211.799744 180.259021 
L 219.529797 175.052517 
z
" clip-path="url(#pa6d8303a1a)" style="fill: #bdd7ec"/>
    <path d="M 181.196821 52.379181 
L 201.177951 156.973511 
L 206.866039 169.345509 
z
" clip-path="url(#pa6d8303a1a)" style="fill: #4e9acb"/>
    <path d="M 211.799744 180.259021 
L 229.678308 213.034228 
L 230.370864 211.094716 
z
" clip-path="url(#pa6d8303a1a)" style="fill: #e7f0fa"/>
    <path d="M 242.726762 119.133968 
L 224.932509 170.979582 
L 219.529797 175.052517 
z
" clip-path="url(#pa6d8303a1a)" style="fill: #95c5df"/>
    <path d="M 219.529797 175.052517 
L 238.00351 204.637695 
L 242.726762 119.133968 
z
" clip-path="url(#pa6d8303a1a)" style="fill: #aed1e7"/>
    <path d="M 279.96764 198.87765 
L 261.549531 192.335005 
L 256.214826 194.645974 
z
" clip-path="url(#pa6d8303a1a)" style="fill: #dceaf6"/>
    <path d="M 131.660864 103.555309 
L 126.287569 106.743891 
L 146.751984 200.450087 
z
" clip-path="url(#pa6d8303a1a)" style="fill: #63a8d3"/>
    <path d="M 211.048817 178.180062 
L 229.678308 213.034228 
L 211.799744 180.259021 
z
" clip-path="url(#pa6d8303a1a)" style="fill: #d6e5f4"/>
    <path d="M 151.939203 194.730647 
L 146.751984 200.450087 
L 166.681932 54.133962 
z
" clip-path="url(#pa6d8303a1a)" style="fill: #84bcdb"/>
    <path d="M 248.617491 203.07157 
L 230.370864 211.094716 
L 229.678308 213.034228 
z
" clip-path="url(#pa6d8303a1a)" style="fill: #eef5fc"/>
    <path d="M 211.048817 178.180062 
L 211.799744 180.259021 
L 193.369269 161.497854 
z
" clip-path="url(#pa6d8303a1a)" style="fill: #b9d6ea"/>
    <path d="M 111.738122 117.862507 
L 132.540329 212.038769 
L 146.751984 200.450087 
z
" clip-path="url(#pa6d8303a1a)" style="fill: #c2d9ee"/>
    <path d="M 193.369269 161.497854 
L 192.579688 158.062343 
L 211.048817 178.180062 
z
" clip-path="url(#pa6d8303a1a)" style="fill: #a9cfe5"/>
    <path d="M 242.726762 119.133968 
L 238.00351 204.637695 
L 256.214826 194.645974 
z
" clip-path="url(#pa6d8303a1a)" style="fill: #b7d4ea"/>
    <path d="M 256.214826 194.645974 
L 274.688804 210.278628 
L 279.96764 198.87765 
z
" clip-path="url(#pa6d8303a1a)" style="fill: #e2edf8"/>
    <path d="M 230.370864 211.094716 
L 248.617491 203.07157 
L 256.214826 194.645974 
z
" clip-path="url(#pa6d8303a1a)" style="fill: #e3eef9"/>
    <path d="M 205.62992 182.677785 
L 224.322219 217.611218 
L 229.678308 213.034228 
z
" clip-path="url(#pa6d8303a1a)" style="fill: #e6f0f9"/>
    <path d="M 229.678308 213.034228 
L 211.048817 178.180062 
L 205.62992 182.677785 
z
" clip-path="url(#pa6d8303a1a)" style="fill: #d4e4f4"/>
    <path d="M 206.866039 169.345509 
L 187.384952 81.76529 
L 181.196821 52.379181 
z
" clip-path="url(#pa6d8303a1a)" style="fill: #1a68ae"/>
    <path d="M 205.62992 182.677785 
L 211.048817 178.180062 
L 192.579688 158.062343 
z
" clip-path="url(#pa6d8303a1a)" style="fill: #b3d3e8"/>
    <path d="M 242.608029 212.71038 
L 229.678308 213.034228 
L 224.322219 217.611218 
z
" clip-path="url(#pa6d8303a1a)" style="fill: #f2f7fd"/>
    <path d="M 256.214826 194.645974 
L 261.549531 192.335005 
L 242.726762 119.133968 
z
" clip-path="url(#pa6d8303a1a)" style="fill: #aacfe5"/>
    <path d="M 247.943522 208.122915 
L 248.617491 203.07157 
L 229.678308 213.034228 
z
" clip-path="url(#pa6d8303a1a)" style="fill: #e8f1fa"/>
    <path d="M 192.579688 158.062343 
L 187.113729 162.506342 
L 205.62992 182.677785 
z
" clip-path="url(#pa6d8303a1a)" style="fill: #a5cde3"/>
    <path d="M 267.139004 216.561653 
L 274.688804 210.278628 
L 256.214826 194.645974 
z
" clip-path="url(#pa6d8303a1a)" style="fill: #e6f0f9"/>
    <path d="M 247.943522 208.122915 
L 229.678308 213.034228 
L 242.608029 212.71038 
z
" clip-path="url(#pa6d8303a1a)" style="fill: #ebf3fb"/>
    <path d="M 146.751984 200.450087 
L 126.287569 106.743891 
L 111.738122 117.862507 
z
" clip-path="url(#pa6d8303a1a)" style="fill: #61a7d2"/>
    <path d="M 279.96764 198.87765 
L 274.688804 210.278628 
L 293.237025 209.272173 
z
" clip-path="url(#pa6d8303a1a)" style="fill: #e4eff9"/>
    <path d="M 293.237025 209.272173 
L 298.491083 205.457713 
L 279.96764 198.87765 
z
" clip-path="url(#pa6d8303a1a)" style="fill: #e0ecf8"/>
    <path d="M 256.214826 194.645974 
L 248.617491 203.07157 
L 267.139004 216.561653 
z
" clip-path="url(#pa6d8303a1a)" style="fill: #e0ecf8"/>
    <path d="M 242.608029 212.71038 
L 224.322219 217.611218 
L 219.213258 221.977027 
z
" clip-path="url(#pa6d8303a1a)" style="fill: #f2f7fd"/>
    <path d="M 173.197349 57.359069 
L 193.369269 161.497854 
L 201.177951 156.973511 
z
" clip-path="url(#pa6d8303a1a)" style="fill: #3c8cc3"/>
    <path d="M 224.322219 217.611218 
L 200.405505 183.472483 
L 219.213258 221.977027 
z
" clip-path="url(#pa6d8303a1a)" style="fill: #e3eef9"/>
    <path d="M 205.62992 182.677785 
L 200.405505 183.472483 
L 224.322219 217.611218 
z
" clip-path="url(#pa6d8303a1a)" style="fill: #d3e3f3"/>
    <path d="M 267.139004 216.561653 
L 248.617491 203.07157 
L 247.943522 208.122915 
z
" clip-path="url(#pa6d8303a1a)" style="fill: #e4eff9"/>
    <path d="M 158.143426 189.809844 
L 173.197349 57.359069 
L 181.196821 52.379181 
z
" clip-path="url(#pa6d8303a1a)" style="fill: #125ea6"/>
    <path d="M 293.237025 209.272173 
L 274.688804 210.278628 
L 267.139004 216.561653 
z
" clip-path="url(#pa6d8303a1a)" style="fill: #e8f1fa"/>
    <path d="M 187.113729 162.506342 
L 200.405505 183.472483 
L 205.62992 182.677785 
z
" clip-path="url(#pa6d8303a1a)" style="fill: #b0d2e7"/>
    <path d="M 247.943522 208.122915 
L 266.457028 222.412372 
L 267.139004 216.561653 
z
" clip-path="url(#pa6d8303a1a)" style="fill: #ecf4fb"/>
    <path d="M 261.162809 227.043747 
L 266.457028 222.412372 
L 247.943522 208.122915 
z
" clip-path="url(#pa6d8303a1a)" style="fill: #eff6fc"/>
    <path d="M 192.579688 158.062343 
L 193.369269 161.497854 
L 173.197349 57.359069 
z
" clip-path="url(#pa6d8303a1a)" style="fill: #3787c0"/>
    <path d="M 147.022797 79.213043 
L 146.751984 200.450087 
L 132.540329 212.038769 
z
" clip-path="url(#pa6d8303a1a)" style="fill: #92c4de"/>
    <path d="M 181.813357 162.276878 
L 200.405505 183.472483 
L 187.113729 162.506342 
z
" clip-path="url(#pa6d8303a1a)" style="fill: #9dcae1"/>
    <path d="M 247.943522 208.122915 
L 242.608029 212.71038 
L 261.162809 227.043747 
z
" clip-path="url(#pa6d8303a1a)" style="fill: #eaf3fb"/>
    <path d="M 298.491083 205.457713 
L 293.237025 209.272173 
L 311.889152 218.577183 
z
" clip-path="url(#pa6d8303a1a)" style="fill: #e3eef9"/>
    <path d="M 219.213258 221.977027 
L 237.498857 214.84133 
L 242.608029 212.71038 
z
" clip-path="url(#pa6d8303a1a)" style="fill: #eaf2fb"/>
    <path d="M 172.292598 49.904018 
L 173.197349 57.359069 
L 158.143426 189.809844 
z
" clip-path="url(#pa6d8303a1a)" style="fill: #0d57a1"/>
    <path d="M 298.491083 205.457713 
L 311.889152 218.577183 
L 317.168707 204.836046 
z
" clip-path="url(#pa6d8303a1a)" style="fill: #e0ecf8"/>
    <path d="M 266.457028 222.412372 
L 285.0297 217.517134 
L 267.139004 216.561653 
z
" clip-path="url(#pa6d8303a1a)" style="fill: #ebf3fb"/>
    <path d="M 200.405505 183.472483 
L 205.313186 233.855188 
L 219.213258 221.977027 
z
" clip-path="url(#pa6d8303a1a)" style="fill: #e3eef9"/>
    <path d="M 267.139004 216.561653 
L 285.724178 217.975702 
L 293.237025 209.272173 
z
" clip-path="url(#pa6d8303a1a)" style="fill: #e5eff9"/>
    <path d="M 261.162809 227.043747 
L 285.0297 217.517134 
L 266.457028 222.412372 
z
" clip-path="url(#pa6d8303a1a)" style="fill: #eef5fc"/>
    <path d="M 173.197349 57.359069 
L 201.177951 156.973511 
L 181.196821 52.379181 
z
" clip-path="url(#pa6d8303a1a)" style="fill: #084285"/>
    <path d="M 261.162809 227.043747 
L 242.608029 212.71038 
L 237.498857 214.84133 
z
" clip-path="url(#pa6d8303a1a)" style="fill: #e9f2fa"/>
    <path d="M 205.313186 233.855188 
L 237.498857 214.84133 
L 219.213258 221.977027 
z
" clip-path="url(#pa6d8303a1a)" style="fill: #f0f6fd"/>
    <path d="M 172.292598 49.904018 
L 157.417943 190.266923 
L 166.681932 54.133962 
z
" clip-path="url(#pa6d8303a1a)" style="fill: #08519c"/>
    <path d="M 192.579688 158.062343 
L 166.681932 54.133962 
L 187.113729 162.506342 
z
" clip-path="url(#pa6d8303a1a)" style="fill: #2f7fbc"/>
    <path d="M 285.0297 217.517134 
L 285.724178 217.975702 
L 267.139004 216.561653 
z
" clip-path="url(#pa6d8303a1a)" style="fill: #e6f0f9"/>
    <path d="M 92.197946 127.96886 
L 113.624419 227.463465 
L 132.540329 212.038769 
z
" clip-path="url(#pa6d8303a1a)" style="fill: #bed8ec"/>
    <path d="M 261.162809 227.043747 
L 237.498857 214.84133 
L 256.1122 231.36651 
z
" clip-path="url(#pa6d8303a1a)" style="fill: #eef5fc"/>
    <path d="M 317.168707 204.836046 
L 311.889152 218.577183 
L 330.629518 227.926213 
z
" clip-path="url(#pa6d8303a1a)" style="fill: #e4eff9"/>
    <path d="M 311.889152 218.577183 
L 293.237025 209.272173 
L 304.432099 224.812996 
z
" clip-path="url(#pa6d8303a1a)" style="fill: #e5eff9"/>
    <path d="M 330.629518 227.926213 
L 335.832856 221.143856 
L 317.168707 204.836046 
z
" clip-path="url(#pa6d8303a1a)" style="fill: #e5eff9"/>
    <path d="M 167.614843 173.790019 
L 200.405505 183.472483 
L 181.813357 162.276878 
z
" clip-path="url(#pa6d8303a1a)" style="fill: #97c6df"/>
    <path d="M 293.237025 209.272173 
L 285.724178 217.975702 
L 304.432099 224.812996 
z
" clip-path="url(#pa6d8303a1a)" style="fill: #e3eef9"/>
    <path d="M 354.601663 232.667727 
L 335.832856 221.143856 
L 330.629518 227.926213 
z
" clip-path="url(#pa6d8303a1a)" style="fill: #eff6fc"/>
    <path d="M 181.813357 162.276878 
L 187.113729 162.506342 
L 166.681932 54.133962 
z
" clip-path="url(#pa6d8303a1a)" style="fill: #2b7bba"/>
    <path d="M 261.162809 227.043747 
L 279.757341 222.159375 
L 285.0297 217.517134 
z
" clip-path="url(#pa6d8303a1a)" style="fill: #e8f1fa"/>
    <path d="M 186.332003 195.129633 
L 205.313186 233.855188 
L 200.405505 183.472483 
z
" clip-path="url(#pa6d8303a1a)" style="fill: #d0e2f2"/>
    <path d="M 111.738122 117.862507 
L 92.197946 127.96886 
L 132.540329 212.038769 
z
" clip-path="url(#pa6d8303a1a)" style="fill: #5da5d1"/>
    <path d="M 304.432099 224.812996 
L 330.629518 227.926213 
L 311.889152 218.577183 
z
" clip-path="url(#pa6d8303a1a)" style="fill: #e9f2fa"/>
    <path d="M 304.432099 224.812996 
L 285.724178 217.975702 
L 285.0297 217.517134 
z
" clip-path="url(#pa6d8303a1a)" style="fill: #e4eff9"/>
    <path d="M 166.681932 54.133962 
L 146.751984 200.450087 
L 161.558353 68.184646 
z
" clip-path="url(#pa6d8303a1a)" style="fill: #0f5aa3"/>
    <path d="M 147.022797 79.213043 
L 132.540329 212.038769 
L 113.624419 227.463465 
z
" clip-path="url(#pa6d8303a1a)" style="fill: #92c4de"/>
    <path d="M 256.1122 231.36651 
L 274.726736 225.822403 
L 261.162809 227.043747 
z
" clip-path="url(#pa6d8303a1a)" style="fill: #eef5fc"/>
    <path d="M 172.292598 49.904018 
L 192.579688 158.062343 
L 173.197349 57.359069 
z
" clip-path="url(#pa6d8303a1a)" style="fill: #083573"/>
    <path d="M 186.332003 195.129633 
L 200.405505 183.472483 
L 167.614843 173.790019 
z
" clip-path="url(#pa6d8303a1a)" style="fill: #a8cee4"/>
    <path d="M 330.629518 227.926213 
L 349.458751 237.319576 
L 354.601663 232.667727 
z
" clip-path="url(#pa6d8303a1a)" style="fill: #f3f8fe"/>
    <path d="M 223.645029 226.737538 
L 237.498857 214.84133 
L 205.313186 233.855188 
z
" clip-path="url(#pa6d8303a1a)" style="fill: #e8f1fa"/>
    <path d="M 304.432099 224.812996 
L 285.0297 217.517134 
L 303.74552 224.491008 
z
" clip-path="url(#pa6d8303a1a)" style="fill: #e4eff9"/>
    <path d="M 274.726736 225.822403 
L 279.757341 222.159375 
L 261.162809 227.043747 
z
" clip-path="url(#pa6d8303a1a)" style="fill: #e8f1fa"/>
    <path d="M 303.74552 224.491008 
L 285.0297 217.517134 
L 279.757341 222.159375 
z
" clip-path="url(#pa6d8303a1a)" style="fill: #e3eef8"/>
    <path d="M 256.1122 231.36651 
L 237.498857 214.84133 
L 242.371152 243.38651 
z
" clip-path="url(#pa6d8303a1a)" style="fill: #eef5fc"/>
    <path d="M 349.458751 237.319576 
L 373.549905 238.204653 
L 354.601663 232.667727 
z
" clip-path="url(#pa6d8303a1a)" style="fill: #f5fafe"/>
    <path d="M 323.22605 234.395447 
L 330.629518 227.926213 
L 304.432099 224.812996 
z
" clip-path="url(#pa6d8303a1a)" style="fill: #ebf3fb"/>
    <path d="M 172.292598 49.904018 
L 166.681932 54.133962 
L 192.579688 158.062343 
z
" clip-path="url(#pa6d8303a1a)" style="fill: #08306b"/>
    <path d="M 303.74552 224.491008 
L 322.499 240.42127 
L 304.432099 224.812996 
z
" clip-path="url(#pa6d8303a1a)" style="fill: #ebf3fb"/>
    <path d="M 161.558353 68.184646 
L 146.751984 200.450087 
L 147.022797 79.213043 
z
" clip-path="url(#pa6d8303a1a)" style="fill: #1561a9"/>
    <path d="M 304.432099 224.812996 
L 322.499 240.42127 
L 323.22605 234.395447 
z
" clip-path="url(#pa6d8303a1a)" style="fill: #eef5fc"/>
    <path d="M 279.757341 222.159375 
L 298.507769 229.164914 
L 303.74552 224.491008 
z
" clip-path="url(#pa6d8303a1a)" style="fill: #e4eff9"/>
    <path d="M 349.458751 237.319576 
L 330.629518 227.926213 
L 342.108127 244.022831 
z
" clip-path="url(#pa6d8303a1a)" style="fill: #f3f8fe"/>
    <path d="M 242.371152 243.38651 
L 237.498857 214.84133 
L 223.645029 226.737538 
z
" clip-path="url(#pa6d8303a1a)" style="fill: #e7f1fa"/>
    <path d="M 256.1122 231.36651 
L 242.371152 243.38651 
L 274.726736 225.822403 
z
" clip-path="url(#pa6d8303a1a)" style="fill: #eef5fc"/>
    <path d="M 342.108127 244.022831 
L 330.629518 227.926213 
L 323.22605 234.395447 
z
" clip-path="url(#pa6d8303a1a)" style="fill: #f0f6fd"/>
    <path d="M 368.420449 244.177175 
L 373.549905 238.204653 
L 349.458751 237.319576 
z
" clip-path="url(#pa6d8303a1a)" style="fill: #f6faff"/>
    <path d="M 186.808445 249.66822 
L 205.313186 233.855188 
L 186.332003 195.129633 
z
" clip-path="url(#pa6d8303a1a)" style="fill: #e3eef9"/>
    <path d="M 317.305185 245.142605 
L 322.499 240.42127 
L 303.74552 224.491008 
z
" clip-path="url(#pa6d8303a1a)" style="fill: #f2f7fd"/>
    <path d="M 91.888215 245.187928 
L 113.624419 227.463465 
L 92.197946 127.96886 
z
" clip-path="url(#pa6d8303a1a)" style="fill: #bed8ec"/>
    <path d="M 303.74552 224.491008 
L 298.507769 229.164914 
L 317.305185 245.142605 
z
" clip-path="url(#pa6d8303a1a)" style="fill: #ebf3fb"/>
    <path d="M 223.645029 226.737538 
L 205.313186 233.855188 
L 186.808445 249.66822 
z
" clip-path="url(#pa6d8303a1a)" style="fill: #f0f6fd"/>
    <path d="M 323.22605 234.395447 
L 322.499 240.42127 
L 342.108127 244.022831 
z
" clip-path="url(#pa6d8303a1a)" style="fill: #f3f8fe"/>
    <path d="M 279.757341 222.159375 
L 274.726736 225.822403 
L 293.512698 232.952895 
z
" clip-path="url(#pa6d8303a1a)" style="fill: #e2edf8"/>
    <path d="M 293.512698 232.952895 
L 298.507769 229.164914 
L 279.757341 222.159375 
z
" clip-path="url(#pa6d8303a1a)" style="fill: #e3eef9"/>
    <path d="M 392.642766 242.565741 
L 373.549905 238.204653 
L 368.420449 244.177175 
z
" clip-path="url(#pa6d8303a1a)" style="fill: #f5fafe"/>
    <path d="M 161.558353 68.184646 
L 181.813357 162.276878 
L 166.681932 54.133962 
z
" clip-path="url(#pa6d8303a1a)" style="fill: #083370"/>
    <path d="M 147.022797 79.213043 
L 167.614843 173.790019 
L 181.813357 162.276878 
z
" clip-path="url(#pa6d8303a1a)" style="fill: #2f7fbc"/>
    <path d="M 342.108127 244.022831 
L 322.499 240.42127 
L 341.429267 244.514687 
z
" clip-path="url(#pa6d8303a1a)" style="fill: #f5fafe"/>
    <path d="M 368.420449 244.177175 
L 349.458751 237.319576 
L 361.120254 250.98697 
z
" clip-path="url(#pa6d8303a1a)" style="fill: #f7fbff"/>
    <path d="M 186.332003 195.129633 
L 167.614843 173.790019 
L 148.712027 189.125516 
z
" clip-path="url(#pa6d8303a1a)" style="fill: #97c6df"/>
    <path d="M 349.458751 237.319576 
L 342.108127 244.022831 
L 361.120254 250.98697 
z
" clip-path="url(#pa6d8303a1a)" style="fill: #f5fafe"/>
    <path d="M 317.305185 245.142605 
L 298.507769 229.164914 
L 293.512698 232.952895 
z
" clip-path="url(#pa6d8303a1a)" style="fill: #eaf3fb"/>
    <path d="M 322.499 240.42127 
L 317.305185 245.142605 
L 336.267995 249.263132 
z
" clip-path="url(#pa6d8303a1a)" style="fill: #f6faff"/>
    <path d="M 341.429267 244.514687 
L 322.499 240.42127 
L 336.267995 249.263132 
z
" clip-path="url(#pa6d8303a1a)" style="fill: #f5fafe"/>
    <path d="M 368.420449 244.177175 
L 387.518066 249.781221 
L 392.642766 242.565741 
z
" clip-path="url(#pa6d8303a1a)" style="fill: #f6faff"/>
    <path d="M 293.512698 232.952895 
L 312.350616 249.64646 
L 317.305185 245.142605 
z
" clip-path="url(#pa6d8303a1a)" style="fill: #f1f7fd"/>
    <path d="M 361.120254 250.98697 
L 342.108127 244.022831 
L 341.429267 244.514687 
z
" clip-path="url(#pa6d8303a1a)" style="fill: #f5fafe"/>
    <path d="M 274.726736 225.822403 
L 242.371152 243.38651 
L 261.039618 237.8685 
z
" clip-path="url(#pa6d8303a1a)" style="fill: #e7f1fa"/>
    <path d="M 147.022797 79.213043 
L 181.813357 162.276878 
L 161.558353 68.184646 
z
" clip-path="url(#pa6d8303a1a)" style="fill: #083b7c"/>
    <path d="M 186.808445 249.66822 
L 186.332003 195.129633 
L 167.607425 211.188107 
z
" clip-path="url(#pa6d8303a1a)" style="fill: #d0e2f2"/>
    <path d="M 361.120254 250.98697 
L 387.518066 249.781221 
L 368.420449 244.177175 
z
" clip-path="url(#pa6d8303a1a)" style="fill: #f7fbff"/>
    <path d="M 336.267995 249.263132 
L 317.305185 245.142605 
L 312.350616 249.64646 
z
" clip-path="url(#pa6d8303a1a)" style="fill: #f6faff"/>
    <path d="M 223.645029 226.737538 
L 205.243657 245.447453 
L 242.371152 243.38651 
z
" clip-path="url(#pa6d8303a1a)" style="fill: #e9f2fa"/>
    <path d="M 341.429267 244.514687 
L 360.444597 251.617239 
L 361.120254 250.98697 
z
" clip-path="url(#pa6d8303a1a)" style="fill: #f6faff"/>
    <path d="M 341.429267 244.514687 
L 336.267995 249.263132 
L 360.444597 251.617239 
z
" clip-path="url(#pa6d8303a1a)" style="fill: #f5fafe"/>
    <path d="M 167.607425 211.188107 
L 186.332003 195.129633 
L 148.712027 189.125516 
z
" clip-path="url(#pa6d8303a1a)" style="fill: #a9cfe5"/>
    <path d="M 279.915126 245.082104 
L 293.512698 232.952895 
L 274.726736 225.822403 
z
" clip-path="url(#pa6d8303a1a)" style="fill: #e3eef8"/>
    <path d="M 392.642766 242.565741 
L 387.518066 249.781221 
L 406.736052 255.420589 
z
" clip-path="url(#pa6d8303a1a)" style="fill: #f6faff"/>
    <path d="M 392.642766 242.565741 
L 406.736052 255.420589 
L 411.77334 250.595392 
z
" clip-path="url(#pa6d8303a1a)" style="fill: #f6faff"/>
    <path d="M 186.808445 249.66822 
L 205.243657 245.447453 
L 223.645029 226.737538 
z
" clip-path="url(#pa6d8303a1a)" style="fill: #eaf2fb"/>
    <path d="M 127.628469 92.591923 
L 113.624419 227.463465 
L 91.888215 245.187928 
z
" clip-path="url(#pa6d8303a1a)" style="fill: #91c3de"/>
    <path d="M 336.267995 249.263132 
L 312.350616 249.64646 
L 331.330282 255.284978 
z
" clip-path="url(#pa6d8303a1a)" style="fill: #f6faff"/>
    <path d="M 361.120254 250.98697 
L 380.267983 256.633952 
L 387.518066 249.781221 
z
" clip-path="url(#pa6d8303a1a)" style="fill: #f7fbff"/>
    <path d="M 312.350616 249.64646 
L 293.512698 232.952895 
L 279.915126 245.082104 
z
" clip-path="url(#pa6d8303a1a)" style="fill: #eaf3fb"/>
    <path d="M 274.726736 225.822403 
L 261.039618 237.8685 
L 279.915126 245.082104 
z
" clip-path="url(#pa6d8303a1a)" style="fill: #e2edf8"/>
    <path d="M 360.444597 251.617239 
L 336.267995 249.263132 
L 355.319306 256.398231 
z
" clip-path="url(#pa6d8303a1a)" style="fill: #f6faff"/>
    <path d="M 147.022797 79.213043 
L 148.712027 189.125516 
L 167.614843 173.790019 
z
" clip-path="url(#pa6d8303a1a)" style="fill: #2f7fbc"/>
    <path d="M 379.596955 257.268203 
L 361.120254 250.98697 
L 360.444597 251.617239 
z
" clip-path="url(#pa6d8303a1a)" style="fill: #f7fbff"/>
    <path d="M 406.736052 255.420589 
L 387.518066 249.781221 
L 380.267983 256.633952 
z
" clip-path="url(#pa6d8303a1a)" style="fill: #f7fbff"/>
    <path d="M 380.267983 256.633952 
L 361.120254 250.98697 
L 379.596955 257.268203 
z
" clip-path="url(#pa6d8303a1a)" style="fill: #f7fbff"/>
    <path d="M 242.371152 243.38651 
L 205.243657 245.447453 
L 224.094508 260.981179 
z
" clip-path="url(#pa6d8303a1a)" style="fill: #f1f7fd"/>
    <path d="M 379.596955 257.268203 
L 360.444597 251.617239 
L 355.319306 256.398231 
z
" clip-path="url(#pa6d8303a1a)" style="fill: #f7fbff"/>
    <path d="M 411.77334 250.595392 
L 406.736052 255.420589 
L 426.075551 261.095614 
z
" clip-path="url(#pa6d8303a1a)" style="fill: #f7fbff"/>
    <path d="M 336.267995 249.263132 
L 331.330282 255.284978 
L 350.429944 260.959144 
z
" clip-path="url(#pa6d8303a1a)" style="fill: #f6faff"/>
    <path d="M 426.075551 261.095614 
L 431.076573 256.239901 
L 411.77334 250.595392 
z
" clip-path="url(#pa6d8303a1a)" style="fill: #f7fbff"/>
    <path d="M 350.429944 260.959144 
L 355.319306 256.398231 
L 336.267995 249.263132 
z
" clip-path="url(#pa6d8303a1a)" style="fill: #f6faff"/>
    <path d="M 91.888215 245.187928 
L 92.197946 127.96886 
L 69.912507 144.950139 
z
" clip-path="url(#pa6d8303a1a)" style="fill: #5aa2cf"/>
    <path d="M 279.915126 245.082104 
L 298.868649 261.901979 
L 312.350616 249.64646 
z
" clip-path="url(#pa6d8303a1a)" style="fill: #f1f7fd"/>
    <path d="M 242.811658 253.482899 
L 261.039618 237.8685 
L 242.371152 243.38651 
z
" clip-path="url(#pa6d8303a1a)" style="fill: #e7f1fa"/>
    <path d="M 317.935949 267.618124 
L 331.330282 255.284978 
L 312.350616 249.64646 
z
" clip-path="url(#pa6d8303a1a)" style="fill: #f7fbff"/>
    <path d="M 147.022797 79.213043 
L 113.624419 227.463465 
L 127.628469 92.591923 
z
" clip-path="url(#pa6d8303a1a)" style="fill: #1460a8"/>
    <path d="M 380.267983 256.633952 
L 399.536862 262.316664 
L 406.736052 255.420589 
z
" clip-path="url(#pa6d8303a1a)" style="fill: #f7fbff"/>
    <path d="M 355.319306 256.398231 
L 374.506732 262.079449 
L 379.596955 257.268203 
z
" clip-path="url(#pa6d8303a1a)" style="fill: #f7fbff"/>
    <path d="M 399.536862 262.316664 
L 380.267983 256.633952 
L 379.596955 257.268203 
z
" clip-path="url(#pa6d8303a1a)" style="fill: #f7fbff"/>
    <path d="M 224.094508 260.981179 
L 242.811658 253.482899 
L 242.371152 243.38651 
z
" clip-path="url(#pa6d8303a1a)" style="fill: #eef5fc"/>
    <path d="M 399.536862 262.316664 
L 426.075551 261.095614 
L 406.736052 255.420589 
z
" clip-path="url(#pa6d8303a1a)" style="fill: #f7fbff"/>
    <path d="M 167.607425 211.188107 
L 146.073212 229.030593 
L 186.808445 249.66822 
z
" clip-path="url(#pa6d8303a1a)" style="fill: #d1e2f3"/>
    <path d="M 312.350616 249.64646 
L 298.868649 261.901979 
L 317.935949 267.618124 
z
" clip-path="url(#pa6d8303a1a)" style="fill: #f7fbff"/>
    <path d="M 450.501912 261.920115 
L 431.076573 256.239901 
L 426.075551 261.095614 
z
" clip-path="url(#pa6d8303a1a)" style="fill: #f7fbff"/>
    <path d="M 374.506732 262.079449 
L 355.319306 256.398231 
L 350.429944 260.959144 
z
" clip-path="url(#pa6d8303a1a)" style="fill: #f7fbff"/>
    <path d="M 379.596955 257.268203 
L 398.870536 262.954935 
L 399.536862 262.316664 
z
" clip-path="url(#pa6d8303a1a)" style="fill: #f7fbff"/>
    <path d="M 148.712027 189.125516 
L 146.073212 229.030593 
L 167.607425 211.188107 
z
" clip-path="url(#pa6d8303a1a)" style="fill: #a9cfe5"/>
    <path d="M 184.05396 263.67263 
L 205.243657 245.447453 
L 186.808445 249.66822 
z
" clip-path="url(#pa6d8303a1a)" style="fill: #ecf4fb"/>
    <path d="M 379.596955 257.268203 
L 374.506732 262.079449 
L 393.815929 267.796722 
z
" clip-path="url(#pa6d8303a1a)" style="fill: #f7fbff"/>
    <path d="M 393.815929 267.796722 
L 398.870536 262.954935 
L 379.596955 257.268203 
z
" clip-path="url(#pa6d8303a1a)" style="fill: #f7fbff"/>
    <path d="M 331.330282 255.284978 
L 337.124629 273.370657 
L 350.429944 260.959144 
z
" clip-path="url(#pa6d8303a1a)" style="fill: #f7fbff"/>
    <path d="M 350.429944 260.959144 
L 369.650745 266.669297 
L 374.506732 262.079449 
z
" clip-path="url(#pa6d8303a1a)" style="fill: #f7fbff"/>
    <path d="M 426.075551 261.095614 
L 445.537718 266.806634 
L 450.501912 261.920115 
z
" clip-path="url(#pa6d8303a1a)" style="fill: #f7fbff"/>
    <path d="M 261.039618 237.8685 
L 261.814197 262.517664 
L 279.915126 245.082104 
z
" clip-path="url(#pa6d8303a1a)" style="fill: #e3eef9"/>
    <path d="M 186.808445 249.66822 
L 146.073212 229.030593 
L 165.539699 267.843203 
z
" clip-path="url(#pa6d8303a1a)" style="fill: #e4eff9"/>
    <path d="M 399.536862 262.316664 
L 418.928045 268.035444 
L 426.075551 261.095614 
z
" clip-path="url(#pa6d8303a1a)" style="fill: #f7fbff"/>
    <path d="M 418.928045 268.035444 
L 399.536862 262.316664 
L 398.870536 262.954935 
z
" clip-path="url(#pa6d8303a1a)" style="fill: #f7fbff"/>
    <path d="M 165.539699 267.843203 
L 184.05396 263.67263 
L 186.808445 249.66822 
z
" clip-path="url(#pa6d8303a1a)" style="fill: #f2f7fd"/>
    <path d="M 317.935949 267.618124 
L 337.124629 273.370657 
L 331.330282 255.284978 
z
" clip-path="url(#pa6d8303a1a)" style="fill: #f7fbff"/>
    <path d="M 279.915126 245.082104 
L 261.814197 262.517664 
L 298.868649 261.901979 
z
" clip-path="url(#pa6d8303a1a)" style="fill: #ebf3fb"/>
    <path d="M 205.243657 245.447453 
L 203.071066 279.387891 
L 224.094508 260.981179 
z
" clip-path="url(#pa6d8303a1a)" style="fill: #f2f7fd"/>
    <path d="M 398.870536 262.954935 
L 418.266493 268.677774 
L 418.928045 268.035444 
z
" clip-path="url(#pa6d8303a1a)" style="fill: #f7fbff"/>
    <path d="M 350.429944 260.959144 
L 337.124629 273.370657 
L 369.650745 266.669297 
z
" clip-path="url(#pa6d8303a1a)" style="fill: #f7fbff"/>
    <path d="M 374.506732 262.079449 
L 369.650745 266.669297 
L 388.993838 272.415782 
z
" clip-path="url(#pa6d8303a1a)" style="fill: #f7fbff"/>
    <path d="M 450.501912 261.920115 
L 445.537718 266.806634 
L 465.123724 272.553995 
z
" clip-path="url(#pa6d8303a1a)" style="fill: #f7fbff"/>
    <path d="M 127.628469 92.591923 
L 148.712027 189.125516 
L 147.022797 79.213043 
z
" clip-path="url(#pa6d8303a1a)" style="fill: #083a7a"/>
    <path d="M 445.537718 266.806634 
L 426.075551 261.095614 
L 438.442698 273.790639 
z
" clip-path="url(#pa6d8303a1a)" style="fill: #f7fbff"/>
    <path d="M 465.123724 272.553995 
L 470.05052 267.636375 
L 450.501912 261.920115 
z
" clip-path="url(#pa6d8303a1a)" style="fill: #f7fbff"/>
    <path d="M 388.993838 272.415782 
L 393.815929 267.796722 
L 374.506732 262.079449 
z
" clip-path="url(#pa6d8303a1a)" style="fill: #f7fbff"/>
    <path d="M 261.039618 237.8685 
L 242.811658 253.482899 
L 261.814197 262.517664 
z
" clip-path="url(#pa6d8303a1a)" style="fill: #e2edf8"/>
    <path d="M 426.075551 261.095614 
L 418.928045 268.035444 
L 438.442698 273.790639 
z
" clip-path="url(#pa6d8303a1a)" style="fill: #f7fbff"/>
    <path d="M 126.984193 206.744031 
L 146.073212 229.030593 
L 148.712027 189.125516 
z
" clip-path="url(#pa6d8303a1a)" style="fill: #99c7e0"/>
    <path d="M 393.815929 267.796722 
L 413.248059 273.550394 
L 398.870536 262.954935 
z
" clip-path="url(#pa6d8303a1a)" style="fill: #f7fbff"/>
    <path d="M 413.248059 273.550394 
L 418.266493 268.677774 
L 398.870536 262.954935 
z
" clip-path="url(#pa6d8303a1a)" style="fill: #f7fbff"/>
    <path d="M 418.928045 268.035444 
L 418.266493 268.677774 
L 437.785996 274.437065 
z
" clip-path="url(#pa6d8303a1a)" style="fill: #f7fbff"/>
    <path d="M 438.442698 273.790639 
L 465.123724 272.553995 
L 445.537718 266.806634 
z
" clip-path="url(#pa6d8303a1a)" style="fill: #f7fbff"/>
    <path d="M 317.935949 267.618124 
L 298.868649 261.901979 
L 300.09918 284.041746 
z
" clip-path="url(#pa6d8303a1a)" style="fill: #f7fbff"/>
    <path d="M 413.248059 273.550394 
L 393.815929 267.796722 
L 388.993838 272.415782 
z
" clip-path="url(#pa6d8303a1a)" style="fill: #f7fbff"/>
    <path d="M 205.243657 245.447453 
L 184.05396 263.67263 
L 203.071066 279.387891 
z
" clip-path="url(#pa6d8303a1a)" style="fill: #ecf4fb"/>
    <path d="M 298.868649 261.901979 
L 261.814197 262.517664 
L 280.916087 278.221406 
z
" clip-path="url(#pa6d8303a1a)" style="fill: #f2f7fd"/>
    <path d="M 437.785996 274.437065 
L 438.442698 273.790639 
L 418.928045 268.035444 
z
" clip-path="url(#pa6d8303a1a)" style="fill: #f7fbff"/>
    <path d="M 437.785996 274.437065 
L 418.266493 268.677774 
L 413.248059 273.550394 
z
" clip-path="url(#pa6d8303a1a)" style="fill: #f7fbff"/>
    <path d="M 470.05052 267.636375 
L 465.123724 272.553995 
L 484.834754 278.338043 
z
" clip-path="url(#pa6d8303a1a)" style="fill: #f7fbff"/>
    <path d="M 369.650745 266.669297 
L 337.124629 273.370657 
L 356.435853 279.159928 
z
" clip-path="url(#pa6d8303a1a)" style="fill: #f7fbff"/>
    <path d="M 484.834754 278.338043 
L 489.723575 273.389025 
L 470.05052 267.636375 
z
" clip-path="url(#pa6d8303a1a)" style="fill: #f7fbff"/>
    <path d="M 221.858277 271.919666 
L 242.811658 253.482899 
L 224.094508 260.981179 
z
" clip-path="url(#pa6d8303a1a)" style="fill: #e8f1fa"/>
    <path d="M 375.870798 284.986288 
L 388.993838 272.415782 
L 369.650745 266.669297 
z
" clip-path="url(#pa6d8303a1a)" style="fill: #f7fbff"/>
    <path d="M 388.993838 272.415782 
L 408.460397 278.198947 
L 413.248059 273.550394 
z
" clip-path="url(#pa6d8303a1a)" style="fill: #f7fbff"/>
    <path d="M 300.09918 284.041746 
L 298.868649 261.901979 
L 280.916087 278.221406 
z
" clip-path="url(#pa6d8303a1a)" style="fill: #f7fbff"/>
    <path d="M 317.935949 267.618124 
L 300.09918 284.041746 
L 337.124629 273.370657 
z
" clip-path="url(#pa6d8303a1a)" style="fill: #f7fbff"/>
    <path d="M 438.442698 273.790639 
L 458.082007 279.582596 
L 465.123724 272.553995 
z
" clip-path="url(#pa6d8303a1a)" style="fill: #f7fbff"/>
    <path d="M 91.888215 245.187928 
L 105.368042 109.467512 
L 127.628469 92.591923 
z
" clip-path="url(#pa6d8303a1a)" style="fill: #135fa7"/>
    <path d="M 437.785996 274.437065 
L 413.248059 273.550394 
L 432.804299 279.340814 
z
" clip-path="url(#pa6d8303a1a)" style="fill: #f7fbff"/>
    <path d="M 458.082007 279.582596 
L 438.442698 273.790639 
L 437.785996 274.437065 
z
" clip-path="url(#pa6d8303a1a)" style="fill: #f7fbff"/>
    <path d="M 105.368042 109.467512 
L 126.984193 206.744031 
L 148.712027 189.125516 
z
" clip-path="url(#pa6d8303a1a)" style="fill: #2e7ebc"/>
    <path d="M 224.094508 260.981179 
L 203.071066 279.387891 
L 221.858277 271.919666 
z
" clip-path="url(#pa6d8303a1a)" style="fill: #f0f6fd"/>
    <path d="M 369.650745 266.669297 
L 356.435853 279.159928 
L 375.870798 284.986288 
z
" clip-path="url(#pa6d8303a1a)" style="fill: #f7fbff"/>
    <path d="M 509.522268 279.178413 
L 489.723575 273.389025 
L 484.834754 278.338043 
z
" clip-path="url(#pa6d8303a1a)" style="fill: #f7fbff"/>
    <path d="M 437.785996 274.437065 
L 457.430229 280.233159 
L 458.082007 279.582596 
z
" clip-path="url(#pa6d8303a1a)" style="fill: #f7fbff"/>
    <path d="M 408.460397 278.198947 
L 388.993838 272.415782 
L 375.870798 284.986288 
z
" clip-path="url(#pa6d8303a1a)" style="fill: #f7fbff"/>
    <path d="M 413.248059 273.550394 
L 408.460397 278.198947 
L 428.051606 284.019142 
z
" clip-path="url(#pa6d8303a1a)" style="fill: #f7fbff"/>
    <path d="M 477.847168 285.411669 
L 484.834754 278.338043 
L 465.123724 272.553995 
z
" clip-path="url(#pa6d8303a1a)" style="fill: #f7fbff"/>
    <path d="M 428.051606 284.019142 
L 432.804299 279.340814 
L 413.248059 273.550394 
z
" clip-path="url(#pa6d8303a1a)" style="fill: #f7fbff"/>
    <path d="M 127.628469 92.591923 
L 105.368042 109.467512 
L 148.712027 189.125516 
z
" clip-path="url(#pa6d8303a1a)" style="fill: #083979"/>
    <path d="M 261.814197 262.517664 
L 242.811658 253.482899 
L 221.858277 271.919666 
z
" clip-path="url(#pa6d8303a1a)" style="fill: #e2edf8"/>
    <path d="M 465.123724 272.553995 
L 458.082007 279.582596 
L 477.847168 285.411669 
z
" clip-path="url(#pa6d8303a1a)" style="fill: #f7fbff"/>
    <path d="M 432.804299 279.340814 
L 452.485844 285.168336 
L 437.785996 274.437065 
z
" clip-path="url(#pa6d8303a1a)" style="fill: #f7fbff"/>
    <path d="M 452.485844 285.168336 
L 457.430229 280.233159 
L 437.785996 274.437065 
z
" clip-path="url(#pa6d8303a1a)" style="fill: #f7fbff"/>
    <path d="M 504.672011 284.15913 
L 509.522268 279.178413 
L 484.834754 278.338043 
z
" clip-path="url(#pa6d8303a1a)" style="fill: #f7fbff"/>
    <path d="M 457.430229 280.233159 
L 477.847168 285.411669 
L 458.082007 279.582596 
z
" clip-path="url(#pa6d8303a1a)" style="fill: #f7fbff"/>
    <path d="M 337.124629 273.370657 
L 300.09918 284.041746 
L 319.405505 289.899475 
z
" clip-path="url(#pa6d8303a1a)" style="fill: #f7fbff"/>
    <path d="M 504.672011 284.15913 
L 484.834754 278.338043 
L 477.847168 285.411669 
z
" clip-path="url(#pa6d8303a1a)" style="fill: #f7fbff"/>
    <path d="M 356.435853 279.159928 
L 337.124629 273.370657 
L 338.836253 295.794956 
z
" clip-path="url(#pa6d8303a1a)" style="fill: #f7fbff"/>
    <path d="M 452.485844 285.168336 
L 432.804299 279.340814 
L 428.051606 284.019142 
z
" clip-path="url(#pa6d8303a1a)" style="fill: #f7fbff"/>
    <path d="M 280.916087 278.221406 
L 261.814197 262.517664 
L 260.275742 296.984109 
z
" clip-path="url(#pa6d8303a1a)" style="fill: #f2f7fd"/>
    <path d="M 477.200392 286.066409 
L 477.847168 285.411669 
L 457.430229 280.233159 
z
" clip-path="url(#pa6d8303a1a)" style="fill: #f7fbff"/>
    <path d="M 375.870798 284.986288 
L 395.430658 290.850097 
L 408.460397 278.198947 
z
" clip-path="url(#pa6d8303a1a)" style="fill: #f7fbff"/>
    <path d="M 452.485844 285.168336 
L 472.2939 291.033316 
L 457.430229 280.233159 
z
" clip-path="url(#pa6d8303a1a)" style="fill: #f7fbff"/>
    <path d="M 457.430229 280.233159 
L 472.2939 291.033316 
L 477.200392 286.066409 
z
" clip-path="url(#pa6d8303a1a)" style="fill: #f7fbff"/>
    <path d="M 415.11664 296.751715 
L 428.051606 284.019142 
L 408.460397 278.198947 
z
" clip-path="url(#pa6d8303a1a)" style="fill: #f7fbff"/>
    <path d="M 428.051606 284.019142 
L 447.768666 289.876726 
L 452.485844 285.168336 
z
" clip-path="url(#pa6d8303a1a)" style="fill: #f7fbff"/>
    <path d="M 338.836253 295.794956 
L 337.124629 273.370657 
L 319.405505 289.899475 
z
" clip-path="url(#pa6d8303a1a)" style="fill: #f7fbff"/>
    <path d="M 280.916087 278.221406 
L 260.275742 296.984109 
L 300.09918 284.041746 
z
" clip-path="url(#pa6d8303a1a)" style="fill: #f7fbff"/>
    <path d="M 375.870798 284.986288 
L 356.435853 279.159928 
L 338.836253 295.794956 
z
" clip-path="url(#pa6d8303a1a)" style="fill: #f7fbff"/>
    <path d="M 241.002922 281.094879 
L 261.814197 262.517664 
L 221.858277 271.919666 
z
" clip-path="url(#pa6d8303a1a)" style="fill: #e4eff9"/>
    <path d="M 477.847168 285.411669 
L 497.739396 291.278216 
L 504.672011 284.15913 
z
" clip-path="url(#pa6d8303a1a)" style="fill: #f7fbff"/>
    <path d="M 477.847168 285.411669 
L 477.200392 286.066409 
L 497.097699 291.937173 
z
" clip-path="url(#pa6d8303a1a)" style="fill: #f7fbff"/>
    <path d="M 408.460397 278.198947 
L 395.430658 290.850097 
L 415.11664 296.751715 
z
" clip-path="url(#pa6d8303a1a)" style="fill: #f7fbff"/>
    <path d="M 472.2939 291.033316 
L 452.485844 285.168336 
L 447.768666 289.876726 
z
" clip-path="url(#pa6d8303a1a)" style="fill: #f7fbff"/>
    <path d="M 260.275742 296.984109 
L 261.814197 262.517664 
L 241.002922 281.094879 
z
" clip-path="url(#pa6d8303a1a)" style="fill: #ecf4fb"/>
    <path d="M 477.847168 285.411669 
L 497.097699 291.937173 
L 497.739396 291.278216 
z
" clip-path="url(#pa6d8303a1a)" style="fill: #f7fbff"/>
    <path d="M 497.097699 291.937173 
L 477.200392 286.066409 
L 472.2939 291.033316 
z
" clip-path="url(#pa6d8303a1a)" style="fill: #f7fbff"/>
    <path d="M 447.768666 289.876726 
L 428.051606 284.019142 
L 415.11664 296.751715 
z
" clip-path="url(#pa6d8303a1a)" style="fill: #f7fbff"/>
    <path d="M 472.2939 291.033316 
L 447.768666 289.876726 
L 467.612795 295.77206 
z
" clip-path="url(#pa6d8303a1a)" style="fill: #f7fbff"/>
    <path d="M 492.229692 296.936118 
L 497.097699 291.937173 
L 472.2939 291.033316 
z
" clip-path="url(#pa6d8303a1a)" style="fill: #f7fbff"/>
    <path d="M 338.836253 295.794956 
L 358.39263 301.728554 
L 375.870798 284.986288 
z
" clip-path="url(#pa6d8303a1a)" style="fill: #f7fbff"/>
    <path d="M 299.031023 308.905275 
L 319.405505 289.899475 
L 300.09918 284.041746 
z
" clip-path="url(#pa6d8303a1a)" style="fill: #f7fbff"/>
    <path d="M 378.075859 307.700639 
L 395.430658 290.850097 
L 375.870798 284.986288 
z
" clip-path="url(#pa6d8303a1a)" style="fill: #f7fbff"/>
    <path d="M 300.09918 284.041746 
L 260.275742 296.984109 
L 279.590699 302.92541 
z
" clip-path="url(#pa6d8303a1a)" style="fill: #f7fbff"/>
    <path d="M 467.612795 295.77206 
L 487.585225 301.705509 
L 472.2939 291.033316 
z
" clip-path="url(#pa6d8303a1a)" style="fill: #f7fbff"/>
    <path d="M 415.11664 296.751715 
L 434.929969 302.69151 
L 447.768666 289.876726 
z
" clip-path="url(#pa6d8303a1a)" style="fill: #f7fbff"/>
    <path d="M 472.2939 291.033316 
L 487.585225 301.705509 
L 492.229692 296.936118 
z
" clip-path="url(#pa6d8303a1a)" style="fill: #f7fbff"/>
    <path d="M 447.768666 289.876726 
L 454.871883 308.669854 
L 467.612795 295.77206 
z
" clip-path="url(#pa6d8303a1a)" style="fill: #f7fbff"/>
    <path d="M 375.870798 284.986288 
L 358.39263 301.728554 
L 378.075859 307.700639 
z
" clip-path="url(#pa6d8303a1a)" style="fill: #f7fbff"/>
    <path d="M 338.836253 295.794956 
L 319.405505 289.899475 
L 299.031023 308.905275 
z
" clip-path="url(#pa6d8303a1a)" style="fill: #f7fbff"/>
    <path d="M 415.11664 296.751715 
L 395.430658 290.850097 
L 378.075859 307.700639 
z
" clip-path="url(#pa6d8303a1a)" style="fill: #f7fbff"/>
    <path d="M 279.590699 302.92541 
L 299.031023 308.905275 
L 300.09918 284.041746 
z
" clip-path="url(#pa6d8303a1a)" style="fill: #f7fbff"/>
    <path d="M 434.929969 302.69151 
L 454.871883 308.669854 
L 447.768666 289.876726 
z
" clip-path="url(#pa6d8303a1a)" style="fill: #f7fbff"/>
    <path d="M 454.871883 308.669854 
L 487.585225 301.705509 
L 467.612795 295.77206 
z
" clip-path="url(#pa6d8303a1a)" style="fill: #f7fbff"/>
    <path d="M 378.075859 307.700639 
L 397.887178 313.711589 
L 415.11664 296.751715 
z
" clip-path="url(#pa6d8303a1a)" style="fill: #f7fbff"/>
    <path d="M 338.292689 320.982204 
L 358.39263 301.728554 
L 338.836253 295.794956 
z
" clip-path="url(#pa6d8303a1a)" style="fill: #f7fbff"/>
    <path d="M 417.827841 319.761783 
L 434.929969 302.69151 
L 415.11664 296.751715 
z
" clip-path="url(#pa6d8303a1a)" style="fill: #f7fbff"/>
    <path d="M 299.031023 308.905275 
L 318.59794 314.924079 
L 338.836253 295.794956 
z
" clip-path="url(#pa6d8303a1a)" style="fill: #f7fbff"/>
    <path d="M 474.943639 314.687123 
L 487.585225 301.705509 
L 454.871883 308.669854 
z
" clip-path="url(#pa6d8303a1a)" style="fill: #f7fbff"/>
    <path d="M 415.11664 296.751715 
L 397.887178 313.711589 
L 417.827841 319.761783 
z
" clip-path="url(#pa6d8303a1a)" style="fill: #f7fbff"/>
    <path d="M 378.075859 307.700639 
L 358.39263 301.728554 
L 338.292689 320.982204 
z
" clip-path="url(#pa6d8303a1a)" style="fill: #f7fbff"/>
    <path d="M 417.827841 319.761783 
L 454.871883 308.669854 
L 434.929969 302.69151 
z
" clip-path="url(#pa6d8303a1a)" style="fill: #f7fbff"/>
    <path d="M 338.836253 295.794956 
L 318.59794 314.924079 
L 338.292689 320.982204 
z
" clip-path="url(#pa6d8303a1a)" style="fill: #f7fbff"/>
    <path d="M 474.943639 314.687123 
L 454.871883 308.669854 
L 437.89912 325.851607 
z
" clip-path="url(#pa6d8303a1a)" style="fill: #f7fbff"/>
    <path d="M 417.827841 319.761783 
L 437.89912 325.851607 
L 454.871883 308.669854 
z
" clip-path="url(#pa6d8303a1a)" style="fill: #f7fbff"/>
    <path d="M 378.070728 333.217971 
L 397.887178 313.711589 
L 378.075859 307.700639 
z
" clip-path="url(#pa6d8303a1a)" style="fill: #f7fbff"/>
    <path d="M 338.292689 320.982204 
L 358.116527 327.080038 
L 378.075859 307.700639 
z
" clip-path="url(#pa6d8303a1a)" style="fill: #f7fbff"/>
    <path d="M 417.827841 319.761783 
L 397.887178 313.711589 
L 378.070728 333.217971 
z
" clip-path="url(#pa6d8303a1a)" style="fill: #f7fbff"/>
    <path d="M 378.075859 307.700639 
L 358.116527 327.080038 
L 378.070728 333.217971 
z
" clip-path="url(#pa6d8303a1a)" style="fill: #f7fbff"/>
    <path d="M 437.89912 325.851607 
L 458.102302 331.981451 
L 474.943639 314.687123 
z
" clip-path="url(#pa6d8303a1a)" style="fill: #f7fbff"/>
    <path d="M 418.375397 345.61573 
L 437.89912 325.851607 
L 417.827841 319.761783 
z
" clip-path="url(#pa6d8303a1a)" style="fill: #f7fbff"/>
    <path d="M 378.070728 333.217971 
L 398.156583 339.396401 
L 417.827841 319.761783 
z
" clip-path="url(#pa6d8303a1a)" style="fill: #f7fbff"/>
    <path d="M 398.156583 339.396401 
L 418.375397 345.61573 
L 417.827841 319.761783 
z
" clip-path="url(#pa6d8303a1a)" style="fill: #f7fbff"/>
    <path d="M 438.728496 351.876365 
L 458.102302 331.981451 
L 437.89912 325.851607 
z
" clip-path="url(#pa6d8303a1a)" style="fill: #f7fbff"/>
    <path d="M 437.89912 325.851607 
L 418.375397 345.61573 
L 438.728496 351.876365 
z
" clip-path="url(#pa6d8303a1a)" style="fill: #f7fbff"/>
   </g>
  </g>
 </g>
 <defs>
  <clipPath id="pa6d8303a1a">
   <rect x="-1.8" y="-79.2" width="554.4" height="554.4"/>
  </clipPath>
 </defs>
</svg>
