<?xml version="1.0" encoding="utf-8" standalone="no"?>
<!DOCTYPE svg PUBLIC "-//W3C//DTD SVG 1.1//EN"
  "http://www.w3.org/Graphics/SVG/1.1/DTD/svg11.dtd">
<svg xmlns:xlink="http://www.w3.org/1999/xlink" width="633.43914pt" height="597.6pt" viewBox="0 0 633.43914 597.6" xmlns="http://www.w3.org/2000/svg" version="1.1">
 <metadata>
  <rdf:RDF xmlns:dc="http://purl.org/dc/elements/1.1/" xmlns:cc="http://creativecommons.org/ns#" xmlns:rdf="http://www.w3.org/1999/02/22-rdf-syntax-ns#">
   <cc:Work>
    <dc:type rdf:resource="http://purl.org/dc/dcmitype/StillImage"/>
    <dc:date/>
    <dc:format>image/svg+xml</dc:format>
    <dc:creator>
     <cc:Agent>
      <dc:title>Matplotlib v3.6.2, https://matplotlib.org/</dc:title>
     </cc:Agent>
    </dc:creator>
   </cc:Work>
  </rdf:RDF>
 </metadata>
 <defs>
  <style type="text/css">*{stroke-linejoin: round; stroke-linecap: butt}</style>
 </defs>
 <g id="figure_1">
  <g id="patch_1">
   <path d="M 0 597.6 
L 633.43914 597.6 
L 633.43914 0 
L 0 0 
z
" style="fill: #ffffff"/>
  </g>
  <g id="patch_2">
   <path d="M 21.6 576 
L 576 576 
L 576 21.6 
L 21.6 21.6 
z
" style="fill: #ffffff"/>
  </g>
  <g id="pane3d_1">
   <g id="patch_3">
    <path d="M 41.312472 360.463759 
L 168.231956 259.540656 
L 164.248407 108.857576 
L 33.198586 203.642949 
" style="fill: #f2f2f2; opacity: 0.5; stroke: #f2f2f2; stroke-linejoin: miter"/>
   </g>
  </g>
  <g id="pane3d_2">
   <g id="patch_4">
    <path d="M 168.231956 259.540656 
L 573.729769 377.157828 
L 581.997262 219.353145 
L 164.248407 108.857576 
" style="fill: #e6e6e6; opacity: 0.5; stroke: #e6e6e6; stroke-linejoin: miter"/>
   </g>
  </g>
  <g id="pane3d_3">
   <g id="patch_5">
    <path d="M 41.312472 360.463759 
L 463.330816 493.019825 
L 573.729769 377.157828 
L 168.231956 259.540656 
" style="fill: #ececec; opacity: 0.5; stroke: #ececec; stroke-linejoin: miter"/>
   </g>
  </g>
  <g id="axis3d_1">
   <g id="line2d_1">
    <path d="M 41.312472 360.463759 
L 463.330816 493.019825 
" style="fill: none; stroke: #000000; stroke-width: 0.8; stroke-linecap: square"/>
   </g>
   <g id="text_1">
    <!-- Python version -->
    <g transform="translate(187.76057 443.267396) rotate(-342.562483) scale(0.12 -0.12)">
     <defs>
      <path id="DejaVuSans-50" d="M 1259 4147 
L 1259 2394 
L 2053 2394 
Q 2494 2394 2734 2622 
Q 2975 2850 2975 3272 
Q 2975 3691 2734 3919 
Q 2494 4147 2053 4147 
L 1259 4147 
z
M 628 4666 
L 2053 4666 
Q 2838 4666 3239 4311 
Q 3641 3956 3641 3272 
Q 3641 2581 3239 2228 
Q 2838 1875 2053 1875 
L 1259 1875 
L 1259 0 
L 628 0 
L 628 4666 
z
" transform="scale(0.015625)"/>
      <path id="DejaVuSans-79" d="M 2059 -325 
Q 1816 -950 1584 -1140 
Q 1353 -1331 966 -1331 
L 506 -1331 
L 506 -850 
L 844 -850 
Q 1081 -850 1212 -737 
Q 1344 -625 1503 -206 
L 1606 56 
L 191 3500 
L 800 3500 
L 1894 763 
L 2988 3500 
L 3597 3500 
L 2059 -325 
z
" transform="scale(0.015625)"/>
      <path id="DejaVuSans-74" d="M 1172 4494 
L 1172 3500 
L 2356 3500 
L 2356 3053 
L 1172 3053 
L 1172 1153 
Q 1172 725 1289 603 
Q 1406 481 1766 481 
L 2356 481 
L 2356 0 
L 1766 0 
Q 1100 0 847 248 
Q 594 497 594 1153 
L 594 3053 
L 172 3053 
L 172 3500 
L 594 3500 
L 594 4494 
L 1172 4494 
z
" transform="scale(0.015625)"/>
      <path id="DejaVuSans-68" d="M 3513 2113 
L 3513 0 
L 2938 0 
L 2938 2094 
Q 2938 2591 2744 2837 
Q 2550 3084 2163 3084 
Q 1697 3084 1428 2787 
Q 1159 2491 1159 1978 
L 1159 0 
L 581 0 
L 581 4863 
L 1159 4863 
L 1159 2956 
Q 1366 3272 1645 3428 
Q 1925 3584 2291 3584 
Q 2894 3584 3203 3211 
Q 3513 2838 3513 2113 
z
" transform="scale(0.015625)"/>
      <path id="DejaVuSans-6f" d="M 1959 3097 
Q 1497 3097 1228 2736 
Q 959 2375 959 1747 
Q 959 1119 1226 758 
Q 1494 397 1959 397 
Q 2419 397 2687 759 
Q 2956 1122 2956 1747 
Q 2956 2369 2687 2733 
Q 2419 3097 1959 3097 
z
M 1959 3584 
Q 2709 3584 3137 3096 
Q 3566 2609 3566 1747 
Q 3566 888 3137 398 
Q 2709 -91 1959 -91 
Q 1206 -91 779 398 
Q 353 888 353 1747 
Q 353 2609 779 3096 
Q 1206 3584 1959 3584 
z
" transform="scale(0.015625)"/>
      <path id="DejaVuSans-6e" d="M 3513 2113 
L 3513 0 
L 2938 0 
L 2938 2094 
Q 2938 2591 2744 2837 
Q 2550 3084 2163 3084 
Q 1697 3084 1428 2787 
Q 1159 2491 1159 1978 
L 1159 0 
L 581 0 
L 581 3500 
L 1159 3500 
L 1159 2956 
Q 1366 3272 1645 3428 
Q 1925 3584 2291 3584 
Q 2894 3584 3203 3211 
Q 3513 2838 3513 2113 
z
" transform="scale(0.015625)"/>
      <path id="DejaVuSans-20" transform="scale(0.015625)"/>
      <path id="DejaVuSans-76" d="M 191 3500 
L 800 3500 
L 1894 563 
L 2988 3500 
L 3597 3500 
L 2284 0 
L 1503 0 
L 191 3500 
z
" transform="scale(0.015625)"/>
      <path id="DejaVuSans-65" d="M 3597 1894 
L 3597 1613 
L 953 1613 
Q 991 1019 1311 708 
Q 1631 397 2203 397 
Q 2534 397 2845 478 
Q 3156 559 3463 722 
L 3463 178 
Q 3153 47 2828 -22 
Q 2503 -91 2169 -91 
Q 1331 -91 842 396 
Q 353 884 353 1716 
Q 353 2575 817 3079 
Q 1281 3584 2069 3584 
Q 2775 3584 3186 3129 
Q 3597 2675 3597 1894 
z
M 3022 2063 
Q 3016 2534 2758 2815 
Q 2500 3097 2075 3097 
Q 1594 3097 1305 2825 
Q 1016 2553 972 2059 
L 3022 2063 
z
" transform="scale(0.015625)"/>
      <path id="DejaVuSans-72" d="M 2631 2963 
Q 2534 3019 2420 3045 
Q 2306 3072 2169 3072 
Q 1681 3072 1420 2755 
Q 1159 2438 1159 1844 
L 1159 0 
L 581 0 
L 581 3500 
L 1159 3500 
L 1159 2956 
Q 1341 3275 1631 3429 
Q 1922 3584 2338 3584 
Q 2397 3584 2469 3576 
Q 2541 3569 2628 3553 
L 2631 2963 
z
" transform="scale(0.015625)"/>
      <path id="DejaVuSans-73" d="M 2834 3397 
L 2834 2853 
Q 2591 2978 2328 3040 
Q 2066 3103 1784 3103 
Q 1356 3103 1142 2972 
Q 928 2841 928 2578 
Q 928 2378 1081 2264 
Q 1234 2150 1697 2047 
L 1894 2003 
Q 2506 1872 2764 1633 
Q 3022 1394 3022 966 
Q 3022 478 2636 193 
Q 2250 -91 1575 -91 
Q 1294 -91 989 -36 
Q 684 19 347 128 
L 347 722 
Q 666 556 975 473 
Q 1284 391 1588 391 
Q 1994 391 2212 530 
Q 2431 669 2431 922 
Q 2431 1156 2273 1281 
Q 2116 1406 1581 1522 
L 1381 1569 
Q 847 1681 609 1914 
Q 372 2147 372 2553 
Q 372 3047 722 3315 
Q 1072 3584 1716 3584 
Q 2034 3584 2315 3537 
Q 2597 3491 2834 3397 
z
" transform="scale(0.015625)"/>
      <path id="DejaVuSans-69" d="M 603 3500 
L 1178 3500 
L 1178 0 
L 603 0 
L 603 3500 
z
M 603 4863 
L 1178 4863 
L 1178 4134 
L 603 4134 
L 603 4863 
z
" transform="scale(0.015625)"/>
     </defs>
     <use xlink:href="#DejaVuSans-50"/>
     <use xlink:href="#DejaVuSans-79" x="60.302734"/>
     <use xlink:href="#DejaVuSans-74" x="119.482422"/>
     <use xlink:href="#DejaVuSans-68" x="158.691406"/>
     <use xlink:href="#DejaVuSans-6f" x="222.070312"/>
     <use xlink:href="#DejaVuSans-6e" x="283.251953"/>
     <use xlink:href="#DejaVuSans-20" x="346.630859"/>
     <use xlink:href="#DejaVuSans-76" x="378.417969"/>
     <use xlink:href="#DejaVuSans-65" x="437.597656"/>
     <use xlink:href="#DejaVuSans-72" x="499.121094"/>
     <use xlink:href="#DejaVuSans-73" x="540.234375"/>
     <use xlink:href="#DejaVuSans-69" x="592.333984"/>
     <use xlink:href="#DejaVuSans-6f" x="620.117188"/>
     <use xlink:href="#DejaVuSans-6e" x="681.298828"/>
    </g>
   </g>
   <g id="Line3DCollection_1">
    <path d="M 66.435183 368.354809 
L 192.464986 266.569598 
L 189.166665 115.448515 
" style="fill: none; stroke: #b0b0b0; stroke-width: 0.8"/>
    <path d="M 84.706233 374.09375 
L 210.08151 271.67938 
L 207.285061 120.240874 
" style="fill: none; stroke: #b0b0b0; stroke-width: 0.8"/>
    <path d="M 103.093693 379.869256 
L 227.803915 276.819875 
L 225.515529 125.062876 
" style="fill: none; stroke: #b0b0b0; stroke-width: 0.8"/>
    <path d="M 121.598681 385.681677 
L 245.633159 281.991358 
L 243.859114 129.914798 
" style="fill: none; stroke: #b0b0b0; stroke-width: 0.8"/>
    <path d="M 140.222327 391.531369 
L 263.570211 287.194112 
L 262.31687 134.796919 
" style="fill: none; stroke: #b0b0b0; stroke-width: 0.8"/>
    <path d="M 158.965775 397.418691 
L 281.616052 292.428421 
L 280.889868 139.709521 
" style="fill: none; stroke: #b0b0b0; stroke-width: 0.8"/>
    <path d="M 177.830185 403.344007 
L 299.771673 297.694572 
L 299.57919 144.652891 
" style="fill: none; stroke: #b0b0b0; stroke-width: 0.8"/>
    <path d="M 196.816732 409.307686 
L 318.038081 302.992858 
L 318.385931 149.627319 
" style="fill: none; stroke: #b0b0b0; stroke-width: 0.8"/>
    <path d="M 215.926607 415.310102 
L 336.416293 308.323573 
L 337.311203 154.633099 
" style="fill: none; stroke: #b0b0b0; stroke-width: 0.8"/>
    <path d="M 235.161014 421.351634 
L 354.907337 313.687016 
L 356.356128 159.670527 
" style="fill: none; stroke: #b0b0b0; stroke-width: 0.8"/>
    <path d="M 254.521174 427.432665 
L 373.512257 319.083489 
L 375.521847 164.739905 
" style="fill: none; stroke: #b0b0b0; stroke-width: 0.8"/>
    <path d="M 274.008326 433.553584 
L 392.232106 324.513298 
L 394.809511 169.841538 
" style="fill: none; stroke: #b0b0b0; stroke-width: 0.8"/>
    <path d="M 293.623723 439.714785 
L 411.067955 329.976754 
L 414.220288 174.975735 
" style="fill: none; stroke: #b0b0b0; stroke-width: 0.8"/>
    <path d="M 313.368635 445.916667 
L 430.020884 335.474169 
L 433.75536 180.142808 
" style="fill: none; stroke: #b0b0b0; stroke-width: 0.8"/>
    <path d="M 333.244348 452.159634 
L 449.091988 341.005862 
L 453.415926 185.343075 
" style="fill: none; stroke: #b0b0b0; stroke-width: 0.8"/>
    <path d="M 353.252167 458.444095 
L 468.282376 346.572154 
L 473.203197 190.576855 
" style="fill: none; stroke: #b0b0b0; stroke-width: 0.8"/>
    <path d="M 373.393414 464.770465 
L 487.59317 352.17337 
L 493.118405 195.844475 
" style="fill: none; stroke: #b0b0b0; stroke-width: 0.8"/>
    <path d="M 393.669428 471.139166 
L 507.025508 357.809841 
L 513.162792 201.146264 
" style="fill: none; stroke: #b0b0b0; stroke-width: 0.8"/>
    <path d="M 414.081565 477.550623 
L 526.58054 363.4819 
L 533.33762 206.482554 
" style="fill: none; stroke: #b0b0b0; stroke-width: 0.8"/>
    <path d="M 434.631201 484.005269 
L 546.259433 369.189886 
L 553.644166 211.853684 
" style="fill: none; stroke: #b0b0b0; stroke-width: 0.8"/>
   </g>
   <g id="xtick_1">
    <g id="line2d_2">
     <path d="M 67.503086 367.492341 
L 64.296315 370.082219 
" style="fill: none; stroke: #000000; stroke-width: 0.8; stroke-linecap: square"/>
    </g>
    <g id="text_2">
     <!-- 2.0 -->
     <g transform="translate(53.443759 386.338624) scale(0.1 -0.1)">
      <defs>
       <path id="DejaVuSans-32" d="M 1228 531 
L 3431 531 
L 3431 0 
L 469 0 
L 469 531 
Q 828 903 1448 1529 
Q 2069 2156 2228 2338 
Q 2531 2678 2651 2914 
Q 2772 3150 2772 3378 
Q 2772 3750 2511 3984 
Q 2250 4219 1831 4219 
Q 1534 4219 1204 4116 
Q 875 4013 500 3803 
L 500 4441 
Q 881 4594 1212 4672 
Q 1544 4750 1819 4750 
Q 2544 4750 2975 4387 
Q 3406 4025 3406 3419 
Q 3406 3131 3298 2873 
Q 3191 2616 2906 2266 
Q 2828 2175 2409 1742 
Q 1991 1309 1228 531 
z
" transform="scale(0.015625)"/>
       <path id="DejaVuSans-2e" d="M 684 794 
L 1344 794 
L 1344 0 
L 684 0 
L 684 794 
z
" transform="scale(0.015625)"/>
       <path id="DejaVuSans-30" d="M 2034 4250 
Q 1547 4250 1301 3770 
Q 1056 3291 1056 2328 
Q 1056 1369 1301 889 
Q 1547 409 2034 409 
Q 2525 409 2770 889 
Q 3016 1369 3016 2328 
Q 3016 3291 2770 3770 
Q 2525 4250 2034 4250 
z
M 2034 4750 
Q 2819 4750 3233 4129 
Q 3647 3509 3647 2328 
Q 3647 1150 3233 529 
Q 2819 -91 2034 -91 
Q 1250 -91 836 529 
Q 422 1150 422 2328 
Q 422 3509 836 4129 
Q 1250 4750 2034 4750 
z
" transform="scale(0.015625)"/>
      </defs>
      <use xlink:href="#DejaVuSans-32"/>
      <use xlink:href="#DejaVuSans-2e" x="63.623047"/>
      <use xlink:href="#DejaVuSans-30" x="95.410156"/>
     </g>
    </g>
   </g>
   <g id="xtick_2">
    <g id="line2d_3">
     <path d="M 85.768778 373.225797 
L 82.578086 375.832154 
" style="fill: none; stroke: #000000; stroke-width: 0.8; stroke-linecap: square"/>
    </g>
    <g id="text_3">
     <!-- 2.1 -->
     <g transform="translate(71.720595 392.117434) scale(0.1 -0.1)">
      <defs>
       <path id="DejaVuSans-31" d="M 794 531 
L 1825 531 
L 1825 4091 
L 703 3866 
L 703 4441 
L 1819 4666 
L 2450 4666 
L 2450 531 
L 3481 531 
L 3481 0 
L 794 0 
L 794 531 
z
" transform="scale(0.015625)"/>
      </defs>
      <use xlink:href="#DejaVuSans-32"/>
      <use xlink:href="#DejaVuSans-2e" x="63.623047"/>
      <use xlink:href="#DejaVuSans-31" x="95.410156"/>
     </g>
    </g>
   </g>
   <g id="xtick_3">
    <g id="line2d_4">
     <path d="M 104.150791 378.995765 
L 100.976448 381.618759 
" style="fill: none; stroke: #000000; stroke-width: 0.8; stroke-linecap: square"/>
    </g>
    <g id="text_4">
     <!-- 2.2 -->
     <g transform="translate(90.114018 397.933107) scale(0.1 -0.1)">
      <use xlink:href="#DejaVuSans-32"/>
      <use xlink:href="#DejaVuSans-2e" x="63.623047"/>
      <use xlink:href="#DejaVuSans-32" x="95.410156"/>
     </g>
    </g>
   </g>
   <g id="xtick_4">
    <g id="line2d_5">
     <path d="M 122.65024 384.802596 
L 119.49252 387.442386 
" style="fill: none; stroke: #000000; stroke-width: 0.8; stroke-linecap: square"/>
    </g>
    <g id="text_5">
     <!-- 2.3 -->
     <g transform="translate(108.625148 403.785997) scale(0.1 -0.1)">
      <defs>
       <path id="DejaVuSans-33" d="M 2597 2516 
Q 3050 2419 3304 2112 
Q 3559 1806 3559 1356 
Q 3559 666 3084 287 
Q 2609 -91 1734 -91 
Q 1441 -91 1130 -33 
Q 819 25 488 141 
L 488 750 
Q 750 597 1062 519 
Q 1375 441 1716 441 
Q 2309 441 2620 675 
Q 2931 909 2931 1356 
Q 2931 1769 2642 2001 
Q 2353 2234 1838 2234 
L 1294 2234 
L 1294 2753 
L 1863 2753 
Q 2328 2753 2575 2939 
Q 2822 3125 2822 3475 
Q 2822 3834 2567 4026 
Q 2313 4219 1838 4219 
Q 1578 4219 1281 4162 
Q 984 4106 628 3988 
L 628 4550 
Q 988 4650 1302 4700 
Q 1616 4750 1894 4750 
Q 2613 4750 3031 4423 
Q 3450 4097 3450 3541 
Q 3450 3153 3228 2886 
Q 3006 2619 2597 2516 
z
" transform="scale(0.015625)"/>
      </defs>
      <use xlink:href="#DejaVuSans-32"/>
      <use xlink:href="#DejaVuSans-2e" x="63.623047"/>
      <use xlink:href="#DejaVuSans-33" x="95.410156"/>
     </g>
    </g>
   </g>
   <g id="xtick_5">
    <g id="line2d_6">
     <path d="M 141.268253 390.646643 
L 138.127436 393.303391 
" style="fill: none; stroke: #000000; stroke-width: 0.8; stroke-linecap: square"/>
    </g>
    <g id="text_6">
     <!-- 2.4 -->
     <g transform="translate(127.255118 409.676462) scale(0.1 -0.1)">
      <defs>
       <path id="DejaVuSans-34" d="M 2419 4116 
L 825 1625 
L 2419 1625 
L 2419 4116 
z
M 2253 4666 
L 3047 4666 
L 3047 1625 
L 3713 1625 
L 3713 1100 
L 3047 1100 
L 3047 0 
L 2419 0 
L 2419 1100 
L 313 1100 
L 313 1709 
L 2253 4666 
z
" transform="scale(0.015625)"/>
      </defs>
      <use xlink:href="#DejaVuSans-32"/>
      <use xlink:href="#DejaVuSans-2e" x="63.623047"/>
      <use xlink:href="#DejaVuSans-34" x="95.410156"/>
     </g>
    </g>
   </g>
   <g id="xtick_6">
    <g id="line2d_7">
     <path d="M 160.005975 396.528265 
L 156.882344 399.202135 
" style="fill: none; stroke: #000000; stroke-width: 0.8; stroke-linecap: square"/>
    </g>
    <g id="text_7">
     <!-- 2.5 -->
     <g transform="translate(146.005076 415.604865) scale(0.1 -0.1)">
      <defs>
       <path id="DejaVuSans-35" d="M 691 4666 
L 3169 4666 
L 3169 4134 
L 1269 4134 
L 1269 2991 
Q 1406 3038 1543 3061 
Q 1681 3084 1819 3084 
Q 2600 3084 3056 2656 
Q 3513 2228 3513 1497 
Q 3513 744 3044 326 
Q 2575 -91 1722 -91 
Q 1428 -91 1123 -41 
Q 819 9 494 109 
L 494 744 
Q 775 591 1075 516 
Q 1375 441 1709 441 
Q 2250 441 2565 725 
Q 2881 1009 2881 1497 
Q 2881 1984 2565 2268 
Q 2250 2553 1709 2553 
Q 1456 2553 1204 2497 
Q 953 2441 691 2322 
L 691 4666 
z
" transform="scale(0.015625)"/>
      </defs>
      <use xlink:href="#DejaVuSans-32"/>
      <use xlink:href="#DejaVuSans-2e" x="63.623047"/>
      <use xlink:href="#DejaVuSans-35" x="95.410156"/>
     </g>
    </g>
   </g>
   <g id="xtick_7">
    <g id="line2d_8">
     <path d="M 178.864563 402.447827 
L 175.758405 405.138985 
" style="fill: none; stroke: #000000; stroke-width: 0.8; stroke-linecap: square"/>
    </g>
    <g id="text_8">
     <!-- 2.6 -->
     <g transform="translate(164.876185 421.571574) scale(0.1 -0.1)">
      <defs>
       <path id="DejaVuSans-36" d="M 2113 2584 
Q 1688 2584 1439 2293 
Q 1191 2003 1191 1497 
Q 1191 994 1439 701 
Q 1688 409 2113 409 
Q 2538 409 2786 701 
Q 3034 994 3034 1497 
Q 3034 2003 2786 2293 
Q 2538 2584 2113 2584 
z
M 3366 4563 
L 3366 3988 
Q 3128 4100 2886 4159 
Q 2644 4219 2406 4219 
Q 1781 4219 1451 3797 
Q 1122 3375 1075 2522 
Q 1259 2794 1537 2939 
Q 1816 3084 2150 3084 
Q 2853 3084 3261 2657 
Q 3669 2231 3669 1497 
Q 3669 778 3244 343 
Q 2819 -91 2113 -91 
Q 1303 -91 875 529 
Q 447 1150 447 2328 
Q 447 3434 972 4092 
Q 1497 4750 2381 4750 
Q 2619 4750 2861 4703 
Q 3103 4656 3366 4563 
z
" transform="scale(0.015625)"/>
      </defs>
      <use xlink:href="#DejaVuSans-32"/>
      <use xlink:href="#DejaVuSans-2e" x="63.623047"/>
      <use xlink:href="#DejaVuSans-36" x="95.410156"/>
     </g>
    </g>
   </g>
   <g id="xtick_8">
    <g id="line2d_9">
     <path d="M 197.845191 408.405696 
L 194.756799 411.11431 
" style="fill: none; stroke: #000000; stroke-width: 0.8; stroke-linecap: square"/>
    </g>
    <g id="text_9">
     <!-- 2.7 -->
     <g transform="translate(183.869624 427.576961) scale(0.1 -0.1)">
      <defs>
       <path id="DejaVuSans-37" d="M 525 4666 
L 3525 4666 
L 3525 4397 
L 1831 0 
L 1172 0 
L 2766 4134 
L 525 4134 
L 525 4666 
z
" transform="scale(0.015625)"/>
      </defs>
      <use xlink:href="#DejaVuSans-32"/>
      <use xlink:href="#DejaVuSans-2e" x="63.623047"/>
      <use xlink:href="#DejaVuSans-37" x="95.410156"/>
     </g>
    </g>
   </g>
   <g id="xtick_9">
    <g id="line2d_10">
     <path d="M 216.949047 414.402245 
L 213.878717 417.128486 
" style="fill: none; stroke: #000000; stroke-width: 0.8; stroke-linecap: square"/>
    </g>
    <g id="text_10">
     <!-- 3.0 -->
     <g transform="translate(202.986584 433.621404) scale(0.1 -0.1)">
      <use xlink:href="#DejaVuSans-33"/>
      <use xlink:href="#DejaVuSans-2e" x="63.623047"/>
      <use xlink:href="#DejaVuSans-30" x="95.410156"/>
     </g>
    </g>
   </g>
   <g id="xtick_10">
    <g id="line2d_11">
     <path d="M 236.177336 420.437853 
L 233.12537 423.181893 
" style="fill: none; stroke: #000000; stroke-width: 0.8; stroke-linecap: square"/>
    </g>
    <g id="text_11">
     <!-- 3.1 -->
     <g transform="translate(222.228276 439.705285) scale(0.1 -0.1)">
      <use xlink:href="#DejaVuSans-33"/>
      <use xlink:href="#DejaVuSans-2e" x="63.623047"/>
      <use xlink:href="#DejaVuSans-31" x="95.410156"/>
     </g>
    </g>
   </g>
   <g id="xtick_11">
    <g id="line2d_12">
     <path d="M 255.531276 426.512902 
L 252.49798 429.274916 
" style="fill: none; stroke: #000000; stroke-width: 0.8; stroke-linecap: square"/>
    </g>
    <g id="text_12">
     <!-- 3.2 -->
     <g transform="translate(241.595924 445.828991) scale(0.1 -0.1)">
      <use xlink:href="#DejaVuSans-33"/>
      <use xlink:href="#DejaVuSans-2e" x="63.623047"/>
      <use xlink:href="#DejaVuSans-32" x="95.410156"/>
     </g>
    </g>
   </g>
   <g id="xtick_12">
    <g id="line2d_13">
     <path d="M 275.012104 432.627779 
L 271.997789 435.407945 
" style="fill: none; stroke: #000000; stroke-width: 0.8; stroke-linecap: square"/>
    </g>
    <g id="text_13">
     <!-- 3.3 -->
     <g transform="translate(261.090769 451.992914) scale(0.1 -0.1)">
      <use xlink:href="#DejaVuSans-33"/>
      <use xlink:href="#DejaVuSans-2e" x="63.623047"/>
      <use xlink:href="#DejaVuSans-33" x="95.410156"/>
     </g>
    </g>
   </g>
   <g id="xtick_13">
    <g id="line2d_14">
     <path d="M 294.621071 438.782879 
L 291.626054 441.581376 
" style="fill: none; stroke: #000000; stroke-width: 0.8; stroke-linecap: square"/>
    </g>
    <g id="text_14">
     <!-- 3.4 -->
     <g transform="translate(280.714068 458.197452) scale(0.1 -0.1)">
      <use xlink:href="#DejaVuSans-33"/>
      <use xlink:href="#DejaVuSans-2e" x="63.623047"/>
      <use xlink:href="#DejaVuSans-34" x="95.410156"/>
     </g>
    </g>
   </g>
   <g id="xtick_14">
    <g id="line2d_15">
     <path d="M 314.359447 444.978599 
L 311.384047 447.795609 
" style="fill: none; stroke: #000000; stroke-width: 0.8; stroke-linecap: square"/>
    </g>
    <g id="text_15">
     <!-- 3.5 -->
     <g transform="translate(300.467095 464.443007) scale(0.1 -0.1)">
      <use xlink:href="#DejaVuSans-33"/>
      <use xlink:href="#DejaVuSans-2e" x="63.623047"/>
      <use xlink:href="#DejaVuSans-35" x="95.410156"/>
     </g>
    </g>
   </g>
   <g id="xtick_15">
    <g id="line2d_16">
     <path d="M 334.228515 451.215342 
L 331.273061 454.051049 
" style="fill: none; stroke: #000000; stroke-width: 0.8; stroke-linecap: square"/>
    </g>
    <g id="text_16">
     <!-- 3.6 -->
     <g transform="translate(320.351141 470.729989) scale(0.1 -0.1)">
      <use xlink:href="#DejaVuSans-33"/>
      <use xlink:href="#DejaVuSans-2e" x="63.623047"/>
      <use xlink:href="#DejaVuSans-36" x="95.410156"/>
     </g>
    </g>
   </g>
   <g id="xtick_16">
    <g id="line2d_17">
     <path d="M 354.22958 457.493518 
L 351.294401 460.348109 
" style="fill: none; stroke: #000000; stroke-width: 0.8; stroke-linecap: square"/>
    </g>
    <g id="text_17">
     <!-- 3.7 -->
     <g transform="translate(340.367513 477.058809) scale(0.1 -0.1)">
      <use xlink:href="#DejaVuSans-33"/>
      <use xlink:href="#DejaVuSans-2e" x="63.623047"/>
      <use xlink:href="#DejaVuSans-37" x="95.410156"/>
     </g>
    </g>
   </g>
   <g id="xtick_17">
    <g id="line2d_18">
     <path d="M 374.363959 463.813541 
L 371.449393 466.687204 
" style="fill: none; stroke: #000000; stroke-width: 0.8; stroke-linecap: square"/>
    </g>
    <g id="text_18">
     <!-- 3.8 -->
     <g transform="translate(360.517536 483.429888) scale(0.1 -0.1)">
      <defs>
       <path id="DejaVuSans-38" d="M 2034 2216 
Q 1584 2216 1326 1975 
Q 1069 1734 1069 1313 
Q 1069 891 1326 650 
Q 1584 409 2034 409 
Q 2484 409 2743 651 
Q 3003 894 3003 1313 
Q 3003 1734 2745 1975 
Q 2488 2216 2034 2216 
z
M 1403 2484 
Q 997 2584 770 2862 
Q 544 3141 544 3541 
Q 544 4100 942 4425 
Q 1341 4750 2034 4750 
Q 2731 4750 3128 4425 
Q 3525 4100 3525 3541 
Q 3525 3141 3298 2862 
Q 3072 2584 2669 2484 
Q 3125 2378 3379 2068 
Q 3634 1759 3634 1313 
Q 3634 634 3220 271 
Q 2806 -91 2034 -91 
Q 1263 -91 848 271 
Q 434 634 434 1313 
Q 434 1759 690 2068 
Q 947 2378 1403 2484 
z
M 1172 3481 
Q 1172 3119 1398 2916 
Q 1625 2713 2034 2713 
Q 2441 2713 2670 2916 
Q 2900 3119 2900 3481 
Q 2900 3844 2670 4047 
Q 2441 4250 2034 4250 
Q 1625 4250 1398 4047 
Q 1172 3844 1172 3481 
z
" transform="scale(0.015625)"/>
      </defs>
      <use xlink:href="#DejaVuSans-33"/>
      <use xlink:href="#DejaVuSans-2e" x="63.623047"/>
      <use xlink:href="#DejaVuSans-38" x="95.410156"/>
     </g>
    </g>
   </g>
   <g id="xtick_18">
    <g id="line2d_19">
     <path d="M 394.632991 470.17583 
L 391.73938 473.068758 
" style="fill: none; stroke: #000000; stroke-width: 0.8; stroke-linecap: square"/>
    </g>
    <g id="text_19">
     <!-- 3.9 -->
     <g transform="translate(380.802555 489.84365) scale(0.1 -0.1)">
      <defs>
       <path id="DejaVuSans-39" d="M 703 97 
L 703 672 
Q 941 559 1184 500 
Q 1428 441 1663 441 
Q 2288 441 2617 861 
Q 2947 1281 2994 2138 
Q 2813 1869 2534 1725 
Q 2256 1581 1919 1581 
Q 1219 1581 811 2004 
Q 403 2428 403 3163 
Q 403 3881 828 4315 
Q 1253 4750 1959 4750 
Q 2769 4750 3195 4129 
Q 3622 3509 3622 2328 
Q 3622 1225 3098 567 
Q 2575 -91 1691 -91 
Q 1453 -91 1209 -44 
Q 966 3 703 97 
z
M 1959 2075 
Q 2384 2075 2632 2365 
Q 2881 2656 2881 3163 
Q 2881 3666 2632 3958 
Q 2384 4250 1959 4250 
Q 1534 4250 1286 3958 
Q 1038 3666 1038 3163 
Q 1038 2656 1286 2365 
Q 1534 2075 1959 2075 
z
" transform="scale(0.015625)"/>
      </defs>
      <use xlink:href="#DejaVuSans-33"/>
      <use xlink:href="#DejaVuSans-2e" x="63.623047"/>
      <use xlink:href="#DejaVuSans-39" x="95.410156"/>
     </g>
    </g>
   </g>
   <g id="xtick_19">
    <g id="line2d_20">
     <path d="M 415.038032 476.58081 
L 412.165722 479.493198 
" style="fill: none; stroke: #000000; stroke-width: 0.8; stroke-linecap: square"/>
    </g>
    <g id="text_20">
     <!-- 3.10 -->
     <g transform="translate(398.042679 496.300526) scale(0.1 -0.1)">
      <use xlink:href="#DejaVuSans-33"/>
      <use xlink:href="#DejaVuSans-2e" x="63.623047"/>
      <use xlink:href="#DejaVuSans-31" x="95.410156"/>
      <use xlink:href="#DejaVuSans-30" x="159.033203"/>
     </g>
    </g>
   </g>
   <g id="xtick_20">
    <g id="line2d_21">
     <path d="M 435.580454 483.028914 
L 432.7298 485.960958 
" style="fill: none; stroke: #000000; stroke-width: 0.8; stroke-linecap: square"/>
    </g>
    <g id="text_21">
     <!-- 3.11 -->
     <g transform="translate(418.60179 502.80095) scale(0.1 -0.1)">
      <use xlink:href="#DejaVuSans-33"/>
      <use xlink:href="#DejaVuSans-2e" x="63.623047"/>
      <use xlink:href="#DejaVuSans-31" x="95.410156"/>
      <use xlink:href="#DejaVuSans-31" x="159.033203"/>
     </g>
    </g>
   </g>
  </g>
  <g id="axis3d_2">
   <g id="line2d_22">
    <path d="M 573.729769 377.157828 
L 463.330816 493.019825 
" style="fill: none; stroke: #000000; stroke-width: 0.8; stroke-linecap: square"/>
   </g>
   <g id="text_22">
    <!-- Release date -->
    <g transform="translate(533.742058 488.90359) rotate(-46.383131) scale(0.12 -0.12)">
     <defs>
      <path id="DejaVuSans-52" d="M 2841 2188 
Q 3044 2119 3236 1894 
Q 3428 1669 3622 1275 
L 4263 0 
L 3584 0 
L 2988 1197 
Q 2756 1666 2539 1819 
Q 2322 1972 1947 1972 
L 1259 1972 
L 1259 0 
L 628 0 
L 628 4666 
L 2053 4666 
Q 2853 4666 3247 4331 
Q 3641 3997 3641 3322 
Q 3641 2881 3436 2590 
Q 3231 2300 2841 2188 
z
M 1259 4147 
L 1259 2491 
L 2053 2491 
Q 2509 2491 2742 2702 
Q 2975 2913 2975 3322 
Q 2975 3731 2742 3939 
Q 2509 4147 2053 4147 
L 1259 4147 
z
" transform="scale(0.015625)"/>
      <path id="DejaVuSans-6c" d="M 603 4863 
L 1178 4863 
L 1178 0 
L 603 0 
L 603 4863 
z
" transform="scale(0.015625)"/>
      <path id="DejaVuSans-61" d="M 2194 1759 
Q 1497 1759 1228 1600 
Q 959 1441 959 1056 
Q 959 750 1161 570 
Q 1363 391 1709 391 
Q 2188 391 2477 730 
Q 2766 1069 2766 1631 
L 2766 1759 
L 2194 1759 
z
M 3341 1997 
L 3341 0 
L 2766 0 
L 2766 531 
Q 2569 213 2275 61 
Q 1981 -91 1556 -91 
Q 1019 -91 701 211 
Q 384 513 384 1019 
Q 384 1609 779 1909 
Q 1175 2209 1959 2209 
L 2766 2209 
L 2766 2266 
Q 2766 2663 2505 2880 
Q 2244 3097 1772 3097 
Q 1472 3097 1187 3025 
Q 903 2953 641 2809 
L 641 3341 
Q 956 3463 1253 3523 
Q 1550 3584 1831 3584 
Q 2591 3584 2966 3190 
Q 3341 2797 3341 1997 
z
" transform="scale(0.015625)"/>
      <path id="DejaVuSans-64" d="M 2906 2969 
L 2906 4863 
L 3481 4863 
L 3481 0 
L 2906 0 
L 2906 525 
Q 2725 213 2448 61 
Q 2172 -91 1784 -91 
Q 1150 -91 751 415 
Q 353 922 353 1747 
Q 353 2572 751 3078 
Q 1150 3584 1784 3584 
Q 2172 3584 2448 3432 
Q 2725 3281 2906 2969 
z
M 947 1747 
Q 947 1113 1208 752 
Q 1469 391 1925 391 
Q 2381 391 2643 752 
Q 2906 1113 2906 1747 
Q 2906 2381 2643 2742 
Q 2381 3103 1925 3103 
Q 1469 3103 1208 2742 
Q 947 2381 947 1747 
z
" transform="scale(0.015625)"/>
     </defs>
     <use xlink:href="#DejaVuSans-52"/>
     <use xlink:href="#DejaVuSans-65" x="64.982422"/>
     <use xlink:href="#DejaVuSans-6c" x="126.505859"/>
     <use xlink:href="#DejaVuSans-65" x="154.289062"/>
     <use xlink:href="#DejaVuSans-61" x="215.8125"/>
     <use xlink:href="#DejaVuSans-73" x="277.091797"/>
     <use xlink:href="#DejaVuSans-65" x="329.191406"/>
     <use xlink:href="#DejaVuSans-20" x="390.714844"/>
     <use xlink:href="#DejaVuSans-64" x="422.501953"/>
     <use xlink:href="#DejaVuSans-61" x="485.978516"/>
     <use xlink:href="#DejaVuSans-74" x="547.257812"/>
     <use xlink:href="#DejaVuSans-65" x="586.466797"/>
    </g>
   </g>
   <g id="Line3DCollection_2">
    <path d="M 61.126778 183.443119 
L 68.323937 338.984938 
L 486.902678 468.28152 
" style="fill: none; stroke: #b0b0b0; stroke-width: 0.8"/>
    <path d="M 86.113053 165.371111 
L 92.506794 319.755353 
L 507.971007 446.170634 
" style="fill: none; stroke: #b0b0b0; stroke-width: 0.8"/>
    <path d="M 110.548784 147.697299 
L 116.172116 300.937299 
L 528.556417 424.566564 
" style="fill: none; stroke: #b0b0b0; stroke-width: 0.8"/>
    <path d="M 134.430397 130.424269 
L 139.315431 282.534331 
L 548.657174 403.47113 
" style="fill: none; stroke: #b0b0b0; stroke-width: 0.8"/>
    <path d="M 157.818719 113.508024 
L 161.994745 264.500325 
L 568.325661 382.829357 
" style="fill: none; stroke: #b0b0b0; stroke-width: 0.8"/>
   </g>
   <g id="xtick_21">
    <g id="line2d_23">
     <path d="M 483.312604 467.172567 
L 494.095373 470.503303 
" style="fill: none; stroke: #000000; stroke-width: 0.8; stroke-linecap: square"/>
    </g>
    <g id="text_23">
     <!-- 2011 -->
     <g transform="translate(491.863262 487.711378) scale(0.1 -0.1)">
      <use xlink:href="#DejaVuSans-32"/>
      <use xlink:href="#DejaVuSans-30" x="63.623047"/>
      <use xlink:href="#DejaVuSans-31" x="127.246094"/>
      <use xlink:href="#DejaVuSans-31" x="190.869141"/>
     </g>
    </g>
   </g>
   <g id="xtick_22">
    <g id="line2d_24">
     <path d="M 504.410423 445.087237 
L 515.104476 448.341168 
" style="fill: none; stroke: #000000; stroke-width: 0.8; stroke-linecap: square"/>
    </g>
    <g id="text_24">
     <!-- 2014 -->
     <g transform="translate(512.760471 465.427149) scale(0.1 -0.1)">
      <use xlink:href="#DejaVuSans-32"/>
      <use xlink:href="#DejaVuSans-30" x="63.623047"/>
      <use xlink:href="#DejaVuSans-31" x="127.246094"/>
      <use xlink:href="#DejaVuSans-34" x="190.869141"/>
     </g>
    </g>
   </g>
   <g id="xtick_23">
    <g id="line2d_25">
     <path d="M 525.024921 423.507852 
L 535.631469 426.687603 
" style="fill: none; stroke: #000000; stroke-width: 0.8; stroke-linecap: square"/>
    </g>
    <g id="text_25">
     <!-- 2017 -->
     <g transform="translate(533.177913 443.654532) scale(0.1 -0.1)">
      <use xlink:href="#DejaVuSans-32"/>
      <use xlink:href="#DejaVuSans-30" x="63.623047"/>
      <use xlink:href="#DejaVuSans-31" x="127.246094"/>
      <use xlink:href="#DejaVuSans-37" x="190.869141"/>
     </g>
    </g>
   </g>
   <g id="xtick_24">
    <g id="line2d_26">
     <path d="M 545.154343 402.436246 
L 555.674661 405.544391 
" style="fill: none; stroke: #000000; stroke-width: 0.8; stroke-linecap: square"/>
    </g>
    <g id="text_26">
     <!-- 2020 -->
     <g transform="translate(553.113923 422.395302) scale(0.1 -0.1)">
      <use xlink:href="#DejaVuSans-32"/>
      <use xlink:href="#DejaVuSans-30" x="63.623047"/>
      <use xlink:href="#DejaVuSans-32" x="127.246094"/>
      <use xlink:href="#DejaVuSans-30" x="190.869141"/>
     </g>
    </g>
   </g>
   <g id="xtick_25">
    <g id="line2d_27">
     <path d="M 564.85113 381.817527 
L 575.286321 384.856395 
" style="fill: none; stroke: #000000; stroke-width: 0.8; stroke-linecap: square"/>
    </g>
    <g id="text_27">
     <!-- 2023 -->
     <g transform="translate(572.620503 401.594004) scale(0.1 -0.1)">
      <use xlink:href="#DejaVuSans-32"/>
      <use xlink:href="#DejaVuSans-30" x="63.623047"/>
      <use xlink:href="#DejaVuSans-32" x="127.246094"/>
      <use xlink:href="#DejaVuSans-33" x="190.869141"/>
     </g>
    </g>
   </g>
  </g>
  <g id="axis3d_3">
   <g id="line2d_28">
    <path d="M 573.729769 377.157828 
L 581.997262 219.353145 
" style="fill: none; stroke: #000000; stroke-width: 0.8; stroke-linecap: square"/>
   </g>
   <g id="text_28">
    <!-- Amount of version-specific features -->
    <g transform="translate(622.800538 407.579611) rotate(-87.000978) scale(0.12 -0.12)">
     <defs>
      <path id="DejaVuSans-41" d="M 2188 4044 
L 1331 1722 
L 3047 1722 
L 2188 4044 
z
M 1831 4666 
L 2547 4666 
L 4325 0 
L 3669 0 
L 3244 1197 
L 1141 1197 
L 716 0 
L 50 0 
L 1831 4666 
z
" transform="scale(0.015625)"/>
      <path id="DejaVuSans-6d" d="M 3328 2828 
Q 3544 3216 3844 3400 
Q 4144 3584 4550 3584 
Q 5097 3584 5394 3201 
Q 5691 2819 5691 2113 
L 5691 0 
L 5113 0 
L 5113 2094 
Q 5113 2597 4934 2840 
Q 4756 3084 4391 3084 
Q 3944 3084 3684 2787 
Q 3425 2491 3425 1978 
L 3425 0 
L 2847 0 
L 2847 2094 
Q 2847 2600 2669 2842 
Q 2491 3084 2119 3084 
Q 1678 3084 1418 2786 
Q 1159 2488 1159 1978 
L 1159 0 
L 581 0 
L 581 3500 
L 1159 3500 
L 1159 2956 
Q 1356 3278 1631 3431 
Q 1906 3584 2284 3584 
Q 2666 3584 2933 3390 
Q 3200 3197 3328 2828 
z
" transform="scale(0.015625)"/>
      <path id="DejaVuSans-75" d="M 544 1381 
L 544 3500 
L 1119 3500 
L 1119 1403 
Q 1119 906 1312 657 
Q 1506 409 1894 409 
Q 2359 409 2629 706 
Q 2900 1003 2900 1516 
L 2900 3500 
L 3475 3500 
L 3475 0 
L 2900 0 
L 2900 538 
Q 2691 219 2414 64 
Q 2138 -91 1772 -91 
Q 1169 -91 856 284 
Q 544 659 544 1381 
z
M 1991 3584 
L 1991 3584 
z
" transform="scale(0.015625)"/>
      <path id="DejaVuSans-66" d="M 2375 4863 
L 2375 4384 
L 1825 4384 
Q 1516 4384 1395 4259 
Q 1275 4134 1275 3809 
L 1275 3500 
L 2222 3500 
L 2222 3053 
L 1275 3053 
L 1275 0 
L 697 0 
L 697 3053 
L 147 3053 
L 147 3500 
L 697 3500 
L 697 3744 
Q 697 4328 969 4595 
Q 1241 4863 1831 4863 
L 2375 4863 
z
" transform="scale(0.015625)"/>
      <path id="DejaVuSans-2d" d="M 313 2009 
L 1997 2009 
L 1997 1497 
L 313 1497 
L 313 2009 
z
" transform="scale(0.015625)"/>
      <path id="DejaVuSans-70" d="M 1159 525 
L 1159 -1331 
L 581 -1331 
L 581 3500 
L 1159 3500 
L 1159 2969 
Q 1341 3281 1617 3432 
Q 1894 3584 2278 3584 
Q 2916 3584 3314 3078 
Q 3713 2572 3713 1747 
Q 3713 922 3314 415 
Q 2916 -91 2278 -91 
Q 1894 -91 1617 61 
Q 1341 213 1159 525 
z
M 3116 1747 
Q 3116 2381 2855 2742 
Q 2594 3103 2138 3103 
Q 1681 3103 1420 2742 
Q 1159 2381 1159 1747 
Q 1159 1113 1420 752 
Q 1681 391 2138 391 
Q 2594 391 2855 752 
Q 3116 1113 3116 1747 
z
" transform="scale(0.015625)"/>
      <path id="DejaVuSans-63" d="M 3122 3366 
L 3122 2828 
Q 2878 2963 2633 3030 
Q 2388 3097 2138 3097 
Q 1578 3097 1268 2742 
Q 959 2388 959 1747 
Q 959 1106 1268 751 
Q 1578 397 2138 397 
Q 2388 397 2633 464 
Q 2878 531 3122 666 
L 3122 134 
Q 2881 22 2623 -34 
Q 2366 -91 2075 -91 
Q 1284 -91 818 406 
Q 353 903 353 1747 
Q 353 2603 823 3093 
Q 1294 3584 2113 3584 
Q 2378 3584 2631 3529 
Q 2884 3475 3122 3366 
z
" transform="scale(0.015625)"/>
     </defs>
     <use xlink:href="#DejaVuSans-41"/>
     <use xlink:href="#DejaVuSans-6d" x="68.408203"/>
     <use xlink:href="#DejaVuSans-6f" x="165.820312"/>
     <use xlink:href="#DejaVuSans-75" x="227.001953"/>
     <use xlink:href="#DejaVuSans-6e" x="290.380859"/>
     <use xlink:href="#DejaVuSans-74" x="353.759766"/>
     <use xlink:href="#DejaVuSans-20" x="392.96875"/>
     <use xlink:href="#DejaVuSans-6f" x="424.755859"/>
     <use xlink:href="#DejaVuSans-66" x="485.9375"/>
     <use xlink:href="#DejaVuSans-20" x="521.142578"/>
     <use xlink:href="#DejaVuSans-76" x="552.929688"/>
     <use xlink:href="#DejaVuSans-65" x="612.109375"/>
     <use xlink:href="#DejaVuSans-72" x="673.632812"/>
     <use xlink:href="#DejaVuSans-73" x="714.746094"/>
     <use xlink:href="#DejaVuSans-69" x="766.845703"/>
     <use xlink:href="#DejaVuSans-6f" x="794.628906"/>
     <use xlink:href="#DejaVuSans-6e" x="855.810547"/>
     <use xlink:href="#DejaVuSans-2d" x="919.189453"/>
     <use xlink:href="#DejaVuSans-73" x="955.273438"/>
     <use xlink:href="#DejaVuSans-70" x="1007.373047"/>
     <use xlink:href="#DejaVuSans-65" x="1070.849609"/>
     <use xlink:href="#DejaVuSans-63" x="1132.373047"/>
     <use xlink:href="#DejaVuSans-69" x="1187.353516"/>
     <use xlink:href="#DejaVuSans-66" x="1215.136719"/>
     <use xlink:href="#DejaVuSans-69" x="1250.341797"/>
     <use xlink:href="#DejaVuSans-63" x="1278.125"/>
     <use xlink:href="#DejaVuSans-20" x="1333.105469"/>
     <use xlink:href="#DejaVuSans-66" x="1364.892578"/>
     <use xlink:href="#DejaVuSans-65" x="1400.097656"/>
     <use xlink:href="#DejaVuSans-61" x="1461.621094"/>
     <use xlink:href="#DejaVuSans-74" x="1522.900391"/>
     <use xlink:href="#DejaVuSans-75" x="1562.109375"/>
     <use xlink:href="#DejaVuSans-72" x="1625.488281"/>
     <use xlink:href="#DejaVuSans-65" x="1664.351562"/>
     <use xlink:href="#DejaVuSans-73" x="1725.875"/>
    </g>
   </g>
   <g id="Line3DCollection_3">
    <path d="M 573.890257 374.094538 
L 168.154476 256.609867 
L 41.154922 357.41872 
" style="fill: none; stroke: #b0b0b0; stroke-width: 0.8"/>
    <path d="M 575.440797 344.498809 
L 167.406218 228.306018 
L 39.632856 328.001047 
" style="fill: none; stroke: #b0b0b0; stroke-width: 0.8"/>
    <path d="M 577.00941 314.558109 
L 166.64981 199.693868 
L 38.093213 298.243669 
" style="fill: none; stroke: #b0b0b0; stroke-width: 0.8"/>
    <path d="M 578.596415 284.266371 
L 165.885118 170.768352 
L 36.535688 268.140668 
" style="fill: none; stroke: #b0b0b0; stroke-width: 0.8"/>
    <path d="M 580.202136 253.617385 
L 165.112004 141.524295 
L 34.959967 237.685987 
" style="fill: none; stroke: #b0b0b0; stroke-width: 0.8"/>
    <path d="M 581.826906 222.604795 
L 164.33033 111.956405 
L 33.36573 206.873427 
" style="fill: none; stroke: #b0b0b0; stroke-width: 0.8"/>
   </g>
   <g id="xtick_26">
    <g id="line2d_29">
     <path d="M 570.421377 373.090091 
L 580.839567 376.106778 
" style="fill: none; stroke: #000000; stroke-width: 0.8; stroke-linecap: square"/>
    </g>
    <g id="text_29">
     <!-- 0.0 -->
     <g transform="translate(587.360749 382.363535) scale(0.1 -0.1)">
      <use xlink:href="#DejaVuSans-30"/>
      <use xlink:href="#DejaVuSans-2e" x="63.623047"/>
      <use xlink:href="#DejaVuSans-30" x="95.410156"/>
     </g>
    </g>
   </g>
   <g id="xtick_27">
    <g id="line2d_30">
     <path d="M 571.950964 343.505037 
L 582.43215 346.489681 
" style="fill: none; stroke: #000000; stroke-width: 0.8; stroke-linecap: square"/>
    </g>
    <g id="text_30">
     <!-- 0.2 -->
     <g transform="translate(589.036037 352.760682) scale(0.1 -0.1)">
      <use xlink:href="#DejaVuSans-30"/>
      <use xlink:href="#DejaVuSans-2e" x="63.623047"/>
      <use xlink:href="#DejaVuSans-32" x="95.410156"/>
     </g>
    </g>
   </g>
   <g id="xtick_28">
    <g id="line2d_31">
     <path d="M 573.498371 313.57533 
L 584.043316 316.526978 
" style="fill: none; stroke: #000000; stroke-width: 0.8; stroke-linecap: square"/>
    </g>
    <g id="text_31">
     <!-- 0.4 -->
     <g transform="translate(590.73086 322.812647) scale(0.1 -0.1)">
      <use xlink:href="#DejaVuSans-30"/>
      <use xlink:href="#DejaVuSans-2e" x="63.623047"/>
      <use xlink:href="#DejaVuSans-34" x="95.410156"/>
     </g>
    </g>
   </g>
   <g id="xtick_29">
    <g id="line2d_32">
     <path d="M 575.06391 283.294911 
L 585.673394 286.212582 
" style="fill: none; stroke: #000000; stroke-width: 0.8; stroke-linecap: square"/>
    </g>
    <g id="text_32">
     <!-- 0.6 -->
     <g transform="translate(592.445562 292.513355) scale(0.1 -0.1)">
      <use xlink:href="#DejaVuSans-30"/>
      <use xlink:href="#DejaVuSans-2e" x="63.623047"/>
      <use xlink:href="#DejaVuSans-36" x="95.410156"/>
     </g>
    </g>
   </g>
   <g id="xtick_30">
    <g id="line2d_33">
     <path d="M 576.647901 252.657582 
L 587.322718 255.540264 
" style="fill: none; stroke: #000000; stroke-width: 0.8; stroke-linecap: square"/>
    </g>
    <g id="text_33">
     <!-- 0.8 -->
     <g transform="translate(594.180493 261.856592) scale(0.1 -0.1)">
      <use xlink:href="#DejaVuSans-30"/>
      <use xlink:href="#DejaVuSans-2e" x="63.623047"/>
      <use xlink:href="#DejaVuSans-38" x="95.410156"/>
     </g>
    </g>
   </g>
   <g id="xtick_31">
    <g id="line2d_34">
     <path d="M 578.250674 221.656993 
L 588.991631 224.50365 
" style="fill: none; stroke: #000000; stroke-width: 0.8; stroke-linecap: square"/>
    </g>
    <g id="text_34">
     <!-- 1.0 -->
     <g transform="translate(595.936015 230.835993) scale(0.1 -0.1)">
      <use xlink:href="#DejaVuSans-31"/>
      <use xlink:href="#DejaVuSans-2e" x="63.623047"/>
      <use xlink:href="#DejaVuSans-30" x="95.410156"/>
     </g>
    </g>
   </g>
  </g>
  <g id="axes_1">
   <g id="line2d_35">
    <path d="M 185.957522 393.155417 
L 218.705457 386.986935 
L 225.340066 403.812427 
L 248.931418 405.841586 
L 280.917784 400.291177 
L 312.383581 395.076694 
L 342.581941 390.908021 
L 372.901121 386.514591 
L 401.535589 383.616855 
L 431.688993 379.16537 
L 460.247182 376.16119 
L 486.543786 375.330245 
L 512.944204 374.370604 
L 539.694397 373.024131 
" clip-path="url(#p60151755e4)" style="fill: none; stroke: #ff0000; stroke-width: 1.5; stroke-linecap: square"/>
   </g>
   <g id="Poly3DCollection_1">
    <path d="M 162.416053 283.821806 
L 156.259355 289.427135 
L 173.858629 285.681694 
z
" clip-path="url(#p60151755e4)" style="fill: #e6f0f9"/>
    <path d="M 173.858629 285.681694 
L 180.024698 281.238007 
L 162.416053 283.821806 
z
" clip-path="url(#p60151755e4)" style="fill: #deebf7"/>
    <path d="M 156.259355 289.427135 
L 156.145212 289.294725 
L 173.858629 285.681694 
z
" clip-path="url(#p60151755e4)" style="fill: #e6f0f9"/>
    <path d="M 169.118071 287.611908 
L 156.145212 289.294725 
L 151.537216 292.719806 
z
" clip-path="url(#p60151755e4)" style="fill: #e4eff9"/>
    <path d="M 156.145212 289.294725 
L 173.730111 284.942196 
L 173.858629 285.681694 
z
" clip-path="url(#p60151755e4)" style="fill: #ddeaf7"/>
    <path d="M 169.118071 287.611908 
L 173.730111 284.942196 
L 156.145212 289.294725 
z
" clip-path="url(#p60151755e4)" style="fill: #dce9f6"/>
    <path d="M 197.564024 267.579323 
L 180.024698 281.238007 
L 173.858629 285.681694 
z
" clip-path="url(#p60151755e4)" style="fill: #c7dbef"/>
    <path d="M 151.537216 292.719806 
L 141.434656 298.453777 
L 169.118071 287.611908 
z
" clip-path="url(#p60151755e4)" style="fill: #e2edf8"/>
    <path d="M 173.730111 284.942196 
L 191.41074 277.0172 
L 173.858629 285.681694 
z
" clip-path="url(#p60151755e4)" style="fill: #caddf0"/>
    <path d="M 173.730111 284.942196 
L 169.118071 287.611908 
L 191.41074 277.0172 
z
" clip-path="url(#p60151755e4)" style="fill: #c8dcf0"/>
    <path d="M 173.858629 285.681694 
L 191.48162 275.284853 
L 197.564024 267.579323 
z
" clip-path="url(#p60151755e4)" style="fill: #b0d2e7"/>
    <path d="M 210.044582 303.699857 
L 216.125249 298.858277 
L 197.564024 267.579323 
z
" clip-path="url(#p60151755e4)" style="fill: #d3e4f3"/>
    <path d="M 173.858629 285.681694 
L 191.41074 277.0172 
L 191.48162 275.284853 
z
" clip-path="url(#p60151755e4)" style="fill: #b7d4ea"/>
    <path d="M 141.434656 298.453777 
L 159.089367 294.583458 
L 169.118071 287.611908 
z
" clip-path="url(#p60151755e4)" style="fill: #d7e6f5"/>
    <path d="M 197.564024 267.579323 
L 191.48162 275.284853 
L 210.044582 303.699857 
z
" clip-path="url(#p60151755e4)" style="fill: #bad6eb"/>
    <path d="M 234.025038 287.628264 
L 216.125249 298.858277 
L 210.044582 303.699857 
z
" clip-path="url(#p60151755e4)" style="fill: #dce9f6"/>
    <path d="M 210.044582 303.699857 
L 191.41074 277.0172 
L 209.964965 305.211818 
z
" clip-path="url(#p60151755e4)" style="fill: #d8e7f5"/>
    <path d="M 156.010502 296.959029 
L 141.434656 298.453777 
L 138.347259 300.889055 
z
" clip-path="url(#p60151755e4)" style="fill: #dfebf7"/>
    <path d="M 191.48162 275.284853 
L 191.41074 277.0172 
L 210.044582 303.699857 
z
" clip-path="url(#p60151755e4)" style="fill: #c1d9ed"/>
    <path d="M 191.41074 277.0172 
L 169.118071 287.611908 
L 186.79049 278.635426 
z
" clip-path="url(#p60151755e4)" style="fill: #b3d3e8"/>
    <path d="M 191.41074 277.0172 
L 205.433641 308.70377 
L 209.964965 305.211818 
z
" clip-path="url(#p60151755e4)" style="fill: #d9e8f5"/>
    <path d="M 156.010502 296.959029 
L 159.089367 294.583458 
L 141.434656 298.453777 
z
" clip-path="url(#p60151755e4)" style="fill: #d6e6f4"/>
    <path d="M 138.347259 300.889055 
L 132.359901 307.380087 
L 156.010502 296.959029 
z
" clip-path="url(#p60151755e4)" style="fill: #dfecf7"/>
    <path d="M 209.964965 305.211818 
L 227.819152 290.291062 
L 210.044582 303.699857 
z
" clip-path="url(#p60151755e4)" style="fill: #dae8f6"/>
    <path d="M 191.41074 277.0172 
L 186.79049 278.635426 
L 205.433641 308.70377 
z
" clip-path="url(#p60151755e4)" style="fill: #c2d9ee"/>
    <path d="M 209.964965 305.211818 
L 205.433641 308.70377 
L 227.819152 290.291062 
z
" clip-path="url(#p60151755e4)" style="fill: #dce9f6"/>
    <path d="M 159.089367 294.583458 
L 176.736337 283.448376 
L 169.118071 287.611908 
z
" clip-path="url(#p60151755e4)" style="fill: #bed8ec"/>
    <path d="M 210.044582 303.699857 
L 227.947747 291.705556 
L 234.025038 287.628264 
z
" clip-path="url(#p60151755e4)" style="fill: #cddff1"/>
    <path d="M 169.118071 287.611908 
L 176.736337 283.448376 
L 186.79049 278.635426 
z
" clip-path="url(#p60151755e4)" style="fill: #abd0e6"/>
    <path d="M 210.044582 303.699857 
L 227.819152 290.291062 
L 227.947747 291.705556 
z
" clip-path="url(#p60151755e4)" style="fill: #cadef0"/>
    <path d="M 132.359901 307.380087 
L 149.940085 300.235161 
L 156.010502 296.959029 
z
" clip-path="url(#p60151755e4)" style="fill: #d6e6f4"/>
    <path d="M 234.025038 287.628264 
L 227.947747 291.705556 
L 252.423661 302.463305 
z
" clip-path="url(#p60151755e4)" style="fill: #c7dbef"/>
    <path d="M 205.433641 308.70377 
L 186.79049 278.635426 
L 176.736337 283.448376 
z
" clip-path="url(#p60151755e4)" style="fill: #bad6eb"/>
    <path d="M 145.014114 299.897395 
L 132.359901 307.380087 
L 127.611646 312.960244 
z
" clip-path="url(#p60151755e4)" style="fill: #deebf7"/>
    <path d="M 159.089367 294.583458 
L 156.010502 296.959029 
L 176.736337 283.448376 
z
" clip-path="url(#p60151755e4)" style="fill: #bcd7eb"/>
    <path d="M 176.736337 283.448376 
L 195.559336 316.624084 
L 205.433641 308.70377 
z
" clip-path="url(#p60151755e4)" style="fill: #d4e4f4"/>
    <path d="M 195.559336 316.624084 
L 223.270016 292.163008 
L 205.433641 308.70377 
z
" clip-path="url(#p60151755e4)" style="fill: #d9e8f5"/>
    <path d="M 205.433641 308.70377 
L 223.270016 292.163008 
L 227.819152 290.291062 
z
" clip-path="url(#p60151755e4)" style="fill: #c8dcf0"/>
    <path d="M 227.947747 291.705556 
L 246.401188 307.026464 
L 252.423661 302.463305 
z
" clip-path="url(#p60151755e4)" style="fill: #cee0f2"/>
    <path d="M 145.014114 299.897395 
L 149.940085 300.235161 
L 132.359901 307.380087 
z
" clip-path="url(#p60151755e4)" style="fill: #d1e2f3"/>
    <path d="M 227.947747 291.705556 
L 227.819152 290.291062 
L 246.306954 308.049554 
z
" clip-path="url(#p60151755e4)" style="fill: #c3daee"/>
    <path d="M 246.306954 308.049554 
L 246.401188 307.026464 
L 227.947747 291.705556 
z
" clip-path="url(#p60151755e4)" style="fill: #cee0f2"/>
    <path d="M 246.306954 308.049554 
L 227.819152 290.291062 
L 223.270016 292.163008 
z
" clip-path="url(#p60151755e4)" style="fill: #bed8ec"/>
    <path d="M 176.736337 283.448376 
L 156.010502 296.959029 
L 173.660926 285.704308 
z
" clip-path="url(#p60151755e4)" style="fill: #a4cce3"/>
    <path d="M 192.523192 319.121982 
L 195.559336 316.624084 
L 176.736337 283.448376 
z
" clip-path="url(#p60151755e4)" style="fill: #d4e4f4"/>
    <path d="M 167.592391 288.406384 
L 156.010502 296.959029 
L 149.940085 300.235161 
z
" clip-path="url(#p60151755e4)" style="fill: #b7d4ea"/>
    <path d="M 246.306954 308.049554 
L 223.270016 292.163008 
L 241.861417 314.76239 
z
" clip-path="url(#p60151755e4)" style="fill: #cfe1f2"/>
    <path d="M 173.660926 285.704308 
L 192.523192 319.121982 
L 176.736337 283.448376 
z
" clip-path="url(#p60151755e4)" style="fill: #b4d3e9"/>
    <path d="M 264.590698 284.078989 
L 252.423661 302.463305 
L 246.401188 307.026464 
z
" clip-path="url(#p60151755e4)" style="fill: #b9d6ea"/>
    <path d="M 173.660926 285.704308 
L 156.010502 296.959029 
L 167.592391 288.406384 
z
" clip-path="url(#p60151755e4)" style="fill: #a1cbe2"/>
    <path d="M 186.569602 323.646498 
L 192.523192 319.121982 
L 173.660926 285.704308 
z
" clip-path="url(#p60151755e4)" style="fill: #d3e4f3"/>
    <path d="M 127.611646 312.960244 
L 114.992917 322.010751 
L 132.377732 307.806856 
z
" clip-path="url(#p60151755e4)" style="fill: #dceaf6"/>
    <path d="M 213.414596 300.409978 
L 223.270016 292.163008 
L 195.559336 316.624084 
z
" clip-path="url(#p60151755e4)" style="fill: #c7dbef"/>
    <path d="M 195.559336 316.624084 
L 192.523192 319.121982 
L 210.379335 302.747054 
z
" clip-path="url(#p60151755e4)" style="fill: #d9e7f5"/>
    <path d="M 132.377732 307.806856 
L 145.014114 299.897395 
L 127.611646 312.960244 
z
" clip-path="url(#p60151755e4)" style="fill: #cde0f1"/>
    <path d="M 246.401188 307.026464 
L 246.306954 308.049554 
L 264.590698 284.078989 
z
" clip-path="url(#p60151755e4)" style="fill: #bad6eb"/>
    <path d="M 149.940085 300.235161 
L 145.014114 299.897395 
L 167.592391 288.406384 
z
" clip-path="url(#p60151755e4)" style="fill: #aed1e7"/>
    <path d="M 223.270016 292.163008 
L 232.100553 323.426296 
L 241.861417 314.76239 
z
" clip-path="url(#p60151755e4)" style="fill: #d2e3f3"/>
    <path d="M 270.612343 279.990404 
L 252.423661 302.463305 
L 264.590698 284.078989 
z
" clip-path="url(#p60151755e4)" style="fill: #8fc2de"/>
    <path d="M 173.660926 285.704308 
L 167.592391 288.406384 
L 186.569602 323.646498 
z
" clip-path="url(#p60151755e4)" style="fill: #b0d2e7"/>
    <path d="M 114.992917 322.010751 
L 109.838638 330.19326 
L 127.898991 335.704659 
z
" clip-path="url(#p60151755e4)" style="fill: #f4f9fe"/>
    <path d="M 241.861417 314.76239 
L 259.948742 281.716716 
L 246.306954 308.049554 
z
" clip-path="url(#p60151755e4)" style="fill: #b7d4ea"/>
    <path d="M 195.559336 316.624084 
L 210.379335 302.747054 
L 213.414596 300.409978 
z
" clip-path="url(#p60151755e4)" style="fill: #c7dbef"/>
    <path d="M 213.414596 300.409978 
L 232.100553 323.426296 
L 223.270016 292.163008 
z
" clip-path="url(#p60151755e4)" style="fill: #c1d9ed"/>
    <path d="M 289.312967 318.029624 
L 302.005205 332.533661 
L 307.9039 326.667323 
z
" clip-path="url(#p60151755e4)" style="fill: #eaf3fb"/>
    <path d="M 283.372198 322.882169 
L 302.005205 332.533661 
L 289.312967 318.029624 
z
" clip-path="url(#p60151755e4)" style="fill: #e7f1fa"/>
    <path d="M 192.523192 319.121982 
L 186.569602 323.646498 
L 204.389667 305.007067 
z
" clip-path="url(#p60151755e4)" style="fill: #d6e6f4"/>
    <path d="M 289.312967 318.029624 
L 264.590698 284.078989 
L 283.372198 322.882169 
z
" clip-path="url(#p60151755e4)" style="fill: #c7dbef"/>
    <path d="M 270.612343 279.990404 
L 264.590698 284.078989 
L 289.312967 318.029624 
z
" clip-path="url(#p60151755e4)" style="fill: #97c6df"/>
    <path d="M 264.590698 284.078989 
L 246.306954 308.049554 
L 264.46348 281.409085 
z
" clip-path="url(#p60151755e4)" style="fill: #89bedc"/>
    <path d="M 127.898991 335.704659 
L 132.377732 307.806856 
L 114.992917 322.010751 
z
" clip-path="url(#p60151755e4)" style="fill: #dfebf7"/>
    <path d="M 126.448562 336.887389 
L 127.898991 335.704659 
L 109.838638 330.19326 
z
" clip-path="url(#p60151755e4)" style="fill: #f7fbff"/>
    <path d="M 283.372198 322.882169 
L 283.266245 322.471577 
L 301.902017 332.402031 
z
" clip-path="url(#p60151755e4)" style="fill: #e7f0fa"/>
    <path d="M 167.592391 288.406384 
L 145.014114 299.897395 
L 162.571033 283.777599 
z
" clip-path="url(#p60151755e4)" style="fill: #84bcdb"/>
    <path d="M 283.372198 322.882169 
L 264.590698 284.078989 
L 283.266245 322.471577 
z
" clip-path="url(#p60151755e4)" style="fill: #c6dbef"/>
    <path d="M 162.571033 283.777599 
L 181.811253 326.463684 
L 186.569602 323.646498 
z
" clip-path="url(#p60151755e4)" style="fill: #c9ddf0"/>
    <path d="M 186.569602 323.646498 
L 167.592391 288.406384 
L 162.571033 283.777599 
z
" clip-path="url(#p60151755e4)" style="fill: #a1cbe2"/>
    <path d="M 241.861417 314.76239 
L 232.100553 323.426296 
L 259.948742 281.716716 
z
" clip-path="url(#p60151755e4)" style="fill: #bcd7eb"/>
    <path d="M 210.379335 302.747054 
L 192.523192 319.121982 
L 204.389667 305.007067 
z
" clip-path="url(#p60151755e4)" style="fill: #c2d9ee"/>
    <path d="M 301.902017 332.402031 
L 283.266245 322.471577 
L 278.85754 329.524812 
z
" clip-path="url(#p60151755e4)" style="fill: #e9f2fa"/>
    <path d="M 301.902017 332.402031 
L 302.005205 332.533661 
L 283.372198 322.882169 
z
" clip-path="url(#p60151755e4)" style="fill: #eaf3fb"/>
    <path d="M 213.414596 300.409978 
L 210.379335 302.747054 
L 232.100553 323.426296 
z
" clip-path="url(#p60151755e4)" style="fill: #c1d9ed"/>
    <path d="M 204.389667 305.007067 
L 186.569602 323.646498 
L 181.811253 326.463684 
z
" clip-path="url(#p60151755e4)" style="fill: #d5e5f4"/>
    <path d="M 326.612851 328.994533 
L 307.9039 326.667323 
L 302.005205 332.533661 
z
" clip-path="url(#p60151755e4)" style="fill: #eaf3fb"/>
    <path d="M 246.306954 308.049554 
L 259.948742 281.716716 
L 264.46348 281.409085 
z
" clip-path="url(#p60151755e4)" style="fill: #7db8da"/>
    <path d="M 232.100553 323.426296 
L 210.379335 302.747054 
L 229.095789 325.92219 
z
" clip-path="url(#p60151755e4)" style="fill: #d2e3f3"/>
    <path d="M 162.571033 283.777599 
L 145.014114 299.897395 
L 132.377732 307.806856 
z
" clip-path="url(#p60151755e4)" style="fill: #97c6df"/>
    <path d="M 283.266245 322.471577 
L 264.590698 284.078989 
L 264.46348 281.409085 
z
" clip-path="url(#p60151755e4)" style="fill: #8fc2de"/>
    <path d="M 283.266245 322.471577 
L 259.948742 281.716716 
L 278.85754 329.524812 
z
" clip-path="url(#p60151755e4)" style="fill: #c1d9ed"/>
    <path d="M 278.85754 329.524812 
L 297.506709 336.009711 
L 301.902017 332.402031 
z
" clip-path="url(#p60151755e4)" style="fill: #edf4fc"/>
    <path d="M 169.575471 342.478168 
L 181.811253 326.463684 
L 162.571033 283.777599 
z
" clip-path="url(#p60151755e4)" style="fill: #cddff1"/>
    <path d="M 264.46348 281.409085 
L 259.948742 281.716716 
L 283.266245 322.471577 
z
" clip-path="url(#p60151755e4)" style="fill: #84bcdb"/>
    <path d="M 320.747916 333.910681 
L 302.005205 332.533661 
L 301.902017 332.402031 
z
" clip-path="url(#p60151755e4)" style="fill: #eaf3fb"/>
    <path d="M 229.095789 325.92219 
L 210.379335 302.747054 
L 204.389667 305.007067 
z
" clip-path="url(#p60151755e4)" style="fill: #bdd7ec"/>
    <path d="M 320.747916 333.910681 
L 326.612851 328.994533 
L 302.005205 332.533661 
z
" clip-path="url(#p60151755e4)" style="fill: #e7f1fa"/>
    <path d="M 297.506709 336.009711 
L 278.85754 329.524812 
L 269.203655 336.537366 
z
" clip-path="url(#p60151755e4)" style="fill: #eaf3fb"/>
    <path d="M 169.575471 342.478168 
L 199.782352 314.798497 
L 181.811253 326.463684 
z
" clip-path="url(#p60151755e4)" style="fill: #deebf7"/>
    <path d="M 204.389667 305.007067 
L 223.236999 332.367174 
L 229.095789 325.92219 
z
" clip-path="url(#p60151755e4)" style="fill: #d0e2f2"/>
    <path d="M 181.811253 326.463684 
L 199.782352 314.798497 
L 204.389667 305.007067 
z
" clip-path="url(#p60151755e4)" style="fill: #c4daee"/>
    <path d="M 247.277522 303.172641 
L 232.100553 323.426296 
L 229.095789 325.92219 
z
" clip-path="url(#p60151755e4)" style="fill: #c9ddf0"/>
    <path d="M 301.902017 332.402031 
L 297.506709 336.009711 
L 316.269542 340.614038 
z
" clip-path="url(#p60151755e4)" style="fill: #edf4fc"/>
    <path d="M 301.902017 332.402031 
L 320.646883 333.499165 
L 320.747916 333.910681 
z
" clip-path="url(#p60151755e4)" style="fill: #e7f0fa"/>
    <path d="M 269.203655 336.537366 
L 278.85754 329.524812 
L 259.948742 281.716716 
z
" clip-path="url(#p60151755e4)" style="fill: #c3daee"/>
    <path d="M 339.563184 346.98072 
L 345.383468 341.689903 
L 326.612851 328.994533 
z
" clip-path="url(#p60151755e4)" style="fill: #f1f7fd"/>
    <path d="M 301.902017 332.402031 
L 316.269542 340.614038 
L 320.646883 333.499165 
z
" clip-path="url(#p60151755e4)" style="fill: #e9f2fa"/>
    <path d="M 259.948742 281.716716 
L 232.100553 323.426296 
L 250.27232 299.845715 
z
" clip-path="url(#p60151755e4)" style="fill: #8fc2de"/>
    <path d="M 339.563184 346.98072 
L 326.612851 328.994533 
L 320.747916 333.910681 
z
" clip-path="url(#p60151755e4)" style="fill: #eaf3fb"/>
    <path d="M 218.576399 337.522194 
L 223.236999 332.367174 
L 204.389667 305.007067 
z
" clip-path="url(#p60151755e4)" style="fill: #d3e3f3"/>
    <path d="M 204.389667 305.007067 
L 199.782352 314.798497 
L 218.576399 337.522194 
z
" clip-path="url(#p60151755e4)" style="fill: #c4daee"/>
    <path d="M 229.095789 325.92219 
L 223.236999 332.367174 
L 241.436608 311.349009 
z
" clip-path="url(#p60151755e4)" style="fill: #cddff1"/>
    <path d="M 320.747916 333.910681 
L 320.646883 333.499165 
L 339.46155 347.073108 
z
" clip-path="url(#p60151755e4)" style="fill: #eaf2fb"/>
    <path d="M 269.203655 336.537366 
L 287.922487 344.186386 
L 297.506709 336.009711 
z
" clip-path="url(#p60151755e4)" style="fill: #eaf3fb"/>
    <path d="M 132.377732 307.806856 
L 149.644167 281.407183 
L 162.571033 283.777599 
z
" clip-path="url(#p60151755e4)" style="fill: #5da5d1"/>
    <path d="M 250.27232 299.845715 
L 232.100553 323.426296 
L 247.277522 303.172641 
z
" clip-path="url(#p60151755e4)" style="fill: #a1cbe2"/>
    <path d="M 339.46155 347.073108 
L 339.563184 346.98072 
L 320.747916 333.910681 
z
" clip-path="url(#p60151755e4)" style="fill: #f1f7fd"/>
    <path d="M 320.646883 333.499165 
L 316.269542 340.614038 
L 339.46155 347.073108 
z
" clip-path="url(#p60151755e4)" style="fill: #ecf4fb"/>
    <path d="M 250.27232 299.845715 
L 269.203655 336.537366 
L 259.948742 281.716716 
z
" clip-path="url(#p60151755e4)" style="fill: #92c4de"/>
    <path d="M 162.571033 283.777599 
L 149.644167 281.407183 
L 169.575471 342.478168 
z
" clip-path="url(#p60151755e4)" style="fill: #85bcdc"/>
    <path d="M 164.359409 346.831125 
L 182.761611 352.446844 
L 169.575471 342.478168 
z
" clip-path="url(#p60151755e4)" style="fill: #f7fbff"/>
    <path d="M 345.383468 341.689903 
L 339.563184 346.98072 
L 358.543459 350.093414 
z
" clip-path="url(#p60151755e4)" style="fill: #f5fafe"/>
    <path d="M 266.235902 339.081969 
L 287.922487 344.186386 
L 269.203655 336.537366 
z
" clip-path="url(#p60151755e4)" style="fill: #e9f2fa"/>
    <path d="M 266.235902 339.081969 
L 269.203655 336.537366 
L 250.27232 299.845715 
z
" clip-path="url(#p60151755e4)" style="fill: #ccdff1"/>
    <path d="M 241.436608 311.349009 
L 223.236999 332.367174 
L 218.576399 337.522194 
z
" clip-path="url(#p60151755e4)" style="fill: #cfe1f2"/>
    <path d="M 364.327166 344.88347 
L 345.383468 341.689903 
L 358.543459 350.093414 
z
" clip-path="url(#p60151755e4)" style="fill: #f3f8fe"/>
    <path d="M 306.744434 347.726994 
L 316.269542 340.614038 
L 297.506709 336.009711 
z
" clip-path="url(#p60151755e4)" style="fill: #eaf3fb"/>
    <path d="M 187.401673 324.321576 
L 199.782352 314.798497 
L 169.575471 342.478168 
z
" clip-path="url(#p60151755e4)" style="fill: #cee0f2"/>
    <path d="M 126.448562 336.887389 
L 109.838638 330.19326 
L 103.187585 196.2217 
z
" clip-path="url(#p60151755e4)" style="fill: #4d99ca"/>
    <path d="M 316.269542 340.614038 
L 335.125051 351.015118 
L 339.46155 347.073108 
z
" clip-path="url(#p60151755e4)" style="fill: #f3f8fe"/>
    <path d="M 241.436608 311.349009 
L 247.277522 303.172641 
L 229.095789 325.92219 
z
" clip-path="url(#p60151755e4)" style="fill: #a8cee4"/>
    <path d="M 297.506709 336.009711 
L 287.922487 344.186386 
L 306.744434 347.726994 
z
" clip-path="url(#p60151755e4)" style="fill: #eaf3fb"/>
    <path d="M 199.782352 314.798497 
L 206.284287 345.78316 
L 218.576399 337.522194 
z
" clip-path="url(#p60151755e4)" style="fill: #d7e6f5"/>
    <path d="M 339.46155 347.073108 
L 358.543459 350.093414 
L 339.563184 346.98072 
z
" clip-path="url(#p60151755e4)" style="fill: #f5fafe"/>
    <path d="M 164.359409 346.831125 
L 162.924333 348.028738 
L 181.334399 353.652005 
z
" clip-path="url(#p60151755e4)" style="fill: #f7fbff"/>
    <path d="M 284.974194 346.764022 
L 287.922487 344.186386 
L 266.235902 339.081969 
z
" clip-path="url(#p60151755e4)" style="fill: #eaf3fb"/>
    <path d="M 250.27232 299.845715 
L 247.277522 303.172641 
L 266.235902 339.081969 
z
" clip-path="url(#p60151755e4)" style="fill: #a4cce3"/>
    <path d="M 169.575471 342.478168 
L 182.761611 352.446844 
L 187.401673 324.321576 
z
" clip-path="url(#p60151755e4)" style="fill: #e3eef8"/>
    <path d="M 260.419412 343.509944 
L 266.235902 339.081969 
L 247.277522 303.172641 
z
" clip-path="url(#p60151755e4)" style="fill: #ccdff1"/>
    <path d="M 181.334399 353.652005 
L 182.761611 352.446844 
L 164.359409 346.831125 
z
" clip-path="url(#p60151755e4)" style="fill: #f7fbff"/>
    <path d="M 339.46155 347.073108 
L 358.416993 352.690352 
L 358.543459 350.093414 
z
" clip-path="url(#p60151755e4)" style="fill: #f5fafe"/>
    <path d="M 335.125051 351.015118 
L 316.269542 340.614038 
L 306.744434 347.726994 
z
" clip-path="url(#p60151755e4)" style="fill: #eef5fc"/>
    <path d="M 358.543459 350.093414 
L 383.335874 352.891787 
L 364.327166 344.88347 
z
" clip-path="url(#p60151755e4)" style="fill: #f3f8fe"/>
    <path d="M 335.125051 351.015118 
L 354.108796 356.657225 
L 339.46155 347.073108 
z
" clip-path="url(#p60151755e4)" style="fill: #f7fbff"/>
    <path d="M 354.108796 356.657225 
L 358.416993 352.690352 
L 339.46155 347.073108 
z
" clip-path="url(#p60151755e4)" style="fill: #f7fbff"/>
    <path d="M 284.974194 346.764022 
L 266.235902 339.081969 
L 279.210964 353.746331 
z
" clip-path="url(#p60151755e4)" style="fill: #ecf4fb"/>
    <path d="M 266.235902 339.081969 
L 260.419412 343.509944 
L 279.210964 353.746331 
z
" clip-path="url(#p60151755e4)" style="fill: #eaf2fb"/>
    <path d="M 187.401673 324.321576 
L 206.284287 345.78316 
L 199.782352 314.798497 
z
" clip-path="url(#p60151755e4)" style="fill: #c8dcf0"/>
    <path d="M 287.922487 344.186386 
L 284.974194 346.764022 
L 303.813364 350.304175 
z
" clip-path="url(#p60151755e4)" style="fill: #eaf3fb"/>
    <path d="M 247.277522 303.172641 
L 241.436608 311.349009 
L 260.419412 343.509944 
z
" clip-path="url(#p60151755e4)" style="fill: #a9cfe5"/>
    <path d="M 218.576399 337.522194 
L 236.685948 309.942622 
L 241.436608 311.349009 
z
" clip-path="url(#p60151755e4)" style="fill: #a8cee4"/>
    <path d="M 218.576399 337.522194 
L 206.284287 345.78316 
L 236.685948 309.942622 
z
" clip-path="url(#p60151755e4)" style="fill: #caddf0"/>
    <path d="M 182.761611 352.446844 
L 181.334399 353.652005 
L 201.279921 358.097996 
z
" clip-path="url(#p60151755e4)" style="fill: #f7fbff"/>
    <path d="M 358.543459 350.093414 
L 358.416993 352.690352 
L 377.492053 358.343042 
z
" clip-path="url(#p60151755e4)" style="fill: #f5fafe"/>
    <path d="M 377.592348 358.249484 
L 383.335874 352.891787 
L 358.543459 350.093414 
z
" clip-path="url(#p60151755e4)" style="fill: #f5fafe"/>
    <path d="M 279.210964 353.746331 
L 260.419412 343.509944 
L 255.847381 353.022955 
z
" clip-path="url(#p60151755e4)" style="fill: #eef5fc"/>
    <path d="M 303.813364 350.304175 
L 306.744434 347.726994 
L 287.922487 344.186386 
z
" clip-path="url(#p60151755e4)" style="fill: #e9f2fa"/>
    <path d="M 127.898991 335.704659 
L 126.448562 336.887389 
L 141.408896 191.629106 
z
" clip-path="url(#p60151755e4)" style="fill: #3b8bc2"/>
    <path d="M 306.744434 347.726994 
L 325.669247 359.610732 
L 335.125051 351.015118 
z
" clip-path="url(#p60151755e4)" style="fill: #f2f7fd"/>
    <path d="M 187.401673 324.321576 
L 182.761611 352.446844 
L 201.279921 358.097996 
z
" clip-path="url(#p60151755e4)" style="fill: #e3eef8"/>
    <path d="M 354.108796 356.657225 
L 335.125051 351.015118 
L 325.669247 359.610732 
z
" clip-path="url(#p60151755e4)" style="fill: #f7fbff"/>
    <path d="M 377.492053 358.343042 
L 358.416993 352.690352 
L 354.108796 356.657225 
z
" clip-path="url(#p60151755e4)" style="fill: #f7fbff"/>
    <path d="M 303.813364 350.304175 
L 284.974194 346.764022 
L 279.210964 353.746331 
z
" clip-path="url(#p60151755e4)" style="fill: #ecf4fb"/>
    <path d="M 132.377732 307.806856 
L 127.898991 335.704659 
L 141.408896 191.629106 
z
" clip-path="url(#p60151755e4)" style="fill: #206fb4"/>
    <path d="M 377.592348 358.249484 
L 358.543459 350.093414 
L 377.492053 358.343042 
z
" clip-path="url(#p60151755e4)" style="fill: #f5fafe"/>
    <path d="M 260.419412 343.509944 
L 236.685948 309.942622 
L 255.847381 353.022955 
z
" clip-path="url(#p60151755e4)" style="fill: #cee0f2"/>
    <path d="M 201.279921 358.097996 
L 206.284287 345.78316 
L 187.401673 324.321576 
z
" clip-path="url(#p60151755e4)" style="fill: #dce9f6"/>
    <path d="M 201.279921 358.097996 
L 181.334399 353.652005 
L 199.860702 359.310775 
z
" clip-path="url(#p60151755e4)" style="fill: #f7fbff"/>
    <path d="M 260.419412 343.509944 
L 241.436608 311.349009 
L 236.685948 309.942622 
z
" clip-path="url(#p60151755e4)" style="fill: #a6cee4"/>
    <path d="M 255.847381 353.022955 
L 274.613731 357.247451 
L 279.210964 353.746331 
z
" clip-path="url(#p60151755e4)" style="fill: #f2f7fd"/>
    <path d="M 325.669247 359.610732 
L 306.744434 347.726994 
L 303.813364 350.304175 
z
" clip-path="url(#p60151755e4)" style="fill: #ecf4fb"/>
    <path d="M 396.787474 363.937365 
L 383.335874 352.891787 
L 377.592348 358.249484 
z
" clip-path="url(#p60151755e4)" style="fill: #f7fbff"/>
    <path d="M 402.491717 358.545751 
L 383.335874 352.891787 
L 396.787474 363.937365 
z
" clip-path="url(#p60151755e4)" style="fill: #f7fbff"/>
    <path d="M 126.448562 336.887389 
L 144.212403 329.183513 
L 141.408896 191.629106 
z
" clip-path="url(#p60151755e4)" style="fill: #2c7cba"/>
    <path d="M 377.492053 358.343042 
L 354.108796 356.657225 
L 373.212602 362.335016 
z
" clip-path="url(#p60151755e4)" style="fill: #f7fbff"/>
    <path d="M 206.284287 345.78316 
L 201.279921 358.097996 
L 219.915442 363.784916 
z
" clip-path="url(#p60151755e4)" style="fill: #f1f7fd"/>
    <path d="M 279.210964 353.746331 
L 298.072613 354.793799 
L 303.813364 350.304175 
z
" clip-path="url(#p60151755e4)" style="fill: #eaf2fb"/>
    <path d="M 377.592348 358.249484 
L 377.492053 358.343042 
L 396.787474 363.937365 
z
" clip-path="url(#p60151755e4)" style="fill: #f7fbff"/>
    <path d="M 303.813364 350.304175 
L 322.760325 362.255031 
L 325.669247 359.610732 
z
" clip-path="url(#p60151755e4)" style="fill: #f2f7fd"/>
    <path d="M 274.613731 357.247451 
L 255.847381 353.022955 
L 243.76799 365.043868 
z
" clip-path="url(#p60151755e4)" style="fill: #f4f9fe"/>
    <path d="M 219.915442 363.784916 
L 201.279921 358.097996 
L 199.860702 359.310775 
z
" clip-path="url(#p60151755e4)" style="fill: #f7fbff"/>
    <path d="M 354.108796 356.657225 
L 325.669247 359.610732 
L 344.714497 365.307247 
z
" clip-path="url(#p60151755e4)" style="fill: #f7fbff"/>
    <path d="M 243.76799 365.043868 
L 255.847381 353.022955 
L 236.685948 309.942622 
z
" clip-path="url(#p60151755e4)" style="fill: #d4e4f4"/>
    <path d="M 164.359409 346.831125 
L 169.575471 342.478168 
L 141.408896 191.629106 
z
" clip-path="url(#p60151755e4)" style="fill: #3b8bc2"/>
    <path d="M 279.210964 353.746331 
L 274.613731 357.247451 
L 293.516845 364.380665 
z
" clip-path="url(#p60151755e4)" style="fill: #f2f7fd"/>
    <path d="M 303.813364 350.304175 
L 298.072613 354.793799 
L 322.760325 362.255031 
z
" clip-path="url(#p60151755e4)" style="fill: #ecf4fb"/>
    <path d="M 396.787474 363.937365 
L 377.492053 358.343042 
L 396.687863 364.031516 
z
" clip-path="url(#p60151755e4)" style="fill: #f7fbff"/>
    <path d="M 421.768837 364.23551 
L 402.491717 358.545751 
L 396.787474 363.937365 
z
" clip-path="url(#p60151755e4)" style="fill: #f7fbff"/>
    <path d="M 293.516845 364.380665 
L 298.072613 354.793799 
L 279.210964 353.746331 
z
" clip-path="url(#p60151755e4)" style="fill: #eef5fc"/>
    <path d="M 141.408896 191.629106 
L 162.924333 348.028738 
L 164.359409 346.831125 
z
" clip-path="url(#p60151755e4)" style="fill: #3b8bc2"/>
    <path d="M 236.685948 309.942622 
L 206.284287 345.78316 
L 224.602649 331.510552 
z
" clip-path="url(#p60151755e4)" style="fill: #add0e6"/>
    <path d="M 199.860702 359.310775 
L 218.504346 365.005386 
L 219.915442 363.784916 
z
" clip-path="url(#p60151755e4)" style="fill: #f7fbff"/>
    <path d="M 141.408896 191.629106 
L 144.212403 329.183513 
L 162.924333 348.028738 
z
" clip-path="url(#p60151755e4)" style="fill: #2c7cba"/>
    <path d="M 149.644167 281.407183 
L 132.377732 307.806856 
L 141.408896 191.629106 
z
" clip-path="url(#p60151755e4)" style="fill: #08306b"/>
    <path d="M 373.212602 362.335016 
L 392.43761 368.048828 
L 377.492053 358.343042 
z
" clip-path="url(#p60151755e4)" style="fill: #f7fbff"/>
    <path d="M 224.602649 331.510552 
L 206.284287 345.78316 
L 219.915442 363.784916 
z
" clip-path="url(#p60151755e4)" style="fill: #d8e7f5"/>
    <path d="M 325.669247 359.610732 
L 322.760325 362.255031 
L 341.824438 367.968336 
z
" clip-path="url(#p60151755e4)" style="fill: #f7fbff"/>
    <path d="M 363.880778 371.039962 
L 373.212602 362.335016 
L 354.108796 356.657225 
z
" clip-path="url(#p60151755e4)" style="fill: #f7fbff"/>
    <path d="M 392.43761 368.048828 
L 396.687863 364.031516 
L 377.492053 358.343042 
z
" clip-path="url(#p60151755e4)" style="fill: #f7fbff"/>
    <path d="M 141.408896 191.629106 
L 169.575471 342.478168 
L 149.644167 281.407183 
z
" clip-path="url(#p60151755e4)" style="fill: #084b93"/>
    <path d="M 341.824438 367.968336 
L 344.714497 365.307247 
L 325.669247 359.610732 
z
" clip-path="url(#p60151755e4)" style="fill: #f7fbff"/>
    <path d="M 354.108796 356.657225 
L 344.714497 365.307247 
L 363.880778 371.039962 
z
" clip-path="url(#p60151755e4)" style="fill: #f7fbff"/>
    <path d="M 322.760325 362.255031 
L 298.072613 354.793799 
L 317.063936 367.433222 
z
" clip-path="url(#p60151755e4)" style="fill: #f2f7fd"/>
    <path d="M 236.685948 309.942622 
L 224.602649 331.510552 
L 243.76799 365.043868 
z
" clip-path="url(#p60151755e4)" style="fill: #b8d5ea"/>
    <path d="M 416.005576 369.756114 
L 396.787474 363.937365 
L 396.687863 364.031516 
z
" clip-path="url(#p60151755e4)" style="fill: #f7fbff"/>
    <path d="M 396.787474 363.937365 
L 416.104491 369.661364 
L 421.768837 364.23551 
z
" clip-path="url(#p60151755e4)" style="fill: #f7fbff"/>
    <path d="M 243.76799 365.043868 
L 224.602649 331.510552 
L 219.915442 363.784916 
z
" clip-path="url(#p60151755e4)" style="fill: #dfebf7"/>
    <path d="M 219.915442 363.784916 
L 238.669291 369.507946 
L 243.76799 365.043868 
z
" clip-path="url(#p60151755e4)" style="fill: #f7fbff"/>
    <path d="M 243.76799 365.043868 
L 262.576787 366.800137 
L 274.613731 357.247451 
z
" clip-path="url(#p60151755e4)" style="fill: #f2f7fd"/>
    <path d="M 219.915442 363.784916 
L 218.504346 365.005386 
L 237.266449 370.73618 
z
" clip-path="url(#p60151755e4)" style="fill: #f7fbff"/>
    <path d="M 392.43761 368.048828 
L 373.212602 362.335016 
L 363.880778 371.039962 
z
" clip-path="url(#p60151755e4)" style="fill: #f7fbff"/>
    <path d="M 416.005576 369.756114 
L 396.687863 364.031516 
L 392.43761 368.048828 
z
" clip-path="url(#p60151755e4)" style="fill: #f7fbff"/>
    <path d="M 312.52946 371.5552 
L 298.072613 354.793799 
L 293.516845 364.380665 
z
" clip-path="url(#p60151755e4)" style="fill: #f0f6fd"/>
    <path d="M 336.164911 373.179477 
L 322.760325 362.255031 
L 317.063936 367.433222 
z
" clip-path="url(#p60151755e4)" style="fill: #f7fbff"/>
    <path d="M 317.063936 367.433222 
L 298.072613 354.793799 
L 312.52946 371.5552 
z
" clip-path="url(#p60151755e4)" style="fill: #f2f7fd"/>
    <path d="M 416.104491 369.661364 
L 396.787474 363.937365 
L 416.005576 369.756114 
z
" clip-path="url(#p60151755e4)" style="fill: #f7fbff"/>
    <path d="M 341.824438 367.968336 
L 322.760325 362.255031 
L 336.164911 373.179477 
z
" clip-path="url(#p60151755e4)" style="fill: #f7fbff"/>
    <path d="M 274.613731 357.247451 
L 281.573633 376.542477 
L 293.516845 364.380665 
z
" clip-path="url(#p60151755e4)" style="fill: #f4f9fe"/>
    <path d="M 237.266449 370.73618 
L 238.669291 369.507946 
L 219.915442 363.784916 
z
" clip-path="url(#p60151755e4)" style="fill: #f7fbff"/>
    <path d="M 344.714497 365.307247 
L 341.824438 367.968336 
L 361.009882 373.718001 
z
" clip-path="url(#p60151755e4)" style="fill: #f7fbff"/>
    <path d="M 421.768837 364.23551 
L 416.104491 369.661364 
L 435.544563 375.421827 
z
" clip-path="url(#p60151755e4)" style="fill: #f7fbff"/>
    <path d="M 435.544563 375.421827 
L 441.168388 369.961406 
L 421.768837 364.23551 
z
" clip-path="url(#p60151755e4)" style="fill: #f7fbff"/>
    <path d="M 243.76799 365.043868 
L 238.669291 369.507946 
L 257.542597 375.26743 
z
" clip-path="url(#p60151755e4)" style="fill: #f7fbff"/>
    <path d="M 262.576787 366.800137 
L 281.573633 376.542477 
L 274.613731 357.247451 
z
" clip-path="url(#p60151755e4)" style="fill: #f2f7fd"/>
    <path d="M 361.009882 373.718001 
L 363.880778 371.039962 
L 344.714497 365.307247 
z
" clip-path="url(#p60151755e4)" style="fill: #f7fbff"/>
    <path d="M 416.005576 369.756114 
L 392.43761 368.048828 
L 411.784978 373.799007 
z
" clip-path="url(#p60151755e4)" style="fill: #f7fbff"/>
    <path d="M 317.063936 367.433222 
L 312.52946 371.5552 
L 336.164911 373.179477 
z
" clip-path="url(#p60151755e4)" style="fill: #f7fbff"/>
    <path d="M 257.542597 375.26743 
L 262.576787 366.800137 
L 243.76799 365.043868 
z
" clip-path="url(#p60151755e4)" style="fill: #f4f9fe"/>
    <path d="M 293.516845 364.380665 
L 281.573633 376.542477 
L 312.52946 371.5552 
z
" clip-path="url(#p60151755e4)" style="fill: #f6faff"/>
    <path d="M 361.009882 373.718001 
L 341.824438 367.968336 
L 336.164911 373.179477 
z
" clip-path="url(#p60151755e4)" style="fill: #f7fbff"/>
    <path d="M 416.104491 369.661364 
L 416.005576 369.756114 
L 435.446354 375.517182 
z
" clip-path="url(#p60151755e4)" style="fill: #f7fbff"/>
    <path d="M 257.542597 375.26743 
L 238.669291 369.507946 
L 237.266449 370.73618 
z
" clip-path="url(#p60151755e4)" style="fill: #f7fbff"/>
    <path d="M 363.880778 371.039962 
L 383.169248 376.809224 
L 392.43761 368.048828 
z
" clip-path="url(#p60151755e4)" style="fill: #f7fbff"/>
    <path d="M 435.446354 375.517182 
L 416.005576 369.756114 
L 411.784978 373.799007 
z
" clip-path="url(#p60151755e4)" style="fill: #f7fbff"/>
    <path d="M 435.446354 375.517182 
L 435.544563 375.421827 
L 416.104491 369.661364 
z
" clip-path="url(#p60151755e4)" style="fill: #f7fbff"/>
    <path d="M 460.691542 375.723783 
L 441.168388 369.961406 
L 435.544563 375.421827 
z
" clip-path="url(#p60151755e4)" style="fill: #f7fbff"/>
    <path d="M 336.164911 373.179477 
L 312.52946 371.5552 
L 331.659704 377.327752 
z
" clip-path="url(#p60151755e4)" style="fill: #f7fbff"/>
    <path d="M 237.266449 370.73618 
L 256.148143 376.503503 
L 257.542597 375.26743 
z
" clip-path="url(#p60151755e4)" style="fill: #f7fbff"/>
    <path d="M 257.542597 375.26743 
L 281.573633 376.542477 
L 262.576787 366.800137 
z
" clip-path="url(#p60151755e4)" style="fill: #f4f9fe"/>
    <path d="M 380.317818 379.504377 
L 363.880778 371.039962 
L 361.009882 373.718001 
z
" clip-path="url(#p60151755e4)" style="fill: #f7fbff"/>
    <path d="M 392.43761 368.048828 
L 402.581078 382.615385 
L 411.784978 373.799007 
z
" clip-path="url(#p60151755e4)" style="fill: #f7fbff"/>
    <path d="M 336.164911 373.179477 
L 355.387803 378.962409 
L 361.009882 373.718001 
z
" clip-path="url(#p60151755e4)" style="fill: #f7fbff"/>
    <path d="M 380.317818 379.504377 
L 383.169248 376.809224 
L 363.880778 371.039962 
z
" clip-path="url(#p60151755e4)" style="fill: #f7fbff"/>
    <path d="M 392.43761 368.048828 
L 383.169248 376.809224 
L 402.581078 382.615385 
z
" clip-path="url(#p60151755e4)" style="fill: #f7fbff"/>
    <path d="M 411.784978 373.799007 
L 431.255878 379.585901 
L 435.446354 375.517182 
z
" clip-path="url(#p60151755e4)" style="fill: #f7fbff"/>
    <path d="M 312.52946 371.5552 
L 281.573633 376.542477 
L 300.657769 382.346929 
z
" clip-path="url(#p60151755e4)" style="fill: #f7fbff"/>
    <path d="M 455.10887 381.219103 
L 435.544563 375.421827 
L 435.446354 375.517182 
z
" clip-path="url(#p60151755e4)" style="fill: #f7fbff"/>
    <path d="M 355.387803 378.962409 
L 380.317818 379.504377 
L 361.009882 373.718001 
z
" clip-path="url(#p60151755e4)" style="fill: #f7fbff"/>
    <path d="M 455.10887 381.219103 
L 460.691542 375.723783 
L 435.544563 375.421827 
z
" clip-path="url(#p60151755e4)" style="fill: #f7fbff"/>
    <path d="M 276.536506 381.063718 
L 281.573633 376.542477 
L 257.542597 375.26743 
z
" clip-path="url(#p60151755e4)" style="fill: #f7fbff"/>
    <path d="M 336.164911 373.179477 
L 331.659704 377.327752 
L 350.912333 383.137235 
z
" clip-path="url(#p60151755e4)" style="fill: #f7fbff"/>
    <path d="M 256.148143 376.503503 
L 275.150577 382.307705 
L 257.542597 375.26743 
z
" clip-path="url(#p60151755e4)" style="fill: #f7fbff"/>
    <path d="M 350.912333 383.137235 
L 355.387803 378.962409 
L 336.164911 373.179477 
z
" clip-path="url(#p60151755e4)" style="fill: #f7fbff"/>
    <path d="M 411.784978 373.799007 
L 402.581078 382.615385 
L 431.255878 379.585901 
z
" clip-path="url(#p60151755e4)" style="fill: #f7fbff"/>
    <path d="M 319.864333 388.188617 
L 331.659704 377.327752 
L 312.52946 371.5552 
z
" clip-path="url(#p60151755e4)" style="fill: #f7fbff"/>
    <path d="M 435.446354 375.517182 
L 455.011379 381.315068 
L 455.10887 381.219103 
z
" clip-path="url(#p60151755e4)" style="fill: #f7fbff"/>
    <path d="M 257.542597 375.26743 
L 275.150577 382.307705 
L 276.536506 381.063718 
z
" clip-path="url(#p60151755e4)" style="fill: #f7fbff"/>
    <path d="M 402.581078 382.615385 
L 383.169248 376.809224 
L 380.317818 379.504377 
z
" clip-path="url(#p60151755e4)" style="fill: #f7fbff"/>
    <path d="M 435.446354 375.517182 
L 431.255878 379.585901 
L 450.851497 385.409861 
z
" clip-path="url(#p60151755e4)" style="fill: #f7fbff"/>
    <path d="M 300.657769 382.346929 
L 319.864333 388.188617 
L 312.52946 371.5552 
z
" clip-path="url(#p60151755e4)" style="fill: #f7fbff"/>
    <path d="M 450.851497 385.409861 
L 455.011379 381.315068 
L 435.446354 375.517182 
z
" clip-path="url(#p60151755e4)" style="fill: #f7fbff"/>
    <path d="M 374.733783 384.782371 
L 380.317818 379.504377 
L 355.387803 378.962409 
z
" clip-path="url(#p60151755e4)" style="fill: #f7fbff"/>
    <path d="M 474.798607 387.053547 
L 460.691542 375.723783 
L 455.10887 381.219103 
z
" clip-path="url(#p60151755e4)" style="fill: #f7fbff"/>
    <path d="M 474.798607 387.053547 
L 480.339482 381.522992 
L 460.691542 375.723783 
z
" clip-path="url(#p60151755e4)" style="fill: #f7fbff"/>
    <path d="M 295.652178 386.897164 
L 281.573633 376.542477 
L 276.536506 381.063718 
z
" clip-path="url(#p60151755e4)" style="fill: #f7fbff"/>
    <path d="M 300.657769 382.346929 
L 281.573633 376.542477 
L 295.652178 386.897164 
z
" clip-path="url(#p60151755e4)" style="fill: #f7fbff"/>
    <path d="M 399.749424 385.327815 
L 402.581078 382.615385 
L 380.317818 379.504377 
z
" clip-path="url(#p60151755e4)" style="fill: #f7fbff"/>
    <path d="M 455.011379 381.315068 
L 474.798607 387.053547 
L 455.10887 381.219103 
z
" clip-path="url(#p60151755e4)" style="fill: #f7fbff"/>
    <path d="M 276.536506 381.063718 
L 275.150577 382.307705 
L 295.652178 386.897164 
z
" clip-path="url(#p60151755e4)" style="fill: #f7fbff"/>
    <path d="M 431.255878 379.585901 
L 402.581078 382.615385 
L 422.117457 388.458798 
z
" clip-path="url(#p60151755e4)" style="fill: #f7fbff"/>
    <path d="M 350.912333 383.137235 
L 370.288523 388.984002 
L 355.387803 378.962409 
z
" clip-path="url(#p60151755e4)" style="fill: #f7fbff"/>
    <path d="M 355.387803 378.962409 
L 370.288523 388.984002 
L 374.733783 384.782371 
z
" clip-path="url(#p60151755e4)" style="fill: #f7fbff"/>
    <path d="M 339.194506 394.0679 
L 350.912333 383.137235 
L 331.659704 377.327752 
z
" clip-path="url(#p60151755e4)" style="fill: #f7fbff"/>
    <path d="M 394.204037 390.639718 
L 380.317818 379.504377 
L 374.733783 384.782371 
z
" clip-path="url(#p60151755e4)" style="fill: #f7fbff"/>
    <path d="M 399.749424 385.327815 
L 380.317818 379.504377 
L 394.204037 390.639718 
z
" clip-path="url(#p60151755e4)" style="fill: #f7fbff"/>
    <path d="M 474.701846 387.150128 
L 474.798607 387.053547 
L 455.011379 381.315068 
z
" clip-path="url(#p60151755e4)" style="fill: #f7fbff"/>
    <path d="M 500.11341 387.359387 
L 480.339482 381.522992 
L 474.798607 387.053547 
z
" clip-path="url(#p60151755e4)" style="fill: #f7fbff"/>
    <path d="M 295.652178 386.897164 
L 275.150577 382.307705 
L 294.274912 388.149141 
z
" clip-path="url(#p60151755e4)" style="fill: #f7fbff"/>
    <path d="M 295.652178 386.897164 
L 319.864333 388.188617 
L 300.657769 382.346929 
z
" clip-path="url(#p60151755e4)" style="fill: #f7fbff"/>
    <path d="M 450.851497 385.409861 
L 470.573037 391.271247 
L 455.011379 381.315068 
z
" clip-path="url(#p60151755e4)" style="fill: #f7fbff"/>
    <path d="M 399.749424 385.327815 
L 419.305891 391.188672 
L 402.581078 382.615385 
z
" clip-path="url(#p60151755e4)" style="fill: #f7fbff"/>
    <path d="M 450.851497 385.409861 
L 431.255878 379.585901 
L 441.779587 394.339823 
z
" clip-path="url(#p60151755e4)" style="fill: #f7fbff"/>
    <path d="M 331.659704 377.327752 
L 319.864333 388.188617 
L 339.194506 394.0679 
z
" clip-path="url(#p60151755e4)" style="fill: #f7fbff"/>
    <path d="M 470.573037 391.271247 
L 474.701846 387.150128 
L 455.011379 381.315068 
z
" clip-path="url(#p60151755e4)" style="fill: #f7fbff"/>
    <path d="M 402.581078 382.615385 
L 419.305891 391.188672 
L 422.117457 388.458798 
z
" clip-path="url(#p60151755e4)" style="fill: #f7fbff"/>
    <path d="M 441.779587 394.339823 
L 431.255878 379.585901 
L 422.117457 388.458798 
z
" clip-path="url(#p60151755e4)" style="fill: #f7fbff"/>
    <path d="M 370.288523 388.984002 
L 394.204037 390.639718 
L 374.733783 384.782371 
z
" clip-path="url(#p60151755e4)" style="fill: #f7fbff"/>
    <path d="M 370.288523 388.984002 
L 350.912333 383.137235 
L 339.194506 394.0679 
z
" clip-path="url(#p60151755e4)" style="fill: #f7fbff"/>
    <path d="M 394.204037 390.639718 
L 419.305891 391.188672 
L 399.749424 385.327815 
z
" clip-path="url(#p60151755e4)" style="fill: #f7fbff"/>
    <path d="M 474.798607 387.053547 
L 474.701846 387.150128 
L 494.518963 393.02272 
z
" clip-path="url(#p60151755e4)" style="fill: #f7fbff"/>
    <path d="M 494.614984 392.925516 
L 500.11341 387.359387 
L 474.798607 387.053547 
z
" clip-path="url(#p60151755e4)" style="fill: #f7fbff"/>
    <path d="M 295.652178 386.897164 
L 314.890787 392.768126 
L 319.864333 388.188617 
z
" clip-path="url(#p60151755e4)" style="fill: #f7fbff"/>
    <path d="M 313.522324 394.02817 
L 295.652178 386.897164 
L 294.274912 388.149141 
z
" clip-path="url(#p60151755e4)" style="fill: #f7fbff"/>
    <path d="M 450.851497 385.409861 
L 441.779587 394.339823 
L 470.573037 391.271247 
z
" clip-path="url(#p60151755e4)" style="fill: #f7fbff"/>
    <path d="M 494.518963 393.02272 
L 494.614984 392.925516 
L 474.798607 387.053547 
z
" clip-path="url(#p60151755e4)" style="fill: #f7fbff"/>
    <path d="M 314.890787 392.768126 
L 295.652178 386.897164 
L 313.522324 394.02817 
z
" clip-path="url(#p60151755e4)" style="fill: #f7fbff"/>
    <path d="M 422.117457 388.458798 
L 419.305891 391.188672 
L 441.779587 394.339823 
z
" clip-path="url(#p60151755e4)" style="fill: #f7fbff"/>
    <path d="M 389.789469 394.868414 
L 394.204037 390.639718 
L 370.288523 388.984002 
z
" clip-path="url(#p60151755e4)" style="fill: #f7fbff"/>
    <path d="M 339.194506 394.0679 
L 319.864333 388.188617 
L 314.890787 392.768126 
z
" clip-path="url(#p60151755e4)" style="fill: #f7fbff"/>
    <path d="M 490.421715 397.170418 
L 474.701846 387.150128 
L 470.573037 391.271247 
z
" clip-path="url(#p60151755e4)" style="fill: #f7fbff"/>
    <path d="M 494.518963 393.02272 
L 474.701846 387.150128 
L 490.421715 397.170418 
z
" clip-path="url(#p60151755e4)" style="fill: #f7fbff"/>
    <path d="M 413.799766 396.534813 
L 419.305891 391.188672 
L 394.204037 390.639718 
z
" clip-path="url(#p60151755e4)" style="fill: #f7fbff"/>
    <path d="M 500.11341 387.359387 
L 494.614984 392.925516 
L 514.559227 398.835375 
z
" clip-path="url(#p60151755e4)" style="fill: #f7fbff"/>
    <path d="M 500.11341 387.359387 
L 514.559227 398.835375 
L 520.01454 393.233327 
z
" clip-path="url(#p60151755e4)" style="fill: #f7fbff"/>
    <path d="M 441.779587 394.339823 
L 419.305891 391.188672 
L 438.988427 397.087311 
z
" clip-path="url(#p60151755e4)" style="fill: #f7fbff"/>
    <path d="M 339.194506 394.0679 
L 358.649486 399.985144 
L 370.288523 388.984002 
z
" clip-path="url(#p60151755e4)" style="fill: #f7fbff"/>
    <path d="M 494.614984 392.925516 
L 494.518963 393.02272 
L 514.463958 398.933206 
z
" clip-path="url(#p60151755e4)" style="fill: #f7fbff"/>
    <path d="M 334.253523 398.676967 
L 314.890787 392.768126 
L 313.522324 394.02817 
z
" clip-path="url(#p60151755e4)" style="fill: #f7fbff"/>
    <path d="M 314.890787 392.768126 
L 334.253523 398.676967 
L 339.194506 394.0679 
z
" clip-path="url(#p60151755e4)" style="fill: #f7fbff"/>
    <path d="M 470.573037 391.271247 
L 441.779587 394.339823 
L 461.568686 400.258826 
z
" clip-path="url(#p60151755e4)" style="fill: #f7fbff"/>
    <path d="M 389.789469 394.868414 
L 409.41638 400.790836 
L 394.204037 390.639718 
z
" clip-path="url(#p60151755e4)" style="fill: #f7fbff"/>
    <path d="M 394.204037 390.639718 
L 409.41638 400.790836 
L 413.799766 396.534813 
z
" clip-path="url(#p60151755e4)" style="fill: #f7fbff"/>
    <path d="M 490.421715 397.170418 
L 470.573037 391.271247 
L 461.568686 400.258826 
z
" clip-path="url(#p60151755e4)" style="fill: #f7fbff"/>
    <path d="M 514.463958 398.933206 
L 494.518963 393.02272 
L 490.421715 397.170418 
z
" clip-path="url(#p60151755e4)" style="fill: #f7fbff"/>
    <path d="M 378.230485 405.940717 
L 389.789469 394.868414 
L 370.288523 388.984002 
z
" clip-path="url(#p60151755e4)" style="fill: #f7fbff"/>
    <path d="M 433.522186 402.468021 
L 419.305891 391.188672 
L 413.799766 396.534813 
z
" clip-path="url(#p60151755e4)" style="fill: #f7fbff"/>
    <path d="M 494.614984 392.925516 
L 514.463958 398.933206 
L 514.559227 398.835375 
z
" clip-path="url(#p60151755e4)" style="fill: #f7fbff"/>
    <path d="M 438.988427 397.087311 
L 419.305891 391.188672 
L 433.522186 402.468021 
z
" clip-path="url(#p60151755e4)" style="fill: #f7fbff"/>
    <path d="M 313.522324 394.02817 
L 332.894005 399.945157 
L 334.253523 398.676967 
z
" clip-path="url(#p60151755e4)" style="fill: #f7fbff"/>
    <path d="M 458.798254 403.024097 
L 441.779587 394.339823 
L 438.988427 397.087311 
z
" clip-path="url(#p60151755e4)" style="fill: #f7fbff"/>
    <path d="M 370.288523 388.984002 
L 358.649486 399.985144 
L 378.230485 405.940717 
z
" clip-path="url(#p60151755e4)" style="fill: #f7fbff"/>
    <path d="M 339.194506 394.0679 
L 334.253523 398.676967 
L 353.741591 404.624055 
z
" clip-path="url(#p60151755e4)" style="fill: #f7fbff"/>
    <path d="M 461.568686 400.258826 
L 441.779587 394.339823 
L 458.798254 403.024097 
z
" clip-path="url(#p60151755e4)" style="fill: #f7fbff"/>
    <path d="M 353.741591 404.624055 
L 358.649486 399.985144 
L 339.194506 394.0679 
z
" clip-path="url(#p60151755e4)" style="fill: #f7fbff"/>
    <path d="M 510.398765 403.107743 
L 514.463958 398.933206 
L 490.421715 397.170418 
z
" clip-path="url(#p60151755e4)" style="fill: #f7fbff"/>
    <path d="M 409.41638 400.790836 
L 433.522186 402.468021 
L 413.799766 396.534813 
z
" clip-path="url(#p60151755e4)" style="fill: #f7fbff"/>
    <path d="M 409.41638 400.790836 
L 389.789469 394.868414 
L 378.230485 405.940717 
z
" clip-path="url(#p60151755e4)" style="fill: #f7fbff"/>
    <path d="M 438.988427 397.087311 
L 433.522186 402.468021 
L 458.798254 403.024097 
z
" clip-path="url(#p60151755e4)" style="fill: #f7fbff"/>
    <path d="M 334.253523 398.676967 
L 332.894005 399.945157 
L 353.741591 404.624055 
z
" clip-path="url(#p60151755e4)" style="fill: #f7fbff"/>
    <path d="M 461.568686 400.258826 
L 481.485987 406.216174 
L 490.421715 397.170418 
z
" clip-path="url(#p60151755e4)" style="fill: #f7fbff"/>
    <path d="M 409.41638 400.790836 
L 429.170479 406.751637 
L 433.522186 402.468021 
z
" clip-path="url(#p60151755e4)" style="fill: #f7fbff"/>
    <path d="M 332.894005 399.945157 
L 352.391164 405.900471 
L 353.741591 404.624055 
z
" clip-path="url(#p60151755e4)" style="fill: #f7fbff"/>
    <path d="M 378.230485 405.940717 
L 358.649486 399.985144 
L 353.741591 404.624055 
z
" clip-path="url(#p60151755e4)" style="fill: #f7fbff"/>
    <path d="M 461.568686 400.258826 
L 458.798254 403.024097 
L 478.736612 408.999403 
z
" clip-path="url(#p60151755e4)" style="fill: #f7fbff"/>
    <path d="M 490.421715 397.170418 
L 501.53274 412.212243 
L 510.398765 403.107743 
z
" clip-path="url(#p60151755e4)" style="fill: #f7fbff"/>
    <path d="M 458.798254 403.024097 
L 433.522186 402.468021 
L 453.372532 408.439714 
z
" clip-path="url(#p60151755e4)" style="fill: #f7fbff"/>
    <path d="M 478.736612 408.999403 
L 481.485987 406.216174 
L 461.568686 400.258826 
z
" clip-path="url(#p60151755e4)" style="fill: #f7fbff"/>
    <path d="M 490.421715 397.170418 
L 481.485987 406.216174 
L 501.53274 412.212243 
z
" clip-path="url(#p60151755e4)" style="fill: #f7fbff"/>
    <path d="M 378.230485 405.940717 
L 397.938732 411.934992 
L 409.41638 400.790836 
z
" clip-path="url(#p60151755e4)" style="fill: #f7fbff"/>
    <path d="M 478.736612 408.999403 
L 458.798254 403.024097 
L 453.372532 408.439714 
z
" clip-path="url(#p60151755e4)" style="fill: #f7fbff"/>
    <path d="M 353.741591 404.624055 
L 373.356212 410.609763 
L 378.230485 405.940717 
z
" clip-path="url(#p60151755e4)" style="fill: #f7fbff"/>
    <path d="M 433.522186 402.468021 
L 429.170479 406.751637 
L 449.053008 412.751192 
z
" clip-path="url(#p60151755e4)" style="fill: #f7fbff"/>
    <path d="M 352.391164 405.900471 
L 372.015022 411.894484 
L 353.741591 404.624055 
z
" clip-path="url(#p60151755e4)" style="fill: #f7fbff"/>
    <path d="M 453.372532 408.439714 
L 433.522186 402.468021 
L 449.053008 412.751192 
z
" clip-path="url(#p60151755e4)" style="fill: #f7fbff"/>
    <path d="M 409.41638 400.790836 
L 417.775471 417.968348 
L 429.170479 406.751637 
z
" clip-path="url(#p60151755e4)" style="fill: #f7fbff"/>
    <path d="M 353.741591 404.624055 
L 372.015022 411.894484 
L 373.356212 410.609763 
z
" clip-path="url(#p60151755e4)" style="fill: #f7fbff"/>
    <path d="M 501.53274 412.212243 
L 481.485987 406.216174 
L 478.736612 408.999403 
z
" clip-path="url(#p60151755e4)" style="fill: #f7fbff"/>
    <path d="M 397.938732 411.934992 
L 417.775471 417.968348 
L 409.41638 400.790836 
z
" clip-path="url(#p60151755e4)" style="fill: #f7fbff"/>
    <path d="M 453.372532 408.439714 
L 473.35205 414.450266 
L 478.736612 408.999403 
z
" clip-path="url(#p60151755e4)" style="fill: #f7fbff"/>
    <path d="M 378.230485 405.940717 
L 373.356212 410.609763 
L 393.098623 416.634468 
z
" clip-path="url(#p60151755e4)" style="fill: #f7fbff"/>
    <path d="M 393.098623 416.634468 
L 397.938732 411.934992 
L 378.230485 405.940717 
z
" clip-path="url(#p60151755e4)" style="fill: #f7fbff"/>
    <path d="M 449.053008 412.751192 
L 473.35205 414.450266 
L 453.372532 408.439714 
z
" clip-path="url(#p60151755e4)" style="fill: #f7fbff"/>
    <path d="M 478.736612 408.999403 
L 498.804755 415.013604 
L 501.53274 412.212243 
z
" clip-path="url(#p60151755e4)" style="fill: #f7fbff"/>
    <path d="M 429.170479 406.751637 
L 417.775471 417.968348 
L 449.053008 412.751192 
z
" clip-path="url(#p60151755e4)" style="fill: #f7fbff"/>
    <path d="M 372.015022 411.894484 
L 393.098623 416.634468 
L 373.356212 410.609763 
z
" clip-path="url(#p60151755e4)" style="fill: #f7fbff"/>
    <path d="M 478.736612 408.999403 
L 473.35205 414.450266 
L 493.462007 420.500059 
z
" clip-path="url(#p60151755e4)" style="fill: #f7fbff"/>
    <path d="M 493.462007 420.500059 
L 498.804755 415.013604 
L 478.736612 408.999403 
z
" clip-path="url(#p60151755e4)" style="fill: #f7fbff"/>
    <path d="M 469.065222 418.789879 
L 473.35205 414.450266 
L 449.053008 412.751192 
z
" clip-path="url(#p60151755e4)" style="fill: #f7fbff"/>
    <path d="M 391.76682 417.927575 
L 393.098623 416.634468 
L 372.015022 411.894484 
z
" clip-path="url(#p60151755e4)" style="fill: #f7fbff"/>
    <path d="M 397.938732 411.934992 
L 393.098623 416.634468 
L 417.775471 417.968348 
z
" clip-path="url(#p60151755e4)" style="fill: #f7fbff"/>
    <path d="M 449.053008 412.751192 
L 417.775471 417.968348 
L 437.741962 424.041169 
z
" clip-path="url(#p60151755e4)" style="fill: #f7fbff"/>
    <path d="M 417.775471 417.968348 
L 393.098623 416.634468 
L 412.970077 422.698553 
z
" clip-path="url(#p60151755e4)" style="fill: #f7fbff"/>
    <path d="M 473.35205 414.450266 
L 469.065222 418.789879 
L 489.208394 424.868083 
z
" clip-path="url(#p60151755e4)" style="fill: #f7fbff"/>
    <path d="M 391.76682 417.927575 
L 411.647811 424.000129 
L 393.098623 416.634468 
z
" clip-path="url(#p60151755e4)" style="fill: #f7fbff"/>
    <path d="M 473.35205 414.450266 
L 489.208394 424.868083 
L 493.462007 420.500059 
z
" clip-path="url(#p60151755e4)" style="fill: #f7fbff"/>
    <path d="M 457.839484 430.153842 
L 469.065222 418.789879 
L 449.053008 412.751192 
z
" clip-path="url(#p60151755e4)" style="fill: #f7fbff"/>
    <path d="M 393.098623 416.634468 
L 411.647811 424.000129 
L 412.970077 422.698553 
z
" clip-path="url(#p60151755e4)" style="fill: #f7fbff"/>
    <path d="M 437.741962 424.041169 
L 457.839484 430.153842 
L 449.053008 412.751192 
z
" clip-path="url(#p60151755e4)" style="fill: #f7fbff"/>
    <path d="M 432.971842 428.802404 
L 417.775471 417.968348 
L 412.970077 422.698553 
z
" clip-path="url(#p60151755e4)" style="fill: #f7fbff"/>
    <path d="M 437.741962 424.041169 
L 417.775471 417.968348 
L 432.971842 428.802404 
z
" clip-path="url(#p60151755e4)" style="fill: #f7fbff"/>
    <path d="M 412.970077 422.698553 
L 411.647811 424.000129 
L 432.971842 428.802404 
z
" clip-path="url(#p60151755e4)" style="fill: #f7fbff"/>
    <path d="M 478.069329 436.306762 
L 489.208394 424.868083 
L 469.065222 418.789879 
z
" clip-path="url(#p60151755e4)" style="fill: #f7fbff"/>
    <path d="M 432.971842 428.802404 
L 411.647811 424.000129 
L 431.659269 430.112532 
z
" clip-path="url(#p60151755e4)" style="fill: #f7fbff"/>
    <path d="M 432.971842 428.802404 
L 457.839484 430.153842 
L 437.741962 424.041169 
z
" clip-path="url(#p60151755e4)" style="fill: #f7fbff"/>
    <path d="M 469.065222 418.789879 
L 457.839484 430.153842 
L 478.069329 436.306762 
z
" clip-path="url(#p60151755e4)" style="fill: #f7fbff"/>
    <path d="M 432.971842 428.802404 
L 453.105206 434.946414 
L 457.839484 430.153842 
z
" clip-path="url(#p60151755e4)" style="fill: #f7fbff"/>
    <path d="M 431.659269 430.112532 
L 451.802481 436.26518 
L 432.971842 428.802404 
z
" clip-path="url(#p60151755e4)" style="fill: #f7fbff"/>
    <path d="M 451.802481 436.26518 
L 453.105206 434.946414 
L 432.971842 428.802404 
z
" clip-path="url(#p60151755e4)" style="fill: #f7fbff"/>
    <path d="M 478.069329 436.306762 
L 457.839484 430.153842 
L 453.105206 434.946414 
z
" clip-path="url(#p60151755e4)" style="fill: #f7fbff"/>
    <path d="M 453.105206 434.946414 
L 473.371471 441.130981 
L 478.069329 436.306762 
z
" clip-path="url(#p60151755e4)" style="fill: #f7fbff"/>
    <path d="M 453.105206 434.946414 
L 451.802481 436.26518 
L 472.078754 442.458469 
z
" clip-path="url(#p60151755e4)" style="fill: #f7fbff"/>
    <path d="M 472.078754 442.458469 
L 473.371471 441.130981 
L 453.105206 434.946414 
z
" clip-path="url(#p60151755e4)" style="fill: #f7fbff"/>
   </g>
  </g>
 </g>
 <defs>
  <clipPath id="p60151755e4">
   <rect x="21.6" y="21.6" width="554.4" height="554.4"/>
  </clipPath>
 </defs>
</svg>
