<?xml version="1.0" encoding="utf-8" standalone="no"?>
<!DOCTYPE svg PUBLIC "-//W3C//DTD SVG 1.1//EN"
  "http://www.w3.org/Graphics/SVG/1.1/DTD/svg11.dtd">
<svg xmlns:xlink="http://www.w3.org/1999/xlink" width="619.2pt" height="410.4pt" viewBox="0 0 619.2 410.4" xmlns="http://www.w3.org/2000/svg" version="1.1">
 <metadata>
  <rdf:RDF xmlns:dc="http://purl.org/dc/elements/1.1/" xmlns:cc="http://creativecommons.org/ns#" xmlns:rdf="http://www.w3.org/1999/02/22-rdf-syntax-ns#">
   <cc:Work>
    <dc:type rdf:resource="http://purl.org/dc/dcmitype/StillImage"/>
    <dc:date/>
    <dc:format>image/svg+xml</dc:format>
    <dc:creator>
     <cc:Agent>
      <dc:title>Matplotlib v3.6.2, https://matplotlib.org/</dc:title>
     </cc:Agent>
    </dc:creator>
   </cc:Work>
  </rdf:RDF>
 </metadata>
 <defs>
  <style type="text/css">*{stroke-linejoin: round; stroke-linecap: butt}</style>
 </defs>
 <g id="figure_1">
  <g id="patch_1">
   <path d="M 0 410.4 
L 619.2 410.4 
L 619.2 0 
L 0 0 
z
" style="fill: #ffffff"/>
  </g>
  <g id="patch_2">
   <path d="M -1.8 475.2 
L 552.6 475.2 
L 552.6 -79.2 
L -1.8 -79.2 
z
" style="fill: #ffffff"/>
  </g>
  <g id="pane3d_1">
   <g id="patch_3">
    <path d="M 17.912472 259.663759 
L 144.831956 158.740656 
L 140.848407 8.057576 
L 9.798586 102.842949 
" style="fill: #f2f2f2; opacity: 0.5; stroke: #f2f2f2; stroke-linejoin: miter"/>
   </g>
  </g>
  <g id="pane3d_2">
   <g id="patch_4">
    <path d="M 144.831956 158.740656 
L 550.329769 276.357828 
L 558.597262 118.553145 
L 140.848407 8.057576 
" style="fill: #e6e6e6; opacity: 0.5; stroke: #e6e6e6; stroke-linejoin: miter"/>
   </g>
  </g>
  <g id="pane3d_3">
   <g id="patch_5">
    <path d="M 17.912472 259.663759 
L 439.930816 392.219825 
L 550.329769 276.357828 
L 144.831956 158.740656 
" style="fill: #ececec; opacity: 0.5; stroke: #ececec; stroke-linejoin: miter"/>
   </g>
  </g>
  <g id="axis3d_1">
   <g id="line2d_1">
    <path d="M 17.912472 259.663759 
L 439.930816 392.219825 
" style="fill: none; stroke: #000000; stroke-width: 0.8; stroke-linecap: square"/>
   </g>
   <g id="text_1">
    <!-- Python version -->
    <g transform="translate(164.36057 342.467396) rotate(-342.562483) scale(0.12 -0.12)">
     <defs>
      <path id="DejaVuSans-50" d="M 1259 4147 
L 1259 2394 
L 2053 2394 
Q 2494 2394 2734 2622 
Q 2975 2850 2975 3272 
Q 2975 3691 2734 3919 
Q 2494 4147 2053 4147 
L 1259 4147 
z
M 628 4666 
L 2053 4666 
Q 2838 4666 3239 4311 
Q 3641 3956 3641 3272 
Q 3641 2581 3239 2228 
Q 2838 1875 2053 1875 
L 1259 1875 
L 1259 0 
L 628 0 
L 628 4666 
z
" transform="scale(0.015625)"/>
      <path id="DejaVuSans-79" d="M 2059 -325 
Q 1816 -950 1584 -1140 
Q 1353 -1331 966 -1331 
L 506 -1331 
L 506 -850 
L 844 -850 
Q 1081 -850 1212 -737 
Q 1344 -625 1503 -206 
L 1606 56 
L 191 3500 
L 800 3500 
L 1894 763 
L 2988 3500 
L 3597 3500 
L 2059 -325 
z
" transform="scale(0.015625)"/>
      <path id="DejaVuSans-74" d="M 1172 4494 
L 1172 3500 
L 2356 3500 
L 2356 3053 
L 1172 3053 
L 1172 1153 
Q 1172 725 1289 603 
Q 1406 481 1766 481 
L 2356 481 
L 2356 0 
L 1766 0 
Q 1100 0 847 248 
Q 594 497 594 1153 
L 594 3053 
L 172 3053 
L 172 3500 
L 594 3500 
L 594 4494 
L 1172 4494 
z
" transform="scale(0.015625)"/>
      <path id="DejaVuSans-68" d="M 3513 2113 
L 3513 0 
L 2938 0 
L 2938 2094 
Q 2938 2591 2744 2837 
Q 2550 3084 2163 3084 
Q 1697 3084 1428 2787 
Q 1159 2491 1159 1978 
L 1159 0 
L 581 0 
L 581 4863 
L 1159 4863 
L 1159 2956 
Q 1366 3272 1645 3428 
Q 1925 3584 2291 3584 
Q 2894 3584 3203 3211 
Q 3513 2838 3513 2113 
z
" transform="scale(0.015625)"/>
      <path id="DejaVuSans-6f" d="M 1959 3097 
Q 1497 3097 1228 2736 
Q 959 2375 959 1747 
Q 959 1119 1226 758 
Q 1494 397 1959 397 
Q 2419 397 2687 759 
Q 2956 1122 2956 1747 
Q 2956 2369 2687 2733 
Q 2419 3097 1959 3097 
z
M 1959 3584 
Q 2709 3584 3137 3096 
Q 3566 2609 3566 1747 
Q 3566 888 3137 398 
Q 2709 -91 1959 -91 
Q 1206 -91 779 398 
Q 353 888 353 1747 
Q 353 2609 779 3096 
Q 1206 3584 1959 3584 
z
" transform="scale(0.015625)"/>
      <path id="DejaVuSans-6e" d="M 3513 2113 
L 3513 0 
L 2938 0 
L 2938 2094 
Q 2938 2591 2744 2837 
Q 2550 3084 2163 3084 
Q 1697 3084 1428 2787 
Q 1159 2491 1159 1978 
L 1159 0 
L 581 0 
L 581 3500 
L 1159 3500 
L 1159 2956 
Q 1366 3272 1645 3428 
Q 1925 3584 2291 3584 
Q 2894 3584 3203 3211 
Q 3513 2838 3513 2113 
z
" transform="scale(0.015625)"/>
      <path id="DejaVuSans-20" transform="scale(0.015625)"/>
      <path id="DejaVuSans-76" d="M 191 3500 
L 800 3500 
L 1894 563 
L 2988 3500 
L 3597 3500 
L 2284 0 
L 1503 0 
L 191 3500 
z
" transform="scale(0.015625)"/>
      <path id="DejaVuSans-65" d="M 3597 1894 
L 3597 1613 
L 953 1613 
Q 991 1019 1311 708 
Q 1631 397 2203 397 
Q 2534 397 2845 478 
Q 3156 559 3463 722 
L 3463 178 
Q 3153 47 2828 -22 
Q 2503 -91 2169 -91 
Q 1331 -91 842 396 
Q 353 884 353 1716 
Q 353 2575 817 3079 
Q 1281 3584 2069 3584 
Q 2775 3584 3186 3129 
Q 3597 2675 3597 1894 
z
M 3022 2063 
Q 3016 2534 2758 2815 
Q 2500 3097 2075 3097 
Q 1594 3097 1305 2825 
Q 1016 2553 972 2059 
L 3022 2063 
z
" transform="scale(0.015625)"/>
      <path id="DejaVuSans-72" d="M 2631 2963 
Q 2534 3019 2420 3045 
Q 2306 3072 2169 3072 
Q 1681 3072 1420 2755 
Q 1159 2438 1159 1844 
L 1159 0 
L 581 0 
L 581 3500 
L 1159 3500 
L 1159 2956 
Q 1341 3275 1631 3429 
Q 1922 3584 2338 3584 
Q 2397 3584 2469 3576 
Q 2541 3569 2628 3553 
L 2631 2963 
z
" transform="scale(0.015625)"/>
      <path id="DejaVuSans-73" d="M 2834 3397 
L 2834 2853 
Q 2591 2978 2328 3040 
Q 2066 3103 1784 3103 
Q 1356 3103 1142 2972 
Q 928 2841 928 2578 
Q 928 2378 1081 2264 
Q 1234 2150 1697 2047 
L 1894 2003 
Q 2506 1872 2764 1633 
Q 3022 1394 3022 966 
Q 3022 478 2636 193 
Q 2250 -91 1575 -91 
Q 1294 -91 989 -36 
Q 684 19 347 128 
L 347 722 
Q 666 556 975 473 
Q 1284 391 1588 391 
Q 1994 391 2212 530 
Q 2431 669 2431 922 
Q 2431 1156 2273 1281 
Q 2116 1406 1581 1522 
L 1381 1569 
Q 847 1681 609 1914 
Q 372 2147 372 2553 
Q 372 3047 722 3315 
Q 1072 3584 1716 3584 
Q 2034 3584 2315 3537 
Q 2597 3491 2834 3397 
z
" transform="scale(0.015625)"/>
      <path id="DejaVuSans-69" d="M 603 3500 
L 1178 3500 
L 1178 0 
L 603 0 
L 603 3500 
z
M 603 4863 
L 1178 4863 
L 1178 4134 
L 603 4134 
L 603 4863 
z
" transform="scale(0.015625)"/>
     </defs>
     <use xlink:href="#DejaVuSans-50"/>
     <use xlink:href="#DejaVuSans-79" x="60.302734"/>
     <use xlink:href="#DejaVuSans-74" x="119.482422"/>
     <use xlink:href="#DejaVuSans-68" x="158.691406"/>
     <use xlink:href="#DejaVuSans-6f" x="222.070312"/>
     <use xlink:href="#DejaVuSans-6e" x="283.251953"/>
     <use xlink:href="#DejaVuSans-20" x="346.630859"/>
     <use xlink:href="#DejaVuSans-76" x="378.417969"/>
     <use xlink:href="#DejaVuSans-65" x="437.597656"/>
     <use xlink:href="#DejaVuSans-72" x="499.121094"/>
     <use xlink:href="#DejaVuSans-73" x="540.234375"/>
     <use xlink:href="#DejaVuSans-69" x="592.333984"/>
     <use xlink:href="#DejaVuSans-6f" x="620.117188"/>
     <use xlink:href="#DejaVuSans-6e" x="681.298828"/>
    </g>
   </g>
   <g id="Line3DCollection_1">
    <path d="M 43.035183 267.554809 
L 169.064986 165.769598 
L 165.766665 14.648515 
" style="fill: none; stroke: #b0b0b0; stroke-width: 0.8"/>
    <path d="M 61.306233 273.29375 
L 186.68151 170.87938 
L 183.885061 19.440874 
" style="fill: none; stroke: #b0b0b0; stroke-width: 0.8"/>
    <path d="M 79.693693 279.069256 
L 204.403915 176.019875 
L 202.115529 24.262876 
" style="fill: none; stroke: #b0b0b0; stroke-width: 0.8"/>
    <path d="M 98.198681 284.881677 
L 222.233159 181.191358 
L 220.459114 29.114798 
" style="fill: none; stroke: #b0b0b0; stroke-width: 0.8"/>
    <path d="M 116.822327 290.731369 
L 240.170211 186.394112 
L 238.91687 33.996919 
" style="fill: none; stroke: #b0b0b0; stroke-width: 0.8"/>
    <path d="M 135.565775 296.618691 
L 258.216052 191.628421 
L 257.489868 38.909521 
" style="fill: none; stroke: #b0b0b0; stroke-width: 0.8"/>
    <path d="M 154.430185 302.544007 
L 276.371673 196.894572 
L 276.17919 43.852891 
" style="fill: none; stroke: #b0b0b0; stroke-width: 0.8"/>
    <path d="M 173.416732 308.507686 
L 294.638081 202.192858 
L 294.985931 48.827319 
" style="fill: none; stroke: #b0b0b0; stroke-width: 0.8"/>
    <path d="M 192.526607 314.510102 
L 313.016293 207.523573 
L 313.911203 53.833099 
" style="fill: none; stroke: #b0b0b0; stroke-width: 0.8"/>
    <path d="M 211.761014 320.551634 
L 331.507337 212.887016 
L 332.956128 58.870527 
" style="fill: none; stroke: #b0b0b0; stroke-width: 0.8"/>
    <path d="M 231.121174 326.632665 
L 350.112257 218.283489 
L 352.121847 63.939905 
" style="fill: none; stroke: #b0b0b0; stroke-width: 0.8"/>
    <path d="M 250.608326 332.753584 
L 368.832106 223.713298 
L 371.409511 69.041538 
" style="fill: none; stroke: #b0b0b0; stroke-width: 0.8"/>
    <path d="M 270.223723 338.914785 
L 387.667955 229.176754 
L 390.820288 74.175735 
" style="fill: none; stroke: #b0b0b0; stroke-width: 0.8"/>
    <path d="M 289.968635 345.116667 
L 406.620884 234.674169 
L 410.35536 79.342808 
" style="fill: none; stroke: #b0b0b0; stroke-width: 0.8"/>
    <path d="M 309.844348 351.359634 
L 425.691988 240.205862 
L 430.015926 84.543075 
" style="fill: none; stroke: #b0b0b0; stroke-width: 0.8"/>
    <path d="M 329.852167 357.644095 
L 444.882376 245.772154 
L 449.803197 89.776855 
" style="fill: none; stroke: #b0b0b0; stroke-width: 0.8"/>
    <path d="M 349.993414 363.970465 
L 464.19317 251.37337 
L 469.718405 95.044475 
" style="fill: none; stroke: #b0b0b0; stroke-width: 0.8"/>
    <path d="M 370.269428 370.339166 
L 483.625508 257.009841 
L 489.762792 100.346264 
" style="fill: none; stroke: #b0b0b0; stroke-width: 0.8"/>
    <path d="M 390.681565 376.750623 
L 503.18054 262.6819 
L 509.93762 105.682554 
" style="fill: none; stroke: #b0b0b0; stroke-width: 0.8"/>
    <path d="M 411.231201 383.205269 
L 522.859433 268.389886 
L 530.244166 111.053684 
" style="fill: none; stroke: #b0b0b0; stroke-width: 0.8"/>
   </g>
   <g id="xtick_1">
    <g id="line2d_2">
     <path d="M 44.103086 266.692341 
L 40.896315 269.282219 
" style="fill: none; stroke: #000000; stroke-width: 0.8; stroke-linecap: square"/>
    </g>
    <g id="text_2">
     <!-- 2.0 -->
     <g transform="translate(30.043759 285.538624) scale(0.1 -0.1)">
      <defs>
       <path id="DejaVuSans-32" d="M 1228 531 
L 3431 531 
L 3431 0 
L 469 0 
L 469 531 
Q 828 903 1448 1529 
Q 2069 2156 2228 2338 
Q 2531 2678 2651 2914 
Q 2772 3150 2772 3378 
Q 2772 3750 2511 3984 
Q 2250 4219 1831 4219 
Q 1534 4219 1204 4116 
Q 875 4013 500 3803 
L 500 4441 
Q 881 4594 1212 4672 
Q 1544 4750 1819 4750 
Q 2544 4750 2975 4387 
Q 3406 4025 3406 3419 
Q 3406 3131 3298 2873 
Q 3191 2616 2906 2266 
Q 2828 2175 2409 1742 
Q 1991 1309 1228 531 
z
" transform="scale(0.015625)"/>
       <path id="DejaVuSans-2e" d="M 684 794 
L 1344 794 
L 1344 0 
L 684 0 
L 684 794 
z
" transform="scale(0.015625)"/>
       <path id="DejaVuSans-30" d="M 2034 4250 
Q 1547 4250 1301 3770 
Q 1056 3291 1056 2328 
Q 1056 1369 1301 889 
Q 1547 409 2034 409 
Q 2525 409 2770 889 
Q 3016 1369 3016 2328 
Q 3016 3291 2770 3770 
Q 2525 4250 2034 4250 
z
M 2034 4750 
Q 2819 4750 3233 4129 
Q 3647 3509 3647 2328 
Q 3647 1150 3233 529 
Q 2819 -91 2034 -91 
Q 1250 -91 836 529 
Q 422 1150 422 2328 
Q 422 3509 836 4129 
Q 1250 4750 2034 4750 
z
" transform="scale(0.015625)"/>
      </defs>
      <use xlink:href="#DejaVuSans-32"/>
      <use xlink:href="#DejaVuSans-2e" x="63.623047"/>
      <use xlink:href="#DejaVuSans-30" x="95.410156"/>
     </g>
    </g>
   </g>
   <g id="xtick_2">
    <g id="line2d_3">
     <path d="M 62.368778 272.425797 
L 59.178086 275.032154 
" style="fill: none; stroke: #000000; stroke-width: 0.8; stroke-linecap: square"/>
    </g>
    <g id="text_3">
     <!-- 2.1 -->
     <g transform="translate(48.320595 291.317434) scale(0.1 -0.1)">
      <defs>
       <path id="DejaVuSans-31" d="M 794 531 
L 1825 531 
L 1825 4091 
L 703 3866 
L 703 4441 
L 1819 4666 
L 2450 4666 
L 2450 531 
L 3481 531 
L 3481 0 
L 794 0 
L 794 531 
z
" transform="scale(0.015625)"/>
      </defs>
      <use xlink:href="#DejaVuSans-32"/>
      <use xlink:href="#DejaVuSans-2e" x="63.623047"/>
      <use xlink:href="#DejaVuSans-31" x="95.410156"/>
     </g>
    </g>
   </g>
   <g id="xtick_3">
    <g id="line2d_4">
     <path d="M 80.750791 278.195765 
L 77.576448 280.818759 
" style="fill: none; stroke: #000000; stroke-width: 0.8; stroke-linecap: square"/>
    </g>
    <g id="text_4">
     <!-- 2.2 -->
     <g transform="translate(66.714018 297.133107) scale(0.1 -0.1)">
      <use xlink:href="#DejaVuSans-32"/>
      <use xlink:href="#DejaVuSans-2e" x="63.623047"/>
      <use xlink:href="#DejaVuSans-32" x="95.410156"/>
     </g>
    </g>
   </g>
   <g id="xtick_4">
    <g id="line2d_5">
     <path d="M 99.25024 284.002596 
L 96.09252 286.642386 
" style="fill: none; stroke: #000000; stroke-width: 0.8; stroke-linecap: square"/>
    </g>
    <g id="text_5">
     <!-- 2.3 -->
     <g transform="translate(85.225148 302.985997) scale(0.1 -0.1)">
      <defs>
       <path id="DejaVuSans-33" d="M 2597 2516 
Q 3050 2419 3304 2112 
Q 3559 1806 3559 1356 
Q 3559 666 3084 287 
Q 2609 -91 1734 -91 
Q 1441 -91 1130 -33 
Q 819 25 488 141 
L 488 750 
Q 750 597 1062 519 
Q 1375 441 1716 441 
Q 2309 441 2620 675 
Q 2931 909 2931 1356 
Q 2931 1769 2642 2001 
Q 2353 2234 1838 2234 
L 1294 2234 
L 1294 2753 
L 1863 2753 
Q 2328 2753 2575 2939 
Q 2822 3125 2822 3475 
Q 2822 3834 2567 4026 
Q 2313 4219 1838 4219 
Q 1578 4219 1281 4162 
Q 984 4106 628 3988 
L 628 4550 
Q 988 4650 1302 4700 
Q 1616 4750 1894 4750 
Q 2613 4750 3031 4423 
Q 3450 4097 3450 3541 
Q 3450 3153 3228 2886 
Q 3006 2619 2597 2516 
z
" transform="scale(0.015625)"/>
      </defs>
      <use xlink:href="#DejaVuSans-32"/>
      <use xlink:href="#DejaVuSans-2e" x="63.623047"/>
      <use xlink:href="#DejaVuSans-33" x="95.410156"/>
     </g>
    </g>
   </g>
   <g id="xtick_5">
    <g id="line2d_6">
     <path d="M 117.868253 289.846643 
L 114.727436 292.503391 
" style="fill: none; stroke: #000000; stroke-width: 0.8; stroke-linecap: square"/>
    </g>
    <g id="text_6">
     <!-- 2.4 -->
     <g transform="translate(103.855118 308.876462) scale(0.1 -0.1)">
      <defs>
       <path id="DejaVuSans-34" d="M 2419 4116 
L 825 1625 
L 2419 1625 
L 2419 4116 
z
M 2253 4666 
L 3047 4666 
L 3047 1625 
L 3713 1625 
L 3713 1100 
L 3047 1100 
L 3047 0 
L 2419 0 
L 2419 1100 
L 313 1100 
L 313 1709 
L 2253 4666 
z
" transform="scale(0.015625)"/>
      </defs>
      <use xlink:href="#DejaVuSans-32"/>
      <use xlink:href="#DejaVuSans-2e" x="63.623047"/>
      <use xlink:href="#DejaVuSans-34" x="95.410156"/>
     </g>
    </g>
   </g>
   <g id="xtick_6">
    <g id="line2d_7">
     <path d="M 136.605975 295.728265 
L 133.482344 298.402135 
" style="fill: none; stroke: #000000; stroke-width: 0.8; stroke-linecap: square"/>
    </g>
    <g id="text_7">
     <!-- 2.5 -->
     <g transform="translate(122.605076 314.804865) scale(0.1 -0.1)">
      <defs>
       <path id="DejaVuSans-35" d="M 691 4666 
L 3169 4666 
L 3169 4134 
L 1269 4134 
L 1269 2991 
Q 1406 3038 1543 3061 
Q 1681 3084 1819 3084 
Q 2600 3084 3056 2656 
Q 3513 2228 3513 1497 
Q 3513 744 3044 326 
Q 2575 -91 1722 -91 
Q 1428 -91 1123 -41 
Q 819 9 494 109 
L 494 744 
Q 775 591 1075 516 
Q 1375 441 1709 441 
Q 2250 441 2565 725 
Q 2881 1009 2881 1497 
Q 2881 1984 2565 2268 
Q 2250 2553 1709 2553 
Q 1456 2553 1204 2497 
Q 953 2441 691 2322 
L 691 4666 
z
" transform="scale(0.015625)"/>
      </defs>
      <use xlink:href="#DejaVuSans-32"/>
      <use xlink:href="#DejaVuSans-2e" x="63.623047"/>
      <use xlink:href="#DejaVuSans-35" x="95.410156"/>
     </g>
    </g>
   </g>
   <g id="xtick_7">
    <g id="line2d_8">
     <path d="M 155.464563 301.647827 
L 152.358405 304.338985 
" style="fill: none; stroke: #000000; stroke-width: 0.8; stroke-linecap: square"/>
    </g>
    <g id="text_8">
     <!-- 2.6 -->
     <g transform="translate(141.476185 320.771574) scale(0.1 -0.1)">
      <defs>
       <path id="DejaVuSans-36" d="M 2113 2584 
Q 1688 2584 1439 2293 
Q 1191 2003 1191 1497 
Q 1191 994 1439 701 
Q 1688 409 2113 409 
Q 2538 409 2786 701 
Q 3034 994 3034 1497 
Q 3034 2003 2786 2293 
Q 2538 2584 2113 2584 
z
M 3366 4563 
L 3366 3988 
Q 3128 4100 2886 4159 
Q 2644 4219 2406 4219 
Q 1781 4219 1451 3797 
Q 1122 3375 1075 2522 
Q 1259 2794 1537 2939 
Q 1816 3084 2150 3084 
Q 2853 3084 3261 2657 
Q 3669 2231 3669 1497 
Q 3669 778 3244 343 
Q 2819 -91 2113 -91 
Q 1303 -91 875 529 
Q 447 1150 447 2328 
Q 447 3434 972 4092 
Q 1497 4750 2381 4750 
Q 2619 4750 2861 4703 
Q 3103 4656 3366 4563 
z
" transform="scale(0.015625)"/>
      </defs>
      <use xlink:href="#DejaVuSans-32"/>
      <use xlink:href="#DejaVuSans-2e" x="63.623047"/>
      <use xlink:href="#DejaVuSans-36" x="95.410156"/>
     </g>
    </g>
   </g>
   <g id="xtick_8">
    <g id="line2d_9">
     <path d="M 174.445191 307.605696 
L 171.356799 310.31431 
" style="fill: none; stroke: #000000; stroke-width: 0.8; stroke-linecap: square"/>
    </g>
    <g id="text_9">
     <!-- 2.7 -->
     <g transform="translate(160.469624 326.776961) scale(0.1 -0.1)">
      <defs>
       <path id="DejaVuSans-37" d="M 525 4666 
L 3525 4666 
L 3525 4397 
L 1831 0 
L 1172 0 
L 2766 4134 
L 525 4134 
L 525 4666 
z
" transform="scale(0.015625)"/>
      </defs>
      <use xlink:href="#DejaVuSans-32"/>
      <use xlink:href="#DejaVuSans-2e" x="63.623047"/>
      <use xlink:href="#DejaVuSans-37" x="95.410156"/>
     </g>
    </g>
   </g>
   <g id="xtick_9">
    <g id="line2d_10">
     <path d="M 193.549047 313.602245 
L 190.478717 316.328486 
" style="fill: none; stroke: #000000; stroke-width: 0.8; stroke-linecap: square"/>
    </g>
    <g id="text_10">
     <!-- 3.0 -->
     <g transform="translate(179.586584 332.821404) scale(0.1 -0.1)">
      <use xlink:href="#DejaVuSans-33"/>
      <use xlink:href="#DejaVuSans-2e" x="63.623047"/>
      <use xlink:href="#DejaVuSans-30" x="95.410156"/>
     </g>
    </g>
   </g>
   <g id="xtick_10">
    <g id="line2d_11">
     <path d="M 212.777336 319.637853 
L 209.72537 322.381893 
" style="fill: none; stroke: #000000; stroke-width: 0.8; stroke-linecap: square"/>
    </g>
    <g id="text_11">
     <!-- 3.1 -->
     <g transform="translate(198.828276 338.905285) scale(0.1 -0.1)">
      <use xlink:href="#DejaVuSans-33"/>
      <use xlink:href="#DejaVuSans-2e" x="63.623047"/>
      <use xlink:href="#DejaVuSans-31" x="95.410156"/>
     </g>
    </g>
   </g>
   <g id="xtick_11">
    <g id="line2d_12">
     <path d="M 232.131276 325.712902 
L 229.09798 328.474916 
" style="fill: none; stroke: #000000; stroke-width: 0.8; stroke-linecap: square"/>
    </g>
    <g id="text_12">
     <!-- 3.2 -->
     <g transform="translate(218.195924 345.028991) scale(0.1 -0.1)">
      <use xlink:href="#DejaVuSans-33"/>
      <use xlink:href="#DejaVuSans-2e" x="63.623047"/>
      <use xlink:href="#DejaVuSans-32" x="95.410156"/>
     </g>
    </g>
   </g>
   <g id="xtick_12">
    <g id="line2d_13">
     <path d="M 251.612104 331.827779 
L 248.597789 334.607945 
" style="fill: none; stroke: #000000; stroke-width: 0.8; stroke-linecap: square"/>
    </g>
    <g id="text_13">
     <!-- 3.3 -->
     <g transform="translate(237.690769 351.192914) scale(0.1 -0.1)">
      <use xlink:href="#DejaVuSans-33"/>
      <use xlink:href="#DejaVuSans-2e" x="63.623047"/>
      <use xlink:href="#DejaVuSans-33" x="95.410156"/>
     </g>
    </g>
   </g>
   <g id="xtick_13">
    <g id="line2d_14">
     <path d="M 271.221071 337.982879 
L 268.226054 340.781376 
" style="fill: none; stroke: #000000; stroke-width: 0.8; stroke-linecap: square"/>
    </g>
    <g id="text_14">
     <!-- 3.4 -->
     <g transform="translate(257.314068 357.397452) scale(0.1 -0.1)">
      <use xlink:href="#DejaVuSans-33"/>
      <use xlink:href="#DejaVuSans-2e" x="63.623047"/>
      <use xlink:href="#DejaVuSans-34" x="95.410156"/>
     </g>
    </g>
   </g>
   <g id="xtick_14">
    <g id="line2d_15">
     <path d="M 290.959447 344.178599 
L 287.984047 346.995609 
" style="fill: none; stroke: #000000; stroke-width: 0.8; stroke-linecap: square"/>
    </g>
    <g id="text_15">
     <!-- 3.5 -->
     <g transform="translate(277.067095 363.643007) scale(0.1 -0.1)">
      <use xlink:href="#DejaVuSans-33"/>
      <use xlink:href="#DejaVuSans-2e" x="63.623047"/>
      <use xlink:href="#DejaVuSans-35" x="95.410156"/>
     </g>
    </g>
   </g>
   <g id="xtick_15">
    <g id="line2d_16">
     <path d="M 310.828515 350.415342 
L 307.873061 353.251049 
" style="fill: none; stroke: #000000; stroke-width: 0.8; stroke-linecap: square"/>
    </g>
    <g id="text_16">
     <!-- 3.6 -->
     <g transform="translate(296.951141 369.929989) scale(0.1 -0.1)">
      <use xlink:href="#DejaVuSans-33"/>
      <use xlink:href="#DejaVuSans-2e" x="63.623047"/>
      <use xlink:href="#DejaVuSans-36" x="95.410156"/>
     </g>
    </g>
   </g>
   <g id="xtick_16">
    <g id="line2d_17">
     <path d="M 330.82958 356.693518 
L 327.894401 359.548109 
" style="fill: none; stroke: #000000; stroke-width: 0.8; stroke-linecap: square"/>
    </g>
    <g id="text_17">
     <!-- 3.7 -->
     <g transform="translate(316.967513 376.258809) scale(0.1 -0.1)">
      <use xlink:href="#DejaVuSans-33"/>
      <use xlink:href="#DejaVuSans-2e" x="63.623047"/>
      <use xlink:href="#DejaVuSans-37" x="95.410156"/>
     </g>
    </g>
   </g>
   <g id="xtick_17">
    <g id="line2d_18">
     <path d="M 350.963959 363.013541 
L 348.049393 365.887204 
" style="fill: none; stroke: #000000; stroke-width: 0.8; stroke-linecap: square"/>
    </g>
    <g id="text_18">
     <!-- 3.8 -->
     <g transform="translate(337.117536 382.629888) scale(0.1 -0.1)">
      <defs>
       <path id="DejaVuSans-38" d="M 2034 2216 
Q 1584 2216 1326 1975 
Q 1069 1734 1069 1313 
Q 1069 891 1326 650 
Q 1584 409 2034 409 
Q 2484 409 2743 651 
Q 3003 894 3003 1313 
Q 3003 1734 2745 1975 
Q 2488 2216 2034 2216 
z
M 1403 2484 
Q 997 2584 770 2862 
Q 544 3141 544 3541 
Q 544 4100 942 4425 
Q 1341 4750 2034 4750 
Q 2731 4750 3128 4425 
Q 3525 4100 3525 3541 
Q 3525 3141 3298 2862 
Q 3072 2584 2669 2484 
Q 3125 2378 3379 2068 
Q 3634 1759 3634 1313 
Q 3634 634 3220 271 
Q 2806 -91 2034 -91 
Q 1263 -91 848 271 
Q 434 634 434 1313 
Q 434 1759 690 2068 
Q 947 2378 1403 2484 
z
M 1172 3481 
Q 1172 3119 1398 2916 
Q 1625 2713 2034 2713 
Q 2441 2713 2670 2916 
Q 2900 3119 2900 3481 
Q 2900 3844 2670 4047 
Q 2441 4250 2034 4250 
Q 1625 4250 1398 4047 
Q 1172 3844 1172 3481 
z
" transform="scale(0.015625)"/>
      </defs>
      <use xlink:href="#DejaVuSans-33"/>
      <use xlink:href="#DejaVuSans-2e" x="63.623047"/>
      <use xlink:href="#DejaVuSans-38" x="95.410156"/>
     </g>
    </g>
   </g>
   <g id="xtick_18">
    <g id="line2d_19">
     <path d="M 371.232991 369.37583 
L 368.33938 372.268758 
" style="fill: none; stroke: #000000; stroke-width: 0.8; stroke-linecap: square"/>
    </g>
    <g id="text_19">
     <!-- 3.9 -->
     <g transform="translate(357.402555 389.04365) scale(0.1 -0.1)">
      <defs>
       <path id="DejaVuSans-39" d="M 703 97 
L 703 672 
Q 941 559 1184 500 
Q 1428 441 1663 441 
Q 2288 441 2617 861 
Q 2947 1281 2994 2138 
Q 2813 1869 2534 1725 
Q 2256 1581 1919 1581 
Q 1219 1581 811 2004 
Q 403 2428 403 3163 
Q 403 3881 828 4315 
Q 1253 4750 1959 4750 
Q 2769 4750 3195 4129 
Q 3622 3509 3622 2328 
Q 3622 1225 3098 567 
Q 2575 -91 1691 -91 
Q 1453 -91 1209 -44 
Q 966 3 703 97 
z
M 1959 2075 
Q 2384 2075 2632 2365 
Q 2881 2656 2881 3163 
Q 2881 3666 2632 3958 
Q 2384 4250 1959 4250 
Q 1534 4250 1286 3958 
Q 1038 3666 1038 3163 
Q 1038 2656 1286 2365 
Q 1534 2075 1959 2075 
z
" transform="scale(0.015625)"/>
      </defs>
      <use xlink:href="#DejaVuSans-33"/>
      <use xlink:href="#DejaVuSans-2e" x="63.623047"/>
      <use xlink:href="#DejaVuSans-39" x="95.410156"/>
     </g>
    </g>
   </g>
   <g id="xtick_19">
    <g id="line2d_20">
     <path d="M 391.638032 375.78081 
L 388.765722 378.693198 
" style="fill: none; stroke: #000000; stroke-width: 0.8; stroke-linecap: square"/>
    </g>
    <g id="text_20">
     <!-- 3.10 -->
     <g transform="translate(374.642679 395.500526) scale(0.1 -0.1)">
      <use xlink:href="#DejaVuSans-33"/>
      <use xlink:href="#DejaVuSans-2e" x="63.623047"/>
      <use xlink:href="#DejaVuSans-31" x="95.410156"/>
      <use xlink:href="#DejaVuSans-30" x="159.033203"/>
     </g>
    </g>
   </g>
   <g id="xtick_20">
    <g id="line2d_21">
     <path d="M 412.180454 382.228914 
L 409.3298 385.160958 
" style="fill: none; stroke: #000000; stroke-width: 0.8; stroke-linecap: square"/>
    </g>
    <g id="text_21">
     <!-- 3.11 -->
     <g transform="translate(395.20179 402.00095) scale(0.1 -0.1)">
      <use xlink:href="#DejaVuSans-33"/>
      <use xlink:href="#DejaVuSans-2e" x="63.623047"/>
      <use xlink:href="#DejaVuSans-31" x="95.410156"/>
      <use xlink:href="#DejaVuSans-31" x="159.033203"/>
     </g>
    </g>
   </g>
  </g>
  <g id="axis3d_2">
   <g id="line2d_22">
    <path d="M 550.329769 276.357828 
L 439.930816 392.219825 
" style="fill: none; stroke: #000000; stroke-width: 0.8; stroke-linecap: square"/>
   </g>
   <g id="text_22">
    <!-- Release date -->
    <g transform="translate(510.342058 388.10359) rotate(-46.383131) scale(0.12 -0.12)">
     <defs>
      <path id="DejaVuSans-52" d="M 2841 2188 
Q 3044 2119 3236 1894 
Q 3428 1669 3622 1275 
L 4263 0 
L 3584 0 
L 2988 1197 
Q 2756 1666 2539 1819 
Q 2322 1972 1947 1972 
L 1259 1972 
L 1259 0 
L 628 0 
L 628 4666 
L 2053 4666 
Q 2853 4666 3247 4331 
Q 3641 3997 3641 3322 
Q 3641 2881 3436 2590 
Q 3231 2300 2841 2188 
z
M 1259 4147 
L 1259 2491 
L 2053 2491 
Q 2509 2491 2742 2702 
Q 2975 2913 2975 3322 
Q 2975 3731 2742 3939 
Q 2509 4147 2053 4147 
L 1259 4147 
z
" transform="scale(0.015625)"/>
      <path id="DejaVuSans-6c" d="M 603 4863 
L 1178 4863 
L 1178 0 
L 603 0 
L 603 4863 
z
" transform="scale(0.015625)"/>
      <path id="DejaVuSans-61" d="M 2194 1759 
Q 1497 1759 1228 1600 
Q 959 1441 959 1056 
Q 959 750 1161 570 
Q 1363 391 1709 391 
Q 2188 391 2477 730 
Q 2766 1069 2766 1631 
L 2766 1759 
L 2194 1759 
z
M 3341 1997 
L 3341 0 
L 2766 0 
L 2766 531 
Q 2569 213 2275 61 
Q 1981 -91 1556 -91 
Q 1019 -91 701 211 
Q 384 513 384 1019 
Q 384 1609 779 1909 
Q 1175 2209 1959 2209 
L 2766 2209 
L 2766 2266 
Q 2766 2663 2505 2880 
Q 2244 3097 1772 3097 
Q 1472 3097 1187 3025 
Q 903 2953 641 2809 
L 641 3341 
Q 956 3463 1253 3523 
Q 1550 3584 1831 3584 
Q 2591 3584 2966 3190 
Q 3341 2797 3341 1997 
z
" transform="scale(0.015625)"/>
      <path id="DejaVuSans-64" d="M 2906 2969 
L 2906 4863 
L 3481 4863 
L 3481 0 
L 2906 0 
L 2906 525 
Q 2725 213 2448 61 
Q 2172 -91 1784 -91 
Q 1150 -91 751 415 
Q 353 922 353 1747 
Q 353 2572 751 3078 
Q 1150 3584 1784 3584 
Q 2172 3584 2448 3432 
Q 2725 3281 2906 2969 
z
M 947 1747 
Q 947 1113 1208 752 
Q 1469 391 1925 391 
Q 2381 391 2643 752 
Q 2906 1113 2906 1747 
Q 2906 2381 2643 2742 
Q 2381 3103 1925 3103 
Q 1469 3103 1208 2742 
Q 947 2381 947 1747 
z
" transform="scale(0.015625)"/>
     </defs>
     <use xlink:href="#DejaVuSans-52"/>
     <use xlink:href="#DejaVuSans-65" x="64.982422"/>
     <use xlink:href="#DejaVuSans-6c" x="126.505859"/>
     <use xlink:href="#DejaVuSans-65" x="154.289062"/>
     <use xlink:href="#DejaVuSans-61" x="215.8125"/>
     <use xlink:href="#DejaVuSans-73" x="277.091797"/>
     <use xlink:href="#DejaVuSans-65" x="329.191406"/>
     <use xlink:href="#DejaVuSans-20" x="390.714844"/>
     <use xlink:href="#DejaVuSans-64" x="422.501953"/>
     <use xlink:href="#DejaVuSans-61" x="485.978516"/>
     <use xlink:href="#DejaVuSans-74" x="547.257812"/>
     <use xlink:href="#DejaVuSans-65" x="586.466797"/>
    </g>
   </g>
   <g id="Line3DCollection_2">
    <path d="M 37.726778 82.643119 
L 44.923937 238.184938 
L 463.502678 367.48152 
" style="fill: none; stroke: #b0b0b0; stroke-width: 0.8"/>
    <path d="M 62.713053 64.571111 
L 69.106794 218.955353 
L 484.571007 345.370634 
" style="fill: none; stroke: #b0b0b0; stroke-width: 0.8"/>
    <path d="M 87.148784 46.897299 
L 92.772116 200.137299 
L 505.156417 323.766564 
" style="fill: none; stroke: #b0b0b0; stroke-width: 0.8"/>
    <path d="M 111.030397 29.624269 
L 115.915431 181.734331 
L 525.257174 302.67113 
" style="fill: none; stroke: #b0b0b0; stroke-width: 0.8"/>
    <path d="M 134.418719 12.708024 
L 138.594745 163.700325 
L 544.925661 282.029357 
" style="fill: none; stroke: #b0b0b0; stroke-width: 0.8"/>
   </g>
   <g id="xtick_21">
    <g id="line2d_23">
     <path d="M 459.912604 366.372567 
L 470.695373 369.703303 
" style="fill: none; stroke: #000000; stroke-width: 0.8; stroke-linecap: square"/>
    </g>
    <g id="text_23">
     <!-- 2011 -->
     <g transform="translate(468.463262 386.911378) scale(0.1 -0.1)">
      <use xlink:href="#DejaVuSans-32"/>
      <use xlink:href="#DejaVuSans-30" x="63.623047"/>
      <use xlink:href="#DejaVuSans-31" x="127.246094"/>
      <use xlink:href="#DejaVuSans-31" x="190.869141"/>
     </g>
    </g>
   </g>
   <g id="xtick_22">
    <g id="line2d_24">
     <path d="M 481.010423 344.287237 
L 491.704476 347.541168 
" style="fill: none; stroke: #000000; stroke-width: 0.8; stroke-linecap: square"/>
    </g>
    <g id="text_24">
     <!-- 2014 -->
     <g transform="translate(489.360471 364.627149) scale(0.1 -0.1)">
      <use xlink:href="#DejaVuSans-32"/>
      <use xlink:href="#DejaVuSans-30" x="63.623047"/>
      <use xlink:href="#DejaVuSans-31" x="127.246094"/>
      <use xlink:href="#DejaVuSans-34" x="190.869141"/>
     </g>
    </g>
   </g>
   <g id="xtick_23">
    <g id="line2d_25">
     <path d="M 501.624921 322.707852 
L 512.231469 325.887603 
" style="fill: none; stroke: #000000; stroke-width: 0.8; stroke-linecap: square"/>
    </g>
    <g id="text_25">
     <!-- 2017 -->
     <g transform="translate(509.777913 342.854532) scale(0.1 -0.1)">
      <use xlink:href="#DejaVuSans-32"/>
      <use xlink:href="#DejaVuSans-30" x="63.623047"/>
      <use xlink:href="#DejaVuSans-31" x="127.246094"/>
      <use xlink:href="#DejaVuSans-37" x="190.869141"/>
     </g>
    </g>
   </g>
   <g id="xtick_24">
    <g id="line2d_26">
     <path d="M 521.754343 301.636246 
L 532.274661 304.744391 
" style="fill: none; stroke: #000000; stroke-width: 0.8; stroke-linecap: square"/>
    </g>
    <g id="text_26">
     <!-- 2020 -->
     <g transform="translate(529.713923 321.595302) scale(0.1 -0.1)">
      <use xlink:href="#DejaVuSans-32"/>
      <use xlink:href="#DejaVuSans-30" x="63.623047"/>
      <use xlink:href="#DejaVuSans-32" x="127.246094"/>
      <use xlink:href="#DejaVuSans-30" x="190.869141"/>
     </g>
    </g>
   </g>
   <g id="xtick_25">
    <g id="line2d_27">
     <path d="M 541.45113 281.017527 
L 551.886321 284.056395 
" style="fill: none; stroke: #000000; stroke-width: 0.8; stroke-linecap: square"/>
    </g>
    <g id="text_27">
     <!-- 2023 -->
     <g transform="translate(549.220503 300.794004) scale(0.1 -0.1)">
      <use xlink:href="#DejaVuSans-32"/>
      <use xlink:href="#DejaVuSans-30" x="63.623047"/>
      <use xlink:href="#DejaVuSans-32" x="127.246094"/>
      <use xlink:href="#DejaVuSans-33" x="190.869141"/>
     </g>
    </g>
   </g>
  </g>
  <g id="axis3d_3">
   <g id="line2d_28">
    <path d="M 550.329769 276.357828 
L 558.597262 118.553145 
" style="fill: none; stroke: #000000; stroke-width: 0.8; stroke-linecap: square"/>
   </g>
   <g id="text_28">
    <!-- Amount of version-specific features -->
    <g transform="translate(599.400538 306.779611) rotate(-87.000978) scale(0.12 -0.12)">
     <defs>
      <path id="DejaVuSans-41" d="M 2188 4044 
L 1331 1722 
L 3047 1722 
L 2188 4044 
z
M 1831 4666 
L 2547 4666 
L 4325 0 
L 3669 0 
L 3244 1197 
L 1141 1197 
L 716 0 
L 50 0 
L 1831 4666 
z
" transform="scale(0.015625)"/>
      <path id="DejaVuSans-6d" d="M 3328 2828 
Q 3544 3216 3844 3400 
Q 4144 3584 4550 3584 
Q 5097 3584 5394 3201 
Q 5691 2819 5691 2113 
L 5691 0 
L 5113 0 
L 5113 2094 
Q 5113 2597 4934 2840 
Q 4756 3084 4391 3084 
Q 3944 3084 3684 2787 
Q 3425 2491 3425 1978 
L 3425 0 
L 2847 0 
L 2847 2094 
Q 2847 2600 2669 2842 
Q 2491 3084 2119 3084 
Q 1678 3084 1418 2786 
Q 1159 2488 1159 1978 
L 1159 0 
L 581 0 
L 581 3500 
L 1159 3500 
L 1159 2956 
Q 1356 3278 1631 3431 
Q 1906 3584 2284 3584 
Q 2666 3584 2933 3390 
Q 3200 3197 3328 2828 
z
" transform="scale(0.015625)"/>
      <path id="DejaVuSans-75" d="M 544 1381 
L 544 3500 
L 1119 3500 
L 1119 1403 
Q 1119 906 1312 657 
Q 1506 409 1894 409 
Q 2359 409 2629 706 
Q 2900 1003 2900 1516 
L 2900 3500 
L 3475 3500 
L 3475 0 
L 2900 0 
L 2900 538 
Q 2691 219 2414 64 
Q 2138 -91 1772 -91 
Q 1169 -91 856 284 
Q 544 659 544 1381 
z
M 1991 3584 
L 1991 3584 
z
" transform="scale(0.015625)"/>
      <path id="DejaVuSans-66" d="M 2375 4863 
L 2375 4384 
L 1825 4384 
Q 1516 4384 1395 4259 
Q 1275 4134 1275 3809 
L 1275 3500 
L 2222 3500 
L 2222 3053 
L 1275 3053 
L 1275 0 
L 697 0 
L 697 3053 
L 147 3053 
L 147 3500 
L 697 3500 
L 697 3744 
Q 697 4328 969 4595 
Q 1241 4863 1831 4863 
L 2375 4863 
z
" transform="scale(0.015625)"/>
      <path id="DejaVuSans-2d" d="M 313 2009 
L 1997 2009 
L 1997 1497 
L 313 1497 
L 313 2009 
z
" transform="scale(0.015625)"/>
      <path id="DejaVuSans-70" d="M 1159 525 
L 1159 -1331 
L 581 -1331 
L 581 3500 
L 1159 3500 
L 1159 2969 
Q 1341 3281 1617 3432 
Q 1894 3584 2278 3584 
Q 2916 3584 3314 3078 
Q 3713 2572 3713 1747 
Q 3713 922 3314 415 
Q 2916 -91 2278 -91 
Q 1894 -91 1617 61 
Q 1341 213 1159 525 
z
M 3116 1747 
Q 3116 2381 2855 2742 
Q 2594 3103 2138 3103 
Q 1681 3103 1420 2742 
Q 1159 2381 1159 1747 
Q 1159 1113 1420 752 
Q 1681 391 2138 391 
Q 2594 391 2855 752 
Q 3116 1113 3116 1747 
z
" transform="scale(0.015625)"/>
      <path id="DejaVuSans-63" d="M 3122 3366 
L 3122 2828 
Q 2878 2963 2633 3030 
Q 2388 3097 2138 3097 
Q 1578 3097 1268 2742 
Q 959 2388 959 1747 
Q 959 1106 1268 751 
Q 1578 397 2138 397 
Q 2388 397 2633 464 
Q 2878 531 3122 666 
L 3122 134 
Q 2881 22 2623 -34 
Q 2366 -91 2075 -91 
Q 1284 -91 818 406 
Q 353 903 353 1747 
Q 353 2603 823 3093 
Q 1294 3584 2113 3584 
Q 2378 3584 2631 3529 
Q 2884 3475 3122 3366 
z
" transform="scale(0.015625)"/>
     </defs>
     <use xlink:href="#DejaVuSans-41"/>
     <use xlink:href="#DejaVuSans-6d" x="68.408203"/>
     <use xlink:href="#DejaVuSans-6f" x="165.820312"/>
     <use xlink:href="#DejaVuSans-75" x="227.001953"/>
     <use xlink:href="#DejaVuSans-6e" x="290.380859"/>
     <use xlink:href="#DejaVuSans-74" x="353.759766"/>
     <use xlink:href="#DejaVuSans-20" x="392.96875"/>
     <use xlink:href="#DejaVuSans-6f" x="424.755859"/>
     <use xlink:href="#DejaVuSans-66" x="485.9375"/>
     <use xlink:href="#DejaVuSans-20" x="521.142578"/>
     <use xlink:href="#DejaVuSans-76" x="552.929688"/>
     <use xlink:href="#DejaVuSans-65" x="612.109375"/>
     <use xlink:href="#DejaVuSans-72" x="673.632812"/>
     <use xlink:href="#DejaVuSans-73" x="714.746094"/>
     <use xlink:href="#DejaVuSans-69" x="766.845703"/>
     <use xlink:href="#DejaVuSans-6f" x="794.628906"/>
     <use xlink:href="#DejaVuSans-6e" x="855.810547"/>
     <use xlink:href="#DejaVuSans-2d" x="919.189453"/>
     <use xlink:href="#DejaVuSans-73" x="955.273438"/>
     <use xlink:href="#DejaVuSans-70" x="1007.373047"/>
     <use xlink:href="#DejaVuSans-65" x="1070.849609"/>
     <use xlink:href="#DejaVuSans-63" x="1132.373047"/>
     <use xlink:href="#DejaVuSans-69" x="1187.353516"/>
     <use xlink:href="#DejaVuSans-66" x="1215.136719"/>
     <use xlink:href="#DejaVuSans-69" x="1250.341797"/>
     <use xlink:href="#DejaVuSans-63" x="1278.125"/>
     <use xlink:href="#DejaVuSans-20" x="1333.105469"/>
     <use xlink:href="#DejaVuSans-66" x="1364.892578"/>
     <use xlink:href="#DejaVuSans-65" x="1400.097656"/>
     <use xlink:href="#DejaVuSans-61" x="1461.621094"/>
     <use xlink:href="#DejaVuSans-74" x="1522.900391"/>
     <use xlink:href="#DejaVuSans-75" x="1562.109375"/>
     <use xlink:href="#DejaVuSans-72" x="1625.488281"/>
     <use xlink:href="#DejaVuSans-65" x="1664.351562"/>
     <use xlink:href="#DejaVuSans-73" x="1725.875"/>
    </g>
   </g>
   <g id="Line3DCollection_3">
    <path d="M 550.490257 273.294538 
L 144.754476 155.809867 
L 17.754922 256.61872 
" style="fill: none; stroke: #b0b0b0; stroke-width: 0.8"/>
    <path d="M 552.040797 243.698809 
L 144.006218 127.506018 
L 16.232856 227.201047 
" style="fill: none; stroke: #b0b0b0; stroke-width: 0.8"/>
    <path d="M 553.60941 213.758109 
L 143.24981 98.893868 
L 14.693213 197.443669 
" style="fill: none; stroke: #b0b0b0; stroke-width: 0.8"/>
    <path d="M 555.196415 183.466371 
L 142.485118 69.968352 
L 13.135688 167.340668 
" style="fill: none; stroke: #b0b0b0; stroke-width: 0.8"/>
    <path d="M 556.802136 152.817385 
L 141.712004 40.724295 
L 11.559967 136.885987 
" style="fill: none; stroke: #b0b0b0; stroke-width: 0.8"/>
    <path d="M 558.426906 121.804795 
L 140.93033 11.156405 
L 9.96573 106.073427 
" style="fill: none; stroke: #b0b0b0; stroke-width: 0.8"/>
   </g>
   <g id="xtick_26">
    <g id="line2d_29">
     <path d="M 547.021377 272.290091 
L 557.439567 275.306778 
" style="fill: none; stroke: #000000; stroke-width: 0.8; stroke-linecap: square"/>
    </g>
    <g id="text_29">
     <!-- 0.0 -->
     <g transform="translate(563.960749 281.563535) scale(0.1 -0.1)">
      <use xlink:href="#DejaVuSans-30"/>
      <use xlink:href="#DejaVuSans-2e" x="63.623047"/>
      <use xlink:href="#DejaVuSans-30" x="95.410156"/>
     </g>
    </g>
   </g>
   <g id="xtick_27">
    <g id="line2d_30">
     <path d="M 548.550964 242.705037 
L 559.03215 245.689681 
" style="fill: none; stroke: #000000; stroke-width: 0.8; stroke-linecap: square"/>
    </g>
    <g id="text_30">
     <!-- 0.2 -->
     <g transform="translate(565.636037 251.960682) scale(0.1 -0.1)">
      <use xlink:href="#DejaVuSans-30"/>
      <use xlink:href="#DejaVuSans-2e" x="63.623047"/>
      <use xlink:href="#DejaVuSans-32" x="95.410156"/>
     </g>
    </g>
   </g>
   <g id="xtick_28">
    <g id="line2d_31">
     <path d="M 550.098371 212.77533 
L 560.643316 215.726978 
" style="fill: none; stroke: #000000; stroke-width: 0.8; stroke-linecap: square"/>
    </g>
    <g id="text_31">
     <!-- 0.4 -->
     <g transform="translate(567.33086 222.012647) scale(0.1 -0.1)">
      <use xlink:href="#DejaVuSans-30"/>
      <use xlink:href="#DejaVuSans-2e" x="63.623047"/>
      <use xlink:href="#DejaVuSans-34" x="95.410156"/>
     </g>
    </g>
   </g>
   <g id="xtick_29">
    <g id="line2d_32">
     <path d="M 551.66391 182.494911 
L 562.273394 185.412582 
" style="fill: none; stroke: #000000; stroke-width: 0.8; stroke-linecap: square"/>
    </g>
    <g id="text_32">
     <!-- 0.6 -->
     <g transform="translate(569.045562 191.713355) scale(0.1 -0.1)">
      <use xlink:href="#DejaVuSans-30"/>
      <use xlink:href="#DejaVuSans-2e" x="63.623047"/>
      <use xlink:href="#DejaVuSans-36" x="95.410156"/>
     </g>
    </g>
   </g>
   <g id="xtick_30">
    <g id="line2d_33">
     <path d="M 553.247901 151.857582 
L 563.922718 154.740264 
" style="fill: none; stroke: #000000; stroke-width: 0.8; stroke-linecap: square"/>
    </g>
    <g id="text_33">
     <!-- 0.8 -->
     <g transform="translate(570.780493 161.056592) scale(0.1 -0.1)">
      <use xlink:href="#DejaVuSans-30"/>
      <use xlink:href="#DejaVuSans-2e" x="63.623047"/>
      <use xlink:href="#DejaVuSans-38" x="95.410156"/>
     </g>
    </g>
   </g>
   <g id="xtick_31">
    <g id="line2d_34">
     <path d="M 554.850674 120.856993 
L 565.591631 123.70365 
" style="fill: none; stroke: #000000; stroke-width: 0.8; stroke-linecap: square"/>
    </g>
    <g id="text_34">
     <!-- 1.0 -->
     <g transform="translate(572.536015 130.035993) scale(0.1 -0.1)">
      <use xlink:href="#DejaVuSans-31"/>
      <use xlink:href="#DejaVuSans-2e" x="63.623047"/>
      <use xlink:href="#DejaVuSans-30" x="95.410156"/>
     </g>
    </g>
   </g>
  </g>
  <g id="axes_1">
   <g id="line2d_35">
    <path d="M 162.557522 292.355417 
L 195.305457 286.186935 
L 201.940066 303.012427 
L 225.531418 305.041586 
L 257.517784 299.491177 
L 288.983581 294.276694 
L 319.181941 290.108021 
L 349.501121 285.714591 
L 378.135589 282.816855 
L 408.288993 278.36537 
L 436.847182 275.36119 
L 463.143786 274.530245 
L 489.544204 273.570604 
L 516.294397 272.224131 
" clip-path="url(#p7e067c6954)" style="fill: none; stroke: #ff0000; stroke-width: 1.5; stroke-linecap: square"/>
   </g>
   <g id="Poly3DCollection_1">
    <path d="M 139.016053 183.021806 
L 132.859355 188.627135 
L 150.458629 184.881694 
z
" clip-path="url(#p7e067c6954)" style="fill: #e6f0f9"/>
    <path d="M 150.458629 184.881694 
L 156.624698 180.438007 
L 139.016053 183.021806 
z
" clip-path="url(#p7e067c6954)" style="fill: #deebf7"/>
    <path d="M 132.859355 188.627135 
L 132.745212 188.494725 
L 150.458629 184.881694 
z
" clip-path="url(#p7e067c6954)" style="fill: #e6f0f9"/>
    <path d="M 145.718071 186.811908 
L 132.745212 188.494725 
L 128.137216 191.919806 
z
" clip-path="url(#p7e067c6954)" style="fill: #e4eff9"/>
    <path d="M 132.745212 188.494725 
L 150.330111 184.142196 
L 150.458629 184.881694 
z
" clip-path="url(#p7e067c6954)" style="fill: #ddeaf7"/>
    <path d="M 145.718071 186.811908 
L 150.330111 184.142196 
L 132.745212 188.494725 
z
" clip-path="url(#p7e067c6954)" style="fill: #dce9f6"/>
    <path d="M 174.164024 166.779323 
L 156.624698 180.438007 
L 150.458629 184.881694 
z
" clip-path="url(#p7e067c6954)" style="fill: #c7dbef"/>
    <path d="M 128.137216 191.919806 
L 118.034656 197.653777 
L 145.718071 186.811908 
z
" clip-path="url(#p7e067c6954)" style="fill: #e2edf8"/>
    <path d="M 150.330111 184.142196 
L 168.01074 176.2172 
L 150.458629 184.881694 
z
" clip-path="url(#p7e067c6954)" style="fill: #caddf0"/>
    <path d="M 150.330111 184.142196 
L 145.718071 186.811908 
L 168.01074 176.2172 
z
" clip-path="url(#p7e067c6954)" style="fill: #c8dcf0"/>
    <path d="M 150.458629 184.881694 
L 168.08162 174.484853 
L 174.164024 166.779323 
z
" clip-path="url(#p7e067c6954)" style="fill: #b0d2e7"/>
    <path d="M 186.644582 202.899857 
L 192.725249 198.058277 
L 174.164024 166.779323 
z
" clip-path="url(#p7e067c6954)" style="fill: #d3e4f3"/>
    <path d="M 150.458629 184.881694 
L 168.01074 176.2172 
L 168.08162 174.484853 
z
" clip-path="url(#p7e067c6954)" style="fill: #b7d4ea"/>
    <path d="M 118.034656 197.653777 
L 135.689367 193.783458 
L 145.718071 186.811908 
z
" clip-path="url(#p7e067c6954)" style="fill: #d7e6f5"/>
    <path d="M 174.164024 166.779323 
L 168.08162 174.484853 
L 186.644582 202.899857 
z
" clip-path="url(#p7e067c6954)" style="fill: #bad6eb"/>
    <path d="M 210.625038 186.828264 
L 192.725249 198.058277 
L 186.644582 202.899857 
z
" clip-path="url(#p7e067c6954)" style="fill: #dce9f6"/>
    <path d="M 186.644582 202.899857 
L 168.01074 176.2172 
L 186.564965 204.411818 
z
" clip-path="url(#p7e067c6954)" style="fill: #d8e7f5"/>
    <path d="M 132.610502 196.159029 
L 118.034656 197.653777 
L 114.947259 200.089055 
z
" clip-path="url(#p7e067c6954)" style="fill: #dfebf7"/>
    <path d="M 168.08162 174.484853 
L 168.01074 176.2172 
L 186.644582 202.899857 
z
" clip-path="url(#p7e067c6954)" style="fill: #c1d9ed"/>
    <path d="M 168.01074 176.2172 
L 145.718071 186.811908 
L 163.39049 177.835426 
z
" clip-path="url(#p7e067c6954)" style="fill: #b3d3e8"/>
    <path d="M 168.01074 176.2172 
L 182.033641 207.90377 
L 186.564965 204.411818 
z
" clip-path="url(#p7e067c6954)" style="fill: #d9e8f5"/>
    <path d="M 132.610502 196.159029 
L 135.689367 193.783458 
L 118.034656 197.653777 
z
" clip-path="url(#p7e067c6954)" style="fill: #d6e6f4"/>
    <path d="M 114.947259 200.089055 
L 108.959901 206.580087 
L 132.610502 196.159029 
z
" clip-path="url(#p7e067c6954)" style="fill: #dfecf7"/>
    <path d="M 186.564965 204.411818 
L 204.419152 189.491062 
L 186.644582 202.899857 
z
" clip-path="url(#p7e067c6954)" style="fill: #dae8f6"/>
    <path d="M 168.01074 176.2172 
L 163.39049 177.835426 
L 182.033641 207.90377 
z
" clip-path="url(#p7e067c6954)" style="fill: #c2d9ee"/>
    <path d="M 186.564965 204.411818 
L 182.033641 207.90377 
L 204.419152 189.491062 
z
" clip-path="url(#p7e067c6954)" style="fill: #dce9f6"/>
    <path d="M 135.689367 193.783458 
L 153.336337 182.648376 
L 145.718071 186.811908 
z
" clip-path="url(#p7e067c6954)" style="fill: #bed8ec"/>
    <path d="M 186.644582 202.899857 
L 204.547747 190.905556 
L 210.625038 186.828264 
z
" clip-path="url(#p7e067c6954)" style="fill: #cddff1"/>
    <path d="M 145.718071 186.811908 
L 153.336337 182.648376 
L 163.39049 177.835426 
z
" clip-path="url(#p7e067c6954)" style="fill: #abd0e6"/>
    <path d="M 186.644582 202.899857 
L 204.419152 189.491062 
L 204.547747 190.905556 
z
" clip-path="url(#p7e067c6954)" style="fill: #cadef0"/>
    <path d="M 108.959901 206.580087 
L 126.540085 199.435161 
L 132.610502 196.159029 
z
" clip-path="url(#p7e067c6954)" style="fill: #d6e6f4"/>
    <path d="M 210.625038 186.828264 
L 204.547747 190.905556 
L 229.023661 201.663305 
z
" clip-path="url(#p7e067c6954)" style="fill: #c7dbef"/>
    <path d="M 182.033641 207.90377 
L 163.39049 177.835426 
L 153.336337 182.648376 
z
" clip-path="url(#p7e067c6954)" style="fill: #bad6eb"/>
    <path d="M 121.614114 199.097395 
L 108.959901 206.580087 
L 104.211646 212.160244 
z
" clip-path="url(#p7e067c6954)" style="fill: #deebf7"/>
    <path d="M 135.689367 193.783458 
L 132.610502 196.159029 
L 153.336337 182.648376 
z
" clip-path="url(#p7e067c6954)" style="fill: #bcd7eb"/>
    <path d="M 153.336337 182.648376 
L 172.159336 215.824084 
L 182.033641 207.90377 
z
" clip-path="url(#p7e067c6954)" style="fill: #d4e4f4"/>
    <path d="M 172.159336 215.824084 
L 199.870016 191.363008 
L 182.033641 207.90377 
z
" clip-path="url(#p7e067c6954)" style="fill: #d9e8f5"/>
    <path d="M 182.033641 207.90377 
L 199.870016 191.363008 
L 204.419152 189.491062 
z
" clip-path="url(#p7e067c6954)" style="fill: #c8dcf0"/>
    <path d="M 204.547747 190.905556 
L 223.001188 206.226464 
L 229.023661 201.663305 
z
" clip-path="url(#p7e067c6954)" style="fill: #cee0f2"/>
    <path d="M 121.614114 199.097395 
L 126.540085 199.435161 
L 108.959901 206.580087 
z
" clip-path="url(#p7e067c6954)" style="fill: #d1e2f3"/>
    <path d="M 204.547747 190.905556 
L 204.419152 189.491062 
L 222.906954 207.249554 
z
" clip-path="url(#p7e067c6954)" style="fill: #c3daee"/>
    <path d="M 222.906954 207.249554 
L 223.001188 206.226464 
L 204.547747 190.905556 
z
" clip-path="url(#p7e067c6954)" style="fill: #cee0f2"/>
    <path d="M 222.906954 207.249554 
L 204.419152 189.491062 
L 199.870016 191.363008 
z
" clip-path="url(#p7e067c6954)" style="fill: #bed8ec"/>
    <path d="M 153.336337 182.648376 
L 132.610502 196.159029 
L 150.260926 184.904308 
z
" clip-path="url(#p7e067c6954)" style="fill: #a4cce3"/>
    <path d="M 169.123192 218.321982 
L 172.159336 215.824084 
L 153.336337 182.648376 
z
" clip-path="url(#p7e067c6954)" style="fill: #d4e4f4"/>
    <path d="M 144.192391 187.606384 
L 132.610502 196.159029 
L 126.540085 199.435161 
z
" clip-path="url(#p7e067c6954)" style="fill: #b7d4ea"/>
    <path d="M 222.906954 207.249554 
L 199.870016 191.363008 
L 218.461417 213.96239 
z
" clip-path="url(#p7e067c6954)" style="fill: #cfe1f2"/>
    <path d="M 150.260926 184.904308 
L 169.123192 218.321982 
L 153.336337 182.648376 
z
" clip-path="url(#p7e067c6954)" style="fill: #b4d3e9"/>
    <path d="M 241.190698 183.278989 
L 229.023661 201.663305 
L 223.001188 206.226464 
z
" clip-path="url(#p7e067c6954)" style="fill: #b9d6ea"/>
    <path d="M 150.260926 184.904308 
L 132.610502 196.159029 
L 144.192391 187.606384 
z
" clip-path="url(#p7e067c6954)" style="fill: #a1cbe2"/>
    <path d="M 163.169602 222.846498 
L 169.123192 218.321982 
L 150.260926 184.904308 
z
" clip-path="url(#p7e067c6954)" style="fill: #d3e4f3"/>
    <path d="M 104.211646 212.160244 
L 91.592917 221.210751 
L 108.977732 207.006856 
z
" clip-path="url(#p7e067c6954)" style="fill: #dceaf6"/>
    <path d="M 190.014596 199.609978 
L 199.870016 191.363008 
L 172.159336 215.824084 
z
" clip-path="url(#p7e067c6954)" style="fill: #c7dbef"/>
    <path d="M 172.159336 215.824084 
L 169.123192 218.321982 
L 186.979335 201.947054 
z
" clip-path="url(#p7e067c6954)" style="fill: #d9e7f5"/>
    <path d="M 108.977732 207.006856 
L 121.614114 199.097395 
L 104.211646 212.160244 
z
" clip-path="url(#p7e067c6954)" style="fill: #cde0f1"/>
    <path d="M 223.001188 206.226464 
L 222.906954 207.249554 
L 241.190698 183.278989 
z
" clip-path="url(#p7e067c6954)" style="fill: #bad6eb"/>
    <path d="M 126.540085 199.435161 
L 121.614114 199.097395 
L 144.192391 187.606384 
z
" clip-path="url(#p7e067c6954)" style="fill: #aed1e7"/>
    <path d="M 199.870016 191.363008 
L 208.700553 222.626296 
L 218.461417 213.96239 
z
" clip-path="url(#p7e067c6954)" style="fill: #d2e3f3"/>
    <path d="M 247.212343 179.190404 
L 229.023661 201.663305 
L 241.190698 183.278989 
z
" clip-path="url(#p7e067c6954)" style="fill: #8fc2de"/>
    <path d="M 150.260926 184.904308 
L 144.192391 187.606384 
L 163.169602 222.846498 
z
" clip-path="url(#p7e067c6954)" style="fill: #b0d2e7"/>
    <path d="M 91.592917 221.210751 
L 86.438638 229.39326 
L 104.498991 234.904659 
z
" clip-path="url(#p7e067c6954)" style="fill: #f4f9fe"/>
    <path d="M 218.461417 213.96239 
L 236.548742 180.916716 
L 222.906954 207.249554 
z
" clip-path="url(#p7e067c6954)" style="fill: #b7d4ea"/>
    <path d="M 172.159336 215.824084 
L 186.979335 201.947054 
L 190.014596 199.609978 
z
" clip-path="url(#p7e067c6954)" style="fill: #c7dbef"/>
    <path d="M 190.014596 199.609978 
L 208.700553 222.626296 
L 199.870016 191.363008 
z
" clip-path="url(#p7e067c6954)" style="fill: #c1d9ed"/>
    <path d="M 265.912967 217.229624 
L 278.605205 231.733661 
L 284.5039 225.867323 
z
" clip-path="url(#p7e067c6954)" style="fill: #eaf3fb"/>
    <path d="M 259.972198 222.082169 
L 278.605205 231.733661 
L 265.912967 217.229624 
z
" clip-path="url(#p7e067c6954)" style="fill: #e7f1fa"/>
    <path d="M 169.123192 218.321982 
L 163.169602 222.846498 
L 180.989667 204.207067 
z
" clip-path="url(#p7e067c6954)" style="fill: #d6e6f4"/>
    <path d="M 265.912967 217.229624 
L 241.190698 183.278989 
L 259.972198 222.082169 
z
" clip-path="url(#p7e067c6954)" style="fill: #c7dbef"/>
    <path d="M 247.212343 179.190404 
L 241.190698 183.278989 
L 265.912967 217.229624 
z
" clip-path="url(#p7e067c6954)" style="fill: #97c6df"/>
    <path d="M 241.190698 183.278989 
L 222.906954 207.249554 
L 241.06348 180.609085 
z
" clip-path="url(#p7e067c6954)" style="fill: #89bedc"/>
    <path d="M 104.498991 234.904659 
L 108.977732 207.006856 
L 91.592917 221.210751 
z
" clip-path="url(#p7e067c6954)" style="fill: #dfebf7"/>
    <path d="M 103.048562 236.087389 
L 104.498991 234.904659 
L 86.438638 229.39326 
z
" clip-path="url(#p7e067c6954)" style="fill: #f7fbff"/>
    <path d="M 259.972198 222.082169 
L 259.866245 221.671577 
L 278.502017 231.602031 
z
" clip-path="url(#p7e067c6954)" style="fill: #e7f0fa"/>
    <path d="M 144.192391 187.606384 
L 121.614114 199.097395 
L 139.171033 182.977599 
z
" clip-path="url(#p7e067c6954)" style="fill: #84bcdb"/>
    <path d="M 259.972198 222.082169 
L 241.190698 183.278989 
L 259.866245 221.671577 
z
" clip-path="url(#p7e067c6954)" style="fill: #c6dbef"/>
    <path d="M 139.171033 182.977599 
L 158.411253 225.663684 
L 163.169602 222.846498 
z
" clip-path="url(#p7e067c6954)" style="fill: #c9ddf0"/>
    <path d="M 163.169602 222.846498 
L 144.192391 187.606384 
L 139.171033 182.977599 
z
" clip-path="url(#p7e067c6954)" style="fill: #a1cbe2"/>
    <path d="M 218.461417 213.96239 
L 208.700553 222.626296 
L 236.548742 180.916716 
z
" clip-path="url(#p7e067c6954)" style="fill: #bcd7eb"/>
    <path d="M 186.979335 201.947054 
L 169.123192 218.321982 
L 180.989667 204.207067 
z
" clip-path="url(#p7e067c6954)" style="fill: #c2d9ee"/>
    <path d="M 278.502017 231.602031 
L 259.866245 221.671577 
L 255.45754 228.724812 
z
" clip-path="url(#p7e067c6954)" style="fill: #e9f2fa"/>
    <path d="M 278.502017 231.602031 
L 278.605205 231.733661 
L 259.972198 222.082169 
z
" clip-path="url(#p7e067c6954)" style="fill: #eaf3fb"/>
    <path d="M 190.014596 199.609978 
L 186.979335 201.947054 
L 208.700553 222.626296 
z
" clip-path="url(#p7e067c6954)" style="fill: #c1d9ed"/>
    <path d="M 180.989667 204.207067 
L 163.169602 222.846498 
L 158.411253 225.663684 
z
" clip-path="url(#p7e067c6954)" style="fill: #d5e5f4"/>
    <path d="M 303.212851 228.194533 
L 284.5039 225.867323 
L 278.605205 231.733661 
z
" clip-path="url(#p7e067c6954)" style="fill: #eaf3fb"/>
    <path d="M 222.906954 207.249554 
L 236.548742 180.916716 
L 241.06348 180.609085 
z
" clip-path="url(#p7e067c6954)" style="fill: #7db8da"/>
    <path d="M 208.700553 222.626296 
L 186.979335 201.947054 
L 205.695789 225.12219 
z
" clip-path="url(#p7e067c6954)" style="fill: #d2e3f3"/>
    <path d="M 139.171033 182.977599 
L 121.614114 199.097395 
L 108.977732 207.006856 
z
" clip-path="url(#p7e067c6954)" style="fill: #97c6df"/>
    <path d="M 259.866245 221.671577 
L 241.190698 183.278989 
L 241.06348 180.609085 
z
" clip-path="url(#p7e067c6954)" style="fill: #8fc2de"/>
    <path d="M 259.866245 221.671577 
L 236.548742 180.916716 
L 255.45754 228.724812 
z
" clip-path="url(#p7e067c6954)" style="fill: #c1d9ed"/>
    <path d="M 255.45754 228.724812 
L 274.106709 235.209711 
L 278.502017 231.602031 
z
" clip-path="url(#p7e067c6954)" style="fill: #edf4fc"/>
    <path d="M 146.175471 241.678168 
L 158.411253 225.663684 
L 139.171033 182.977599 
z
" clip-path="url(#p7e067c6954)" style="fill: #cddff1"/>
    <path d="M 241.06348 180.609085 
L 236.548742 180.916716 
L 259.866245 221.671577 
z
" clip-path="url(#p7e067c6954)" style="fill: #84bcdb"/>
    <path d="M 297.347916 233.110681 
L 278.605205 231.733661 
L 278.502017 231.602031 
z
" clip-path="url(#p7e067c6954)" style="fill: #eaf3fb"/>
    <path d="M 205.695789 225.12219 
L 186.979335 201.947054 
L 180.989667 204.207067 
z
" clip-path="url(#p7e067c6954)" style="fill: #bdd7ec"/>
    <path d="M 297.347916 233.110681 
L 303.212851 228.194533 
L 278.605205 231.733661 
z
" clip-path="url(#p7e067c6954)" style="fill: #e7f1fa"/>
    <path d="M 274.106709 235.209711 
L 255.45754 228.724812 
L 245.803655 235.737366 
z
" clip-path="url(#p7e067c6954)" style="fill: #eaf3fb"/>
    <path d="M 146.175471 241.678168 
L 176.382352 213.998497 
L 158.411253 225.663684 
z
" clip-path="url(#p7e067c6954)" style="fill: #deebf7"/>
    <path d="M 180.989667 204.207067 
L 199.836999 231.567174 
L 205.695789 225.12219 
z
" clip-path="url(#p7e067c6954)" style="fill: #d0e2f2"/>
    <path d="M 158.411253 225.663684 
L 176.382352 213.998497 
L 180.989667 204.207067 
z
" clip-path="url(#p7e067c6954)" style="fill: #c4daee"/>
    <path d="M 223.877522 202.372641 
L 208.700553 222.626296 
L 205.695789 225.12219 
z
" clip-path="url(#p7e067c6954)" style="fill: #c9ddf0"/>
    <path d="M 278.502017 231.602031 
L 274.106709 235.209711 
L 292.869542 239.814038 
z
" clip-path="url(#p7e067c6954)" style="fill: #edf4fc"/>
    <path d="M 278.502017 231.602031 
L 297.246883 232.699165 
L 297.347916 233.110681 
z
" clip-path="url(#p7e067c6954)" style="fill: #e7f0fa"/>
    <path d="M 245.803655 235.737366 
L 255.45754 228.724812 
L 236.548742 180.916716 
z
" clip-path="url(#p7e067c6954)" style="fill: #c3daee"/>
    <path d="M 316.163184 246.18072 
L 321.983468 240.889903 
L 303.212851 228.194533 
z
" clip-path="url(#p7e067c6954)" style="fill: #f1f7fd"/>
    <path d="M 278.502017 231.602031 
L 292.869542 239.814038 
L 297.246883 232.699165 
z
" clip-path="url(#p7e067c6954)" style="fill: #e9f2fa"/>
    <path d="M 236.548742 180.916716 
L 208.700553 222.626296 
L 226.87232 199.045715 
z
" clip-path="url(#p7e067c6954)" style="fill: #8fc2de"/>
    <path d="M 316.163184 246.18072 
L 303.212851 228.194533 
L 297.347916 233.110681 
z
" clip-path="url(#p7e067c6954)" style="fill: #eaf3fb"/>
    <path d="M 195.176399 236.722194 
L 199.836999 231.567174 
L 180.989667 204.207067 
z
" clip-path="url(#p7e067c6954)" style="fill: #d3e3f3"/>
    <path d="M 180.989667 204.207067 
L 176.382352 213.998497 
L 195.176399 236.722194 
z
" clip-path="url(#p7e067c6954)" style="fill: #c4daee"/>
    <path d="M 205.695789 225.12219 
L 199.836999 231.567174 
L 218.036608 210.549009 
z
" clip-path="url(#p7e067c6954)" style="fill: #cddff1"/>
    <path d="M 297.347916 233.110681 
L 297.246883 232.699165 
L 316.06155 246.273108 
z
" clip-path="url(#p7e067c6954)" style="fill: #eaf2fb"/>
    <path d="M 245.803655 235.737366 
L 264.522487 243.386386 
L 274.106709 235.209711 
z
" clip-path="url(#p7e067c6954)" style="fill: #eaf3fb"/>
    <path d="M 108.977732 207.006856 
L 126.244167 180.607183 
L 139.171033 182.977599 
z
" clip-path="url(#p7e067c6954)" style="fill: #5da5d1"/>
    <path d="M 226.87232 199.045715 
L 208.700553 222.626296 
L 223.877522 202.372641 
z
" clip-path="url(#p7e067c6954)" style="fill: #a1cbe2"/>
    <path d="M 316.06155 246.273108 
L 316.163184 246.18072 
L 297.347916 233.110681 
z
" clip-path="url(#p7e067c6954)" style="fill: #f1f7fd"/>
    <path d="M 297.246883 232.699165 
L 292.869542 239.814038 
L 316.06155 246.273108 
z
" clip-path="url(#p7e067c6954)" style="fill: #ecf4fb"/>
    <path d="M 226.87232 199.045715 
L 245.803655 235.737366 
L 236.548742 180.916716 
z
" clip-path="url(#p7e067c6954)" style="fill: #92c4de"/>
    <path d="M 139.171033 182.977599 
L 126.244167 180.607183 
L 146.175471 241.678168 
z
" clip-path="url(#p7e067c6954)" style="fill: #85bcdc"/>
    <path d="M 140.959409 246.031125 
L 159.361611 251.646844 
L 146.175471 241.678168 
z
" clip-path="url(#p7e067c6954)" style="fill: #f7fbff"/>
    <path d="M 321.983468 240.889903 
L 316.163184 246.18072 
L 335.143459 249.293414 
z
" clip-path="url(#p7e067c6954)" style="fill: #f5fafe"/>
    <path d="M 242.835902 238.281969 
L 264.522487 243.386386 
L 245.803655 235.737366 
z
" clip-path="url(#p7e067c6954)" style="fill: #e9f2fa"/>
    <path d="M 242.835902 238.281969 
L 245.803655 235.737366 
L 226.87232 199.045715 
z
" clip-path="url(#p7e067c6954)" style="fill: #ccdff1"/>
    <path d="M 218.036608 210.549009 
L 199.836999 231.567174 
L 195.176399 236.722194 
z
" clip-path="url(#p7e067c6954)" style="fill: #cfe1f2"/>
    <path d="M 340.927166 244.08347 
L 321.983468 240.889903 
L 335.143459 249.293414 
z
" clip-path="url(#p7e067c6954)" style="fill: #f3f8fe"/>
    <path d="M 283.344434 246.926994 
L 292.869542 239.814038 
L 274.106709 235.209711 
z
" clip-path="url(#p7e067c6954)" style="fill: #eaf3fb"/>
    <path d="M 164.001673 223.521576 
L 176.382352 213.998497 
L 146.175471 241.678168 
z
" clip-path="url(#p7e067c6954)" style="fill: #cee0f2"/>
    <path d="M 103.048562 236.087389 
L 86.438638 229.39326 
L 79.787585 95.4217 
z
" clip-path="url(#p7e067c6954)" style="fill: #4d99ca"/>
    <path d="M 292.869542 239.814038 
L 311.725051 250.215118 
L 316.06155 246.273108 
z
" clip-path="url(#p7e067c6954)" style="fill: #f3f8fe"/>
    <path d="M 218.036608 210.549009 
L 223.877522 202.372641 
L 205.695789 225.12219 
z
" clip-path="url(#p7e067c6954)" style="fill: #a8cee4"/>
    <path d="M 274.106709 235.209711 
L 264.522487 243.386386 
L 283.344434 246.926994 
z
" clip-path="url(#p7e067c6954)" style="fill: #eaf3fb"/>
    <path d="M 176.382352 213.998497 
L 182.884287 244.98316 
L 195.176399 236.722194 
z
" clip-path="url(#p7e067c6954)" style="fill: #d7e6f5"/>
    <path d="M 316.06155 246.273108 
L 335.143459 249.293414 
L 316.163184 246.18072 
z
" clip-path="url(#p7e067c6954)" style="fill: #f5fafe"/>
    <path d="M 140.959409 246.031125 
L 139.524333 247.228738 
L 157.934399 252.852005 
z
" clip-path="url(#p7e067c6954)" style="fill: #f7fbff"/>
    <path d="M 261.574194 245.964022 
L 264.522487 243.386386 
L 242.835902 238.281969 
z
" clip-path="url(#p7e067c6954)" style="fill: #eaf3fb"/>
    <path d="M 226.87232 199.045715 
L 223.877522 202.372641 
L 242.835902 238.281969 
z
" clip-path="url(#p7e067c6954)" style="fill: #a4cce3"/>
    <path d="M 146.175471 241.678168 
L 159.361611 251.646844 
L 164.001673 223.521576 
z
" clip-path="url(#p7e067c6954)" style="fill: #e3eef8"/>
    <path d="M 237.019412 242.709944 
L 242.835902 238.281969 
L 223.877522 202.372641 
z
" clip-path="url(#p7e067c6954)" style="fill: #ccdff1"/>
    <path d="M 157.934399 252.852005 
L 159.361611 251.646844 
L 140.959409 246.031125 
z
" clip-path="url(#p7e067c6954)" style="fill: #f7fbff"/>
    <path d="M 316.06155 246.273108 
L 335.016993 251.890352 
L 335.143459 249.293414 
z
" clip-path="url(#p7e067c6954)" style="fill: #f5fafe"/>
    <path d="M 311.725051 250.215118 
L 292.869542 239.814038 
L 283.344434 246.926994 
z
" clip-path="url(#p7e067c6954)" style="fill: #eef5fc"/>
    <path d="M 335.143459 249.293414 
L 359.935874 252.091787 
L 340.927166 244.08347 
z
" clip-path="url(#p7e067c6954)" style="fill: #f3f8fe"/>
    <path d="M 311.725051 250.215118 
L 330.708796 255.857225 
L 316.06155 246.273108 
z
" clip-path="url(#p7e067c6954)" style="fill: #f7fbff"/>
    <path d="M 330.708796 255.857225 
L 335.016993 251.890352 
L 316.06155 246.273108 
z
" clip-path="url(#p7e067c6954)" style="fill: #f7fbff"/>
    <path d="M 261.574194 245.964022 
L 242.835902 238.281969 
L 255.810964 252.946331 
z
" clip-path="url(#p7e067c6954)" style="fill: #ecf4fb"/>
    <path d="M 242.835902 238.281969 
L 237.019412 242.709944 
L 255.810964 252.946331 
z
" clip-path="url(#p7e067c6954)" style="fill: #eaf2fb"/>
    <path d="M 164.001673 223.521576 
L 182.884287 244.98316 
L 176.382352 213.998497 
z
" clip-path="url(#p7e067c6954)" style="fill: #c8dcf0"/>
    <path d="M 264.522487 243.386386 
L 261.574194 245.964022 
L 280.413364 249.504175 
z
" clip-path="url(#p7e067c6954)" style="fill: #eaf3fb"/>
    <path d="M 223.877522 202.372641 
L 218.036608 210.549009 
L 237.019412 242.709944 
z
" clip-path="url(#p7e067c6954)" style="fill: #a9cfe5"/>
    <path d="M 195.176399 236.722194 
L 213.285948 209.142622 
L 218.036608 210.549009 
z
" clip-path="url(#p7e067c6954)" style="fill: #a8cee4"/>
    <path d="M 195.176399 236.722194 
L 182.884287 244.98316 
L 213.285948 209.142622 
z
" clip-path="url(#p7e067c6954)" style="fill: #caddf0"/>
    <path d="M 159.361611 251.646844 
L 157.934399 252.852005 
L 177.879921 257.297996 
z
" clip-path="url(#p7e067c6954)" style="fill: #f7fbff"/>
    <path d="M 335.143459 249.293414 
L 335.016993 251.890352 
L 354.092053 257.543042 
z
" clip-path="url(#p7e067c6954)" style="fill: #f5fafe"/>
    <path d="M 354.192348 257.449484 
L 359.935874 252.091787 
L 335.143459 249.293414 
z
" clip-path="url(#p7e067c6954)" style="fill: #f5fafe"/>
    <path d="M 255.810964 252.946331 
L 237.019412 242.709944 
L 232.447381 252.222955 
z
" clip-path="url(#p7e067c6954)" style="fill: #eef5fc"/>
    <path d="M 280.413364 249.504175 
L 283.344434 246.926994 
L 264.522487 243.386386 
z
" clip-path="url(#p7e067c6954)" style="fill: #e9f2fa"/>
    <path d="M 104.498991 234.904659 
L 103.048562 236.087389 
L 118.008896 90.829106 
z
" clip-path="url(#p7e067c6954)" style="fill: #3b8bc2"/>
    <path d="M 283.344434 246.926994 
L 302.269247 258.810732 
L 311.725051 250.215118 
z
" clip-path="url(#p7e067c6954)" style="fill: #f2f7fd"/>
    <path d="M 164.001673 223.521576 
L 159.361611 251.646844 
L 177.879921 257.297996 
z
" clip-path="url(#p7e067c6954)" style="fill: #e3eef8"/>
    <path d="M 330.708796 255.857225 
L 311.725051 250.215118 
L 302.269247 258.810732 
z
" clip-path="url(#p7e067c6954)" style="fill: #f7fbff"/>
    <path d="M 354.092053 257.543042 
L 335.016993 251.890352 
L 330.708796 255.857225 
z
" clip-path="url(#p7e067c6954)" style="fill: #f7fbff"/>
    <path d="M 280.413364 249.504175 
L 261.574194 245.964022 
L 255.810964 252.946331 
z
" clip-path="url(#p7e067c6954)" style="fill: #ecf4fb"/>
    <path d="M 108.977732 207.006856 
L 104.498991 234.904659 
L 118.008896 90.829106 
z
" clip-path="url(#p7e067c6954)" style="fill: #206fb4"/>
    <path d="M 354.192348 257.449484 
L 335.143459 249.293414 
L 354.092053 257.543042 
z
" clip-path="url(#p7e067c6954)" style="fill: #f5fafe"/>
    <path d="M 237.019412 242.709944 
L 213.285948 209.142622 
L 232.447381 252.222955 
z
" clip-path="url(#p7e067c6954)" style="fill: #cee0f2"/>
    <path d="M 177.879921 257.297996 
L 182.884287 244.98316 
L 164.001673 223.521576 
z
" clip-path="url(#p7e067c6954)" style="fill: #dce9f6"/>
    <path d="M 177.879921 257.297996 
L 157.934399 252.852005 
L 176.460702 258.510775 
z
" clip-path="url(#p7e067c6954)" style="fill: #f7fbff"/>
    <path d="M 237.019412 242.709944 
L 218.036608 210.549009 
L 213.285948 209.142622 
z
" clip-path="url(#p7e067c6954)" style="fill: #a6cee4"/>
    <path d="M 232.447381 252.222955 
L 251.213731 256.447451 
L 255.810964 252.946331 
z
" clip-path="url(#p7e067c6954)" style="fill: #f2f7fd"/>
    <path d="M 302.269247 258.810732 
L 283.344434 246.926994 
L 280.413364 249.504175 
z
" clip-path="url(#p7e067c6954)" style="fill: #ecf4fb"/>
    <path d="M 373.387474 263.137365 
L 359.935874 252.091787 
L 354.192348 257.449484 
z
" clip-path="url(#p7e067c6954)" style="fill: #f7fbff"/>
    <path d="M 379.091717 257.745751 
L 359.935874 252.091787 
L 373.387474 263.137365 
z
" clip-path="url(#p7e067c6954)" style="fill: #f7fbff"/>
    <path d="M 103.048562 236.087389 
L 120.812403 228.383513 
L 118.008896 90.829106 
z
" clip-path="url(#p7e067c6954)" style="fill: #2c7cba"/>
    <path d="M 354.092053 257.543042 
L 330.708796 255.857225 
L 349.812602 261.535016 
z
" clip-path="url(#p7e067c6954)" style="fill: #f7fbff"/>
    <path d="M 182.884287 244.98316 
L 177.879921 257.297996 
L 196.515442 262.984916 
z
" clip-path="url(#p7e067c6954)" style="fill: #f1f7fd"/>
    <path d="M 255.810964 252.946331 
L 274.672613 253.993799 
L 280.413364 249.504175 
z
" clip-path="url(#p7e067c6954)" style="fill: #eaf2fb"/>
    <path d="M 354.192348 257.449484 
L 354.092053 257.543042 
L 373.387474 263.137365 
z
" clip-path="url(#p7e067c6954)" style="fill: #f7fbff"/>
    <path d="M 280.413364 249.504175 
L 299.360325 261.455031 
L 302.269247 258.810732 
z
" clip-path="url(#p7e067c6954)" style="fill: #f2f7fd"/>
    <path d="M 251.213731 256.447451 
L 232.447381 252.222955 
L 220.36799 264.243868 
z
" clip-path="url(#p7e067c6954)" style="fill: #f4f9fe"/>
    <path d="M 196.515442 262.984916 
L 177.879921 257.297996 
L 176.460702 258.510775 
z
" clip-path="url(#p7e067c6954)" style="fill: #f7fbff"/>
    <path d="M 330.708796 255.857225 
L 302.269247 258.810732 
L 321.314497 264.507247 
z
" clip-path="url(#p7e067c6954)" style="fill: #f7fbff"/>
    <path d="M 220.36799 264.243868 
L 232.447381 252.222955 
L 213.285948 209.142622 
z
" clip-path="url(#p7e067c6954)" style="fill: #d4e4f4"/>
    <path d="M 140.959409 246.031125 
L 146.175471 241.678168 
L 118.008896 90.829106 
z
" clip-path="url(#p7e067c6954)" style="fill: #3b8bc2"/>
    <path d="M 255.810964 252.946331 
L 251.213731 256.447451 
L 270.116845 263.580665 
z
" clip-path="url(#p7e067c6954)" style="fill: #f2f7fd"/>
    <path d="M 280.413364 249.504175 
L 274.672613 253.993799 
L 299.360325 261.455031 
z
" clip-path="url(#p7e067c6954)" style="fill: #ecf4fb"/>
    <path d="M 373.387474 263.137365 
L 354.092053 257.543042 
L 373.287863 263.231516 
z
" clip-path="url(#p7e067c6954)" style="fill: #f7fbff"/>
    <path d="M 398.368837 263.43551 
L 379.091717 257.745751 
L 373.387474 263.137365 
z
" clip-path="url(#p7e067c6954)" style="fill: #f7fbff"/>
    <path d="M 270.116845 263.580665 
L 274.672613 253.993799 
L 255.810964 252.946331 
z
" clip-path="url(#p7e067c6954)" style="fill: #eef5fc"/>
    <path d="M 118.008896 90.829106 
L 139.524333 247.228738 
L 140.959409 246.031125 
z
" clip-path="url(#p7e067c6954)" style="fill: #3b8bc2"/>
    <path d="M 213.285948 209.142622 
L 182.884287 244.98316 
L 201.202649 230.710552 
z
" clip-path="url(#p7e067c6954)" style="fill: #add0e6"/>
    <path d="M 176.460702 258.510775 
L 195.104346 264.205386 
L 196.515442 262.984916 
z
" clip-path="url(#p7e067c6954)" style="fill: #f7fbff"/>
    <path d="M 118.008896 90.829106 
L 120.812403 228.383513 
L 139.524333 247.228738 
z
" clip-path="url(#p7e067c6954)" style="fill: #2c7cba"/>
    <path d="M 126.244167 180.607183 
L 108.977732 207.006856 
L 118.008896 90.829106 
z
" clip-path="url(#p7e067c6954)" style="fill: #08306b"/>
    <path d="M 349.812602 261.535016 
L 369.03761 267.248828 
L 354.092053 257.543042 
z
" clip-path="url(#p7e067c6954)" style="fill: #f7fbff"/>
    <path d="M 201.202649 230.710552 
L 182.884287 244.98316 
L 196.515442 262.984916 
z
" clip-path="url(#p7e067c6954)" style="fill: #d8e7f5"/>
    <path d="M 302.269247 258.810732 
L 299.360325 261.455031 
L 318.424438 267.168336 
z
" clip-path="url(#p7e067c6954)" style="fill: #f7fbff"/>
    <path d="M 340.480778 270.239962 
L 349.812602 261.535016 
L 330.708796 255.857225 
z
" clip-path="url(#p7e067c6954)" style="fill: #f7fbff"/>
    <path d="M 369.03761 267.248828 
L 373.287863 263.231516 
L 354.092053 257.543042 
z
" clip-path="url(#p7e067c6954)" style="fill: #f7fbff"/>
    <path d="M 118.008896 90.829106 
L 146.175471 241.678168 
L 126.244167 180.607183 
z
" clip-path="url(#p7e067c6954)" style="fill: #084b93"/>
    <path d="M 318.424438 267.168336 
L 321.314497 264.507247 
L 302.269247 258.810732 
z
" clip-path="url(#p7e067c6954)" style="fill: #f7fbff"/>
    <path d="M 330.708796 255.857225 
L 321.314497 264.507247 
L 340.480778 270.239962 
z
" clip-path="url(#p7e067c6954)" style="fill: #f7fbff"/>
    <path d="M 299.360325 261.455031 
L 274.672613 253.993799 
L 293.663936 266.633222 
z
" clip-path="url(#p7e067c6954)" style="fill: #f2f7fd"/>
    <path d="M 213.285948 209.142622 
L 201.202649 230.710552 
L 220.36799 264.243868 
z
" clip-path="url(#p7e067c6954)" style="fill: #b8d5ea"/>
    <path d="M 392.605576 268.956114 
L 373.387474 263.137365 
L 373.287863 263.231516 
z
" clip-path="url(#p7e067c6954)" style="fill: #f7fbff"/>
    <path d="M 373.387474 263.137365 
L 392.704491 268.861364 
L 398.368837 263.43551 
z
" clip-path="url(#p7e067c6954)" style="fill: #f7fbff"/>
    <path d="M 220.36799 264.243868 
L 201.202649 230.710552 
L 196.515442 262.984916 
z
" clip-path="url(#p7e067c6954)" style="fill: #dfebf7"/>
    <path d="M 196.515442 262.984916 
L 215.269291 268.707946 
L 220.36799 264.243868 
z
" clip-path="url(#p7e067c6954)" style="fill: #f7fbff"/>
    <path d="M 220.36799 264.243868 
L 239.176787 266.000137 
L 251.213731 256.447451 
z
" clip-path="url(#p7e067c6954)" style="fill: #f2f7fd"/>
    <path d="M 196.515442 262.984916 
L 195.104346 264.205386 
L 213.866449 269.93618 
z
" clip-path="url(#p7e067c6954)" style="fill: #f7fbff"/>
    <path d="M 369.03761 267.248828 
L 349.812602 261.535016 
L 340.480778 270.239962 
z
" clip-path="url(#p7e067c6954)" style="fill: #f7fbff"/>
    <path d="M 392.605576 268.956114 
L 373.287863 263.231516 
L 369.03761 267.248828 
z
" clip-path="url(#p7e067c6954)" style="fill: #f7fbff"/>
    <path d="M 289.12946 270.7552 
L 274.672613 253.993799 
L 270.116845 263.580665 
z
" clip-path="url(#p7e067c6954)" style="fill: #f0f6fd"/>
    <path d="M 312.764911 272.379477 
L 299.360325 261.455031 
L 293.663936 266.633222 
z
" clip-path="url(#p7e067c6954)" style="fill: #f7fbff"/>
    <path d="M 293.663936 266.633222 
L 274.672613 253.993799 
L 289.12946 270.7552 
z
" clip-path="url(#p7e067c6954)" style="fill: #f2f7fd"/>
    <path d="M 392.704491 268.861364 
L 373.387474 263.137365 
L 392.605576 268.956114 
z
" clip-path="url(#p7e067c6954)" style="fill: #f7fbff"/>
    <path d="M 318.424438 267.168336 
L 299.360325 261.455031 
L 312.764911 272.379477 
z
" clip-path="url(#p7e067c6954)" style="fill: #f7fbff"/>
    <path d="M 251.213731 256.447451 
L 258.173633 275.742477 
L 270.116845 263.580665 
z
" clip-path="url(#p7e067c6954)" style="fill: #f4f9fe"/>
    <path d="M 213.866449 269.93618 
L 215.269291 268.707946 
L 196.515442 262.984916 
z
" clip-path="url(#p7e067c6954)" style="fill: #f7fbff"/>
    <path d="M 321.314497 264.507247 
L 318.424438 267.168336 
L 337.609882 272.918001 
z
" clip-path="url(#p7e067c6954)" style="fill: #f7fbff"/>
    <path d="M 398.368837 263.43551 
L 392.704491 268.861364 
L 412.144563 274.621827 
z
" clip-path="url(#p7e067c6954)" style="fill: #f7fbff"/>
    <path d="M 412.144563 274.621827 
L 417.768388 269.161406 
L 398.368837 263.43551 
z
" clip-path="url(#p7e067c6954)" style="fill: #f7fbff"/>
    <path d="M 220.36799 264.243868 
L 215.269291 268.707946 
L 234.142597 274.46743 
z
" clip-path="url(#p7e067c6954)" style="fill: #f7fbff"/>
    <path d="M 239.176787 266.000137 
L 258.173633 275.742477 
L 251.213731 256.447451 
z
" clip-path="url(#p7e067c6954)" style="fill: #f2f7fd"/>
    <path d="M 337.609882 272.918001 
L 340.480778 270.239962 
L 321.314497 264.507247 
z
" clip-path="url(#p7e067c6954)" style="fill: #f7fbff"/>
    <path d="M 392.605576 268.956114 
L 369.03761 267.248828 
L 388.384978 272.999007 
z
" clip-path="url(#p7e067c6954)" style="fill: #f7fbff"/>
    <path d="M 293.663936 266.633222 
L 289.12946 270.7552 
L 312.764911 272.379477 
z
" clip-path="url(#p7e067c6954)" style="fill: #f7fbff"/>
    <path d="M 234.142597 274.46743 
L 239.176787 266.000137 
L 220.36799 264.243868 
z
" clip-path="url(#p7e067c6954)" style="fill: #f4f9fe"/>
    <path d="M 270.116845 263.580665 
L 258.173633 275.742477 
L 289.12946 270.7552 
z
" clip-path="url(#p7e067c6954)" style="fill: #f6faff"/>
    <path d="M 337.609882 272.918001 
L 318.424438 267.168336 
L 312.764911 272.379477 
z
" clip-path="url(#p7e067c6954)" style="fill: #f7fbff"/>
    <path d="M 392.704491 268.861364 
L 392.605576 268.956114 
L 412.046354 274.717182 
z
" clip-path="url(#p7e067c6954)" style="fill: #f7fbff"/>
    <path d="M 234.142597 274.46743 
L 215.269291 268.707946 
L 213.866449 269.93618 
z
" clip-path="url(#p7e067c6954)" style="fill: #f7fbff"/>
    <path d="M 340.480778 270.239962 
L 359.769248 276.009224 
L 369.03761 267.248828 
z
" clip-path="url(#p7e067c6954)" style="fill: #f7fbff"/>
    <path d="M 412.046354 274.717182 
L 392.605576 268.956114 
L 388.384978 272.999007 
z
" clip-path="url(#p7e067c6954)" style="fill: #f7fbff"/>
    <path d="M 412.046354 274.717182 
L 412.144563 274.621827 
L 392.704491 268.861364 
z
" clip-path="url(#p7e067c6954)" style="fill: #f7fbff"/>
    <path d="M 437.291542 274.923783 
L 417.768388 269.161406 
L 412.144563 274.621827 
z
" clip-path="url(#p7e067c6954)" style="fill: #f7fbff"/>
    <path d="M 312.764911 272.379477 
L 289.12946 270.7552 
L 308.259704 276.527752 
z
" clip-path="url(#p7e067c6954)" style="fill: #f7fbff"/>
    <path d="M 213.866449 269.93618 
L 232.748143 275.703503 
L 234.142597 274.46743 
z
" clip-path="url(#p7e067c6954)" style="fill: #f7fbff"/>
    <path d="M 234.142597 274.46743 
L 258.173633 275.742477 
L 239.176787 266.000137 
z
" clip-path="url(#p7e067c6954)" style="fill: #f4f9fe"/>
    <path d="M 356.917818 278.704377 
L 340.480778 270.239962 
L 337.609882 272.918001 
z
" clip-path="url(#p7e067c6954)" style="fill: #f7fbff"/>
    <path d="M 369.03761 267.248828 
L 379.181078 281.815385 
L 388.384978 272.999007 
z
" clip-path="url(#p7e067c6954)" style="fill: #f7fbff"/>
    <path d="M 312.764911 272.379477 
L 331.987803 278.162409 
L 337.609882 272.918001 
z
" clip-path="url(#p7e067c6954)" style="fill: #f7fbff"/>
    <path d="M 356.917818 278.704377 
L 359.769248 276.009224 
L 340.480778 270.239962 
z
" clip-path="url(#p7e067c6954)" style="fill: #f7fbff"/>
    <path d="M 369.03761 267.248828 
L 359.769248 276.009224 
L 379.181078 281.815385 
z
" clip-path="url(#p7e067c6954)" style="fill: #f7fbff"/>
    <path d="M 388.384978 272.999007 
L 407.855878 278.785901 
L 412.046354 274.717182 
z
" clip-path="url(#p7e067c6954)" style="fill: #f7fbff"/>
    <path d="M 289.12946 270.7552 
L 258.173633 275.742477 
L 277.257769 281.546929 
z
" clip-path="url(#p7e067c6954)" style="fill: #f7fbff"/>
    <path d="M 431.70887 280.419103 
L 412.144563 274.621827 
L 412.046354 274.717182 
z
" clip-path="url(#p7e067c6954)" style="fill: #f7fbff"/>
    <path d="M 331.987803 278.162409 
L 356.917818 278.704377 
L 337.609882 272.918001 
z
" clip-path="url(#p7e067c6954)" style="fill: #f7fbff"/>
    <path d="M 431.70887 280.419103 
L 437.291542 274.923783 
L 412.144563 274.621827 
z
" clip-path="url(#p7e067c6954)" style="fill: #f7fbff"/>
    <path d="M 253.136506 280.263718 
L 258.173633 275.742477 
L 234.142597 274.46743 
z
" clip-path="url(#p7e067c6954)" style="fill: #f7fbff"/>
    <path d="M 312.764911 272.379477 
L 308.259704 276.527752 
L 327.512333 282.337235 
z
" clip-path="url(#p7e067c6954)" style="fill: #f7fbff"/>
    <path d="M 232.748143 275.703503 
L 251.750577 281.507705 
L 234.142597 274.46743 
z
" clip-path="url(#p7e067c6954)" style="fill: #f7fbff"/>
    <path d="M 327.512333 282.337235 
L 331.987803 278.162409 
L 312.764911 272.379477 
z
" clip-path="url(#p7e067c6954)" style="fill: #f7fbff"/>
    <path d="M 388.384978 272.999007 
L 379.181078 281.815385 
L 407.855878 278.785901 
z
" clip-path="url(#p7e067c6954)" style="fill: #f7fbff"/>
    <path d="M 296.464333 287.388617 
L 308.259704 276.527752 
L 289.12946 270.7552 
z
" clip-path="url(#p7e067c6954)" style="fill: #f7fbff"/>
    <path d="M 412.046354 274.717182 
L 431.611379 280.515068 
L 431.70887 280.419103 
z
" clip-path="url(#p7e067c6954)" style="fill: #f7fbff"/>
    <path d="M 234.142597 274.46743 
L 251.750577 281.507705 
L 253.136506 280.263718 
z
" clip-path="url(#p7e067c6954)" style="fill: #f7fbff"/>
    <path d="M 379.181078 281.815385 
L 359.769248 276.009224 
L 356.917818 278.704377 
z
" clip-path="url(#p7e067c6954)" style="fill: #f7fbff"/>
    <path d="M 412.046354 274.717182 
L 407.855878 278.785901 
L 427.451497 284.609861 
z
" clip-path="url(#p7e067c6954)" style="fill: #f7fbff"/>
    <path d="M 277.257769 281.546929 
L 296.464333 287.388617 
L 289.12946 270.7552 
z
" clip-path="url(#p7e067c6954)" style="fill: #f7fbff"/>
    <path d="M 427.451497 284.609861 
L 431.611379 280.515068 
L 412.046354 274.717182 
z
" clip-path="url(#p7e067c6954)" style="fill: #f7fbff"/>
    <path d="M 351.333783 283.982371 
L 356.917818 278.704377 
L 331.987803 278.162409 
z
" clip-path="url(#p7e067c6954)" style="fill: #f7fbff"/>
    <path d="M 451.398607 286.253547 
L 437.291542 274.923783 
L 431.70887 280.419103 
z
" clip-path="url(#p7e067c6954)" style="fill: #f7fbff"/>
    <path d="M 451.398607 286.253547 
L 456.939482 280.722992 
L 437.291542 274.923783 
z
" clip-path="url(#p7e067c6954)" style="fill: #f7fbff"/>
    <path d="M 272.252178 286.097164 
L 258.173633 275.742477 
L 253.136506 280.263718 
z
" clip-path="url(#p7e067c6954)" style="fill: #f7fbff"/>
    <path d="M 277.257769 281.546929 
L 258.173633 275.742477 
L 272.252178 286.097164 
z
" clip-path="url(#p7e067c6954)" style="fill: #f7fbff"/>
    <path d="M 376.349424 284.527815 
L 379.181078 281.815385 
L 356.917818 278.704377 
z
" clip-path="url(#p7e067c6954)" style="fill: #f7fbff"/>
    <path d="M 431.611379 280.515068 
L 451.398607 286.253547 
L 431.70887 280.419103 
z
" clip-path="url(#p7e067c6954)" style="fill: #f7fbff"/>
    <path d="M 253.136506 280.263718 
L 251.750577 281.507705 
L 272.252178 286.097164 
z
" clip-path="url(#p7e067c6954)" style="fill: #f7fbff"/>
    <path d="M 407.855878 278.785901 
L 379.181078 281.815385 
L 398.717457 287.658798 
z
" clip-path="url(#p7e067c6954)" style="fill: #f7fbff"/>
    <path d="M 327.512333 282.337235 
L 346.888523 288.184002 
L 331.987803 278.162409 
z
" clip-path="url(#p7e067c6954)" style="fill: #f7fbff"/>
    <path d="M 331.987803 278.162409 
L 346.888523 288.184002 
L 351.333783 283.982371 
z
" clip-path="url(#p7e067c6954)" style="fill: #f7fbff"/>
    <path d="M 315.794506 293.2679 
L 327.512333 282.337235 
L 308.259704 276.527752 
z
" clip-path="url(#p7e067c6954)" style="fill: #f7fbff"/>
    <path d="M 370.804037 289.839718 
L 356.917818 278.704377 
L 351.333783 283.982371 
z
" clip-path="url(#p7e067c6954)" style="fill: #f7fbff"/>
    <path d="M 376.349424 284.527815 
L 356.917818 278.704377 
L 370.804037 289.839718 
z
" clip-path="url(#p7e067c6954)" style="fill: #f7fbff"/>
    <path d="M 451.301846 286.350128 
L 451.398607 286.253547 
L 431.611379 280.515068 
z
" clip-path="url(#p7e067c6954)" style="fill: #f7fbff"/>
    <path d="M 476.71341 286.559387 
L 456.939482 280.722992 
L 451.398607 286.253547 
z
" clip-path="url(#p7e067c6954)" style="fill: #f7fbff"/>
    <path d="M 272.252178 286.097164 
L 251.750577 281.507705 
L 270.874912 287.349141 
z
" clip-path="url(#p7e067c6954)" style="fill: #f7fbff"/>
    <path d="M 272.252178 286.097164 
L 296.464333 287.388617 
L 277.257769 281.546929 
z
" clip-path="url(#p7e067c6954)" style="fill: #f7fbff"/>
    <path d="M 427.451497 284.609861 
L 447.173037 290.471247 
L 431.611379 280.515068 
z
" clip-path="url(#p7e067c6954)" style="fill: #f7fbff"/>
    <path d="M 376.349424 284.527815 
L 395.905891 290.388672 
L 379.181078 281.815385 
z
" clip-path="url(#p7e067c6954)" style="fill: #f7fbff"/>
    <path d="M 427.451497 284.609861 
L 407.855878 278.785901 
L 418.379587 293.539823 
z
" clip-path="url(#p7e067c6954)" style="fill: #f7fbff"/>
    <path d="M 308.259704 276.527752 
L 296.464333 287.388617 
L 315.794506 293.2679 
z
" clip-path="url(#p7e067c6954)" style="fill: #f7fbff"/>
    <path d="M 447.173037 290.471247 
L 451.301846 286.350128 
L 431.611379 280.515068 
z
" clip-path="url(#p7e067c6954)" style="fill: #f7fbff"/>
    <path d="M 379.181078 281.815385 
L 395.905891 290.388672 
L 398.717457 287.658798 
z
" clip-path="url(#p7e067c6954)" style="fill: #f7fbff"/>
    <path d="M 418.379587 293.539823 
L 407.855878 278.785901 
L 398.717457 287.658798 
z
" clip-path="url(#p7e067c6954)" style="fill: #f7fbff"/>
    <path d="M 346.888523 288.184002 
L 370.804037 289.839718 
L 351.333783 283.982371 
z
" clip-path="url(#p7e067c6954)" style="fill: #f7fbff"/>
    <path d="M 346.888523 288.184002 
L 327.512333 282.337235 
L 315.794506 293.2679 
z
" clip-path="url(#p7e067c6954)" style="fill: #f7fbff"/>
    <path d="M 370.804037 289.839718 
L 395.905891 290.388672 
L 376.349424 284.527815 
z
" clip-path="url(#p7e067c6954)" style="fill: #f7fbff"/>
    <path d="M 451.398607 286.253547 
L 451.301846 286.350128 
L 471.118963 292.22272 
z
" clip-path="url(#p7e067c6954)" style="fill: #f7fbff"/>
    <path d="M 471.214984 292.125516 
L 476.71341 286.559387 
L 451.398607 286.253547 
z
" clip-path="url(#p7e067c6954)" style="fill: #f7fbff"/>
    <path d="M 272.252178 286.097164 
L 291.490787 291.968126 
L 296.464333 287.388617 
z
" clip-path="url(#p7e067c6954)" style="fill: #f7fbff"/>
    <path d="M 290.122324 293.22817 
L 272.252178 286.097164 
L 270.874912 287.349141 
z
" clip-path="url(#p7e067c6954)" style="fill: #f7fbff"/>
    <path d="M 427.451497 284.609861 
L 418.379587 293.539823 
L 447.173037 290.471247 
z
" clip-path="url(#p7e067c6954)" style="fill: #f7fbff"/>
    <path d="M 471.118963 292.22272 
L 471.214984 292.125516 
L 451.398607 286.253547 
z
" clip-path="url(#p7e067c6954)" style="fill: #f7fbff"/>
    <path d="M 291.490787 291.968126 
L 272.252178 286.097164 
L 290.122324 293.22817 
z
" clip-path="url(#p7e067c6954)" style="fill: #f7fbff"/>
    <path d="M 398.717457 287.658798 
L 395.905891 290.388672 
L 418.379587 293.539823 
z
" clip-path="url(#p7e067c6954)" style="fill: #f7fbff"/>
    <path d="M 366.389469 294.068414 
L 370.804037 289.839718 
L 346.888523 288.184002 
z
" clip-path="url(#p7e067c6954)" style="fill: #f7fbff"/>
    <path d="M 315.794506 293.2679 
L 296.464333 287.388617 
L 291.490787 291.968126 
z
" clip-path="url(#p7e067c6954)" style="fill: #f7fbff"/>
    <path d="M 467.021715 296.370418 
L 451.301846 286.350128 
L 447.173037 290.471247 
z
" clip-path="url(#p7e067c6954)" style="fill: #f7fbff"/>
    <path d="M 471.118963 292.22272 
L 451.301846 286.350128 
L 467.021715 296.370418 
z
" clip-path="url(#p7e067c6954)" style="fill: #f7fbff"/>
    <path d="M 390.399766 295.734813 
L 395.905891 290.388672 
L 370.804037 289.839718 
z
" clip-path="url(#p7e067c6954)" style="fill: #f7fbff"/>
    <path d="M 476.71341 286.559387 
L 471.214984 292.125516 
L 491.159227 298.035375 
z
" clip-path="url(#p7e067c6954)" style="fill: #f7fbff"/>
    <path d="M 476.71341 286.559387 
L 491.159227 298.035375 
L 496.61454 292.433327 
z
" clip-path="url(#p7e067c6954)" style="fill: #f7fbff"/>
    <path d="M 418.379587 293.539823 
L 395.905891 290.388672 
L 415.588427 296.287311 
z
" clip-path="url(#p7e067c6954)" style="fill: #f7fbff"/>
    <path d="M 315.794506 293.2679 
L 335.249486 299.185144 
L 346.888523 288.184002 
z
" clip-path="url(#p7e067c6954)" style="fill: #f7fbff"/>
    <path d="M 471.214984 292.125516 
L 471.118963 292.22272 
L 491.063958 298.133206 
z
" clip-path="url(#p7e067c6954)" style="fill: #f7fbff"/>
    <path d="M 310.853523 297.876967 
L 291.490787 291.968126 
L 290.122324 293.22817 
z
" clip-path="url(#p7e067c6954)" style="fill: #f7fbff"/>
    <path d="M 291.490787 291.968126 
L 310.853523 297.876967 
L 315.794506 293.2679 
z
" clip-path="url(#p7e067c6954)" style="fill: #f7fbff"/>
    <path d="M 447.173037 290.471247 
L 418.379587 293.539823 
L 438.168686 299.458826 
z
" clip-path="url(#p7e067c6954)" style="fill: #f7fbff"/>
    <path d="M 366.389469 294.068414 
L 386.01638 299.990836 
L 370.804037 289.839718 
z
" clip-path="url(#p7e067c6954)" style="fill: #f7fbff"/>
    <path d="M 370.804037 289.839718 
L 386.01638 299.990836 
L 390.399766 295.734813 
z
" clip-path="url(#p7e067c6954)" style="fill: #f7fbff"/>
    <path d="M 467.021715 296.370418 
L 447.173037 290.471247 
L 438.168686 299.458826 
z
" clip-path="url(#p7e067c6954)" style="fill: #f7fbff"/>
    <path d="M 491.063958 298.133206 
L 471.118963 292.22272 
L 467.021715 296.370418 
z
" clip-path="url(#p7e067c6954)" style="fill: #f7fbff"/>
    <path d="M 354.830485 305.140717 
L 366.389469 294.068414 
L 346.888523 288.184002 
z
" clip-path="url(#p7e067c6954)" style="fill: #f7fbff"/>
    <path d="M 410.122186 301.668021 
L 395.905891 290.388672 
L 390.399766 295.734813 
z
" clip-path="url(#p7e067c6954)" style="fill: #f7fbff"/>
    <path d="M 471.214984 292.125516 
L 491.063958 298.133206 
L 491.159227 298.035375 
z
" clip-path="url(#p7e067c6954)" style="fill: #f7fbff"/>
    <path d="M 415.588427 296.287311 
L 395.905891 290.388672 
L 410.122186 301.668021 
z
" clip-path="url(#p7e067c6954)" style="fill: #f7fbff"/>
    <path d="M 290.122324 293.22817 
L 309.494005 299.145157 
L 310.853523 297.876967 
z
" clip-path="url(#p7e067c6954)" style="fill: #f7fbff"/>
    <path d="M 435.398254 302.224097 
L 418.379587 293.539823 
L 415.588427 296.287311 
z
" clip-path="url(#p7e067c6954)" style="fill: #f7fbff"/>
    <path d="M 346.888523 288.184002 
L 335.249486 299.185144 
L 354.830485 305.140717 
z
" clip-path="url(#p7e067c6954)" style="fill: #f7fbff"/>
    <path d="M 315.794506 293.2679 
L 310.853523 297.876967 
L 330.341591 303.824055 
z
" clip-path="url(#p7e067c6954)" style="fill: #f7fbff"/>
    <path d="M 438.168686 299.458826 
L 418.379587 293.539823 
L 435.398254 302.224097 
z
" clip-path="url(#p7e067c6954)" style="fill: #f7fbff"/>
    <path d="M 330.341591 303.824055 
L 335.249486 299.185144 
L 315.794506 293.2679 
z
" clip-path="url(#p7e067c6954)" style="fill: #f7fbff"/>
    <path d="M 486.998765 302.307743 
L 491.063958 298.133206 
L 467.021715 296.370418 
z
" clip-path="url(#p7e067c6954)" style="fill: #f7fbff"/>
    <path d="M 386.01638 299.990836 
L 410.122186 301.668021 
L 390.399766 295.734813 
z
" clip-path="url(#p7e067c6954)" style="fill: #f7fbff"/>
    <path d="M 386.01638 299.990836 
L 366.389469 294.068414 
L 354.830485 305.140717 
z
" clip-path="url(#p7e067c6954)" style="fill: #f7fbff"/>
    <path d="M 415.588427 296.287311 
L 410.122186 301.668021 
L 435.398254 302.224097 
z
" clip-path="url(#p7e067c6954)" style="fill: #f7fbff"/>
    <path d="M 310.853523 297.876967 
L 309.494005 299.145157 
L 330.341591 303.824055 
z
" clip-path="url(#p7e067c6954)" style="fill: #f7fbff"/>
    <path d="M 438.168686 299.458826 
L 458.085987 305.416174 
L 467.021715 296.370418 
z
" clip-path="url(#p7e067c6954)" style="fill: #f7fbff"/>
    <path d="M 386.01638 299.990836 
L 405.770479 305.951637 
L 410.122186 301.668021 
z
" clip-path="url(#p7e067c6954)" style="fill: #f7fbff"/>
    <path d="M 309.494005 299.145157 
L 328.991164 305.100471 
L 330.341591 303.824055 
z
" clip-path="url(#p7e067c6954)" style="fill: #f7fbff"/>
    <path d="M 354.830485 305.140717 
L 335.249486 299.185144 
L 330.341591 303.824055 
z
" clip-path="url(#p7e067c6954)" style="fill: #f7fbff"/>
    <path d="M 438.168686 299.458826 
L 435.398254 302.224097 
L 455.336612 308.199403 
z
" clip-path="url(#p7e067c6954)" style="fill: #f7fbff"/>
    <path d="M 467.021715 296.370418 
L 478.13274 311.412243 
L 486.998765 302.307743 
z
" clip-path="url(#p7e067c6954)" style="fill: #f7fbff"/>
    <path d="M 435.398254 302.224097 
L 410.122186 301.668021 
L 429.972532 307.639714 
z
" clip-path="url(#p7e067c6954)" style="fill: #f7fbff"/>
    <path d="M 455.336612 308.199403 
L 458.085987 305.416174 
L 438.168686 299.458826 
z
" clip-path="url(#p7e067c6954)" style="fill: #f7fbff"/>
    <path d="M 467.021715 296.370418 
L 458.085987 305.416174 
L 478.13274 311.412243 
z
" clip-path="url(#p7e067c6954)" style="fill: #f7fbff"/>
    <path d="M 354.830485 305.140717 
L 374.538732 311.134992 
L 386.01638 299.990836 
z
" clip-path="url(#p7e067c6954)" style="fill: #f7fbff"/>
    <path d="M 455.336612 308.199403 
L 435.398254 302.224097 
L 429.972532 307.639714 
z
" clip-path="url(#p7e067c6954)" style="fill: #f7fbff"/>
    <path d="M 330.341591 303.824055 
L 349.956212 309.809763 
L 354.830485 305.140717 
z
" clip-path="url(#p7e067c6954)" style="fill: #f7fbff"/>
    <path d="M 410.122186 301.668021 
L 405.770479 305.951637 
L 425.653008 311.951192 
z
" clip-path="url(#p7e067c6954)" style="fill: #f7fbff"/>
    <path d="M 328.991164 305.100471 
L 348.615022 311.094484 
L 330.341591 303.824055 
z
" clip-path="url(#p7e067c6954)" style="fill: #f7fbff"/>
    <path d="M 429.972532 307.639714 
L 410.122186 301.668021 
L 425.653008 311.951192 
z
" clip-path="url(#p7e067c6954)" style="fill: #f7fbff"/>
    <path d="M 386.01638 299.990836 
L 394.375471 317.168348 
L 405.770479 305.951637 
z
" clip-path="url(#p7e067c6954)" style="fill: #f7fbff"/>
    <path d="M 330.341591 303.824055 
L 348.615022 311.094484 
L 349.956212 309.809763 
z
" clip-path="url(#p7e067c6954)" style="fill: #f7fbff"/>
    <path d="M 478.13274 311.412243 
L 458.085987 305.416174 
L 455.336612 308.199403 
z
" clip-path="url(#p7e067c6954)" style="fill: #f7fbff"/>
    <path d="M 374.538732 311.134992 
L 394.375471 317.168348 
L 386.01638 299.990836 
z
" clip-path="url(#p7e067c6954)" style="fill: #f7fbff"/>
    <path d="M 429.972532 307.639714 
L 449.95205 313.650266 
L 455.336612 308.199403 
z
" clip-path="url(#p7e067c6954)" style="fill: #f7fbff"/>
    <path d="M 354.830485 305.140717 
L 349.956212 309.809763 
L 369.698623 315.834468 
z
" clip-path="url(#p7e067c6954)" style="fill: #f7fbff"/>
    <path d="M 369.698623 315.834468 
L 374.538732 311.134992 
L 354.830485 305.140717 
z
" clip-path="url(#p7e067c6954)" style="fill: #f7fbff"/>
    <path d="M 425.653008 311.951192 
L 449.95205 313.650266 
L 429.972532 307.639714 
z
" clip-path="url(#p7e067c6954)" style="fill: #f7fbff"/>
    <path d="M 455.336612 308.199403 
L 475.404755 314.213604 
L 478.13274 311.412243 
z
" clip-path="url(#p7e067c6954)" style="fill: #f7fbff"/>
    <path d="M 405.770479 305.951637 
L 394.375471 317.168348 
L 425.653008 311.951192 
z
" clip-path="url(#p7e067c6954)" style="fill: #f7fbff"/>
    <path d="M 348.615022 311.094484 
L 369.698623 315.834468 
L 349.956212 309.809763 
z
" clip-path="url(#p7e067c6954)" style="fill: #f7fbff"/>
    <path d="M 455.336612 308.199403 
L 449.95205 313.650266 
L 470.062007 319.700059 
z
" clip-path="url(#p7e067c6954)" style="fill: #f7fbff"/>
    <path d="M 470.062007 319.700059 
L 475.404755 314.213604 
L 455.336612 308.199403 
z
" clip-path="url(#p7e067c6954)" style="fill: #f7fbff"/>
    <path d="M 445.665222 317.989879 
L 449.95205 313.650266 
L 425.653008 311.951192 
z
" clip-path="url(#p7e067c6954)" style="fill: #f7fbff"/>
    <path d="M 368.36682 317.127575 
L 369.698623 315.834468 
L 348.615022 311.094484 
z
" clip-path="url(#p7e067c6954)" style="fill: #f7fbff"/>
    <path d="M 374.538732 311.134992 
L 369.698623 315.834468 
L 394.375471 317.168348 
z
" clip-path="url(#p7e067c6954)" style="fill: #f7fbff"/>
    <path d="M 425.653008 311.951192 
L 394.375471 317.168348 
L 414.341962 323.241169 
z
" clip-path="url(#p7e067c6954)" style="fill: #f7fbff"/>
    <path d="M 394.375471 317.168348 
L 369.698623 315.834468 
L 389.570077 321.898553 
z
" clip-path="url(#p7e067c6954)" style="fill: #f7fbff"/>
    <path d="M 449.95205 313.650266 
L 445.665222 317.989879 
L 465.808394 324.068083 
z
" clip-path="url(#p7e067c6954)" style="fill: #f7fbff"/>
    <path d="M 368.36682 317.127575 
L 388.247811 323.200129 
L 369.698623 315.834468 
z
" clip-path="url(#p7e067c6954)" style="fill: #f7fbff"/>
    <path d="M 449.95205 313.650266 
L 465.808394 324.068083 
L 470.062007 319.700059 
z
" clip-path="url(#p7e067c6954)" style="fill: #f7fbff"/>
    <path d="M 434.439484 329.353842 
L 445.665222 317.989879 
L 425.653008 311.951192 
z
" clip-path="url(#p7e067c6954)" style="fill: #f7fbff"/>
    <path d="M 369.698623 315.834468 
L 388.247811 323.200129 
L 389.570077 321.898553 
z
" clip-path="url(#p7e067c6954)" style="fill: #f7fbff"/>
    <path d="M 414.341962 323.241169 
L 434.439484 329.353842 
L 425.653008 311.951192 
z
" clip-path="url(#p7e067c6954)" style="fill: #f7fbff"/>
    <path d="M 409.571842 328.002404 
L 394.375471 317.168348 
L 389.570077 321.898553 
z
" clip-path="url(#p7e067c6954)" style="fill: #f7fbff"/>
    <path d="M 414.341962 323.241169 
L 394.375471 317.168348 
L 409.571842 328.002404 
z
" clip-path="url(#p7e067c6954)" style="fill: #f7fbff"/>
    <path d="M 389.570077 321.898553 
L 388.247811 323.200129 
L 409.571842 328.002404 
z
" clip-path="url(#p7e067c6954)" style="fill: #f7fbff"/>
    <path d="M 454.669329 335.506762 
L 465.808394 324.068083 
L 445.665222 317.989879 
z
" clip-path="url(#p7e067c6954)" style="fill: #f7fbff"/>
    <path d="M 409.571842 328.002404 
L 388.247811 323.200129 
L 408.259269 329.312532 
z
" clip-path="url(#p7e067c6954)" style="fill: #f7fbff"/>
    <path d="M 409.571842 328.002404 
L 434.439484 329.353842 
L 414.341962 323.241169 
z
" clip-path="url(#p7e067c6954)" style="fill: #f7fbff"/>
    <path d="M 445.665222 317.989879 
L 434.439484 329.353842 
L 454.669329 335.506762 
z
" clip-path="url(#p7e067c6954)" style="fill: #f7fbff"/>
    <path d="M 409.571842 328.002404 
L 429.705206 334.146414 
L 434.439484 329.353842 
z
" clip-path="url(#p7e067c6954)" style="fill: #f7fbff"/>
    <path d="M 408.259269 329.312532 
L 428.402481 335.46518 
L 409.571842 328.002404 
z
" clip-path="url(#p7e067c6954)" style="fill: #f7fbff"/>
    <path d="M 428.402481 335.46518 
L 429.705206 334.146414 
L 409.571842 328.002404 
z
" clip-path="url(#p7e067c6954)" style="fill: #f7fbff"/>
    <path d="M 454.669329 335.506762 
L 434.439484 329.353842 
L 429.705206 334.146414 
z
" clip-path="url(#p7e067c6954)" style="fill: #f7fbff"/>
    <path d="M 429.705206 334.146414 
L 449.971471 340.330981 
L 454.669329 335.506762 
z
" clip-path="url(#p7e067c6954)" style="fill: #f7fbff"/>
    <path d="M 429.705206 334.146414 
L 428.402481 335.46518 
L 448.678754 341.658469 
z
" clip-path="url(#p7e067c6954)" style="fill: #f7fbff"/>
    <path d="M 448.678754 341.658469 
L 449.971471 340.330981 
L 429.705206 334.146414 
z
" clip-path="url(#p7e067c6954)" style="fill: #f7fbff"/>
   </g>
  </g>
 </g>
 <defs>
  <clipPath id="p7e067c6954">
   <rect x="-1.8" y="-79.2" width="554.4" height="554.4"/>
  </clipPath>
 </defs>
</svg>
