<?xml version="1.0" encoding="utf-8" standalone="no"?>
<!DOCTYPE svg PUBLIC "-//W3C//DTD SVG 1.1//EN"
  "http://www.w3.org/Graphics/SVG/1.1/DTD/svg11.dtd">
<svg xmlns:xlink="http://www.w3.org/1999/xlink" width="583.2pt" height="583.2pt" viewBox="0 0 583.2 583.2" xmlns="http://www.w3.org/2000/svg" version="1.1">
 <metadata>
  <rdf:RDF xmlns:dc="http://purl.org/dc/elements/1.1/" xmlns:cc="http://creativecommons.org/ns#" xmlns:rdf="http://www.w3.org/1999/02/22-rdf-syntax-ns#">
   <cc:Work>
    <dc:type rdf:resource="http://purl.org/dc/dcmitype/StillImage"/>
    <dc:date/>
    <dc:format>image/svg+xml</dc:format>
    <dc:creator>
     <cc:Agent>
      <dc:title>Matplotlib v3.6.2, https://matplotlib.org/</dc:title>
     </cc:Agent>
    </dc:creator>
   </cc:Work>
  </rdf:RDF>
 </metadata>
 <defs>
  <style type="text/css">*{stroke-linejoin: round; stroke-linecap: butt}</style>
 </defs>
 <g id="figure_1">
  <g id="patch_1">
   <path d="M 0 583.2 
L 583.2 583.2 
L 583.2 0 
L 0 0 
z
" style="fill: #ffffff"/>
  </g>
  <g id="patch_2">
   <path d="M 14.4 568.8 
L 568.8 568.8 
L 568.8 14.4 
L 14.4 14.4 
z
" style="fill: #ffffff"/>
  </g>
  <g id="pane3d_1">
   <g id="patch_3">
    <path d="M 56.261023 432.102727 
L 239.342009 278.640614 
L 236.797008 57.320814 
L 44.954653 197.318627 
" style="fill: #f2f2f2; opacity: 0.5; stroke: #f2f2f2; stroke-linejoin: miter"/>
   </g>
  </g>
  <g id="pane3d_2">
   <g id="patch_4">
    <path d="M 239.342009 278.640614 
L 533.121668 364.030763 
L 543.605628 135.087856 
L 236.797008 57.320814 
" style="fill: #e6e6e6; opacity: 0.5; stroke: #e6e6e6; stroke-linejoin: miter"/>
   </g>
  </g>
  <g id="pane3d_3">
   <g id="patch_5">
    <path d="M 56.261023 432.102727 
L 367.68181 533.812756 
L 533.121668 364.030763 
L 239.342009 278.640614 
" style="fill: #ececec; opacity: 0.5; stroke: #ececec; stroke-linejoin: miter"/>
   </g>
  </g>
  <g id="axis3d_1">
   <g id="line2d_1">
    <path d="M 56.261023 432.102727 
L 367.68181 533.812756 
" style="fill: none; stroke: #000000; stroke-width: 0.8; stroke-linecap: square"/>
   </g>
   <g id="text_1">
    <!-- Python version -->
    <g transform="translate(155.394605 507.800845) rotate(-341.912962) scale(0.1 -0.1)">
     <defs>
      <path id="DejaVuSans-50" d="M 1259 4147 
L 1259 2394 
L 2053 2394 
Q 2494 2394 2734 2622 
Q 2975 2850 2975 3272 
Q 2975 3691 2734 3919 
Q 2494 4147 2053 4147 
L 1259 4147 
z
M 628 4666 
L 2053 4666 
Q 2838 4666 3239 4311 
Q 3641 3956 3641 3272 
Q 3641 2581 3239 2228 
Q 2838 1875 2053 1875 
L 1259 1875 
L 1259 0 
L 628 0 
L 628 4666 
z
" transform="scale(0.015625)"/>
      <path id="DejaVuSans-79" d="M 2059 -325 
Q 1816 -950 1584 -1140 
Q 1353 -1331 966 -1331 
L 506 -1331 
L 506 -850 
L 844 -850 
Q 1081 -850 1212 -737 
Q 1344 -625 1503 -206 
L 1606 56 
L 191 3500 
L 800 3500 
L 1894 763 
L 2988 3500 
L 3597 3500 
L 2059 -325 
z
" transform="scale(0.015625)"/>
      <path id="DejaVuSans-74" d="M 1172 4494 
L 1172 3500 
L 2356 3500 
L 2356 3053 
L 1172 3053 
L 1172 1153 
Q 1172 725 1289 603 
Q 1406 481 1766 481 
L 2356 481 
L 2356 0 
L 1766 0 
Q 1100 0 847 248 
Q 594 497 594 1153 
L 594 3053 
L 172 3053 
L 172 3500 
L 594 3500 
L 594 4494 
L 1172 4494 
z
" transform="scale(0.015625)"/>
      <path id="DejaVuSans-68" d="M 3513 2113 
L 3513 0 
L 2938 0 
L 2938 2094 
Q 2938 2591 2744 2837 
Q 2550 3084 2163 3084 
Q 1697 3084 1428 2787 
Q 1159 2491 1159 1978 
L 1159 0 
L 581 0 
L 581 4863 
L 1159 4863 
L 1159 2956 
Q 1366 3272 1645 3428 
Q 1925 3584 2291 3584 
Q 2894 3584 3203 3211 
Q 3513 2838 3513 2113 
z
" transform="scale(0.015625)"/>
      <path id="DejaVuSans-6f" d="M 1959 3097 
Q 1497 3097 1228 2736 
Q 959 2375 959 1747 
Q 959 1119 1226 758 
Q 1494 397 1959 397 
Q 2419 397 2687 759 
Q 2956 1122 2956 1747 
Q 2956 2369 2687 2733 
Q 2419 3097 1959 3097 
z
M 1959 3584 
Q 2709 3584 3137 3096 
Q 3566 2609 3566 1747 
Q 3566 888 3137 398 
Q 2709 -91 1959 -91 
Q 1206 -91 779 398 
Q 353 888 353 1747 
Q 353 2609 779 3096 
Q 1206 3584 1959 3584 
z
" transform="scale(0.015625)"/>
      <path id="DejaVuSans-6e" d="M 3513 2113 
L 3513 0 
L 2938 0 
L 2938 2094 
Q 2938 2591 2744 2837 
Q 2550 3084 2163 3084 
Q 1697 3084 1428 2787 
Q 1159 2491 1159 1978 
L 1159 0 
L 581 0 
L 581 3500 
L 1159 3500 
L 1159 2956 
Q 1366 3272 1645 3428 
Q 1925 3584 2291 3584 
Q 2894 3584 3203 3211 
Q 3513 2838 3513 2113 
z
" transform="scale(0.015625)"/>
      <path id="DejaVuSans-20" transform="scale(0.015625)"/>
      <path id="DejaVuSans-76" d="M 191 3500 
L 800 3500 
L 1894 563 
L 2988 3500 
L 3597 3500 
L 2284 0 
L 1503 0 
L 191 3500 
z
" transform="scale(0.015625)"/>
      <path id="DejaVuSans-65" d="M 3597 1894 
L 3597 1613 
L 953 1613 
Q 991 1019 1311 708 
Q 1631 397 2203 397 
Q 2534 397 2845 478 
Q 3156 559 3463 722 
L 3463 178 
Q 3153 47 2828 -22 
Q 2503 -91 2169 -91 
Q 1331 -91 842 396 
Q 353 884 353 1716 
Q 353 2575 817 3079 
Q 1281 3584 2069 3584 
Q 2775 3584 3186 3129 
Q 3597 2675 3597 1894 
z
M 3022 2063 
Q 3016 2534 2758 2815 
Q 2500 3097 2075 3097 
Q 1594 3097 1305 2825 
Q 1016 2553 972 2059 
L 3022 2063 
z
" transform="scale(0.015625)"/>
      <path id="DejaVuSans-72" d="M 2631 2963 
Q 2534 3019 2420 3045 
Q 2306 3072 2169 3072 
Q 1681 3072 1420 2755 
Q 1159 2438 1159 1844 
L 1159 0 
L 581 0 
L 581 3500 
L 1159 3500 
L 1159 2956 
Q 1341 3275 1631 3429 
Q 1922 3584 2338 3584 
Q 2397 3584 2469 3576 
Q 2541 3569 2628 3553 
L 2631 2963 
z
" transform="scale(0.015625)"/>
      <path id="DejaVuSans-73" d="M 2834 3397 
L 2834 2853 
Q 2591 2978 2328 3040 
Q 2066 3103 1784 3103 
Q 1356 3103 1142 2972 
Q 928 2841 928 2578 
Q 928 2378 1081 2264 
Q 1234 2150 1697 2047 
L 1894 2003 
Q 2506 1872 2764 1633 
Q 3022 1394 3022 966 
Q 3022 478 2636 193 
Q 2250 -91 1575 -91 
Q 1294 -91 989 -36 
Q 684 19 347 128 
L 347 722 
Q 666 556 975 473 
Q 1284 391 1588 391 
Q 1994 391 2212 530 
Q 2431 669 2431 922 
Q 2431 1156 2273 1281 
Q 2116 1406 1581 1522 
L 1381 1569 
Q 847 1681 609 1914 
Q 372 2147 372 2553 
Q 372 3047 722 3315 
Q 1072 3584 1716 3584 
Q 2034 3584 2315 3537 
Q 2597 3491 2834 3397 
z
" transform="scale(0.015625)"/>
      <path id="DejaVuSans-69" d="M 603 3500 
L 1178 3500 
L 1178 0 
L 603 0 
L 603 3500 
z
M 603 4863 
L 1178 4863 
L 1178 4134 
L 603 4134 
L 603 4863 
z
" transform="scale(0.015625)"/>
     </defs>
     <use xlink:href="#DejaVuSans-50"/>
     <use xlink:href="#DejaVuSans-79" x="60.302734"/>
     <use xlink:href="#DejaVuSans-74" x="119.482422"/>
     <use xlink:href="#DejaVuSans-68" x="158.691406"/>
     <use xlink:href="#DejaVuSans-6f" x="222.070312"/>
     <use xlink:href="#DejaVuSans-6e" x="283.251953"/>
     <use xlink:href="#DejaVuSans-20" x="346.630859"/>
     <use xlink:href="#DejaVuSans-76" x="378.417969"/>
     <use xlink:href="#DejaVuSans-65" x="437.597656"/>
     <use xlink:href="#DejaVuSans-72" x="499.121094"/>
     <use xlink:href="#DejaVuSans-73" x="540.234375"/>
     <use xlink:href="#DejaVuSans-69" x="592.333984"/>
     <use xlink:href="#DejaVuSans-6f" x="620.117188"/>
     <use xlink:href="#DejaVuSans-6e" x="681.298828"/>
    </g>
   </g>
   <g id="Line3DCollection_1">
    <path d="M 75.1223 438.26282 
L 257.208789 283.833782 
L 255.419208 62.040999 
" style="fill: none; stroke: #b0b0b0; stroke-width: 0.8"/>
    <path d="M 88.81352 442.734372 
L 270.172116 287.601709 
L 268.933626 65.46651 
" style="fill: none; stroke: #b0b0b0; stroke-width: 0.8"/>
    <path d="M 102.569873 447.227197 
L 283.192038 291.386087 
L 282.509576 68.907618 
" style="fill: none; stroke: #b0b0b0; stroke-width: 0.8"/>
    <path d="M 116.391826 451.741447 
L 296.268926 295.187022 
L 296.147481 72.364429 
" style="fill: none; stroke: #b0b0b0; stroke-width: 0.8"/>
    <path d="M 130.279848 456.277275 
L 309.403155 299.004623 
L 309.847764 75.837052 
" style="fill: none; stroke: #b0b0b0; stroke-width: 0.8"/>
    <path d="M 144.234415 460.834837 
L 322.595102 302.839002 
L 323.610856 79.325594 
" style="fill: none; stroke: #b0b0b0; stroke-width: 0.8"/>
    <path d="M 158.256006 465.414288 
L 335.845148 306.690267 
L 337.437188 82.830166 
" style="fill: none; stroke: #b0b0b0; stroke-width: 0.8"/>
    <path d="M 172.345105 470.015788 
L 349.15368 310.558532 
L 351.327199 86.350879 
" style="fill: none; stroke: #b0b0b0; stroke-width: 0.8"/>
    <path d="M 186.502201 474.639495 
L 362.521084 314.443908 
L 365.281328 89.887844 
" style="fill: none; stroke: #b0b0b0; stroke-width: 0.8"/>
    <path d="M 200.727787 479.285572 
L 375.947752 318.346511 
L 379.300021 93.441174 
" style="fill: none; stroke: #b0b0b0; stroke-width: 0.8"/>
    <path d="M 215.022362 483.95418 
L 389.434079 322.266454 
L 393.383727 97.010983 
" style="fill: none; stroke: #b0b0b0; stroke-width: 0.8"/>
    <path d="M 229.386428 488.645484 
L 402.980464 326.203853 
L 407.532899 100.597386 
" style="fill: none; stroke: #b0b0b0; stroke-width: 0.8"/>
    <path d="M 243.820494 493.35965 
L 416.587309 330.158825 
L 421.747995 104.200498 
" style="fill: none; stroke: #b0b0b0; stroke-width: 0.8"/>
    <path d="M 258.325072 498.096845 
L 430.255019 334.131489 
L 436.029476 107.820437 
" style="fill: none; stroke: #b0b0b0; stroke-width: 0.8"/>
    <path d="M 272.900681 502.857239 
L 443.984003 338.121963 
L 450.377809 111.457322 
" style="fill: none; stroke: #b0b0b0; stroke-width: 0.8"/>
    <path d="M 287.547843 507.641002 
L 457.774676 342.130367 
L 464.793464 115.11127 
" style="fill: none; stroke: #b0b0b0; stroke-width: 0.8"/>
    <path d="M 302.267087 512.448307 
L 471.627452 346.156822 
L 479.276917 118.782403 
" style="fill: none; stroke: #b0b0b0; stroke-width: 0.8"/>
    <path d="M 317.058946 517.279328 
L 485.542754 350.201451 
L 493.828645 122.470842 
" style="fill: none; stroke: #b0b0b0; stroke-width: 0.8"/>
    <path d="M 331.923958 522.134241 
L 499.521004 354.264377 
L 508.449135 126.17671 
" style="fill: none; stroke: #b0b0b0; stroke-width: 0.8"/>
    <path d="M 346.862668 527.013224 
L 513.562632 358.345723 
L 523.138873 129.90013 
" style="fill: none; stroke: #b0b0b0; stroke-width: 0.8"/>
   </g>
   <g id="xtick_1">
    <g id="line2d_2">
     <path d="M 76.707899 436.918061 
L 71.944299 440.958109 
" style="fill: none; stroke: #000000; stroke-width: 0.8; stroke-linecap: square"/>
    </g>
    <g id="text_2">
     <!-- 2.0 -->
     <g transform="translate(59.656214 461.541659) scale(0.1 -0.1)">
      <defs>
       <path id="DejaVuSans-32" d="M 1228 531 
L 3431 531 
L 3431 0 
L 469 0 
L 469 531 
Q 828 903 1448 1529 
Q 2069 2156 2228 2338 
Q 2531 2678 2651 2914 
Q 2772 3150 2772 3378 
Q 2772 3750 2511 3984 
Q 2250 4219 1831 4219 
Q 1534 4219 1204 4116 
Q 875 4013 500 3803 
L 500 4441 
Q 881 4594 1212 4672 
Q 1544 4750 1819 4750 
Q 2544 4750 2975 4387 
Q 3406 4025 3406 3419 
Q 3406 3131 3298 2873 
Q 3191 2616 2906 2266 
Q 2828 2175 2409 1742 
Q 1991 1309 1228 531 
z
" transform="scale(0.015625)"/>
       <path id="DejaVuSans-2e" d="M 684 794 
L 1344 794 
L 1344 0 
L 684 0 
L 684 794 
z
" transform="scale(0.015625)"/>
       <path id="DejaVuSans-30" d="M 2034 4250 
Q 1547 4250 1301 3770 
Q 1056 3291 1056 2328 
Q 1056 1369 1301 889 
Q 1547 409 2034 409 
Q 2525 409 2770 889 
Q 3016 1369 3016 2328 
Q 3016 3291 2770 3770 
Q 2525 4250 2034 4250 
z
M 2034 4750 
Q 2819 4750 3233 4129 
Q 3647 3509 3647 2328 
Q 3647 1150 3233 529 
Q 2819 -91 2034 -91 
Q 1250 -91 836 529 
Q 422 1150 422 2328 
Q 422 3509 836 4129 
Q 1250 4750 2034 4750 
z
" transform="scale(0.015625)"/>
      </defs>
      <use xlink:href="#DejaVuSans-32"/>
      <use xlink:href="#DejaVuSans-2e" x="63.623047"/>
      <use xlink:href="#DejaVuSans-30" x="95.410156"/>
     </g>
    </g>
   </g>
   <g id="xtick_2">
    <g id="line2d_3">
     <path d="M 90.393085 441.383226 
L 85.647596 445.442478 
" style="fill: none; stroke: #000000; stroke-width: 0.8; stroke-linecap: square"/>
    </g>
    <g id="text_3">
     <!-- 2.1 -->
     <g transform="translate(73.354009 466.05847) scale(0.1 -0.1)">
      <defs>
       <path id="DejaVuSans-31" d="M 794 531 
L 1825 531 
L 1825 4091 
L 703 3866 
L 703 4441 
L 1819 4666 
L 2450 4666 
L 2450 531 
L 3481 531 
L 3481 0 
L 794 0 
L 794 531 
z
" transform="scale(0.015625)"/>
      </defs>
      <use xlink:href="#DejaVuSans-32"/>
      <use xlink:href="#DejaVuSans-2e" x="63.623047"/>
      <use xlink:href="#DejaVuSans-31" x="95.410156"/>
     </g>
    </g>
   </g>
   <g id="xtick_3">
    <g id="line2d_4">
     <path d="M 104.143328 445.869617 
L 99.416178 449.948211 
" style="fill: none; stroke: #000000; stroke-width: 0.8; stroke-linecap: square"/>
    </g>
    <g id="text_4">
     <!-- 2.2 -->
     <g transform="translate(87.117086 470.596807) scale(0.1 -0.1)">
      <use xlink:href="#DejaVuSans-32"/>
      <use xlink:href="#DejaVuSans-2e" x="63.623047"/>
      <use xlink:href="#DejaVuSans-32" x="95.410156"/>
     </g>
    </g>
   </g>
   <g id="xtick_4">
    <g id="line2d_5">
     <path d="M 117.959095 450.377388 
L 113.250512 454.475461 
" style="fill: none; stroke: #000000; stroke-width: 0.8; stroke-linecap: square"/>
    </g>
    <g id="text_5">
     <!-- 2.3 -->
     <g transform="translate(100.945912 475.156825) scale(0.1 -0.1)">
      <defs>
       <path id="DejaVuSans-33" d="M 2597 2516 
Q 3050 2419 3304 2112 
Q 3559 1806 3559 1356 
Q 3559 666 3084 287 
Q 2609 -91 1734 -91 
Q 1441 -91 1130 -33 
Q 819 25 488 141 
L 488 750 
Q 750 597 1062 519 
Q 1375 441 1716 441 
Q 2309 441 2620 675 
Q 2931 909 2931 1356 
Q 2931 1769 2642 2001 
Q 2353 2234 1838 2234 
L 1294 2234 
L 1294 2753 
L 1863 2753 
Q 2328 2753 2575 2939 
Q 2822 3125 2822 3475 
Q 2822 3834 2567 4026 
Q 2313 4219 1838 4219 
Q 1578 4219 1281 4162 
Q 984 4106 628 3988 
L 628 4550 
Q 988 4650 1302 4700 
Q 1616 4750 1894 4750 
Q 2613 4750 3031 4423 
Q 3450 4097 3450 3541 
Q 3450 3153 3228 2886 
Q 3006 2619 2597 2516 
z
" transform="scale(0.015625)"/>
      </defs>
      <use xlink:href="#DejaVuSans-32"/>
      <use xlink:href="#DejaVuSans-2e" x="63.623047"/>
      <use xlink:href="#DejaVuSans-33" x="95.410156"/>
     </g>
    </g>
   </g>
   <g id="xtick_5">
    <g id="line2d_6">
     <path d="M 131.840855 454.90669 
L 127.151071 459.024383 
" style="fill: none; stroke: #000000; stroke-width: 0.8; stroke-linecap: square"/>
    </g>
    <g id="text_6">
     <!-- 2.4 -->
     <g transform="translate(114.84096 479.738679) scale(0.1 -0.1)">
      <defs>
       <path id="DejaVuSans-34" d="M 2419 4116 
L 825 1625 
L 2419 1625 
L 2419 4116 
z
M 2253 4666 
L 3047 4666 
L 3047 1625 
L 3713 1625 
L 3713 1100 
L 3047 1100 
L 3047 0 
L 2419 0 
L 2419 1100 
L 313 1100 
L 313 1709 
L 2253 4666 
z
" transform="scale(0.015625)"/>
      </defs>
      <use xlink:href="#DejaVuSans-32"/>
      <use xlink:href="#DejaVuSans-2e" x="63.623047"/>
      <use xlink:href="#DejaVuSans-34" x="95.410156"/>
     </g>
    </g>
   </g>
   <g id="xtick_6">
    <g id="line2d_7">
     <path d="M 145.789081 459.457679 
L 141.118331 463.595132 
" style="fill: none; stroke: #000000; stroke-width: 0.8; stroke-linecap: square"/>
    </g>
    <g id="text_7">
     <!-- 2.5 -->
     <g transform="translate(128.802706 484.342526) scale(0.1 -0.1)">
      <defs>
       <path id="DejaVuSans-35" d="M 691 4666 
L 3169 4666 
L 3169 4134 
L 1269 4134 
L 1269 2991 
Q 1406 3038 1543 3061 
Q 1681 3084 1819 3084 
Q 2600 3084 3056 2656 
Q 3513 2228 3513 1497 
Q 3513 744 3044 326 
Q 2575 -91 1722 -91 
Q 1428 -91 1123 -41 
Q 819 9 494 109 
L 494 744 
Q 775 591 1075 516 
Q 1375 441 1709 441 
Q 2250 441 2565 725 
Q 2881 1009 2881 1497 
Q 2881 1984 2565 2268 
Q 2250 2553 1709 2553 
Q 1456 2553 1204 2497 
Q 953 2441 691 2322 
L 691 4666 
z
" transform="scale(0.015625)"/>
      </defs>
      <use xlink:href="#DejaVuSans-32"/>
      <use xlink:href="#DejaVuSans-2e" x="63.623047"/>
      <use xlink:href="#DejaVuSans-35" x="95.410156"/>
     </g>
    </g>
   </g>
   <g id="xtick_7">
    <g id="line2d_8">
     <path d="M 159.804252 464.03051 
L 155.152773 468.187867 
" style="fill: none; stroke: #000000; stroke-width: 0.8; stroke-linecap: square"/>
    </g>
    <g id="text_8">
     <!-- 2.6 -->
     <g transform="translate(142.831632 488.968526) scale(0.1 -0.1)">
      <defs>
       <path id="DejaVuSans-36" d="M 2113 2584 
Q 1688 2584 1439 2293 
Q 1191 2003 1191 1497 
Q 1191 994 1439 701 
Q 1688 409 2113 409 
Q 2538 409 2786 701 
Q 3034 994 3034 1497 
Q 3034 2003 2786 2293 
Q 2538 2584 2113 2584 
z
M 3366 4563 
L 3366 3988 
Q 3128 4100 2886 4159 
Q 2644 4219 2406 4219 
Q 1781 4219 1451 3797 
Q 1122 3375 1075 2522 
Q 1259 2794 1537 2939 
Q 1816 3084 2150 3084 
Q 2853 3084 3261 2657 
Q 3669 2231 3669 1497 
Q 3669 778 3244 343 
Q 2819 -91 2113 -91 
Q 1303 -91 875 529 
Q 447 1150 447 2328 
Q 447 3434 972 4092 
Q 1497 4750 2381 4750 
Q 2619 4750 2861 4703 
Q 3103 4656 3366 4563 
z
" transform="scale(0.015625)"/>
      </defs>
      <use xlink:href="#DejaVuSans-32"/>
      <use xlink:href="#DejaVuSans-2e" x="63.623047"/>
      <use xlink:href="#DejaVuSans-36" x="95.410156"/>
     </g>
    </g>
   </g>
   <g id="xtick_8">
    <g id="line2d_9">
     <path d="M 173.886852 468.625342 
L 169.254884 472.802747 
" style="fill: none; stroke: #000000; stroke-width: 0.8; stroke-linecap: square"/>
    </g>
    <g id="text_9">
     <!-- 2.7 -->
     <g transform="translate(156.928223 493.616838) scale(0.1 -0.1)">
      <defs>
       <path id="DejaVuSans-37" d="M 525 4666 
L 3525 4666 
L 3525 4397 
L 1831 0 
L 1172 0 
L 2766 4134 
L 525 4134 
L 525 4666 
z
" transform="scale(0.015625)"/>
      </defs>
      <use xlink:href="#DejaVuSans-32"/>
      <use xlink:href="#DejaVuSans-2e" x="63.623047"/>
      <use xlink:href="#DejaVuSans-37" x="95.410156"/>
     </g>
    </g>
   </g>
   <g id="xtick_9">
    <g id="line2d_10">
     <path d="M 188.037367 473.242334 
L 183.425153 477.43993 
" style="fill: none; stroke: #000000; stroke-width: 0.8; stroke-linecap: square"/>
    </g>
    <g id="text_10">
     <!-- 3.0 -->
     <g transform="translate(171.092971 498.287625) scale(0.1 -0.1)">
      <use xlink:href="#DejaVuSans-33"/>
      <use xlink:href="#DejaVuSans-2e" x="63.623047"/>
      <use xlink:href="#DejaVuSans-30" x="95.410156"/>
     </g>
    </g>
   </g>
   <g id="xtick_10">
    <g id="line2d_11">
     <path d="M 202.256291 477.881645 
L 197.664077 482.099581 
" style="fill: none; stroke: #000000; stroke-width: 0.8; stroke-linecap: square"/>
    </g>
    <g id="text_11">
     <!-- 3.1 -->
     <g transform="translate(185.326371 502.98105) scale(0.1 -0.1)">
      <use xlink:href="#DejaVuSans-33"/>
      <use xlink:href="#DejaVuSans-2e" x="63.623047"/>
      <use xlink:href="#DejaVuSans-31" x="95.410156"/>
     </g>
    </g>
   </g>
   <g id="xtick_11">
    <g id="line2d_12">
     <path d="M 216.544121 482.543439 
L 211.972155 486.781863 
" style="fill: none; stroke: #000000; stroke-width: 0.8; stroke-linecap: square"/>
    </g>
    <g id="text_12">
     <!-- 3.2 -->
     <g transform="translate(199.628923 507.697277) scale(0.1 -0.1)">
      <use xlink:href="#DejaVuSans-33"/>
      <use xlink:href="#DejaVuSans-2e" x="63.623047"/>
      <use xlink:href="#DejaVuSans-32" x="95.410156"/>
     </g>
    </g>
   </g>
   <g id="xtick_12">
    <g id="line2d_13">
     <path d="M 230.901359 487.227879 
L 226.349892 491.48694 
" style="fill: none; stroke: #000000; stroke-width: 0.8; stroke-linecap: square"/>
    </g>
    <g id="text_13">
     <!-- 3.3 -->
     <g transform="translate(214.001132 512.436474) scale(0.1 -0.1)">
      <use xlink:href="#DejaVuSans-33"/>
      <use xlink:href="#DejaVuSans-2e" x="63.623047"/>
      <use xlink:href="#DejaVuSans-33" x="95.410156"/>
     </g>
    </g>
   </g>
   <g id="xtick_13">
    <g id="line2d_14">
     <path d="M 245.328511 491.935131 
L 240.797799 496.21498 
" style="fill: none; stroke: #000000; stroke-width: 0.8; stroke-linecap: square"/>
    </g>
    <g id="text_14">
     <!-- 3.4 -->
     <g transform="translate(228.443509 517.198808) scale(0.1 -0.1)">
      <use xlink:href="#DejaVuSans-33"/>
      <use xlink:href="#DejaVuSans-2e" x="63.623047"/>
      <use xlink:href="#DejaVuSans-34" x="95.410156"/>
     </g>
    </g>
   </g>
   <g id="xtick_14">
    <g id="line2d_15">
     <path d="M 259.82609 496.665361 
L 255.31639 500.966151 
" style="fill: none; stroke: #000000; stroke-width: 0.8; stroke-linecap: square"/>
    </g>
    <g id="text_15">
     <!-- 3.5 -->
     <g transform="translate(242.956569 521.98445) scale(0.1 -0.1)">
      <use xlink:href="#DejaVuSans-33"/>
      <use xlink:href="#DejaVuSans-2e" x="63.623047"/>
      <use xlink:href="#DejaVuSans-35" x="95.410156"/>
     </g>
    </g>
   </g>
   <g id="xtick_15">
    <g id="line2d_16">
     <path d="M 274.394613 501.418738 
L 269.906185 505.740624 
" style="fill: none; stroke: #000000; stroke-width: 0.8; stroke-linecap: square"/>
    </g>
    <g id="text_16">
     <!-- 3.6 -->
     <g transform="translate(257.540832 526.793571) scale(0.1 -0.1)">
      <use xlink:href="#DejaVuSans-33"/>
      <use xlink:href="#DejaVuSans-2e" x="63.623047"/>
      <use xlink:href="#DejaVuSans-36" x="95.410156"/>
     </g>
    </g>
   </g>
   <g id="xtick_16">
    <g id="line2d_17">
     <path d="M 289.034602 506.195434 
L 284.567709 510.53857 
" style="fill: none; stroke: #000000; stroke-width: 0.8; stroke-linecap: square"/>
    </g>
    <g id="text_17">
     <!-- 3.7 -->
     <g transform="translate(272.196823 531.626344) scale(0.1 -0.1)">
      <use xlink:href="#DejaVuSans-33"/>
      <use xlink:href="#DejaVuSans-2e" x="63.623047"/>
      <use xlink:href="#DejaVuSans-37" x="95.410156"/>
     </g>
    </g>
   </g>
   <g id="xtick_17">
    <g id="line2d_18">
     <path d="M 303.746584 510.995619 
L 299.301493 515.360163 
" style="fill: none; stroke: #000000; stroke-width: 0.8; stroke-linecap: square"/>
    </g>
    <g id="text_18">
     <!-- 3.8 -->
     <g transform="translate(286.925072 536.482944) scale(0.1 -0.1)">
      <defs>
       <path id="DejaVuSans-38" d="M 2034 2216 
Q 1584 2216 1326 1975 
Q 1069 1734 1069 1313 
Q 1069 891 1326 650 
Q 1584 409 2034 409 
Q 2484 409 2743 651 
Q 3003 894 3003 1313 
Q 3003 1734 2745 1975 
Q 2488 2216 2034 2216 
z
M 1403 2484 
Q 997 2584 770 2862 
Q 544 3141 544 3541 
Q 544 4100 942 4425 
Q 1341 4750 2034 4750 
Q 2731 4750 3128 4425 
Q 3525 4100 3525 3541 
Q 3525 3141 3298 2862 
Q 3072 2584 2669 2484 
Q 3125 2378 3379 2068 
Q 3634 1759 3634 1313 
Q 3634 634 3220 271 
Q 2806 -91 2034 -91 
Q 1263 -91 848 271 
Q 434 634 434 1313 
Q 434 1759 690 2068 
Q 947 2378 1403 2484 
z
M 1172 3481 
Q 1172 3119 1398 2916 
Q 1625 2713 2034 2713 
Q 2441 2713 2670 2916 
Q 2900 3119 2900 3481 
Q 2900 3844 2670 4047 
Q 2441 4250 2034 4250 
Q 1625 4250 1398 4047 
Q 1172 3844 1172 3481 
z
" transform="scale(0.015625)"/>
      </defs>
      <use xlink:href="#DejaVuSans-33"/>
      <use xlink:href="#DejaVuSans-2e" x="63.623047"/>
      <use xlink:href="#DejaVuSans-38" x="95.410156"/>
     </g>
    </g>
   </g>
   <g id="xtick_18">
    <g id="line2d_19">
     <path d="M 318.531091 515.819467 
L 314.108072 520.205577 
" style="fill: none; stroke: #000000; stroke-width: 0.8; stroke-linecap: square"/>
    </g>
    <g id="text_19">
     <!-- 3.9 -->
     <g transform="translate(301.726116 541.363548) scale(0.1 -0.1)">
      <defs>
       <path id="DejaVuSans-39" d="M 703 97 
L 703 672 
Q 941 559 1184 500 
Q 1428 441 1663 441 
Q 2288 441 2617 861 
Q 2947 1281 2994 2138 
Q 2813 1869 2534 1725 
Q 2256 1581 1919 1581 
Q 1219 1581 811 2004 
Q 403 2428 403 3163 
Q 403 3881 828 4315 
Q 1253 4750 1959 4750 
Q 2769 4750 3195 4129 
Q 3622 3509 3622 2328 
Q 3622 1225 3098 567 
Q 2575 -91 1691 -91 
Q 1453 -91 1209 -44 
Q 966 3 703 97 
z
M 1959 2075 
Q 2384 2075 2632 2365 
Q 2881 2656 2881 3163 
Q 2881 3666 2632 3958 
Q 2384 4250 1959 4250 
Q 1534 4250 1286 3958 
Q 1038 3666 1038 3163 
Q 1038 2656 1286 2365 
Q 1534 2075 1959 2075 
z
" transform="scale(0.015625)"/>
      </defs>
      <use xlink:href="#DejaVuSans-33"/>
      <use xlink:href="#DejaVuSans-2e" x="63.623047"/>
      <use xlink:href="#DejaVuSans-39" x="95.410156"/>
     </g>
    </g>
   </g>
   <g id="xtick_19">
    <g id="line2d_20">
     <path d="M 333.388661 520.667154 
L 328.987987 525.074991 
" style="fill: none; stroke: #000000; stroke-width: 0.8; stroke-linecap: square"/>
    </g>
    <g id="text_20">
     <!-- 3.10 -->
     <g transform="translate(313.419245 546.268333) scale(0.1 -0.1)">
      <use xlink:href="#DejaVuSans-33"/>
      <use xlink:href="#DejaVuSans-2e" x="63.623047"/>
      <use xlink:href="#DejaVuSans-31" x="95.410156"/>
      <use xlink:href="#DejaVuSans-30" x="159.033203"/>
     </g>
    </g>
   </g>
   <g id="xtick_20">
    <g id="line2d_21">
     <path d="M 348.319837 525.538857 
L 343.941785 529.968583 
" style="fill: none; stroke: #000000; stroke-width: 0.8; stroke-linecap: square"/>
    </g>
    <g id="text_21">
     <!-- 3.11 -->
     <g transform="translate(328.367506 551.197482) scale(0.1 -0.1)">
      <use xlink:href="#DejaVuSans-33"/>
      <use xlink:href="#DejaVuSans-2e" x="63.623047"/>
      <use xlink:href="#DejaVuSans-31" x="95.410156"/>
      <use xlink:href="#DejaVuSans-31" x="159.033203"/>
     </g>
    </g>
   </g>
  </g>
  <g id="axis3d_2">
   <g id="line2d_22">
    <path d="M 533.121668 364.030763 
L 367.68181 533.812756 
" style="fill: none; stroke: #000000; stroke-width: 0.8; stroke-linecap: square"/>
   </g>
   <g id="text_22">
    <!-- Release date -->
    <g transform="translate(460.423213 498.244272) rotate(-45.742112) scale(0.1 -0.1)">
     <defs>
      <path id="DejaVuSans-52" d="M 2841 2188 
Q 3044 2119 3236 1894 
Q 3428 1669 3622 1275 
L 4263 0 
L 3584 0 
L 2988 1197 
Q 2756 1666 2539 1819 
Q 2322 1972 1947 1972 
L 1259 1972 
L 1259 0 
L 628 0 
L 628 4666 
L 2053 4666 
Q 2853 4666 3247 4331 
Q 3641 3997 3641 3322 
Q 3641 2881 3436 2590 
Q 3231 2300 2841 2188 
z
M 1259 4147 
L 1259 2491 
L 2053 2491 
Q 2509 2491 2742 2702 
Q 2975 2913 2975 3322 
Q 2975 3731 2742 3939 
Q 2509 4147 2053 4147 
L 1259 4147 
z
" transform="scale(0.015625)"/>
      <path id="DejaVuSans-6c" d="M 603 4863 
L 1178 4863 
L 1178 0 
L 603 0 
L 603 4863 
z
" transform="scale(0.015625)"/>
      <path id="DejaVuSans-61" d="M 2194 1759 
Q 1497 1759 1228 1600 
Q 959 1441 959 1056 
Q 959 750 1161 570 
Q 1363 391 1709 391 
Q 2188 391 2477 730 
Q 2766 1069 2766 1631 
L 2766 1759 
L 2194 1759 
z
M 3341 1997 
L 3341 0 
L 2766 0 
L 2766 531 
Q 2569 213 2275 61 
Q 1981 -91 1556 -91 
Q 1019 -91 701 211 
Q 384 513 384 1019 
Q 384 1609 779 1909 
Q 1175 2209 1959 2209 
L 2766 2209 
L 2766 2266 
Q 2766 2663 2505 2880 
Q 2244 3097 1772 3097 
Q 1472 3097 1187 3025 
Q 903 2953 641 2809 
L 641 3341 
Q 956 3463 1253 3523 
Q 1550 3584 1831 3584 
Q 2591 3584 2966 3190 
Q 3341 2797 3341 1997 
z
" transform="scale(0.015625)"/>
      <path id="DejaVuSans-64" d="M 2906 2969 
L 2906 4863 
L 3481 4863 
L 3481 0 
L 2906 0 
L 2906 525 
Q 2725 213 2448 61 
Q 2172 -91 1784 -91 
Q 1150 -91 751 415 
Q 353 922 353 1747 
Q 353 2572 751 3078 
Q 1150 3584 1784 3584 
Q 2172 3584 2448 3432 
Q 2725 3281 2906 2969 
z
M 947 1747 
Q 947 1113 1208 752 
Q 1469 391 1925 391 
Q 2381 391 2643 752 
Q 2906 1113 2906 1747 
Q 2906 2381 2643 2742 
Q 2381 3103 1925 3103 
Q 1469 3103 1208 2742 
Q 947 2381 947 1747 
z
" transform="scale(0.015625)"/>
     </defs>
     <use xlink:href="#DejaVuSans-52"/>
     <use xlink:href="#DejaVuSans-65" x="64.982422"/>
     <use xlink:href="#DejaVuSans-6c" x="126.505859"/>
     <use xlink:href="#DejaVuSans-65" x="154.289062"/>
     <use xlink:href="#DejaVuSans-61" x="215.8125"/>
     <use xlink:href="#DejaVuSans-73" x="277.091797"/>
     <use xlink:href="#DejaVuSans-65" x="329.191406"/>
     <use xlink:href="#DejaVuSans-20" x="390.714844"/>
     <use xlink:href="#DejaVuSans-64" x="422.501953"/>
     <use xlink:href="#DejaVuSans-61" x="485.978516"/>
     <use xlink:href="#DejaVuSans-74" x="547.257812"/>
     <use xlink:href="#DejaVuSans-65" x="586.466797"/>
    </g>
   </g>
   <g id="Line3DCollection_2">
    <path d="M 86.798688 166.782756 
L 96.075625 398.729339 
L 403.784454 496.762562 
" style="fill: none; stroke: #b0b0b0; stroke-width: 0.8"/>
    <path d="M 123.786294 139.790886 
L 131.324229 369.18326 
L 435.688912 464.020739 
" style="fill: none; stroke: #b0b0b0; stroke-width: 0.8"/>
    <path d="M 159.556267 113.687589 
L 165.461556 340.568675 
L 466.535846 432.364197 
" style="fill: none; stroke: #b0b0b0; stroke-width: 0.8"/>
    <path d="M 194.136691 88.452371 
L 198.509632 312.867123 
L 496.350193 401.767342 
" style="fill: none; stroke: #b0b0b0; stroke-width: 0.8"/>
    <path d="M 227.646068 63.998753 
L 230.577356 285.98732 
L 525.234777 372.124653 
" style="fill: none; stroke: #b0b0b0; stroke-width: 0.8"/>
   </g>
   <g id="xtick_21">
    <g id="line2d_23">
     <path d="M 401.193071 495.936971 
L 408.973835 498.415852 
" style="fill: none; stroke: #000000; stroke-width: 0.8; stroke-linecap: square"/>
    </g>
    <g id="text_23">
     <!-- 2011 -->
     <g transform="translate(403.777481 517.600371) scale(0.1 -0.1)">
      <use xlink:href="#DejaVuSans-32"/>
      <use xlink:href="#DejaVuSans-30" x="63.623047"/>
      <use xlink:href="#DejaVuSans-31" x="127.246094"/>
      <use xlink:href="#DejaVuSans-31" x="190.869141"/>
     </g>
    </g>
   </g>
   <g id="xtick_22">
    <g id="line2d_24">
     <path d="M 433.127854 463.222734 
L 440.817458 465.61875 
" style="fill: none; stroke: #000000; stroke-width: 0.8; stroke-linecap: square"/>
    </g>
    <g id="text_24">
     <!-- 2014 -->
     <g transform="translate(435.476444 484.626237) scale(0.1 -0.1)">
      <use xlink:href="#DejaVuSans-32"/>
      <use xlink:href="#DejaVuSans-30" x="63.623047"/>
      <use xlink:href="#DejaVuSans-31" x="127.246094"/>
      <use xlink:href="#DejaVuSans-34" x="190.869141"/>
     </g>
    </g>
   </g>
   <g id="xtick_23">
    <g id="line2d_25">
     <path d="M 464.004541 431.592419 
L 471.604703 433.909657 
" style="fill: none; stroke: #000000; stroke-width: 0.8; stroke-linecap: square"/>
    </g>
    <g id="text_25">
     <!-- 2017 -->
     <g transform="translate(466.124405 452.745385) scale(0.1 -0.1)">
      <use xlink:href="#DejaVuSans-32"/>
      <use xlink:href="#DejaVuSans-30" x="63.623047"/>
      <use xlink:href="#DejaVuSans-31" x="127.246094"/>
      <use xlink:href="#DejaVuSans-37" x="190.869141"/>
     </g>
    </g>
   </g>
   <g id="xtick_24">
    <g id="line2d_26">
     <path d="M 493.848052 401.020497 
L 501.360549 403.262846 
" style="fill: none; stroke: #000000; stroke-width: 0.8; stroke-linecap: square"/>
    </g>
    <g id="text_26">
     <!-- 2020 -->
     <g transform="translate(495.746172 421.932009) scale(0.1 -0.1)">
      <use xlink:href="#DejaVuSans-32"/>
      <use xlink:href="#DejaVuSans-30" x="63.623047"/>
      <use xlink:href="#DejaVuSans-32" x="127.246094"/>
      <use xlink:href="#DejaVuSans-30" x="190.869141"/>
     </g>
    </g>
   </g>
   <g id="xtick_25">
    <g id="line2d_27">
     <path d="M 522.761273 371.401572 
L 530.187696 373.572541 
" style="fill: none; stroke: #000000; stroke-width: 0.8; stroke-linecap: square"/>
    </g>
    <g id="text_27">
     <!-- 2023 -->
     <g transform="translate(524.443929 392.079813) scale(0.1 -0.1)">
      <use xlink:href="#DejaVuSans-32"/>
      <use xlink:href="#DejaVuSans-30" x="63.623047"/>
      <use xlink:href="#DejaVuSans-32" x="127.246094"/>
      <use xlink:href="#DejaVuSans-33" x="190.869141"/>
     </g>
    </g>
   </g>
  </g>
  <g id="axis3d_3">
   <g id="line2d_28">
    <path d="M 533.121668 364.030763 
L 543.605628 135.087856 
" style="fill: none; stroke: #000000; stroke-width: 0.8; stroke-linecap: square"/>
   </g>
   <g id="text_28">
    <!-- Amount of version-specific features -->
    <g transform="translate(577.454291 335.569915) rotate(-87.378092) scale(0.1 -0.1)">
     <defs>
      <path id="DejaVuSans-41" d="M 2188 4044 
L 1331 1722 
L 3047 1722 
L 2188 4044 
z
M 1831 4666 
L 2547 4666 
L 4325 0 
L 3669 0 
L 3244 1197 
L 1141 1197 
L 716 0 
L 50 0 
L 1831 4666 
z
" transform="scale(0.015625)"/>
      <path id="DejaVuSans-6d" d="M 3328 2828 
Q 3544 3216 3844 3400 
Q 4144 3584 4550 3584 
Q 5097 3584 5394 3201 
Q 5691 2819 5691 2113 
L 5691 0 
L 5113 0 
L 5113 2094 
Q 5113 2597 4934 2840 
Q 4756 3084 4391 3084 
Q 3944 3084 3684 2787 
Q 3425 2491 3425 1978 
L 3425 0 
L 2847 0 
L 2847 2094 
Q 2847 2600 2669 2842 
Q 2491 3084 2119 3084 
Q 1678 3084 1418 2786 
Q 1159 2488 1159 1978 
L 1159 0 
L 581 0 
L 581 3500 
L 1159 3500 
L 1159 2956 
Q 1356 3278 1631 3431 
Q 1906 3584 2284 3584 
Q 2666 3584 2933 3390 
Q 3200 3197 3328 2828 
z
" transform="scale(0.015625)"/>
      <path id="DejaVuSans-75" d="M 544 1381 
L 544 3500 
L 1119 3500 
L 1119 1403 
Q 1119 906 1312 657 
Q 1506 409 1894 409 
Q 2359 409 2629 706 
Q 2900 1003 2900 1516 
L 2900 3500 
L 3475 3500 
L 3475 0 
L 2900 0 
L 2900 538 
Q 2691 219 2414 64 
Q 2138 -91 1772 -91 
Q 1169 -91 856 284 
Q 544 659 544 1381 
z
M 1991 3584 
L 1991 3584 
z
" transform="scale(0.015625)"/>
      <path id="DejaVuSans-66" d="M 2375 4863 
L 2375 4384 
L 1825 4384 
Q 1516 4384 1395 4259 
Q 1275 4134 1275 3809 
L 1275 3500 
L 2222 3500 
L 2222 3053 
L 1275 3053 
L 1275 0 
L 697 0 
L 697 3053 
L 147 3053 
L 147 3500 
L 697 3500 
L 697 3744 
Q 697 4328 969 4595 
Q 1241 4863 1831 4863 
L 2375 4863 
z
" transform="scale(0.015625)"/>
      <path id="DejaVuSans-2d" d="M 313 2009 
L 1997 2009 
L 1997 1497 
L 313 1497 
L 313 2009 
z
" transform="scale(0.015625)"/>
      <path id="DejaVuSans-70" d="M 1159 525 
L 1159 -1331 
L 581 -1331 
L 581 3500 
L 1159 3500 
L 1159 2969 
Q 1341 3281 1617 3432 
Q 1894 3584 2278 3584 
Q 2916 3584 3314 3078 
Q 3713 2572 3713 1747 
Q 3713 922 3314 415 
Q 2916 -91 2278 -91 
Q 1894 -91 1617 61 
Q 1341 213 1159 525 
z
M 3116 1747 
Q 3116 2381 2855 2742 
Q 2594 3103 2138 3103 
Q 1681 3103 1420 2742 
Q 1159 2381 1159 1747 
Q 1159 1113 1420 752 
Q 1681 391 2138 391 
Q 2594 391 2855 752 
Q 3116 1113 3116 1747 
z
" transform="scale(0.015625)"/>
      <path id="DejaVuSans-63" d="M 3122 3366 
L 3122 2828 
Q 2878 2963 2633 3030 
Q 2388 3097 2138 3097 
Q 1578 3097 1268 2742 
Q 959 2388 959 1747 
Q 959 1106 1268 751 
Q 1578 397 2138 397 
Q 2388 397 2633 464 
Q 2878 531 3122 666 
L 3122 134 
Q 2881 22 2623 -34 
Q 2366 -91 2075 -91 
Q 1284 -91 818 406 
Q 353 903 353 1747 
Q 353 2603 823 3093 
Q 1294 3584 2113 3584 
Q 2378 3584 2631 3529 
Q 2884 3475 3122 3366 
z
" transform="scale(0.015625)"/>
     </defs>
     <use xlink:href="#DejaVuSans-41"/>
     <use xlink:href="#DejaVuSans-6d" x="68.408203"/>
     <use xlink:href="#DejaVuSans-6f" x="165.820312"/>
     <use xlink:href="#DejaVuSans-75" x="227.001953"/>
     <use xlink:href="#DejaVuSans-6e" x="290.380859"/>
     <use xlink:href="#DejaVuSans-74" x="353.759766"/>
     <use xlink:href="#DejaVuSans-20" x="392.96875"/>
     <use xlink:href="#DejaVuSans-6f" x="424.755859"/>
     <use xlink:href="#DejaVuSans-66" x="485.9375"/>
     <use xlink:href="#DejaVuSans-20" x="521.142578"/>
     <use xlink:href="#DejaVuSans-76" x="552.929688"/>
     <use xlink:href="#DejaVuSans-65" x="612.109375"/>
     <use xlink:href="#DejaVuSans-72" x="673.632812"/>
     <use xlink:href="#DejaVuSans-73" x="714.746094"/>
     <use xlink:href="#DejaVuSans-69" x="766.845703"/>
     <use xlink:href="#DejaVuSans-6f" x="794.628906"/>
     <use xlink:href="#DejaVuSans-6e" x="855.810547"/>
     <use xlink:href="#DejaVuSans-2d" x="919.189453"/>
     <use xlink:href="#DejaVuSans-73" x="955.273438"/>
     <use xlink:href="#DejaVuSans-70" x="1007.373047"/>
     <use xlink:href="#DejaVuSans-65" x="1070.849609"/>
     <use xlink:href="#DejaVuSans-63" x="1132.373047"/>
     <use xlink:href="#DejaVuSans-69" x="1187.353516"/>
     <use xlink:href="#DejaVuSans-66" x="1215.136719"/>
     <use xlink:href="#DejaVuSans-69" x="1250.341797"/>
     <use xlink:href="#DejaVuSans-63" x="1278.125"/>
     <use xlink:href="#DejaVuSans-20" x="1333.105469"/>
     <use xlink:href="#DejaVuSans-66" x="1364.892578"/>
     <use xlink:href="#DejaVuSans-65" x="1400.097656"/>
     <use xlink:href="#DejaVuSans-61" x="1461.621094"/>
     <use xlink:href="#DejaVuSans-74" x="1522.900391"/>
     <use xlink:href="#DejaVuSans-75" x="1562.109375"/>
     <use xlink:href="#DejaVuSans-72" x="1625.488281"/>
     <use xlink:href="#DejaVuSans-65" x="1664.351562"/>
     <use xlink:href="#DejaVuSans-73" x="1725.875"/>
    </g>
   </g>
   <g id="Line3DCollection_3">
    <path d="M 533.322529 359.64447 
L 239.293149 274.391583 
L 56.044764 427.611957 
" style="fill: none; stroke: #b0b0b0; stroke-width: 0.8"/>
    <path d="M 535.315597 316.120953 
L 238.808539 232.248696 
L 53.898145 383.036032 
" style="fill: none; stroke: #b0b0b0; stroke-width: 0.8"/>
    <path d="M 537.342874 271.850396 
L 238.316011 189.417176 
L 51.71327 337.665692 
" style="fill: none; stroke: #b0b0b0; stroke-width: 0.8"/>
    <path d="M 539.405249 226.813399 
L 237.815368 145.880005 
L 49.489108 291.47951 
" style="fill: none; stroke: #b0b0b0; stroke-width: 0.8"/>
    <path d="M 541.503641 180.989886 
L 237.306409 101.619599 
L 47.224587 244.455279 
" style="fill: none; stroke: #b0b0b0; stroke-width: 0.8"/>
   </g>
   <g id="xtick_26">
    <g id="line2d_29">
     <path d="M 530.854713 358.928935 
L 538.264034 361.077244 
" style="fill: none; stroke: #000000; stroke-width: 0.8; stroke-linecap: square"/>
    </g>
    <g id="text_29">
     <!-- 0.0 -->
     <g transform="translate(543.663475 364.637934) scale(0.1 -0.1)">
      <use xlink:href="#DejaVuSans-30"/>
      <use xlink:href="#DejaVuSans-2e" x="63.623047"/>
      <use xlink:href="#DejaVuSans-30" x="95.410156"/>
     </g>
    </g>
   </g>
   <g id="xtick_27">
    <g id="line2d_30">
     <path d="M 532.825995 315.416725 
L 540.300778 317.531099 
" style="fill: none; stroke: #000000; stroke-width: 0.8; stroke-linecap: square"/>
    </g>
    <g id="text_30">
     <!-- 0.1 -->
     <g transform="translate(545.809068 321.155605) scale(0.1 -0.1)">
      <use xlink:href="#DejaVuSans-30"/>
      <use xlink:href="#DejaVuSans-2e" x="63.623047"/>
      <use xlink:href="#DejaVuSans-31" x="95.410156"/>
     </g>
    </g>
   </g>
   <g id="xtick_28">
    <g id="line2d_31">
     <path d="M 534.831098 271.15797 
L 542.372509 273.236923 
" style="fill: none; stroke: #000000; stroke-width: 0.8; stroke-linecap: square"/>
    </g>
    <g id="text_31">
     <!-- 0.2 -->
     <g transform="translate(547.991435 276.928039) scale(0.1 -0.1)">
      <use xlink:href="#DejaVuSans-30"/>
      <use xlink:href="#DejaVuSans-2e" x="63.623047"/>
      <use xlink:href="#DejaVuSans-32" x="95.410156"/>
     </g>
    </g>
   </g>
   <g id="xtick_29">
    <g id="line2d_32">
     <path d="M 536.8709 226.133292 
L 544.480137 228.175275 
" style="fill: none; stroke: #000000; stroke-width: 0.8; stroke-linecap: square"/>
    </g>
    <g id="text_32">
     <!-- 0.3 -->
     <g transform="translate(550.211527 231.93591) scale(0.1 -0.1)">
      <use xlink:href="#DejaVuSans-30"/>
      <use xlink:href="#DejaVuSans-2e" x="63.623047"/>
      <use xlink:href="#DejaVuSans-33" x="95.410156"/>
     </g>
    </g>
   </g>
   <g id="xtick_30">
    <g id="line2d_33">
     <path d="M 538.946311 180.322635 
L 546.624601 182.326033 
" style="fill: none; stroke: #000000; stroke-width: 0.8; stroke-linecap: square"/>
    </g>
    <g id="text_33">
     <!-- 0.4 -->
     <g transform="translate(552.470333 186.159221) scale(0.1 -0.1)">
      <use xlink:href="#DejaVuSans-30"/>
      <use xlink:href="#DejaVuSans-2e" x="63.623047"/>
      <use xlink:href="#DejaVuSans-34" x="95.410156"/>
     </g>
    </g>
   </g>
  </g>
  <g id="axes_1">
   <g id="line2d_34">
    <path d="M 170.394033 449.937974 
L 204.995115 435.990733 
L 200.593466 457.19907 
L 221.3583 455.739299 
L 254.536253 442.772451 
L 286.777515 430.436155 
L 316.99047 419.77708 
L 347.241927 408.87707 
L 374.880351 400.276231 
L 404.62307 389.466153 
L 431.902969 380.855251 
L 455.764405 375.454719 
L 479.671779 369.89956 
L 503.98433 363.822422 
" clip-path="url(#p199e8595ac)" style="fill: none; stroke: #ff0000; stroke-width: 1.5; stroke-linecap: square"/>
   </g>
   <g id="Poly3DCollection_1">
    <path d="M 242.286741 291.610045 
L 233.019962 300.011049 
L 255.324223 295.426129 
z
" clip-path="url(#p199e8595ac)" style="fill: #f7fbff"/>
    <path d="M 233.019962 300.011049 
L 246.080549 302.494996 
L 255.324223 295.426129 
z
" clip-path="url(#p199e8595ac)" style="fill: #f7fbff"/>
    <path d="M 233.019962 300.011049 
L 230.485057 302.155595 
L 246.080549 302.494996 
z
" clip-path="url(#p199e8595ac)" style="fill: #f7fbff"/>
    <path d="M 230.485057 302.155595 
L 243.55537 304.640116 
L 246.080549 302.494996 
z
" clip-path="url(#p199e8595ac)" style="fill: #f6faff"/>
    <path d="M 229.960136 316.868098 
L 243.55537 304.640116 
L 230.485057 302.155595 
z
" clip-path="url(#p199e8595ac)" style="fill: #f6faff"/>
    <path d="M 255.324223 295.426129 
L 246.080549 302.494996 
L 258.680853 236.947732 
z
" clip-path="url(#p199e8595ac)" style="fill: #dbe9f6"/>
    <path d="M 229.960136 316.868098 
L 230.485057 302.155595 
L 216.822831 313.332958 
z
" clip-path="url(#p199e8595ac)" style="fill: #f7fbff"/>
    <path d="M 256.128539 238.643725 
L 246.080549 302.494996 
L 243.55537 304.640116 
z
" clip-path="url(#p199e8595ac)" style="fill: #dae8f6"/>
    <path d="M 258.680853 236.947732 
L 268.086606 243.158785 
L 255.324223 295.426129 
z
" clip-path="url(#p199e8595ac)" style="fill: #c4daee"/>
    <path d="M 229.960136 316.868098 
L 216.822831 313.332958 
L 206.778919 321.452861 
z
" clip-path="url(#p199e8595ac)" style="fill: #f7fbff"/>
    <path d="M 285.565954 276.782408 
L 294.758836 278.570329 
L 281.523343 288.825422 
z
" clip-path="url(#p199e8595ac)" style="fill: #d6e6f4"/>
    <path d="M 281.523343 288.825422 
L 272.323383 293.384712 
L 285.565954 276.782408 
z
" clip-path="url(#p199e8595ac)" style="fill: #dbe9f6"/>
    <path d="M 258.680853 236.947732 
L 272.323383 293.384712 
L 281.523343 288.825422 
z
" clip-path="url(#p199e8595ac)" style="fill: #cfe1f2"/>
    <path d="M 243.55537 304.640116 
L 229.960136 316.868098 
L 256.128539 238.643725 
z
" clip-path="url(#p199e8595ac)" style="fill: #dae8f6"/>
    <path d="M 281.523343 288.825422 
L 268.086606 243.158785 
L 258.680853 236.947732 
z
" clip-path="url(#p199e8595ac)" style="fill: #bcd7eb"/>
    <path d="M 206.778919 321.452861 
L 219.963338 325.401848 
L 229.960136 316.868098 
z
" clip-path="url(#p199e8595ac)" style="fill: #f6faff"/>
    <path d="M 269.810762 295.438728 
L 283.054194 278.710986 
L 272.323383 293.384712 
z
" clip-path="url(#p199e8595ac)" style="fill: #d9e8f5"/>
    <path d="M 258.680853 236.947732 
L 246.080549 302.494996 
L 256.128539 238.643725 
z
" clip-path="url(#p199e8595ac)" style="fill: #bcd7eb"/>
    <path d="M 272.323383 293.384712 
L 256.128539 238.643725 
L 269.810762 295.438728 
z
" clip-path="url(#p199e8595ac)" style="fill: #cde0f1"/>
    <path d="M 272.323383 293.384712 
L 283.054194 278.710986 
L 285.565954 276.782408 
z
" clip-path="url(#p199e8595ac)" style="fill: #d2e3f3"/>
    <path d="M 325.769695 327.332882 
L 339.257135 331.305956 
L 334.874921 303.18157 
z
" clip-path="url(#p199e8595ac)" style="fill: #f1f7fd"/>
    <path d="M 258.680853 236.947732 
L 256.128539 238.643725 
L 272.323383 293.384712 
z
" clip-path="url(#p199e8595ac)" style="fill: #b0d2e7"/>
    <path d="M 256.128539 238.643725 
L 256.265834 305.791301 
L 269.810762 295.438728 
z
" clip-path="url(#p199e8595ac)" style="fill: #cddff1"/>
    <path d="M 339.257135 331.305956 
L 325.769695 327.332882 
L 323.310775 329.54511 
z
" clip-path="url(#p199e8595ac)" style="fill: #f7fbff"/>
    <path d="M 269.52796 290.990994 
L 283.054194 278.710986 
L 269.810762 295.438728 
z
" clip-path="url(#p199e8595ac)" style="fill: #d2e3f3"/>
    <path d="M 334.874921 303.18157 
L 339.257135 331.305956 
L 348.615234 280.637123 
z
" clip-path="url(#p199e8595ac)" style="fill: #e0ecf8"/>
    <path d="M 323.310775 329.54511 
L 336.809562 333.528114 
L 339.257135 331.305956 
z
" clip-path="url(#p199e8595ac)" style="fill: #f7fbff"/>
    <path d="M 352.805144 335.296873 
L 361.746404 324.595924 
L 339.257135 331.305956 
z
" clip-path="url(#p199e8595ac)" style="fill: #f6faff"/>
    <path d="M 219.963338 325.401848 
L 206.778919 321.452861 
L 178.857514 345.28192 
z
" clip-path="url(#p199e8595ac)" style="fill: #f6faff"/>
    <path d="M 269.810762 295.438728 
L 256.265834 305.791301 
L 269.52796 290.990994 
z
" clip-path="url(#p199e8595ac)" style="fill: #d9e8f5"/>
    <path d="M 361.746404 324.595924 
L 348.615234 280.637123 
L 339.257135 331.305956 
z
" clip-path="url(#p199e8595ac)" style="fill: #e6f0f9"/>
    <path d="M 366.459563 335.840208 
L 375.332159 327.717076 
L 361.746404 324.595924 
z
" clip-path="url(#p199e8595ac)" style="fill: #f4f9fe"/>
    <path d="M 256.128539 238.643725 
L 229.960136 316.868098 
L 242.306126 241.928307 
z
" clip-path="url(#p199e8595ac)" style="fill: #b7d4ea"/>
    <path d="M 219.963338 325.401848 
L 232.183757 249.474094 
L 229.960136 316.868098 
z
" clip-path="url(#p199e8595ac)" style="fill: #d7e6f5"/>
    <path d="M 339.257135 331.305956 
L 336.809562 333.528114 
L 350.369045 337.529027 
z
" clip-path="url(#p199e8595ac)" style="fill: #f7fbff"/>
    <path d="M 366.459563 335.840208 
L 361.746404 324.595924 
L 352.805144 335.296873 
z
" clip-path="url(#p199e8595ac)" style="fill: #f5f9fe"/>
    <path d="M 350.369045 337.529027 
L 352.805144 335.296873 
L 339.257135 331.305956 
z
" clip-path="url(#p199e8595ac)" style="fill: #f7fbff"/>
    <path d="M 325.769695 327.332882 
L 334.874921 303.18157 
L 312.566672 236.197017 
z
" clip-path="url(#p199e8595ac)" style="fill: #cfe1f2"/>
    <path d="M 388.919207 334.529509 
L 375.332159 327.717076 
L 366.459563 335.840208 
z
" clip-path="url(#p199e8595ac)" style="fill: #f5f9fe"/>
    <path d="M 323.62196 345.501173 
L 336.809562 333.528114 
L 323.310775 329.54511 
z
" clip-path="url(#p199e8595ac)" style="fill: #f7fbff"/>
    <path d="M 323.310775 329.54511 
L 325.769695 327.332882 
L 312.566672 236.197017 
z
" clip-path="url(#p199e8595ac)" style="fill: #d6e5f4"/>
    <path d="M 242.306126 241.928307 
L 256.265834 305.791301 
L 256.128539 238.643725 
z
" clip-path="url(#p199e8595ac)" style="fill: #aacfe5"/>
    <path d="M 364.033735 338.059834 
L 352.805144 335.296873 
L 350.369045 337.529027 
z
" clip-path="url(#p199e8595ac)" style="fill: #f6faff"/>
    <path d="M 269.52796 290.990994 
L 256.265834 305.791301 
L 246.31715 314.525177 
z
" clip-path="url(#p199e8595ac)" style="fill: #d9e7f5"/>
    <path d="M 323.310775 329.54511 
L 310.062272 341.464454 
L 323.62196 345.501173 
z
" clip-path="url(#p199e8595ac)" style="fill: #f7fbff"/>
    <path d="M 350.369045 337.529027 
L 336.809562 333.528114 
L 323.62196 345.501173 
z
" clip-path="url(#p199e8595ac)" style="fill: #f7fbff"/>
    <path d="M 364.033735 338.059834 
L 366.459563 335.840208 
L 352.805144 335.296873 
z
" clip-path="url(#p199e8595ac)" style="fill: #f5f9fe"/>
    <path d="M 366.459563 335.840208 
L 380.089985 342.985863 
L 388.919207 334.529509 
z
" clip-path="url(#p199e8595ac)" style="fill: #f5fafe"/>
    <path d="M 393.816696 347.377886 
L 402.598012 339.102584 
L 388.919207 334.529509 
z
" clip-path="url(#p199e8595ac)" style="fill: #f7fbff"/>
    <path d="M 312.566672 236.197017 
L 334.874921 303.18157 
L 321.739639 231.527045 
z
" clip-path="url(#p199e8595ac)" style="fill: #a0cbe2"/>
    <path d="M 178.857514 345.28192 
L 192.143428 348.796459 
L 219.963338 325.401848 
z
" clip-path="url(#p199e8595ac)" style="fill: #f6faff"/>
    <path d="M 229.960136 316.868098 
L 232.183757 249.474094 
L 242.306126 241.928307 
z
" clip-path="url(#p199e8595ac)" style="fill: #b2d2e8"/>
    <path d="M 388.919207 334.529509 
L 380.089985 342.985863 
L 393.816696 347.377886 
z
" clip-path="url(#p199e8595ac)" style="fill: #f7fbff"/>
    <path d="M 310.055264 238.179751 
L 310.062272 341.464454 
L 323.310775 329.54511 
z
" clip-path="url(#p199e8595ac)" style="fill: #d6e5f4"/>
    <path d="M 380.089985 342.985863 
L 366.459563 335.840208 
L 364.033735 338.059834 
z
" clip-path="url(#p199e8595ac)" style="fill: #f5f9fe"/>
    <path d="M 364.033735 338.059834 
L 350.369045 337.529027 
L 337.243029 349.556165 
z
" clip-path="url(#p199e8595ac)" style="fill: #f6faff"/>
    <path d="M 246.31715 314.525177 
L 256.265834 305.791301 
L 232.183757 249.474094 
z
" clip-path="url(#p199e8595ac)" style="fill: #c9ddf0"/>
    <path d="M 364.033735 338.059834 
L 377.677094 345.235954 
L 380.089985 342.985863 
z
" clip-path="url(#p199e8595ac)" style="fill: #f5fafe"/>
    <path d="M 337.243029 349.556165 
L 350.369045 337.529027 
L 323.62196 345.501173 
z
" clip-path="url(#p199e8595ac)" style="fill: #f7fbff"/>
    <path d="M 416.348436 343.12863 
L 402.598012 339.102584 
L 407.611109 351.441388 
z
" clip-path="url(#p199e8595ac)" style="fill: #f7fbff"/>
    <path d="M 232.183757 249.474094 
L 219.963338 325.401848 
L 192.143428 348.796459 
z
" clip-path="url(#p199e8595ac)" style="fill: #d7e6f5"/>
    <path d="M 246.31715 314.525177 
L 259.583502 299.505206 
L 269.52796 290.990994 
z
" clip-path="url(#p199e8595ac)" style="fill: #d2e3f3"/>
    <path d="M 380.089985 342.985863 
L 377.677094 345.235954 
L 393.816696 347.377886 
z
" clip-path="url(#p199e8595ac)" style="fill: #f7fbff"/>
    <path d="M 402.598012 339.102584 
L 393.816696 347.377886 
L 407.611109 351.441388 
z
" clip-path="url(#p199e8595ac)" style="fill: #f7fbff"/>
    <path d="M 312.566672 236.197017 
L 310.055264 238.179751 
L 323.310775 329.54511 
z
" clip-path="url(#p199e8595ac)" style="fill: #a9cfe5"/>
    <path d="M 232.183757 249.474094 
L 256.265834 305.791301 
L 242.306126 241.928307 
z
" clip-path="url(#p199e8595ac)" style="fill: #a5cde3"/>
    <path d="M 298.969995 103.074228 
L 294.758836 278.570329 
L 285.565954 276.782408 
z
" clip-path="url(#p199e8595ac)" style="fill: #5ba3d0"/>
    <path d="M 313.927859 354.302473 
L 323.62196 345.501173 
L 310.062272 341.464454 
z
" clip-path="url(#p199e8595ac)" style="fill: #f7fbff"/>
    <path d="M 393.816696 347.377886 
L 377.677094 345.235954 
L 391.415794 349.640439 
z
" clip-path="url(#p199e8595ac)" style="fill: #f7fbff"/>
    <path d="M 430.313528 341.20678 
L 416.348436 343.12863 
L 407.611109 351.441388 
z
" clip-path="url(#p199e8595ac)" style="fill: #f5f9fe"/>
    <path d="M 313.927859 354.302473 
L 310.062272 341.464454 
L 300.323658 350.226041 
z
" clip-path="url(#p199e8595ac)" style="fill: #f7fbff"/>
    <path d="M 364.675881 357.339449 
L 377.677094 345.235954 
L 364.033735 338.059834 
z
" clip-path="url(#p199e8595ac)" style="fill: #f5fafe"/>
    <path d="M 337.243029 349.556165 
L 350.960666 350.194407 
L 364.033735 338.059834 
z
" clip-path="url(#p199e8595ac)" style="fill: #f5f9fe"/>
    <path d="M 407.611109 351.441388 
L 393.816696 347.377886 
L 391.415794 349.640439 
z
" clip-path="url(#p199e8595ac)" style="fill: #f7fbff"/>
    <path d="M 337.243029 349.556165 
L 323.62196 345.501173 
L 313.927859 354.302473 
z
" clip-path="url(#p199e8595ac)" style="fill: #f7fbff"/>
    <path d="M 285.565954 276.782408 
L 283.054194 278.710986 
L 298.969995 103.074228 
z
" clip-path="url(#p199e8595ac)" style="fill: #549fcd"/>
    <path d="M 391.415794 349.640439 
L 405.222202 353.714211 
L 407.611109 351.441388 
z
" clip-path="url(#p199e8595ac)" style="fill: #f7fbff"/>
    <path d="M 364.033735 338.059834 
L 350.960666 350.194407 
L 364.675881 357.339449 
z
" clip-path="url(#p199e8595ac)" style="fill: #f5f9fe"/>
    <path d="M 407.611109 351.441388 
L 421.468173 355.523344 
L 430.313528 341.20678 
z
" clip-path="url(#p199e8595ac)" style="fill: #f5f9fe"/>
    <path d="M 378.478719 361.832028 
L 391.415794 349.640439 
L 377.677094 345.235954 
z
" clip-path="url(#p199e8595ac)" style="fill: #f7fbff"/>
    <path d="M 300.323658 350.226041 
L 310.062272 341.464454 
L 296.522396 253.821834 
z
" clip-path="url(#p199e8595ac)" style="fill: #d7e6f5"/>
    <path d="M 246.31715 314.525177 
L 218.563369 334.063347 
L 259.583502 299.505206 
z
" clip-path="url(#p199e8595ac)" style="fill: #d7e6f5"/>
    <path d="M 435.388316 359.623883 
L 444.036192 351.235448 
L 430.313528 341.20678 
z
" clip-path="url(#p199e8595ac)" style="fill: #f5f9fe"/>
    <path d="M 313.927859 354.302473 
L 327.593945 358.39745 
L 337.243029 349.556165 
z
" clip-path="url(#p199e8595ac)" style="fill: #f7fbff"/>
    <path d="M 407.611109 351.441388 
L 405.222202 353.714211 
L 419.091395 357.806509 
z
" clip-path="url(#p199e8595ac)" style="fill: #f7fbff"/>
    <path d="M 310.055264 238.179751 
L 296.522396 253.821834 
L 310.062272 341.464454 
z
" clip-path="url(#p199e8595ac)" style="fill: #abd0e6"/>
    <path d="M 430.313528 341.20678 
L 421.468173 355.523344 
L 435.388316 359.623883 
z
" clip-path="url(#p199e8595ac)" style="fill: #f5f9fe"/>
    <path d="M 419.091395 357.806509 
L 421.468173 355.523344 
L 407.611109 351.441388 
z
" clip-path="url(#p199e8595ac)" style="fill: #f7fbff"/>
    <path d="M 405.222202 353.714211 
L 391.415794 349.640439 
L 378.478719 361.832028 
z
" clip-path="url(#p199e8595ac)" style="fill: #f7fbff"/>
    <path d="M 232.183757 249.474094 
L 218.563369 334.063347 
L 246.31715 314.525177 
z
" clip-path="url(#p199e8595ac)" style="fill: #c7dcef"/>
    <path d="M 377.677094 345.235954 
L 364.675881 357.339449 
L 378.478719 361.832028 
z
" clip-path="url(#p199e8595ac)" style="fill: #f7fbff"/>
    <path d="M 457.974373 355.316469 
L 444.036192 351.235448 
L 435.388316 359.623883 
z
" clip-path="url(#p199e8595ac)" style="fill: #f7fbff"/>
    <path d="M 341.350534 359.098247 
L 350.960666 350.194407 
L 337.243029 349.556165 
z
" clip-path="url(#p199e8595ac)" style="fill: #f5f9fe"/>
    <path d="M 296.384967 106.048911 
L 283.054194 278.710986 
L 269.52796 290.990994 
z
" clip-path="url(#p199e8595ac)" style="fill: #549fcd"/>
    <path d="M 337.243029 349.556165 
L 327.593945 358.39745 
L 341.350534 359.098247 
z
" clip-path="url(#p199e8595ac)" style="fill: #f6faff"/>
    <path d="M 435.388316 359.623883 
L 421.468173 355.523344 
L 419.091395 357.806509 
z
" clip-path="url(#p199e8595ac)" style="fill: #f7fbff"/>
    <path d="M 364.675881 357.339449 
L 350.960666 350.194407 
L 341.350534 359.098247 
z
" clip-path="url(#p199e8595ac)" style="fill: #f5f9fe"/>
    <path d="M 435.388316 359.623883 
L 449.371971 363.74313 
L 457.974373 355.316469 
z
" clip-path="url(#p199e8595ac)" style="fill: #f7fbff"/>
    <path d="M 313.927859 354.302473 
L 300.323658 350.226041 
L 273.222533 374.608241 
z
" clip-path="url(#p199e8595ac)" style="fill: #f7fbff"/>
    <path d="M 419.091395 357.806509 
L 433.023804 361.917459 
L 435.388316 359.623883 
z
" clip-path="url(#p199e8595ac)" style="fill: #f7fbff"/>
    <path d="M 378.478719 361.832028 
L 392.349528 365.961368 
L 405.222202 353.714211 
z
" clip-path="url(#p199e8595ac)" style="fill: #f7fbff"/>
    <path d="M 406.283845 370.109614 
L 419.091395 357.806509 
L 405.222202 353.714211 
z
" clip-path="url(#p199e8595ac)" style="fill: #f7fbff"/>
    <path d="M 298.969995 103.074228 
L 308.356402 135.341953 
L 294.758836 278.570329 
z
" clip-path="url(#p199e8595ac)" style="fill: #1460a8"/>
    <path d="M 463.419571 367.881214 
L 471.975995 359.416064 
L 457.974373 355.316469 
z
" clip-path="url(#p199e8595ac)" style="fill: #f7fbff"/>
    <path d="M 378.478719 361.832028 
L 364.675881 357.339449 
L 355.117636 366.264003 
z
" clip-path="url(#p199e8595ac)" style="fill: #f7fbff"/>
    <path d="M 457.974373 355.316469 
L 449.371971 363.74313 
L 463.419571 367.881214 
z
" clip-path="url(#p199e8595ac)" style="fill: #f7fbff"/>
    <path d="M 435.388316 359.623883 
L 433.023804 361.917459 
L 447.019859 366.047189 
z
" clip-path="url(#p199e8595ac)" style="fill: #f7fbff"/>
    <path d="M 341.350534 359.098247 
L 355.117636 366.264003 
L 364.675881 357.339449 
z
" clip-path="url(#p199e8595ac)" style="fill: #f5fafe"/>
    <path d="M 447.019859 366.047189 
L 449.371971 363.74313 
L 435.388316 359.623883 
z
" clip-path="url(#p199e8595ac)" style="fill: #f7fbff"/>
    <path d="M 405.222202 353.714211 
L 392.349528 365.961368 
L 406.283845 370.109614 
z
" clip-path="url(#p199e8595ac)" style="fill: #f7fbff"/>
    <path d="M 433.023804 361.917459 
L 419.091395 357.806509 
L 406.283845 370.109614 
z
" clip-path="url(#p199e8595ac)" style="fill: #f7fbff"/>
    <path d="M 298.969995 103.074228 
L 312.566672 236.197017 
L 321.739639 231.527045 
z
" clip-path="url(#p199e8595ac)" style="fill: #2070b4"/>
    <path d="M 296.522396 253.821834 
L 286.580569 262.704598 
L 300.323658 350.226041 
z
" clip-path="url(#p199e8595ac)" style="fill: #aed1e7"/>
    <path d="M 232.183757 249.474094 
L 192.143428 348.796459 
L 203.91104 265.782921 
z
" clip-path="url(#p199e8595ac)" style="fill: #add0e6"/>
    <path d="M 259.583502 299.505206 
L 218.563369 334.063347 
L 231.924605 324.39178 
z
" clip-path="url(#p199e8595ac)" style="fill: #d0e2f2"/>
    <path d="M 477.531558 372.038265 
L 486.041492 363.534362 
L 471.975995 359.416064 
z
" clip-path="url(#p199e8595ac)" style="fill: #f7fbff"/>
    <path d="M 313.927859 354.302473 
L 300.739718 383.003505 
L 327.593945 358.39745 
z
" clip-path="url(#p199e8595ac)" style="fill: #f7fbff"/>
    <path d="M 471.975995 359.416064 
L 463.419571 367.881214 
L 477.531558 372.038265 
z
" clip-path="url(#p199e8595ac)" style="fill: #f7fbff"/>
    <path d="M 355.117636 366.264003 
L 368.967773 370.794916 
L 378.478719 361.832028 
z
" clip-path="url(#p199e8595ac)" style="fill: #f7fbff"/>
    <path d="M 461.08 370.195828 
L 449.371971 363.74313 
L 447.019859 366.047189 
z
" clip-path="url(#p199e8595ac)" style="fill: #f7fbff"/>
    <path d="M 273.222533 374.608241 
L 300.323658 350.226041 
L 286.580569 262.704598 
z
" clip-path="url(#p199e8595ac)" style="fill: #d7e6f5"/>
    <path d="M 461.08 370.195828 
L 463.419571 367.881214 
L 449.371971 363.74313 
z
" clip-path="url(#p199e8595ac)" style="fill: #f7fbff"/>
    <path d="M 310.055264 238.179751 
L 312.566672 236.197017 
L 298.969995 103.074228 
z
" clip-path="url(#p199e8595ac)" style="fill: #206fb4"/>
    <path d="M 382.885674 374.965347 
L 392.349528 365.961368 
L 378.478719 361.832028 
z
" clip-path="url(#p199e8595ac)" style="fill: #f7fbff"/>
    <path d="M 500.171303 367.671491 
L 486.041492 363.534362 
L 477.531558 372.038265 
z
" clip-path="url(#p199e8595ac)" style="fill: #f7fbff"/>
    <path d="M 327.593945 358.39745 
L 300.739718 383.003505 
L 341.350534 359.098247 
z
" clip-path="url(#p199e8595ac)" style="fill: #f6faff"/>
    <path d="M 406.283845 370.109614 
L 420.282108 374.276896 
L 433.023804 361.917459 
z
" clip-path="url(#p199e8595ac)" style="fill: #f7fbff"/>
    <path d="M 447.019859 366.047189 
L 433.023804 361.917459 
L 434.344758 378.463346 
z
" clip-path="url(#p199e8595ac)" style="fill: #f7fbff"/>
    <path d="M 378.478719 361.832028 
L 368.967773 370.794916 
L 382.885674 374.965347 
z
" clip-path="url(#p199e8595ac)" style="fill: #f7fbff"/>
    <path d="M 273.222533 374.608241 
L 286.949478 378.796217 
L 313.927859 354.302473 
z
" clip-path="url(#p199e8595ac)" style="fill: #f7fbff"/>
    <path d="M 321.739639 231.527045 
L 308.356402 135.341953 
L 298.969995 103.074228 
z
" clip-path="url(#p199e8595ac)" style="fill: #08458a"/>
    <path d="M 203.91104 265.782921 
L 218.563369 334.063347 
L 232.183757 249.474094 
z
" clip-path="url(#p199e8595ac)" style="fill: #9dcae1"/>
    <path d="M 461.08 370.195828 
L 477.531558 372.038265 
L 463.419571 367.881214 
z
" clip-path="url(#p199e8595ac)" style="fill: #f7fbff"/>
    <path d="M 269.52796 290.990994 
L 259.583502 299.505206 
L 272.232252 129.806726 
z
" clip-path="url(#p199e8595ac)" style="fill: #58a1cf"/>
    <path d="M 406.283845 370.109614 
L 392.349528 365.961368 
L 382.885674 374.965347 
z
" clip-path="url(#p199e8595ac)" style="fill: #f7fbff"/>
    <path d="M 434.344758 378.463346 
L 433.023804 361.917459 
L 420.282108 374.276896 
z
" clip-path="url(#p199e8595ac)" style="fill: #f7fbff"/>
    <path d="M 447.019859 366.047189 
L 434.344758 378.463346 
L 461.08 370.195828 
z
" clip-path="url(#p199e8595ac)" style="fill: #f7fbff"/>
    <path d="M 477.531558 372.038265 
L 491.708374 376.214413 
L 500.171303 367.671491 
z
" clip-path="url(#p199e8595ac)" style="fill: #f7fbff"/>
    <path d="M 313.927859 354.302473 
L 286.949478 378.796217 
L 300.739718 383.003505 
z
" clip-path="url(#p199e8595ac)" style="fill: #f7fbff"/>
    <path d="M 475.204666 374.363507 
L 477.531558 372.038265 
L 461.08 370.195828 
z
" clip-path="url(#p199e8595ac)" style="fill: #f7fbff"/>
    <path d="M 298.969995 103.074228 
L 283.054194 278.710986 
L 296.384967 106.048911 
z
" clip-path="url(#p199e8595ac)" style="fill: #084990"/>
    <path d="M 328.511846 391.476549 
L 355.117636 366.264003 
L 341.350534 359.098247 
z
" clip-path="url(#p199e8595ac)" style="fill: #f6faff"/>
    <path d="M 382.885674 374.965347 
L 396.867617 379.154968 
L 406.283845 370.109614 
z
" clip-path="url(#p199e8595ac)" style="fill: #f7fbff"/>
    <path d="M 477.531558 372.038265 
L 475.204666 374.363507 
L 489.394304 378.550356 
z
" clip-path="url(#p199e8595ac)" style="fill: #f7fbff"/>
    <path d="M 489.394304 378.550356 
L 491.708374 376.214413 
L 477.531558 372.038265 
z
" clip-path="url(#p199e8595ac)" style="fill: #f7fbff"/>
    <path d="M 410.914045 383.363912 
L 420.282108 374.276896 
L 406.283845 370.109614 
z
" clip-path="url(#p199e8595ac)" style="fill: #f7fbff"/>
    <path d="M 282.466659 121.334966 
L 296.522396 253.821834 
L 310.055264 238.179751 
z
" clip-path="url(#p199e8595ac)" style="fill: #2373b6"/>
    <path d="M 461.08 370.195828 
L 434.344758 378.463346 
L 448.472239 382.669097 
z
" clip-path="url(#p199e8595ac)" style="fill: #f7fbff"/>
    <path d="M 462.665002 386.894282 
L 475.204666 374.363507 
L 461.08 370.195828 
z
" clip-path="url(#p199e8595ac)" style="fill: #f7fbff"/>
    <path d="M 406.283845 370.109614 
L 396.867617 379.154968 
L 410.914045 383.363912 
z
" clip-path="url(#p199e8595ac)" style="fill: #f7fbff"/>
    <path d="M 342.494623 395.742578 
L 368.967773 370.794916 
L 355.117636 366.264003 
z
" clip-path="url(#p199e8595ac)" style="fill: #f7fbff"/>
    <path d="M 341.350534 359.098247 
L 300.739718 383.003505 
L 314.608741 382.291943 
z
" clip-path="url(#p199e8595ac)" style="fill: #f4f9fe"/>
    <path d="M 420.282108 374.276896 
L 410.914045 383.363912 
L 434.344758 378.463346 
z
" clip-path="url(#p199e8595ac)" style="fill: #f7fbff"/>
    <path d="M 461.08 370.195828 
L 448.472239 382.669097 
L 462.665002 386.894282 
z
" clip-path="url(#p199e8595ac)" style="fill: #f7fbff"/>
    <path d="M 382.885674 374.965347 
L 368.967773 370.794916 
L 342.494623 395.742578 
z
" clip-path="url(#p199e8595ac)" style="fill: #f7fbff"/>
    <path d="M 476.9235 391.139036 
L 489.394304 378.550356 
L 475.204666 374.363507 
z
" clip-path="url(#p199e8595ac)" style="fill: #f7fbff"/>
    <path d="M 314.608741 382.291943 
L 328.511846 391.476549 
L 341.350534 359.098247 
z
" clip-path="url(#p199e8595ac)" style="fill: #f4f9fe"/>
    <path d="M 296.384967 106.048911 
L 310.055264 238.179751 
L 298.969995 103.074228 
z
" clip-path="url(#p199e8595ac)" style="fill: #08306b"/>
    <path d="M 282.466659 121.334966 
L 296.384967 106.048911 
L 269.52796 290.990994 
z
" clip-path="url(#p199e8595ac)" style="fill: #084b93"/>
    <path d="M 434.344758 378.463346 
L 410.914045 383.363912 
L 425.025404 387.592312 
z
" clip-path="url(#p199e8595ac)" style="fill: #f7fbff"/>
    <path d="M 475.204666 374.363507 
L 462.665002 386.894282 
L 476.9235 391.139036 
z
" clip-path="url(#p199e8595ac)" style="fill: #f7fbff"/>
    <path d="M 434.344758 378.463346 
L 439.202145 391.840304 
L 448.472239 382.669097 
z
" clip-path="url(#p199e8595ac)" style="fill: #f7fbff"/>
    <path d="M 286.580569 262.704598 
L 258.832044 276.652511 
L 273.222533 374.608241 
z
" clip-path="url(#p199e8595ac)" style="fill: #a9cfe5"/>
    <path d="M 355.117636 366.264003 
L 328.511846 391.476549 
L 342.494623 395.742578 
z
" clip-path="url(#p199e8595ac)" style="fill: #f7fbff"/>
    <path d="M 425.025404 387.592312 
L 439.202145 391.840304 
L 434.344758 378.463346 
z
" clip-path="url(#p199e8595ac)" style="fill: #f7fbff"/>
    <path d="M 272.232252 129.806726 
L 286.580569 262.704598 
L 296.522396 253.821834 
z
" clip-path="url(#p199e8595ac)" style="fill: #2676b8"/>
    <path d="M 310.055264 238.179751 
L 296.384967 106.048911 
L 282.466659 121.334966 
z
" clip-path="url(#p199e8595ac)" style="fill: #08326e"/>
    <path d="M 370.655859 404.334336 
L 396.867617 379.154968 
L 382.885674 374.965347 
z
" clip-path="url(#p199e8595ac)" style="fill: #f7fbff"/>
    <path d="M 462.665002 386.894282 
L 448.472239 382.669097 
L 439.202145 391.840304 
z
" clip-path="url(#p199e8595ac)" style="fill: #f7fbff"/>
    <path d="M 259.583502 299.505206 
L 231.924605 324.39178 
L 243.954026 173.745388 
z
" clip-path="url(#p199e8595ac)" style="fill: #66abd4"/>
    <path d="M 269.52796 290.990994 
L 272.232252 129.806726 
L 282.466659 121.334966 
z
" clip-path="url(#p199e8595ac)" style="fill: #084e98"/>
    <path d="M 410.914045 383.363912 
L 396.867617 379.154968 
L 370.655859 404.334336 
z
" clip-path="url(#p199e8595ac)" style="fill: #f7fbff"/>
    <path d="M 342.494623 395.742578 
L 356.542475 400.02846 
L 382.885674 374.965347 
z
" clip-path="url(#p199e8595ac)" style="fill: #f7fbff"/>
    <path d="M 476.9235 391.139036 
L 462.665002 386.894282 
L 453.444725 396.108023 
z
" clip-path="url(#p199e8595ac)" style="fill: #f7fbff"/>
    <path d="M 439.202145 391.840304 
L 453.444725 396.108023 
L 462.665002 386.894282 
z
" clip-path="url(#p199e8595ac)" style="fill: #f7fbff"/>
    <path d="M 382.885674 374.965347 
L 356.542475 400.02846 
L 370.655859 404.334336 
z
" clip-path="url(#p199e8595ac)" style="fill: #f7fbff"/>
    <path d="M 410.914045 383.363912 
L 399.081061 413.006628 
L 425.025404 387.592312 
z
" clip-path="url(#p199e8595ac)" style="fill: #f7fbff"/>
    <path d="M 453.444725 396.108023 
L 467.753603 400.395609 
L 476.9235 391.139036 
z
" clip-path="url(#p199e8595ac)" style="fill: #f7fbff"/>
    <path d="M 282.466659 121.334966 
L 272.232252 129.806726 
L 296.522396 253.821834 
z
" clip-path="url(#p199e8595ac)" style="fill: #083674"/>
    <path d="M 425.025404 387.592312 
L 399.081061 413.006628 
L 439.202145 391.840304 
z
" clip-path="url(#p199e8595ac)" style="fill: #f7fbff"/>
    <path d="M 370.655859 404.334336 
L 384.835233 408.660345 
L 410.914045 383.363912 
z
" clip-path="url(#p199e8595ac)" style="fill: #f7fbff"/>
    <path d="M 243.954026 173.745388 
L 272.232252 129.806726 
L 259.583502 299.505206 
z
" clip-path="url(#p199e8595ac)" style="fill: #0e58a2"/>
    <path d="M 410.914045 383.363912 
L 384.835233 408.660345 
L 399.081061 413.006628 
z
" clip-path="url(#p199e8595ac)" style="fill: #f7fbff"/>
    <path d="M 427.773959 421.760592 
L 453.444725 396.108023 
L 439.202145 391.840304 
z
" clip-path="url(#p199e8595ac)" style="fill: #f7fbff"/>
    <path d="M 243.954026 173.745388 
L 258.832044 276.652511 
L 286.580569 262.704598 
z
" clip-path="url(#p199e8595ac)" style="fill: #2c7cba"/>
    <path d="M 439.202145 391.840304 
L 399.081061 413.006628 
L 413.393813 417.373329 
z
" clip-path="url(#p199e8595ac)" style="fill: #f7fbff"/>
    <path d="M 442.221979 426.168562 
L 467.753603 400.395609 
L 453.444725 396.108023 
z
" clip-path="url(#p199e8595ac)" style="fill: #f7fbff"/>
    <path d="M 286.580569 262.704598 
L 272.232252 129.806726 
L 243.954026 173.745388 
z
" clip-path="url(#p199e8595ac)" style="fill: #084285"/>
    <path d="M 413.393813 417.373329 
L 427.773959 421.760592 
L 439.202145 391.840304 
z
" clip-path="url(#p199e8595ac)" style="fill: #f7fbff"/>
    <path d="M 453.444725 396.108023 
L 427.773959 421.760592 
L 442.221979 426.168562 
z
" clip-path="url(#p199e8595ac)" style="fill: #f7fbff"/>
   </g>
  </g>
 </g>
 <defs>
  <clipPath id="p199e8595ac">
   <rect x="14.4" y="14.4" width="554.4" height="554.4"/>
  </clipPath>
 </defs>
</svg>
